<?xml version="1.0" encoding="UTF-8" standalone="no"?>
<!-- Created with Inkscape (http://www.inkscape.org/) -->

<svg
   xmlns:dc="http://purl.org/dc/elements/1.1/"
   xmlns:cc="http://creativecommons.org/ns#"
   xmlns:rdf="http://www.w3.org/1999/02/22-rdf-syntax-ns#"
   xmlns:svg="http://www.w3.org/2000/svg"
   xmlns="http://www.w3.org/2000/svg"
   xmlns:sodipodi="http://sodipodi.sourceforge.net/DTD/sodipodi-0.dtd"
   xmlns:inkscape="http://www.inkscape.org/namespaces/inkscape"
   id="svg2"
   version="1.1"
   inkscape:version="0.91 r13725"
   xml:space="preserve"
   width="2180.0837"
   height="1687.8239"
   viewBox="0 0 2180.0837 1687.8239"
   sodipodi:docname="vehicleDescriptionDriveTrainBlackBox.svg"><sodipodi:namedview
     pagecolor="#ffffff"
     bordercolor="#666666"
     borderopacity="1"
     objecttolerance="10"
     gridtolerance="10"
     guidetolerance="10"
     inkscape:pageopacity="0"
     inkscape:pageshadow="2"
     inkscape:window-width="1600"
     inkscape:window-height="847"
     id="namedview4"
     showgrid="false"
     inkscape:zoom="0.29296923"
     inkscape:cx="642.33624"
     inkscape:cy="769.47206"
     inkscape:window-x="-8"
     inkscape:window-y="-8"
     inkscape:window-maximized="1"
     inkscape:current-layer="g12"
     fit-margin-top="0"
     fit-margin-left="0"
     fit-margin-right="0"
     fit-margin-bottom="0" /><metadata
     id="metadata8"><rdf:RDF><cc:Work
         rdf:about=""><dc:format>image/svg+xml</dc:format><dc:type
           rdf:resource="http://purl.org/dc/dcmitype/StillImage" /><dc:title></dc:title></cc:Work></rdf:RDF></metadata><defs
     id="defs6" /><g
     id="g10"
     inkscape:groupmode="layer"
     inkscape:label="vehicleDescriptionDriveTrain"
     transform="matrix(1.25,0,0,-1.25,80.387564,1982.3513)"><g
       id="g12"><path
         sodipodi:nodetypes="ccccccccc"
         inkscape:connector-curvature="0"
         id="path110"
         d="m 1344.628,1200.1096 -446.8392,0.9654 0,136.4547 -627.72192,0 0,-1049.2969 627.72192,0 0,0.0874 447.8046,0 z"
         style="fill:#f6f6f6;fill-opacity:1;stroke:#000000;stroke-width:2.10479999;stroke-linecap:square;stroke-linejoin:round;stroke-miterlimit:1;stroke-dasharray:8.4192, 16.8384;stroke-dashoffset:0;stroke-opacity:1" /><path
         d="m 947.76783,1253.0696 7.422,7.211 c 10.907,9.656 15.125,13.433 15.125,20.433 0,8 -6.297,13.606 -14.843,13.606 -7.926,0 -13.114,-6.465 -13.114,-12.688 0,-3.922 3.516,-3.922 3.711,-3.922 1.207,0 3.656,0.84 3.656,3.711 0,1.825 -1.253,3.653 -3.71,3.653 -0.551,0 -0.704,0 -0.903,-0.075 1.602,4.559 5.387,7.145 9.445,7.145 6.372,0 9.391,-5.695 9.391,-11.43 0,-5.593 -3.516,-11.132 -7.351,-15.472 l -13.434,-14.985 c -0.805,-0.758 -0.805,-0.898 -0.805,-2.586 l 25.989,0 1.968,12.188 -1.758,0 c -0.351,-2.11 -0.828,-5.188 -1.531,-6.242 -0.508,-0.551 -5.117,-0.551 -6.648,-0.551 l -12.61,0 0,0 z"
         style="fill:#000000;fill-opacity:1;fill-rule:nonzero;stroke:none"
         id="path128"
         inkscape:connector-curvature="0" /><path
         d="m 802.55454,588.78077 0.531,0.18 0.52,0.21 0.523,0.211 0.489,0.239 0.492,0.254 0.48,0.269 0.465,0.277 0.449,0.313 0.438,0.309 0.433,0.324 0.407,0.336 0.394,0.351 0.379,0.364 0.363,0.382 0.352,0.379 0.336,0.407 0.312,0.406 0.297,0.426 0.278,0.421 0.269,0.45 0.254,0.449 0.223,0.449 0.199,0.465 0.195,0.476 0.309,0.954 0.125,0.496 0.101,0.504 0.082,0.507 0.055,0.504 0.031,0.508 0.016,0.52 c 0,5.734 -6.172,9.668 -12.891,9.668 -7.07,0 -12.382,-4.215 -12.382,-9.528 0,-2.32 1.535,-3.656 3.57,-3.656 2.164,0 3.57,1.547 3.57,3.586 0,3.484 -3.305,3.484 -4.328,3.484 2.148,3.43 6.789,4.36 9.305,4.36 2.851,0 6.718,-1.547 6.718,-7.844 0,-0.859 -0.156,-4.906 -1.968,-8 -2.094,-3.359 -4.485,-3.555 -6.211,-3.637 -0.578,-0.07 -2.25,-0.199 -2.758,-0.199 -0.547,-0.07 -1.055,-0.137 -1.055,-0.844 0,-0.758 0.508,-0.758 1.703,-0.758 l 3.063,0 c 5.765,0 8.351,-4.765 8.351,-11.652 0,-9.5 -4.836,-11.539 -7.929,-11.539 -3.008,0 -8.262,1.18 -10.696,5.316 2.434,-0.339 4.61,1.204 4.61,3.864 0,2.515 -1.883,3.906 -3.934,3.906 -1.66,0 -3.91,-0.969 -3.91,-4.062 0,-6.368 6.508,-10.977 14.156,-10.977 8.532,0 14.914,6.367 14.914,13.492 0,5.762 -4.429,11.203 -11.695,12.68 z"
         style="fill:#000000;fill-opacity:1;fill-rule:nonzero;stroke:none"
         id="path130"
         inkscape:connector-curvature="0" /><path
         d="m 5.5334665,268.55208 0,-6.085 c 0,-2.532 -0.125,-3.29 -5.31200002,-3.29 l -1.47699998,0 0,-2.179 c 2.883,0.222 6.52,0.222 9.473,0.222 2.9409995,0 6.6519995,0 9.5039995,-0.222 l 0,2.179 -1.465,0 c -5.184,0 -5.324,0.758 -5.324,3.29 l 0,6.085 7.011,0 0,2.165 -7.011,0 0,31.875 c 0,1.406 0,1.816 -1.1099995,1.816 -0.648,0 -0.847,0 -1.41,-0.859 l -21.5000005,-32.832 1.981,0 17.0740005,26.113 0,-26.113 -19.0550005,0 0,-2.165 18.6210005,0 z"
         style="fill:#000000;fill-opacity:1;fill-rule:nonzero;stroke:none"
         id="path132"
         inkscape:connector-curvature="0" /><g
         id="g4956"
         transform="matrix(0.39878386,0,0,-0.39878386,823.03381,1747.0758)"><g
           word-spacing="normal"
           letter-spacing="normal"
           font-size-adjust="none"
           font-stretch="normal"
           font-weight="normal"
           font-variant="normal"
           font-style="normal"
           stroke-miterlimit="10.433"
           xml:space="preserve"
           transform="matrix(2.6952879,0,0,-2.6952879,-471.67537,1708.8197)"
           id="g4958"
           style="font-style:normal;font-variant:normal;font-weight:normal;font-stretch:normal;letter-spacing:normal;word-spacing:normal;text-anchor:start;fill:none;fill-opacity:1;fill-rule:evenodd;stroke:#000000;stroke-width:2.50762391;stroke-linecap:butt;stroke-linejoin:miter;stroke-miterlimit:10.43299961;stroke-dasharray:none;stroke-dashoffset:0;stroke-opacity:1"><path
             id="path4960"
             d="m 395.52,438.09 0,0.05 0,0.06 0,0.05 0,0.05 0,0.05 0,0.05 0,0.04 0,0.05 0,0.04 0,0.04 -0.01,0.04 0,0.04 0,0.04 0,0.03 0,0.04 -0.01,0.03 -0.01,0.07 0,0.06 -0.02,0.05 -0.01,0.05 -0.02,0.05 -0.02,0.04 -0.02,0.04 -0.02,0.03 -0.03,0.03 -0.03,0.03 -0.04,0.03 -0.04,0.02 -0.04,0.02 -0.03,0.01 -0.02,0.01 -0.03,0 -0.02,0.01 -0.03,0.01 -0.03,0 -0.03,0.01 -0.03,0 -0.04,0.01 -0.03,0 -0.04,0 -0.04,0.01 -0.03,0 -0.04,0 -0.05,0 -0.04,0 -0.04,0 -0.05,0.01 -0.05,0 -0.05,0 -0.05,0 -0.05,0 c -3.09,-3.19 -7.47,-3.19 -9.06,-3.19 l 0,-1.55 c 1,0 3.93,0 6.51,1.3 l 0,-25.81 c 0,-1.8 -0.14,-2.39 -4.62,-2.39 l -1.6,0 0,-1.55 c 1.75,0.16 6.08,0.16 8.07,0.16 2,0 6.32,0 8.07,-0.16 l 0,1.55 -1.59,0 c -4.48,0 -4.64,0.54 -4.64,2.39 z"
             inkscape:connector-curvature="0"
             style="fill:#000000;stroke-width:0" /><path
             id="path4962"
             d="m 420.23,418.65 0,0.37 -0.01,0.39 -0.01,0.39 -0.01,0.41 -0.04,0.84 -0.06,0.88 -0.08,0.92 -0.11,0.95 -0.13,0.97 -0.17,1.01 -0.19,1.02 -0.23,1.03 -0.27,1.05 -0.31,1.06 -0.35,1.07 -0.39,1.07 -0.21,0.53 -0.23,0.53 -0.23,0.53 -0.25,0.53 c -2.99,6.12 -7.27,9.36 -7.77,9.36 -0.3,0 -0.5,-0.19 -0.5,-0.49 0,-0.15 0,-0.25 0.94,-1.15 4.89,-4.92 7.73,-12.85 7.73,-23.27 0,-8.51 -1.84,-17.28 -8.03,-23.56 -0.64,-0.59 -0.64,-0.7 -0.64,-0.84 0,-0.3 0.2,-0.5 0.5,-0.5 0.5,0 4.97,3.39 7.92,9.71 2.53,5.47 3.13,11 3.13,15.19 z"
             inkscape:connector-curvature="0"
             style="fill:#000000;stroke-width:0" /><path
             id="path4964"
             d="m 453.71,439.14 -0.02,0.05 -0.02,0.05 -0.01,0.04 -0.02,0.05 -0.04,0.09 -0.04,0.08 -0.03,0.07 -0.04,0.07 -0.04,0.07 -0.03,0.06 -0.04,0.05 -0.03,0.05 -0.04,0.05 -0.04,0.04 -0.03,0.04 -0.04,0.04 -0.05,0.03 -0.04,0.02 -0.04,0.03 -0.05,0.02 -0.05,0.02 -0.06,0.01 -0.05,0.02 -0.06,0.01 -0.06,0.01 -0.07,0 -0.07,0.01 -0.07,0 -0.08,0.01 -0.09,0 -0.08,0 -0.1,0 -0.1,0 -0.1,0 -8.42,0 0,-1.55 1.2,0 c 3.83,0 3.92,-0.54 3.92,-2.34 l 0,-24.91 c 0,-1.34 0,-3.68 -5.12,-3.68 l 0,-1.55 c 1.75,0.05 4.19,0.16 5.83,0.16 1.64,0 4.09,-0.11 5.82,-0.16 l 0,1.55 c -5.12,0 -5.12,2.34 -5.12,3.68 l 0,26.85 0.05,0 12,-30.99 c 0.25,-0.64 0.5,-1.09 1,-1.09 0.54,0 0.7,0.41 0.89,0.95 l 12.26,31.53 0.05,0 0,-28.59 c 0,-1.8 -0.09,-2.34 -3.94,-2.34 l -1.19,0 0,-1.55 c 1.85,0.16 5.22,0.16 7.18,0.16 1.93,0 5.28,0 7.12,-0.16 l 0,1.55 -1.2,0 c -3.83,0 -3.94,0.54 -3.94,2.34 l 0,26.25 c 0,1.8 0.11,2.34 3.94,2.34 l 1.2,0 0,1.55 -8.42,0 c -1.3,0 -1.3,-0.05 -1.64,-0.95 l -10.92,-28.05 z"
             inkscape:connector-curvature="0"
             style="fill:#000000;stroke-width:0" /><path
             id="path4966"
             d="m 510.9,416.86 -0.01,0.59 -0.05,0.59 -0.07,0.58 -0.09,0.57 -0.13,0.56 -0.15,0.55 -0.17,0.54 -0.2,0.53 -0.22,0.51 -0.25,0.5 -0.26,0.49 -0.29,0.47 -0.31,0.46 -0.33,0.44 -0.35,0.43 -0.36,0.4 -0.39,0.39 -0.4,0.37 -0.42,0.35 -0.43,0.32 -0.44,0.31 -0.47,0.28 -0.47,0.26 -0.49,0.24 -0.5,0.21 -0.51,0.18 -0.52,0.16 -0.53,0.13 -0.54,0.11 -0.55,0.07 -0.55,0.05 -0.56,0.01 -0.05,-1.09 c 2.19,0 4.33,-1.1 5.62,-3.24 1.3,-2.14 1.3,-5.03 1.3,-6.92 0,-1.8 0,-4.48 -1.09,-6.67 -1.1,-2.25 -3.28,-3.69 -5.78,-3.69 l 0,0 c -2.14,0 -4.33,1.05 -5.68,3.33 -1.25,2.2 -1.25,5.23 -1.25,7.03 0,1.94 0,4.63 1.19,6.83 1.36,2.28 3.69,3.33 5.69,3.33 l 0.05,1.09 c -6.22,0 -11.07,-5.42 -11.07,-11.65 0,-6.43 5.19,-11.21 11.02,-11.21 6.03,0 11.06,4.88 11.06,11.21 z"
             inkscape:connector-curvature="0"
             style="fill:#000000;stroke-width:0" /><path
             id="path4968"
             d="m 521.02,426.12 7.12,0 0,1.55 -7.12,0 0,9.17 -1.25,0 c -0.05,-4.08 -1.55,-9.42 -6.43,-9.61 l 0,-1.11 4.24,0 0,-13.75 c 0,-6.12 4.62,-6.72 6.42,-6.72 3.53,0 4.94,3.53 4.94,6.72 l 0,2.84 -1.25,0 0,-2.73 c 0,-3.69 -1.5,-5.58 -3.35,-5.58 -3.32,0 -3.32,4.53 -3.32,5.38 z"
             inkscape:connector-curvature="0"
             style="fill:#000000;stroke-width:0" /><path
             id="path4970"
             d="m 555.18,416.86 -0.02,0.59 -0.04,0.59 -0.07,0.58 -0.1,0.57 -0.12,0.56 -0.15,0.55 -0.18,0.54 -0.2,0.53 -0.22,0.51 -0.24,0.5 -0.27,0.49 -0.29,0.47 -0.31,0.46 -0.33,0.44 -0.34,0.43 -0.37,0.4 -0.38,0.39 -0.4,0.37 -0.42,0.35 -0.43,0.32 -0.45,0.31 -0.46,0.28 -0.48,0.26 -0.48,0.24 -0.5,0.21 -0.51,0.18 -0.52,0.16 -0.54,0.13 -0.53,0.11 -0.55,0.07 -0.56,0.05 -0.56,0.01 -0.05,-1.09 c 2.19,0 4.33,-1.1 5.63,-3.24 1.29,-2.14 1.29,-5.03 1.29,-6.92 0,-1.8 0,-4.48 -1.09,-6.67 -1.09,-2.25 -3.28,-3.69 -5.78,-3.69 l 0,0 c -2.14,0 -4.33,1.05 -5.67,3.33 -1.25,2.2 -1.25,5.23 -1.25,7.03 0,1.94 0,4.63 1.19,6.83 1.35,2.28 3.68,3.33 5.68,3.33 l 0.05,1.09 c -6.22,0 -11.06,-5.42 -11.06,-11.65 0,-6.43 5.18,-11.21 11.01,-11.21 6.04,0 11.07,4.88 11.07,11.21 z"
             inkscape:connector-curvature="0"
             style="fill:#000000;stroke-width:0" /><path
             id="path4972"
             d="m 564.98,422.75 0,5.46 -6.93,-0.54 0,-1.55 c 3.49,0 3.9,-0.34 3.9,-2.78 l 0,-13.36 c 0,-2.23 -0.55,-2.23 -3.9,-2.23 l 0,-1.55 c 1.96,0.05 4.29,0.16 5.69,0.16 1.99,0 4.33,0 6.33,-0.16 l 0,1.55 -1.05,0 c -3.68,0 -3.79,0.54 -3.79,2.34 l 0,7.67 c 0,4.92 2.09,9.36 5.89,9.36 0.34,0 0.43,0 0.54,-0.05 -0.15,-0.04 -1.15,-0.64 -1.15,-1.93 0,-1.41 1.04,-2.14 2.15,-2.14 0.89,0 2.14,0.59 2.14,2.18 0,1.6 -1.54,3.03 -3.68,3.03 -3.64,0 -5.44,-3.32 -6.14,-5.46 z"
             inkscape:connector-curvature="0"
             style="fill:#000000;stroke-width:0" /><path
             id="path4974"
             d="m 387.21,350.29 5.28,5.12 c 7.76,6.88 10.76,9.56 10.76,14.55 0,5.68 -4.48,9.67 -10.56,9.67 -5.64,0 -9.33,-4.59 -9.33,-9.03 0,-2.78 2.5,-2.78 2.64,-2.78 0.86,0 2.6,0.59 2.6,2.64 0,1.29 -0.89,2.59 -2.64,2.59 -0.39,0 -0.5,0 -0.64,-0.05 1.14,3.24 3.82,5.08 6.72,5.08 4.53,0 6.68,-4.04 6.68,-8.12 0,-3.99 -2.5,-7.92 -5.23,-11.02 l -9.56,-10.65 c -0.57,-0.55 -0.57,-0.65 -0.57,-1.85 l 18.49,0 1.4,8.67 -1.25,0 c -0.25,-1.5 -0.59,-3.68 -1.09,-4.43 -0.36,-0.39 -3.64,-0.39 -4.73,-0.39 z"
             inkscape:connector-curvature="0"
             style="fill:#000000;stroke-width:0" /><path
             id="path4976"
             d="m 420.23,358.89 0,0.38 -0.01,0.38 -0.01,0.39 -0.01,0.41 -0.04,0.84 -0.06,0.88 -0.08,0.92 -0.11,0.95 -0.13,0.98 -0.17,1 -0.19,1.02 -0.23,1.04 -0.27,1.05 -0.31,1.06 -0.35,1.06 -0.39,1.07 -0.21,0.53 -0.23,0.53 -0.23,0.53 -0.25,0.53 c -2.99,6.13 -7.27,9.36 -7.77,9.36 -0.3,0 -0.5,-0.19 -0.5,-0.48 0,-0.16 0,-0.25 0.94,-1.16 4.89,-4.92 7.73,-12.84 7.73,-23.27 0,-8.51 -1.84,-17.28 -8.03,-23.56 -0.64,-0.59 -0.64,-0.7 -0.64,-0.84 0,-0.3 0.2,-0.5 0.5,-0.5 0.5,0 4.97,3.39 7.92,9.72 2.53,5.47 3.13,11 3.13,15.18 z"
             inkscape:connector-curvature="0"
             style="fill:#000000;stroke-width:0" /><path
             id="path4978"
             d="m 453.71,379.38 -0.02,0.05 -0.02,0.05 -0.01,0.05 -0.02,0.04 -0.04,0.09 -0.04,0.08 -0.03,0.08 -0.04,0.07 -0.04,0.06 -0.03,0.06 -0.04,0.06 -0.03,0.05 -0.04,0.04 -0.04,0.05 -0.03,0.03 -0.04,0.04 -0.05,0.03 -0.04,0.03 -0.04,0.02 -0.05,0.02 -0.05,0.02 -0.06,0.02 -0.05,0.01 -0.06,0.01 -0.06,0.01 -0.07,0.01 -0.07,0 -0.07,0.01 -0.08,0 -0.09,0 -0.08,0 -0.1,0 -0.1,0 -0.1,0 -8.42,0 0,-1.54 1.2,0 c 3.83,0 3.92,-0.55 3.92,-2.35 l 0,-24.9 c 0,-1.35 0,-3.69 -5.12,-3.69 l 0,-1.55 c 1.75,0.05 4.19,0.16 5.83,0.16 1.64,0 4.09,-0.11 5.82,-0.16 l 0,1.55 c -5.12,0 -5.12,2.34 -5.12,3.69 l 0,26.84 0.05,0 12,-30.98 c 0.25,-0.65 0.5,-1.1 1,-1.1 0.54,0 0.7,0.41 0.89,0.95 l 12.26,31.54 0.05,0 0,-28.6 c 0,-1.79 -0.09,-2.34 -3.94,-2.34 l -1.19,0 0,-1.55 c 1.85,0.16 5.22,0.16 7.18,0.16 1.93,0 5.28,0 7.12,-0.16 l 0,1.55 -1.2,0 c -3.83,0 -3.94,0.55 -3.94,2.34 l 0,26.25 c 0,1.8 0.11,2.35 3.94,2.35 l 1.2,0 0,1.54 -8.42,0 c -1.3,0 -1.3,-0.04 -1.64,-0.95 l -10.92,-28.05 z"
             inkscape:connector-curvature="0"
             style="fill:#000000;stroke-width:0" /><path
             id="path4980"
             d="m 510.9,357.1 -0.01,0.59 -0.05,0.59 -0.07,0.58 -0.09,0.57 -0.13,0.56 -0.15,0.55 -0.17,0.54 -0.2,0.53 -0.22,0.51 -0.25,0.51 -0.26,0.48 -0.29,0.48 -0.31,0.46 -0.33,0.44 -0.35,0.42 -0.36,0.41 -0.39,0.38 -0.4,0.37 -0.42,0.35 -0.43,0.33 -0.44,0.3 -0.47,0.28 -0.47,0.26 -0.49,0.24 -0.5,0.21 -0.51,0.18 -0.52,0.16 -0.53,0.13 -0.54,0.11 -0.55,0.07 -0.55,0.05 -0.56,0.01 -0.05,-1.09 c 2.19,0 4.33,-1.09 5.62,-3.23 1.3,-2.14 1.3,-5.04 1.3,-6.93 0,-1.79 0,-4.48 -1.09,-6.67 -1.1,-2.25 -3.28,-3.69 -5.78,-3.69 l 0,0 c -2.14,0 -4.33,1.05 -5.68,3.33 -1.25,2.21 -1.25,5.24 -1.25,7.03 0,1.94 0,4.63 1.19,6.83 1.36,2.28 3.69,3.33 5.69,3.33 l 0.05,1.09 c -6.22,0 -11.07,-5.42 -11.07,-11.65 0,-6.42 5.19,-11.21 11.02,-11.21 6.03,0 11.06,4.88 11.06,11.21 z"
             inkscape:connector-curvature="0"
             style="fill:#000000;stroke-width:0" /><path
             id="path4982"
             d="m 521.02,366.36 7.12,0 0,1.55 -7.12,0 0,9.17 -1.25,0 c -0.05,-4.08 -1.55,-9.42 -6.43,-9.61 l 0,-1.11 4.24,0 0,-13.75 c 0,-6.12 4.62,-6.72 6.42,-6.72 3.53,0 4.94,3.54 4.94,6.72 l 0,2.85 -1.25,0 0,-2.74 c 0,-3.68 -1.5,-5.58 -3.35,-5.58 -3.32,0 -3.32,4.54 -3.32,5.38 z"
             inkscape:connector-curvature="0"
             style="fill:#000000;stroke-width:0" /><path
             id="path4984"
             d="m 555.18,357.1 -0.02,0.59 -0.04,0.59 -0.07,0.58 -0.1,0.57 -0.12,0.56 -0.15,0.55 -0.18,0.54 -0.2,0.53 -0.22,0.51 -0.24,0.51 -0.27,0.48 -0.29,0.48 -0.31,0.46 -0.33,0.44 -0.34,0.42 -0.37,0.41 -0.38,0.38 -0.4,0.37 -0.42,0.35 -0.43,0.33 -0.45,0.3 -0.46,0.28 -0.48,0.26 -0.48,0.24 -0.5,0.21 -0.51,0.18 -0.52,0.16 -0.54,0.13 -0.53,0.11 -0.55,0.07 -0.56,0.05 -0.56,0.01 -0.05,-1.09 c 2.19,0 4.33,-1.09 5.63,-3.23 1.29,-2.14 1.29,-5.04 1.29,-6.93 0,-1.79 0,-4.48 -1.09,-6.67 -1.09,-2.25 -3.28,-3.69 -5.78,-3.69 l 0,0 c -2.14,0 -4.33,1.05 -5.67,3.33 -1.25,2.21 -1.25,5.24 -1.25,7.03 0,1.94 0,4.63 1.19,6.83 1.35,2.28 3.68,3.33 5.68,3.33 l 0.05,1.09 c -6.22,0 -11.06,-5.42 -11.06,-11.65 0,-6.42 5.18,-11.21 11.01,-11.21 6.04,0 11.07,4.88 11.07,11.21 z"
             inkscape:connector-curvature="0"
             style="fill:#000000;stroke-width:0" /><path
             id="path4986"
             d="m 564.98,362.99 0,5.47 -6.93,-0.55 0,-1.55 c 3.49,0 3.9,-0.34 3.9,-2.78 l 0,-13.36 c 0,-2.23 -0.55,-2.23 -3.9,-2.23 l 0,-1.55 c 1.96,0.05 4.29,0.16 5.69,0.16 1.99,0 4.33,0 6.33,-0.16 l 0,1.55 -1.05,0 c -3.68,0 -3.79,0.55 -3.79,2.34 l 0,7.67 c 0,4.93 2.09,9.36 5.89,9.36 0.34,0 0.43,0 0.54,-0.04 -0.15,-0.05 -1.15,-0.64 -1.15,-1.94 0,-1.41 1.04,-2.14 2.15,-2.14 0.89,0 2.14,0.59 2.14,2.19 0,1.59 -1.54,3.03 -3.68,3.03 -3.64,0 -5.44,-3.33 -6.14,-5.47 z"
             inkscape:connector-curvature="0"
             style="fill:#000000;stroke-width:0" /><path
             id="path4988"
             d="m 597.94,353.07 0,0.02 0,0.02 0,0.04 0,0.03 0,0.05 0.01,0.04 0,0.05 0,0.06 0.01,0.06 0.01,0.06 0.01,0.06 0.01,0.07 0.01,0.08 0.01,0.07 0.02,0.08 0.02,0.08 0.02,0.08 0.02,0.09 0.03,0.08 0.03,0.09 0.03,0.09 0.04,0.09 0.03,0.1 0.05,0.09 0.04,0.09 0.05,0.1 0.06,0.1 0.06,0.09 0.06,0.1 0.07,0.09 0.07,0.1 0.07,0.09 c 1.96,-1.39 3.99,-1.55 4.94,-1.55 l 0,1.14 c -4.34,0 -4.34,4.99 -4.34,6.14 0,1.35 0.06,2.94 0.8,4.18 0.4,0.61 1.54,2 3.54,2 4.33,0 4.33,-4.99 4.33,-6.13 0,-1.34 -0.05,-2.94 -0.8,-4.19 -0.39,-0.59 -1.54,-2 -3.53,-2 l 0,0 0,-1.14 c 4.63,0 8.06,3.44 8.06,7.28 0,1.85 -0.79,3.69 -2.03,4.83 1.78,1.69 3.58,1.94 4.49,1.94 0.09,0 0.34,0 0.5,-0.05 -0.56,-0.2 -0.8,-0.75 -0.8,-1.34 0,-0.84 0.64,-1.44 1.44,-1.44 0.5,0 1.44,0.35 1.44,1.49 0,0.84 -0.6,2.43 -2.54,2.43 -1,0 -3.18,-0.29 -5.28,-2.32 -2.09,1.64 -4.18,1.78 -5.28,1.78 -4.64,0 -8.07,-3.44 -8.07,-7.27 0,-2.19 1.09,-4.09 2.34,-5.14 -0.64,-0.73 -1.55,-2.39 -1.55,-4.12 0,-1.55 0.66,-3.44 2.21,-4.44 -3,-0.85 -4.6,-2.99 -4.6,-4.99 0,-3.57 4.94,-6.32 11.02,-6.32 l 0.04,1.14 c -5.03,0 -8.46,2.54 -8.46,5.18 0,2.3 1.88,4.14 4.09,4.29 l 2.94,0 c 4.28,0 9.85,0 9.85,-4.29 0,-2.68 -3.53,-5.18 -8.42,-5.18 l 0,0 -0.04,-1.14 c 5.87,0 11.06,2.54 11.06,6.42 0,1.75 -0.7,4.29 -3.23,5.69 -2.65,1.39 -5.54,1.39 -8.58,1.39 -1.25,0 -3.39,0 -3.74,0.04 -1.59,0.21 -2.64,1.75 -2.64,3.35 z"
             inkscape:connector-curvature="0"
             style="fill:#000000;stroke-width:0" /><path
             id="path4990"
             d="m 623.15,357.96 0.05,1.04 c 0.29,7.43 4.48,8.66 6.18,8.66 5.13,0 5.63,-6.72 5.63,-8.66 l -11.81,0 -0.05,-1.04 13.9,0 c 1.1,0 1.24,0 1.24,1.04 0,4.93 -2.69,9.75 -8.91,9.75 -5.78,0 -10.37,-5.12 -10.37,-11.36 0,-6.67 5.23,-11.5 10.97,-11.5 6.07,0 8.31,5.54 8.31,6.47 0,0.5 -0.39,0.61 -0.64,0.61 -0.45,0 -0.55,-0.29 -0.66,-0.7 -1.73,-5.13 -6.22,-5.13 -6.72,-5.13 -2.5,0 -4.48,1.49 -5.62,3.33 -1.5,2.39 -1.5,5.69 -1.5,7.49 z"
             inkscape:connector-curvature="0"
             style="fill:#000000;stroke-width:0" /><path
             id="path4992"
             d="m 656.29,350.22 0.02,-0.18 0.03,-0.19 0.04,-0.19 0.04,-0.18 0.05,-0.19 0.05,-0.18 0.06,-0.18 0.07,-0.18 0.08,-0.18 0.08,-0.17 0.09,-0.17 0.09,-0.17 0.1,-0.16 0.11,-0.16 0.11,-0.15 0.12,-0.15 0.13,-0.14 0.13,-0.14 0.14,-0.13 0.14,-0.12 0.15,-0.11 0.16,-0.11 0.16,-0.1 0.17,-0.09 0.18,-0.08 0.18,-0.07 0.19,-0.06 0.19,-0.05 0.2,-0.04 0.2,-0.03 0.21,-0.02 0.22,-0.01 c 1.03,0 4.08,0.71 4.08,4.74 l 0,2.78 -1.25,0 0,-2.78 c 0,-2.89 -1.24,-3.19 -1.8,-3.19 -1.64,0 -1.84,2.24 -1.84,2.49 l 0,9.96 c 0,2.1 0,4.04 -1.78,5.88 -1.96,1.94 -4.44,2.73 -6.83,2.73 -4.1,0 -7.53,-2.32 -7.53,-5.62 0,-1.49 1,-2.34 2.29,-2.34 1.39,0 2.3,1 2.3,2.29 0,0.6 -0.25,2.24 -2.55,2.3 1.35,1.73 3.78,2.28 5.38,2.28 2.45,0 5.28,-1.94 5.28,-6.37 l 0,-1.85 0,-1.05 0,-4.98 c 0,-4.73 -3.58,-6.42 -5.83,-6.42 -2.44,0 -4.48,1.75 -4.48,4.23 0,2.74 2.09,6.88 10.31,7.17 l 0,0 0,1.05 c -2.53,-0.14 -6.02,-0.3 -9.16,-1.8 -3.73,-1.68 -4.98,-4.28 -4.98,-6.46 0,-4.04 4.83,-5.29 7.97,-5.29 3.29,0 5.58,1.99 6.53,4.33 z"
             inkscape:connector-curvature="0"
             style="fill:#000000;stroke-width:0" /><path
             id="path4994"
             d="m 672.97,362.99 0,5.47 -6.93,-0.55 0,-1.55 c 3.49,0 3.89,-0.34 3.89,-2.78 l 0,-13.36 c 0,-2.23 -0.54,-2.23 -3.89,-2.23 l 0,-1.55 c 1.96,0.05 4.28,0.16 5.69,0.16 1.99,0 4.33,0 6.33,-0.16 l 0,1.55 -1.05,0 c -3.69,0 -3.79,0.55 -3.79,2.34 l 0,7.67 c 0,4.93 2.09,9.36 5.88,9.36 0.35,0 0.44,0 0.55,-0.04 -0.15,-0.05 -1.15,-0.64 -1.15,-1.94 0,-1.41 1.04,-2.14 2.15,-2.14 0.89,0 2.14,0.59 2.14,2.19 0,1.59 -1.54,3.03 -3.69,3.03 -3.63,0 -5.43,-3.33 -6.13,-5.47 z"
             inkscape:connector-curvature="0"
             style="fill:#000000;stroke-width:0" /><path
             id="path4996"
             d="m 395.33,304.21 0.38,0.13 0.37,0.15 0.37,0.15 0.35,0.17 0.35,0.18 0.34,0.19 0.33,0.2 0.32,0.22 0.31,0.22 0.31,0.23 0.29,0.24 0.28,0.25 0.27,0.26 0.26,0.27 0.25,0.28 0.24,0.28 0.22,0.29 0.21,0.3 0.2,0.31 0.19,0.31 0.18,0.32 0.16,0.32 0.14,0.33 0.14,0.34 0.11,0.34 0.11,0.34 0.09,0.36 0.07,0.35 0.06,0.36 0.04,0.36 0.02,0.36 0.01,0.37 c 0,4.08 -4.39,6.88 -9.17,6.88 -5.03,0 -8.81,-3 -8.81,-6.78 0,-1.64 1.09,-2.6 2.54,-2.6 1.53,0 2.53,1.1 2.53,2.55 0,2.48 -2.34,2.48 -3.07,2.48 1.53,2.44 4.82,3.1 6.62,3.1 2.03,0 4.78,-1.1 4.78,-5.58 0,-0.61 -0.11,-3.49 -1.4,-5.69 -1.49,-2.39 -3.19,-2.53 -4.43,-2.59 -0.4,-0.05 -1.59,-0.14 -1.95,-0.14 -0.39,-0.05 -0.75,-0.1 -0.75,-0.6 0,-0.54 0.36,-0.54 1.2,-0.54 l 2.19,0 c 4.1,0 5.94,-3.39 5.94,-8.28 0,-6.77 -3.44,-8.22 -5.64,-8.22 -2.14,0 -5.88,0.84 -7.61,3.78 1.73,-0.24 3.28,0.86 3.28,2.75 0,1.79 -1.34,2.78 -2.8,2.78 -1.18,0 -2.78,-0.69 -2.78,-2.89 0,-4.53 4.63,-7.81 10.07,-7.81 6.07,0 10.6,4.53 10.6,9.61 0,4.09 -3.14,7.96 -8.31,9.01 z"
             inkscape:connector-curvature="0"
             style="fill:#000000;stroke-width:0" /><path
             id="path4998"
             d="m 420.23,299.13 0,0.37 -0.01,0.39 -0.01,0.39 -0.01,0.41 -0.04,0.84 -0.06,0.88 -0.08,0.92 -0.11,0.95 -0.13,0.98 -0.17,1 -0.19,1.02 -0.23,1.03 -0.27,1.06 -0.31,1.05 -0.35,1.07 -0.39,1.07 -0.21,0.53 -0.23,0.53 -0.23,0.53 -0.25,0.53 c -2.99,6.12 -7.27,9.36 -7.77,9.36 -0.3,0 -0.5,-0.19 -0.5,-0.49 0,-0.15 0,-0.25 0.94,-1.15 4.89,-4.92 7.73,-12.85 7.73,-23.27 0,-8.51 -1.84,-17.28 -8.03,-23.56 -0.64,-0.59 -0.64,-0.7 -0.64,-0.84 0,-0.3 0.2,-0.5 0.5,-0.5 0.5,0 4.97,3.39 7.92,9.72 2.53,5.46 3.13,11 3.13,15.18 z"
             inkscape:connector-curvature="0"
             style="fill:#000000;stroke-width:0" /><path
             id="path5000"
             d="m 464.53,304.46 0.45,0.1 0.44,0.11 0.43,0.12 0.42,0.13 0.42,0.14 0.4,0.16 0.39,0.17 0.38,0.18 0.38,0.19 0.35,0.2 0.35,0.21 0.34,0.21 0.32,0.23 0.31,0.24 0.29,0.25 0.28,0.25 0.27,0.26 0.25,0.27 0.24,0.28 0.23,0.28 0.2,0.29 0.19,0.3 0.18,0.31 0.16,0.3 0.14,0.32 0.12,0.32 0.1,0.32 0.09,0.33 0.07,0.34 0.05,0.33 0.03,0.34 0.01,0.35 c 0,4.33 -4.6,8.42 -11.06,8.42 l -0.36,-1.55 c 4.84,0 6.57,-4.23 6.57,-6.87 0,-3.19 -2.43,-7.38 -7.96,-7.38 l -7.22,0 0,-1.09 9.36,0 c 4.93,0 7.03,-4.64 7.03,-7.97 0,-3.55 -2.6,-7.62 -7.72,-7.62 l 0,0 -6.24,0 c -2.34,0 -2.43,0.34 -2.43,1.98 l 0,13.61 0,1.09 0,12.25 c 0,1.66 0.09,2 2.43,2 l 6.18,0 0.36,1.55 -18.24,0 0,-1.55 1.19,0 c 3.84,0 3.94,-0.54 3.94,-2.34 l 0,-26.25 c 0,-1.8 -0.1,-2.34 -3.94,-2.34 l -1.19,0 0,-1.55 19.53,0 c 6.63,0 11.11,4.44 11.11,9.12 0,4.33 -4.09,8.07 -9.62,8.66 z"
             inkscape:connector-curvature="0"
             style="fill:#000000;stroke-width:0" /><path
             id="path5002"
             d="m 485.8,321.26 -7.17,-0.55 0,-1.55 c 3.49,0 3.89,-0.34 3.89,-2.79 l 0,-25.91 c 0,-2.23 -0.54,-2.23 -3.89,-2.23 l 0,-1.55 c 1.64,0.05 4.28,0.16 5.53,0.16 1.25,0 3.69,-0.11 5.54,-0.16 l 0,1.55 c -3.35,0 -3.9,0 -3.9,2.23 z"
             inkscape:connector-curvature="0"
             style="fill:#000000;stroke-width:0" /><path
             id="path5004"
             d="m 507.38,290.46 0.03,-0.19 0.02,-0.18 0.04,-0.19 0.04,-0.18 0.05,-0.19 0.06,-0.18 0.06,-0.18 0.07,-0.18 0.07,-0.18 0.08,-0.17 0.09,-0.17 0.1,-0.17 0.1,-0.16 0.1,-0.16 0.12,-0.15 0.12,-0.15 0.12,-0.14 0.13,-0.14 0.14,-0.13 0.15,-0.12 0.15,-0.11 0.15,-0.11 0.17,-0.1 0.17,-0.09 0.17,-0.08 0.18,-0.07 0.19,-0.06 0.19,-0.05 0.2,-0.04 0.21,-0.03 0.21,-0.02 0.21,-0.01 c 1.03,0 4.08,0.71 4.08,4.74 l 0,2.78 -1.25,0 0,-2.78 c 0,-2.89 -1.23,-3.19 -1.8,-3.19 -1.64,0 -1.84,2.23 -1.84,2.48 l 0,9.97 c 0,2.1 0,4.03 -1.78,5.88 -1.95,1.94 -4.44,2.73 -6.83,2.73 -4.09,0 -7.53,-2.33 -7.53,-5.62 0,-1.49 1,-2.35 2.3,-2.35 1.39,0 2.29,1 2.29,2.3 0,0.59 -0.25,2.23 -2.54,2.3 1.34,1.73 3.78,2.28 5.37,2.28 2.46,0 5.28,-1.94 5.28,-6.38 l 0,-1.84 0,-1.05 0,-4.98 c 0,-4.74 -3.57,-6.42 -5.82,-6.42 -2.44,0 -4.49,1.75 -4.49,4.23 0,2.74 2.09,6.88 10.31,7.17 l 0,0 0,1.05 c -2.53,-0.14 -6.01,-0.3 -9.15,-1.8 -3.74,-1.68 -4.99,-4.28 -4.99,-6.47 0,-4.03 4.83,-5.28 7.97,-5.28 3.3,0 5.58,1.99 6.53,4.33 z"
             inkscape:connector-curvature="0"
             style="fill:#000000;stroke-width:0" /><path
             id="path5006"
             d="m 521.57,297.54 0.01,0.38 0.01,0.36 0.01,0.36 0.02,0.35 0.03,0.34 0.03,0.34 0.03,0.32 0.05,0.32 0.04,0.31 0.05,0.3 0.06,0.29 0.06,0.29 0.13,0.55 0.15,0.51 0.17,0.49 0.18,0.46 0.2,0.43 0.21,0.4 0.22,0.38 0.23,0.35 0.24,0.32 0.25,0.31 0.26,0.27 0.26,0.26 0.27,0.23 0.28,0.21 0.28,0.19 0.28,0.16 0.28,0.15 0.28,0.13 0.29,0.12 0.28,0.09 0.28,0.08 0.27,0.06 0.27,0.05 0.27,0.03 0.26,0.02 0.25,0.01 c 0.44,0 3.58,-0.05 5.33,-1.85 -2.05,-0.15 -2.35,-1.64 -2.35,-2.29 0,-1.3 0.89,-2.3 2.3,-2.3 1.28,0 2.28,0.86 2.28,2.34 0,3.39 -3.78,5.33 -7.62,5.33 -6.22,0 -10.82,-5.37 -10.82,-11.54 0,-6.38 4.94,-11.32 10.72,-11.32 6.67,0 8.27,5.99 8.27,6.47 0,0.5 -0.5,0.5 -0.64,0.5 -0.46,0 -0.55,-0.19 -0.66,-0.5 -1.44,-4.62 -4.67,-5.22 -6.52,-5.22 -2.63,0 -7.03,2.14 -7.03,10.16 z"
             inkscape:connector-curvature="0"
             style="fill:#000000;stroke-width:0" /><path
             id="path5008"
             d="m 541.66,290.46 0,-0.1 0,-0.1 0,-0.19 -0.01,-0.18 -0.02,-0.17 -0.01,-0.15 -0.03,-0.14 -0.03,-0.14 -0.03,-0.12 -0.05,-0.11 -0.04,-0.11 -0.06,-0.09 -0.07,-0.09 -0.07,-0.08 -0.08,-0.07 -0.09,-0.06 -0.1,-0.05 -0.11,-0.05 -0.12,-0.05 -0.13,-0.03 -0.14,-0.04 -0.15,-0.02 -0.16,-0.02 -0.18,-0.02 -0.09,-0.01 -0.1,-0.01 -0.1,0 -0.1,-0.01 -0.11,0 -0.11,-0.01 -0.11,0 -0.12,0 -0.12,-0.01 -0.12,0 -0.13,0 -0.13,0 -0.13,0 -0.14,0 -0.14,0 -0.15,0 -0.15,0 -0.16,0 0,-1.55 c 1.66,0.05 3.99,0.16 5.44,0.16 1.49,0 3.49,-0.07 5.49,-0.16 l 0,1.55 c -3.35,0 -3.9,0 -3.9,2.23 l 0,5.14 3.19,2.74 c 3.83,-5.29 5.92,-8.07 5.92,-8.97 0,-0.94 -0.84,-1.14 -1.78,-1.14 l 0,-1.55 c 1.39,0.05 4.33,0.16 5.38,0.16 1.44,0 2.89,-0.07 4.33,-0.16 l 0,1.55 c -1.85,0 -2.94,0 -4.83,2.64 l -6.33,8.92 c -0.05,0.09 -0.3,0.39 -0.3,0.55 0,0.18 3.53,3.18 4.03,3.57 3.14,2.55 5.24,2.64 6.29,2.69 l 0,1.55 c -1.44,-0.14 -2.1,-0.14 -3.49,-0.14 -1.8,0 -4.89,0.09 -5.58,0.14 l 0,-1.55 c 0.94,-0.05 1.44,-0.59 1.44,-1.23 0,-1 -0.69,-1.6 -1.09,-1.96 l -7.03,-6.07 0,23.92 -7.18,-0.55 0,-1.55 c 3.49,0 3.89,-0.34 3.89,-2.79 z"
             inkscape:connector-curvature="0"
             style="fill:#000000;stroke-width:0" /><path
             id="path5010"
             d="m 587.9,305.46 0,15.8 -7.17,-0.55 0,-1.55 c 3.49,0 3.89,-0.34 3.89,-2.79 l 0,-29.69 1.25,0 c 0.05,0.05 0.44,0.75 1.78,3.09 0.75,-1.15 2.85,-3.64 6.53,-3.64 l -0.2,1.1 c -2.23,0 -4.03,1.2 -5.22,3.04 -0.7,1.05 -0.7,1.19 -0.7,2.08 l 0,0 0,10.27 c 0,0.95 0,1 0.54,1.79 1.94,2.8 4.69,3.19 5.88,3.19 2.25,0 4.05,-1.3 5.24,-3.19 1.29,-2.04 1.45,-4.87 1.45,-6.92 0,-1.84 -0.11,-4.83 -1.55,-7.08 -1.05,-1.54 -2.94,-3.18 -5.64,-3.18 l 0.2,-1.1 c 5.94,0 11.11,4.88 11.11,11.32 0,6.32 -4.87,11.25 -10.56,11.25 -3.88,0 -6.03,-2.35 -6.83,-3.24 z"
             inkscape:connector-curvature="0"
             style="fill:#000000;stroke-width:0" /><path
             id="path5012"
             d="m 631.97,297.34 -0.02,0.59 -0.04,0.59 -0.07,0.58 -0.1,0.57 -0.12,0.56 -0.15,0.55 -0.18,0.54 -0.19,0.53 -0.23,0.51 -0.24,0.5 -0.27,0.49 -0.29,0.48 -0.31,0.45 -0.32,0.44 -0.35,0.43 -0.37,0.4 -0.38,0.39 -0.4,0.37 -0.42,0.35 -0.43,0.32 -0.45,0.31 -0.46,0.28 -0.47,0.26 -0.49,0.24 -0.5,0.21 -0.51,0.18 -0.52,0.16 -0.53,0.13 -0.54,0.11 -0.55,0.07 -0.55,0.05 -0.57,0.01 -0.04,-1.09 c 2.18,0 4.32,-1.1 5.62,-3.24 1.3,-2.14 1.3,-5.03 1.3,-6.92 0,-1.79 0,-4.48 -1.1,-6.67 -1.09,-2.25 -3.28,-3.69 -5.78,-3.69 l 0,0 c -2.14,0 -4.32,1.05 -5.67,3.33 -1.25,2.2 -1.25,5.24 -1.25,7.03 0,1.94 0,4.63 1.19,6.83 1.36,2.28 3.69,3.33 5.69,3.33 l 0.04,1.09 c -6.22,0 -11.06,-5.42 -11.06,-11.65 0,-6.43 5.19,-11.21 11.02,-11.21 6.03,0 11.06,4.88 11.06,11.21 z"
             inkscape:connector-curvature="0"
             style="fill:#000000;stroke-width:0" /><path
             id="path5014"
             d="m 646.31,298.38 0.29,0.36 0.29,0.37 0.3,0.38 0.3,0.39 0.62,0.78 0.3,0.38 0.31,0.39 0.3,0.37 0.3,0.37 0.28,0.35 0.29,0.34 0.13,0.16 0.14,0.16 0.13,0.16 0.12,0.15 0.13,0.14 0.12,0.14 0.12,0.13 0.11,0.12 c 1.55,1.78 3.59,2.53 5.94,2.58 l 0,1.55 c -1.3,-0.1 -2.8,-0.14 -4.1,-0.14 -1.48,0 -4.12,0.09 -4.78,0.14 l 0,-1.55 c 1.05,-0.09 1.46,-0.73 1.46,-1.53 0,-0.8 -0.5,-1.45 -0.75,-1.75 l -3.1,-3.89 -3.87,5.03 c -0.46,0.5 -0.46,0.61 -0.46,0.91 0,0.75 0.75,1.18 1.74,1.23 l 0,1.55 c -1.28,-0.05 -4.58,-0.14 -5.38,-0.14 -1.04,0 -3.39,0.04 -4.73,0.14 l 0,-1.55 c 3.48,0 3.55,-0.05 5.87,-3.03 l 4.94,-6.42 -4.69,-5.94 c -2.39,-2.89 -5.32,-2.98 -6.37,-2.98 l 0,-1.55 c 1.3,0.09 2.84,0.16 4.14,0.16 1.44,0 3.53,-0.11 4.73,-0.16 l 0,1.55 c -1.09,0.14 -1.45,0.79 -1.45,1.54 0,1.1 1.45,2.74 4.49,6.33 l 3.79,-4.98 c 0.39,-0.55 1.05,-1.35 1.05,-1.64 0,-0.46 -0.45,-1.21 -1.8,-1.25 l 0,-1.55 c 1.49,0.05 4.28,0.16 5.38,0.16 1.34,0 3.29,-0.07 4.78,-0.16 l 0,1.55 c -2.69,0 -3.58,0.09 -4.74,1.54 z"
             inkscape:connector-curvature="0"
             style="fill:#000000;stroke-width:0" /><path
             id="path5016"
             d="m 395.52,235.02 0,-4.33 c 0,-1.79 -0.09,-2.34 -3.78,-2.34 l -1.05,0 0,-1.55 c 2.05,0.16 4.64,0.16 6.74,0.16 2.09,0 4.73,0 6.76,-0.16 l 0,1.55 -1.05,0 c -3.68,0 -3.78,0.55 -3.78,2.34 l 0,4.33 4.99,0 0,1.55 -4.99,0 0,22.67 c 0,1 0,1.3 -0.79,1.3 -0.46,0 -0.6,0 -1,-0.61 l -15.3,-23.36 1.41,0 12.15,18.58 0,-18.58 -12.15,0 -1.41,0 0,-1.55 z"
             inkscape:connector-curvature="0"
             style="fill:#000000;stroke-width:0" /><path
             id="path5018"
             d="m 420.23,239.25 0,0.37 -0.01,0.39 -0.01,0.39 -0.01,0.41 -0.04,0.84 -0.06,0.88 -0.08,0.92 -0.11,0.95 -0.13,0.98 -0.17,1 -0.19,1.02 -0.23,1.04 -0.27,1.05 -0.31,1.06 -0.35,1.06 -0.39,1.07 -0.21,0.53 -0.23,0.53 -0.23,0.53 -0.25,0.53 c -2.99,6.13 -7.27,9.36 -7.77,9.36 -0.3,0 -0.5,-0.19 -0.5,-0.48 0,-0.16 0,-0.25 0.94,-1.16 4.89,-4.92 7.73,-12.84 7.73,-23.27 0,-8.51 -1.84,-17.28 -8.03,-23.56 -0.64,-0.59 -0.64,-0.7 -0.64,-0.84 0,-0.3 0.2,-0.5 0.5,-0.5 0.5,0 4.97,3.39 7.92,9.72 2.53,5.47 3.13,11 3.13,15.18 z"
             inkscape:connector-curvature="0"
             style="fill:#000000;stroke-width:0" /><path
             id="path5020"
             d="m 443.46,260.83 0,-1.54 1.19,0 c 3.85,0 3.94,-0.55 3.94,-2.35 l 0,-26.25 c 0,-1.79 -0.09,-2.34 -3.94,-2.34 l -1.19,0 0,-1.55 18.24,0 -1.34,1.55 -5.05,0 c -2.33,0 -2.44,0.34 -2.44,1.98 l 0,26.96 c 0,1.65 0.11,2 2.44,2 l 4.98,0 c 3.1,0 6.53,-1.1 9.08,-4.64 2.14,-2.94 2.58,-7.22 2.58,-11.11 0,-5.54 -0.94,-8.52 -2.74,-10.96 -1,-1.34 -3.82,-4.23 -8.85,-4.23 l 1.34,-1.55 c 8.36,0 15.23,7.38 15.23,16.74 0,9.46 -6.72,17.29 -15.23,17.29 z"
             inkscape:connector-curvature="0"
             style="fill:#000000;stroke-width:0" /><path
             id="path5022"
             d="m 488.07,243.35 0,5.47 -6.93,-0.55 0,-1.55 c 3.49,0 3.9,-0.34 3.9,-2.78 l 0,-13.36 c 0,-2.23 -0.55,-2.23 -3.9,-2.23 l 0,-1.55 c 1.96,0.05 4.29,0.16 5.69,0.16 1.99,0 4.33,0 6.33,-0.16 l 0,1.55 -1.05,0 c -3.68,0 -3.79,0.55 -3.79,2.34 l 0,7.67 c 0,4.93 2.09,9.36 5.89,9.36 0.34,0 0.43,0 0.54,-0.04 -0.15,-0.05 -1.15,-0.64 -1.15,-1.94 0,-1.41 1.04,-2.14 2.15,-2.14 0.89,0 2.14,0.59 2.14,2.19 0,1.59 -1.54,3.03 -3.68,3.03 -3.64,0 -5.44,-3.33 -6.14,-5.47 z"
             inkscape:connector-curvature="0"
             style="fill:#000000;stroke-width:0" /><path
             id="path5024"
             d="m 508.13,248.82 -6.97,-0.55 0,-1.55 c 3.23,0 3.68,-0.29 3.68,-2.73 l 0,-13.41 c 0,-2.23 -0.54,-2.23 -3.89,-2.23 l 0,-1.55 c 1.6,0.05 4.28,0.16 5.49,0.16 1.75,0 3.48,-0.11 5.19,-0.16 l 0,1.55 c -3.3,0 -3.5,0.25 -3.5,2.19 z"
             inkscape:connector-curvature="0"
             style="fill:#000000;stroke-width:0" /><path
             id="path5026"
             d="m 508.33,257.49 -0.01,0.15 -0.01,0.14 -0.01,0.14 -0.03,0.14 -0.03,0.13 -0.04,0.13 -0.04,0.13 -0.05,0.12 -0.05,0.12 -0.06,0.12 -0.07,0.11 -0.07,0.1 -0.08,0.11 -0.08,0.09 -0.08,0.1 -0.09,0.09 -0.09,0.08 -0.1,0.08 -0.1,0.07 -0.11,0.07 -0.1,0.07 -0.11,0.06 -0.12,0.05 -0.11,0.05 -0.12,0.04 -0.12,0.04 -0.12,0.03 -0.13,0.03 -0.13,0.02 -0.12,0.02 -0.13,0.01 -0.13,0 c -1.55,0 -2.64,-1.34 -2.64,-2.64 0,-1.35 1.09,-2.64 2.64,-2.64 1.39,0 2.64,1.05 2.64,2.64 z"
             inkscape:connector-curvature="0"
             style="fill:#000000;stroke-width:0" /><path
             id="path5028"
             d="m 533.83,243.4 0.04,0.1 0.05,0.12 0.05,0.12 0.05,0.12 0.06,0.13 0.06,0.13 0.06,0.13 0.07,0.14 0.08,0.14 0.08,0.13 0.09,0.14 0.09,0.14 0.1,0.13 0.11,0.14 0.12,0.13 0.12,0.13 0.13,0.13 0.14,0.12 0.15,0.12 0.16,0.11 0.17,0.11 0.18,0.1 0.19,0.1 0.2,0.08 0.21,0.08 0.22,0.08 0.24,0.06 0.25,0.05 0.26,0.05 0.13,0.02 0.14,0.01 0.14,0.01 0.15,0.01 0.15,0.01 0.15,0 0,1.55 c -1.15,-0.09 -2.59,-0.14 -3.73,-0.14 -1.21,0 -3.5,0.09 -4.35,0.14 l 0,-1.55 c 1.85,-0.04 2.39,-1.18 2.39,-2.14 0,-0.43 -0.09,-0.64 -0.29,-1.18 l -5.08,-12.71 -5.58,13.89 c -0.3,0.66 -0.3,0.75 -0.3,0.86 0,1.28 1.94,1.28 2.83,1.28 l 0,1.55 c -1.48,-0.05 -4.28,-0.14 -5.42,-0.14 -1.34,0 -3.34,0.05 -4.83,0.14 l 0,-1.55 c 3.13,0 3.33,-0.29 3.99,-1.84 l 7.17,-17.67 c 0.3,-0.71 0.39,-0.96 1.05,-0.96 0.64,0 0.84,0.46 1.04,0.96 z"
             inkscape:connector-curvature="0"
             style="fill:#000000;stroke-width:0" /><path
             id="path5030"
             d="m 543.48,238.32 0.04,1.04 c 0.3,7.43 4.49,8.66 6.19,8.66 5.13,0 5.63,-6.72 5.63,-8.66 l -11.82,0 -0.04,-1.04 13.9,0 c 1.1,0 1.24,0 1.24,1.04 0,4.93 -2.69,9.75 -8.91,9.75 -5.78,0 -10.37,-5.12 -10.37,-11.36 0,-6.67 5.23,-11.5 10.96,-11.5 6.08,0 8.32,5.54 8.32,6.47 0,0.5 -0.39,0.61 -0.64,0.61 -0.46,0 -0.55,-0.29 -0.66,-0.7 -1.73,-5.13 -6.22,-5.13 -6.72,-5.13 -2.5,0 -4.48,1.49 -5.62,3.33 -1.5,2.39 -1.5,5.69 -1.5,7.49 z"
             inkscape:connector-curvature="0"
             style="fill:#000000;stroke-width:0" /><path
             id="path5032"
             d="m 607.55,243.54 0.08,0.22 0.09,0.22 0.09,0.21 0.1,0.2 0.1,0.19 0.1,0.17 0.11,0.17 0.11,0.16 0.11,0.15 0.12,0.14 0.12,0.14 0.12,0.12 0.13,0.12 0.12,0.1 0.14,0.11 0.13,0.09 0.13,0.09 0.14,0.07 0.14,0.08 0.15,0.06 0.14,0.06 0.15,0.06 0.15,0.04 0.15,0.05 0.15,0.03 0.15,0.04 0.16,0.02 0.16,0.03 0.16,0.01 0.16,0.02 0.16,0.01 0.16,0 0,1.55 c -1.1,-0.09 -2.54,-0.14 -3.64,-0.14 -1.45,0 -3.68,0.09 -4.64,0.14 l 0,-1.55 c 1.8,-0.04 2.89,-0.93 2.89,-2.39 0,-0.29 0,-0.39 -0.25,-1.04 l -4.53,-12.75 -4.93,13.9 c -0.19,0.6 -0.25,0.69 -0.25,0.94 0,1.34 1.95,1.34 2.95,1.34 l 0,1.55 c -1.45,-0.05 -3.99,-0.14 -5.19,-0.14 -1.5,0 -2.94,0.05 -4.44,0.14 l 0,-1.55 c 1.85,0 2.64,-0.09 3.14,-0.73 0.25,-0.31 0.8,-1.8 1.14,-2.75 l -4.28,-12.05 -4.73,13.3 c -0.25,0.59 -0.25,0.7 -0.25,0.89 0,1.34 1.95,1.34 2.94,1.34 l 0,1.55 c -1.49,-0.05 -4.28,-0.14 -5.43,-0.14 -0.2,0 -2.84,0.05 -4.64,0.14 l 0,-1.55 c 2.5,0 3.1,-0.14 3.69,-1.73 l 6.28,-17.64 c 0.25,-0.7 0.41,-1.1 1.05,-1.1 0.66,0 0.75,0.3 1,1 l 5.03,14.1 5.08,-14.14 c 0.2,-0.56 0.34,-0.96 1,-0.96 0.64,0 0.8,0.46 1,0.96 z"
             inkscape:connector-curvature="0"
             style="fill:#000000;stroke-width:0" /><path
             id="path5034"
             d="m 618.19,230.58 0,-0.1 0,-0.1 -0.01,-0.19 -0.01,-0.18 -0.01,-0.17 -0.02,-0.15 -0.02,-0.14 -0.03,-0.14 -0.04,-0.12 -0.04,-0.11 -0.05,-0.11 -0.06,-0.09 -0.06,-0.09 -0.07,-0.07 -0.08,-0.07 -0.09,-0.07 -0.1,-0.05 -0.11,-0.05 -0.12,-0.04 -0.13,-0.04 -0.14,-0.03 -0.15,-0.03 -0.17,-0.02 -0.18,-0.02 -0.09,-0.01 -0.09,-0.01 -0.1,0 -0.11,-0.01 -0.1,0 -0.11,-0.01 -0.12,0 -0.11,0 -0.12,-0.01 -0.13,0 -0.12,0 -0.13,0 -0.14,0 -0.14,0 -0.14,0 -0.15,0 -0.15,0 -0.15,0 0,-1.55 c 1.75,0.05 4.28,0.16 5.62,0.16 1.3,0 3.89,-0.11 5.58,-0.16 l 0,1.55 c -3.33,0 -3.87,0 -3.87,2.23 l 0,9.17 c 0,5.19 3.53,7.97 6.71,7.97 3.14,0 3.69,-2.68 3.69,-5.53 l 0,-11.61 c 0,-2.23 -0.55,-2.23 -3.89,-2.23 l 0,-1.55 c 1.75,0.05 4.3,0.16 5.64,0.16 1.3,0 3.88,-0.11 5.58,-0.16 l 0,1.55 c -2.59,0 -3.84,0 -3.89,1.5 l 0,9.51 c 0,4.29 0,5.83 -1.55,7.61 -0.69,0.86 -2.34,1.85 -5.22,1.85 -4.18,0 -6.39,-2.99 -7.23,-4.88 l 0,17.44 -7.17,-0.55 0,-1.54 c 3.48,0 3.89,-0.35 3.89,-2.8 z"
             inkscape:connector-curvature="0"
             style="fill:#000000;stroke-width:0" /><path
             id="path5036"
             d="m 645.95,238.32 0.05,1.04 c 0.3,7.43 4.48,8.66 6.19,8.66 5.12,0 5.62,-6.72 5.62,-8.66 l -11.81,0 -0.05,-1.04 13.91,0 c 1.09,0 1.23,0 1.23,1.04 0,4.93 -2.68,9.75 -8.9,9.75 -5.78,0 -10.38,-5.12 -10.38,-11.36 0,-6.67 5.24,-11.5 10.97,-11.5 6.08,0 8.31,5.54 8.31,6.47 0,0.5 -0.39,0.61 -0.64,0.61 -0.45,0 -0.54,-0.29 -0.65,-0.7 -1.74,-5.13 -6.22,-5.13 -6.72,-5.13 -2.5,0 -4.49,1.49 -5.63,3.33 -1.5,2.39 -1.5,5.69 -1.5,7.49 z"
             inkscape:connector-curvature="0"
             style="fill:#000000;stroke-width:0" /><path
             id="path5038"
             d="m 668.03,238.32 0.05,1.04 c 0.3,7.43 4.48,8.66 6.19,8.66 5.12,0 5.62,-6.72 5.62,-8.66 l -11.81,0 -0.05,-1.04 13.91,0 c 1.09,0 1.23,0 1.23,1.04 0,4.93 -2.69,9.75 -8.9,9.75 -5.79,0 -10.38,-5.12 -10.38,-11.36 0,-6.67 5.24,-11.5 10.97,-11.5 6.08,0 8.31,5.54 8.31,6.47 0,0.5 -0.39,0.61 -0.64,0.61 -0.45,0 -0.55,-0.29 -0.65,-0.7 -1.74,-5.13 -6.22,-5.13 -6.72,-5.13 -2.5,0 -4.49,1.49 -5.63,3.33 -1.5,2.39 -1.5,5.69 -1.5,7.49 z"
             inkscape:connector-curvature="0"
             style="fill:#000000;stroke-width:0" /><path
             id="path5040"
             d="m 693.39,261.38 -7.17,-0.55 0,-1.54 c 3.48,0 3.89,-0.35 3.89,-2.8 l 0,-25.91 c 0,-2.23 -0.55,-2.23 -3.89,-2.23 l 0,-1.55 c 1.64,0.05 4.28,0.16 5.53,0.16 1.25,0 3.69,-0.11 5.53,-0.16 l 0,1.55 c -3.34,0 -3.89,0 -3.89,2.23 z"
             inkscape:connector-curvature="0"
             style="fill:#000000;stroke-width:0" /></g></g><path
         d="m 1470.5972,372.7308 c -5.098,0 -9.23,4.129 -9.23,9.231 0,5.101 4.132,9.23 9.23,9.23 5.098,0 9.234,-4.129 9.234,-9.23 0,-5.102 -4.136,-9.231 -9.234,-9.231 z"
         style="fill:none;stroke:#000000;stroke-width:0.64350998;stroke-linecap:square;stroke-linejoin:round;stroke-miterlimit:1;stroke-dasharray:none;stroke-opacity:1"
         id="path14"
         inkscape:connector-curvature="0" /><path
         d="m 962.5392,1541.5828 -0.477,0 c 0.012,0.293 0.023,0.578 0.023,0.871 0,23.809 -21.914,43.121 -48.949,43.121 -27.035,0 -48.949,-19.312 -48.949,-43.121 0,-0.293 0.019,-0.578 0.023,-0.871 l -0.023,0 0,-147.801 98.352,0 0,147.801 z"
         style="fill:#ffffff;fill-opacity:1;fill-rule:nonzero;stroke:#000000;stroke-width:0.612472;stroke-linecap:butt;stroke-linejoin:miter;stroke-miterlimit:4;stroke-dasharray:none;stroke-opacity:1"
         id="path16"
         inkscape:connector-curvature="0" /><path
         d="m 913.3672,1345.8988 c -26.657,0 -48.266,21.61 -48.266,48.262 0,26.656 21.609,48.266 48.266,48.266 26.652,0 48.261,-21.61 48.261,-48.266 0,-26.652 -21.609,-48.262 -48.261,-48.262 z"
         style="fill:#ffffff;fill-opacity:1;fill-rule:nonzero;stroke:#000000;stroke-width:0.64350998;stroke-linecap:butt;stroke-linejoin:miter;stroke-miterlimit:4;stroke-dasharray:none;stroke-opacity:1"
         id="path18"
         inkscape:connector-curvature="0" /><path
         inkscape:connector-curvature="0"
         id="path22"
         style="fill:none;stroke:#000000;stroke-width:0.28334984;stroke-linecap:butt;stroke-linejoin:miter;stroke-miterlimit:4;stroke-dasharray:none;stroke-opacity:1"
         d="m 913.3672,1262.2895 c -3.899,0 -7.055,3.1487 -7.055,7.032 0,3.8823 3.156,7.031 7.055,7.031 3.894,0 7.05,-3.1487 7.05,-7.031 0,-3.8833 -3.156,-7.032 -7.05,-7.032 z" /><path
         d="m 913.1052,1262.7738 c -8.926,0 -6.785,0.247 -6.785,72.258 0,72.016 -1.309,72.805 7.609,72.805 8.926,0 8.301,-0.789 8.301,-72.805 0,-72.011 -0.207,-72.258 -9.125,-72.258 z"
         style="fill:none;stroke:#000000;stroke-width:0.52111799;stroke-linecap:square;stroke-linejoin:round;stroke-miterlimit:1;stroke-dasharray:none;stroke-opacity:1"
         id="path24"
         inkscape:connector-curvature="0" /><path
         d="m 913.9562,1251.6568 c -9.609,0 -17.398,7.789 -17.398,17.399 0,9.609 7.789,17.398 17.398,17.398 9.61,0 17.399,-7.789 17.399,-17.398 0,-9.61 -7.789,-17.399 -17.399,-17.399 z"
         style="fill:#ffffff;fill-opacity:1;fill-rule:nonzero;stroke:#000000;stroke-width:0.64350998;stroke-linecap:square;stroke-linejoin:round;stroke-miterlimit:1;stroke-dasharray:none;stroke-opacity:1"
         id="path26"
         inkscape:connector-curvature="0" /><path
         d="m 807.7032,1261.8408 c -4.129,0 -7.481,3.347 -7.481,7.48 0,4.129 3.352,7.481 7.481,7.481 4.128,0 7.48,-3.352 7.48,-7.481 0,-4.133 -3.352,-7.48 -7.48,-7.48 z"
         style="fill:none;stroke:#000000;stroke-width:0.568452;stroke-linecap:square;stroke-linejoin:round;stroke-miterlimit:1;stroke-dasharray:none;stroke-opacity:1"
         id="path28"
         inkscape:connector-curvature="0" /><path
         inkscape:connector-curvature="0"
         id="path32"
         style="fill:#ffffff;fill-opacity:1;stroke:#000000;stroke-width:0.85689819;stroke-linecap:butt;stroke-linejoin:miter;stroke-miterlimit:4;stroke-dasharray:none;stroke-opacity:1"
         d="m 807.7032,1219.2197 c -49.063,0 -88.84,22.4294 -88.84,50.1014 0,27.672 39.777,50.1015 88.84,50.1015 49.062,0 88.839,-22.4295 88.839,-50.1015 0,-27.672 -39.777,-50.1014 -88.839,-50.1014 z" /><path
         inkscape:connector-curvature="0"
         id="path36"
         style="fill:#ffffff;fill-opacity:1;fill-rule:nonzero;stroke:#000000;stroke-width:0.69518328;stroke-linecap:square;stroke-linejoin:round;stroke-miterlimit:1;stroke-dasharray:none;stroke-opacity:1"
         d="m 806.87435,1018.9148 c -8.92157,0 -6.78469,0.438 -6.78469,128.594 0,128.156 -1.30836,129.562 7.61744,129.562 8.91733,0 8.29277,-1.406 8.29277,-129.562 0,-128.156 -0.20311,-128.594 -9.12552,-128.594 z" /><path
         d="m 1246.7222,378.1688 c -3.902,0 -7.066,3.164 -7.066,7.066 0,3.903 3.164,7.063 7.066,7.063 3.902,0 7.063,-3.16 7.063,-7.063 0,-3.902 -3.161,-7.066 -7.063,-7.066 z"
         style="fill:none;stroke:#000000;stroke-width:0.34786901;stroke-linecap:square;stroke-linejoin:round;stroke-miterlimit:1;stroke-dasharray:none;stroke-opacity:1"
         id="path38"
         inkscape:connector-curvature="0" /><path
         d="m 1246.7222,802.1568 c -28.473,0 -51.555,23.078 -51.555,51.555 0,28.469 23.082,51.551 51.555,51.551 28.469,0 51.551,-23.082 51.551,-51.551 0,-28.477 -23.082,-51.555 -51.551,-51.555 z"
         style="fill:#ffffff;fill-opacity:1;stroke:#000000;stroke-width:0.64350998;stroke-linecap:square;stroke-linejoin:round;stroke-miterlimit:1;stroke-dasharray:none;stroke-opacity:1"
         id="path40"
         inkscape:connector-curvature="0" /><path
         d="m 1534.7572,309.9418 c -42.015,0 -76.078,34.059 -76.078,76.079 0,42.019 34.063,76.082 76.078,76.082 42.02,0 76.086,-34.063 76.086,-76.082 0,-42.02 -34.066,-76.079 -76.086,-76.079 z"
         style="fill:none;stroke:#000000;stroke-width:0.64350998;stroke-linecap:square;stroke-linejoin:round;stroke-miterlimit:1;stroke-dasharray:none;stroke-opacity:1"
         id="path42"
         inkscape:connector-curvature="0" /><path
         d="m 1451.5852,536.1138 c -42.015,0 -76.082,34.063 -76.082,76.082 0,42.016 34.067,76.082 76.082,76.082 42.02,0 76.082,-34.066 76.082,-76.082 0,-42.019 -34.062,-76.082 -76.082,-76.082 z"
         style="fill:none;stroke:#000000;stroke-width:0.64350998;stroke-linecap:square;stroke-linejoin:round;stroke-miterlimit:1;stroke-dasharray:none;stroke-opacity:1"
         id="path44"
         inkscape:connector-curvature="0" /><path
         d="m 1441.2922,748.1998 c -42.019,0 -76.086,34.067 -76.086,76.086 0,42.016 34.067,76.078 76.086,76.078 42.016,0 76.079,-34.062 76.079,-76.078 0,-42.019 -34.063,-76.086 -76.079,-76.086 z"
         style="fill:none;stroke:#000000;stroke-width:0.64350998;stroke-linecap:square;stroke-linejoin:round;stroke-miterlimit:1;stroke-dasharray:none;stroke-opacity:1"
         id="path46"
         inkscape:connector-curvature="0" /><path
         d="m 1449.0112,980.1768 c -42.019,0 -76.078,34.058 -76.078,76.078 0,42.019 34.059,76.082 76.078,76.082 42.02,0 76.082,-34.063 76.082,-76.082 0,-42.02 -34.062,-76.078 -76.082,-76.078 z"
         style="fill:none;stroke:#000000;stroke-width:0.64350998;stroke-linecap:square;stroke-linejoin:round;stroke-miterlimit:1;stroke-dasharray:none;stroke-opacity:1"
         id="path48"
         inkscape:connector-curvature="0" /><path
         d="m 1534.7572,1167.4068 c -42.015,0 -76.078,34.067 -76.078,76.082 0,42.02 34.063,76.086 76.078,76.086 42.02,0 76.086,-34.066 76.086,-76.086 0,-42.015 -34.066,-76.082 -76.086,-76.082 z"
         style="fill:none;stroke:#000000;stroke-width:0.64350998;stroke-linecap:square;stroke-linejoin:round;stroke-miterlimit:1;stroke-dasharray:none;stroke-opacity:1"
         id="path50"
         inkscape:connector-curvature="0" /><path
         d="m 1534.7572,1234.2588 c -5.097,0 -9.23,4.133 -9.23,9.23 0,5.102 4.133,9.231 9.23,9.231 5.098,0 9.231,-4.129 9.231,-9.231 0,-5.097 -4.133,-9.23 -9.231,-9.23 z"
         style="fill:none;stroke:#000000;stroke-width:0.64350998;stroke-linecap:square;stroke-linejoin:round;stroke-miterlimit:1;stroke-dasharray:none;stroke-opacity:1"
         id="path52"
         inkscape:connector-curvature="0" /><path
         d="m 1449.0112,1047.0238 c -5.097,0 -9.23,4.133 -9.23,9.231 0,5.101 4.133,9.234 9.23,9.234 5.102,0 9.235,-4.133 9.235,-9.234 0,-5.098 -4.133,-9.231 -9.235,-9.231 z"
         style="fill:none;stroke:#000000;stroke-width:0.64350998;stroke-linecap:square;stroke-linejoin:round;stroke-miterlimit:1;stroke-dasharray:none;stroke-opacity:1"
         id="path54"
         inkscape:connector-curvature="0" /><path
         d="m 1441.2922,815.0518 c -5.101,0 -9.23,4.133 -9.23,9.234 0,5.094 4.129,9.231 9.23,9.231 5.094,0 9.231,-4.137 9.231,-9.231 0,-5.101 -4.137,-9.234 -9.231,-9.234 z"
         style="fill:none;stroke:#000000;stroke-width:0.64350998;stroke-linecap:square;stroke-linejoin:round;stroke-miterlimit:1;stroke-dasharray:none;stroke-opacity:1"
         id="path56"
         inkscape:connector-curvature="0" /><path
         d="m 1451.5852,602.9658 c -5.097,0 -9.23,4.133 -9.23,9.23 0,5.098 4.133,9.231 9.23,9.231 5.098,0 9.231,-4.133 9.231,-9.231 0,-5.097 -4.133,-9.23 -9.231,-9.23 z"
         style="fill:none;stroke:#000000;stroke-width:0.64350998;stroke-linecap:square;stroke-linejoin:round;stroke-miterlimit:1;stroke-dasharray:none;stroke-opacity:1"
         id="path58"
         inkscape:connector-curvature="0" /><path
         d="m 1534.7572,376.7898 c -5.097,0 -9.23,4.133 -9.23,9.231 0,5.101 4.133,9.234 9.23,9.234 5.098,0 9.231,-4.133 9.231,-9.234 0,-5.098 -4.133,-9.231 -9.231,-9.231 z"
         style="fill:none;stroke:#000000;stroke-width:0.64350998;stroke-linecap:square;stroke-linejoin:round;stroke-miterlimit:1;stroke-dasharray:none;stroke-opacity:1"
         id="path60"
         inkscape:connector-curvature="0" /><path
         d="m 368.9372,378.1688 c 3.898,0 7.062,3.164 7.062,7.066 0,3.903 -3.164,7.063 -7.062,7.063 -3.902,0 -7.066,-3.16 -7.066,-7.063 0,-3.902 3.164,-7.066 7.066,-7.066 z"
         style="fill:none;stroke:#000000;stroke-width:0.34786901;stroke-linecap:square;stroke-linejoin:round;stroke-miterlimit:1;stroke-dasharray:none;stroke-opacity:1"
         id="path62"
         inkscape:connector-curvature="0" /><path
         d="m 368.9372,308.1958 c 42.543,0 77.031,34.492 77.031,77.039 0,42.543 -34.488,77.036 -77.031,77.036 -42.547,0 -77.035,-34.493 -77.035,-77.036 0,-42.547 34.488,-77.039 77.035,-77.039 z"
         style="fill:#ffffff;fill-opacity:1;stroke:#000000;stroke-width:0.64350998;stroke-linecap:square;stroke-linejoin:round;stroke-miterlimit:1;stroke-dasharray:none;stroke-opacity:1"
         id="path64"
         inkscape:connector-curvature="0" /><path
         d="m 372.1872,311.2428 c 116.469,0.36 80.93,178.563 69.125,344.461 -12.668,178 -6.766,248.383 -71.469,248.383 -64.711,0 -57.504,-56.895 -71.472,-222.609 -14.758,-175.063 -52.829,-370.633 73.816,-370.235 z"
         style="fill:none;stroke:#000000;stroke-width:0.64350998;stroke-linecap:square;stroke-linejoin:round;stroke-miterlimit:1;stroke-dasharray:none;stroke-opacity:1"
         id="path66"
         inkscape:connector-curvature="0" /><path
         d="m 376.2032,386.1058 c -0.106,8.551 -0.653,7.864 -156.231,8.782 -155.754,0.925 -142.894,4.129 -148.23,-8.082 1.558,-14.149 -7.262,-10.661 148.086,-10.567 155.761,0.094 156.503,-0.687 156.375,9.867 z"
         style="fill:#ffffff;fill-opacity:1;fill-rule:nonzero;stroke:#000000;stroke-width:0.82986099;stroke-linecap:square;stroke-linejoin:round;stroke-miterlimit:1;stroke-dasharray:none;stroke-opacity:1"
         id="path68"
         inkscape:connector-curvature="0" /><path
         inkscape:connector-curvature="0"
         id="path72"
         style="fill:none;stroke:#000000;stroke-width:0.64365685;stroke-linecap:square;stroke-linejoin:round;stroke-miterlimit:1;stroke-dasharray:none;stroke-opacity:1"
         d="m 583.0232,854.32465 c 0.055,8.92199 -0.332,6.78153 -110.191,7.48848 -109.864,0.70695 -111.055,2.02724 -111.114,-6.89475 -0.054,-8.9211 1.149,-8.3042 111.012,-9.01114 109.859,-0.70695 110.238,-0.50369 110.293,8.41741 z" /><path
         d="m 106.9102,309.9418 c -42.02,0 -76.082,34.059 -76.082,76.079 0,42.019 34.062,76.082 76.082,76.082 42.015,0 76.082,-34.063 76.082,-76.082 0,-42.02 -34.067,-76.079 -76.082,-76.079 z"
         style="fill:#ffffff;fill-opacity:1;fill-rule:nonzero;stroke:#000000;stroke-width:0.64350998;stroke-linecap:square;stroke-linejoin:round;stroke-miterlimit:1;stroke-dasharray:none;stroke-opacity:1"
         id="path74"
         inkscape:connector-curvature="0" /><path
         d="m 23.7382,536.1138 c -42.02,0 -76.082,34.063 -76.082,76.078 0,42.02 34.062,76.086 76.082,76.086 42.015,0 76.082,-34.066 76.082,-76.086 0,-42.015 -34.067,-76.078 -76.082,-76.078 z"
         style="fill:none;stroke:#000000;stroke-width:0.64350998;stroke-linecap:square;stroke-linejoin:round;stroke-miterlimit:1;stroke-dasharray:none;stroke-opacity:1"
         id="path76"
         inkscape:connector-curvature="0" /><path
         d="m 13.4412,748.1998 c -42.02,0 -76.082,34.067 -76.082,76.086 0,42.016 34.062,76.078 76.082,76.078 42.019,0 76.082,-34.062 76.082,-76.078 0,-42.019 -34.063,-76.086 -76.082,-76.086 z"
         style="fill:none;stroke:#000000;stroke-width:0.64350998;stroke-linecap:square;stroke-linejoin:round;stroke-miterlimit:1;stroke-dasharray:none;stroke-opacity:1"
         id="path78"
         inkscape:connector-curvature="0" /><path
         d="m 21.1602,980.1728 c -42.016,0 -76.079,34.062 -76.079,76.082 0,42.019 34.063,76.082 76.079,76.082 42.019,0 76.086,-34.063 76.086,-76.082 0,-42.02 -34.067,-76.082 -76.086,-76.082 z"
         style="fill:none;stroke:#000000;stroke-width:0.64350998;stroke-linecap:square;stroke-linejoin:round;stroke-miterlimit:1;stroke-dasharray:none;stroke-opacity:1"
         id="path80"
         inkscape:connector-curvature="0" /><path
         d="m 106.9102,1167.4068 c -42.02,0 -76.082,34.063 -76.082,76.082 0,42.02 34.062,76.086 76.082,76.086 42.015,0 76.082,-34.066 76.082,-76.086 0,-42.019 -34.067,-76.082 -76.082,-76.082 z"
         style="fill:none;stroke:#000000;stroke-width:0.64350998;stroke-linecap:square;stroke-linejoin:round;stroke-miterlimit:1;stroke-dasharray:none;stroke-opacity:1"
         id="path82"
         inkscape:connector-curvature="0" /><path
         d="m 120.2732,311.2428 c -42.813,-3.055 -175.524,-18.293 -183.945,513.172 -7.032,443.801 104.765,495.391 174.574,494.434 117.73,-1.618 103.492,-214.02 99.59,-496.774 -3.946,-285.566 4.656,-504.066 -90.219,-510.832 z"
         style="fill:none;stroke:#000000;stroke-width:0.64350998;stroke-linecap:square;stroke-linejoin:round;stroke-miterlimit:1;stroke-dasharray:none;stroke-opacity:1"
         id="path84"
         inkscape:connector-curvature="0" /><path
         d="m 106.9102,1234.2588 c -5.098,0 -9.231,4.133 -9.231,9.23 0,5.102 4.133,9.231 9.231,9.231 5.097,0 9.23,-4.129 9.23,-9.231 0,-5.097 -4.133,-9.23 -9.23,-9.23 z"
         style="fill:none;stroke:#000000;stroke-width:0.64350998;stroke-linecap:square;stroke-linejoin:round;stroke-miterlimit:1;stroke-dasharray:none;stroke-opacity:1"
         id="path86"
         inkscape:connector-curvature="0" /><path
         d="m 21.1602,1047.0238 c -5.094,0 -9.231,4.133 -9.231,9.231 0,5.098 4.137,9.234 9.231,9.234 5.101,0 9.234,-4.136 9.234,-9.234 0,-5.098 -4.133,-9.231 -9.234,-9.231 z"
         style="fill:none;stroke:#000000;stroke-width:0.64350998;stroke-linecap:square;stroke-linejoin:round;stroke-miterlimit:1;stroke-dasharray:none;stroke-opacity:1"
         id="path88"
         inkscape:connector-curvature="0" /><path
         d="m 13.4412,815.0518 c -5.102,0 -9.231,4.133 -9.231,9.234 0,5.094 4.129,9.231 9.231,9.231 5.098,0 9.23,-4.137 9.23,-9.231 0,-5.101 -4.132,-9.234 -9.23,-9.234 z"
         style="fill:none;stroke:#000000;stroke-width:0.64350998;stroke-linecap:square;stroke-linejoin:round;stroke-miterlimit:1;stroke-dasharray:none;stroke-opacity:1"
         id="path90"
         inkscape:connector-curvature="0" /><path
         d="m 23.7382,602.9618 c -5.102,0 -9.231,4.137 -9.231,9.23 0,5.102 4.129,9.235 9.231,9.235 5.097,0 9.23,-4.133 9.23,-9.235 0,-5.093 -4.133,-9.23 -9.23,-9.23 z"
         style="fill:none;stroke:#000000;stroke-width:0.64350998;stroke-linecap:square;stroke-linejoin:round;stroke-miterlimit:1;stroke-dasharray:none;stroke-opacity:1"
         id="path92"
         inkscape:connector-curvature="0" /><path
         d="m 106.9102,376.7898 c -5.098,0 -9.231,4.133 -9.231,9.231 0,5.101 4.133,9.234 9.231,9.234 5.097,0 9.23,-4.133 9.23,-9.234 0,-5.098 -4.133,-9.231 -9.23,-9.231 z"
         style="fill:none;stroke:#000000;stroke-width:0.64350998;stroke-linecap:square;stroke-linejoin:round;stroke-miterlimit:1;stroke-dasharray:none;stroke-opacity:1"
         id="path94"
         inkscape:connector-curvature="0" /><path
         d="m 1548.1242,311.2428 c -42.82,-3.055 -175.527,-18.293 -183.949,513.176 -7.031,443.797 104.766,495.387 174.574,494.43 117.731,-1.618 103.497,-214.02 99.59,-496.774 -3.941,-285.566 4.66,-504.066 -90.215,-510.832 z"
         style="fill:none;stroke:#000000;stroke-width:0.514808;stroke-linecap:square;stroke-linejoin:round;stroke-miterlimit:1;stroke-dasharray:2.059232, 4.118464;stroke-dashoffset:0;stroke-opacity:1"
         id="path112"
         inkscape:connector-curvature="0" /><path
         d="m 251.0702,535.5868 0,-299.125 -288.316,0 0,299.125 288.316,0 z"
         style="fill:none;stroke:#000000;stroke-width:1.6796;stroke-linecap:square;stroke-linejoin:round;stroke-miterlimit:1;stroke-dasharray:6.718404, 13.436807;stroke-dashoffset:0;stroke-opacity:1"
         id="path116"
         inkscape:connector-curvature="0" /><path
         d="m 368.9372,802.1568 c 28.469,0 51.547,23.078 51.547,51.551 0,28.473 -23.078,51.555 -51.547,51.555 -28.473,0 -51.555,-23.082 -51.555,-51.555 0,-28.473 23.082,-51.551 51.555,-51.551 z"
         style="fill:#ffffff;fill-opacity:1;fill-rule:nonzero;stroke:#000000;stroke-width:0.64350998;stroke-linecap:square;stroke-linejoin:round;stroke-miterlimit:1;stroke-dasharray:none;stroke-opacity:1"
         id="path120"
         inkscape:connector-curvature="0" /><path
         d="m 368.9372,844.4778 c 5.098,0 9.23,4.132 9.23,9.234 0,5.094 -4.132,9.226 -9.23,9.226 -5.098,0 -9.231,-4.132 -9.231,-9.226 0,-5.102 4.133,-9.234 9.231,-9.234 z"
         style="fill:none;stroke:#000000;stroke-width:0.64350998;stroke-linecap:square;stroke-linejoin:round;stroke-miterlimit:1;stroke-dasharray:none;stroke-opacity:1"
         id="path122"
         inkscape:connector-curvature="0" /><path
         d="m 43.4452,374.3838 c -5.102,0 -9.235,4.133 -9.235,9.234 0,5.098 4.133,9.231 9.235,9.231 5.094,0 9.23,-4.133 9.23,-9.231 0,-5.101 -4.136,-9.234 -9.23,-9.234 z"
         style="fill:none;stroke:#000000;stroke-width:0.64350998;stroke-linecap:square;stroke-linejoin:round;stroke-miterlimit:1;stroke-dasharray:none;stroke-opacity:1"
         id="path138"
         inkscape:connector-curvature="0" /><path
         d="m 106.9102,315.0988 c -5.098,0 -9.231,4.132 -9.231,9.23 0,5.102 4.133,9.234 9.231,9.234 5.097,0 9.23,-4.132 9.23,-9.234 0,-5.098 -4.133,-9.23 -9.23,-9.23 z"
         style="fill:none;stroke:#000000;stroke-width:0.64350998;stroke-linecap:square;stroke-linejoin:round;stroke-miterlimit:1;stroke-dasharray:none;stroke-opacity:1"
         id="path140"
         inkscape:connector-curvature="0" /><path
         d="m 171.7612,375.1958 c -5.097,0 -9.23,4.133 -9.23,9.235 0,5.097 4.133,9.23 9.23,9.23 5.098,0 9.231,-4.133 9.231,-9.23 0,-5.102 -4.133,-9.235 -9.231,-9.235 z"
         style="fill:none;stroke:#000000;stroke-width:0.64350998;stroke-linecap:square;stroke-linejoin:round;stroke-miterlimit:1;stroke-dasharray:none;stroke-opacity:1"
         id="path142"
         inkscape:connector-curvature="0" /><path
         d="m 106.9102,441.7938 c -5.098,0 -9.231,4.133 -9.231,9.23 0,5.102 4.133,9.235 9.231,9.235 5.097,0 9.23,-4.133 9.23,-9.235 0,-5.097 -4.133,-9.23 -9.23,-9.23 z"
         style="fill:none;stroke:#000000;stroke-width:0.64350998;stroke-linecap:square;stroke-linejoin:round;stroke-miterlimit:1;stroke-dasharray:none;stroke-opacity:1"
         id="path144"
         inkscape:connector-curvature="0" /><path
         d="m 1534.0662,313.4418 c -5.098,0 -9.231,4.133 -9.231,9.235 0,5.097 4.133,9.23 9.231,9.23 5.098,0 9.23,-4.133 9.23,-9.23 0,-5.102 -4.132,-9.235 -9.23,-9.235 z"
         style="fill:none;stroke:#000000;stroke-width:0.64350998;stroke-linecap:square;stroke-linejoin:round;stroke-miterlimit:1;stroke-dasharray:none;stroke-opacity:1"
         id="path146"
         inkscape:connector-curvature="0" /><path
         d="m 1598.9172,373.5438 c -5.097,0 -9.23,4.129 -9.23,9.23 0,5.098 4.133,9.231 9.23,9.231 5.098,0 9.231,-4.133 9.231,-9.231 0,-5.101 -4.133,-9.23 -9.231,-9.23 z"
         style="fill:none;stroke:#000000;stroke-width:0.64350998;stroke-linecap:square;stroke-linejoin:round;stroke-miterlimit:1;stroke-dasharray:none;stroke-opacity:1"
         id="path148"
         inkscape:connector-curvature="0" /><path
         d="m 1534.0662,440.1378 c -5.098,0 -9.231,4.133 -9.231,9.23 0,5.102 4.133,9.235 9.231,9.235 5.098,0 9.23,-4.133 9.23,-9.235 0,-5.097 -4.132,-9.23 -9.23,-9.23 z"
         style="fill:none;stroke:#000000;stroke-width:0.64350998;stroke-linecap:square;stroke-linejoin:round;stroke-miterlimit:1;stroke-dasharray:none;stroke-opacity:1"
         id="path150"
         inkscape:connector-curvature="0" /><path
         d="m 1678.9172,535.5868 0,-299.125 -288.316,0 0,299.125 288.316,0 z"
         style="fill:none;stroke:#000000;stroke-width:1.6796;stroke-linecap:square;stroke-linejoin:round;stroke-miterlimit:1;stroke-dasharray:6.718404, 13.436807;stroke-dashoffset:0;stroke-opacity:1"
         id="path152"
         inkscape:connector-curvature="0" /><flowRoot
         xml:space="preserve"
         id="flowRoot4445"
         style="font-style:normal;font-variant:normal;font-weight:normal;font-stretch:normal;font-size:15px;line-height:125%;font-family:cmr10;-inkscape-font-specification:'cmr10, Normal';text-align:start;letter-spacing:0px;word-spacing:0px;writing-mode:lr-tb;text-anchor:start;fill:#000000;fill-opacity:1;stroke:none;stroke-width:1px;stroke-linecap:butt;stroke-linejoin:miter;stroke-opacity:1"
         transform="matrix(0,-1,1,0,-103.5538,1592.0828)"><flowRegion
           id="flowRegion4447"><rect
             id="rect4449"
             width="535.81635"
             height="477.89026"
             x="1192.312"
             y="950.95331" /></flowRegion><flowPara
           id="flowPara4451" /></flowRoot><path
         d="m 1239.4532,386.1058 c 0.105,8.551 0.652,7.864 156.226,8.782 155.762,0.925 142.899,4.129 148.238,-8.082 -1.558,-14.149 7.258,-10.661 -148.093,-10.567 -155.758,0.094 -156.5,-0.687 -156.371,9.867 z"
         style="fill:#ffffff;fill-opacity:1;fill-rule:nonzero;stroke:#000000;stroke-width:0.82986099;stroke-linecap:square;stroke-linejoin:round;stroke-miterlimit:1;stroke-dasharray:none;stroke-opacity:1"
         id="path96"
         inkscape:connector-curvature="0" /><path
         d="m 1243.4722,311.2428 c -116.473,0.36 -80.933,178.563 -69.129,344.461 12.668,178 6.762,248.383 71.473,248.383 64.707,0 57.5,-56.895 71.469,-222.609 14.754,-175.063 52.828,-370.633 -73.813,-370.235 z"
         style="fill:none;stroke:#000000;stroke-width:0.64350998;stroke-linecap:square;stroke-linejoin:round;stroke-miterlimit:1;stroke-dasharray:none;stroke-opacity:1"
         id="path98"
         inkscape:connector-curvature="0" /><path
         inkscape:connector-curvature="0"
         id="path102"
         style="fill:#ffffff;fill-opacity:1;fill-rule:nonzero;stroke:#000000;stroke-width:0.63601899;stroke-linecap:square;stroke-linejoin:round;stroke-miterlimit:1;stroke-dasharray:none;stroke-opacity:1"
         d="m 1037.8552,854.32471 c -0.059,8.92207 0.324,6.78195 107.59,7.48863 107.273,0.70668 108.441,2.02691 108.492,-6.89425 0.059,-8.92207 -1.121,-8.30486 -108.391,-9.01246 -107.269,-0.70668 -107.636,-0.50307 -107.691,8.41808 z" /><path
         d="m 1056.0072,935.2038 -176.441,0 0,122.754 -143.723,0 0,-122.754 -176.441,0 0,-165.539 496.605,0 0,165.539 z"
         style="fill:#ffffff;fill-opacity:1;fill-rule:nonzero;stroke:#000000;stroke-width:0.64350998;stroke-linecap:square;stroke-linejoin:round;stroke-miterlimit:1;stroke-dasharray:none;stroke-opacity:1"
         id="path108"
         inkscape:connector-curvature="0" /><path
         d="m 1246.0759,310.5886 c -42.547,0 -77.035,34.492 -77.035,77.039 0,42.543 34.488,77.036 77.035,77.036 42.543,0 77.035,-34.493 77.035,-77.036 0,-42.547 -34.492,-77.039 -77.035,-77.039 z"
         style="fill:#ffffff;fill-opacity:1;fill-rule:nonzero;stroke:#000000;stroke-width:0.64350998;stroke-linecap:square;stroke-linejoin:round;stroke-miterlimit:1;stroke-dasharray:none;stroke-opacity:1"
         id="path104"
         inkscape:connector-curvature="0" /><path
         d="m 1246.7222,376.0008 c -5.098,0 -9.234,4.133 -9.234,9.234 0,5.094 4.136,9.231 9.234,9.231 5.098,0 9.231,-4.137 9.231,-9.231 0,-5.101 -4.133,-9.234 -9.231,-9.234 z"
         style="fill:none;stroke:#000000;stroke-width:0.64350998;stroke-linecap:square;stroke-linejoin:round;stroke-miterlimit:1;stroke-dasharray:none;stroke-opacity:1"
         id="path106"
         inkscape:connector-curvature="0" /><path
         d="m 1625.5341,275.94377 0,-6.082 c 0,-2.531 -0.125,-3.289 -5.312,-3.289 l -1.473,0 0,-2.179 c 2.879,0.226 6.52,0.226 9.473,0.226 2.934,0 6.644,0 9.496,-0.226 l 0,2.179 -1.461,0 c -5.184,0 -5.324,0.758 -5.324,3.289 l 0,6.082 7.012,0 0,2.168 -7.012,0 0,31.875 c 0,1.411 0,1.813 -1.113,1.813 -0.645,0 -0.844,0 -1.403,-0.856 l -21.508,-32.832 1.985,0 17.078,26.114 0,-26.114 -19.063,0 0,-2.168 18.625,0 z"
         style="fill:#000000;fill-opacity:1;fill-rule:nonzero;stroke:none"
         id="path136"
         inkscape:connector-curvature="0" /><path
         d="m 914.69542,1526.6999 0,0.676 -0.016,0.054 0,0.211 -0.016,0.039 -0.015,0.102 0,0.082 -0.028,0.074 -0.011,0.067 -0.028,0.074 -0.031,0.055 -0.027,0.054 -0.028,0.043 -0.086,0.086 -0.054,0.039 -0.059,0.031 -0.051,0.028 -0.046,0.011 -0.028,0.016 -0.039,0 -0.027,0.016 -0.047,0.015 -0.039,0 -0.043,0.012 -0.043,0 -0.055,0.016 -0.097,0 -0.043,0.015 -0.297,0 -0.071,0.016 -0.281,0 c -4.34,-4.484 -10.5,-4.484 -12.734,-4.484 l 0,-2.18 c 1.406,0 5.523,0 9.152,1.828 l 0,-36.277 c 0,-2.528 -0.195,-3.36 -6.492,-3.36 l -2.25,0 0,-2.179 c 2.461,0.226 8.547,0.226 11.344,0.226 2.808,0 8.882,0 11.34,-0.226 l 0,2.179 -2.235,0 c -6.297,0 -6.519,0.758 -6.519,3.36 l 0,39.285 0,0 z"
         style="fill:#000000;fill-opacity:1;fill-rule:nonzero;stroke:none"
         id="path124"
         inkscape:connector-curvature="0" /></g></g></svg>