<?xml version="1.0" encoding="UTF-8" standalone="no"?>
<!-- Created with Inkscape (http://www.inkscape.org/) -->

<svg
   xmlns:dc="http://purl.org/dc/elements/1.1/"
   xmlns:cc="http://creativecommons.org/ns#"
   xmlns:rdf="http://www.w3.org/1999/02/22-rdf-syntax-ns#"
   xmlns:svg="http://www.w3.org/2000/svg"
   xmlns="http://www.w3.org/2000/svg"
   xmlns:sodipodi="http://sodipodi.sourceforge.net/DTD/sodipodi-0.dtd"
   xmlns:inkscape="http://www.inkscape.org/namespaces/inkscape"
   width="1196.4656"
   height="249.37494"
   id="svg2"
   version="1.1"
   inkscape:version="0.48.4 r9939"
   sodipodi:docname="angularController.svg">
  <sodipodi:namedview
     id="base"
     pagecolor="#ffffff"
     bordercolor="#666666"
     borderopacity="1.0"
     inkscape:pageopacity="0.0"
     inkscape:pageshadow="2"
     inkscape:zoom="0.98994949"
     inkscape:cx="582.43928"
     inkscape:cy="62.85804"
     inkscape:document-units="px"
     inkscape:current-layer="layer1"
     showgrid="false"
     inkscape:window-width="1307"
     inkscape:window-height="744"
     inkscape:window-x="59"
     inkscape:window-y="24"
     inkscape:window-maximized="1"
     inkscape:snap-object-midpoints="true"
     inkscape:snap-center="true"
     fit-margin-top="0"
     fit-margin-left="0"
     fit-margin-right="0"
     fit-margin-bottom="0" />
  <defs
     id="defs4">
    <marker
       inkscape:stockid="Arrow1Lend"
       orient="auto"
       refY="0"
       refX="0"
       id="Arrow1Lend"
       style="overflow:visible">
      <path
         id="path4105"
         d="M 0,0 5,-5 -12.5,0 5,5 0,0 z"
         style="fill-rule:evenodd;stroke:#000000;stroke-width:1pt"
         transform="matrix(-0.8,0,0,-0.8,-10,0)"
         inkscape:connector-curvature="0" />
    </marker>
    <marker
       inkscape:stockid="Arrow1Lend"
       orient="auto"
       refY="0"
       refX="0"
       id="Arrow1Lend-0"
       style="overflow:visible">
      <path
         inkscape:connector-curvature="0"
         id="path4105-2"
         d="M 0,0 5,-5 -12.5,0 5,5 0,0 z"
         style="fill-rule:evenodd;stroke:#000000;stroke-width:1pt"
         transform="matrix(-0.8,0,0,-0.8,-10,0)" />
    </marker>
    <marker
       inkscape:stockid="Arrow1Lend"
       orient="auto"
       refY="0"
       refX="0"
       id="Arrow1Lend-5"
       style="overflow:visible">
      <path
         inkscape:connector-curvature="0"
         id="path4105-6"
         d="M 0,0 5,-5 -12.5,0 5,5 0,0 z"
         style="fill-rule:evenodd;stroke:#000000;stroke-width:1pt"
         transform="matrix(-0.8,0,0,-0.8,-10,0)" />
    </marker>
    <marker
       inkscape:stockid="Arrow1Lend"
       orient="auto"
       refY="0"
       refX="0"
       id="Arrow1Lend-4"
       style="overflow:visible">
      <path
         inkscape:connector-curvature="0"
         id="path4105-61"
         d="M 0,0 5,-5 -12.5,0 5,5 0,0 z"
         style="fill-rule:evenodd;stroke:#000000;stroke-width:1pt"
         transform="matrix(-0.8,0,0,-0.8,-10,0)" />
    </marker>
  </defs>
  <metadata
     id="metadata7">
    <rdf:RDF>
      <cc:Work
         rdf:about="">
        <dc:format>image/svg+xml</dc:format>
        <dc:type
           rdf:resource="http://purl.org/dc/dcmitype/StillImage" />
        <dc:title></dc:title>
      </cc:Work>
    </rdf:RDF>
  </metadata>
  <g
     inkscape:label="Layer 1"
     inkscape:groupmode="layer"
     id="layer1"
     transform="translate(177.17078,-433.99464)">
    <rect
       style="fill:none;stroke:#000000;stroke-width:0.99999994;stroke-linecap:square;stroke-linejoin:round;stroke-miterlimit:4;stroke-opacity:1;stroke-dasharray:none;stroke-dashoffset:0"
       id="rect2987"
       width="214.03435"
       height="130.00002"
       x="529.41138"
       y="450.93362" />
    <g
       id="g3265"
       transform="translate(15.99419,13.833011)">
      <rect
         y="452.36215"
         x="241.93439"
         height="98.571434"
         width="107.55983"
         id="rect2985"
         style="fill:none;stroke:#000000;stroke-width:1;stroke-linecap:square;stroke-linejoin:round;stroke-miterlimit:4;stroke-opacity:1;stroke-dasharray:none;stroke-dashoffset:0" />
      <g
         transform="translate(-36.305971,154.70318)"
         id="g2996">
        <g
           style="font-style:normal;font-variant:normal;font-weight:normal;font-stretch:normal;letter-spacing:normal;word-spacing:normal;text-anchor:start;fill:none;stroke:#000000;stroke-linecap:butt;stroke-linejoin:miter;stroke-miterlimit:10.43299961;stroke-opacity:1;stroke-dasharray:none;stroke-dashoffset:0"
           word-spacing="normal"
           letter-spacing="normal"
           font-size-adjust="none"
           font-stretch="normal"
           font-weight="normal"
           font-variant="normal"
           font-style="normal"
           stroke-miterlimit="10.433"
           xml:space="preserve"
           transform="matrix(1.0629921,0,0,-1.0629921,-186.02362,789.27165)"
           id="content"><path
             style="fill:#000000;stroke-width:0"
             inkscape:connector-curvature="0"
             id="path2999"
             d="m 480.88,426.32 -0.01,0.02 0,0.02 -0.01,0.01 -0.01,0.02 0,0.02 -0.01,0.02 -0.01,0.03 -0.01,0.02 -0.01,0.02 -0.01,0.02 -0.01,0.03 -0.01,0.02 -0.02,0.05 -0.02,0.06 -0.02,0.05 -0.02,0.05 -0.01,0.02 -0.01,0.03 -0.01,0.02 -0.01,0.02 -0.01,0.03 0,0.02 -0.01,0.02 0,0.02 -0.01,0.02 0,0.02 0,0.01 0,0.02 c 0,0.04 0.89,0.75 1.45,1.14 l 8.72,6.73 c 4.67,3.44 6.63,3.63 8.11,3.78 0.41,0.05 0.91,0.1 0.91,1 0,0.19 -0.16,0.55 -0.55,0.55 -1.11,0 -2.34,-0.16 -3.55,-0.16 -1.79,0 -3.73,0.16 -5.53,0.16 -0.34,0 -0.94,0 -0.94,-1 0,-0.34 0.25,-0.5 0.6,-0.55 1.09,-0.09 1.54,-0.34 1.54,-1.04 0,-0.89 -1.5,-2.05 -1.79,-2.3 l -19.44,-14.94 4,15.99 c 0.44,1.79 0.55,2.29 4.17,2.29 1.25,0 1.71,0 1.71,1 0,0.44 -0.41,0.55 -0.71,0.55 -1.39,0 -4.98,-0.16 -6.37,-0.16 -1.44,0 -4.99,0.16 -6.42,0.16 -0.36,0 -1,0 -1,-0.95 0,-0.6 0.45,-0.6 1.43,-0.6 0.66,0 1.55,-0.04 2.14,-0.09 0.8,-0.11 1.11,-0.25 1.11,-0.8 0,-0.2 -0.06,-0.36 -0.2,-0.95 l -6.67,-26.75 c -0.5,-1.95 -0.61,-2.34 -4.55,-2.34 -0.84,0 -1.39,0 -1.39,-0.96 0,-0.59 0.59,-0.59 0.75,-0.59 1.39,0 4.94,0.16 6.33,0.16 1.05,0 2.14,-0.07 3.19,-0.07 1.09,0 2.18,-0.09 3.23,-0.09 0.36,0 1,0 1,1 0,0.55 -0.45,0.55 -1.39,0.55 -1.84,0 -3.23,0 -3.23,0.89 0,0.36 0.29,1.45 0.43,2.2 0.71,2.58 1.35,5.22 2,7.81 l 7.42,5.78 5.79,-13.4 c 0.59,-1.35 0.59,-1.44 0.59,-1.74 0,-1.5 -2.14,-1.54 -2.59,-1.54 -0.55,0 -1.1,0 -1.1,-1 0,-0.55 0.6,-0.55 0.71,-0.55 1.98,0 4.07,0.16 6.07,0.16 1.1,0 3.78,-0.16 4.88,-0.16 0.25,0 0.9,0 0.9,1 0,0.55 -0.56,0.55 -1,0.55 -2.04,0.04 -2.68,0.5 -3.43,2.23 z" /><path
             style="fill:#000000;stroke-width:0"
             inkscape:connector-curvature="0"
             id="path3001"
             d="m 500.49,394.51 -0.02,-0.09 -0.02,-0.08 -0.02,-0.09 -0.03,-0.07 -0.02,-0.08 -0.02,-0.07 -0.02,-0.07 -0.02,-0.06 -0.03,-0.06 -0.02,-0.05 -0.03,-0.06 -0.03,-0.05 -0.03,-0.04 -0.03,-0.05 -0.04,-0.04 -0.04,-0.03 -0.04,-0.04 -0.05,-0.03 -0.05,-0.03 -0.06,-0.02 -0.06,-0.03 -0.06,-0.02 -0.07,-0.01 -0.07,-0.02 -0.09,-0.02 -0.04,0 -0.04,-0.01 -0.05,0 -0.04,-0.01 -0.05,0 -0.05,0 -0.05,-0.01 -0.06,0 -0.05,0 -0.06,0 -0.06,-0.01 -0.06,0 -0.06,0 -0.06,0 c -0.46,0 -0.94,0 -0.94,-0.73 0,-0.39 0.31,-0.53 0.48,-0.53 0.91,0 2.06,0.14 3,0.14 1.19,0 2.5,-0.14 3.66,-0.14 0.31,0 0.7,0.11 0.7,0.76 0,0.5 -0.5,0.5 -0.9,0.5 -0.79,0 -1.72,0 -1.72,0.41 0,0.19 0.25,1.09 0.39,1.61 0.42,1.84 0.9,3.73 1.28,5.18 0.42,-0.68 1.5,-2.04 3.59,-2.04 v 0.97 c -2.47,0 -3.09,2.68 -3.09,3.03 0,0.14 0.06,0.39 0.09,0.53 l 1.75,7 c 2.02,2.69 3.77,3.2 4.88,3.2 1.36,0 2.54,-1.01 2.54,-3.37 0,-1.44 -0.76,-4.99 -1.81,-7.02 -0.87,-1.7 -2.58,-3.37 -4.36,-3.37 v -0.97 c 4.25,0 8.95,4.7 8.95,9.89 0,4.08 -2.82,5.81 -5.21,5.81 -2.18,0 -4.02,-1.45 -4.96,-2.44 -0.59,1.99 -2.54,2.44 -3.59,2.44 -1.36,0 -2.19,-0.91 -2.75,-1.84 -0.7,-1.19 -1.25,-3.27 -1.25,-3.49 0,-0.45 0.48,-0.45 0.59,-0.45 0.49,0 0.52,0.11 0.77,1.05 0.51,2.03 1.19,3.76 2.55,3.76 0.9,0 1.14,-0.76 1.14,-1.7 0,-0.39 -0.07,-0.84 -0.11,-1.05 z" /></g>      </g>
    </g>
    <g
       id="g3023"
       transform="translate(242.82385,168.21296)">
      <g
         word-spacing="normal"
         letter-spacing="normal"
         font-size-adjust="none"
         font-stretch="normal"
         font-weight="normal"
         font-variant="normal"
         font-style="normal"
         stroke-miterlimit="10.433"
         xml:space="preserve"
         transform="matrix(1.0629921,0,0,-1.0629921,-186.02362,789.27165)"
         id="g3025"
         style="font-style:normal;font-variant:normal;font-weight:normal;font-stretch:normal;letter-spacing:normal;word-spacing:normal;text-anchor:start;fill:none;stroke:#000000;stroke-linecap:butt;stroke-linejoin:miter;stroke-miterlimit:10.43299961;stroke-opacity:1;stroke-dasharray:none;stroke-dashoffset:0"><path
           id="path3027"
           d="m 505.1,440.6 -0.02,0.03 -0.01,0.02 -0.01,0.03 -0.01,0.02 -0.01,0.02 -0.01,0.02 -0.02,0.02 -0.01,0.02 -0.01,0.02 -0.01,0.02 0,0.01 -0.01,0.02 -0.01,0.02 -0.01,0.01 -0.01,0.01 0,0.02 -0.01,0.01 -0.01,0.01 0,0.01 -0.01,0.01 0,0.01 -0.01,0.01 0,0.01 -0.01,0 0,0.01 0,0.01 -0.01,0 0,0.01 0,0 0,0.01 0,0 0,0 c 0,0.08 0.03,0.11 0.84,0.68 l 3.52,2.46 c 4.59,3.24 6.76,4.77 9.23,4.99 0.38,0.03 0.8,0.06 0.8,0.76 0,0.29 -0.24,0.46 -0.45,0.46 -0.74,0 -1.64,-0.11 -2.41,-0.11 -0.94,0 -3.26,0.14 -4.2,0.14 -0.22,0 -0.74,0 -0.74,-0.77 0,-0.03 0,-0.45 0.52,-0.48 0.42,-0.03 0.87,-0.11 0.87,-0.49 0,-0.64 -1.07,-1.4 -1.53,-1.71 l -14.53,-10.24 2.75,10.97 c 0.31,1.19 0.34,1.47 3.06,1.47 0.57,0 1.05,0 1.05,0.73 0,0.32 -0.2,0.52 -0.56,0.52 -1,0 -3.55,-0.14 -4.56,-0.14 -0.6,0 -1.82,0 -2.41,0.03 -0.69,0.05 -1.53,0.11 -2.19,0.11 -0.2,0 -0.73,0 -0.73,-0.77 0,-0.48 0.39,-0.48 1.15,-0.48 0.55,0 0.69,0 1.32,-0.08 0.7,-0.06 0.78,-0.14 0.78,-0.48 0,-0.07 0,-0.24 -0.14,-0.77 l -4.64,-18.5 c -0.29,-1.19 -0.35,-1.47 -3.07,-1.47 -0.62,0 -1.04,0 -1.04,-0.76 0,-0.04 0,-0.49 0.56,-0.49 1,0 3.51,0.14 4.51,0.14 0.6,0 1.82,0 2.41,-0.03 0.7,-0.05 1.58,-0.11 2.24,-0.11 0.2,0 0.73,0 0.73,0.77 0,0.48 -0.42,0.48 -1.11,0.48 -0.05,0 -0.7,0 -1.33,0.08 -0.81,0.06 -0.81,0.17 -0.81,0.52 0,0.28 0.36,1.57 1.64,6.68 l 5.78,4.08 5.06,-9.78 c 0.24,-0.45 0.24,-0.5 0.24,-0.67 0,-0.8 -0.97,-0.91 -1.6,-0.91 -0.42,0 -0.9,0 -0.9,-0.76 0,-0.04 0.03,-0.49 0.59,-0.49 0.97,0 3.49,0.14 4.46,0.14 1.04,0 2.43,-0.14 3.42,-0.14 0.45,0 0.69,0.25 0.69,0.74 0,0.51 -0.46,0.51 -0.8,0.51 -0.63,0 -1.71,0.05 -2.3,1.16 z"
           inkscape:connector-curvature="0"
           style="fill:#000000;stroke-width:0" /><path
           id="path3029"
           d="m 534.61,430.45 0,0.08 0,0.07 -0.01,0.07 0,0.07 -0.01,0.07 0,0.07 -0.01,0.07 -0.01,0.06 -0.02,0.13 -0.03,0.12 -0.03,0.11 -0.03,0.11 -0.04,0.1 -0.04,0.09 -0.04,0.09 -0.05,0.09 -0.05,0.08 -0.05,0.07 -0.05,0.07 -0.06,0.06 -0.05,0.06 -0.06,0.06 -0.06,0.05 -0.06,0.05 -0.06,0.04 -0.06,0.03 -0.06,0.04 -0.06,0.03 -0.06,0.02 -0.06,0.02 -0.06,0.02 -0.06,0.02 -0.06,0.01 -0.05,0 -0.05,0.01 -0.05,0 c -0.69,0 -1.44,-0.77 -1.44,-1.44 0,-0.47 0.33,-0.72 0.47,-0.84 0.28,-0.2 0.97,-0.75 0.97,-1.91 0,-1.34 -1.89,-6.26 -4.85,-6.26 -1.29,0 -2.42,0.5 -2.42,2.28 0,1.25 0.67,2.89 1.42,4.73 0.14,0.41 0.33,0.8 0.33,1.22 0,1.22 -1.17,2.2 -2.72,2.2 -2.64,0 -4.01,-3.21 -4.01,-3.86 0,-0.35 0.4,-0.35 0.53,-0.35 0.42,0 0.44,0.12 0.56,0.5 0.5,1.67 1.67,2.85 2.81,2.85 0.49,0 0.75,-0.26 0.75,-0.93 0,-0.5 -0.09,-0.78 -0.42,-1.5 -0.97,-2.41 -1.34,-3.61 -1.34,-4.57 0,-2.4 1.97,-3.43 4.39,-3.43 2.01,0 3.45,1.48 4.36,2.83 1.78,2.65 2.06,5.89 2.06,6.34 z"
           inkscape:connector-curvature="0"
           style="fill:#000000;stroke-width:0" /><path
           id="path3031"
           d="m 547.91,435.32 -0.01,0.12 -0.01,0.11 -0.01,0.11 -0.02,0.11 -0.03,0.1 -0.03,0.1 -0.03,0.1 -0.04,0.09 -0.05,0.09 -0.05,0.09 -0.05,0.09 -0.05,0.08 -0.06,0.07 -0.07,0.08 -0.06,0.07 -0.07,0.07 -0.08,0.06 -0.07,0.06 -0.08,0.06 -0.08,0.05 -0.08,0.05 -0.08,0.04 -0.09,0.04 -0.08,0.04 -0.09,0.03 -0.09,0.03 -0.09,0.02 -0.08,0.02 -0.09,0.02 -0.09,0.01 -0.09,0 -0.09,0.01 c -1.14,0 -2.01,-0.94 -2.01,-1.99 0,-1.26 1.04,-2.03 1.98,-2.03 1.14,0 2.02,0.95 2.02,2 z"
           inkscape:connector-curvature="0"
           style="fill:#000000;stroke-width:0" /><path
           id="path3033"
           d="m 571.82,440.6 -0.02,0.03 -0.01,0.02 -0.01,0.03 -0.01,0.02 -0.02,0.02 -0.01,0.02 -0.01,0.02 -0.01,0.02 -0.01,0.02 -0.01,0.02 -0.01,0.01 0,0.02 -0.01,0.02 -0.01,0.01 -0.01,0.01 -0.01,0.02 0,0.01 -0.01,0.01 0,0.01 -0.01,0.01 0,0.01 -0.01,0.01 0,0.01 -0.01,0 0,0.01 0,0.01 -0.01,0 0,0.01 0,0 0,0.01 0,0 0,0 c 0,0.08 0.03,0.11 0.84,0.68 l 3.52,2.46 c 4.59,3.24 6.76,4.77 9.23,4.99 0.38,0.03 0.8,0.06 0.8,0.76 0,0.29 -0.24,0.46 -0.46,0.46 -0.73,0 -1.63,-0.11 -2.4,-0.11 -0.94,0 -3.27,0.14 -4.2,0.14 -0.22,0 -0.74,0 -0.74,-0.77 0,-0.03 0,-0.45 0.52,-0.48 0.42,-0.03 0.87,-0.11 0.87,-0.49 0,-0.64 -1.08,-1.4 -1.53,-1.71 l -14.53,-10.24 2.75,10.97 c 0.31,1.19 0.34,1.47 3.06,1.47 0.57,0 1.05,0 1.05,0.73 0,0.32 -0.2,0.52 -0.56,0.52 -1,0 -3.55,-0.14 -4.57,-0.14 -0.59,0 -1.81,0 -2.4,0.03 -0.69,0.05 -1.53,0.11 -2.19,0.11 -0.2,0 -0.73,0 -0.73,-0.77 0,-0.48 0.39,-0.48 1.15,-0.48 0.55,0 0.69,0 1.32,-0.08 0.7,-0.06 0.78,-0.14 0.78,-0.48 0,-0.07 0,-0.24 -0.15,-0.77 l -4.63,-18.5 c -0.29,-1.19 -0.35,-1.47 -3.07,-1.47 -0.62,0 -1.05,0 -1.05,-0.76 0,-0.04 0,-0.49 0.57,-0.49 1,0 3.51,0.14 4.51,0.14 0.6,0 1.82,0 2.41,-0.03 0.7,-0.05 1.58,-0.11 2.23,-0.11 0.21,0 0.74,0 0.74,0.77 0,0.48 -0.42,0.48 -1.11,0.48 -0.05,0 -0.7,0 -1.33,0.08 -0.81,0.06 -0.81,0.17 -0.81,0.52 0,0.28 0.36,1.57 1.64,6.68 l 5.78,4.08 5.06,-9.78 c 0.24,-0.45 0.24,-0.5 0.24,-0.67 0,-0.8 -0.97,-0.91 -1.6,-0.91 -0.42,0 -0.9,0 -0.9,-0.76 0,-0.04 0.03,-0.49 0.59,-0.49 0.97,0 3.48,0.14 4.45,0.14 1.05,0 2.44,-0.14 3.43,-0.14 0.45,0 0.68,0.25 0.68,0.74 0,0.51 -0.45,0.51 -0.79,0.51 -0.63,0 -1.71,0.05 -2.3,1.16 z"
           inkscape:connector-curvature="0"
           style="fill:#000000;stroke-width:0" /><path
           id="path3035"
           d="m 597.98,430.98 -0.04,-0.01 -0.03,-0.01 -0.04,-0.02 -0.04,-0.01 -0.03,-0.02 -0.04,-0.01 -0.06,-0.04 -0.07,-0.03 -0.06,-0.04 -0.05,-0.04 -0.05,-0.04 -0.05,-0.04 -0.04,-0.04 -0.05,-0.04 -0.03,-0.05 -0.04,-0.05 -0.03,-0.04 -0.03,-0.05 -0.03,-0.04 -0.02,-0.05 -0.03,-0.05 -0.02,-0.04 -0.02,-0.05 -0.01,-0.05 -0.01,-0.04 -0.02,-0.04 -0.01,-0.04 -0.01,-0.04 0,-0.04 -0.01,-0.04 0,-0.03 -0.01,-0.04 0,-0.03 0,-0.03 0,-0.02 c 0,-0.62 0.52,-0.89 0.94,-0.89 0.29,0 1.33,0.22 1.33,1.53 0,1.67 -1.97,2.2 -3.85,2.2 -4.2,0 -5,-2.57 -5,-3.46 0,-0.9 0.52,-1.43 0.97,-1.77 0.69,-0.5 1.44,-0.59 2.77,-0.83 1.56,-0.25 3.31,-0.51 3.31,-1.8 0,-0.01 0,-2.57 -4.59,-2.57 -0.94,0 -2.49,0.06 -3.29,0.84 0.89,0.2 1.3,0.92 1.3,1.52 0,0.7 -0.53,1.01 -1.08,1.01 -0.84,0 -1.59,-0.67 -1.59,-1.78 0,-2.45 3.89,-2.45 4.61,-2.45 5.11,0 5.98,2.95 5.98,3.97 0,2.23 -2.73,2.67 -4.03,2.89 -1.78,0.26 -3,0.47 -3,1.5 0,0.01 0,2.07 3.6,2.07 0.64,0 1.96,-0.04 2.6,-0.73 z"
           inkscape:connector-curvature="0"
           style="fill:#000000;stroke-width:0" /><polyline
           id="polyline3037"
           points="462,418 628.56,418 628.56,420.04 462,420.04 "
           style="fill:#000000;fill-rule:nonzero;stroke-width:0" /><path
           id="path3039"
           d="m 473.89,415.18 -0.6,-0.45 -0.58,-0.46 -0.55,-0.47 -0.53,-0.49 -0.5,-0.5 -0.47,-0.51 -0.45,-0.53 -0.42,-0.53 -0.4,-0.54 -0.37,-0.55 -0.36,-0.56 -0.33,-0.56 -0.31,-0.57 -0.28,-0.57 -0.27,-0.58 -0.25,-0.58 -0.22,-0.58 -0.21,-0.58 -0.19,-0.59 -0.18,-0.58 -0.15,-0.58 -0.14,-0.58 -0.13,-0.57 -0.1,-0.57 -0.1,-0.57 -0.07,-0.56 -0.07,-0.55 -0.05,-0.55 -0.04,-0.53 -0.03,-0.53 -0.01,-0.52 -0.01,-0.5 c 0,-4.92 1.47,-12.55 8.37,-17.42 0.29,0 0.69,0 0.69,0.4 0,0.22 -0.09,0.28 -0.34,0.53 -4.64,4.19 -6.35,10.11 -6.35,16.46 0,9.4 3.6,14 6.46,16.58 0.14,0.14 0.23,0.25 0.23,0.42 0,0.42 -0.4,0.42 -0.69,0.42 z"
           inkscape:connector-curvature="0"
           style="fill:#000000;stroke-width:0" /><path
           id="path3041"
           d="m 491.2,399.01 0.32,-0.76 0.33,-0.77 0.34,-0.78 0.33,-0.78 0.32,-0.78 0.32,-0.76 0.15,-0.37 0.16,-0.36 0.14,-0.36 0.15,-0.34 0.14,-0.34 0.14,-0.32 0.13,-0.31 0.13,-0.3 0.12,-0.29 0.12,-0.27 0.11,-0.25 0.1,-0.23 0.1,-0.22 0.09,-0.19 0.08,-0.18 0.07,-0.15 0.07,-0.13 0.06,-0.11 0.05,-0.08 0.03,-0.06 c 0.66,-0.82 1.3,-0.82 1.85,-0.82 h 0.7 c 0.66,0 1.02,0 1.02,0.4 0,0.19 -0.11,0.28 -0.19,0.36 -0.41,0.38 -0.77,1.19 -0.91,1.5 l -8.5,20.06 c -0.23,0.63 -0.93,2.21 -4.62,2.21 -0.42,0 -0.91,0 -0.91,-0.5 0,-0.41 0.35,-0.46 0.52,-0.49 0.73,-0.09 1.39,-0.2 2.26,-2.19 l 4.14,-9.76 -10.26,-9.27 c -0.42,-0.34 -0.7,-0.62 -0.7,-1.22 0,-0.82 0.7,-1.18 1.18,-1.18 0.66,0 1.08,0.45 1.19,0.56 z"
           inkscape:connector-curvature="0"
           style="fill:#000000;stroke-width:0" /><path
           id="path3043"
           d="m 508.66,397.76 0,0.11 -0.01,0.12 -0.02,0.11 -0.02,0.1 -0.02,0.11 -0.03,0.1 -0.04,0.1 -0.04,0.09 -0.04,0.09 -0.05,0.09 -0.05,0.08 -0.06,0.08 -0.06,0.08 -0.06,0.08 -0.07,0.07 -0.07,0.06 -0.07,0.07 -0.08,0.06 -0.08,0.05 -0.07,0.06 -0.09,0.04 -0.08,0.05 -0.08,0.04 -0.09,0.03 -0.09,0.04 -0.08,0.02 -0.09,0.03 -0.09,0.02 -0.09,0.01 -0.09,0.01 -0.09,0.01 -0.08,0 c -1.14,0 -2.02,-0.93 -2.02,-1.98 0,-1.27 1.05,-2.03 1.98,-2.03 1.15,0 2.02,0.95 2.02,2 z"
           inkscape:connector-curvature="0"
           style="fill:#000000;stroke-width:0" /><path
           id="path3045"
           d="m 527.65,402.13 -0.09,-0.02 -0.08,-0.02 -0.08,-0.03 -0.08,-0.03 -0.07,-0.03 -0.07,-0.03 -0.07,-0.04 -0.07,-0.04 -0.07,-0.04 -0.06,-0.05 -0.07,-0.04 -0.05,-0.05 -0.06,-0.05 -0.06,-0.05 -0.05,-0.05 -0.05,-0.06 -0.04,-0.05 -0.05,-0.06 -0.04,-0.06 -0.03,-0.06 -0.04,-0.06 -0.03,-0.06 -0.03,-0.06 -0.03,-0.07 -0.02,-0.06 -0.02,-0.06 -0.02,-0.07 -0.01,-0.06 -0.02,-0.07 0,-0.06 -0.01,-0.07 0,-0.06 c 0,-0.81 0.7,-1.13 1.16,-1.13 0.34,0 1.67,0.22 1.67,1.99 0,2.26 -2.5,3.03 -4.63,3.03 -5.43,0 -6.42,-4 -6.42,-5.08 0,-1.3 0.74,-2.12 1.22,-2.55 0.91,-0.7 1.53,-0.82 3.94,-1.25 0.73,-0.14 2.97,-0.56 2.97,-2.29 0,-0.6 -0.39,-1.93 -1.85,-2.8 -1.36,-0.77 -3.08,-0.77 -3.48,-0.77 -1.41,0 -3.39,0.32 -4.19,1.47 1.16,0.14 1.92,1 1.92,1.99 0,0.87 -0.62,1.28 -1.36,1.28 -1.01,0 -2.03,-0.8 -2.03,-2.33 0,-2.09 2.24,-3.37 5.61,-3.37 6.42,0 7.61,4.39 7.61,5.75 0,3.2 -3.53,3.82 -4.81,4.07 -0.31,0.07 -1.19,0.21 -1.39,0.27 -1.3,0.25 -1.92,0.98 -1.92,1.75 0,0.8 0.62,1.73 1.39,2.23 0.93,0.6 2.15,0.66 2.75,0.66 0.73,0 2.54,-0.11 3.31,-1.3 z"
           inkscape:connector-curvature="0"
           style="fill:#000000;stroke-width:0" /><path
           id="path3047"
           d="m 547.61,396.91 h 10.66 c 0.45,0 1.28,0 1.28,0.85 0,0.86 -0.8,0.86 -1.28,0.86 h -10.66 v 10.7 c 0,0.45 0,1.28 -0.84,1.28 -0.87,0 -0.87,-0.8 -0.87,-1.28 v -10.7 h -10.69 c -0.46,0 -1.3,0 -1.3,-0.83 0,-0.88 0.8,-0.88 1.3,-0.88 h 10.69 v -10.7 c 0,-0.45 0,-1.28 0.84,-1.28 0.87,0 0.87,0.8 0.87,1.28 z"
           inkscape:connector-curvature="0"
           style="fill:#000000;stroke-width:0" /><path
           id="path3049"
           d="m 573.74,411.2 0,0.04 0,0.04 0,0.04 0,0.04 0,0.04 0,0.04 0,0.04 0,0.03 0,0.03 -0.01,0.04 0,0.03 0,0.03 0,0.03 -0.01,0.03 0,0.02 0,0.03 -0.01,0.03 0,0.02 -0.01,0.02 0,0.03 -0.01,0.04 -0.02,0.04 -0.02,0.03 -0.02,0.03 -0.02,0.03 -0.02,0.02 -0.03,0.03 -0.03,0.02 -0.03,0.01 -0.04,0.02 -0.04,0.01 -0.05,0.01 -0.02,0.01 -0.02,0 -0.03,0.01 -0.03,0 -0.02,0 -0.03,0.01 -0.03,0 -0.03,0 -0.03,0 -0.04,0 -0.03,0.01 -0.04,0 -0.03,0 -0.04,0 -0.04,0 -0.04,0 -0.04,0 -0.05,0 -0.04,0 -0.04,0 c -2.24,-2.2 -5.4,-2.23 -6.83,-2.23 v -1.25 c 0.84,0 3.14,0 5.04,0.96 V 391.9 c 0,-1.16 0,-1.61 -3.48,-1.61 h -1.31 v -1.25 c 0.62,0.03 4.9,0.14 6.2,0.14 1.08,0 5.47,-0.11 6.23,-0.14 v 1.25 h -1.32 c -3.49,0 -3.49,0.45 -3.49,1.61 z"
           inkscape:connector-curvature="0"
           style="fill:#000000;stroke-width:0" /><path
           id="path3051"
           d="m 585.01,415.18 -0.03,0 -0.02,0 -0.03,0 -0.02,0 -0.03,0 -0.03,0 -0.02,0 -0.03,-0.01 -0.03,0 -0.03,0 -0.03,-0.01 -0.02,0 -0.03,-0.01 -0.03,-0.01 -0.03,0 -0.02,-0.01 -0.03,-0.01 -0.02,-0.02 -0.02,-0.01 -0.03,-0.01 -0.02,-0.02 -0.02,-0.02 -0.02,-0.02 -0.01,-0.01 0,-0.01 -0.01,-0.01 -0.01,-0.01 -0.01,-0.01 0,-0.02 -0.01,-0.01 -0.01,-0.01 0,-0.02 -0.01,-0.01 0,-0.02 0,-0.01 -0.01,-0.02 0,-0.02 0,-0.02 0,-0.01 0,-0.02 0,-0.02 c 0,-0.17 0.11,-0.28 0.31,-0.53 3,-2.75 6.34,-7.46 6.34,-16.44 0,-7.28 -2.26,-12.8 -6.03,-16.2 -0.58,-0.6 -0.62,-0.63 -0.62,-0.82 0,-0.17 0.11,-0.4 0.45,-0.4 0.42,0 3.73,2.29 6.03,6.65 1.53,2.89 2.55,6.66 2.55,10.74 0,4.9 -1.47,12.53 -8.36,17.42 z"
           inkscape:connector-curvature="0"
           style="fill:#000000;stroke-width:0" /><path
           id="path3053"
           d="m 605.37,397.76 0,0.11 -0.01,0.12 -0.02,0.11 -0.02,0.1 -0.02,0.11 -0.03,0.1 -0.04,0.1 -0.04,0.09 -0.04,0.09 -0.05,0.09 -0.05,0.08 -0.06,0.08 -0.06,0.08 -0.06,0.08 -0.07,0.07 -0.07,0.06 -0.07,0.07 -0.08,0.06 -0.07,0.05 -0.08,0.06 -0.08,0.04 -0.09,0.05 -0.08,0.04 -0.09,0.03 -0.08,0.04 -0.09,0.02 -0.09,0.03 -0.09,0.02 -0.09,0.01 -0.09,0.01 -0.08,0.01 -0.09,0 c -1.14,0 -2.02,-0.93 -2.02,-1.98 0,-1.27 1.05,-2.03 1.98,-2.03 1.15,0 2.02,0.95 2.02,2 z"
           inkscape:connector-curvature="0"
           style="fill:#000000;stroke-width:0" /><path
           id="path3055"
           d="m 624.36,402.13 -0.08,-0.02 -0.09,-0.02 -0.08,-0.03 -0.07,-0.03 -0.08,-0.03 -0.07,-0.03 -0.07,-0.04 -0.07,-0.04 -0.07,-0.04 -0.06,-0.05 -0.06,-0.04 -0.06,-0.05 -0.06,-0.05 -0.05,-0.05 -0.06,-0.05 -0.04,-0.06 -0.05,-0.05 -0.04,-0.06 -0.05,-0.06 -0.03,-0.06 -0.04,-0.06 -0.03,-0.06 -0.03,-0.06 -0.03,-0.07 -0.02,-0.06 -0.02,-0.06 -0.02,-0.07 -0.01,-0.06 -0.01,-0.07 -0.01,-0.06 -0.01,-0.07 0,-0.06 c 0,-0.81 0.7,-1.13 1.16,-1.13 0.34,0 1.67,0.22 1.67,1.99 0,2.26 -2.5,3.03 -4.63,3.03 -5.43,0 -6.42,-4 -6.42,-5.08 0,-1.3 0.74,-2.12 1.22,-2.55 0.91,-0.7 1.53,-0.82 3.94,-1.25 0.73,-0.14 2.97,-0.56 2.97,-2.29 0,-0.6 -0.39,-1.93 -1.85,-2.8 -1.36,-0.77 -3.07,-0.77 -3.48,-0.77 -1.41,0 -3.39,0.32 -4.19,1.47 1.16,0.14 1.92,1 1.92,1.99 0,0.87 -0.62,1.28 -1.36,1.28 -1.01,0 -2.03,-0.8 -2.03,-2.33 0,-2.09 2.24,-3.37 5.61,-3.37 6.42,0 7.61,4.39 7.61,5.75 0,3.2 -3.53,3.82 -4.81,4.07 -0.31,0.07 -1.19,0.21 -1.39,0.27 -1.3,0.25 -1.92,0.98 -1.92,1.75 0,0.8 0.62,1.73 1.39,2.23 0.93,0.6 2.15,0.66 2.75,0.66 0.73,0 2.54,-0.11 3.31,-1.3 z"
           inkscape:connector-curvature="0"
           style="fill:#000000;stroke-width:0" /></g>    </g>
    <g
       id="g3113"
       transform="translate(-477.58297,130.07105)">
      <g
         id="g3115"
         transform="matrix(1.0629921,0,0,-1.0629921,-186.02362,789.27165)"
         xml:space="preserve"
         stroke-miterlimit="10.433"
         font-style="normal"
         font-variant="normal"
         font-weight="normal"
         font-stretch="normal"
         font-size-adjust="none"
         letter-spacing="normal"
         word-spacing="normal"
         style="font-style:normal;font-variant:normal;font-weight:normal;font-stretch:normal;letter-spacing:normal;word-spacing:normal;text-anchor:start;fill:none;stroke:#000000;stroke-linecap:butt;stroke-linejoin:miter;stroke-miterlimit:10.43299961;stroke-opacity:1;stroke-dasharray:none;stroke-dashoffset:0"><path
           d="m 478.19,431.11 0,0.31 -0.01,0.34 -0.02,0.36 -0.02,0.37 -0.03,0.39 -0.04,0.39 -0.04,0.41 -0.06,0.41 -0.07,0.42 -0.07,0.43 -0.09,0.42 -0.1,0.43 -0.12,0.42 -0.12,0.42 -0.14,0.41 -0.16,0.41 -0.17,0.4 -0.18,0.38 -0.2,0.37 -0.22,0.36 -0.23,0.34 -0.25,0.32 -0.28,0.3 -0.29,0.27 -0.31,0.25 -0.16,0.12 -0.17,0.1 -0.17,0.1 -0.18,0.1 -0.18,0.08 -0.19,0.08 -0.19,0.07 -0.2,0.06 -0.21,0.05 -0.21,0.05 -0.22,0.03 -0.22,0.02 -0.23,0.02 -0.23,0 -0.05,-1.09 c 2.44,0 2.73,-3.19 2.73,-6.03 0,-2.44 -0.39,-4.99 -1.59,-9.92 h -10.41 c 0.85,3.2 1.85,7.18 3.83,10.72 1.36,2.43 3.19,5.23 5.44,5.23 l 0.05,1.09 c -6.92,0 -14.6,-14.04 -14.6,-25.45 0,-4.69 1.44,-10.22 5.99,-10.22 v 1.1 c -1.66,0 -2.71,1.45 -2.71,6.07 0,2.1 0.3,4.99 1.6,9.86 h 10.37 c -0.54,-2.28 -1.59,-6.51 -3.5,-10.11 -1.73,-3.39 -3.62,-5.82 -5.76,-5.82 v -1.1 c 7.01,0 14.59,14.3 14.59,25.46 z"
           id="path3117"
           inkscape:connector-curvature="0"
           style="fill:#000000;stroke-width:0" /><path
           d="m 497.25,409.87 0.02,0.09 0.03,0.1 0.02,0.1 0.03,0.1 0.03,0.1 0.02,0.11 0.06,0.22 0.05,0.22 0.06,0.22 0.05,0.22 0.03,0.11 0.02,0.1 0.03,0.11 0.02,0.1 0.02,0.09 0.02,0.1 0.02,0.09 0.02,0.09 0.02,0.08 0.02,0.07 0.01,0.07 0.02,0.07 0.01,0.06 0.01,0.05 0.01,0.04 0,0.04 0,0.01 0,0.02 0.01,0.01 0,0.01 c 0,0.69 -0.55,1.11 -1.14,1.11 -0.68,0 -1.3,-0.42 -1.5,-1.02 -0.11,-0.26 -0.46,-1.73 -0.71,-2.61 -0.48,-1.98 -0.48,-2.04 -1,-4 -0.45,-1.92 -0.53,-2.2 -0.56,-3.2 0.14,-0.7 -0.14,-1.36 -0.98,-2.41 -0.44,-0.56 -1.14,-1.15 -2.33,-1.15 -1.36,0 -3.14,0.48 -3.14,3.2 0,1.78 0.98,4.36 1.67,6.14 0.59,1.53 0.73,1.84 0.73,2.44 0,1.67 -1.42,2.95 -3.31,2.95 -3.52,0 -5.08,-4.73 -5.08,-5.33 0,-0.45 0.49,-0.45 0.6,-0.45 0.48,0 0.51,0.17 0.62,0.56 0.88,2.89 2.38,4.25 3.77,4.25 0.59,0 0.86,-0.39 0.86,-1.22 0,-0.79 -0.32,-1.56 -0.49,-2.01 -1.98,-5.1 -1.98,-5.8 -1.98,-6.88 0,-4.11 3.73,-4.62 5.61,-4.62 0.67,0 2.37,0 3.93,2.33 0.8,-1.57 2.72,-2.33 4.85,-2.33 3.11,0 4.64,2.67 5.33,4.11 1.5,2.92 2.43,7.28 2.43,8.89 0,2.61 -1.48,2.75 -1.73,2.75 -0.91,0 -1.88,-0.96 -1.88,-1.86 0,-0.58 0.35,-0.86 0.58,-1.08 0.85,-0.69 1.3,-1.67 1.3,-2.78 0,-0.45 -1.47,-9.06 -5.89,-9.06 -2.83,0 -2.83,2.51 -2.83,3.11 0,0.93 0.14,1.5 0.64,3.48 z"
           id="path3119"
           inkscape:connector-curvature="0"
           style="fill:#000000;stroke-width:0" /><path
           d="m 523.38,412.07 -0.07,0.11 -0.07,0.11 -0.08,0.1 -0.08,0.1 -0.08,0.1 -0.08,0.1 -0.09,0.09 -0.09,0.1 -0.09,0.09 -0.09,0.08 -0.1,0.09 -0.1,0.08 -0.1,0.08 -0.11,0.08 -0.11,0.07 -0.11,0.08 -0.11,0.06 -0.12,0.07 -0.11,0.06 -0.13,0.05 -0.12,0.06 -0.13,0.05 -0.13,0.04 -0.13,0.04 -0.14,0.04 -0.14,0.03 -0.14,0.03 -0.14,0.02 -0.15,0.02 -0.15,0.01 -0.15,0.01 -0.16,0 v -0.97 c 2.44,0 3.12,-2.64 3.12,-3.03 0,-0.14 -0.08,-0.39 -0.12,-0.48 l -1.63,-6.52 c -0.24,-0.98 -1,-1.67 -1.77,-2.34 -0.31,-0.27 -1.72,-1.39 -3.22,-1.39 -1.28,0 -2.53,0.9 -2.53,3.37 0,1.86 1,5.69 1.81,7.08 1.59,2.8 3.38,3.31 4.34,3.31 v 0.97 c -4.45,0 -8.98,-4.91 -8.98,-9.92 0,-3.38 2.27,-5.78 5.27,-5.78 1.87,0 3.54,1.08 4.93,2.44 0.68,-2.1 2.69,-2.44 3.6,-2.44 1.25,0 2.12,0.76 2.75,1.84 0.76,1.36 1.22,3.35 1.22,3.49 0,0.45 -0.46,0.45 -0.55,0.45 -0.5,0 -0.53,-0.14 -0.77,-1.08 -0.42,-1.67 -1.09,-3.73 -2.54,-3.73 -0.91,0 -1.16,0.76 -1.16,1.7 0,0.59 0.28,1.86 0.53,2.77 0.24,0.93 0.6,2.35 0.77,3.12 l 0.68,2.66 c 0.22,0.9 0.63,2.54 0.63,2.72 0,0.76 -0.63,1.1 -1.17,1.1 -0.59,0 -1.41,-0.42 -1.61,-1.39 z"
           id="path3121"
           inkscape:connector-curvature="0"
           style="fill:#000000;stroke-width:0" /><path
           d="m 534.52,400.95 -0.01,-0.04 -0.01,-0.05 -0.02,-0.04 -0.01,-0.05 -0.02,-0.05 -0.01,-0.06 -0.02,-0.05 -0.01,-0.05 -0.03,-0.11 -0.03,-0.11 -0.02,-0.12 -0.03,-0.1 -0.01,-0.06 -0.02,-0.05 -0.01,-0.05 -0.01,-0.05 -0.01,-0.05 -0.01,-0.04 -0.01,-0.05 -0.01,-0.04 0,-0.03 -0.01,-0.04 -0.01,-0.03 0,-0.03 0,-0.02 -0.01,-0.02 0,-0.01 0,-0.01 0,-0.01 0,0 c 0,-0.77 0.62,-1.11 1.19,-1.11 0.62,0 1.17,0.45 1.36,0.76 0.17,0.32 0.45,1.43 0.62,2.16 0.17,0.66 0.55,2.27 0.77,3.14 0.2,0.77 0.42,1.53 0.59,2.33 0.38,1.44 0.45,1.7 1.45,3.14 0.99,1.39 2.63,3.2 5.24,3.2 2.01,0 2.05,-1.78 2.05,-2.44 0,-2.09 -1.49,-5.95 -2.05,-7.42 -0.39,-0.98 -0.53,-1.29 -0.53,-1.89 0,-1.84 1.54,-2.98 3.31,-2.98 3.48,0 5.02,4.79 5.02,5.33 0,0.45 -0.46,0.45 -0.55,0.45 -0.5,0 -0.53,-0.2 -0.67,-0.59 -0.8,-2.79 -2.3,-4.22 -3.69,-4.22 -0.74,0 -0.88,0.48 -0.88,1.22 0,0.79 0.18,1.25 0.8,2.82 0.42,1.08 1.86,4.77 1.86,6.72 0,3.39 -2.69,3.97 -4.53,3.97 -2.89,0 -4.84,-1.76 -5.89,-3.16 -0.25,2.4 -2.3,3.16 -3.74,3.16 -1.5,0 -2.29,-1.08 -2.75,-1.87 -0.76,-1.29 -1.25,-3.29 -1.25,-3.46 0,-0.45 0.49,-0.45 0.6,-0.45 0.48,0 0.51,0.11 0.76,1.05 0.52,2.06 1.19,3.76 2.55,3.76 0.91,0 1.14,-0.76 1.14,-1.7 0,-0.67 -0.31,-1.95 -0.56,-2.89 -0.24,-0.95 -0.58,-2.38 -0.77,-3.14 z"
           id="path3123"
           inkscape:connector-curvature="0"
           style="fill:#000000;stroke-width:0" /><path
           d="M 563.45,412.53 H 567 c 0.65,0 1.1,0 1.1,0.76 0,0.49 -0.45,0.49 -1.03,0.49 h -3.31 l 1.28,5.15 c 0.03,0.18 0.11,0.35 0.11,0.49 0,0.64 -0.48,1.12 -1.18,1.12 -0.88,0 -1.4,-0.59 -1.65,-1.5 -0.23,-0.87 0.22,0.8 -1.32,-5.26 h -3.55 c -0.66,0 -1.11,0 -1.11,-0.77 0,-0.48 0.41,-0.48 1.05,-0.48 h 3.29 l -2.04,-8.22 c -0.22,-0.88 -0.54,-2.13 -0.54,-2.58 0,-2.06 1.75,-3.31 3.74,-3.31 3.88,0 6.06,4.87 6.06,5.33 0,0.45 -0.45,0.45 -0.56,0.45 -0.41,0 -0.45,-0.08 -0.72,-0.66 -0.98,-2.2 -2.77,-4.15 -4.67,-4.15 -0.73,0 -1.22,0.45 -1.22,1.7 0,0.36 0.14,1.09 0.2,1.44 z"
           id="path3125"
           inkscape:connector-curvature="0"
           style="fill:#000000;stroke-width:0" /><path
           d="m 577.68,406.7 0.1,0 0.11,0 0.11,0 0.13,0 0.13,0.01 0.14,0 0.15,0.01 0.15,0 0.16,0.01 0.17,0.01 0.18,0.01 0.18,0.01 0.18,0.01 0.19,0.02 0.38,0.03 0.4,0.04 0.4,0.05 0.41,0.06 0.4,0.07 0.41,0.08 0.19,0.05 0.2,0.04 0.19,0.05 0.19,0.06 0.18,0.05 0.18,0.06 c 2.58,0.91 3.06,2.58 3.06,3.63 0,1.92 -1.92,3.06 -4.32,3.06 v -0.97 c 1.53,0 2.82,-0.76 2.82,-2.09 0,-3.38 -5.88,-3.38 -7.38,-3.38 h -1.71 c 1.42,5.05 5.3,5.47 6.27,5.47 v 0.97 c -4.18,0 -9.83,-3.2 -9.83,-9.16 0,-3.51 2.2,-6.54 6.28,-6.54 5.89,0 8.64,3.44 8.64,3.94 0,0.2 -0.31,0.59 -0.59,0.59 -0.21,0 -0.28,-0.08 -0.56,-0.36 -2.72,-3.2 -6.8,-3.2 -7.43,-3.2 -2.09,0 -3.48,1.39 -3.48,4.22 0,0.48 0,1.18 0.42,3.09 z"
           id="path3127"
           inkscape:connector-curvature="0"
           style="fill:#000000;stroke-width:0" /><path
           d="m 608.6,421.9 0,0.01 0.01,0 0,0 0,0.01 0,0 0.01,0.01 0,0.01 0,0 0,0.01 0.01,0.01 0,0.01 0.01,0.02 0,0.02 0.01,0.02 0,0.02 0.01,0.02 0.01,0.02 0,0.03 0.01,0.02 0.01,0.05 0,0.02 0.01,0.02 0,0.03 0.01,0.02 0,0.02 0.01,0.02 0,0.02 0.01,0.02 0,0.02 0,0.01 0,0.01 0.01,0.01 0,0 0,0.01 0,0 0,0.01 0,0 0,0.01 0,0 0,0 0,0.01 0,0 c 0,0.19 -0.14,0.5 -0.54,0.5 -0.71,0 -3.6,-0.28 -4.47,-0.36 -0.28,-0.03 -0.77,-0.06 -0.77,-0.8 0,-0.48 0.49,-0.48 0.91,-0.48 1.67,0 1.67,-0.25 1.67,-0.53 0,-0.24 -0.06,-0.46 -0.14,-0.77 l -1.99,-7.94 c -0.73,1.14 -1.92,2.05 -3.59,2.05 v -0.97 c 2.44,0 3.11,-2.64 3.11,-3.03 0,-0.14 -0.08,-0.39 -0.11,-0.48 l -1.64,-6.52 c -0.23,-0.98 -1,-1.67 -1.77,-2.34 -0.31,-0.27 -1.71,-1.39 -3.21,-1.39 -1.29,0 -2.54,0.9 -2.54,3.37 0,1.86 1,5.69 1.82,7.08 1.59,2.8 3.37,3.31 4.34,3.31 v 0.97 c -4.45,0 -8.98,-4.91 -8.98,-9.92 0,-3.38 2.26,-5.78 5.26,-5.78 1.88,0 3.55,1.08 4.94,2.44 0.67,-2.1 2.69,-2.44 3.59,-2.44 1.25,0 2.13,0.76 2.75,1.84 0.77,1.36 1.22,3.35 1.22,3.49 0,0.45 -0.45,0.45 -0.55,0.45 -0.5,0 -0.53,-0.14 -0.76,-1.08 -0.42,-1.67 -1.09,-3.73 -2.55,-3.73 -0.9,0 -1.15,0.76 -1.15,1.7 0,0.67 0.07,0.98 0.17,1.44 z"
           id="path3129"
           inkscape:connector-curvature="0"
           style="fill:#000000;stroke-width:0" /></g>    </g>
    <g
       id="g3203"
       transform="translate(564.31035,113.84266)">
      <g
         word-spacing="normal"
         letter-spacing="normal"
         font-size-adjust="none"
         font-stretch="normal"
         font-weight="normal"
         font-variant="normal"
         font-style="normal"
         stroke-miterlimit="10.433"
         xml:space="preserve"
         transform="matrix(1.0629921,0,0,-1.0629921,-186.02362,789.27165)"
         id="g3205"
         style="font-style:normal;font-variant:normal;font-weight:normal;font-stretch:normal;letter-spacing:normal;word-spacing:normal;text-anchor:start;fill:none;stroke:#000000;stroke-linecap:butt;stroke-linejoin:miter;stroke-miterlimit:10.43299961;stroke-opacity:1;stroke-dasharray:none;stroke-dashoffset:0"><path
           id="path3207"
           d="m 478.19,431.11 0,0.31 -0.01,0.34 -0.02,0.36 -0.02,0.37 -0.03,0.39 -0.04,0.39 -0.04,0.41 -0.06,0.41 -0.07,0.42 -0.07,0.43 -0.09,0.42 -0.1,0.43 -0.12,0.42 -0.12,0.42 -0.14,0.41 -0.16,0.41 -0.17,0.4 -0.18,0.38 -0.2,0.37 -0.22,0.36 -0.23,0.34 -0.25,0.32 -0.28,0.3 -0.29,0.27 -0.31,0.25 -0.16,0.12 -0.17,0.1 -0.17,0.1 -0.18,0.1 -0.18,0.08 -0.19,0.08 -0.19,0.07 -0.2,0.06 -0.21,0.05 -0.21,0.05 -0.22,0.03 -0.22,0.02 -0.23,0.02 -0.23,0 -0.05,-1.09 c 2.44,0 2.73,-3.19 2.73,-6.03 0,-2.44 -0.39,-4.99 -1.59,-9.92 h -10.41 c 0.85,3.2 1.85,7.18 3.83,10.72 1.36,2.43 3.19,5.23 5.44,5.23 l 0.05,1.09 c -6.92,0 -14.6,-14.04 -14.6,-25.45 0,-4.69 1.44,-10.22 5.99,-10.22 v 1.1 c -1.66,0 -2.71,1.45 -2.71,6.07 0,2.1 0.3,4.99 1.6,9.86 h 10.37 c -0.54,-2.28 -1.59,-6.51 -3.5,-10.11 -1.73,-3.39 -3.62,-5.82 -5.76,-5.82 v -1.1 c 7.01,0 14.59,14.3 14.59,25.46 z"
           inkscape:connector-curvature="0"
           style="fill:#000000;stroke-width:0" /><path
           id="path3209"
           d="m 493.62,412.07 -0.07,0.11 -0.07,0.11 -0.07,0.1 -0.08,0.1 -0.08,0.1 -0.09,0.1 -0.08,0.09 -0.09,0.1 -0.09,0.09 -0.1,0.08 -0.09,0.09 -0.1,0.08 -0.11,0.08 -0.1,0.08 -0.11,0.07 -0.11,0.08 -0.11,0.06 -0.12,0.07 -0.12,0.06 -0.12,0.05 -0.13,0.06 -0.12,0.05 -0.13,0.04 -0.14,0.04 -0.13,0.04 -0.14,0.03 -0.14,0.03 -0.14,0.02 -0.15,0.02 -0.15,0.01 -0.15,0.01 -0.16,0 v -0.97 c 2.44,0 3.11,-2.64 3.11,-3.03 0,-0.14 -0.08,-0.39 -0.11,-0.48 l -1.64,-6.52 c -0.23,-0.98 -1,-1.67 -1.77,-2.34 -0.31,-0.27 -1.71,-1.39 -3.21,-1.39 -1.29,0 -2.53,0.9 -2.53,3.37 0,1.86 1,5.69 1.81,7.08 1.59,2.8 3.37,3.31 4.34,3.31 v 0.97 c -4.45,0 -8.98,-4.91 -8.98,-9.92 0,-3.38 2.26,-5.78 5.26,-5.78 1.88,0 3.55,1.08 4.94,2.44 0.67,-2.1 2.69,-2.44 3.59,-2.44 1.25,0 2.13,0.76 2.75,1.84 0.77,1.36 1.22,3.35 1.22,3.49 0,0.45 -0.45,0.45 -0.54,0.45 -0.5,0 -0.54,-0.14 -0.77,-1.08 -0.42,-1.67 -1.09,-3.73 -2.55,-3.73 -0.9,0 -1.15,0.76 -1.15,1.7 0,0.59 0.28,1.86 0.53,2.77 0.23,0.93 0.59,2.35 0.76,3.12 l 0.69,2.66 c 0.22,0.9 0.63,2.54 0.63,2.72 0,0.76 -0.63,1.1 -1.18,1.1 -0.59,0 -1.4,-0.42 -1.61,-1.39 z"
           inkscape:connector-curvature="0"
           style="fill:#000000;stroke-width:0" /><path
           id="path3211"
           d="m 515.78,412.11 -0.11,-0.03 -0.11,-0.02 -0.11,-0.03 -0.1,-0.04 -0.1,-0.03 -0.1,-0.04 -0.09,-0.05 -0.09,-0.05 -0.08,-0.05 -0.08,-0.05 -0.07,-0.06 -0.07,-0.06 -0.07,-0.06 -0.06,-0.07 -0.06,-0.06 -0.06,-0.07 -0.05,-0.07 -0.05,-0.07 -0.04,-0.07 -0.05,-0.08 -0.03,-0.07 -0.04,-0.08 -0.03,-0.07 -0.03,-0.08 -0.02,-0.07 -0.02,-0.08 -0.02,-0.08 -0.01,-0.07 -0.01,-0.08 -0.01,-0.07 0,-0.08 -0.01,-0.07 c 0,-0.94 0.74,-1.28 1.36,-1.28 0.77,0 1.99,0.55 1.99,2.22 0,2.37 -2.72,3.03 -4.6,3.03 -5.23,0 -10.07,-4.8 -10.07,-9.64 0,-3 2.09,-6.06 6.45,-6.06 5.89,0 8.64,3.44 8.64,3.94 0,0.2 -0.31,0.59 -0.59,0.59 -0.21,0 -0.28,-0.08 -0.57,-0.36 -2.71,-3.2 -6.79,-3.2 -7.42,-3.2 -2.5,0 -3.62,1.7 -3.62,3.87 0,1 0.5,4.8 2.31,7.2 1.31,1.72 3.12,2.69 4.87,2.69 0.49,0 2.16,-0.06 3.03,-1.04 z"
           inkscape:connector-curvature="0"
           style="fill:#000000;stroke-width:0" /><path
           id="path3213"
           d="m 526.85,412.53 h 3.55 c 0.66,0 1.11,0 1.11,0.76 0,0.49 -0.45,0.49 -1.03,0.49 h -3.31 l 1.28,5.15 c 0.03,0.18 0.11,0.35 0.11,0.49 0,0.64 -0.49,1.12 -1.19,1.12 -0.87,0 -1.39,-0.59 -1.64,-1.5 -0.23,-0.87 0.22,0.8 -1.33,-5.26 h -3.55 c -0.65,0 -1.1,0 -1.1,-0.77 0,-0.48 0.4,-0.48 1.04,-0.48 h 3.3 l -2.05,-8.22 c -0.22,-0.88 -0.53,-2.13 -0.53,-2.58 0,-2.06 1.75,-3.31 3.74,-3.31 3.87,0 6.06,4.87 6.06,5.33 0,0.45 -0.46,0.45 -0.56,0.45 -0.41,0 -0.46,-0.08 -0.72,-0.66 -0.99,-2.2 -2.77,-4.15 -4.68,-4.15 -0.73,0 -1.21,0.45 -1.21,1.7 0,0.36 0.14,1.09 0.2,1.44 z"
           inkscape:connector-curvature="0"
           style="fill:#000000;stroke-width:0" /><path
           id="path3215"
           d="m 548.01,404.4 -0.01,-0.06 -0.02,-0.07 -0.02,-0.08 -0.02,-0.07 -0.02,-0.08 -0.02,-0.08 -0.02,-0.08 -0.02,-0.08 -0.04,-0.17 -0.04,-0.17 -0.04,-0.17 -0.02,-0.08 -0.02,-0.08 -0.02,-0.08 -0.02,-0.07 -0.02,-0.07 -0.02,-0.07 -0.02,-0.07 -0.02,-0.06 -0.01,-0.06 -0.02,-0.06 -0.01,-0.05 -0.02,-0.04 -0.01,-0.04 -0.01,-0.04 -0.01,-0.01 0,-0.01 -0.01,-0.01 0,-0.01 0,-0.01 -0.01,-0.01 0,0 0,0 c -0.68,-1.08 -2.07,-2.97 -4.22,-2.97 -2.41,0 -2.41,2.26 -2.41,2.89 0,2.06 0.97,4.53 1.95,7.08 0.28,0.7 0.49,1.21 0.49,1.78 0,1.81 -1.53,2.98 -3.31,2.98 -3.49,0 -5.05,-4.76 -5.05,-5.33 0,-0.45 0.48,-0.45 0.59,-0.45 0.49,0 0.52,0.17 0.63,0.56 0.83,2.86 2.37,4.25 3.71,4.25 0.6,0 0.88,-0.39 0.88,-1.22 0,-0.79 -0.28,-1.53 -0.63,-2.32 -1.87,-4.82 -1.87,-5.83 -1.87,-6.77 0,-0.59 0,-2.2 1.28,-3.31 1.02,-0.83 2.38,-1.11 3.59,-1.11 2.19,0 3.38,1.19 4.54,2.29 0.76,-2.23 3.09,-2.29 3.51,-2.29 1.19,0 2.1,0.69 2.75,1.84 0.77,1.36 1.25,3.38 1.25,3.49 0,0.45 -0.48,0.45 -0.58,0.45 -0.5,0 -0.53,-0.14 -0.78,-1.08 -0.4,-1.64 -1.07,-3.73 -2.53,-3.73 -0.91,0 -1.16,0.79 -1.16,1.7 0,0.59 0.29,1.86 0.54,2.77 0.23,0.93 0.58,2.35 0.76,3.12 l 0.8,3.11 c 0.2,0.87 0.59,2.41 0.59,2.58 0,0.69 -0.56,1.11 -1.15,1.11 -1.29,0 -1.54,-1.02 -1.82,-2.13 z"
           inkscape:connector-curvature="0"
           style="fill:#000000;stroke-width:0" /><path
           id="path3217"
           d="m 571.5,412.07 -0.07,0.11 -0.07,0.11 -0.08,0.1 -0.08,0.1 -0.08,0.1 -0.08,0.1 -0.09,0.09 -0.09,0.1 -0.09,0.09 -0.09,0.08 -0.1,0.09 -0.1,0.08 -0.1,0.08 -0.11,0.08 -0.1,0.07 -0.12,0.08 -0.11,0.06 -0.11,0.07 -0.12,0.06 -0.13,0.05 -0.12,0.06 -0.13,0.05 -0.13,0.04 -0.13,0.04 -0.14,0.04 -0.13,0.03 -0.15,0.03 -0.14,0.02 -0.15,0.02 -0.15,0.01 -0.15,0.01 -0.15,0 v -0.97 c 2.43,0 3.11,-2.64 3.11,-3.03 0,-0.14 -0.08,-0.39 -0.11,-0.48 l -1.64,-6.52 c -0.24,-0.98 -1,-1.67 -1.77,-2.34 -0.31,-0.27 -1.72,-1.39 -3.22,-1.39 -1.28,0 -2.53,0.9 -2.53,3.37 0,1.86 1,5.69 1.81,7.08 1.6,2.8 3.38,3.31 4.35,3.31 v 0.97 c -4.46,0 -8.99,-4.91 -8.99,-9.92 0,-3.38 2.27,-5.78 5.27,-5.78 1.87,0 3.54,1.08 4.93,2.44 0.68,-2.1 2.69,-2.44 3.6,-2.44 1.25,0 2.12,0.76 2.75,1.84 0.76,1.36 1.22,3.35 1.22,3.49 0,0.45 -0.46,0.45 -0.55,0.45 -0.5,0 -0.53,-0.14 -0.76,-1.08 -0.43,-1.67 -1.1,-3.73 -2.55,-3.73 -0.91,0 -1.16,0.76 -1.16,1.7 0,0.59 0.28,1.86 0.53,2.77 0.24,0.93 0.6,2.35 0.77,3.12 l 0.69,2.66 c 0.22,0.9 0.62,2.54 0.62,2.72 0,0.76 -0.62,1.1 -1.17,1.1 -0.59,0 -1.41,-0.42 -1.61,-1.39 z"
           inkscape:connector-curvature="0"
           style="fill:#000000;stroke-width:0" /><path
           id="path3219"
           d="m 588.22,421.9 0,0.01 0.01,0 0,0 0,0.01 0,0 0,0.01 0.01,0.01 0,0 0,0.01 0,0.01 0.01,0.01 0,0.02 0.01,0.02 0,0.02 0.01,0.02 0.01,0.02 0,0.02 0.01,0.03 0,0.02 0.01,0.05 0.02,0.04 0,0.03 0.01,0.02 0,0.02 0.01,0.02 0,0.02 0.01,0.02 0,0.02 0,0.01 0,0.01 0.01,0.01 0,0 0,0.01 0,0 0,0.01 0,0 0,0.01 0,0 0,0 0,0.01 0,0 c 0,0.19 -0.14,0.5 -0.56,0.5 -0.69,0 -3.59,-0.28 -4.45,-0.36 -0.25,-0.03 -0.74,-0.06 -0.74,-0.8 0,-0.48 0.49,-0.48 0.88,-0.48 1.67,0 1.67,-0.25 1.67,-0.53 0,-0.24 -0.08,-0.46 -0.14,-0.77 l -4.33,-17.2 c -0.11,-0.36 -0.14,-0.74 -0.14,-1.08 0,-2.23 1.98,-3.31 3.66,-3.31 0.84,0 1.89,0.28 2.79,1.84 0.74,1.28 1.22,3.35 1.22,3.49 0,0.45 -0.45,0.45 -0.56,0.45 -0.48,0 -0.55,-0.2 -0.69,-0.84 -0.45,-1.74 -1.12,-3.97 -2.62,-3.97 -0.94,0 -1.17,0.87 -1.17,1.7 0,0.39 0.09,1.05 0.2,1.44 z"
           inkscape:connector-curvature="0"
           style="fill:#000000;stroke-width:0" /></g>    </g>
    <path
       sodipodi:type="arc"
       style="fill:none;stroke:#000000;stroke-width:1;stroke-linecap:square;stroke-linejoin:round;stroke-miterlimit:4;stroke-opacity:1;stroke-dasharray:none;stroke-dashoffset:0"
       id="path3272"
       sodipodi:cx="311.7085"
       sodipodi:cy="515.4809"
       sodipodi:rx="44.005802"
       sodipodi:ry="44.005802"
       d="m 355.7143,515.4809 c 0,24.30373 -19.70207,44.0058 -44.0058,44.0058 -24.30374,0 -44.00581,-19.70207 -44.00581,-44.0058 0,-24.30374 19.70207,-44.00581 44.00581,-44.00581 24.30373,0 44.0058,19.70207 44.0058,44.00581 z"
       transform="translate(-250,0)" />
    <text
       xml:space="preserve"
       style="font-size:93.73487091px;font-style:normal;font-weight:normal;line-height:125%;letter-spacing:0px;word-spacing:0px;fill:#000000;fill-opacity:1;stroke:none;font-family:Sans"
       x="44.79686"
       y="571.15729"
       id="text3278"
       sodipodi:linespacing="125%"><tspan
         sodipodi:role="line"
         x="44.79686"
         y="571.15729"
         id="tspan3282">-</tspan></text>
    <text
       xml:space="preserve"
       style="font-size:40px;font-style:normal;font-weight:normal;line-height:125%;letter-spacing:0px;word-spacing:0px;fill:#000000;fill-opacity:1;stroke:none;font-family:Sans"
       x="20.950684"
       y="528.01996"
       id="text3274"
       sodipodi:linespacing="125%"><tspan
         sodipodi:role="line"
         id="tspan3276"
         x="20.950684"
         y="528.01996">+</tspan></text>
    <path
       style="fill:none;stroke:#000000;stroke-width:1px;stroke-linecap:butt;stroke-linejoin:miter;stroke-opacity:1;marker-end:url(#Arrow1Lend)"
       d="m 105.34597,515.4809 150.59163,0"
       id="path3328"
       inkscape:connector-curvature="0" />
    <path
       inkscape:connector-curvature="0"
       id="path4542"
       d="m 365.29028,515.4809 162.07591,0"
       style="fill:none;stroke:#000000;stroke-width:0.99999994px;stroke-linecap:butt;stroke-linejoin:miter;stroke-opacity:1;marker-end:url(#Arrow1Lend)" />
    <path
       style="fill:none;stroke:#000000;stroke-width:1px;stroke-linecap:butt;stroke-linejoin:miter;stroke-opacity:1;marker-end:url(#Arrow1Lend)"
       d="m 743.97401,515.4809 274.82079,0"
       id="path4544"
       inkscape:connector-curvature="0" />
    <path
       style="fill:none;stroke:#000000;stroke-width:1px;stroke-linecap:butt;stroke-linejoin:miter;stroke-opacity:1;marker-end:url(#Arrow1Lend)"
       d="m 61.708496,682.74162 0,-122.48011"
       id="path4544-4"
       inkscape:connector-curvature="0" />
    <path
       style="fill:none;stroke:#000000;stroke-width:0.99999994px;stroke-linecap:butt;stroke-linejoin:miter;stroke-opacity:1;marker-end:none"
       d="m 828.57142,515.19605 0,167.67352"
       id="path3328-7"
       inkscape:connector-curvature="0" />
    <path
       inkscape:connector-curvature="0"
       id="path4605"
       d="m -110.80281,515.4809 126.740432,0"
       style="fill:none;stroke:#000000;stroke-width:1px;stroke-linecap:butt;stroke-linejoin:miter;stroke-opacity:1;marker-end:url(#Arrow1Lend)" />
    <path
       style="fill:none;stroke:#000000;stroke-width:1px;stroke-linecap:butt;stroke-linejoin:miter;stroke-opacity:1;marker-end:none"
       d="m 61.215246,682.36218 767.327194,0"
       id="path3328-8-6"
       inkscape:connector-curvature="0" />
  </g>
</svg>
