<?xml version="1.0" encoding="UTF-8" standalone="no"?>
<!-- Created with Inkscape (http://www.inkscape.org/) -->

<svg
   xmlns:ns0="http://www.iki.fi/pav/software/textext/"
   xmlns:dc="http://purl.org/dc/elements/1.1/"
   xmlns:cc="http://creativecommons.org/ns#"
   xmlns:rdf="http://www.w3.org/1999/02/22-rdf-syntax-ns#"
   xmlns:svg="http://www.w3.org/2000/svg"
   xmlns="http://www.w3.org/2000/svg"
   xmlns:sodipodi="http://sodipodi.sourceforge.net/DTD/sodipodi-0.dtd"
   xmlns:inkscape="http://www.inkscape.org/namespaces/inkscape"
   width="1227.9399"
   height="248.87494"
   id="svg2"
   version="1.1"
   inkscape:version="0.91 r13725"
   sodipodi:docname="angularController.svg">
  <sodipodi:namedview
     id="base"
     pagecolor="#ffffff"
     bordercolor="#666666"
     borderopacity="1.0"
     inkscape:pageopacity="0.0"
     inkscape:pageshadow="2"
     inkscape:zoom="0.7"
     inkscape:cx="555.16628"
     inkscape:cy="232.46681"
     inkscape:document-units="px"
     inkscape:current-layer="layer1"
     showgrid="false"
     inkscape:window-width="1920"
     inkscape:window-height="1016"
     inkscape:window-x="0"
     inkscape:window-y="27"
     inkscape:window-maximized="1"
     inkscape:snap-object-midpoints="true"
     inkscape:snap-center="true"
     fit-margin-top="0"
     fit-margin-left="0"
     fit-margin-right="0"
     fit-margin-bottom="0" />
  <defs
     id="defs4">
    <marker
       style="overflow:visible"
       id="Arrow1Lend"
       refX="0"
       refY="0"
       orient="auto"
       inkscape:stockid="Arrow1Lend">
      <path
         inkscape:connector-curvature="0"
         transform="matrix(-0.8,0,0,-0.8,-10,0)"
         style="fill-rule:evenodd;stroke:#000000;stroke-width:1pt"
         d="M 0,0 5,-5 -12.5,0 5,5 0,0 Z"
         id="path4105" />
    </marker>
    <marker
       style="overflow:visible"
       id="Arrow1Lend-0"
       refX="0"
       refY="0"
       orient="auto"
       inkscape:stockid="Arrow1Lend">
      <path
         transform="matrix(-0.8,0,0,-0.8,-10,0)"
         style="fill-rule:evenodd;stroke:#000000;stroke-width:1pt"
         d="M 0,0 5,-5 -12.5,0 5,5 0,0 Z"
         id="path4105-2"
         inkscape:connector-curvature="0" />
    </marker>
    <marker
       style="overflow:visible"
       id="Arrow1Lend-5"
       refX="0"
       refY="0"
       orient="auto"
       inkscape:stockid="Arrow1Lend">
      <path
         transform="matrix(-0.8,0,0,-0.8,-10,0)"
         style="fill-rule:evenodd;stroke:#000000;stroke-width:1pt"
         d="M 0,0 5,-5 -12.5,0 5,5 0,0 Z"
         id="path4105-6"
         inkscape:connector-curvature="0" />
    </marker>
    <marker
       style="overflow:visible"
       id="Arrow1Lend-4"
       refX="0"
       refY="0"
       orient="auto"
       inkscape:stockid="Arrow1Lend">
      <path
         transform="matrix(-0.8,0,0,-0.8,-10,0)"
         style="fill-rule:evenodd;stroke:#000000;stroke-width:1pt"
         d="M 0,0 5,-5 -12.5,0 5,5 0,0 Z"
         id="path4105-61"
         inkscape:connector-curvature="0" />
    </marker>
  </defs>
  <metadata
     id="metadata7">
    <rdf:RDF>
      <cc:Work
         rdf:about="">
        <dc:format>image/svg+xml</dc:format>
        <dc:type
           rdf:resource="http://purl.org/dc/dcmitype/StillImage" />
        <dc:title></dc:title>
      </cc:Work>
    </rdf:RDF>
  </metadata>
  <g
     transform="translate(207.3251,-433.99463)"
     id="layer1"
     inkscape:groupmode="layer"
     inkscape:label="Layer 1">
    <rect
       y="450.93362"
       x="529.41138"
       height="130.00002"
       width="214.03435"
       id="rect2987"
       style="fill:none;stroke:#000000;stroke-width:0.99999994;stroke-linecap:square;stroke-linejoin:round;stroke-miterlimit:4;stroke-dasharray:none;stroke-dashoffset:0;stroke-opacity:1" />
    <g
       transform="translate(15.99419,13.833011)"
       id="g3265">
      <rect
         style="fill:none;stroke:#000000;stroke-width:1;stroke-linecap:square;stroke-linejoin:round;stroke-miterlimit:4;stroke-dasharray:none;stroke-dashoffset:0;stroke-opacity:1"
         id="rect2985"
         width="107.55983"
         height="98.571434"
         x="241.93439"
         y="452.36215" />
      <g
         id="g2996"
         transform="translate(-36.305971,154.70318)">
        <g
           id="content"
           transform="matrix(1.0629921,0,0,-1.0629921,-186.02362,789.27165)"
           xml:space="preserve"
           stroke-miterlimit="10.433"
           font-style="normal"
           font-variant="normal"
           font-weight="normal"
           font-stretch="normal"
           font-size-adjust="none"
           letter-spacing="normal"
           word-spacing="normal"
           style="font-style:normal;font-variant:normal;font-weight:normal;font-stretch:normal;letter-spacing:normal;word-spacing:normal;text-anchor:start;fill:none;stroke:#000000;stroke-linecap:butt;stroke-linejoin:miter;stroke-miterlimit:10.43299961;stroke-dasharray:none;stroke-dashoffset:0;stroke-opacity:1"><path
             d="m 480.88,426.32 -0.01,0.02 0,0.02 -0.01,0.01 -0.01,0.02 0,0.02 -0.01,0.02 -0.01,0.03 -0.01,0.02 -0.01,0.02 -0.01,0.02 -0.01,0.03 -0.01,0.02 -0.02,0.05 -0.02,0.06 -0.02,0.05 -0.02,0.05 -0.01,0.02 -0.01,0.03 -0.01,0.02 -0.01,0.02 -0.01,0.03 0,0.02 -0.01,0.02 0,0.02 -0.01,0.02 0,0.02 0,0.01 0,0.02 c 0,0.04 0.89,0.75 1.45,1.14 l 8.72,6.73 c 4.67,3.44 6.63,3.63 8.11,3.78 0.41,0.05 0.91,0.1 0.91,1 0,0.19 -0.16,0.55 -0.55,0.55 -1.11,0 -2.34,-0.16 -3.55,-0.16 -1.79,0 -3.73,0.16 -5.53,0.16 -0.34,0 -0.94,0 -0.94,-1 0,-0.34 0.25,-0.5 0.6,-0.55 1.09,-0.09 1.54,-0.34 1.54,-1.04 0,-0.89 -1.5,-2.05 -1.79,-2.3 l -19.44,-14.94 4,15.99 c 0.44,1.79 0.55,2.29 4.17,2.29 1.25,0 1.71,0 1.71,1 0,0.44 -0.41,0.55 -0.71,0.55 -1.39,0 -4.98,-0.16 -6.37,-0.16 -1.44,0 -4.99,0.16 -6.42,0.16 -0.36,0 -1,0 -1,-0.95 0,-0.6 0.45,-0.6 1.43,-0.6 0.66,0 1.55,-0.04 2.14,-0.09 0.8,-0.11 1.11,-0.25 1.11,-0.8 0,-0.2 -0.06,-0.36 -0.2,-0.95 l -6.67,-26.75 c -0.5,-1.95 -0.61,-2.34 -4.55,-2.34 -0.84,0 -1.39,0 -1.39,-0.96 0,-0.59 0.59,-0.59 0.75,-0.59 1.39,0 4.94,0.16 6.33,0.16 1.05,0 2.14,-0.07 3.19,-0.07 1.09,0 2.18,-0.09 3.23,-0.09 0.36,0 1,0 1,1 0,0.55 -0.45,0.55 -1.39,0.55 -1.84,0 -3.23,0 -3.23,0.89 0,0.36 0.29,1.45 0.43,2.2 0.71,2.58 1.35,5.22 2,7.81 l 7.42,5.78 5.79,-13.4 c 0.59,-1.35 0.59,-1.44 0.59,-1.74 0,-1.5 -2.14,-1.54 -2.59,-1.54 -0.55,0 -1.1,0 -1.1,-1 0,-0.55 0.6,-0.55 0.71,-0.55 1.98,0 4.07,0.16 6.07,0.16 1.1,0 3.78,-0.16 4.88,-0.16 0.25,0 0.9,0 0.9,1 0,0.55 -0.56,0.55 -1,0.55 -2.04,0.04 -2.68,0.5 -3.43,2.23 z"
             id="path2999"
             inkscape:connector-curvature="0"
             style="fill:#000000;stroke-width:0" /><path
             d="m 500.49,394.51 -0.02,-0.09 -0.02,-0.08 -0.02,-0.09 -0.03,-0.07 -0.02,-0.08 -0.02,-0.07 -0.02,-0.07 -0.02,-0.06 -0.03,-0.06 -0.02,-0.05 -0.03,-0.06 -0.03,-0.05 -0.03,-0.04 -0.03,-0.05 -0.04,-0.04 -0.04,-0.03 -0.04,-0.04 -0.05,-0.03 -0.05,-0.03 -0.06,-0.02 -0.06,-0.03 -0.06,-0.02 -0.07,-0.01 -0.07,-0.02 -0.09,-0.02 -0.04,0 -0.04,-0.01 -0.05,0 -0.04,-0.01 -0.05,0 -0.05,0 -0.05,-0.01 -0.06,0 -0.05,0 -0.06,0 -0.06,-0.01 -0.06,0 -0.06,0 -0.06,0 c -0.46,0 -0.94,0 -0.94,-0.73 0,-0.39 0.31,-0.53 0.48,-0.53 0.91,0 2.06,0.14 3,0.14 1.19,0 2.5,-0.14 3.66,-0.14 0.31,0 0.7,0.11 0.7,0.76 0,0.5 -0.5,0.5 -0.9,0.5 -0.79,0 -1.72,0 -1.72,0.41 0,0.19 0.25,1.09 0.39,1.61 0.42,1.84 0.9,3.73 1.28,5.18 0.42,-0.68 1.5,-2.04 3.59,-2.04 l 0,0.97 c -2.47,0 -3.09,2.68 -3.09,3.03 0,0.14 0.06,0.39 0.09,0.53 l 1.75,7 c 2.02,2.69 3.77,3.2 4.88,3.2 1.36,0 2.54,-1.01 2.54,-3.37 0,-1.44 -0.76,-4.99 -1.81,-7.02 -0.87,-1.7 -2.58,-3.37 -4.36,-3.37 l 0,-0.97 c 4.25,0 8.95,4.7 8.95,9.89 0,4.08 -2.82,5.81 -5.21,5.81 -2.18,0 -4.02,-1.45 -4.96,-2.44 -0.59,1.99 -2.54,2.44 -3.59,2.44 -1.36,0 -2.19,-0.91 -2.75,-1.84 -0.7,-1.19 -1.25,-3.27 -1.25,-3.49 0,-0.45 0.48,-0.45 0.59,-0.45 0.49,0 0.52,0.11 0.77,1.05 0.51,2.03 1.19,3.76 2.55,3.76 0.9,0 1.14,-0.76 1.14,-1.7 0,-0.39 -0.07,-0.84 -0.11,-1.05 z"
             id="path3001"
             inkscape:connector-curvature="0"
             style="fill:#000000;stroke-width:0" /></g>      </g>
    </g>
    <g
       transform="translate(242.82385,168.21296)"
       id="g3023">
      <g
         style="font-style:normal;font-variant:normal;font-weight:normal;font-stretch:normal;letter-spacing:normal;word-spacing:normal;text-anchor:start;fill:none;fill-opacity:1;fill-rule:evenodd;stroke:#000000;stroke-width:0.18923768;stroke-linecap:butt;stroke-linejoin:miter;stroke-miterlimit:10.43299961;stroke-dasharray:none;stroke-dashoffset:0;stroke-opacity:1"
         id="g5161"
         transform="matrix(5.2843593,0,0,-5.2843593,-885.76168,4097.5829)"
         xml:space="preserve"
         stroke-miterlimit="10.433"
         font-style="normal"
         font-variant="normal"
         font-weight="normal"
         font-stretch="normal"
         font-size-adjust="none"
         letter-spacing="normal"
         word-spacing="normal"
         ns0:text="$\\frac{K_{steering}}{\\left(\\lambda \\cdot s + 1\\right) \\cdot s}$"
         ns0:preamble=""><path
           style="fill:#000000;stroke-width:0"
           inkscape:connector-curvature="0"
           d="m 228.61,714.97 0,0.01 0,0 -0.01,0.01 0,0 0,0.01 0,0 0,0 -0.01,0.01 0,0 0,0.01 0,0 0,0 -0.01,0.01 0,0 0,0 0,0 0,0.01 0,0 0,0 0,0 -0.01,0 0,0.01 0,0 0,0 0,0 0,0 0,0 0,0 0,0 0,0.01 0,0 0,0 c 0,0.01 0.01,0.02 0.17,0.13 l 0.7,0.49 c 0.92,0.65 1.35,0.96 1.85,1 0.07,0 0.16,0.01 0.16,0.15 0,0.06 -0.05,0.09 -0.09,0.09 -0.15,0 -0.33,-0.02 -0.48,-0.02 -0.19,0 -0.66,0.03 -0.85,0.03 -0.04,0 -0.14,0 -0.14,-0.16 0,0 0,-0.09 0.1,-0.09 0.08,-0.01 0.17,-0.02 0.17,-0.1 0,-0.13 -0.21,-0.28 -0.3,-0.34 l -2.91,-2.04 0.55,2.19 c 0.07,0.23 0.07,0.29 0.62,0.29 0.11,0 0.21,0 0.21,0.14 0,0.07 -0.05,0.11 -0.12,0.11 -0.2,0 -0.71,-0.03 -0.91,-0.03 -0.12,0 -0.36,0 -0.48,0.01 -0.14,0 -0.31,0.02 -0.44,0.02 -0.04,0 -0.14,0 -0.14,-0.16 0,-0.09 0.07,-0.09 0.23,-0.09 0.11,0 0.14,0 0.26,-0.02 0.14,-0.01 0.15,-0.02 0.15,-0.09 0,-0.02 0,-0.05 -0.02,-0.16 l -0.93,-3.69 c -0.05,-0.24 -0.07,-0.29 -0.61,-0.29 -0.13,0 -0.21,0 -0.21,-0.15 0,-0.01 0,-0.1 0.11,-0.1 0.2,0 0.7,0.03 0.9,0.03 0.12,0 0.37,0 0.49,-0.01 0.13,-0.01 0.31,-0.02 0.44,-0.02 0.04,0 0.15,0 0.15,0.15 0,0.1 -0.09,0.1 -0.22,0.1 -0.01,0 -0.14,0 -0.27,0.01 -0.16,0.02 -0.16,0.04 -0.16,0.11 0,0.05 0.07,0.31 0.33,1.33 l 1.15,0.82 1.01,-1.96 c 0.05,-0.09 0.05,-0.1 0.05,-0.13 0,-0.16 -0.19,-0.18 -0.32,-0.18 -0.08,0 -0.18,0 -0.18,-0.15 0,-0.01 0.01,-0.1 0.12,-0.1 0.19,0 0.7,0.03 0.89,0.03 0.21,0 0.49,-0.03 0.68,-0.03 0.09,0 0.14,0.05 0.14,0.14 0,0.11 -0.09,0.11 -0.16,0.11 -0.12,0 -0.34,0 -0.46,0.23 z"
           id="path5163" /><path
           style="fill:#000000;stroke-width:0"
           inkscape:connector-curvature="0"
           d="m 233.84,713.06 0,0 -0.01,-0.01 -0.01,0 -0.01,0 0,0 -0.01,-0.01 -0.01,0 -0.02,-0.01 -0.01,-0.01 -0.01,-0.01 -0.01,0 -0.01,-0.01 -0.01,-0.01 -0.01,-0.01 -0.01,-0.01 0,-0.01 -0.01,-0.01 -0.01,-0.01 0,0 -0.01,-0.01 0,-0.01 0,-0.01 -0.01,-0.01 0,-0.01 0,-0.01 -0.01,-0.01 0,-0.01 0,0 0,-0.01 0,-0.01 0,-0.01 0,0 0,-0.01 0,0 0,-0.01 c 0,-0.12 0.1,-0.18 0.18,-0.18 0.06,0 0.27,0.05 0.27,0.31 0,0.33 -0.39,0.44 -0.77,0.44 -0.84,0 -1,-0.51 -1,-0.69 0,-0.18 0.11,-0.29 0.2,-0.36 0.13,-0.1 0.28,-0.11 0.55,-0.16 0.31,-0.05 0.66,-0.1 0.66,-0.36 0,0 0,-0.51 -0.92,-0.51 -0.19,0 -0.49,0.01 -0.65,0.17 0.18,0.04 0.26,0.18 0.26,0.3 0,0.14 -0.11,0.2 -0.22,0.2 -0.17,0 -0.32,-0.13 -0.32,-0.36 0,-0.48 0.78,-0.48 0.92,-0.48 1.02,0 1.2,0.58 1.2,0.79 0,0.44 -0.55,0.53 -0.81,0.57 -0.35,0.06 -0.6,0.1 -0.6,0.3 0,0.01 0,0.42 0.72,0.42 0.13,0 0.39,-0.01 0.52,-0.15 z"
           id="path5165" /><path
           style="fill:#000000;stroke-width:0"
           inkscape:connector-curvature="0"
           d="m 236.22,713.1 0.59,0 c 0.1,0 0.11,0 0.13,0.02 0.03,0.02 0.04,0.09 0.04,0.12 0,0.08 -0.07,0.08 -0.16,0.08 l -0.54,0 0.1,0.41 c 0.03,0.13 0.09,0.36 0.09,0.39 0,0.08 -0.06,0.17 -0.18,0.17 -0.09,0 -0.21,-0.05 -0.25,-0.19 -0.02,-0.08 0.04,0.15 -0.2,-0.78 l -0.59,0 c -0.1,0 -0.17,0 -0.17,-0.14 0,-0.08 0.07,-0.08 0.16,-0.08 l 0.55,0 -0.29,-1.17 c -0.03,-0.11 -0.07,-0.26 -0.07,-0.32 0,-0.28 0.27,-0.48 0.61,-0.48 0.61,0 0.97,0.67 0.97,0.77 0,0.07 -0.08,0.07 -0.1,0.07 -0.08,0 -0.09,-0.02 -0.12,-0.09 -0.16,-0.35 -0.47,-0.58 -0.73,-0.58 -0.16,0 -0.21,0.11 -0.21,0.26 0,0.08 0.01,0.09 0.02,0.14 z"
           id="path5167" /><path
           style="fill:#000000;stroke-width:0"
           inkscape:connector-curvature="0"
           d="m 238.89,712.3 0.04,0 0.05,0 0.06,0 0.05,0 0.05,0.01 0.06,0 0.06,0 0.06,0.01 0.05,0 0.06,0.01 0.06,0.01 0.06,0.01 0.05,0.01 0.06,0.01 0.06,0.02 0.05,0.01 0.05,0.02 0.05,0.02 0.05,0.02 0.05,0.02 0.05,0.02 0.04,0.03 0.04,0.03 0.03,0.03 0.03,0.03 0.03,0.04 0.02,0.02 0.01,0.02 0.01,0.02 0.01,0.02 0.01,0.02 0.01,0.02 0,0.03 0.01,0.02 0,0.02 0.01,0.03 0,0.02 0,0.03 c 0,0.25 -0.26,0.45 -0.72,0.45 l 0,-0.17 c 0.25,0 0.46,-0.1 0.46,-0.29 0,-0.45 -0.92,-0.45 -1.16,-0.45 l -0.29,0 c 0.23,0.69 0.84,0.74 0.99,0.74 l 0,0.17 c -0.67,0 -1.54,-0.46 -1.54,-1.28 0,-0.45 0.3,-0.97 1.05,-0.97 0.1,0 0.5,0 0.83,0.13 0.33,0.13 0.53,0.35 0.53,0.41 0,0.04 -0.06,0.11 -0.11,0.11 -0.02,0 -0.03,0 -0.11,-0.08 -0.24,-0.28 -0.68,-0.4 -1.13,-0.4 -0.41,0 -0.6,0.25 -0.6,0.62 0,0.05 0,0.18 0.05,0.38 z"
           id="path5169" /><path
           style="fill:#000000;stroke-width:0"
           inkscape:connector-curvature="0"
           d="m 242.26,712.3 0.05,0 0.05,0 0.05,0 0.05,0 0.06,0.01 0.05,0 0.06,0 0.06,0.01 0.06,0 0.05,0.01 0.06,0.01 0.06,0.01 0.06,0.01 0.05,0.01 0.06,0.02 0.05,0.01 0.06,0.02 0.05,0.02 0.05,0.02 0.04,0.02 0.05,0.02 0.04,0.03 0.04,0.03 0.03,0.03 0.04,0.03 0.03,0.04 0.01,0.02 0.01,0.02 0.01,0.02 0.01,0.02 0.01,0.02 0.01,0.02 0.01,0.03 0,0.02 0.01,0.02 0,0.03 0,0.02 0,0.03 c 0,0.25 -0.26,0.45 -0.72,0.45 l 0,-0.17 c 0.25,0 0.47,-0.1 0.47,-0.29 0,-0.45 -0.93,-0.45 -1.17,-0.45 l -0.28,0 c 0.22,0.69 0.83,0.74 0.98,0.74 l 0,0.17 c -0.67,0 -1.53,-0.46 -1.53,-1.28 0,-0.45 0.29,-0.97 1.05,-0.97 0.09,0 0.49,0 0.82,0.13 0.34,0.13 0.53,0.35 0.53,0.41 0,0.04 -0.06,0.11 -0.1,0.11 -0.03,0 -0.03,0 -0.11,-0.08 -0.25,-0.28 -0.69,-0.4 -1.14,-0.4 -0.41,0 -0.6,0.25 -0.6,0.62 0,0.05 0,0.18 0.05,0.38 z"
           id="path5171" /><path
           style="fill:#000000;stroke-width:0"
           inkscape:connector-curvature="0"
           d="m 245.7,712 0,0 0,0.01 0,0.01 0,0.01 0,0.01 0.01,0.01 0,0.01 0,0.01 0,0.01 0.01,0.01 0,0.01 0,0.02 0.01,0.02 0.01,0.03 0,0.02 0.01,0.02 0,0.02 0,0.01 0.01,0.01 0,0.01 0,0.01 0,0.01 0.01,0.01 0,0.01 0,0.01 0,0.01 0,0.01 0,0 c 0.02,0.08 0.04,0.16 0.06,0.22 0.02,0.09 0.18,0.35 0.35,0.48 0.17,0.14 0.33,0.18 0.5,0.18 0.06,0 0.3,0 0.46,-0.09 -0.22,-0.07 -0.22,-0.28 -0.22,-0.28 0,-0.09 0.06,-0.21 0.23,-0.21 0.14,0 0.31,0.12 0.31,0.34 0,0.37 -0.53,0.41 -0.77,0.41 -0.12,0 -0.46,0 -0.8,-0.39 -0.06,0.26 -0.34,0.39 -0.59,0.39 -0.17,0 -0.31,-0.08 -0.44,-0.28 -0.13,-0.2 -0.2,-0.46 -0.2,-0.49 0,-0.07 0.08,-0.07 0.11,-0.07 0.08,0 0.09,0.01 0.12,0.14 0.08,0.3 0.2,0.53 0.39,0.53 0.17,0 0.2,-0.16 0.2,-0.26 0,-0.07 -0.05,-0.26 -0.08,-0.39 -0.03,-0.14 -0.08,-0.34 -0.11,-0.45 l -0.11,-0.44 c -0.03,-0.13 -0.09,-0.34 -0.09,-0.37 0,-0.11 0.09,-0.17 0.19,-0.17 0.08,0 0.17,0.04 0.22,0.13 0.02,0.04 0.06,0.2 0.08,0.29 z"
           id="path5173" /><path
           style="fill:#000000;stroke-width:0"
           inkscape:connector-curvature="0"
           d="m 249.7,714.28 0,0.01 0,0.01 0,0.01 0,0.01 -0.01,0.02 0,0.01 0,0.01 -0.01,0.01 0,0 0,0.01 -0.01,0.01 0,0.01 -0.01,0.01 -0.01,0.01 0,0.01 -0.01,0 -0.01,0.01 -0.01,0.01 0,0 -0.01,0.01 -0.01,0 -0.01,0.01 -0.01,0 -0.01,0.01 -0.01,0 -0.01,0.01 -0.01,0 -0.01,0 -0.01,0 -0.01,0 -0.02,0 -0.01,0 c -0.14,0 -0.3,-0.13 -0.3,-0.29 0,-0.14 0.11,-0.22 0.21,-0.22 0.17,0 0.31,0.15 0.31,0.3 z"
           id="path5175" /><path
           style="fill:#000000;stroke-width:0"
           inkscape:connector-curvature="0"
           d="m 249.93,711.9 0,0 0,0 0,0.01 0,0 0,0 0,0 0,0.01 0,0 0,0 0,0 0,0.01 0,0 0,0 -0.01,0 0,0.01 0,0 0,0 0,0 0,0 -0.01,0 0,0.01 0,0 -0.01,0 0,0 -0.01,0.01 0,0 0,0 -0.01,0 0,0 -0.01,0 0,0 -0.01,0 0,0.01 -0.01,0 0,0 0,0 -0.01,0 0,0 0,0 -0.01,0 0,0 0,0 0,0 c -0.08,0 -0.09,-0.02 -0.12,-0.12 -0.08,-0.27 -0.31,-0.55 -0.56,-0.55 -0.11,0 -0.15,0.08 -0.15,0.18 0,0.11 0.03,0.16 0.07,0.26 0.04,0.1 0.08,0.2 0.1,0.27 0.02,0.04 0.22,0.5 0.29,0.68 0.04,0.1 0.07,0.17 0.07,0.25 0,0.24 -0.23,0.44 -0.55,0.44 -0.52,0 -0.8,-0.64 -0.8,-0.77 0,-0.07 0.08,-0.07 0.11,-0.07 0.08,0 0.09,0.02 0.11,0.1 0.11,0.35 0.35,0.57 0.56,0.57 0.1,0 0.15,-0.06 0.15,-0.19 0,-0.02 0,-0.09 -0.03,-0.18 -0.03,-0.09 -0.26,-0.62 -0.32,-0.79 -0.04,-0.08 -0.04,-0.09 -0.11,-0.26 -0.03,-0.07 -0.06,-0.14 -0.06,-0.22 0,-0.26 0.25,-0.44 0.54,-0.44 0.53,0 0.8,0.64 0.8,0.77 z"
           id="path5177" /><path
           style="fill:#000000;stroke-width:0"
           inkscape:connector-curvature="0"
           d="m 251.36,711.67 0,-0.01 -0.01,-0.02 0,-0.01 0,-0.01 -0.01,-0.01 0,-0.02 -0.01,-0.03 0,-0.03 -0.01,-0.03 -0.01,-0.02 0,-0.02 0,-0.01 -0.01,-0.02 0,-0.01 0,-0.01 -0.01,-0.01 0,-0.02 0,-0.01 0,-0.01 -0.01,-0.01 0,-0.01 0,-0.01 0,0 0,-0.01 0,-0.01 -0.01,0 0,-0.01 0,0 0,0 c 0,-0.11 0.09,-0.17 0.19,-0.17 0.07,0 0.18,0.04 0.24,0.16 0,0.03 0.06,0.26 0.09,0.39 0.17,0.67 0.17,0.68 0.18,0.7 0.07,0.13 0.42,0.83 1.03,0.83 0.24,0 0.35,-0.14 0.35,-0.36 0,-0.28 -0.21,-0.79 -0.33,-1.08 -0.02,-0.06 -0.04,-0.12 -0.04,-0.2 0,-0.26 0.24,-0.44 0.54,-0.44 0.53,0 0.8,0.64 0.8,0.77 0,0.07 -0.08,0.07 -0.1,0.07 -0.09,0 -0.09,-0.02 -0.12,-0.12 -0.09,-0.3 -0.32,-0.55 -0.56,-0.55 -0.12,0 -0.15,0.08 -0.15,0.18 0,0.11 0.02,0.16 0.06,0.27 0.09,0.2 0.32,0.76 0.32,1.04 0,0.36 -0.27,0.59 -0.74,0.59 -0.45,0 -0.77,-0.28 -0.94,-0.49 -0.02,0.4 -0.42,0.49 -0.61,0.49 -0.49,0 -0.64,-0.76 -0.64,-0.77 0,-0.07 0.08,-0.07 0.11,-0.07 0.08,0 0.09,0.03 0.11,0.09 0.07,0.29 0.19,0.58 0.4,0.58 0.17,0 0.2,-0.16 0.2,-0.26 0,-0.07 -0.05,-0.26 -0.08,-0.39 -0.03,-0.14 -0.08,-0.34 -0.11,-0.45 z"
           id="path5179" /><path
           style="fill:#000000;stroke-width:0"
           inkscape:connector-curvature="0"
           d="m 257.91,712.99 0,0 0,0.01 0,0 0,0.01 0.01,0 0,0 0,0.01 0,0 0,0 0,0.01 0,0 0,0 0,0.01 0,0 0,0 0,0 0.01,0.01 0,0 0,0 0,0.01 0,0 0,0 0,0.01 0,0 0,0 0,0.01 0,0 0,0 0,0 0,0.01 0,0 0,0 0,0 0,0 0,0.01 0,0 0,0 0,0 c 0,0.09 -0.06,0.18 -0.18,0.18 -0.1,0 -0.21,-0.07 -0.25,-0.2 -0.16,0.22 -0.38,0.3 -0.59,0.3 l 0,-0.17 c 0.41,0 0.51,-0.39 0.51,-0.43 0,-0.01 0,-0.05 -0.01,-0.08 l -0.21,-0.81 c -0.02,-0.08 -0.02,-0.1 -0.12,-0.2 -0.18,-0.18 -0.41,-0.34 -0.67,-0.34 -0.19,0 -0.44,0.11 -0.44,0.5 0,0.19 0.09,0.66 0.28,0.95 0.13,0.22 0.39,0.41 0.66,0.41 l 0,0.17 c -0.69,0 -1.39,-0.65 -1.39,-1.35 0,-0.52 0.4,-0.85 0.87,-0.85 0.32,0 0.59,0.18 0.71,0.27 -0.02,-0.05 -0.11,-0.39 -0.12,-0.47 -0.05,-0.18 -0.08,-0.33 -0.31,-0.49 -0.24,-0.16 -0.46,-0.16 -0.6,-0.16 -0.04,0 -0.4,0.01 -0.4,0.04 l 0.02,0.01 c 0.09,0.08 0.11,0.19 0.11,0.24 0,0.09 -0.06,0.2 -0.22,0.2 -0.16,0 -0.31,-0.14 -0.31,-0.32 0,-0.34 0.51,-0.34 0.81,-0.34 0.68,0 1.18,0.23 1.3,0.71 z"
           id="path5181" /><line
           style="stroke-width:0.07531662"
           x1="224.63"
           y1="709.62"
           x2="258.94"
           y2="709.62"
           id="line5183" /><path
           style="fill:#000000;stroke-width:0"
           inkscape:connector-curvature="0"
           d="m 227.61,708.91 -0.12,-0.09 -0.12,-0.1 -0.11,-0.09 -0.1,-0.1 -0.1,-0.1 -0.09,-0.1 -0.09,-0.1 -0.09,-0.11 -0.08,-0.11 -0.07,-0.11 -0.07,-0.11 -0.07,-0.11 -0.06,-0.12 -0.06,-0.11 -0.05,-0.11 -0.05,-0.12 -0.05,-0.12 -0.04,-0.11 -0.04,-0.12 -0.03,-0.12 -0.03,-0.11 -0.03,-0.12 -0.02,-0.11 -0.02,-0.11 -0.02,-0.12 -0.02,-0.11 -0.01,-0.11 -0.01,-0.11 -0.01,-0.11 -0.01,-0.1 0,-0.1 0,-0.11 c 0,-0.97 0.29,-2.5 1.67,-3.47 0.06,0 0.14,0 0.14,0.08 0,0.04 -0.02,0.06 -0.07,0.11 -0.92,0.83 -1.27,2.01 -1.27,3.28 0,1.88 0.72,2.79 1.29,3.31 0.03,0.03 0.05,0.05 0.05,0.08 0,0.09 -0.08,0.09 -0.14,0.09 z"
           id="path5185" /><path
           style="fill:#000000;stroke-width:0"
           inkscape:connector-curvature="0"
           d="m 231.07,705.68 0.06,-0.15 0.07,-0.16 0.06,-0.15 0.07,-0.16 0.07,-0.15 0.06,-0.15 0.03,-0.08 0.03,-0.07 0.03,-0.07 0.03,-0.07 0.03,-0.07 0.02,-0.06 0.03,-0.06 0.03,-0.06 0.02,-0.06 0.02,-0.05 0.02,-0.05 0.03,-0.05 0.01,-0.04 0.02,-0.04 0.02,-0.04 0.01,-0.03 0.02,-0.02 0.01,-0.03 0.01,-0.01 0.01,-0.01 c 0.13,-0.17 0.26,-0.17 0.37,-0.17 l 0.14,0 c 0.13,0 0.2,0 0.2,0.08 0,0.04 -0.02,0.06 -0.04,0.07 -0.08,0.08 -0.15,0.24 -0.18,0.3 l -1.7,4.01 c -0.05,0.12 -0.19,0.44 -0.92,0.44 -0.09,0 -0.19,0 -0.19,-0.1 0,-0.08 0.08,-0.09 0.11,-0.1 0.15,-0.02 0.28,-0.04 0.45,-0.44 l 0.83,-1.94 -2.05,-1.85 c -0.09,-0.07 -0.14,-0.13 -0.14,-0.25 0,-0.16 0.14,-0.23 0.23,-0.23 0.14,0 0.22,0.09 0.24,0.11 z"
           id="path5187" /><path
           style="fill:#000000;stroke-width:0"
           inkscape:connector-curvature="0"
           d="m 234.56,705.43 0,0.02 0,0.02 -0.01,0.03 0,0.02 -0.01,0.02 0,0.02 -0.01,0.02 -0.01,0.02 -0.01,0.02 -0.01,0.01 -0.01,0.02 -0.01,0.02 -0.01,0.01 -0.01,0.02 -0.02,0.01 -0.01,0.01 -0.01,0.02 -0.02,0.01 -0.01,0.01 -0.02,0.01 -0.02,0.01 -0.01,0.01 -0.02,0.01 -0.02,0 -0.01,0.01 -0.02,0.01 -0.02,0 -0.02,0 -0.01,0.01 -0.02,0 -0.02,0 -0.02,0 c -0.23,0 -0.4,-0.19 -0.4,-0.4 0,-0.25 0.21,-0.4 0.39,-0.4 0.23,0 0.41,0.19 0.41,0.4 z"
           id="path5189" /><path
           style="fill:#000000;stroke-width:0"
           inkscape:connector-curvature="0"
           d="m 238.35,706.3 -0.02,0 -0.02,0 -0.01,-0.01 -0.02,-0.01 -0.01,0 -0.02,-0.01 -0.01,-0.01 -0.02,0 -0.01,-0.01 -0.01,-0.01 -0.01,-0.01 -0.02,-0.01 -0.01,-0.01 -0.01,-0.01 -0.01,-0.01 -0.01,-0.01 -0.01,-0.01 -0.01,-0.01 0,-0.02 -0.01,-0.01 -0.01,-0.01 -0.01,-0.01 0,-0.02 -0.01,-0.01 0,-0.01 -0.01,-0.01 0,-0.02 0,-0.01 0,-0.01 -0.01,-0.02 0,-0.01 0,-0.01 c 0,-0.16 0.14,-0.22 0.23,-0.22 0.07,0 0.34,0.04 0.34,0.39 0,0.45 -0.5,0.61 -0.93,0.61 -1.09,0 -1.28,-0.8 -1.28,-1.02 0,-0.26 0.15,-0.42 0.24,-0.51 0.18,-0.14 0.31,-0.16 0.79,-0.25 0.15,-0.02 0.59,-0.11 0.59,-0.46 0,-0.11 -0.07,-0.38 -0.37,-0.55 -0.27,-0.15 -0.61,-0.15 -0.69,-0.15 -0.28,0 -0.68,0.06 -0.84,0.29 0.23,0.03 0.38,0.2 0.38,0.39 0,0.18 -0.12,0.26 -0.27,0.26 -0.2,0 -0.4,-0.16 -0.4,-0.47 0,-0.41 0.44,-0.67 1.12,-0.67 1.28,0 1.52,0.88 1.52,1.15 0,0.64 -0.71,0.76 -0.96,0.81 -0.07,0.01 -0.24,0.04 -0.28,0.06 -0.26,0.05 -0.39,0.19 -0.39,0.34 0,0.17 0.13,0.35 0.28,0.45 0.19,0.12 0.44,0.13 0.55,0.13 0.15,0 0.51,-0.02 0.67,-0.26 z"
           id="path5191" /><path
           style="fill:#000000;stroke-width:0"
           inkscape:connector-curvature="0"
           d="m 242.33,705.26 2.13,0 c 0.09,0 0.26,0 0.26,0.17 0,0.17 -0.16,0.17 -0.26,0.17 l -2.13,0 0,2.14 c 0,0.09 0,0.25 -0.17,0.25 -0.17,0 -0.17,-0.16 -0.17,-0.25 l 0,-2.14 -2.14,0 c -0.09,0 -0.26,0 -0.26,-0.17 0,-0.17 0.16,-0.17 0.26,-0.17 l 2.14,0 0,-2.13 c 0,-0.09 0,-0.26 0.16,-0.26 0.18,0 0.18,0.16 0.18,0.26 z"
           id="path5193" /><path
           style="fill:#000000;stroke-width:0"
           inkscape:connector-curvature="0"
           d="m 247.55,708.11 0,0.01 0,0.01 0,0.01 0,0.01 0,0 0,0.01 0,0.01 0,0.01 0,0 0,0.01 0,0 0,0.01 0,0.01 0,0 0,0.01 0,0 0,0.01 0,0 -0.01,0.01 0,0.01 0,0.01 -0.01,0 0,0.01 0,0.01 -0.01,0 0,0 -0.01,0.01 -0.01,0 0,0 -0.01,0.01 -0.01,0 -0.01,0 -0.01,0 0,0 -0.01,0 0,0 -0.01,0 0,0.01 -0.01,0 -0.01,0 0,0 -0.01,0 -0.01,0 -0.01,0 0,0 -0.01,0 -0.01,0 -0.01,0 -0.01,0 -0.01,0 c -0.44,-0.44 -1.08,-0.45 -1.36,-0.45 l 0,-0.25 c 0.17,0 0.63,0 1.01,0.2 l 0,-3.55 c 0,-0.23 0,-0.32 -0.7,-0.32 l -0.26,0 0,-0.25 c 0.12,0.01 0.98,0.03 1.24,0.03 0.21,0 1.09,-0.02 1.24,-0.03 l 0,0.25 -0.26,0 c -0.7,0 -0.7,0.09 -0.7,0.32 z"
           id="path5195" /><path
           style="fill:#000000;stroke-width:0"
           inkscape:connector-curvature="0"
           d="m 249.82,708.91 -0.01,0 0,0 -0.01,-0.01 0,0 -0.01,0 0,0 -0.01,0 0,0 -0.01,0 0,0 -0.01,0 0,0 -0.01,0 -0.01,0 0,0 -0.01,-0.01 0,0 -0.01,0 0,0 0,-0.01 -0.01,0 0,0 -0.01,-0.01 0,0 0,0 0,0 0,0 0,-0.01 -0.01,0 0,0 0,0 0,-0.01 0,0 0,0 0,-0.01 0,0 0,0 0,-0.01 0,0 0,0 0,-0.01 c 0,-0.03 0.02,-0.05 0.06,-0.1 0.6,-0.55 1.27,-1.49 1.27,-3.29 0,-1.45 -0.46,-2.55 -1.21,-3.23 -0.12,-0.12 -0.12,-0.12 -0.12,-0.16 0,-0.03 0.02,-0.08 0.09,-0.08 0.08,0 0.74,0.46 1.2,1.33 0.31,0.57 0.51,1.32 0.51,2.14 0,0.98 -0.29,2.5 -1.67,3.48 z"
           id="path5197" /><path
           style="fill:#000000;stroke-width:0"
           inkscape:connector-curvature="0"
           d="m 253.88,705.43 0,0.02 0,0.02 0,0.03 0,0.02 -0.01,0.02 -0.01,0.02 0,0.02 -0.01,0.02 -0.01,0.02 -0.01,0.01 -0.01,0.02 -0.01,0.02 -0.01,0.01 -0.02,0.02 -0.01,0.01 -0.01,0.01 -0.02,0.02 -0.01,0.01 -0.02,0.01 -0.01,0.01 -0.02,0.01 -0.02,0.01 -0.01,0.01 -0.02,0 -0.02,0.01 -0.02,0.01 -0.01,0 -0.02,0 -0.02,0.01 -0.02,0 -0.01,0 -0.02,0 c -0.23,0 -0.41,-0.19 -0.41,-0.4 0,-0.25 0.21,-0.4 0.4,-0.4 0.23,0 0.4,0.19 0.4,0.4 z"
           id="path5199" /><path
           style="fill:#000000;stroke-width:0"
           inkscape:connector-curvature="0"
           d="m 257.67,706.3 -0.01,0 -0.02,0 -0.02,-0.01 -0.01,-0.01 -0.02,0 -0.01,-0.01 -0.02,-0.01 -0.01,0 -0.01,-0.01 -0.02,-0.01 -0.01,-0.01 -0.01,-0.01 -0.01,-0.01 -0.01,-0.01 -0.01,-0.01 -0.01,-0.01 -0.01,-0.01 -0.01,-0.01 -0.01,-0.02 -0.01,-0.01 0,-0.01 -0.01,-0.01 0,-0.02 -0.01,-0.01 0,-0.01 -0.01,-0.01 0,-0.02 0,-0.01 -0.01,-0.01 0,-0.02 0,-0.01 0,-0.01 c 0,-0.16 0.14,-0.22 0.23,-0.22 0.07,0 0.33,0.04 0.33,0.39 0,0.45 -0.5,0.61 -0.92,0.61 -1.09,0 -1.28,-0.8 -1.28,-1.02 0,-0.26 0.14,-0.42 0.24,-0.51 0.18,-0.14 0.31,-0.16 0.79,-0.25 0.14,-0.02 0.59,-0.11 0.59,-0.46 0,-0.11 -0.08,-0.38 -0.37,-0.55 -0.27,-0.15 -0.61,-0.15 -0.7,-0.15 -0.27,0 -0.67,0.06 -0.83,0.29 0.23,0.03 0.38,0.2 0.38,0.39 0,0.18 -0.12,0.26 -0.27,0.26 -0.2,0 -0.4,-0.16 -0.4,-0.47 0,-0.41 0.44,-0.67 1.12,-0.67 1.28,0 1.51,0.88 1.51,1.15 0,0.64 -0.7,0.76 -0.96,0.81 -0.06,0.01 -0.23,0.04 -0.27,0.06 -0.26,0.05 -0.39,0.19 -0.39,0.34 0,0.17 0.13,0.35 0.28,0.45 0.19,0.12 0.43,0.13 0.55,0.13 0.15,0 0.51,-0.02 0.66,-0.26 z"
           id="path5201" /></g>    </g>
    <circle
       r="44.005802"
       cy="515.4809"
       cx="311.7085"
       transform="translate(-250,0)"
       id="path3272"
       style="fill:none;stroke:#000000;stroke-width:1;stroke-linecap:square;stroke-linejoin:round;stroke-miterlimit:4;stroke-dasharray:none;stroke-dashoffset:0;stroke-opacity:1" />
    <text
       sodipodi:linespacing="125%"
       id="text3278"
       y="743.388"
       x="35.281116"
       style="font-style:normal;font-weight:normal;font-size:70.66864014px;line-height:125%;font-family:Sans;letter-spacing:0px;word-spacing:0px;fill:#000000;fill-opacity:1;stroke:none"
       xml:space="preserve"
       transform="scale(1.3263998,0.7539205)"><tspan
         id="tspan3282"
         y="743.388"
         x="35.281116"
         sodipodi:role="line">-</tspan></text>
    <text
       sodipodi:linespacing="125%"
       id="text3274"
       y="528.01996"
       x="20.950684"
       style="font-style:normal;font-weight:normal;font-size:40px;line-height:125%;font-family:Sans;letter-spacing:0px;word-spacing:0px;fill:#000000;fill-opacity:1;stroke:none"
       xml:space="preserve"><tspan
         y="528.01996"
         x="20.950684"
         id="tspan3276"
         sodipodi:role="line">+</tspan></text>
    <path
       inkscape:connector-curvature="0"
       id="path3328"
       d="m 105.34597,515.4809 150.59163,0"
       style="fill:none;stroke:#000000;stroke-width:1px;stroke-linecap:butt;stroke-linejoin:miter;stroke-opacity:1;marker-end:url(#Arrow1Lend)" />
    <path
       style="fill:none;stroke:#000000;stroke-width:0.99999994px;stroke-linecap:butt;stroke-linejoin:miter;stroke-opacity:1;marker-end:url(#Arrow1Lend)"
       d="m 365.29028,515.4809 162.07591,0"
       id="path4542"
       inkscape:connector-curvature="0" />
    <path
       inkscape:connector-curvature="0"
       id="path4544"
       d="m 743.97401,515.4809 274.82079,0"
       style="fill:none;stroke:#000000;stroke-width:1px;stroke-linecap:butt;stroke-linejoin:miter;stroke-opacity:1;marker-end:url(#Arrow1Lend)" />
    <path
       inkscape:connector-curvature="0"
       id="path4544-4"
       d="m 61.708496,682.74162 0,-122.48011"
       style="fill:none;stroke:#000000;stroke-width:1px;stroke-linecap:butt;stroke-linejoin:miter;stroke-opacity:1;marker-end:url(#Arrow1Lend)" />
    <path
       inkscape:connector-curvature="0"
       id="path3328-7"
       d="m 828.57142,515.19605 0,167.67352"
       style="fill:none;stroke:#000000;stroke-width:0.99999994px;stroke-linecap:butt;stroke-linejoin:miter;stroke-opacity:1;marker-end:none" />
    <path
       style="fill:none;stroke:#000000;stroke-width:1px;stroke-linecap:butt;stroke-linejoin:miter;stroke-opacity:1;marker-end:url(#Arrow1Lend)"
       d="m -110.80281,515.4809 126.740432,0"
       id="path4605"
       inkscape:connector-curvature="0" />
    <path
       inkscape:connector-curvature="0"
       id="path3328-8-6"
       d="m 61.215246,682.36218 767.327194,0"
       style="fill:none;stroke:#000000;stroke-width:1px;stroke-linecap:butt;stroke-linejoin:miter;stroke-opacity:1;marker-end:none" />
    <g
       id="g4855"
       transform="matrix(5.3132109,0,0,-5.3132062,-1075.0966,4247.558)"
       xml:space="preserve"
       stroke-miterlimit="10.433"
       font-style="normal"
       font-variant="normal"
       font-weight="normal"
       font-stretch="normal"
       font-size-adjust="none"
       letter-spacing="normal"
       word-spacing="normal"
       ns0:text="$\\theta_{e}(s)$"
       ns0:preamble=""
       style="font-style:normal;font-variant:normal;font-weight:normal;font-stretch:normal;letter-spacing:normal;word-spacing:normal;text-anchor:start;fill:none;fill-opacity:1;fill-rule:evenodd;stroke:#000000;stroke-width:0.18821022;stroke-linecap:butt;stroke-linejoin:miter;stroke-miterlimit:10.43299961;stroke-dasharray:none;stroke-dashoffset:0;stroke-opacity:1"><path
         style="fill:#000000;stroke-width:0"
         inkscape:connector-curvature="0"
         d="m 227.96,712.09 0,0.07 0,0.06 -0.01,0.07 0,0.08 -0.01,0.07 0,0.08 -0.01,0.08 -0.01,0.09 -0.02,0.08 -0.01,0.08 -0.02,0.09 -0.02,0.08 -0.02,0.09 -0.03,0.08 -0.03,0.08 -0.03,0.09 -0.03,0.07 -0.04,0.08 -0.04,0.08 -0.04,0.07 -0.05,0.06 -0.05,0.07 -0.05,0.06 -0.06,0.05 -0.06,0.05 -0.03,0.02 -0.04,0.03 -0.03,0.02 -0.04,0.01 -0.03,0.02 -0.04,0.02 -0.04,0.01 -0.04,0.01 -0.04,0.01 -0.04,0.01 -0.05,0.01 -0.04,0 -0.05,0.01 -0.05,0 0,-0.22 c 0.48,0 0.54,-0.64 0.54,-1.2 0,-0.49 -0.08,-1 -0.32,-1.98 l -2.08,0 c 0.17,0.64 0.37,1.43 0.77,2.14 0.27,0.48 0.64,1.04 1.09,1.04 l 0,0.22 c -1.38,0 -2.91,-2.8 -2.91,-5.08 0,-0.93 0.29,-2.03 1.19,-2.03 l 0,0.21 c -0.33,0 -0.53,0.29 -0.53,1.22 0,0.41 0.06,0.99 0.31,1.96 l 2.07,0 c -0.1,-0.45 -0.31,-1.3 -0.69,-2.01 -0.35,-0.68 -0.73,-1.17 -1.16,-1.17 l 0,-0.21 c 1.41,0 2.92,2.85 2.92,5.07 z"
         id="path4857" /><path
         style="fill:#000000;stroke-width:0"
         inkscape:connector-curvature="0"
         d="m 229.67,707.22 0.02,0 0.02,0 0.02,0 0.03,0 0.02,0 0.03,0 0.03,0 0.03,0 0.04,0 0.03,0 0.03,0.01 0.04,0 0.04,0 0.03,0 0.08,0.01 0.08,0.01 0.08,0.01 0.08,0.01 0.08,0.01 0.08,0.02 0.04,0.01 0.04,0.01 0.04,0.01 0.04,0.01 0.03,0.01 0.04,0.01 c 0.52,0.18 0.61,0.52 0.61,0.73 0,0.38 -0.38,0.61 -0.86,0.61 l 0,-0.2 c 0.31,0 0.56,-0.15 0.56,-0.41 0,-0.68 -1.17,-0.68 -1.47,-0.68 l -0.34,0 c 0.28,1.01 1.06,1.09 1.25,1.09 l 0,0.2 c -0.84,0 -1.96,-0.64 -1.96,-1.83 0,-0.7 0.43,-1.31 1.25,-1.31 1.18,0 1.73,0.69 1.73,0.79 0,0.04 -0.07,0.12 -0.12,0.12 -0.04,0 -0.06,-0.02 -0.11,-0.07 -0.55,-0.64 -1.36,-0.64 -1.49,-0.64 -0.41,0 -0.69,0.27 -0.69,0.84 0,0.1 0,0.23 0.08,0.62 z"
         id="path4859" /><path
         style="fill:#000000;stroke-width:0"
         inkscape:connector-curvature="0"
         d="m 235.68,704.74 0,0.01 0,0 0,0 0,0.01 0,0 0,0 0,0.01 -0.01,0 0,0 0,0.01 0,0 0,0.01 -0.01,0 0,0.01 -0.01,0 0,0.01 -0.01,0.01 0,0 0,0.01 -0.01,0 0,0.01 0,0 -0.01,0 0,0.01 -0.01,0 0,0.01 -0.01,0 0,0.01 -0.01,0 0,0.01 -0.01,0 0,0.01 -0.01,0.01 0,0 -0.01,0.01 -0.01,0.01 0,0 -0.01,0.01 -0.01,0.01 0,0 -0.01,0.01 -0.01,0.01 c -1.24,1.25 -1.56,3.13 -1.56,4.65 0,1.73 0.38,3.46 1.6,4.7 0.13,0.12 0.13,0.14 0.13,0.17 0,0.07 -0.04,0.1 -0.1,0.1 -0.1,0 -0.99,-0.68 -1.58,-1.94 -0.51,-1.09 -0.63,-2.2 -0.63,-3.03 0,-0.78 0.11,-1.98 0.66,-3.1 0.6,-1.22 1.45,-1.87 1.55,-1.87 0.06,0 0.1,0.03 0.1,0.1 z"
         id="path4861" /><path
         style="fill:#000000;stroke-width:0"
         inkscape:connector-curvature="0"
         d="m 240.15,710.84 -0.02,0 -0.03,0 -0.03,-0.01 -0.02,0 -0.02,-0.01 -0.03,-0.01 -0.02,0 -0.02,-0.01 -0.02,-0.01 -0.02,-0.01 -0.02,-0.02 -0.02,-0.01 -0.02,-0.01 -0.02,-0.02 -0.02,-0.01 -0.01,-0.02 -0.02,-0.01 -0.01,-0.02 -0.02,-0.01 -0.01,-0.02 -0.01,-0.02 -0.01,-0.02 -0.01,-0.02 -0.01,-0.02 -0.01,-0.02 -0.01,-0.02 0,-0.02 -0.01,-0.02 0,-0.02 0,-0.02 -0.01,-0.02 0,-0.02 c 0,-0.14 0.09,-0.29 0.31,-0.29 0.22,0 0.46,0.17 0.46,0.56 0,0.45 -0.43,0.86 -1.18,0.86 -1.32,0 -1.69,-1.02 -1.69,-1.45 0,-0.78 0.74,-0.93 1.03,-0.99 0.52,-0.1 1.03,-0.21 1.03,-0.75 0,-0.26 -0.23,-1.1 -1.42,-1.1 -0.14,0 -0.9,0 -1.13,0.53 0.38,-0.05 0.62,0.25 0.62,0.53 0,0.23 -0.16,0.35 -0.36,0.35 -0.26,0 -0.56,-0.21 -0.56,-0.66 0,-0.57 0.57,-0.96 1.42,-0.96 1.61,0 2,1.2 2,1.64 0,0.36 -0.19,0.61 -0.31,0.73 -0.27,0.28 -0.55,0.33 -0.99,0.42 -0.36,0.08 -0.76,0.15 -0.76,0.59 0,0.29 0.24,0.9 1.12,0.9 0.24,0 0.74,-0.07 0.89,-0.46 z"
         id="path4863" /><path
         style="fill:#000000;stroke-width:0"
         inkscape:connector-curvature="0"
         d="m 243.81,709.61 0,0.07 -0.01,0.08 0,0.08 0,0.08 -0.01,0.17 -0.01,0.17 -0.02,0.18 -0.02,0.19 -0.02,0.2 -0.04,0.2 -0.04,0.2 -0.04,0.21 -0.06,0.21 -0.06,0.21 -0.07,0.21 -0.07,0.21 -0.05,0.11 -0.04,0.11 -0.05,0.1 -0.05,0.11 c -0.6,1.22 -1.45,1.87 -1.55,1.87 -0.06,0 -0.1,-0.04 -0.1,-0.1 0,-0.03 0,-0.05 0.19,-0.23 0.97,-0.99 1.54,-2.57 1.54,-4.64 0,-1.7 -0.37,-3.45 -1.6,-4.7 -0.13,-0.12 -0.13,-0.14 -0.13,-0.17 0,-0.06 0.04,-0.1 0.1,-0.1 0.1,0 0.99,0.68 1.58,1.94 0.51,1.09 0.63,2.19 0.63,3.03 z"
         id="path4865" /></g>    <g
       ns0:preamble=""
       ns0:text="$\\theta_{wanted}(s)$"
       word-spacing="normal"
       letter-spacing="normal"
       font-size-adjust="none"
       font-stretch="normal"
       font-weight="normal"
       font-variant="normal"
       font-style="normal"
       stroke-miterlimit="10.433"
       xml:space="preserve"
       transform="matrix(5.2714015,0,0,-5.2714052,-1387.3283,4214.795)"
       id="g5020"
       style="font-style:normal;font-variant:normal;font-weight:normal;font-stretch:normal;letter-spacing:normal;word-spacing:normal;text-anchor:start;fill:none;fill-opacity:1;fill-rule:evenodd;stroke:#000000;stroke-width:0.18970281;stroke-linecap:butt;stroke-linejoin:miter;stroke-miterlimit:10.43299961;stroke-dasharray:none;stroke-dashoffset:0;stroke-opacity:1"><path
         id="path5022"
         d="m 227.96,712.09 0,0.07 0,0.06 -0.01,0.07 0,0.08 -0.01,0.07 0,0.08 -0.01,0.08 -0.01,0.09 -0.02,0.08 -0.01,0.08 -0.02,0.09 -0.02,0.08 -0.02,0.09 -0.03,0.08 -0.03,0.08 -0.03,0.09 -0.03,0.07 -0.04,0.08 -0.04,0.08 -0.04,0.07 -0.05,0.06 -0.05,0.07 -0.05,0.06 -0.06,0.05 -0.06,0.05 -0.03,0.02 -0.04,0.03 -0.03,0.02 -0.04,0.01 -0.03,0.02 -0.04,0.02 -0.04,0.01 -0.04,0.01 -0.04,0.01 -0.04,0.01 -0.05,0.01 -0.04,0 -0.05,0.01 -0.05,0 0,-0.22 c 0.48,0 0.54,-0.64 0.54,-1.2 0,-0.49 -0.08,-1 -0.32,-1.98 l -2.08,0 c 0.17,0.64 0.37,1.43 0.77,2.14 0.27,0.48 0.64,1.04 1.09,1.04 l 0,0.22 c -1.38,0 -2.91,-2.8 -2.91,-5.08 0,-0.93 0.29,-2.03 1.19,-2.03 l 0,0.21 c -0.33,0 -0.53,0.29 -0.53,1.22 0,0.41 0.06,0.99 0.31,1.96 l 2.07,0 c -0.1,-0.45 -0.31,-1.3 -0.69,-2.01 -0.35,-0.68 -0.73,-1.17 -1.16,-1.17 l 0,-0.21 c 1.41,0 2.92,2.85 2.92,5.07 z"
         inkscape:connector-curvature="0"
         style="fill:#000000;stroke-width:0" /><path
         id="path5024"
         d="m 231.77,707.85 0.01,0.02 0,0.02 0.01,0.02 0,0.02 0.01,0.02 0,0.02 0.01,0.04 0.01,0.04 0.02,0.05 0.01,0.04 0,0.02 0.01,0.02 0,0.03 0.01,0.02 0,0.02 0.01,0.01 0,0.02 0,0.02 0.01,0.02 0,0.01 0,0.01 0.01,0.02 0,0.01 0,0.01 0,0.01 0,0.01 0,0 0,0 0,0 0,0.01 c 0,0.13 -0.11,0.22 -0.22,0.22 -0.14,0 -0.26,-0.09 -0.3,-0.2 -0.03,-0.06 -0.09,-0.35 -0.14,-0.52 -0.1,-0.4 -0.1,-0.42 -0.21,-0.81 -0.09,-0.38 -0.1,-0.43 -0.11,-0.63 0.03,-0.14 -0.02,-0.28 -0.19,-0.48 -0.09,-0.12 -0.23,-0.23 -0.47,-0.23 -0.27,0 -0.63,0.09 -0.63,0.64 0,0.35 0.2,0.87 0.34,1.22 0.12,0.31 0.15,0.37 0.15,0.49 0,0.33 -0.29,0.59 -0.67,0.59 -0.7,0 -1.01,-0.95 -1.01,-1.07 0,-0.09 0.09,-0.09 0.11,-0.09 0.1,0 0.11,0.04 0.13,0.11 0.17,0.58 0.47,0.85 0.75,0.85 0.12,0 0.18,-0.07 0.18,-0.24 0,-0.16 -0.07,-0.31 -0.1,-0.4 -0.4,-1.02 -0.4,-1.16 -0.4,-1.37 0,-0.82 0.75,-0.93 1.12,-0.93 0.14,0 0.48,0 0.79,0.47 0.16,-0.32 0.54,-0.47 0.97,-0.47 0.62,0 0.92,0.54 1.06,0.82 0.3,0.59 0.49,1.46 0.49,1.78 0,0.52 -0.3,0.55 -0.35,0.55 -0.18,0 -0.37,-0.19 -0.37,-0.37 0,-0.12 0.07,-0.18 0.11,-0.22 0.17,-0.14 0.26,-0.33 0.26,-0.56 0,-0.09 -0.29,-1.8 -1.17,-1.8 -0.57,0 -0.57,0.5 -0.57,0.62 0,0.18 0.03,0.29 0.13,0.69 z"
         inkscape:connector-curvature="0"
         style="fill:#000000;stroke-width:0" /><path
         id="path5026"
         d="m 237,708.29 -0.01,0.02 -0.02,0.02 -0.01,0.02 -0.02,0.02 -0.02,0.02 -0.01,0.02 -0.02,0.02 -0.02,0.02 -0.02,0.02 -0.01,0.01 -0.02,0.02 -0.02,0.02 -0.02,0.01 -0.03,0.02 -0.02,0.01 -0.02,0.02 -0.02,0.01 -0.02,0.02 -0.03,0.01 -0.02,0.01 -0.03,0.01 -0.02,0.01 -0.03,0.01 -0.03,0.01 -0.02,0 -0.03,0.01 -0.03,0.01 -0.03,0 -0.03,0 -0.03,0.01 -0.03,0 -0.03,0 0,-0.2 c 0.49,0 0.62,-0.53 0.62,-0.6 0,-0.03 -0.01,-0.08 -0.02,-0.1 l -0.33,-1.3 c -0.04,-0.2 -0.2,-0.33 -0.35,-0.47 -0.06,-0.05 -0.34,-0.27 -0.64,-0.27 -0.26,0 -0.51,0.18 -0.51,0.67 0,0.37 0.2,1.13 0.36,1.41 0.32,0.56 0.68,0.66 0.87,0.66 l 0,0.2 c -0.89,0 -1.79,-0.98 -1.79,-1.98 0,-0.68 0.45,-1.16 1.05,-1.16 0.37,0 0.71,0.22 0.99,0.49 0.13,-0.42 0.53,-0.49 0.71,-0.49 0.25,0 0.43,0.15 0.55,0.37 0.16,0.27 0.25,0.67 0.25,0.69 0,0.1 -0.09,0.1 -0.11,0.1 -0.1,0 -0.11,-0.03 -0.16,-0.22 -0.08,-0.33 -0.21,-0.74 -0.51,-0.74 -0.18,0 -0.23,0.15 -0.23,0.34 0,0.12 0.06,0.37 0.11,0.55 0.05,0.18 0.12,0.47 0.15,0.62 l 0.14,0.53 c 0.04,0.18 0.13,0.51 0.13,0.54 0,0.16 -0.13,0.23 -0.24,0.23 -0.12,0 -0.28,-0.09 -0.32,-0.28 z"
         inkscape:connector-curvature="0"
         style="fill:#000000;stroke-width:0" /><path
         id="path5028"
         d="m 239.23,706.07 0,-0.01 0,-0.01 -0.01,-0.01 0,-0.01 0,-0.01 0,-0.01 -0.01,-0.01 0,-0.01 -0.01,-0.02 0,-0.03 -0.01,-0.02 0,-0.02 -0.01,-0.01 0,-0.01 0,-0.01 0,-0.01 -0.01,-0.01 0,-0.01 0,-0.01 0,-0.01 0,0 0,-0.01 -0.01,-0.01 0,0 0,-0.01 0,0 0,0 0,0 0,0 0,-0.01 c 0,-0.15 0.13,-0.22 0.24,-0.22 0.12,0 0.24,0.09 0.27,0.15 0.04,0.07 0.09,0.29 0.13,0.44 0.03,0.13 0.11,0.45 0.15,0.62 0.04,0.15 0.08,0.31 0.12,0.47 0.07,0.28 0.09,0.34 0.29,0.62 0.19,0.28 0.52,0.64 1.04,0.64 0.41,0 0.42,-0.35 0.42,-0.48 0,-0.42 -0.3,-1.19 -0.42,-1.49 -0.07,-0.19 -0.1,-0.25 -0.1,-0.37 0,-0.37 0.31,-0.6 0.66,-0.6 0.7,0 1,0.96 1,1.06 0,0.1 -0.09,0.1 -0.11,0.1 -0.09,0 -0.1,-0.05 -0.13,-0.12 -0.16,-0.56 -0.46,-0.84 -0.74,-0.84 -0.14,0 -0.17,0.09 -0.17,0.24 0,0.16 0.03,0.25 0.16,0.56 0.08,0.22 0.37,0.96 0.37,1.35 0,0.67 -0.54,0.79 -0.91,0.79 -0.58,0 -0.97,-0.36 -1.17,-0.63 -0.05,0.47 -0.46,0.63 -0.75,0.63 -0.3,0 -0.46,-0.22 -0.55,-0.38 -0.15,-0.25 -0.25,-0.65 -0.25,-0.69 0,-0.09 0.1,-0.09 0.12,-0.09 0.1,0 0.1,0.02 0.15,0.21 0.11,0.41 0.24,0.75 0.51,0.75 0.18,0 0.23,-0.15 0.23,-0.34 0,-0.13 -0.06,-0.39 -0.11,-0.57 -0.05,-0.19 -0.12,-0.48 -0.15,-0.63 z"
         inkscape:connector-curvature="0"
         style="fill:#000000;stroke-width:0" /><path
         id="path5030"
         d="m 245.02,708.38 0.71,0 c 0.13,0 0.22,0 0.22,0.15 0,0.1 -0.09,0.1 -0.21,0.1 l -0.66,0 0.26,1.03 c 0.01,0.03 0.02,0.07 0.02,0.1 0,0.12 -0.1,0.22 -0.24,0.22 -0.17,0 -0.27,-0.12 -0.32,-0.3 -0.05,-0.18 0.04,0.16 -0.27,-1.05 l -0.71,0 c -0.13,0 -0.22,0 -0.22,-0.16 0,-0.09 0.08,-0.09 0.21,-0.09 l 0.66,0 -0.41,-1.64 c -0.04,-0.18 -0.1,-0.43 -0.1,-0.52 0,-0.41 0.34,-0.66 0.74,-0.66 0.77,0 1.21,0.97 1.21,1.06 0,0.1 -0.09,0.1 -0.11,0.1 -0.08,0 -0.09,-0.02 -0.15,-0.14 -0.19,-0.43 -0.55,-0.82 -0.93,-0.82 -0.15,0 -0.24,0.09 -0.24,0.34 0,0.07 0.03,0.21 0.04,0.28 z"
         inkscape:connector-curvature="0"
         style="fill:#000000;stroke-width:0" /><path
         id="path5032"
         d="m 247.88,707.22 0.02,0 0.02,0 0.02,0 0.03,0 0.02,0 0.03,0 0.03,0 0.03,0 0.03,0 0.04,0 0.03,0.01 0.04,0 0.03,0 0.04,0 0.08,0.01 0.08,0.01 0.08,0.01 0.08,0.01 0.08,0.01 0.08,0.02 0.04,0.01 0.04,0.01 0.04,0.01 0.04,0.01 0.03,0.01 0.04,0.01 c 0.51,0.18 0.61,0.52 0.61,0.73 0,0.38 -0.38,0.61 -0.86,0.61 l 0,-0.2 c 0.3,0 0.56,-0.15 0.56,-0.41 0,-0.68 -1.18,-0.68 -1.47,-0.68 l -0.35,0 c 0.29,1.01 1.06,1.09 1.26,1.09 l 0,0.2 c -0.84,0 -1.97,-0.64 -1.97,-1.83 0,-0.7 0.44,-1.31 1.26,-1.31 1.17,0 1.72,0.69 1.72,0.79 0,0.04 -0.06,0.12 -0.11,0.12 -0.05,0 -0.06,-0.02 -0.12,-0.07 -0.54,-0.64 -1.35,-0.64 -1.48,-0.64 -0.42,0 -0.7,0.27 -0.7,0.84 0,0.1 0,0.23 0.09,0.62 z"
         inkscape:connector-curvature="0"
         style="fill:#000000;stroke-width:0" /><path
         id="path5034"
         d="m 254.07,710.25 0,0 0,0 0,0 0,0 0,0 0.01,0 0,0.01 0,0 0,0 0,0 0,0.01 0,0 0,0 0,0.01 0,0 0,0.01 0.01,0 0,0.01 0,0.01 0,0 0,0.01 0,0 0,0 0,0.01 0.01,0 0,0.01 0,0 0,0 0,0.01 0,0 0,0 0,0 0,0 0,0 0,0.01 0,0 0,0 0,0 0,0 0,0 0,0 c 0,0.03 -0.03,0.1 -0.11,0.1 -0.14,0 -0.72,-0.06 -0.89,-0.07 -0.06,-0.01 -0.15,-0.02 -0.15,-0.16 0,-0.1 0.09,-0.1 0.18,-0.1 0.33,0 0.33,-0.05 0.33,-0.1 0,-0.05 -0.01,-0.1 -0.03,-0.16 l -0.39,-1.58 c -0.15,0.23 -0.39,0.41 -0.72,0.41 l 0,-0.2 c 0.49,0 0.62,-0.53 0.62,-0.6 0,-0.03 -0.02,-0.08 -0.02,-0.1 l -0.33,-1.3 c -0.05,-0.2 -0.2,-0.33 -0.35,-0.47 -0.07,-0.05 -0.35,-0.27 -0.65,-0.27 -0.25,0 -0.5,0.18 -0.5,0.67 0,0.37 0.2,1.13 0.36,1.41 0.32,0.56 0.67,0.66 0.87,0.66 l 0,0.2 c -0.89,0 -1.8,-0.98 -1.8,-1.98 0,-0.68 0.45,-1.16 1.05,-1.16 0.38,0 0.71,0.22 0.99,0.49 0.13,-0.42 0.54,-0.49 0.72,-0.49 0.25,0 0.42,0.15 0.55,0.37 0.15,0.27 0.24,0.67 0.24,0.69 0,0.1 -0.09,0.1 -0.11,0.1 -0.1,0 -0.1,-0.03 -0.15,-0.22 -0.08,-0.33 -0.22,-0.74 -0.51,-0.74 -0.18,0 -0.23,0.15 -0.23,0.34 0,0.13 0.01,0.19 0.03,0.28 z"
         inkscape:connector-curvature="0"
         style="fill:#000000;stroke-width:0" /><path
         id="path5036"
         d="m 258.03,704.74 0,0.01 0,0 0,0 0,0.01 0,0 0,0 0,0.01 0,0 0,0 0,0.01 -0.01,0 0,0.01 0,0 -0.01,0.01 0,0 -0.01,0.01 0,0.01 -0.01,0 0,0.01 0,0 -0.01,0.01 0,0 0,0 -0.01,0.01 0,0 -0.01,0.01 0,0 -0.01,0.01 0,0 -0.01,0.01 0,0 -0.01,0.01 0,0.01 -0.01,0 -0.01,0.01 0,0.01 -0.01,0 -0.01,0.01 0,0.01 -0.01,0 -0.01,0.01 -0.01,0.01 c -1.24,1.25 -1.56,3.13 -1.56,4.65 0,1.73 0.38,3.46 1.6,4.7 0.13,0.12 0.13,0.14 0.13,0.17 0,0.07 -0.04,0.1 -0.1,0.1 -0.1,0 -0.99,-0.68 -1.58,-1.94 -0.5,-1.09 -0.62,-2.2 -0.62,-3.03 0,-0.78 0.11,-1.98 0.65,-3.1 0.6,-1.22 1.45,-1.87 1.55,-1.87 0.06,0 0.1,0.03 0.1,0.1 z"
         inkscape:connector-curvature="0"
         style="fill:#000000;stroke-width:0" /><path
         id="path5038"
         d="m 262.51,710.84 -0.03,0 -0.03,0 -0.02,-0.01 -0.02,0 -0.03,-0.01 -0.02,-0.01 -0.02,0 -0.03,-0.01 -0.02,-0.01 -0.02,-0.01 -0.02,-0.02 -0.02,-0.01 -0.02,-0.01 -0.01,-0.02 -0.02,-0.01 -0.02,-0.02 -0.01,-0.01 -0.02,-0.02 -0.01,-0.01 -0.01,-0.02 -0.02,-0.02 -0.01,-0.02 -0.01,-0.02 -0.01,-0.02 0,-0.02 -0.01,-0.02 -0.01,-0.02 0,-0.02 -0.01,-0.02 0,-0.02 0,-0.02 0,-0.02 c 0,-0.14 0.09,-0.29 0.31,-0.29 0.22,0 0.46,0.17 0.46,0.56 0,0.45 -0.43,0.86 -1.19,0.86 -1.31,0 -1.68,-1.02 -1.68,-1.45 0,-0.78 0.74,-0.93 1.02,-0.99 0.52,-0.1 1.04,-0.21 1.04,-0.75 0,-0.26 -0.23,-1.1 -1.42,-1.1 -0.14,0 -0.91,0 -1.14,0.53 0.38,-0.05 0.63,0.25 0.63,0.53 0,0.23 -0.16,0.35 -0.37,0.35 -0.26,0 -0.56,-0.21 -0.56,-0.66 0,-0.57 0.57,-0.96 1.43,-0.96 1.61,0 2,1.2 2,1.64 0,0.36 -0.19,0.61 -0.31,0.73 -0.27,0.28 -0.56,0.33 -1,0.42 -0.36,0.08 -0.75,0.15 -0.75,0.59 0,0.29 0.23,0.9 1.11,0.9 0.25,0 0.75,-0.07 0.9,-0.46 z"
         inkscape:connector-curvature="0"
         style="fill:#000000;stroke-width:0" /><path
         id="path5040"
         d="m 266.16,709.61 0,0.07 0,0.08 0,0.08 0,0.08 -0.01,0.17 -0.01,0.17 -0.02,0.18 -0.02,0.19 -0.03,0.2 -0.03,0.2 -0.04,0.2 -0.05,0.21 -0.05,0.21 -0.06,0.21 -0.07,0.21 -0.08,0.21 -0.04,0.11 -0.05,0.11 -0.04,0.1 -0.05,0.11 c -0.6,1.22 -1.46,1.87 -1.56,1.87 -0.06,0 -0.1,-0.04 -0.1,-0.1 0,-0.03 0,-0.05 0.19,-0.23 0.98,-0.99 1.54,-2.57 1.54,-4.64 0,-1.7 -0.36,-3.45 -1.6,-4.7 -0.13,-0.12 -0.13,-0.14 -0.13,-0.17 0,-0.06 0.04,-0.1 0.1,-0.1 0.1,0 1,0.68 1.59,1.94 0.5,1.09 0.62,2.19 0.62,3.03 z"
         inkscape:connector-curvature="0"
         style="fill:#000000;stroke-width:0" /></g>    <g
       style="font-style:normal;font-variant:normal;font-weight:normal;font-stretch:normal;letter-spacing:normal;word-spacing:normal;text-anchor:start;fill:none;fill-opacity:1;fill-rule:evenodd;stroke:#000000;stroke-width:0.18821022;stroke-linecap:butt;stroke-linejoin:miter;stroke-miterlimit:10.43299961;stroke-dasharray:none;stroke-dashoffset:0;stroke-opacity:1"
       ns0:preamble=""
       ns0:text="$\\theta_{actual}(s)$"
       text-anchor="start"
       word-spacing="normal"
       letter-spacing="normal"
       font-size-adjust="none"
       font-stretch="normal"
       font-weight="normal"
       font-variant="normal"
       font-style="normal"
       fill-opacity="1"
       fill-rule="evenodd"
       fill="none"
       stroke-opacity="1"
       stroke-dashoffset="0"
       stroke-dasharray="none"
       stroke-miterlimit="10.433"
       stroke-linejoin="miter"
       stroke-linecap="butt"
       stroke="black"
       xml:space="preserve"
       transform="matrix(5.3132109,0,0,-5.3132062,-381.0966,4247.558)"
       id="g5418"><path
         id="path5420"
         fill="black"
         stroke-width="0"
         d="M227.96,712.09 L227.96,712.16 L227.96,712.22 L227.95,712.29 L227.95,712.37 L227.94,712.44 L227.94,712.52 L227.93,712.6 L227.92,712.69 L227.9,712.77 L227.89,712.85 L227.87,712.94 L227.85,713.02 L227.83,713.11 L227.8,713.19 L227.77,713.27 L227.74,713.36 L227.71,713.43 L227.67,713.51 L227.63,713.59 L227.59,713.66 L227.54,713.72 L227.49,713.79 L227.44,713.85 L227.38,713.9 L227.32,713.95 L227.29,713.97 L227.25,714 L227.22,714.02 L227.18,714.03 L227.15,714.05 L227.11,714.07 L227.07,714.08 L227.03,714.09 L226.99,714.1 L226.95,714.11 L226.9,714.12 L226.86,714.12 L226.81,714.13 L226.76,714.13 L226.76,713.91 C227.24,713.91,227.3,713.27,227.3,712.71 C227.3,712.22,227.22,711.71,226.98,710.73 H224.9 C225.07,711.37,225.27,712.16,225.67,712.87 C225.94,713.35,226.31,713.91,226.76,713.91 L226.76,714.13 C225.38,714.13,223.85,711.33,223.85,709.05 C223.85,708.12,224.14,707.02,225.04,707.02 V707.23 C224.71,707.23,224.51,707.52,224.51,708.45 C224.51,708.86,224.57,709.44,224.82,710.41 H226.89 C226.79,709.96,226.58,709.11,226.2,708.4 C225.85,707.72,225.47,707.23,225.04,707.23 V707.02 C226.45,707.02,227.96,709.87,227.96,712.09 Z " /><path
         id="path5422"
         fill="black"
         stroke-width="0"
         d="M231.05,708.29 L231.03,708.31 L231.02,708.33 L231,708.35 L230.99,708.37 L230.97,708.39 L230.96,708.41 L230.94,708.43 L230.92,708.45 L230.9,708.47 L230.88,708.48 L230.86,708.5 L230.85,708.52 L230.82,708.53 L230.8,708.55 L230.78,708.56 L230.76,708.58 L230.74,708.59 L230.71,708.61 L230.69,708.62 L230.67,708.63 L230.64,708.64 L230.62,708.65 L230.59,708.66 L230.56,708.67 L230.54,708.67 L230.51,708.68 L230.48,708.69 L230.45,708.69 L230.42,708.69 L230.39,708.7 L230.36,708.7 L230.33,708.7 V708.5 C230.82,708.5,230.95,707.97,230.95,707.9 C230.95,707.87,230.94,707.82,230.93,707.8 L230.6,706.5 C230.55,706.3,230.4,706.17,230.25,706.03 C230.18,705.98,229.91,705.76,229.61,705.76 C229.35,705.76,229.1,705.94,229.1,706.43 C229.1,706.8,229.3,707.56,229.46,707.84 C229.78,708.4,230.14,708.5,230.33,708.5 V708.7 C229.44,708.7,228.53,707.72,228.53,706.72 C228.53,706.04,228.99,705.56,229.59,705.56 C229.96,705.56,230.3,705.78,230.57,706.05 C230.71,705.63,231.11,705.56,231.29,705.56 C231.54,705.56,231.72,705.71,231.84,705.93 C231.99,706.2,232.09,706.6,232.09,706.62 C232.09,706.72,231.99,706.72,231.97,706.72 C231.88,706.72,231.87,706.69,231.82,706.5 C231.74,706.17,231.6,705.76,231.31,705.76 C231.13,705.76,231.08,705.91,231.08,706.1 C231.08,706.22,231.14,706.47,231.19,706.65 C231.24,706.83,231.31,707.12,231.34,707.27 L231.48,707.8 C231.52,707.98,231.6,708.31,231.6,708.34 C231.6,708.5,231.48,708.57,231.37,708.57 C231.25,708.57,231.09,708.48,231.05,708.29 Z " /><path
         id="path5424"
         fill="black"
         stroke-width="0"
         d="M235.48,708.29 L235.46,708.29 L235.44,708.28 L235.41,708.28 L235.39,708.27 L235.37,708.26 L235.36,708.26 L235.34,708.25 L235.32,708.24 L235.3,708.23 L235.29,708.22 L235.27,708.21 L235.26,708.19 L235.24,708.18 L235.23,708.17 L235.22,708.16 L235.21,708.14 L235.2,708.13 L235.19,708.11 L235.18,708.1 L235.17,708.08 L235.16,708.07 L235.16,708.05 L235.15,708.04 L235.15,708.02 L235.14,708.01 L235.14,707.99 L235.13,707.98 L235.13,707.96 L235.13,707.95 L235.13,707.93 L235.13,707.92 L235.13,707.91 C235.13,707.72,235.27,707.65,235.4,707.65 C235.55,707.65,235.79,707.76,235.79,708.09 C235.79,708.57,235.25,708.7,234.88,708.7 C233.83,708.7,232.86,707.74,232.86,706.77 C232.86,706.17,233.28,705.56,234.15,705.56 C235.33,705.56,235.88,706.25,235.88,706.35 C235.88,706.39,235.82,706.47,235.76,706.47 C235.72,706.47,235.7,706.45,235.65,706.4 C235.1,705.76,234.29,705.76,234.16,705.76 C233.66,705.76,233.44,706.1,233.44,706.53 C233.44,706.73,233.54,707.49,233.9,707.97 C234.16,708.31,234.53,708.5,234.88,708.5 C234.97,708.5,235.31,708.49,235.48,708.29 Z " /><path
         id="path5426"
         fill="black"
         stroke-width="0"
         d="M237.7,708.38 H238.41 C238.55,708.38,238.64,708.38,238.64,708.53 C238.64,708.63,238.55,708.63,238.43,708.63 H237.77 L238.02,709.66 C238.03,709.69,238.04,709.73,238.04,709.76 C238.04,709.88,237.95,709.98,237.81,709.98 C237.63,709.98,237.53,709.86,237.48,709.68 C237.43,709.5,237.52,709.84,237.22,708.63 H236.51 C236.37,708.63,236.28,708.63,236.28,708.47 C236.28,708.38,236.37,708.38,236.49,708.38 H237.15 L236.74,706.74 C236.7,706.56,236.64,706.31,236.64,706.22 C236.64,705.81,236.99,705.56,237.38,705.56 C238.16,705.56,238.6,706.53,238.6,706.62 C238.6,706.72,238.51,706.72,238.48,706.72 C238.4,706.72,238.39,706.7,238.34,706.58 C238.14,706.15,237.79,705.76,237.4,705.76 C237.26,705.76,237.16,705.85,237.16,706.1 C237.16,706.17,237.19,706.31,237.2,706.38 Z " /><path
         id="path5428"
         fill="black"
         stroke-width="0"
         d="M241.95,706.76 L241.94,706.74 L241.94,706.73 L241.94,706.72 L241.93,706.7 L241.93,706.68 L241.92,706.67 L241.92,706.64 L241.91,706.6 L241.9,706.57 L241.89,706.53 L241.89,706.52 L241.88,706.5 L241.88,706.49 L241.88,706.47 L241.87,706.46 L241.87,706.44 L241.86,706.43 L241.86,706.42 L241.86,706.41 L241.85,706.39 L241.85,706.38 L241.85,706.38 L241.84,706.37 L241.84,706.36 L241.84,706.36 L241.84,706.36 L241.84,706.35 L241.84,706.35 L241.84,706.35 L241.84,706.35 L241.84,706.35 L241.84,706.35 C241.7,706.13,241.42,705.76,240.99,705.76 C240.51,705.76,240.51,706.21,240.51,706.33 C240.51,706.74,240.71,707.24,240.9,707.74 C240.96,707.88,241,707.99,241,708.1 C241,708.46,240.69,708.7,240.34,708.7 C239.64,708.7,239.33,707.74,239.33,707.63 C239.33,707.54,239.43,707.54,239.45,707.54 C239.54,707.54,239.55,707.58,239.57,707.65 C239.74,708.22,240.04,708.5,240.32,708.5 C240.43,708.5,240.49,708.43,240.49,708.26 C240.49,708.1,240.43,707.95,240.37,707.79 C239.99,706.83,239.99,706.63,239.99,706.45 C239.99,706.33,239.99,706.01,240.25,705.78 C240.45,705.62,240.72,705.56,240.96,705.56 C241.4,705.56,241.64,705.8,241.87,706.02 C242.02,705.58,242.49,705.56,242.57,705.56 C242.81,705.56,242.99,705.7,243.12,705.93 C243.28,706.2,243.37,706.6,243.37,706.62 C243.37,706.72,243.28,706.72,243.26,706.72 C243.16,706.72,243.15,706.69,243.1,706.5 C243.02,706.17,242.89,705.76,242.59,705.76 C242.41,705.76,242.37,705.92,242.37,706.1 C242.37,706.22,242.42,706.47,242.47,706.65 C242.52,706.83,242.59,707.12,242.62,707.27 L242.78,707.89 C242.82,708.07,242.9,708.37,242.9,708.41 C242.9,708.54,242.79,708.63,242.67,708.63 C242.41,708.63,242.37,708.43,242.31,708.2 Z " /><path
         id="path5430"
         fill="black"
         stroke-width="0"
         d="M246.65,708.29 L246.64,708.31 L246.62,708.33 L246.61,708.35 L246.59,708.37 L246.57,708.39 L246.56,708.41 L246.54,708.43 L246.52,708.45 L246.5,708.47 L246.49,708.48 L246.47,708.5 L246.45,708.52 L246.43,708.53 L246.41,708.55 L246.38,708.56 L246.36,708.58 L246.34,708.59 L246.32,708.61 L246.29,708.62 L246.27,708.63 L246.24,708.64 L246.22,708.65 L246.19,708.66 L246.16,708.67 L246.14,708.67 L246.11,708.68 L246.08,708.69 L246.05,708.69 L246.02,708.69 L245.99,708.7 L245.96,708.7 L245.93,708.7 V708.5 C246.42,708.5,246.55,707.97,246.55,707.9 C246.55,707.87,246.54,707.82,246.53,707.8 L246.2,706.5 C246.15,706.3,246,706.17,245.85,706.03 C245.79,705.98,245.51,705.76,245.21,705.76 C244.95,705.76,244.7,705.94,244.7,706.43 C244.7,706.8,244.9,707.56,245.06,707.84 C245.38,708.4,245.74,708.5,245.93,708.5 V708.7 C245.04,708.7,244.14,707.72,244.14,706.72 C244.14,706.04,244.59,705.56,245.19,705.56 C245.56,705.56,245.9,705.78,246.18,706.05 C246.31,705.63,246.71,705.56,246.89,705.56 C247.14,705.56,247.32,705.71,247.44,705.93 C247.6,706.2,247.69,706.6,247.69,706.62 C247.69,706.72,247.6,706.72,247.58,706.72 C247.48,706.72,247.47,706.69,247.42,706.5 C247.34,706.17,247.21,705.76,246.91,705.76 C246.73,705.76,246.68,705.91,246.68,706.1 C246.68,706.22,246.74,706.47,246.79,706.65 C246.84,706.83,246.91,707.12,246.94,707.27 L247.08,707.8 C247.12,707.98,247.21,708.31,247.21,708.34 C247.21,708.5,247.08,708.57,246.97,708.57 C246.85,708.57,246.69,708.48,246.65,708.29 Z " /><path
         id="path5432"
         fill="black"
         stroke-width="0"
         d="M250,710.25 L250,710.25 L250,710.25 L250,710.25 L250,710.25 L250,710.25 L250,710.25 L250,710.26 L250,710.26 L250,710.26 L250,710.26 L250,710.27 L250,710.27 L250,710.27 L250.01,710.28 L250.01,710.28 L250.01,710.29 L250.01,710.29 L250.01,710.3 L250.01,710.31 L250.01,710.31 L250.01,710.32 L250.02,710.32 L250.02,710.32 L250.02,710.33 L250.02,710.33 L250.02,710.34 L250.02,710.34 L250.02,710.34 L250.02,710.35 L250.02,710.35 L250.02,710.35 L250.02,710.35 L250.02,710.35 L250.02,710.35 L250.02,710.36 L250.02,710.36 L250.02,710.36 L250.02,710.36 L250.02,710.36 L250.02,710.36 L250.02,710.36 C250.02,710.39,250,710.46,249.91,710.46 C249.77,710.46,249.2,710.4,249.02,710.39 C248.97,710.38,248.88,710.37,248.88,710.23 C248.88,710.13,248.97,710.13,249.05,710.13 C249.38,710.13,249.38,710.08,249.38,710.03 C249.38,709.98,249.37,709.93,249.36,709.87 L248.49,706.44 C248.47,706.37,248.46,706.29,248.46,706.22 C248.46,705.78,248.86,705.56,249.2,705.56 C249.36,705.56,249.57,705.62,249.75,705.93 C249.9,706.19,250,706.6,250,706.62 C250,706.72,249.91,706.72,249.88,706.72 C249.79,706.72,249.77,706.67,249.75,706.55 C249.65,706.2,249.52,705.76,249.22,705.76 C249.04,705.76,248.99,705.93,248.99,706.1 C248.99,706.17,249.01,706.3,249.03,706.38 Z " /><path
         id="path5434"
         fill="black"
         stroke-width="0"
         d="M254.38,704.74 L254.38,704.75 L254.38,704.75 L254.38,704.75 L254.38,704.76 L254.38,704.76 L254.38,704.76 L254.38,704.77 L254.38,704.77 L254.38,704.77 L254.37,704.78 L254.37,704.78 L254.37,704.79 L254.37,704.79 L254.36,704.8 L254.36,704.8 L254.35,704.81 L254.35,704.82 L254.34,704.82 L254.34,704.83 L254.34,704.83 L254.33,704.84 L254.33,704.84 L254.32,704.84 L254.32,704.85 L254.32,704.85 L254.31,704.86 L254.31,704.86 L254.3,704.87 L254.3,704.87 L254.29,704.88 L254.29,704.88 L254.28,704.89 L254.28,704.9 L254.27,704.9 L254.26,704.91 L254.26,704.92 L254.25,704.92 L254.24,704.93 L254.24,704.94 L254.23,704.94 L254.22,704.95 L254.21,704.96 C252.97,706.21,252.65,708.09,252.65,709.61 C252.65,711.34,253.03,713.07,254.25,714.31 C254.38,714.43,254.38,714.45,254.38,714.48 C254.38,714.55,254.34,714.58,254.28,714.58 C254.18,714.58,253.29,713.9,252.7,712.64 C252.19,711.55,252.07,710.44,252.07,709.61 C252.07,708.83,252.18,707.63,252.73,706.51 C253.33,705.29,254.18,704.64,254.28,704.64 C254.34,704.64,254.38,704.67,254.38,704.74 Z " /><path
         id="path5436"
         fill="black"
         stroke-width="0"
         d="M258.86,710.84 L258.83,710.84 L258.8,710.84 L258.78,710.83 L258.75,710.83 L258.73,710.82 L258.71,710.81 L258.69,710.81 L258.66,710.8 L258.64,710.79 L258.62,710.78 L258.6,710.76 L258.58,710.75 L258.56,710.74 L258.55,710.72 L258.53,710.71 L258.51,710.69 L258.5,710.68 L258.48,710.66 L258.47,710.65 L258.46,710.63 L258.44,710.61 L258.43,710.59 L258.42,710.57 L258.41,710.55 L258.41,710.53 L258.4,710.51 L258.39,710.49 L258.39,710.47 L258.38,710.45 L258.38,710.43 L258.38,710.41 L258.38,710.39 C258.38,710.25,258.47,710.1,258.69,710.1 C258.9,710.1,259.14,710.27,259.14,710.66 C259.14,711.11,258.72,711.52,257.96,711.52 C256.65,711.52,256.28,710.5,256.28,710.07 C256.28,709.29,257.01,709.14,257.3,709.08 C257.82,708.98,258.34,708.87,258.34,708.33 C258.34,708.07,258.11,707.23,256.92,707.23 C256.78,707.23,256.01,707.23,255.78,707.76 C256.16,707.71,256.41,708.01,256.41,708.29 C256.41,708.52,256.25,708.64,256.04,708.64 C255.78,708.64,255.48,708.43,255.48,707.98 C255.48,707.41,256.05,707.02,256.9,707.02 C258.52,707.02,258.9,708.22,258.9,708.66 C258.9,709.02,258.72,709.27,258.6,709.39 C258.33,709.67,258.04,709.72,257.6,709.81 C257.24,709.89,256.85,709.96,256.85,710.4 C256.85,710.69,257.08,711.3,257.96,711.3 C258.21,711.3,258.71,711.23,258.86,710.84 Z " /><path
         id="path5438"
         fill="black"
         stroke-width="0"
         d="M262.51,709.61 L262.51,709.68 L262.51,709.76 L262.51,709.84 L262.5,709.92 L262.5,710.09 L262.48,710.26 L262.47,710.44 L262.45,710.63 L262.42,710.83 L262.39,711.03 L262.35,711.23 L262.3,711.44 L262.25,711.65 L262.19,711.86 L262.12,712.07 L262.04,712.28 L262,712.39 L261.95,712.5 L261.9,712.6 L261.85,712.71 C261.26,713.93,260.4,714.58,260.3,714.58 C260.24,714.58,260.2,714.54,260.2,714.48 C260.2,714.45,260.2,714.43,260.39,714.25 C261.37,713.26,261.93,711.68,261.93,709.61 C261.93,707.91,261.57,706.16,260.33,704.91 C260.2,704.79,260.2,704.77,260.2,704.74 C260.2,704.68,260.24,704.64,260.3,704.64 C260.4,704.64,261.3,705.32,261.88,706.58 C262.39,707.67,262.51,708.77,262.51,709.61 Z " /></g>  </g>
</svg>
