<?xml version="1.0" encoding="UTF-8" standalone="no"?>
<!-- Created with Inkscape (http://www.inkscape.org/) -->

<svg
   xmlns:ns0="http://www.iki.fi/pav/software/textext/"
   xmlns:dc="http://purl.org/dc/elements/1.1/"
   xmlns:cc="http://creativecommons.org/ns#"
   xmlns:rdf="http://www.w3.org/1999/02/22-rdf-syntax-ns#"
   xmlns:svg="http://www.w3.org/2000/svg"
   xmlns="http://www.w3.org/2000/svg"
   xmlns:xlink="http://www.w3.org/1999/xlink"
   xmlns:sodipodi="http://sodipodi.sourceforge.net/DTD/sodipodi-0.dtd"
   xmlns:inkscape="http://www.inkscape.org/namespaces/inkscape"
   width="789.56836"
   height="76.642822"
   id="svg5325"
   version="1.1"
   inkscape:version="0.91 r13725"
   sodipodi:docname="basicSteeringModel.svg">
  <sodipodi:namedview
     id="base"
     pagecolor="#ffffff"
     bordercolor="#666666"
     borderopacity="1.0"
     inkscape:pageopacity="0.0"
     inkscape:pageshadow="2"
     inkscape:zoom="2.8"
     inkscape:cx="271.11682"
     inkscape:cy="34.775353"
     inkscape:document-units="px"
     inkscape:current-layer="layer1"
     showgrid="false"
     inkscape:window-width="1920"
     inkscape:window-height="1016"
     inkscape:window-x="0"
     inkscape:window-y="507"
     inkscape:window-maximized="1"
     inkscape:snap-object-midpoints="true"
     inkscape:snap-center="true"
     fit-margin-top="0"
     fit-margin-left="0"
     fit-margin-right="0"
     fit-margin-bottom="0" />
  <defs
     id="defs5327">
    <marker
       inkscape:stockid="Arrow1Lend"
       orient="auto"
       refY="0"
       refX="0"
       id="Arrow1Lend"
       style="overflow:visible">
      <path
         inkscape:connector-curvature="0"
         id="path4095"
         d="M 0,0 5,-5 -12.5,0 5,5 0,0 z"
         style="fill-rule:evenodd;stroke:#000000;stroke-width:1pt"
         transform="matrix(-0.8,0,0,-0.8,-10,0)" />
    </marker>
    <marker
       inkscape:stockid="Arrow1Lend"
       orient="auto"
       refY="0"
       refX="0"
       id="marker5266"
       style="overflow:visible">
      <path
         inkscape:connector-curvature="0"
         id="path5268"
         d="M 0,0 5,-5 -12.5,0 5,5 0,0 z"
         style="fill-rule:evenodd;stroke:#000000;stroke-width:1pt"
         transform="matrix(-0.8,0,0,-0.8,-10,0)" />
    </marker>
    <marker
       inkscape:stockid="Arrow1Lend"
       orient="auto"
       refY="0"
       refX="0"
       id="marker5270"
       style="overflow:visible">
      <path
         inkscape:connector-curvature="0"
         id="path5272"
         d="M 0,0 5,-5 -12.5,0 5,5 0,0 z"
         style="fill-rule:evenodd;stroke:#000000;stroke-width:1pt"
         transform="matrix(-0.8,0,0,-0.8,-10,0)" />
    </marker>
    <marker
       inkscape:stockid="Arrow1Lend"
       orient="auto"
       refY="0"
       refX="0"
       id="marker5274"
       style="overflow:visible">
      <path
         inkscape:connector-curvature="0"
         id="path5276"
         d="M 0,0 5,-5 -12.5,0 5,5 0,0 z"
         style="fill-rule:evenodd;stroke:#000000;stroke-width:1pt"
         transform="matrix(-0.8,0,0,-0.8,-10,0)" />
    </marker>
    <marker
       inkscape:stockid="Arrow1Lend"
       orient="auto"
       refY="0"
       refX="0"
       id="marker5278"
       style="overflow:visible">
      <path
         inkscape:connector-curvature="0"
         id="path5280"
         d="M 0,0 5,-5 -12.5,0 5,5 0,0 z"
         style="fill-rule:evenodd;stroke:#000000;stroke-width:1pt"
         transform="matrix(-0.8,0,0,-0.8,-10,0)" />
    </marker>
    <marker
       inkscape:stockid="Arrow1Lend"
       orient="auto"
       refY="0"
       refX="0"
       id="marker5282"
       style="overflow:visible">
      <path
         inkscape:connector-curvature="0"
         id="path5284"
         d="M 0,0 5,-5 -12.5,0 5,5 0,0 z"
         style="fill-rule:evenodd;stroke:#000000;stroke-width:1pt"
         transform="matrix(-0.8,0,0,-0.8,-10,0)" />
    </marker>
    <marker
       inkscape:stockid="Arrow1Lend"
       orient="auto"
       refY="0"
       refX="0"
       id="Arrow1Lend-9"
       style="overflow:visible">
      <path
         inkscape:connector-curvature="0"
         id="path4095-3"
         d="M 0,0 5,-5 -12.5,0 5,5 0,0 z"
         style="fill-rule:evenodd;stroke:#000000;stroke-width:1pt"
         transform="matrix(-0.8,0,0,-0.8,-10,0)" />
    </marker>
  </defs>
  <metadata
     id="metadata5330">
    <rdf:RDF>
      <cc:Work
         rdf:about="">
        <dc:format>image/svg+xml</dc:format>
        <dc:type
           rdf:resource="http://purl.org/dc/dcmitype/StillImage" />
        <dc:title />
      </cc:Work>
    </rdf:RDF>
  </metadata>
  <g
     transform="translate(68.122528,-479.582)"
     inkscape:label="Layer 1"
     inkscape:groupmode="layer"
     id="layer1">
    <g
       id="g3908"
       transform="matrix(0.66927186,0,0,0.66873068,223.76581,225.40562)" />
    <rect
       y="494.35696"
       x="68.838005"
       height="61.367851"
       width="62.928909"
       id="rect5509-1"
       style="fill:none;stroke:#000000;stroke-width:1;stroke-linecap:butt;stroke-linejoin:round;stroke-miterlimit:4;stroke-opacity:1;stroke-dasharray:none;stroke-dashoffset:0" />
    <rect
       style="fill:none;stroke:#000000;stroke-width:1;stroke-linecap:butt;stroke-linejoin:round;stroke-miterlimit:4;stroke-opacity:1;stroke-dasharray:none;stroke-dashoffset:0"
       id="rect3085"
       width="62.928909"
       height="61.367851"
       x="272.60974"
       y="494.35696" />
    <rect
       y="494.35696"
       x="486.44427"
       height="61.367851"
       width="62.928909"
       id="rect3087"
       style="fill:none;stroke:#000000;stroke-width:1;stroke-linecap:butt;stroke-linejoin:round;stroke-miterlimit:4;stroke-opacity:1;stroke-dasharray:none;stroke-dashoffset:0" />
    <g
       transform="matrix(1.5537713,0,0,1.5585776,-106.38057,-201.54756)"
       id="g3155">
      <g
         style="font-style:normal;font-variant:normal;font-weight:normal;font-stretch:normal;letter-spacing:normal;word-spacing:normal;text-anchor:start;fill:none;stroke:#000000;stroke-width:0.64260226;stroke-linecap:butt;stroke-linejoin:miter;stroke-miterlimit:10.43299961;stroke-opacity:1;stroke-dasharray:none;stroke-dashoffset:0"
         id="g3157"
         transform="matrix(0.4279517,0,0,-0.4279517,-74.891548,645.63775)"
         xml:space="preserve"
         stroke-miterlimit="10.433"
         font-style="normal"
         font-variant="normal"
         font-weight="normal"
         font-stretch="normal"
         font-size-adjust="none"
         letter-spacing="normal"
         word-spacing="normal"><path
           style="fill:#000000;stroke-width:0"
           inkscape:connector-curvature="0"
           d="m 480.88,426.32 -0.01,0.02 0,0.02 -0.01,0.01 -0.01,0.02 0,0.02 -0.01,0.02 -0.01,0.03 -0.01,0.02 -0.01,0.02 -0.01,0.02 -0.01,0.03 -0.01,0.02 -0.02,0.05 -0.02,0.06 -0.02,0.05 -0.02,0.05 -0.01,0.02 -0.01,0.03 -0.01,0.02 -0.01,0.02 -0.01,0.03 0,0.02 -0.01,0.02 0,0.02 -0.01,0.02 0,0.02 0,0.01 0,0.02 c 0,0.04 0.89,0.75 1.45,1.14 l 8.72,6.73 c 4.67,3.44 6.63,3.63 8.11,3.78 0.41,0.05 0.91,0.1 0.91,1 0,0.19 -0.16,0.55 -0.55,0.55 -1.11,0 -2.34,-0.16 -3.55,-0.16 -1.79,0 -3.73,0.16 -5.53,0.16 -0.34,0 -0.94,0 -0.94,-1 0,-0.34 0.25,-0.5 0.6,-0.55 1.09,-0.09 1.54,-0.34 1.54,-1.04 0,-0.89 -1.5,-2.05 -1.79,-2.3 l -19.44,-14.94 4,15.99 c 0.44,1.79 0.55,2.29 4.17,2.29 1.25,0 1.71,0 1.71,1 0,0.44 -0.41,0.55 -0.71,0.55 -1.39,0 -4.98,-0.16 -6.37,-0.16 -1.44,0 -4.99,0.16 -6.42,0.16 -0.36,0 -1,0 -1,-0.95 0,-0.6 0.45,-0.6 1.43,-0.6 0.66,0 1.55,-0.04 2.14,-0.09 0.8,-0.11 1.11,-0.25 1.11,-0.8 0,-0.2 -0.06,-0.36 -0.2,-0.95 l -6.67,-26.75 c -0.5,-1.95 -0.61,-2.34 -4.55,-2.34 -0.84,0 -1.39,0 -1.39,-0.96 0,-0.59 0.59,-0.59 0.75,-0.59 1.39,0 4.94,0.16 6.33,0.16 1.05,0 2.14,-0.07 3.19,-0.07 1.09,0 2.18,-0.09 3.23,-0.09 0.36,0 1,0 1,1 0,0.55 -0.45,0.55 -1.39,0.55 -1.84,0 -3.23,0 -3.23,0.89 0,0.36 0.29,1.45 0.43,2.2 0.71,2.58 1.35,5.22 2,7.81 l 7.42,5.78 5.79,-13.4 c 0.59,-1.35 0.59,-1.44 0.59,-1.74 0,-1.5 -2.14,-1.54 -2.59,-1.54 -0.55,0 -1.1,0 -1.1,-1 0,-0.55 0.6,-0.55 0.71,-0.55 1.98,0 4.07,0.16 6.07,0.16 1.1,0 3.78,-0.16 4.88,-0.16 0.25,0 0.9,0 0.9,1 0,0.55 -0.56,0.55 -1,0.55 -2.04,0.04 -2.68,0.5 -3.43,2.23 z"
           id="path3159" /><path
           style="fill:#000000;stroke-width:0"
           inkscape:connector-curvature="0"
           d="m 512.9,411.86 -0.09,-0.03 -0.08,-0.02 -0.08,-0.03 -0.08,-0.02 -0.07,-0.04 -0.08,-0.03 -0.07,-0.04 -0.07,-0.04 -0.06,-0.04 -0.07,-0.04 -0.06,-0.05 -0.06,-0.05 -0.06,-0.05 -0.05,-0.05 -0.05,-0.05 -0.05,-0.06 -0.05,-0.05 -0.04,-0.06 -0.04,-0.06 -0.04,-0.06 -0.03,-0.06 -0.04,-0.06 -0.03,-0.06 -0.02,-0.06 -0.03,-0.07 -0.02,-0.06 -0.01,-0.07 -0.02,-0.06 -0.01,-0.07 -0.01,-0.06 0,-0.07 0,-0.06 c 0,-0.81 0.7,-1.12 1.15,-1.12 0.35,0 1.67,0.21 1.67,1.98 0,2.27 -2.5,3.03 -4.62,3.03 -5.44,0 -6.42,-4 -6.42,-5.08 0,-1.29 0.73,-2.12 1.22,-2.54 0.9,-0.71 1.53,-0.83 3.93,-1.25 0.74,-0.14 2.97,-0.57 2.97,-2.3 0,-0.59 -0.39,-1.92 -1.84,-2.8 -1.36,-0.76 -3.08,-0.76 -3.49,-0.76 -1.4,0 -3.39,0.31 -4.18,1.47 1.15,0.14 1.92,1 1.92,1.98 0,0.87 -0.63,1.28 -1.36,1.28 -1.02,0 -2.03,-0.8 -2.03,-2.33 0,-2.09 2.23,-3.37 5.61,-3.37 6.42,0 7.61,4.39 7.61,5.75 0,3.2 -3.53,3.83 -4.82,4.08 -0.31,0.06 -1.18,0.2 -1.39,0.26 -1.29,0.25 -1.92,0.99 -1.92,1.75 0,0.8 0.63,1.74 1.39,2.24 0.94,0.59 2.16,0.65 2.75,0.65 0.74,0 2.55,-0.11 3.32,-1.29 z"
           id="path3161" /></g>    </g>
    <g
       transform="matrix(1.2578503,0,0,1.2617411,138.58109,-61.838472)"
       id="g3301">
      <g
         id="g3750"
         ns0:preamble=""
         ns0:text="$K_{v}$"
         transform="matrix(2.6362845,0,0,2.6362845,-472.74296,117.84486)">
        <defs
           id="defs3752">
          <g
             id="g3754">
            <symbol
               id="textext-2695a639-0"
               overflow="visible"
               style="overflow:visible">
              <path
                 id="path3757"
                 d=""
                 style="stroke:none"
                 inkscape:connector-curvature="0" />
            </symbol>
            <symbol
               id="textext-2695a639-1"
               overflow="visible"
               style="overflow:visible">
              <path
                 id="path3760"
                 d="M 5.078125,-4.03125 C 5.0625,-4.0625 5.03125,-4.140625 5.03125,-4.171875 c 0,0 0.171875,-0.140625 0.28125,-0.21875 l 1.75,-1.34375 C 8,-6.4375 8.390625,-6.46875 8.6875,-6.5 8.765625,-6.515625 8.859375,-6.515625 8.859375,-6.703125 8.859375,-6.734375 8.828125,-6.8125 8.75,-6.8125 c -0.21875,0 -0.46875,0.03125 -0.703125,0.03125 -0.359375,0 -0.75,-0.03125 -1.109375,-0.03125 -0.0625,0 -0.1875,0 -0.1875,0.203125 0,0.0625 0.046875,0.09375 0.125,0.109375 0.21875,0.015625 0.296875,0.0625 0.296875,0.203125 0,0.1875 -0.296875,0.421875 -0.359375,0.46875 L 2.9375,-2.84375 3.734375,-6.046875 C 3.8125,-6.40625 3.84375,-6.5 4.5625,-6.5 c 0.25,0 0.34375,0 0.34375,-0.203125 0,-0.078125 -0.078125,-0.109375 -0.140625,-0.109375 -0.28125,0 -1,0.03125 -1.28125,0.03125 C 3.203125,-6.78125 2.5,-6.8125 2.203125,-6.8125 2.140625,-6.8125 2,-6.8125 2,-6.625 2,-6.5 2.09375,-6.5 2.296875,-6.5 c 0.125,0 0.3125,0.015625 0.421875,0.015625 0.15625,0.03125 0.21875,0.046875 0.21875,0.171875 0,0.03125 0,0.0625 -0.03125,0.1875 L 1.5625,-0.78125 c -0.09375,0.390625 -0.109375,0.46875 -0.90625,0.46875 -0.171875,0 -0.28125,0 -0.28125,0.1875 C 0.375,0 0.5,0 0.53125,0 0.8125,0 1.515625,-0.03125 1.796875,-0.03125 2,-0.03125 2.21875,-0.015625 2.4375,-0.015625 2.65625,-0.015625 2.875,0 3.078125,0 3.15625,0 3.28125,0 3.28125,-0.203125 3.28125,-0.3125 3.1875,-0.3125 3,-0.3125 c -0.375,0 -0.640625,0 -0.640625,-0.171875 0,-0.078125 0.046875,-0.296875 0.078125,-0.4375 C 2.578125,-1.453125 2.71875,-1.96875 2.84375,-2.5 l 1.484375,-1.15625 1.15625,2.6875 c 0.125,0.265625 0.125,0.296875 0.125,0.34375 0,0.3125 -0.4375,0.3125 -0.53125,0.3125 -0.109375,0 -0.21875,0 -0.21875,0.203125 C 4.859375,0 4.984375,0 5,0 5.40625,0 5.828125,-0.03125 6.21875,-0.03125 6.4375,-0.03125 6.984375,0 7.203125,0 7.25,0 7.375,0 7.375,-0.203125 7.375,-0.3125 7.265625,-0.3125 7.171875,-0.3125 c -0.40625,0 -0.53125,-0.09375 -0.6875,-0.4375 z m 0,0"
                 style="stroke:none"
                 inkscape:connector-curvature="0" />
            </symbol>
            <symbol
               id="textext-2695a639-2"
               overflow="visible"
               style="overflow:visible">
              <path
                 id="path3763"
                 d=""
                 style="stroke:none"
                 inkscape:connector-curvature="0" />
            </symbol>
            <symbol
               id="textext-2695a639-3"
               overflow="visible"
               style="overflow:visible">
              <path
                 id="path3766"
                 d="m 3.71875,-2.53125 c 0,-0.546875 -0.328125,-0.546875 -0.34375,-0.546875 -0.1875,0 -0.375,0.1875 -0.375,0.375 0,0.109375 0.0625,0.171875 0.109375,0.203125 0.125,0.109375 0.265625,0.28125 0.265625,0.5625 0,0.3125 -0.46875,1.8125 -1.296875,1.8125 -0.5625,0 -0.5625,-0.5 -0.5625,-0.625 0,-0.3125 0.125,-0.703125 0.390625,-1.359375 C 1.953125,-2.25 2,-2.359375 2,-2.46875 2,-2.84375 1.6875,-3.078125 1.34375,-3.078125 0.640625,-3.078125 0.328125,-2.125 0.328125,-2 c 0,0.078125 0.09375,0.078125 0.125,0.078125 0.09375,0 0.09375,-0.03125 0.125,-0.109375 C 0.734375,-2.59375 1.03125,-2.875 1.3125,-2.875 c 0.125,0 0.171875,0.078125 0.171875,0.234375 0,0.171875 -0.046875,0.3125 -0.125,0.46875 -0.296875,0.78125 -0.375,1.078125 -0.375,1.328125 0,0.6875 0.546875,0.90625 1.078125,0.90625 1.171875,0 1.65625,-2.015625 1.65625,-2.59375 z m 0,0"
                 style="stroke:none"
                 inkscape:connector-curvature="0" />
            </symbol>
          </g>
        </defs>
        <g
           id="textext-2695a639-4">
          <g
             id="g3769"
             style="fill:#000000;fill-opacity:1">
            <use
               id="use3771"
               y="134.765"
               x="223.43201"
               xlink:href="#textext-2695a639-1"
               width="100%"
               height="100%" />
          </g>
          <g
             id="g3773"
             style="fill:#000000;fill-opacity:1">
            <use
               id="use3775"
               y="136.259"
               x="231.89301"
               xlink:href="#textext-2695a639-3"
               width="100%"
               height="100%" />
          </g>
        </g>
      </g>
      <g
         transform="matrix(2.6362845,0,0,2.6362845,-472.74296,117.84486)"
         ns0:text="$K_v$"
         ns0:preamble=""
         id="g3971">
        <defs
           id="defs3973">
          <g
             id="g3975">
            <symbol
               overflow="visible"
               id="textext-6bd8a776-0"
               style="overflow:visible">
              <path
                 style="stroke:none"
                 d=""
                 id="path3978"
                 inkscape:connector-curvature="0" />
            </symbol>
            <symbol
               overflow="visible"
               id="textext-6bd8a776-1"
               style="overflow:visible">
              <path
                 style="stroke:none"
                 d="M 5.078125,-4.03125 C 5.0625,-4.0625 5.03125,-4.140625 5.03125,-4.171875 c 0,0 0.171875,-0.140625 0.28125,-0.21875 l 1.75,-1.34375 C 8,-6.4375 8.390625,-6.46875 8.6875,-6.5 8.765625,-6.515625 8.859375,-6.515625 8.859375,-6.703125 8.859375,-6.734375 8.828125,-6.8125 8.75,-6.8125 c -0.21875,0 -0.46875,0.03125 -0.703125,0.03125 -0.359375,0 -0.75,-0.03125 -1.109375,-0.03125 -0.0625,0 -0.1875,0 -0.1875,0.203125 0,0.0625 0.046875,0.09375 0.125,0.109375 0.21875,0.015625 0.296875,0.0625 0.296875,0.203125 0,0.1875 -0.296875,0.421875 -0.359375,0.46875 L 2.9375,-2.84375 3.734375,-6.046875 C 3.8125,-6.40625 3.84375,-6.5 4.5625,-6.5 c 0.25,0 0.34375,0 0.34375,-0.203125 0,-0.078125 -0.078125,-0.109375 -0.140625,-0.109375 -0.28125,0 -1,0.03125 -1.28125,0.03125 C 3.203125,-6.78125 2.5,-6.8125 2.203125,-6.8125 2.140625,-6.8125 2,-6.8125 2,-6.625 2,-6.5 2.09375,-6.5 2.296875,-6.5 c 0.125,0 0.3125,0.015625 0.421875,0.015625 0.15625,0.03125 0.21875,0.046875 0.21875,0.171875 0,0.03125 0,0.0625 -0.03125,0.1875 L 1.5625,-0.78125 c -0.09375,0.390625 -0.109375,0.46875 -0.90625,0.46875 -0.171875,0 -0.28125,0 -0.28125,0.1875 C 0.375,0 0.5,0 0.53125,0 0.8125,0 1.515625,-0.03125 1.796875,-0.03125 2,-0.03125 2.21875,-0.015625 2.4375,-0.015625 2.65625,-0.015625 2.875,0 3.078125,0 3.15625,0 3.28125,0 3.28125,-0.203125 3.28125,-0.3125 3.1875,-0.3125 3,-0.3125 c -0.375,0 -0.640625,0 -0.640625,-0.171875 0,-0.078125 0.046875,-0.296875 0.078125,-0.4375 C 2.578125,-1.453125 2.71875,-1.96875 2.84375,-2.5 l 1.484375,-1.15625 1.15625,2.6875 c 0.125,0.265625 0.125,0.296875 0.125,0.34375 0,0.3125 -0.4375,0.3125 -0.53125,0.3125 -0.109375,0 -0.21875,0 -0.21875,0.203125 C 4.859375,0 4.984375,0 5,0 5.40625,0 5.828125,-0.03125 6.21875,-0.03125 6.4375,-0.03125 6.984375,0 7.203125,0 7.25,0 7.375,0 7.375,-0.203125 7.375,-0.3125 7.265625,-0.3125 7.171875,-0.3125 c -0.40625,0 -0.53125,-0.09375 -0.6875,-0.4375 z m 0,0"
                 id="path3981"
                 inkscape:connector-curvature="0" />
            </symbol>
            <symbol
               overflow="visible"
               id="textext-6bd8a776-2"
               style="overflow:visible">
              <path
                 style="stroke:none"
                 d=""
                 id="path3984"
                 inkscape:connector-curvature="0" />
            </symbol>
            <symbol
               overflow="visible"
               id="textext-6bd8a776-3"
               style="overflow:visible">
              <path
                 style="stroke:none"
                 d="m 3.71875,-2.53125 c 0,-0.546875 -0.328125,-0.546875 -0.34375,-0.546875 -0.1875,0 -0.375,0.1875 -0.375,0.375 0,0.109375 0.0625,0.171875 0.109375,0.203125 0.125,0.109375 0.265625,0.28125 0.265625,0.5625 0,0.3125 -0.46875,1.8125 -1.296875,1.8125 -0.5625,0 -0.5625,-0.5 -0.5625,-0.625 0,-0.3125 0.125,-0.703125 0.390625,-1.359375 C 1.953125,-2.25 2,-2.359375 2,-2.46875 2,-2.84375 1.6875,-3.078125 1.34375,-3.078125 0.640625,-3.078125 0.328125,-2.125 0.328125,-2 c 0,0.078125 0.09375,0.078125 0.125,0.078125 0.09375,0 0.09375,-0.03125 0.125,-0.109375 C 0.734375,-2.59375 1.03125,-2.875 1.3125,-2.875 c 0.125,0 0.171875,0.078125 0.171875,0.234375 0,0.171875 -0.046875,0.3125 -0.125,0.46875 -0.296875,0.78125 -0.375,1.078125 -0.375,1.328125 0,0.6875 0.546875,0.90625 1.078125,0.90625 1.171875,0 1.65625,-2.015625 1.65625,-2.59375 z m 0,0"
                 id="path3987"
                 inkscape:connector-curvature="0" />
            </symbol>
          </g>
        </defs>
        <g
           id="textext-6bd8a776-4">
          <g
             style="fill:#000000;fill-opacity:1"
             id="g3990">
            <use
               xlink:href="#textext-6bd8a776-1"
               x="223.43201"
               y="134.765"
               id="use3992"
               width="100%"
               height="100%" />
          </g>
          <g
             style="fill:#000000;fill-opacity:1"
             id="g3994">
            <use
               xlink:href="#textext-6bd8a776-3"
               x="231.89301"
               y="136.259"
               id="use3996"
               width="100%"
               height="100%" />
          </g>
        </g>
      </g>
    </g>
    <g
       transform="matrix(1.5537713,0,0,1.5585776,320.4484,-201.89773)"
       id="g3455">
      <g
         style="font-style:normal;font-variant:normal;font-weight:normal;font-stretch:normal;letter-spacing:normal;word-spacing:normal;text-anchor:start;fill:none;stroke:#000000;stroke-width:0.64260226;stroke-linecap:butt;stroke-linejoin:miter;stroke-miterlimit:10.43299961;stroke-opacity:1;stroke-dasharray:none;stroke-dashoffset:0"
         id="g3457"
         transform="matrix(0.4279517,0,0,-0.4279517,-74.891548,645.63775)"
         xml:space="preserve"
         stroke-miterlimit="10.433"
         font-style="normal"
         font-variant="normal"
         font-weight="normal"
         font-stretch="normal"
         font-size-adjust="none"
         letter-spacing="normal"
         word-spacing="normal"><path
           style="fill:#000000;stroke-width:0"
           inkscape:connector-curvature="0"
           d="m 473.19,447.92 0,0.04 0,0.04 0,0.05 0,0.04 0,0.03 0,0.04 0,0.04 0,0.03 -0.01,0.04 0,0.03 0,0.03 0,0.03 0,0.03 -0.01,0.03 0,0.03 0,0.02 -0.01,0.03 0,0.02 -0.01,0.03 0,0.02 -0.02,0.04 -0.01,0.04 -0.02,0.03 -0.02,0.03 -0.02,0.03 -0.02,0.03 -0.03,0.02 -0.03,0.02 -0.03,0.02 -0.04,0.01 -0.04,0.01 -0.05,0.02 -0.02,0 -0.02,0 -0.03,0.01 -0.03,0 -0.02,0.01 -0.03,0 -0.03,0 -0.03,0 -0.03,0 -0.04,0.01 -0.03,0 -0.04,0 -0.03,0 -0.04,0 -0.04,0 -0.04,0 -0.04,0 -0.05,0 -0.04,0 -0.05,0 c -2.23,-2.2 -5.39,-2.23 -6.82,-2.23 v -1.25 c 0.84,0 3.14,0 5.04,0.97 v -17.77 c 0,-1.16 0,-1.61 -3.48,-1.61 h -1.31 v -1.25 c 0.62,0.03 4.9,0.14 6.2,0.14 1.08,0 5.47,-0.11 6.23,-0.14 v 1.25 h -1.32 c -3.49,0 -3.49,0.45 -3.49,1.61 z"
           id="path3459" /><polyline
           style="fill:#000000;fill-rule:nonzero;stroke-width:0"
           points="462,418 481.92,418 481.92,420.04 462,420.04 "
           id="polyline3461" /><path
           style="fill:#000000;stroke-width:0"
           inkscape:connector-curvature="0"
           d="m 477.02,402.13 -0.09,-0.02 -0.08,-0.02 -0.08,-0.03 -0.08,-0.03 -0.07,-0.03 -0.08,-0.03 -0.07,-0.04 -0.07,-0.04 -0.06,-0.04 -0.07,-0.05 -0.06,-0.04 -0.06,-0.05 -0.05,-0.05 -0.06,-0.05 -0.05,-0.05 -0.05,-0.06 -0.04,-0.05 -0.05,-0.06 -0.04,-0.06 -0.04,-0.06 -0.03,-0.06 -0.03,-0.06 -0.03,-0.06 -0.03,-0.07 -0.02,-0.06 -0.03,-0.06 -0.01,-0.07 -0.02,-0.06 -0.01,-0.07 -0.01,-0.06 0,-0.07 0,-0.06 c 0,-0.81 0.7,-1.13 1.15,-1.13 0.35,0 1.68,0.22 1.68,1.99 0,2.26 -2.5,3.03 -4.63,3.03 -5.44,0 -6.42,-4 -6.42,-5.08 0,-1.3 0.73,-2.12 1.22,-2.55 0.9,-0.7 1.53,-0.82 3.93,-1.25 0.74,-0.14 2.97,-0.56 2.97,-2.29 0,-0.6 -0.39,-1.93 -1.84,-2.8 -1.36,-0.77 -3.08,-0.77 -3.49,-0.77 -1.4,0 -3.39,0.32 -4.18,1.47 1.15,0.14 1.92,1 1.92,1.99 0,0.87 -0.63,1.28 -1.36,1.28 -1.02,0 -2.03,-0.8 -2.03,-2.33 0,-2.09 2.23,-3.37 5.61,-3.37 6.42,0 7.61,4.39 7.61,5.75 0,3.2 -3.53,3.82 -4.81,4.07 -0.32,0.07 -1.19,0.21 -1.4,0.27 -1.29,0.25 -1.92,0.98 -1.92,1.75 0,0.8 0.63,1.73 1.39,2.23 0.94,0.6 2.16,0.66 2.75,0.66 0.74,0 2.55,-0.11 3.32,-1.3 z"
           id="path3463" /></g>    </g>
    <g
       transform="matrix(1.2578503,0,0,1.2617411,-212.20281,-79.689922)"
       id="g3621">
      <g
         style="font-style:normal;font-variant:normal;font-weight:normal;font-stretch:normal;letter-spacing:normal;word-spacing:normal;text-anchor:start;fill:none;stroke:#000000;stroke-width:0.79378045;stroke-linecap:butt;stroke-linejoin:miter;stroke-miterlimit:10.43299961;stroke-dasharray:none;stroke-dashoffset:0;stroke-opacity:1"
         word-spacing="normal"
         letter-spacing="normal"
         font-size-adjust="none"
         font-stretch="normal"
         font-weight="normal"
         font-variant="normal"
         font-style="normal"
         stroke-miterlimit="10.433"
         xml:space="preserve"
         transform="matrix(0.4279517,0,0,-0.4279517,-74.891548,645.63775)"
         id="g3623"><path
           style="fill:#000000;stroke-width:0"
           inkscape:connector-curvature="0"
           id="path3625"
           d="m 470.61,421.95 0.21,1.28 3.39,13.56 c 0.43,1.74 0.54,1.89 2.68,1.89 l 4.79,0 c 4.14,0 6.78,-1.34 6.78,-4.78 0,-1.95 -1,-6.23 -2.94,-8.03 -2.5,-2.23 -5.48,-2.64 -7.69,-2.64 l -7.01,0 -0.21,-1.28 8.47,0 c 7.08,0 14,5.17 14,10.75 0,3.84 -3.28,7.53 -9.81,7.53 l -16.14,0 c -0.95,0 -1.5,0 -1.5,-0.95 0,-0.6 0.45,-0.6 1.45,-0.6 0.64,0 1.55,-0.04 2.14,-0.09 0.8,-0.11 1.1,-0.25 1.1,-0.8 0,-0.2 -0.05,-0.36 -0.21,-0.95 l -6.67,-26.75 c -0.5,-1.95 -0.59,-2.34 -4.53,-2.34 -0.84,0 -1.39,0 -1.39,-0.96 0,-0.59 0.59,-0.59 0.73,-0.59 1.41,0 4.94,0.16 6.33,0.16 1.05,0 2.14,-0.07 3.19,-0.07 1.11,0 2.2,-0.09 3.25,-0.09 0.34,0 0.98,0 0.98,1 0,0.55 -0.43,0.55 -1.39,0.55 -1.84,0 -3.23,0 -3.23,0.89 0,0.29 0.09,0.54 0.14,0.84 z" /><path
           style="fill:#000000;stroke-width:0"
           inkscape:connector-curvature="0"
           id="path3627"
           d="m 540.21,434.45 0.23,0.4 0.24,0.4 0.24,0.38 0.24,0.37 0.13,0.18 0.13,0.17 0.14,0.17 0.13,0.16 0.14,0.16 0.15,0.16 0.15,0.15 0.16,0.14 0.16,0.14 0.17,0.13 0.17,0.13 0.18,0.12 0.19,0.11 0.19,0.11 0.2,0.1 0.21,0.09 0.22,0.09 0.23,0.08 0.24,0.07 0.25,0.06 0.25,0.05 0.27,0.05 0.28,0.04 0.28,0.02 c 0.46,0.05 0.96,0.05 0.96,1 0,0.19 -0.21,0.55 -0.61,0.55 -1.19,0 -2.58,-0.16 -3.83,-0.16 -1.7,0 -3.55,0.16 -5.19,0.16 -0.29,0 -0.93,0 -0.93,-0.95 0,-0.55 0.43,-0.6 0.73,-0.6 1.2,-0.04 2.95,-0.45 2.95,-1.93 0,-0.55 -0.25,-0.96 -0.65,-1.66 l -13.46,-23.45 -1.84,24.7 c -0.05,1 -0.14,2.3 3.49,2.34 0.85,0 1.35,0 1.35,1 0,0.5 -0.56,0.55 -0.75,0.55 -2,0 -4.09,-0.16 -6.07,-0.16 -1.16,0 -4.1,0.16 -5.24,0.16 -0.29,0 -0.95,0 -0.95,-1 0,-0.55 0.5,-0.55 1.2,-0.55 2.19,0 2.53,-0.29 2.64,-1.25 l 0.3,-3.82 -12.61,-21.97 -1.89,25.25 c 0,0.59 0,1.75 3.78,1.79 0.5,0 1.05,0 1.05,1 0,0.55 -0.6,0.55 -0.69,0.55 -2,0 -4.09,-0.16 -6.13,-0.16 -1.75,0 -3.54,0.16 -5.23,0.16 -0.25,0 -0.91,0 -0.91,-0.95 0,-0.6 0.46,-0.6 1.25,-0.6 2.5,0 2.55,-0.45 2.64,-1.84 l 2.25,-30.44 c 0.05,-0.9 0.1,-1.29 0.8,-1.29 0.6,0 0.74,0.29 1.19,1.04 l 14.65,25.41 1.85,-25.16 c 0.09,-1.04 0.19,-1.29 0.8,-1.29 0.64,0 0.93,0.5 1.18,0.93 z" /><path
           style="fill:#000000;stroke-width:0"
           inkscape:connector-curvature="0"
           id="path3629"
           d="m 594.66,436.39 0.04,0.16 0.04,0.16 0.04,0.15 0.04,0.14 0.04,0.14 0.04,0.13 0.04,0.12 0.05,0.11 0.05,0.11 0.05,0.11 0.07,0.09 0.06,0.09 0.08,0.09 0.08,0.08 0.09,0.07 0.09,0.07 0.11,0.06 0.12,0.06 0.13,0.05 0.14,0.05 0.15,0.04 0.09,0.02 0.08,0.02 0.09,0.02 0.09,0.02 0.1,0.01 0.1,0.02 0.1,0.01 0.11,0.01 0.11,0.02 0.12,0.01 0.12,0.01 0.12,0 0.13,0.01 0.13,0.01 0.14,0.01 0.14,0 0.15,0 0.15,0.01 0.16,0 0.16,0 0.17,0 0.17,0 c 1.14,0 1.59,0 1.59,1 0,0.55 -0.5,0.55 -1.34,0.55 l -6.58,0 c -1.29,0 -1.34,0 -1.93,-0.95 l -18.19,-28.39 -3.89,28.18 c -0.16,1.16 -0.25,1.16 -1.55,1.16 l -6.83,0 c -0.94,0 -1.48,0 -1.48,-0.95 0,-0.6 0.44,-0.6 1.44,-0.6 0.65,0 1.54,-0.04 2.14,-0.09 0.79,-0.11 1.09,-0.25 1.09,-0.8 0,-0.2 -0.05,-0.36 -0.19,-0.95 l -6.32,-25.36 c -0.5,-2 -1.35,-3.59 -5.4,-3.73 -0.25,0 -0.89,-0.05 -0.89,-0.96 0,-0.43 0.3,-0.59 0.71,-0.59 1.59,0 3.33,0.16 4.96,0.16 1.71,0 3.5,-0.16 5.15,-0.16 0.25,0 0.89,0 0.89,1 0,0.55 -0.55,0.55 -0.89,0.55 -2.85,0.04 -3.4,1.04 -3.4,2.18 0,0.35 0.05,0.6 0.21,1.14 l 6.76,27.16 0.07,0 4.28,-30.89 c 0.09,-0.59 0.14,-1.14 0.75,-1.14 0.55,0 0.84,0.55 1.09,0.89 l 20.13,31.55 0.04,0 -7.12,-28.55 c -0.5,-1.95 -0.59,-2.34 -4.53,-2.34 -0.85,0 -1.39,0 -1.39,-0.96 0,-0.59 0.59,-0.59 0.75,-0.59 1.39,0 4.78,0.16 6.17,0.16 2.04,0 4.19,-0.16 6.23,-0.16 0.3,0 0.94,0 0.94,1 0,0.55 -0.45,0.55 -1.39,0.55 -1.84,0 -3.24,0 -3.24,0.89 0,0.2 0,0.29 0.25,1.2 z" /></g>    </g>
    <g
       transform="matrix(1.2578503,0,0,1.2617411,-5.7634822,-82.059235)"
       id="g3797">
      <g
         style="font-style:normal;font-variant:normal;font-weight:normal;font-stretch:normal;letter-spacing:normal;word-spacing:normal;text-anchor:start;fill:none;stroke:#000000;stroke-width:0.79378045;stroke-linecap:butt;stroke-linejoin:miter;stroke-miterlimit:10.43299961;stroke-dasharray:none;stroke-dashoffset:0;stroke-opacity:1"
         id="g3799"
         transform="matrix(0.4279517,0,0,-0.4279517,-74.891548,645.63775)"
         xml:space="preserve"
         stroke-miterlimit="10.433"
         font-style="normal"
         font-variant="normal"
         font-weight="normal"
         font-stretch="normal"
         font-size-adjust="none"
         letter-spacing="normal"
         word-spacing="normal"><path
           style="fill:#000000;stroke-width:0"
           inkscape:connector-curvature="0"
           d="m 478.19,431.11 0,0.31 -0.01,0.34 -0.02,0.36 -0.02,0.37 -0.03,0.39 -0.04,0.39 -0.04,0.41 -0.06,0.41 -0.07,0.42 -0.07,0.43 -0.09,0.42 -0.1,0.43 -0.12,0.42 -0.12,0.42 -0.14,0.41 -0.16,0.41 -0.17,0.4 -0.18,0.38 -0.2,0.37 -0.22,0.36 -0.23,0.34 -0.25,0.32 -0.28,0.3 -0.29,0.27 -0.31,0.25 -0.16,0.12 -0.17,0.1 -0.17,0.1 -0.18,0.1 -0.18,0.08 -0.19,0.08 -0.19,0.07 -0.2,0.06 -0.21,0.05 -0.21,0.05 -0.22,0.03 -0.22,0.02 -0.23,0.02 -0.23,0 -0.05,-1.09 c 2.44,0 2.73,-3.19 2.73,-6.03 0,-2.44 -0.39,-4.99 -1.59,-9.92 l -10.41,0 c 0.85,3.2 1.85,7.18 3.83,10.72 1.36,2.43 3.19,5.23 5.44,5.23 l 0.05,1.09 c -6.92,0 -14.6,-14.04 -14.6,-25.45 0,-4.69 1.44,-10.22 5.99,-10.22 l 0,1.1 c -1.66,0 -2.71,1.45 -2.71,6.07 0,2.1 0.3,4.99 1.6,9.86 l 10.37,0 c -0.54,-2.28 -1.59,-6.51 -3.5,-10.11 -1.73,-3.39 -3.62,-5.82 -5.76,-5.82 l 0,-1.1 c 7.01,0 14.59,14.3 14.59,25.46 z"
           id="path3801" /><path
           style="fill:#000000;stroke-width:0"
           inkscape:connector-curvature="0"
           d="m 493.94,411.86 -0.09,-0.03 -0.08,-0.02 -0.08,-0.03 -0.08,-0.02 -0.07,-0.04 -0.07,-0.03 -0.08,-0.04 -0.06,-0.04 -0.07,-0.04 -0.06,-0.04 -0.07,-0.05 -0.06,-0.05 -0.05,-0.05 -0.06,-0.05 -0.05,-0.05 -0.05,-0.06 -0.04,-0.05 -0.05,-0.06 -0.04,-0.06 -0.04,-0.06 -0.03,-0.06 -0.03,-0.06 -0.03,-0.06 -0.03,-0.06 -0.02,-0.07 -0.02,-0.06 -0.02,-0.07 -0.02,-0.06 -0.01,-0.07 0,-0.06 -0.01,-0.07 0,-0.06 c 0,-0.81 0.7,-1.12 1.15,-1.12 0.35,0 1.68,0.21 1.68,1.98 0,2.27 -2.5,3.03 -4.63,3.03 -5.44,0 -6.42,-4 -6.42,-5.08 0,-1.29 0.73,-2.12 1.22,-2.54 0.91,-0.71 1.53,-0.83 3.94,-1.25 0.73,-0.14 2.97,-0.57 2.97,-2.3 0,-0.59 -0.4,-1.92 -1.85,-2.8 -1.36,-0.76 -3.08,-0.76 -3.48,-0.76 -1.41,0 -3.39,0.31 -4.19,1.47 1.16,0.14 1.92,1 1.92,1.98 0,0.87 -0.62,1.28 -1.36,1.28 -1.01,0 -2.03,-0.8 -2.03,-2.33 0,-2.09 2.23,-3.37 5.61,-3.37 6.42,0 7.61,4.39 7.61,5.75 0,3.2 -3.53,3.83 -4.81,4.08 -0.32,0.06 -1.19,0.2 -1.39,0.26 -1.3,0.25 -1.93,0.99 -1.93,1.75 0,0.8 0.63,1.74 1.4,2.24 0.93,0.59 2.15,0.65 2.74,0.65 0.74,0 2.55,-0.11 3.32,-1.29 z"
           id="path3803" /><path
           style="fill:#000000;stroke-width:0"
           inkscape:connector-curvature="0"
           d="m 505.57,406.7 0.1,0 0.11,0 0.11,0 0.13,0 0.13,0.01 0.14,0 0.15,0.01 0.15,0 0.17,0.01 0.16,0.01 0.18,0.01 0.18,0.01 0.18,0.01 0.19,0.02 0.38,0.03 0.4,0.04 0.4,0.05 0.41,0.06 0.41,0.07 0.4,0.08 0.19,0.05 0.2,0.04 0.19,0.05 0.19,0.06 0.18,0.05 0.18,0.06 c 2.58,0.91 3.07,2.58 3.07,3.63 0,1.92 -1.93,3.06 -4.33,3.06 l 0,-0.97 c 1.53,0 2.83,-0.76 2.83,-2.09 0,-3.38 -5.89,-3.38 -7.39,-3.38 l -1.71,0 c 1.42,5.05 5.3,5.47 6.27,5.47 l 0,0.97 c -4.17,0 -9.83,-3.2 -9.83,-9.16 0,-3.51 2.2,-6.54 6.28,-6.54 5.89,0 8.64,3.44 8.64,3.94 0,0.2 -0.31,0.59 -0.59,0.59 -0.2,0 -0.28,-0.08 -0.57,-0.36 -2.71,-3.2 -6.79,-3.2 -7.42,-3.2 -2.09,0 -3.48,1.39 -3.48,4.22 0,0.48 0,1.18 0.42,3.09 z"
           id="path3805" /><path
           style="fill:#000000;stroke-width:0"
           inkscape:connector-curvature="0"
           d="m 524.79,405.79 0,0.02 0,0.01 0.01,0.02 0,0.03 0.01,0.03 0.01,0.03 0.01,0.03 0,0.04 0.01,0.04 0.01,0.05 0.02,0.04 0.01,0.06 0.01,0.05 0.02,0.05 0.02,0.12 0.04,0.13 0.03,0.13 0.04,0.15 0.03,0.14 0.04,0.15 0.04,0.15 0.08,0.32 0.08,0.31 0.04,0.15 0.04,0.15 0.04,0.14 0.03,0.14 0.04,0.14 0.03,0.12 0.03,0.12 0.02,0.05 0.01,0.05 0.01,0.05 0.02,0.05 0.01,0.04 0.01,0.04 0.01,0.04 0.01,0.03 0.01,0.03 0,0.03 0.01,0.02 0.01,0.02 0,0.01 0.01,0.01 c 0.07,0.29 1.07,2.02 2.2,2.86 0.37,0.27 1.31,0.97 2.81,0.97 0.34,0 1.22,-0.03 1.92,-0.48 -1.12,-0.31 -1.53,-1.3 -1.53,-1.92 0,-0.77 0.6,-1.29 1.39,-1.29 0.8,0 1.96,0.66 1.96,2.13 0,1.81 -1.93,2.53 -3.71,2.53 -1.81,0 -3.37,-0.72 -4.9,-2.47 -0.63,2.13 -2.75,2.47 -3.6,2.47 -1.28,0 -2.15,-0.8 -2.72,-1.76 -0.79,-1.36 -1.28,-3.4 -1.28,-3.57 0,-0.45 0.49,-0.45 0.6,-0.45 0.48,0 0.51,0.11 0.76,1.05 0.52,2.12 1.19,3.76 2.55,3.76 0.9,0 1.14,-0.76 1.14,-1.7 0,-0.67 -0.31,-1.95 -0.56,-2.89 -0.24,-0.95 -0.58,-2.38 -0.77,-3.14 l -1.11,-4.47 c -0.14,-0.44 -0.34,-1.31 -0.34,-1.42 0,-0.77 0.62,-1.11 1.19,-1.11 0.51,0 1.21,0.31 1.48,1 0.08,0.22 0.45,1.75 0.67,2.62 z"
           id="path3807" /><path
           style="fill:#000000;stroke-width:0"
           inkscape:connector-curvature="0"
           d="m 554.77,411.42 -0.01,0.12 0,0.12 0,0.12 -0.01,0.11 -0.01,0.11 -0.01,0.11 -0.02,0.1 -0.01,0.1 -0.02,0.1 -0.02,0.09 -0.02,0.09 -0.03,0.09 -0.02,0.08 -0.03,0.08 -0.02,0.07 -0.03,0.08 -0.03,0.07 -0.03,0.07 -0.03,0.06 -0.04,0.06 -0.03,0.06 -0.04,0.06 -0.03,0.05 -0.04,0.06 -0.04,0.05 -0.03,0.04 -0.08,0.09 -0.08,0.08 -0.08,0.07 -0.08,0.06 -0.08,0.05 -0.08,0.05 -0.07,0.04 -0.08,0.04 -0.07,0.02 -0.07,0.03 -0.06,0.02 -0.07,0.01 -0.05,0.02 -0.05,0 -0.05,0.01 -0.04,0 -0.03,0.01 -0.02,0 -0.01,0 c -0.91,0 -1.88,-0.96 -1.88,-1.86 0,-0.58 0.34,-0.86 0.59,-1.08 0.6,-0.48 1.29,-1.39 1.29,-2.78 0,-1.56 -2.3,-9.06 -6.44,-9.06 -2.83,0 -2.83,2.51 -2.83,3.11 0,1.59 0.63,3.54 1.92,6.78 0.28,0.73 0.49,1.26 0.49,1.86 0,1.81 -1.54,2.98 -3.32,2.98 -3.48,0 -5.04,-4.76 -5.04,-5.33 0,-0.45 0.48,-0.45 0.59,-0.45 0.49,0 0.52,0.17 0.63,0.56 0.82,2.86 2.32,4.25 3.71,4.25 0.6,0 0.88,-0.39 0.88,-1.22 0,-0.79 -0.28,-1.53 -0.63,-2.32 -1.5,-3.88 -1.87,-5.38 -1.87,-6.63 0,-3.45 2.72,-4.56 5.36,-4.56 5.86,0 8.3,10.14 8.3,13 z"
           id="path3809" /><path
           style="fill:#000000;stroke-width:0"
           inkscape:connector-curvature="0"
           d="m 575.77,408.03 -0.01,0.36 -0.02,0.34 -0.04,0.34 -0.06,0.33 -0.07,0.32 -0.09,0.31 -0.1,0.3 -0.11,0.28 -0.13,0.28 -0.14,0.27 -0.16,0.25 -0.16,0.25 -0.18,0.23 -0.19,0.22 -0.2,0.22 -0.21,0.2 -0.22,0.19 -0.23,0.17 -0.24,0.17 -0.24,0.15 -0.26,0.15 -0.26,0.13 -0.27,0.12 -0.28,0.1 -0.29,0.1 -0.29,0.08 -0.29,0.07 -0.3,0.06 -0.31,0.04 -0.31,0.04 -0.32,0.01 -0.31,0.01 c -5.18,0 -10.05,-4.84 -10.05,-9.61 0,-3.48 2.55,-6.09 6.34,-6.09 l 0.03,0.97 c -1.73,0 -3.48,1.12 -3.48,3.87 0,1.42 0.67,4.85 2.03,6.83 1.5,2.16 3.52,3.06 5.08,3.06 1.89,0 3.48,-1.29 3.48,-3.87 0,-0.83 -0.4,-4.28 -1.95,-6.72 -1.31,-2.05 -3.41,-3.17 -5.16,-3.17 l 0,0 -0.03,-0.97 c 4.99,0 10,4.59 10,9.61 z"
           id="path3811" /></g>    </g>
    <g
       transform="matrix(1.2578503,0,0,1.2617411,-7.3738576,-252.92062)"
       id="g4449">
      <g
         id="g4431">
        <path
           style="font-style:normal;font-variant:normal;font-weight:normal;font-stretch:normal;letter-spacing:normal;word-spacing:normal;text-anchor:start;fill:#000000;stroke:#000000;stroke-width:0;stroke-linecap:butt;stroke-linejoin:miter;stroke-miterlimit:10.43299961;stroke-dasharray:none;stroke-dashoffset:0;stroke-opacity:1"
           inkscape:connector-curvature="0"
           id="path3999"
           d="m 280.52167,607.92634 -0.009,0.03 -0.004,0.0342 -0.009,0.03 -0.004,0.0342 -0.0171,0.0685 -0.0171,0.0685 -0.0128,0.0685 -0.0171,0.0685 -0.0171,0.0685 -0.0171,0.0685 -0.004,0.0342 -0.009,0.0299 -0.009,0.03 -0.004,0.03 -0.009,0.03 -0.004,0.03 -0.004,0.0257 -0.004,0.0257 -0.004,0.0257 -0.004,0.0214 -0.004,0.0214 -0.004,0.0171 -0.004,0.0171 0,0.0171 0,0.0128 0,0.009 c 0,0.38088 0.29957,0.57773 0.61197,0.57773 0.26105,0 0.64193,-0.1669 0.79171,-0.59485 0.0471,-0.0899 0.77031,-2.99138 0.85591,-3.37226 0.1669,-0.70184 0.55633,-2.19111 0.68044,-2.77313 0.0899,-0.27389 0.68472,-1.27957 1.1897,-1.74604 0.17546,-0.1455 0.79171,-0.70184 1.71181,-0.70184 0.54778,0 0.86874,0.25249 0.89014,0.25249 -0.63337,0.10699 -1.10412,0.62481 -1.10412,1.17259 0,0.33808 0.23538,0.74891 0.80883,0.74891 0.57774,0 1.17259,-0.48786 1.17259,-1.25817 0,-0.74892 -0.68472,-1.38229 -1.76744,-1.38229 -1.39084,0 -2.32378,1.03993 -2.73461,1.63478 -0.1669,-0.95433 -0.93294,-1.63478 -1.93862,-1.63478 -0.97573,0 -1.38229,0.82595 -1.57914,1.20683 -0.38088,0.73179 -0.65905,2.00709 -0.65905,2.07556 0,0.21398 0.21398,0.21398 0.26105,0.21398 0.21398,0 0.2311,-0.03 0.35948,-0.49643 0.35948,-1.51067 0.78743,-2.53347 1.55774,-2.53347 0.35948,0 0.66333,0.1669 0.66333,0.97573 0,0.44935 -0.0685,0.689 -0.34236,1.79312 z" />
        <path
           style="font-style:normal;font-variant:normal;font-weight:normal;font-stretch:normal;letter-spacing:normal;word-spacing:normal;text-anchor:start;fill:#000000;stroke:#000000;stroke-width:0;stroke-linecap:butt;stroke-linejoin:miter;stroke-miterlimit:10.43299961;stroke-dasharray:none;stroke-dashoffset:0;stroke-opacity:1"
           inkscape:connector-curvature="0"
           id="path4001"
           d="m 296.81379,601.12619 -0.0385,-0.0727 -0.0385,-0.0728 -0.0385,-0.0685 -0.0385,-0.0685 -0.0428,-0.0685 -0.0428,-0.0685 -0.0471,-0.0642 -0.0471,-0.0599 -0.0471,-0.0642 -0.0514,-0.0556 -0.0514,-0.0599 -0.0514,-0.0556 -0.0556,-0.0514 -0.0556,-0.0514 -0.0599,-0.0471 -0.0599,-0.0471 -0.0599,-0.0471 -0.0642,-0.0385 -0.0642,-0.0428 -0.0685,-0.0342 -0.0685,-0.0342 -0.0685,-0.0342 -0.0727,-0.0257 -0.0728,-0.03 -0.077,-0.0214 -0.077,-0.0214 -0.077,-0.0171 -0.0813,-0.0128 -0.0813,-0.0128 -0.0856,-0.009 -0.0856,-0.004 -0.0899,0 0.0214,0.46647 c 1.38228,0 1.68185,1.74604 1.68185,1.87015 0,0.13694 -0.0385,0.26105 -0.0599,0.36804 l -1.06988,4.18109 c -0.10699,0.38087 -0.10699,0.41939 -0.42796,0.78743 -0.93721,1.17258 -1.81023,1.51067 -2.40508,1.51067 -1.0656,0 -1.36517,-1.16831 -1.36517,-2.00282 0,-1.0656 0.68044,-3.68466 1.16831,-4.66895 0.66332,-1.25818 1.62621,-2.04561 2.47784,-2.04561 l -0.0214,-0.46647 c -2.49496,0 -5.13542,3.12833 -5.13542,6.24382 0,2.00709 1.16831,3.41077 2.83304,3.41077 0.42367,0 1.49355,-0.0899 2.76885,-1.60054 0.17546,0.8987 0.91581,1.60054 1.93862,1.60054 0.74891,0 1.23678,-0.48786 1.57914,-1.17258 0.35948,-0.76604 0.64193,-2.07129 0.64193,-2.10981 0,-0.21397 -0.19258,-0.21397 -0.25249,-0.21397 -0.21398,0 -0.23538,0.0856 -0.30385,0.38515 -0.35948,1.38657 -0.74891,2.64047 -1.61766,2.64047 -0.57345,0 -0.64192,-0.55206 -0.64192,-0.98001 0,-0.47075 0.0428,-0.63765 0.27389,-1.57915 0.24393,-0.89441 0.28244,-1.10839 0.47502,-1.91722 l 0.76176,-2.98282 c 0.15406,-0.59485 0.15406,-0.64193 0.15406,-0.72324 0,-0.36804 -0.26105,-0.58201 -0.62053,-0.58201 -0.50926,0 -0.83023,0.47502 -0.89442,0.94149 z" />
        <path
           style="font-style:normal;font-variant:normal;font-weight:normal;font-stretch:normal;letter-spacing:normal;word-spacing:normal;text-anchor:start;fill:#000000;stroke:#000000;stroke-width:0;stroke-linecap:butt;stroke-linejoin:miter;stroke-miterlimit:10.43299961;stroke-dasharray:none;stroke-dashoffset:0;stroke-opacity:1"
           inkscape:connector-curvature="0"
           id="path4003"
           d="m 304.4998,600.65972 2.0071,0 c 0.41939,0 0.63336,0 0.63336,-0.42795 0,-0.23537 -0.21397,-0.23537 -0.59485,-0.23537 l -1.87871,0 c 0.77032,-3.0299 0.8773,-3.45785 0.8773,-3.58196 0,-0.36376 -0.25677,-0.57773 -0.61625,-0.57773 -0.0685,0 -0.65904,0.0214 -0.8559,0.77031 l -0.83023,3.38938 -2.00281,0 c -0.42795,0 -0.64193,0 -0.64193,0.40227 0,0.26105 0.17118,0.26105 0.59913,0.26105 l 1.87443,0 c -1.53206,6.05124 -1.61765,6.41072 -1.61765,6.80015 0,1.15119 0.80882,1.96002 1.96001,1.96002 2.16972,0 3.38938,-3.11121 3.38938,-3.28239 0,-0.21397 -0.1669,-0.21397 -0.25677,-0.21397 -0.19258,0 -0.21397,0.0642 -0.32096,0.29956 -0.91582,2.21251 -2.04561,2.72606 -2.76885,2.72606 -0.44507,0 -0.65905,-0.27817 -0.65905,-0.98001 0,-0.50927 0.0385,-0.66333 0.12411,-1.02281 z" />
        <path
           style="font-style:normal;font-variant:normal;font-weight:normal;font-stretch:normal;letter-spacing:normal;word-spacing:normal;text-anchor:start;fill:#000000;stroke:#000000;stroke-width:0;stroke-linecap:butt;stroke-linejoin:miter;stroke-miterlimit:10.43299961;stroke-dasharray:none;stroke-dashoffset:0;stroke-opacity:1"
           inkscape:connector-curvature="0"
           id="path4005"
           d="m 311.79638,604.2588 0.0599,-0.004 0.0685,0 0.0685,0 0.077,0 0.0813,-0.004 0.0856,0 0.0899,-0.004 0.0899,-0.004 0.0984,-0.004 0.0984,-0.004 0.1027,-0.004 0.10271,-0.009 0.10699,-0.009 0.11127,-0.009 0.22253,-0.0214 0.2311,-0.03 0.23109,-0.03 0.23537,-0.0428 0.2311,-0.0471 0.22681,-0.0513 0.11127,-0.03 0.11127,-0.0342 0.11127,-0.0342 0.1027,-0.0342 0.10699,-0.0385 0.0984,-0.0428 c 1.49355,-0.64193 1.60054,-1.89583 1.60054,-2.19111 0,-0.9415 -0.80883,-1.81024 -2.28098,-1.81024 l 0,0.46647 c 1.0014,0 1.57914,0.61625 1.57914,1.34377 0,2.21251 -3.41078,2.21251 -4.28808,2.21251 l -0.87302,0 c 0.83451,-3.23532 3.02562,-3.55628 3.58196,-3.55628 l 0,-0.46647 c -2.36658,0 -5.58477,2.06273 -5.58477,5.79447 0,2.17399 1.25818,3.86012 3.3423,3.86012 3.0513,0 4.84441,-2.25958 4.84441,-2.51635 0,-0.12411 -0.12838,-0.27817 -0.25677,-0.27817 -0.10699,0 -0.1455,0.0471 -0.27817,0.21397 -1.68613,2.10981 -4.00562,2.10981 -4.25812,2.10981 -1.66901,0 -1.86159,-1.78884 -1.86159,-2.47356 0,-0.2525 0.0214,-0.91582 0.34237,-2.21679 z" />
      </g>
      <g
         id="g4437"
         transform="translate(10,0)">
        <path
           style="font-style:normal;font-variant:normal;font-weight:normal;font-stretch:normal;letter-spacing:normal;word-spacing:normal;text-anchor:start;fill:#000000;stroke:#000000;stroke-width:0;stroke-linecap:butt;stroke-linejoin:miter;stroke-miterlimit:10.43299961;stroke-dasharray:none;stroke-dashoffset:0;stroke-opacity:1"
           inkscape:connector-curvature="0"
           id="path4007"
           d="m 327.71618,603.36866 -0.004,-0.20542 -0.0128,-0.20114 -0.0214,-0.19686 -0.03,-0.18829 -0.0342,-0.1883 -0.0471,-0.17974 -0.0514,-0.17118 -0.0599,-0.17118 -0.0685,-0.16263 -0.0727,-0.15406 -0.0813,-0.15406 -0.0899,-0.14551 -0.0941,-0.13694 -0.0984,-0.13266 -0.10699,-0.12839 -0.11127,-0.11983 -0.11982,-0.11126 -0.11983,-0.10699 -0.12839,-0.10271 -0.13694,-0.0942 -0.13694,-0.0856 -0.14123,-0.0813 -0.14978,-0.0727 -0.14978,-0.0642 -0.15407,-0.0556 -0.16262,-0.0514 -0.16262,-0.0428 -0.1669,-0.0385 -0.1669,-0.0257 -0.17546,-0.0214 -0.17546,-0.0128 -0.17974,0 -0.0171,0.46647 c 1.23678,0 1.87871,1.0228 1.87871,2.2981 0,0.83879 -0.42796,3.07269 -1.23678,4.46354 -0.74892,1.23678 -1.92151,1.95574 -2.90152,1.95574 l 0,0 c -0.92009,0 -1.85303,-0.65905 -1.85303,-2.32378 0,-1.0442 0.55206,-3.34658 1.23678,-4.43358 1.06132,-1.63906 2.27671,-1.96002 2.87584,-1.96002 l 0.0171,-0.46647 c -2.85444,0 -5.70888,3.02134 -5.70888,6.05124 0,2.1098 1.42508,3.60335 3.41078,3.60335 2.83304,0 5.70887,-2.9443 5.70887,-6.05123 z" />
        <path
           style="font-style:normal;font-variant:normal;font-weight:normal;font-stretch:normal;letter-spacing:normal;word-spacing:normal;text-anchor:start;fill:#000000;stroke:#000000;stroke-width:0;stroke-linecap:butt;stroke-linejoin:miter;stroke-miterlimit:10.43299961;stroke-dasharray:none;stroke-dashoffset:0;stroke-opacity:1"
           inkscape:connector-curvature="0"
           id="path4009"
           d="m 335.86438,600.65972 1.83164,0 c 0.42795,0 0.64192,0 0.64192,-0.42795 0,-0.23537 -0.21397,-0.23537 -0.57345,-0.23537 l -1.77172,0 0.44507,-2.43505 c 0.0899,-0.44507 0.38943,-1.95574 0.51782,-2.21251 0.19258,-0.40655 0.55206,-0.72752 1.00141,-0.72752 0.0813,0 0.63336,0 1.0442,0.38944 -0.93722,0.077 -1.15119,0.82595 -1.15119,1.14691 0,0.48786 0.38088,0.74464 0.79171,0.74464 0.55206,0 1.16831,-0.47075 1.16831,-1.27958 0,-0.98001 -0.98429,-1.46787 -1.85303,-1.46787 -0.72752,0 -2.07129,0.38087 -2.70894,2.49067 -0.1241,0.44935 -0.19258,0.66333 -0.70184,3.35087 l -1.46787,0 c -0.41084,0 -0.64193,0 -0.64193,0.40227 0,0.26105 0.19258,0.26105 0.59057,0.26105 l 1.41224,0 -1.60482,8.41781 c -0.38087,2.06701 -0.74035,4.01419 -1.85303,4.01419 -0.0856,0 -0.61197,0 -1.0228,-0.38944 0.98429,-0.0599 1.17259,-0.83022 1.17259,-1.15119 0,-0.48786 -0.38088,-0.74891 -0.79171,-0.74891 -0.55206,0 -1.16831,0.47074 -1.16831,1.28385 0,0.95861 0.93721,1.47216 1.81023,1.47216 1.17259,0 2.02849,-1.25818 2.40937,-2.07129 0.68044,-1.34377 1.17687,-3.92004 1.19827,-4.0741 z" />
      </g>
      <g
         id="g4441"
         transform="translate(-59.093924,25.253813)">
        <path
           style="font-style:normal;font-variant:normal;font-weight:normal;font-stretch:normal;letter-spacing:normal;word-spacing:normal;text-anchor:start;fill:#000000;stroke:#000000;stroke-width:0;stroke-linecap:butt;stroke-linejoin:miter;stroke-miterlimit:10.43299961;stroke-dasharray:none;stroke-dashoffset:0;stroke-opacity:1"
           inkscape:connector-curvature="0"
           id="path4011"
           d="m 349.22075,601.07911 -0.0642,0 -0.0599,0 -0.0642,0.004 -0.0599,0 -0.0599,0.004 -0.0599,0.009 -0.03,0.004 -0.03,0.004 -0.0299,0.009 -0.03,0.004 -0.0257,0.009 -0.0299,0.009 -0.03,0.009 -0.03,0.009 -0.0257,0.0128 -0.03,0.0128 -0.03,0.0128 -0.0257,0.0171 -0.03,0.0171 -0.03,0.0171 -0.0257,0.0214 -0.03,0.0171 -0.0257,0.0257 -0.03,0.0214 -0.0299,0.0257 -0.0257,0.03 c -0.34236,0.32096 -0.38088,0.68044 -0.38088,0.82595 0,0.51782 0.38088,0.74891 0.78744,0.74891 0.61625,0 1.19826,-0.51354 1.19826,-1.36088 0,-1.04421 -1.00141,-1.83164 -2.52064,-1.83164 -2.87583,0 -5.71315,3.04702 -5.71315,6.05124 0,1.91722 1.24106,3.60335 3.45357,3.60335 3.04702,0 4.84013,-2.25958 4.84013,-2.51635 0,-0.12411 -0.12838,-0.27817 -0.25677,-0.27817 -0.10699,0 -0.1455,0.0471 -0.27817,0.21397 -1.68613,2.10981 -4.00562,2.10981 -4.25812,2.10981 -1.34804,0 -1.9215,-1.03993 -1.9215,-2.32378 0,-0.86874 0.42367,-2.94431 1.15119,-4.2624 0.66333,-1.21538 1.83163,-2.1312 3.00422,-2.1312 0.72752,0 1.53635,0.27389 1.83591,0.84734 z" />
        <path
           style="font-style:normal;font-variant:normal;font-weight:normal;font-stretch:normal;letter-spacing:normal;word-spacing:normal;text-anchor:start;fill:#000000;stroke:#000000;stroke-width:0;stroke-linecap:butt;stroke-linejoin:miter;stroke-miterlimit:10.43299961;stroke-dasharray:none;stroke-dashoffset:0;stroke-opacity:1"
           inkscape:connector-curvature="0"
           id="path4013"
           d="m 356.13645,594.62132 0,0 0,-0.004 0,0 0,-0.004 0,-0.009 0,-0.004 0,-0.009 0,-0.009 -0.004,-0.009 0,-0.009 -0.004,-0.009 0,-0.009 -0.004,-0.009 -0.004,-0.0128 -0.004,-0.009 -0.004,-0.0128 -0.009,-0.009 -0.004,-0.0128 -0.009,-0.009 -0.009,-0.009 -0.009,-0.0128 -0.009,-0.004 -0.004,-0.004 -0.004,-0.004 -0.009,-0.004 -0.004,-0.004 -0.009,-0.004 -0.004,-0.004 -0.009,-0.004 -0.009,-0.004 -0.004,-0.004 -0.009,0 -0.009,-0.004 -0.009,-0.004 -0.009,0 -0.009,-0.004 -0.0128,-0.004 -0.009,0 -0.0128,0 -0.009,-0.004 -0.0128,0 -0.009,0 -0.0128,-0.004 -0.0128,0 -0.0128,0 c -0.49643,0 -2.04561,0.17546 -2.60195,0.21398 -0.17118,0.0214 -0.40656,0.0428 -0.40656,0.42795 0,0.25677 0.19258,0.25677 0.51355,0.25677 1.0228,0 1.0656,0.1455 1.0656,0.35948 l -0.0685,0.42795 -3.08981,12.28221 c -0.0856,0.29529 -0.0856,0.34236 -0.0856,0.47075 0,0.48786 0.42795,0.59485 0.62053,0.59485 0.34236,0 0.68473,-0.25677 0.79171,-0.55633 l 0.398,-1.61766 0.47502,-1.91723 c 0.12839,-0.47074 0.25678,-0.93721 0.36376,-1.43363 0.0385,-0.12839 0.21398,-0.83023 0.2311,-0.95434 0.0599,-0.19685 0.72324,-1.39084 1.45075,-1.96857 0.47075,-0.33809 1.1298,-0.74036 2.04989,-0.74036 0.91582,0 1.14691,0.72324 1.14691,1.48927 0,1.15119 -0.80883,3.47925 -1.32237,4.77594 -0.1669,0.49643 -0.27389,0.74892 -0.27389,1.17687 0,0.99713 0.74036,1.74604 1.74605,1.74604 2.00281,0 2.79452,-3.11121 2.79452,-3.28239 0,-0.21397 -0.19686,-0.21397 -0.25677,-0.21397 -0.21398,0 -0.21398,0.0642 -0.32096,0.38515 -0.32097,1.1298 -1.00141,2.64047 -2.16972,2.64047 -0.36804,0 -0.51782,-0.21398 -0.51782,-0.70184 0,-0.53494 0.19686,-1.04849 0.38944,-1.51495 0.34236,-0.91582 1.29669,-3.45357 1.29669,-4.69035 0,-1.38229 -0.8559,-2.27671 -2.45216,-2.27671 -1.34377,0 -2.37086,0.65477 -3.15829,1.63478 z" />
        <path
           style="font-style:normal;font-variant:normal;font-weight:normal;font-stretch:normal;letter-spacing:normal;word-spacing:normal;text-anchor:start;fill:#000000;stroke:#000000;stroke-width:0;stroke-linecap:butt;stroke-linejoin:miter;stroke-miterlimit:10.43299961;stroke-dasharray:none;stroke-dashoffset:0;stroke-opacity:1"
           inkscape:connector-curvature="0"
           id="path4015"
           d="m 370.24174,601.12619 -0.0342,-0.0727 -0.0385,-0.0728 -0.0385,-0.0685 -0.0428,-0.0685 -0.0428,-0.0685 -0.0428,-0.0685 -0.0428,-0.0642 -0.0471,-0.0599 -0.0514,-0.0642 -0.0471,-0.0556 -0.0513,-0.0599 -0.0556,-0.0556 -0.0556,-0.0514 -0.0556,-0.0514 -0.0556,-0.0471 -0.0599,-0.0471 -0.0642,-0.0471 -0.0599,-0.0385 -0.0642,-0.0428 -0.0685,-0.0342 -0.0685,-0.0342 -0.0685,-0.0342 -0.0727,-0.0257 -0.0728,-0.03 -0.077,-0.0214 -0.077,-0.0214 -0.077,-0.0171 -0.0813,-0.0128 -0.0856,-0.0128 -0.0856,-0.009 -0.0856,-0.004 -0.0899,0 0.0214,0.46647 c 1.38656,0 1.68613,1.74604 1.68613,1.87015 0,0.13694 -0.0385,0.26105 -0.0599,0.36804 l -1.06988,4.18109 c -0.10699,0.38087 -0.10699,0.41939 -0.42795,0.78743 -0.93722,1.17258 -1.81452,1.51067 -2.40937,1.51067 -1.06132,0 -1.36089,-1.16831 -1.36089,-2.00282 0,-1.0656 0.68045,-3.68466 1.16831,-4.66895 0.66333,-1.25818 1.62622,-2.04561 2.47356,-2.04561 l -0.0214,-0.46647 c -2.49068,0 -5.13542,3.12833 -5.13542,6.24382 0,2.00709 1.17259,3.41077 2.83732,3.41077 0.4194,0 1.48927,-0.0899 2.76885,-1.60054 0.17118,0.8987 0.91582,1.60054 1.93862,1.60054 0.74892,0 1.23678,-0.48786 1.57914,-1.17258 0.35948,-0.76604 0.64193,-2.07129 0.64193,-2.10981 0,-0.21397 -0.19686,-0.21397 -0.25677,-0.21397 -0.21398,0 -0.23109,0.0856 -0.29957,0.38515 -0.35948,1.38657 -0.74891,2.64047 -1.61765,2.64047 -0.57346,0 -0.64193,-0.55206 -0.64193,-0.98001 0,-0.47075 0.0385,-0.63765 0.27389,-1.57915 0.23965,-0.89441 0.28245,-1.10839 0.47502,-1.91722 l 0.76176,-2.98282 c 0.15406,-0.59485 0.15406,-0.64193 0.15406,-0.72324 0,-0.36804 -0.26105,-0.58201 -0.62053,-0.58201 -0.50926,0 -0.83023,0.47502 -0.8987,0.94149 z" />
        <path
           style="font-style:normal;font-variant:normal;font-weight:normal;font-stretch:normal;letter-spacing:normal;word-spacing:normal;text-anchor:start;fill:#000000;stroke:#000000;stroke-width:0;stroke-linecap:butt;stroke-linejoin:miter;stroke-miterlimit:10.43299961;stroke-dasharray:none;stroke-dashoffset:0;stroke-opacity:1"
           inkscape:connector-curvature="0"
           id="path4017"
           d="m 375.41568,607.92634 -0.004,0.03 -0.009,0.0342 -0.009,0.03 -0.004,0.0342 -0.0171,0.0685 -0.0128,0.0685 -0.0171,0.0685 -0.0171,0.0685 -0.0171,0.0685 -0.0128,0.0685 -0.009,0.0342 -0.009,0.0299 -0.004,0.03 -0.009,0.03 -0.004,0.03 -0.009,0.03 -0.004,0.0257 -0.004,0.0257 -0.004,0.0257 -0.004,0.0214 -0.004,0.0214 -0.004,0.0171 0,0.0171 -0.004,0.0171 0,0.0128 0,0.009 c 0,0.38088 0.29957,0.57773 0.61625,0.57773 0.26105,0 0.64193,-0.1669 0.78743,-0.59485 0.0257,-0.0471 0.28245,-1.0442 0.40656,-1.57914 l 0.47074,-1.91723 c 0.12411,-0.47074 0.25249,-0.93721 0.35948,-1.43363 0.0856,-0.35948 0.26105,-0.97573 0.28245,-1.06132 0.32096,-0.66333 1.45076,-2.60195 3.47069,-2.60195 0.96289,0 1.15547,0.78743 1.15547,1.48927 0,1.32665 -1.04848,4.0527 -1.39084,4.96852 -0.1883,0.48787 -0.2097,0.74892 -0.2097,0.98429 0,0.99713 0.74463,1.74604 1.74604,1.74604 2.0071,0 2.79881,-3.11121 2.79881,-3.28239 0,-0.21397 -0.19686,-0.21397 -0.26533,-0.21397 -0.20542,0 -0.20542,0.0642 -0.31241,0.38515 -0.42795,1.44648 -1.12979,2.64047 -2.17827,2.64047 -0.36376,0 -0.50927,-0.21398 -0.50927,-0.70184 0,-0.53494 0.19258,-1.04849 0.38088,-1.51495 0.40656,-1.1298 1.30525,-3.47069 1.30525,-4.69035 0,-1.42936 -0.91581,-2.27671 -2.45644,-2.27671 -1.91722,0 -2.96142,1.36089 -3.3209,1.84875 -0.10699,-1.19398 -0.98429,-1.84875 -1.96858,-1.84875 -0.97573,0 -1.38229,0.82595 -1.59626,1.20683 -0.34236,0.73179 -0.64193,1.98569 -0.64193,2.07556 0,0.21398 0.21398,0.21398 0.26105,0.21398 0.21398,0 0.2311,-0.03 0.35948,-0.49643 0.36376,-1.51067 0.79171,-2.53347 1.55774,-2.53347 0.42368,0 0.66333,0.27389 0.66333,0.97573 0,0.44935 -0.0685,0.689 -0.34236,1.79312 z" />
        <path
           style="font-style:normal;font-variant:normal;font-weight:normal;font-stretch:normal;letter-spacing:normal;word-spacing:normal;text-anchor:start;fill:#000000;stroke:#000000;stroke-width:0;stroke-linecap:butt;stroke-linejoin:miter;stroke-miterlimit:10.43299961;stroke-dasharray:none;stroke-dashoffset:0;stroke-opacity:1"
           inkscape:connector-curvature="0"
           id="path4019"
           d="m 396.36819,601.14759 0.004,-0.0257 0.004,-0.0214 0.004,-0.0214 0.004,-0.0257 0.009,-0.0428 0.009,-0.0214 0.004,-0.0257 0.004,-0.0214 0.004,-0.0257 0.004,-0.0214 0,-0.0257 0.004,-0.0257 0.004,-0.0257 0,-0.0128 0,-0.0128 0,-0.0128 0,-0.0128 c 0,-0.36804 -0.25249,-0.58201 -0.61625,-0.58201 -0.21398,0 -0.78743,0.15406 -0.87303,0.92437 -0.38087,-0.79171 -1.13407,-1.34377 -1.98141,-1.34377 l 0.0214,0.46647 c 1.40368,0 1.70324,1.72465 1.70324,1.83163 0,0.10699 -0.0385,0.23538 -0.0642,0.32097 l -1.02708,4.0741 c -0.12411,0.55205 -0.61197,1.08271 -1.08272,1.48927 -0.44507,0.38088 -1.1084,0.77031 -1.72893,0.77031 -1.0656,0 -1.38656,-1.11267 -1.38656,-1.96002 0,-1.03136 0.62481,-3.54344 1.19827,-4.62615 0.57345,-1.05277 1.48927,-1.90011 2.38797,-1.90011 l -0.0214,-0.46647 c -2.43505,0 -5.07551,2.97855 -5.07551,6.05124 0,2.1098 1.29669,3.36798 2.83732,3.36798 1.2539,0 2.25959,-1.00141 2.47356,-1.23678 l 0.0171,0.0214 c -0.44507,1.89582 -0.70184,2.77312 -0.70184,2.81592 -0.0856,0.19258 -0.80883,2.30666 -3.06841,2.30666 -0.40656,0 -1.1084,-0.03 -1.71181,-0.21398 0.64193,-0.19686 0.8773,-0.74891 0.8773,-1.11267 0,-0.33808 -0.23537,-0.74892 -0.80883,-0.74892 -0.47075,0 -1.15119,0.38944 -1.15119,1.23678 0,0.8773 0.78743,1.30526 2.83732,1.30526 2.65758,0 4.19821,-1.66474 4.51917,-2.94431 z" />
        <path
           style="font-style:normal;font-variant:normal;font-weight:normal;font-stretch:normal;letter-spacing:normal;word-spacing:normal;text-anchor:start;fill:#000000;stroke:#000000;stroke-width:0;stroke-linecap:butt;stroke-linejoin:miter;stroke-miterlimit:10.43299961;stroke-dasharray:none;stroke-dashoffset:0;stroke-opacity:1"
           inkscape:connector-curvature="0"
           id="path4021"
           d="m 401.24684,604.2588 0.0599,-0.004 0.0685,0 0.0727,0 0.0728,0 0.0813,-0.004 0.0856,0 0.0899,-0.004 0.0942,-0.004 0.0942,-0.004 0.0984,-0.004 0.10271,-0.004 0.10699,-0.009 0.10698,-0.009 0.10699,-0.009 0.22682,-0.0214 0.22681,-0.03 0.23538,-0.03 0.23109,-0.0428 0.23109,-0.0471 0.2311,-0.0513 0.11126,-0.03 0.11127,-0.0342 0.10699,-0.0342 0.10699,-0.0342 0.10271,-0.0385 0.1027,-0.0428 c 1.48928,-0.64193 1.59626,-1.89583 1.59626,-2.19111 0,-0.9415 -0.80882,-1.81024 -2.28098,-1.81024 l 0,0.46647 c 1.00569,0 1.57914,0.61625 1.57914,1.34377 0,2.21251 -3.41077,2.21251 -4.28379,2.21251 l -0.8773,0 c 0.8345,-3.23532 3.02989,-3.55628 3.58195,-3.55628 l 0,-0.46647 c -2.36657,0 -5.58049,2.06273 -5.58049,5.79447 0,2.17399 1.2539,3.86012 3.3423,3.86012 3.04702,0 4.84014,-2.25958 4.84014,-2.51635 0,-0.12411 -0.12839,-0.27817 -0.25249,-0.27817 -0.10699,0 -0.14979,0.0471 -0.28245,0.21397 -1.68613,2.10981 -4.00563,2.10981 -4.25812,2.10981 -1.66473,0 -1.86159,-1.78884 -1.86159,-2.47356 0,-0.2525 0.0214,-0.91582 0.34236,-2.21679 z" />
      </g>
    </g>
    <g
       transform="matrix(1.2578503,0,0,1.2617411,416.70805,-85.337227)"
       id="g4233">
      <g
         style="font-style:normal;font-variant:normal;font-weight:normal;font-stretch:normal;letter-spacing:normal;word-spacing:normal;text-anchor:start;fill:none;stroke:#000000;stroke-width:0.79378045;stroke-linecap:butt;stroke-linejoin:miter;stroke-miterlimit:10.43299961;stroke-dasharray:none;stroke-dashoffset:0;stroke-opacity:1"
         id="g4235"
         transform="matrix(0.4279517,0,0,-0.4279517,-74.891548,645.63775)"
         xml:space="preserve"
         stroke-miterlimit="10.433"
         font-style="normal"
         font-variant="normal"
         font-weight="normal"
         font-stretch="normal"
         font-size-adjust="none"
         letter-spacing="normal"
         word-spacing="normal"><g
           id="g4287"
           ns0:preamble=""
           ns0:text="$Heading$"
           transform="matrix(4.9324301,0,0,-4.9324301,-652.73095,1059.8672)"
           style="stroke-width:0.16093092"><defs
             id="defs4289"><g
               id="g4291"><symbol
                 id="textext-0ed68d90-0"
                 overflow="visible"
                 style="overflow:visible"><path
                   id="path4294"
                   d=""
                   style="stroke:none"
                   inkscape:connector-curvature="0" /></symbol><symbol
                 id="textext-0ed68d90-1"
                 overflow="visible"
                 style="overflow:visible"><path
                   id="path4297"
                   d="M 7.609375,-6.046875 C 7.703125,-6.40625 7.71875,-6.5 8.4375,-6.5 c 0.265625,0 0.34375,0 0.34375,-0.203125 0,-0.109375 -0.109375,-0.109375 -0.140625,-0.109375 -0.28125,0 -1,0.03125 -1.28125,0.03125 -0.28125,0 -0.984375,-0.03125 -1.28125,-0.03125 -0.078125,0 -0.1875,0 -0.1875,0.203125 0,0.109375 0.09375,0.109375 0.28125,0.109375 0.015625,0 0.203125,0 0.375,0.015625 0.1875,0.03125 0.265625,0.03125 0.265625,0.171875 0,0.03125 0,0.046875 -0.03125,0.1875 l -0.59375,2.421875 -3.046875,0 0.59375,-2.34375 C 3.8125,-6.40625 3.84375,-6.5 4.5625,-6.5 c 0.265625,0 0.34375,0 0.34375,-0.203125 0,-0.109375 -0.109375,-0.109375 -0.140625,-0.109375 -0.28125,0 -1,0.03125 -1.28125,0.03125 -0.28125,0 -0.984375,-0.03125 -1.28125,-0.03125 -0.078125,0 -0.1875,0 -0.1875,0.203125 0,0.109375 0.09375,0.109375 0.28125,0.109375 0.015625,0 0.203125,0 0.375,0.015625 0.171875,0.03125 0.265625,0.03125 0.265625,0.171875 0,0.03125 0,0.0625 -0.03125,0.1875 L 1.5625,-0.78125 c -0.09375,0.390625 -0.109375,0.46875 -0.90625,0.46875 -0.171875,0 -0.265625,0 -0.265625,0.203125 C 0.390625,0 0.515625,0 0.53125,0 0.8125,0 1.515625,-0.03125 1.796875,-0.03125 2,-0.03125 2.21875,-0.015625 2.4375,-0.015625 2.65625,-0.015625 2.875,0 3.078125,0 3.15625,0 3.28125,0 3.28125,-0.203125 3.28125,-0.3125 3.1875,-0.3125 3,-0.3125 c -0.375,0 -0.640625,0 -0.640625,-0.171875 0,-0.0625 0.015625,-0.109375 0.015625,-0.171875 l 0.6875,-2.734375 3.03125,0 c -0.40625,1.65625 -0.640625,2.609375 -0.6875,2.75 C 5.3125,-0.3125 5.125,-0.3125 4.5,-0.3125 c -0.140625,0 -0.234375,0 -0.234375,0.203125 C 4.265625,0 4.390625,0 4.40625,0 4.6875,0 5.390625,-0.03125 5.671875,-0.03125 5.875,-0.03125 6.09375,-0.015625 6.3125,-0.015625 6.53125,-0.015625 6.75,0 6.953125,0 7.03125,0 7.15625,0 7.15625,-0.203125 7.15625,-0.3125 7.0625,-0.3125 6.875,-0.3125 c -0.359375,0 -0.640625,0 -0.640625,-0.171875 0,-0.0625 0.015625,-0.109375 0.03125,-0.171875 z m 0,0"
                   style="stroke:none"
                   inkscape:connector-curvature="0" /></symbol><symbol
                 id="textext-0ed68d90-2"
                 overflow="visible"
                 style="overflow:visible"><path
                   id="path4300"
                   d="m 1.859375,-2.296875 c 0.296875,0 1.03125,-0.03125 1.53125,-0.234375 0.703125,-0.296875 0.75,-0.890625 0.75,-1.03125 0,-0.4375 -0.375,-0.84375 -1.0625,-0.84375 -1.109375,0 -2.625,0.96875 -2.625,2.71875 0,1.015625 0.59375,1.796875 1.578125,1.796875 1.421875,0 2.25,-1.0625 2.25,-1.171875 0,-0.0625 -0.046875,-0.140625 -0.109375,-0.140625 -0.0625,0 -0.078125,0.03125 -0.140625,0.109375 -0.78125,0.984375 -1.875,0.984375 -1.984375,0.984375 -0.78125,0 -0.875,-0.84375 -0.875,-1.15625 0,-0.125 0.015625,-0.421875 0.15625,-1.03125 z m -0.46875,-0.21875 C 1.78125,-4.03125 2.8125,-4.1875 3.078125,-4.1875 c 0.453125,0 0.734375,0.296875 0.734375,0.625 0,1.046875 -1.59375,1.046875 -2.015625,1.046875 z m 0,0"
                   style="stroke:none"
                   inkscape:connector-curvature="0" /></symbol><symbol
                 id="textext-0ed68d90-3"
                 overflow="visible"
                 style="overflow:visible"><path
                   id="path4303"
                   d="M 3.71875,-3.765625 C 3.53125,-4.140625 3.25,-4.40625 2.796875,-4.40625 c -1.15625,0 -2.390625,1.46875 -2.390625,2.921875 0,0.9375 0.546875,1.59375 1.3125,1.59375 0.203125,0 0.703125,-0.046875 1.296875,-0.75 0.078125,0.421875 0.4375,0.75 0.90625,0.75 0.359375,0 0.578125,-0.234375 0.75,-0.546875 0.15625,-0.359375 0.296875,-0.96875 0.296875,-0.984375 0,-0.109375 -0.09375,-0.109375 -0.125,-0.109375 -0.09375,0 -0.109375,0.046875 -0.140625,0.1875 -0.171875,0.640625 -0.34375,1.234375 -0.75,1.234375 -0.28125,0 -0.296875,-0.265625 -0.296875,-0.453125 0,-0.21875 0.015625,-0.3125 0.125,-0.75 C 3.890625,-1.71875 3.90625,-1.828125 4,-2.203125 L 4.359375,-3.59375 c 0.0625,-0.28125 0.0625,-0.296875 0.0625,-0.34375 0,-0.171875 -0.109375,-0.265625 -0.28125,-0.265625 -0.25,0 -0.390625,0.21875 -0.421875,0.4375 z M 3.078125,-1.1875 C 3.015625,-1 3.015625,-0.984375 2.875,-0.8125 2.4375,-0.265625 2.03125,-0.109375 1.75,-0.109375 c -0.5,0 -0.640625,-0.546875 -0.640625,-0.9375 0,-0.5 0.3125,-1.71875 0.546875,-2.1875 0.3125,-0.578125 0.75,-0.953125 1.15625,-0.953125 0.640625,0 0.78125,0.8125 0.78125,0.875 0,0.0625 -0.015625,0.125 -0.03125,0.171875 z m 0,0"
                   style="stroke:none"
                   inkscape:connector-curvature="0" /></symbol><symbol
                 id="textext-0ed68d90-4"
                 overflow="visible"
                 style="overflow:visible"><path
                   id="path4306"
                   d="m 5.140625,-6.8125 c 0,0 0,-0.109375 -0.125,-0.109375 -0.15625,0 -1.09375,0.09375 -1.265625,0.109375 -0.078125,0.015625 -0.140625,0.0625 -0.140625,0.1875 0,0.125 0.09375,0.125 0.234375,0.125 0.484375,0 0.5,0.0625 0.5,0.171875 L 4.3125,-6.125 3.71875,-3.765625 C 3.53125,-4.140625 3.25,-4.40625 2.796875,-4.40625 c -1.15625,0 -2.390625,1.46875 -2.390625,2.921875 0,0.9375 0.546875,1.59375 1.3125,1.59375 0.203125,0 0.703125,-0.046875 1.296875,-0.75 0.078125,0.421875 0.4375,0.75 0.90625,0.75 0.359375,0 0.578125,-0.234375 0.75,-0.546875 0.15625,-0.359375 0.296875,-0.96875 0.296875,-0.984375 0,-0.109375 -0.09375,-0.109375 -0.125,-0.109375 -0.09375,0 -0.109375,0.046875 -0.140625,0.1875 -0.171875,0.640625 -0.34375,1.234375 -0.75,1.234375 -0.28125,0 -0.296875,-0.265625 -0.296875,-0.453125 0,-0.25 0.015625,-0.3125 0.046875,-0.484375 z m -2.0625,5.625 C 3.015625,-1 3.015625,-0.984375 2.875,-0.8125 2.4375,-0.265625 2.03125,-0.109375 1.75,-0.109375 c -0.5,0 -0.640625,-0.546875 -0.640625,-0.9375 0,-0.5 0.3125,-1.71875 0.546875,-2.1875 0.3125,-0.578125 0.75,-0.953125 1.15625,-0.953125 0.640625,0 0.78125,0.8125 0.78125,0.875 0,0.0625 -0.015625,0.125 -0.03125,0.171875 z m 0,0"
                   style="stroke:none"
                   inkscape:connector-curvature="0" /></symbol><symbol
                 id="textext-0ed68d90-5"
                 overflow="visible"
                 style="overflow:visible"><path
                   id="path4309"
                   d="m 2.828125,-6.234375 c 0,-0.203125 -0.140625,-0.359375 -0.359375,-0.359375 -0.28125,0 -0.546875,0.265625 -0.546875,0.53125 0,0.1875 0.140625,0.359375 0.375,0.359375 0.234375,0 0.53125,-0.234375 0.53125,-0.53125 z m -0.75,3.75 c 0.109375,-0.28125 0.109375,-0.3125 0.21875,-0.578125 0.078125,-0.203125 0.125,-0.34375 0.125,-0.53125 0,-0.4375 -0.3125,-0.8125 -0.8125,-0.8125 -0.9375,0 -1.3125,1.453125 -1.3125,1.53125 0,0.109375 0.09375,0.109375 0.109375,0.109375 0.109375,0 0.109375,-0.03125 0.15625,-0.1875 0.28125,-0.9375 0.671875,-1.234375 1.015625,-1.234375 0.078125,0 0.25,0 0.25,0.3125 0,0.21875 -0.078125,0.421875 -0.109375,0.53125 -0.078125,0.25 -0.53125,1.40625 -0.6875,1.84375 -0.109375,0.25 -0.234375,0.578125 -0.234375,0.796875 0,0.46875 0.34375,0.8125 0.8125,0.8125 0.9375,0 1.3125,-1.4375 1.3125,-1.53125 0,-0.109375 -0.09375,-0.109375 -0.125,-0.109375 -0.09375,0 -0.09375,0.03125 -0.140625,0.1875 -0.1875,0.625 -0.515625,1.234375 -1.015625,1.234375 -0.171875,0 -0.25,-0.09375 -0.25,-0.328125 0,-0.25 0.0625,-0.390625 0.296875,-1 z m 0,0"
                   style="stroke:none"
                   inkscape:connector-curvature="0" /></symbol><symbol
                 id="textext-0ed68d90-6"
                 overflow="visible"
                 style="overflow:visible"><path
                   id="path4312"
                   d="m 0.875,-0.59375 c -0.03125,0.15625 -0.09375,0.390625 -0.09375,0.4375 0,0.171875 0.140625,0.265625 0.296875,0.265625 0.125,0 0.296875,-0.078125 0.375,-0.28125 0,-0.015625 0.125,-0.484375 0.1875,-0.734375 l 0.21875,-0.890625 C 1.90625,-2.03125 1.96875,-2.25 2.03125,-2.46875 c 0.03125,-0.171875 0.109375,-0.46875 0.125,-0.5 0.140625,-0.3125 0.671875,-1.21875 1.625,-1.21875 0.453125,0 0.53125,0.375 0.53125,0.703125 0,0.609375 -0.484375,1.890625 -0.640625,2.3125 C 3.578125,-0.9375 3.5625,-0.8125 3.5625,-0.703125 c 0,0.46875 0.359375,0.8125 0.828125,0.8125 0.9375,0 1.296875,-1.453125 1.296875,-1.53125 0,-0.109375 -0.078125,-0.109375 -0.109375,-0.109375 -0.109375,0 -0.109375,0.03125 -0.15625,0.1875 -0.203125,0.671875 -0.53125,1.234375 -1.015625,1.234375 -0.171875,0 -0.234375,-0.09375 -0.234375,-0.328125 0,-0.25 0.078125,-0.484375 0.171875,-0.703125 0.1875,-0.53125 0.609375,-1.625 0.609375,-2.203125 0,-0.65625 -0.421875,-1.0625 -1.140625,-1.0625 -0.90625,0 -1.390625,0.640625 -1.5625,0.875 -0.046875,-0.5625 -0.453125,-0.875 -0.921875,-0.875 -0.453125,0 -0.640625,0.390625 -0.734375,0.5625 C 0.421875,-3.5 0.296875,-2.90625 0.296875,-2.875 c 0,0.109375 0.09375,0.109375 0.109375,0.109375 0.109375,0 0.109375,-0.015625 0.171875,-0.234375 0.171875,-0.703125 0.375,-1.1875 0.734375,-1.1875 0.1875,0 0.296875,0.125 0.296875,0.453125 0,0.21875 -0.03125,0.328125 -0.15625,0.84375 z m 0,0"
                   style="stroke:none"
                   inkscape:connector-curvature="0" /></symbol><symbol
                 id="textext-0ed68d90-7"
                 overflow="visible"
                 style="overflow:visible"><path
                   id="path4315"
                   d="M 4.6875,-3.765625 C 4.703125,-3.8125 4.71875,-3.875 4.71875,-3.9375 c 0,-0.171875 -0.109375,-0.265625 -0.28125,-0.265625 -0.09375,0 -0.375,0.0625 -0.40625,0.421875 -0.1875,-0.359375 -0.53125,-0.625 -0.9375,-0.625 -1.125,0 -2.359375,1.390625 -2.359375,2.828125 0,0.984375 0.59375,1.578125 1.3125,1.578125 0.59375,0 1.0625,-0.46875 1.15625,-0.578125 L 3.21875,-0.5625 C 3.015625,0.3125 2.890625,0.734375 2.890625,0.75 2.84375,0.84375 2.515625,1.828125 1.453125,1.828125 1.265625,1.828125 0.9375,1.8125 0.65625,1.71875 0.953125,1.640625 1.0625,1.375 1.0625,1.203125 c 0,-0.15625 -0.109375,-0.34375 -0.375,-0.34375 -0.21875,0 -0.53125,0.171875 -0.53125,0.578125 0,0.40625 0.359375,0.609375 1.3125,0.609375 1.25,0 1.96875,-0.78125 2.125,-1.375 z M 3.40625,-1.28125 C 3.34375,-1.015625 3.109375,-0.765625 2.890625,-0.578125 2.6875,-0.40625 2.375,-0.21875 2.078125,-0.21875 c -0.5,0 -0.640625,-0.515625 -0.640625,-0.921875 0,-0.46875 0.28125,-1.65625 0.5625,-2.15625 C 2.265625,-3.78125 2.6875,-4.1875 3.109375,-4.1875 c 0.65625,0 0.796875,0.8125 0.796875,0.859375 0,0.046875 -0.015625,0.109375 -0.03125,0.140625 z m 0,0"
                   style="stroke:none"
                   inkscape:connector-curvature="0" /></symbol></g></defs><g
             id="textext-0ed68d90-8"
             style="stroke-width:0.16093092"><g
               id="g4318"
               style="fill:#000000;fill-opacity:1;stroke-width:0.16093092"><use
                 id="use4320"
                 y="134.765"
                 x="223.43201"
                 xlink:href="#textext-0ed68d90-1"
                 width="100%"
                 height="100%"
                 style="stroke-width:0.16093092" /></g><g
               id="g4322"
               style="fill:#000000;fill-opacity:1;stroke-width:0.16093092"><use
                 id="use4324"
                 y="134.765"
                 x="232.52087"
                 xlink:href="#textext-0ed68d90-2"
                 width="100%"
                 height="100%"
                 style="stroke-width:0.16093092" /><use
                 id="use4326"
                 y="134.765"
                 x="237.15947"
                 xlink:href="#textext-0ed68d90-3"
                 width="100%"
                 height="100%"
                 style="stroke-width:0.16093092" /><use
                 id="use4328"
                 y="134.765"
                 x="242.42569"
                 xlink:href="#textext-0ed68d90-4"
                 width="100%"
                 height="100%"
                 style="stroke-width:0.16093092" /><use
                 id="use4330"
                 y="134.765"
                 x="247.61124"
                 xlink:href="#textext-0ed68d90-5"
                 width="100%"
                 height="100%"
                 style="stroke-width:0.16093092" /><use
                 id="use4332"
                 y="134.765"
                 x="251.04335"
                 xlink:href="#textext-0ed68d90-6"
                 width="100%"
                 height="100%"
                 style="stroke-width:0.16093092" /><use
                 id="use4334"
                 y="134.765"
                 x="257.02289"
                 xlink:href="#textext-0ed68d90-7"
                 width="100%"
                 height="100%"
                 style="stroke-width:0.16093092" /></g></g></g></g>    </g>
    <path
       style="fill:none;stroke:#000000;stroke-width:0.99999994px;stroke-linecap:butt;stroke-linejoin:miter;stroke-opacity:1;marker-end:url(#Arrow1Lend)"
       d="m -56.890103,525.04089 c 120.92504,0 120.92504,0 120.92504,0"
       id="path5521-0"
       inkscape:connector-curvature="0" />
    <path
       inkscape:connector-curvature="0"
       id="path4400"
       d="m 131.16177,525.04089 c 139.98433,0 139.98433,0 139.98433,0"
       style="fill:none;stroke:#000000;stroke-width:0.99999994px;stroke-linecap:butt;stroke-linejoin:miter;stroke-opacity:1;marker-end:url(#Arrow1Lend)" />
    <path
       style="fill:none;stroke:#000000;stroke-width:0.99999994px;stroke-linecap:butt;stroke-linejoin:miter;stroke-opacity:1;marker-end:url(#Arrow1Lend)"
       d="m 335.73171,525.04089 c 146.33745,0 146.33745,0 146.33745,0"
       id="path4402"
       inkscape:connector-curvature="0" />
    <path
       inkscape:connector-curvature="0"
       id="path4404"
       d="m 550.46659,525.04089 c 170.47924,0 170.47924,0 170.47924,0"
       style="fill:none;stroke:#000000;stroke-width:0.99999994px;stroke-linecap:butt;stroke-linejoin:miter;stroke-opacity:1;marker-end:url(#Arrow1Lend)" />
  </g>
</svg>
