<?xml version="1.0" encoding="UTF-8" standalone="no"?>
<!-- Created with Inkscape (http://www.inkscape.org/) -->

<svg
   xmlns:dc="http://purl.org/dc/elements/1.1/"
   xmlns:cc="http://creativecommons.org/ns#"
   xmlns:rdf="http://www.w3.org/1999/02/22-rdf-syntax-ns#"
   xmlns:svg="http://www.w3.org/2000/svg"
   xmlns="http://www.w3.org/2000/svg"
   xmlns:sodipodi="http://sodipodi.sourceforge.net/DTD/sodipodi-0.dtd"
   xmlns:inkscape="http://www.inkscape.org/namespaces/inkscape"
   width="630.66791"
   height="586.95947"
   id="svg2"
   version="1.1"
   inkscape:version="0.91 r13725"
   sodipodi:docname="brakeDescription.svg">
  <sodipodi:namedview
     id="base"
     pagecolor="#ffffff"
     bordercolor="#666666"
     borderopacity="1.0"
     inkscape:pageopacity="0.0"
     inkscape:pageshadow="2"
     inkscape:zoom="0.98994949"
     inkscape:cx="298.9346"
     inkscape:cy="271.95781"
     inkscape:document-units="px"
     inkscape:current-layer="layer1"
     showgrid="false"
     inkscape:snap-center="false"
     inkscape:snap-object-midpoints="false"
     inkscape:window-width="1600"
     inkscape:window-height="847"
     inkscape:window-x="-8"
     inkscape:window-y="-8"
     inkscape:window-maximized="1"
     fit-margin-top="0"
     fit-margin-left="0"
     fit-margin-right="0"
     fit-margin-bottom="0" />
  <defs
     id="defs4">
    <marker
       style="overflow:visible"
       id="Arrow1Lend"
       refX="0"
       refY="0"
       orient="auto"
       inkscape:stockid="Arrow1Lend">
      <path
         transform="matrix(-0.8,0,0,-0.8,-10,0)"
         style="fill-rule:evenodd;stroke:#000000;stroke-width:1pt"
         d="M 0,0 5,-5 -12.5,0 5,5 0,0 Z"
         id="path3948"
         inkscape:connector-curvature="0" />
    </marker>
    <marker
       style="overflow:visible"
       id="Arrow1Mstart"
       refX="0"
       refY="0"
       orient="auto"
       inkscape:stockid="Arrow1Mstart">
      <path
         transform="matrix(0.4,0,0,0.4,4,0)"
         style="fill-rule:evenodd;stroke:#000000;stroke-width:1pt"
         d="M 0,0 5,-5 -12.5,0 5,5 0,0 Z"
         id="path3951"
         inkscape:connector-curvature="0" />
    </marker>
    <marker
       style="overflow:visible"
       id="Arrow2Lstart"
       refX="0"
       refY="0"
       orient="auto"
       inkscape:stockid="Arrow2Lstart">
      <path
         transform="matrix(1.1,0,0,1.1,1.1,0)"
         d="M 8.7185878,4.0337352 -2.2072895,0.01601326 8.7185884,-4.0017078 c -1.7454984,2.3720609 -1.7354408,5.6174519 -6e-7,8.035443 z"
         style="fill-rule:evenodd;stroke-width:0.625;stroke-linejoin:round"
         id="path3963"
         inkscape:connector-curvature="0" />
    </marker>
    <marker
       style="overflow:visible"
       id="Arrow1Mend"
       refX="0"
       refY="0"
       orient="auto"
       inkscape:stockid="Arrow1Mend">
      <path
         transform="matrix(-0.4,0,0,-0.4,-4,0)"
         style="fill-rule:evenodd;stroke:#000000;stroke-width:1pt"
         d="M 0,0 5,-5 -12.5,0 5,5 0,0 Z"
         id="path3954"
         inkscape:connector-curvature="0" />
    </marker>
    <marker
       style="overflow:visible"
       id="Arrow1Lstart"
       refX="0"
       refY="0"
       orient="auto"
       inkscape:stockid="Arrow1Lstart">
      <path
         transform="matrix(0.8,0,0,0.8,10,0)"
         style="fill-rule:evenodd;stroke:#000000;stroke-width:1pt"
         d="M 0,0 5,-5 -12.5,0 5,5 0,0 Z"
         id="path3945"
         inkscape:connector-curvature="0" />
    </marker>
    <marker
       style="overflow:visible"
       id="Arrow1Mstart-2"
       refX="0"
       refY="0"
       orient="auto"
       inkscape:stockid="Arrow1Mstart">
      <path
         inkscape:connector-curvature="0"
         transform="matrix(0.4,0,0,0.4,4,0)"
         style="fill-rule:evenodd;stroke:#000000;stroke-width:1pt"
         d="M 0,0 5,-5 -12.5,0 5,5 0,0 Z"
         id="path3951-6" />
    </marker>
    <marker
       style="overflow:visible"
       id="Arrow1Mend-2"
       refX="0"
       refY="0"
       orient="auto"
       inkscape:stockid="Arrow1Mend">
      <path
         inkscape:connector-curvature="0"
         transform="matrix(-0.4,0,0,-0.4,-4,0)"
         style="fill-rule:evenodd;stroke:#000000;stroke-width:1pt"
         d="M 0,0 5,-5 -12.5,0 5,5 0,0 Z"
         id="path3954-4" />
    </marker>
  </defs>
  <metadata
     id="metadata7">
    <rdf:RDF>
      <cc:Work
         rdf:about="">
        <dc:format>image/svg+xml</dc:format>
        <dc:type
           rdf:resource="http://purl.org/dc/dcmitype/StillImage" />
        <dc:title></dc:title>
      </cc:Work>
    </rdf:RDF>
  </metadata>
  <g
     id="layer1"
     inkscape:groupmode="layer"
     inkscape:label="Layer 1"
     transform="translate(30.499996,-369.63745)">
    <g
       id="g8479"
       transform="matrix(0.93629897,0,0,0.93630849,18.152518,38.582172)">
      <rect
         style="fill:none;stroke:#000000;stroke-width:1.06802952;stroke-linecap:butt;stroke-linejoin:round;stroke-miterlimit:4;stroke-dasharray:none;stroke-dashoffset:0;stroke-opacity:1"
         id="rect3003"
         width="117.14286"
         height="30"
         x="-51.42857"
         y="380.93359" />
      <circle
         transform="translate(-75.714286,41.428571)"
         style="fill:#ffffff;fill-opacity:1;stroke:#000000;stroke-width:1.06802952;stroke-linecap:butt;stroke-linejoin:round;stroke-miterlimit:4;stroke-dasharray:none;stroke-dashoffset:0;stroke-opacity:1"
         id="path5159"
         cx="82.857147"
         cy="354.50504"
         r="7.8571415" />
    </g>
    <g
       id="g6445"
       inkscape:label="Gear15"
       transform="matrix(0.46473165,-0.20488814,0,2.027273,569.65777,767.18912)">
      <path
         id="path6447"
         style="fill:none;stroke:#000000;stroke-width:1.03025043"
         d="m 49.551,-5.57 5.463,-0.614 2.205,0.17 7.917,2.998 0,6.032 -7.917,2.998 -2.205,0.17 -5.463,-0.614 -2.018,9.496 5.24,1.661 1.946,1.052 6.013,5.959 -2.454,5.511 -8.452,-0.482 -2.083,-0.742 -4.741,-2.783 -5.707,7.855 4.112,3.649 1.349,1.752 3.07,7.889 -4.483,4.037 -7.525,-3.878 -1.602,-1.525 -3.199,-4.471 -8.408,4.855 2.272,5.006 0.52,2.149 -0.404,8.456 -5.738,1.864 -5.297,-6.603 -0.843,-2.044 -1.104,-5.386 -9.656,1.015 0.04,5.497 -0.399,2.176 -3.809,7.559 -5.999,-0.63 -2.154,-8.187 0.062,-2.21 1.181,-5.369 -9.233,-3.001 -2.2,5.039 -1.249,1.824 -6.555,5.358 -5.224,-3.017 1.362,-8.355 0.956,-1.994 3.263,-4.424 -7.215,-6.497 -4.059,3.708 -1.883,1.159 -8.167,2.228 -3.546,-4.88 4.643,-7.079 1.684,-1.433 4.781,-2.714 -3.949,-8.87 -5.216,1.737 -2.193,0.292 -8.366,-1.286 -1.255,-5.901 7.121,-4.578 2.121,-0.624 5.472,-0.536 0,-9.708 -5.472,-0.536 -2.121,-0.624 -7.121,-4.578 1.255,-5.901 8.366,-1.286 2.193,0.292 5.216,1.737 3.949,-8.87 -4.781,-2.714 -1.684,-1.433 -4.643,-7.079 3.546,-4.88 8.167,2.228 1.883,1.159 4.059,3.708 7.215,-6.497 -3.263,-4.424 -0.956,-1.994 -1.362,-8.355 5.224,-3.017 6.555,5.358 1.249,1.824 2.2,5.039 9.233,-3.001 -1.181,-5.369 -0.062,-2.21 2.154,-8.187 5.999,-0.63 3.809,7.559 0.399,2.176 -0.04,5.497 9.656,1.015 1.104,-5.386 0.843,-2.044 5.297,-6.603 5.738,1.864 0.404,8.456 -0.52,2.149 -2.272,5.006 8.408,4.855 3.199,-4.471 1.602,-1.525 7.525,-3.878 4.483,4.037 -3.07,7.889 -1.349,1.752 -4.112,3.649 5.707,7.855 4.741,-2.783 2.083,-0.742 8.452,-0.482 2.454,5.511 -6.013,5.959 -1.946,1.052 -5.24,1.661 z"
         inkscape:connector-curvature="0" />
    </g>
    <g
       transform="matrix(-1.4148038,1.9916372,1.0058225,4.0123083,676.2338,-1405.4869)"
       id="g5176">
      <path
         inkscape:connector-curvature="0"
         id="path5178"
         style="fill:#d3d7cf;fill-opacity:1;fill-rule:nonzero;stroke:#000000;stroke-width:0.36084715;stroke-linecap:butt;stroke-linejoin:round;stroke-miterlimit:4;stroke-dasharray:none;stroke-opacity:1"
         d="m 428.99945,306.01972 c 3.5475,4.81971 13.92906,16.36239 -6.34345,23.01128 -4.269,0.371 -12.777,-11.633 -13.082,-21.695 -0.347,-11.41 11.563,-28.102 20.446,-19.887 6.863,6.348 -1.57455,9.61372 -1.02055,18.57072 z"
         sodipodi:nodetypes="ccccc" />
    </g>
    <rect
       y="764.37628"
       x="359.01431"
       height="11.349773"
       width="208.08182"
       id="rect2999"
       style="fill:#ffffff;stroke:#000000;stroke-width:1;stroke-linecap:butt;stroke-linejoin:round;stroke-miterlimit:4;stroke-dasharray:none;stroke-dashoffset:0;stroke-opacity:1" />
    <g
       id="g6496"
       transform="matrix(0.93629897,0,0,0.93630849,-13.681646,38.582172)">
      <rect
         style="fill:none;stroke:#000000;stroke-width:1.06802952;stroke-linecap:butt;stroke-linejoin:round;stroke-miterlimit:4;stroke-dasharray:none;stroke-dashoffset:0;stroke-opacity:1"
         id="rect2987"
         width="91.166267"
         height="10.859139"
         x="22.262688"
         y="628.9906"
         transform="matrix(0.97783277,-0.20938738,0.20938738,0.97783277,0,0)" />
      <rect
         style="fill:#ffffff;stroke:#000000;stroke-width:1.06802952;stroke-linecap:butt;stroke-linejoin:round;stroke-miterlimit:4;stroke-dasharray:none;stroke-dashoffset:0;stroke-opacity:1"
         id="rect2985"
         width="10"
         height="268.57144"
         x="-42.084396"
         y="400.43073"
         transform="matrix(0.95349013,-0.30142425,0.30142425,0.95349013,0,0)" />
      <circle
         style="fill:#ffffff;fill-opacity:1;stroke:#000000;stroke-width:0.89861786;stroke-linecap:butt;stroke-linejoin:round;stroke-miterlimit:4;stroke-dasharray:none;stroke-dashoffset:0;stroke-opacity:1"
         id="path3009"
         transform="matrix(1.1885246,0,0,1.1885246,-58.031638,-106.46887)"
         cx="188.33032"
         cy="632.32812"
         r="7.7024131" />
    </g>
    <path
       inkscape:connector-curvature="0"
       id="path3062"
       d="m 284.06204,609.60989 48.28555,-0.005 0,0"
       style="fill:#ffffff;stroke:#000000;stroke-width:1.00000012px;stroke-linecap:butt;stroke-linejoin:miter;stroke-opacity:1;marker-start:url(#Arrow1Mstart);marker-end:url(#Arrow1Mend)" />
    <ellipse
       transform="matrix(0.71637138,0,0,0.90520449,46.116641,492.24233)"
       id="path5161"
       style="fill:#ffffff;fill-opacity:1;stroke:#000000;stroke-width:1.24181688;stroke-linecap:butt;stroke-linejoin:round;stroke-miterlimit:4;stroke-dasharray:none;stroke-dashoffset:0;stroke-opacity:1"
       cx="434.28571"
       cy="308.07648"
       rx="51.42857"
       ry="204.28572" />
    <ellipse
       style="fill:none;stroke:#000000;stroke-width:16.6263504;stroke-linecap:butt;stroke-linejoin:round;stroke-miterlimit:4;stroke-dasharray:none;stroke-dashoffset:0;stroke-opacity:1"
       id="path5163"
       transform="matrix(0.06499861,0,0,0.05565473,328.99852,753.96862)"
       cx="434.28571"
       cy="308.07648"
       rx="51.42857"
       ry="204.28572" />
    <g
       id="g110"
       transform="matrix(-1.4148038,1.9916372,1.0058225,4.0123083,657.50782,-1405.4869)">
      <path
         sodipodi:nodetypes="ccccc"
         d="m 428.99945,306.01972 c 3.5475,4.81971 13.92906,16.36239 -6.34345,23.01128 -4.269,0.371 -12.777,-11.633 -13.082,-21.695 -0.347,-11.41 11.563,-28.102 20.446,-19.887 6.863,6.348 -1.57455,9.61372 -1.02055,18.57072 z"
         style="fill:#d3d7cf;fill-opacity:1;fill-rule:nonzero;stroke:#000000;stroke-width:0.36084715;stroke-linecap:butt;stroke-linejoin:round;stroke-miterlimit:4;stroke-dasharray:none;stroke-opacity:1"
         id="path112"
         inkscape:connector-curvature="0" />
    </g>
    <g
       transform="matrix(1.8515454,-0.14114838,0.25827937,1.2266713,-460.16601,-71.496809)"
       id="g3157"
       style="fill:#ffffff">
      <path
         inkscape:connector-curvature="0"
         style="fill:#ffffff;stroke:#000000;stroke-width:0.65828049;stroke-linecap:butt;stroke-linejoin:round;stroke-miterlimit:4;stroke-dasharray:none;stroke-dashoffset:0;stroke-opacity:1"
         d="m 302.6875,597.0625 -2.0625,17.0625 52.125,6.28125 0,-0.0937 c 0.97634,-0.2542 2.16291,-3.79859 2.71875,-8.25 0.58656,-4.69739 0.25309,-8.62475 -0.75,-8.75 -0.0627,-0.008 -0.12282,0.01 -0.1875,0.0312 L 302.6875,597.0625 Z"
         id="rect2991" />
      <ellipse
         style="fill:#ffffff;fill-opacity:1;stroke:#000000;stroke-width:0.7122618;stroke-linecap:butt;stroke-linejoin:round;stroke-miterlimit:4;stroke-dasharray:none;stroke-dashoffset:0;stroke-opacity:1"
         id="path3136"
         transform="matrix(0.84758439,0.1058366,-0.12390627,0.99229393,122.86939,-34.337062)"
         cx="300.71429"
         cy="612.7193"
         rx="2.1428571"
         ry="8.5714283" />
    </g>
    <g
       id="g6491"
       transform="matrix(0.93629897,0,0,0.93630849,-13.681646,38.582172)">
      <path
         inkscape:connector-curvature="0"
         style="fill:#ffffff;stroke:#000000;stroke-width:1.06802952;stroke-linecap:butt;stroke-linejoin:round;stroke-miterlimit:4;stroke-dasharray:none;stroke-dashoffset:0;stroke-opacity:1"
         d="m 220.2498,557.57508 0,144.28125 0.0625,0 c 0,5.51947 19.8221,10 44.25,10 24.4279,0 44.21875,-4.48053 44.21875,-10 l 0.0625,0 0,-53.21875 -39.71875,0 0,-37.84375 39.71875,0 0,-53.21875 -88.59375,0 z"
         id="path5785-6" />
      <ellipse
         style="fill:#ffffff;fill-opacity:1;stroke:#000000;stroke-width:0.76105136;stroke-linecap:butt;stroke-linejoin:round;stroke-miterlimit:4;stroke-dasharray:none;stroke-dashoffset:0;stroke-opacity:1"
         id="path5785"
         transform="matrix(0.98410753,0,0,2.0012257,-146.3217,-320.20161)"
         cx="417.14062"
         cy="438.79688"
         rx="44.944908"
         ry="4.9938788" />
      <path
         transform="matrix(0.98410753,0,0,2.0012257,-146.3217,-344.20161)"
         d="m 446.12578,434.98024 a 44.944908,4.9938788 0 0 1 12.99591,5.60008 44.944908,4.9938788 0 0 1 -43.30591,3.20826 44.944908,4.9938788 0 0 1 -41.52913,-3.48623 44.944908,4.9938788 0 0 1 15.94336,-5.50526"
         sodipodi:ry="4.9938788"
         sodipodi:rx="44.944908"
         sodipodi:cy="438.79688"
         sodipodi:cx="417.14062"
         id="path5812"
         style="fill:#ffffff;fill-opacity:1;stroke:#000000;stroke-width:0.76105136;stroke-linecap:butt;stroke-linejoin:round;stroke-miterlimit:4;stroke-dasharray:none;stroke-dashoffset:0;stroke-opacity:1;marker-start:url(#Arrow1Mstart)"
         sodipodi:type="arc"
         sodipodi:start="5.4132869"
         sodipodi:end="4.0704537"
         sodipodi:open="true" />
    </g>
    <g
       id="g8475"
       transform="matrix(1.6211357,0,0,1.6211522,-39.55284,-328.3556)">
      <path
         inkscape:connector-curvature="0"
         id="path6919"
         d="m 65.281108,509.65773 13.384523,42.42641 0,0"
         style="fill:none;stroke:#000000;stroke-width:0.61684835px;stroke-linecap:butt;stroke-linejoin:miter;stroke-opacity:1;marker-start:url(#Arrow1Mstart-2);marker-end:none" />
      <path
         style="fill:none;stroke:#000000;stroke-width:0.61684835px;stroke-linecap:butt;stroke-linejoin:miter;stroke-opacity:1;marker-start:url(#Arrow1Mstart-2);marker-end:none"
         d="m 80.244618,556.27998 -12.955135,-40.25646 0,0"
         id="path8473"
         inkscape:connector-curvature="0" />
    </g>
    <path
       sodipodi:type="arc"
       style="fill:none;stroke:#000000;stroke-width:1.42166865;stroke-linecap:butt;stroke-linejoin:round;stroke-miterlimit:4;stroke-dasharray:none;stroke-dashoffset:0;stroke-opacity:1;marker-start:url(#Arrow1Mstart-2);marker-mid:none;marker-end:url(#Arrow1Mend-2)"
       id="path8483"
       sodipodi:cx="548.57141"
       sodipodi:cy="746.64789"
       sodipodi:rx="317.14285"
       sodipodi:ry="258.57144"
       d="M 239.81935,805.73298 A 317.14285,258.57144 0 0 1 235.89178,703.42052"
       sodipodi:start="2.91105"
       sodipodi:end="3.309559"
       sodipodi:open="true"
       transform="matrix(0.89594782,-0.09501984,0.13862998,0.53752825,-157.93345,226.91997)" />
    <g
       id="g9121"
       transform="matrix(0.4131009,0,0,0.4131009,-115.59573,312.91772)">
      <g
         id="content"
         transform="matrix(0.9621963,0,0,-0.9621963,-168.38435,561.93883)"
         xml:space="preserve"
         stroke-miterlimit="10.433"
         font-style="normal"
         font-variant="normal"
         font-weight="normal"
         font-stretch="normal"
         font-size-adjust="none"
         letter-spacing="normal"
         word-spacing="normal"
         style="font-style:normal;font-variant:normal;font-weight:normal;font-stretch:normal;letter-spacing:normal;word-spacing:normal;text-anchor:start;fill:none;stroke:#000000;stroke-width:2.42071605;stroke-linecap:butt;stroke-linejoin:miter;stroke-miterlimit:10.43299961;stroke-dasharray:none;stroke-dashoffset:0;stroke-opacity:1"><path
           d="m 472.91,425.53 -6.37,1.54 c -3.1,0.75 -5.04,3.44 -5.04,6.33 0,3.49 2.69,6.53 6.58,6.53 8.31,0 9.41,-8.17 9.71,-10.42 0.04,-0.3 0.04,-0.59 0.6,-0.59 0.65,0 0.65,0.25 0.65,1.2 l 0,10 c 0,0.86 0,1.2 -0.55,1.2 -0.35,0 -0.41,-0.04 -0.75,-0.65 L 476,437.84 c -1.5,1.44 -3.54,3.48 -7.98,3.48 -5.53,0 -9.7,-4.39 -9.7,-9.67 0,-4.12 2.64,-7.76 6.51,-9.11 0.55,-0.2 3.1,-0.79 6.58,-1.64 1.34,-0.36 2.84,-0.7 4.23,-2.54 1.05,-1.3 1.55,-2.94 1.55,-4.58 0,-3.55 -2.48,-7.13 -6.67,-7.13 -1.45,0 -5.23,0.25 -7.88,2.69 -2.89,2.69 -3.04,5.87 -3.09,7.67 -0.05,0.5 -0.44,0.5 -0.59,0.5 -0.64,0 -0.64,-0.36 -0.64,-1.25 l 0,-9.97 c 0,-0.84 0,-1.18 0.54,-1.18 0.35,0 0.39,0.09 0.74,0.64 0,0.04 0.15,0.2 1.79,2.84 1.55,-1.69 4.74,-3.48 9.18,-3.48 5.82,0 9.81,4.87 9.81,10.35 0,4.99 -3.28,9.07 -7.47,10.07 z"
           id="path9124"
           inkscape:connector-curvature="0"
           style="fill:#000000;stroke-width:0" /><path
           d="m 488.77,417.71 0.05,1.05 c 0.29,7.42 4.48,8.66 6.18,8.66 5.13,0 5.63,-6.72 5.63,-8.66 l -11.81,0 -0.05,-1.05 13.91,0 c 1.09,0 1.23,0 1.23,1.05 0,4.92 -2.69,9.75 -8.91,9.75 -5.78,0 -10.37,-5.12 -10.37,-11.36 0,-6.67 5.23,-11.5 10.97,-11.5 6.08,0 8.31,5.53 8.31,6.47 0,0.5 -0.39,0.61 -0.64,0.61 -0.45,0 -0.55,-0.3 -0.66,-0.7 -1.73,-5.13 -6.22,-5.13 -6.72,-5.13 -2.5,0 -4.48,1.49 -5.62,3.33 -1.5,2.39 -1.5,5.69 -1.5,7.48 z"
           id="path9126"
           inkscape:connector-curvature="0"
           style="fill:#000000;stroke-width:0" /><path
           d="m 513.63,422.75 0,5.46 -6.92,-0.54 0,-1.55 c 3.48,0 3.89,-0.34 3.89,-2.78 l 0,-13.36 c 0,-2.23 -0.55,-2.23 -3.89,-2.23 l 0,-1.55 c 1.95,0.05 4.28,0.16 5.69,0.16 1.98,0 4.32,0 6.32,-0.16 l 0,1.55 -1.04,0 c -3.69,0 -3.8,0.54 -3.8,2.34 l 0,7.67 c 0,4.92 2.09,9.36 5.89,9.36 0.34,0 0.44,0 0.55,-0.05 -0.16,-0.04 -1.16,-0.64 -1.16,-1.93 0,-1.41 1.05,-2.14 2.16,-2.14 0.89,0 2.14,0.59 2.14,2.18 0,1.6 -1.55,3.03 -3.69,3.03 -3.64,0 -5.44,-3.32 -6.14,-5.46 z"
           id="path9128"
           inkscape:connector-curvature="0"
           style="fill:#000000;stroke-width:0" /><path
           d="m 545.59,422.79 0.05,0.11 0.04,0.12 0.05,0.12 0.06,0.12 0.05,0.13 0.06,0.13 0.07,0.13 0.07,0.14 0.07,0.13 0.09,0.14 0.08,0.14 0.1,0.14 0.1,0.13 0.11,0.14 0.11,0.13 0.12,0.13 0.14,0.12 0.14,0.13 0.15,0.11 0.15,0.12 0.17,0.11 0.18,0.1 0.19,0.09 0.2,0.09 0.21,0.08 0.23,0.07 0.23,0.07 0.25,0.05 0.26,0.05 0.14,0.01 0.14,0.02 0.14,0.01 0.15,0.01 0.15,0.01 0.15,0 0,1.55 c -1.16,-0.1 -2.6,-0.14 -3.74,-0.14 -1.2,0 -3.5,0.09 -4.34,0.14 l 0,-1.55 c 1.84,-0.05 2.39,-1.19 2.39,-2.14 0,-0.44 -0.09,-0.64 -0.3,-1.19 l -5.08,-12.7 -5.57,13.89 c -0.3,0.66 -0.3,0.75 -0.3,0.86 0,1.28 1.94,1.28 2.83,1.28 l 0,1.55 c -1.49,-0.05 -4.28,-0.14 -5.42,-0.14 -1.35,0 -3.35,0.04 -4.83,0.14 l 0,-1.55 c 3.12,0 3.33,-0.3 3.98,-1.84 l 7.17,-17.67 c 0.3,-0.71 0.4,-0.96 1.05,-0.96 0.64,0 0.85,0.46 1.05,0.96 z"
           id="path9130"
           inkscape:connector-curvature="0"
           style="fill:#000000;stroke-width:0" /><path
           d="m 573.18,416.86 -0.01,0.59 -0.05,0.59 -0.07,0.58 -0.1,0.57 -0.12,0.56 -0.15,0.55 -0.17,0.54 -0.2,0.53 -0.23,0.51 -0.24,0.5 -0.27,0.49 -0.29,0.47 -0.3,0.46 -0.33,0.44 -0.35,0.43 -0.37,0.4 -0.38,0.39 -0.4,0.37 -0.42,0.35 -0.43,0.32 -0.45,0.31 -0.46,0.28 -0.47,0.26 -0.49,0.24 -0.5,0.21 -0.51,0.18 -0.52,0.16 -0.53,0.13 -0.54,0.11 -0.55,0.07 -0.55,0.05 -0.57,0.01 -0.04,-1.09 c 2.18,0 4.33,-1.1 5.62,-3.24 1.3,-2.14 1.3,-5.03 1.3,-6.92 0,-1.8 0,-4.48 -1.09,-6.67 -1.1,-2.25 -3.29,-3.69 -5.79,-3.69 l 0,0 c -2.14,0 -4.32,1.05 -5.67,3.33 -1.25,2.2 -1.25,5.23 -1.25,7.03 0,1.94 0,4.63 1.19,6.83 1.36,2.28 3.69,3.33 5.69,3.33 l 0.04,1.09 c -6.21,0 -11.06,-5.42 -11.06,-11.65 0,-6.43 5.19,-11.21 11.02,-11.21 6.03,0 11.06,4.88 11.06,11.21 z"
           id="path9132"
           inkscape:connector-curvature="0"
           style="fill:#000000;stroke-width:0" /></g>    </g>
    <g
       id="g10791"
       transform="translate(35.860415,1.0101526)">
      <path
         id="path9426"
         d="m 520.42173,629.03805 0.0238,0.0437 0.0278,0.0437 0.0318,0.0437 0.0318,0.0477 0.0397,0.0477 0.0358,0.0477 0.0398,0.0517 0.0437,0.0477 0.0437,0.0517 0.0437,0.0517 0.0914,0.10335 0.0954,0.0994 0.0994,0.0994 0.0477,0.0437 0.0477,0.0477 0.0477,0.0437 0.0437,0.0398 0.0477,0.0397 0.0437,0.0398 0.0437,0.0318 0.0437,0.0318 0.0397,0.0318 0.0358,0.0238 0.0358,0.0239 0.0358,0.0199 0.0278,0.0119 0.0318,0.0119 0.0119,0.004 0.0119,0.004 0.0119,0 0.008,0 c 0.18284,0 0.18284,-0.15899 0.18284,-0.45711 l 0,-3.44221 c 0,-0.77509 0.0716,-0.87446 1.36337,-0.87446 l 0,-0.60816 c -0.73137,0.0159 -1.82445,0.0557 -2.41272,0.0557 -0.79497,0 -2.48031,0 -3.1918,-0.0557 l 0,0.60816 0.632,0 c 1.78073,0 1.84432,0.21861 1.84432,0.94998 l 0,1.26798 c 0,2.22193 -2.51607,2.39683 -3.06857,2.39683 -1.29183,0 -5.21102,-0.69163 -5.21102,-6.59029 0,-5.92649 3.89932,-6.57836 5.0878,-6.57836 2.12256,0 3.92317,1.7847 4.32065,4.69826 0.0397,0.27029 0.0397,0.33389 0.31799,0.33389 0.31798,0 0.31798,-0.0636 0.31798,-0.47699 l 0,-4.69031 c 0,-0.34183 0,-0.47698 -0.21861,-0.47698 -0.0795,0 -0.16297,0 -0.32196,0.23452 l -0.98974,1.46671 c -0.632,-0.63597 -1.70123,-1.70123 -3.6648,-1.70123 -3.68071,0 -6.88443,3.1282 -6.88443,7.19049 0,4.05434 3.16795,7.20241 6.92815,7.20241 1.44287,0 3.02485,-0.51275 3.70455,-1.68136 z"
         inkscape:connector-curvature="0"
         style="font-style:normal;font-variant:normal;font-weight:normal;font-stretch:normal;letter-spacing:normal;word-spacing:normal;text-anchor:start;fill:#000000;stroke:#000000;stroke-width:0;stroke-linecap:butt;stroke-linejoin:miter;stroke-miterlimit:10.43299961;stroke-dasharray:none;stroke-dashoffset:0;stroke-opacity:1" />
      <path
         id="path9428"
         d="m 526.42374,625.71111 0.0159,-0.41736 c 0.11925,-2.94933 1.78471,-3.44221 2.46043,-3.44221 2.03909,0 2.23783,2.67109 2.23783,3.44221 l -4.69826,0 -0.0159,0.41736 5.52503,0 c 0.43723,0 0.49288,0 0.49288,-0.41736 0,-1.95562 -1.06923,-3.87547 -3.54158,-3.87547 -2.29746,0 -4.12191,2.03512 -4.12191,4.51542 0,2.65122 2.07884,4.57107 4.3604,4.57107 2.41273,0 3.30309,-2.19809 3.30309,-2.57172 0,-0.19874 -0.15502,-0.24247 -0.25439,-0.24247 -0.17887,0 -0.21861,0.11925 -0.26234,0.27824 -0.68764,2.0391 -2.47235,2.0391 -2.67109,2.0391 -0.99371,0 -1.78073,-0.59226 -2.23386,-1.32363 -0.59623,-0.94998 -0.59623,-2.26168 -0.59623,-2.97318 z"
         inkscape:connector-curvature="0"
         style="font-style:normal;font-variant:normal;font-weight:normal;font-stretch:normal;letter-spacing:normal;word-spacing:normal;text-anchor:start;fill:#000000;stroke:#000000;stroke-width:0;stroke-linecap:butt;stroke-linejoin:miter;stroke-miterlimit:10.43299961;stroke-dasharray:none;stroke-dashoffset:0;stroke-opacity:1" />
      <path
         id="path9430"
         d="m 539.59637,628.78366 0.008,0.0755 0.0119,0.0715 0.0159,0.0755 0.0159,0.0715 0.0199,0.0755 0.0199,0.0716 0.0239,0.0716 0.0278,0.0716 0.0318,0.0715 0.0318,0.0676 0.0358,0.0715 0.0358,0.0636 0.0397,0.0636 0.0437,0.0636 0.0437,0.0636 0.0477,0.0557 0.0517,0.0556 0.0517,0.0557 0.0556,0.0517 0.0557,0.0477 0.0596,0.0477 0.0636,0.0398 0.0636,0.0398 0.0676,0.0358 0.0715,0.0318 0.0715,0.0278 0.0716,0.0239 0.0795,0.0199 0.0795,0.0159 0.0795,0.0119 0.0835,0.008 0.0874,0.004 c 0.40941,0 1.62174,-0.28221 1.62174,-1.88408 l 0,-1.105 -0.49686,0 0,1.105 c 0,1.14873 -0.49288,1.26798 -0.71547,1.26798 -0.65187,0 -0.73137,-0.88639 -0.73137,-0.98576 l 0,-3.96292 c 0,-0.83472 0,-1.60186 -0.7115,-2.33721 -0.77509,-0.76714 -1.76085,-1.08513 -2.71084,-1.08513 -1.62969,0 -2.99306,0.92614 -2.99306,2.23386 0,0.59225 0.39749,0.93409 0.91024,0.93409 0.55251,0 0.91422,-0.39748 0.91422,-0.91421 0,-0.23452 -0.0994,-0.88639 -1.01359,-0.91422 0.53661,-0.68764 1.50249,-0.90626 2.13847,-0.90626 0.97383,0 2.09871,0.77112 2.09871,2.53595 l 0,0.73137 0,0.41736 0,1.97947 c 0,1.88407 -1.42299,2.55185 -2.31733,2.55185 -0.96986,0 -1.78073,-0.6956 -1.78073,-1.68136 0,-1.08513 0.83074,-2.73469 4.09806,-2.84996 l 0,0 0,-0.41736 c -1.00563,0.0557 -2.39285,0.11925 -3.64095,0.71547 -1.48262,0.67175 -1.97947,1.70123 -1.97947,2.57172 0,1.60187 1.91985,2.09872 3.16795,2.09872 1.30772,0 2.21398,-0.79099 2.59557,-1.72111 z"
         inkscape:connector-curvature="0"
         style="font-style:normal;font-variant:normal;font-weight:normal;font-stretch:normal;letter-spacing:normal;word-spacing:normal;text-anchor:start;fill:#000000;stroke:#000000;stroke-width:0;stroke-linecap:butt;stroke-linejoin:miter;stroke-miterlimit:10.43299961;stroke-dasharray:none;stroke-dashoffset:0;stroke-opacity:1" />
      <path
         id="path9432"
         d="m 546.22243,623.70779 0,-2.17026 -2.75059,0.21464 0,0.6161 c 1.38722,0 1.54621,0.13514 1.54621,1.10501 l 0,5.31038 c 0,0.88639 -0.21464,0.88639 -1.54621,0.88639 l 0,0.6161 c 0.77907,-0.0199 1.70123,-0.0636 2.26168,-0.0636 0.78702,0 1.72111,0 2.51608,0.0636 l 0,-0.6161 -0.41736,0 c -1.46672,0 -1.51044,-0.21464 -1.51044,-0.93011 l 0,-3.0487 c 0,-1.95562 0.83472,-3.72045 2.34118,-3.72045 0.13912,0 0.17489,0 0.21862,0.0199 -0.0596,0.0159 -0.45711,0.25439 -0.45711,0.76714 0,0.56046 0.41338,0.85062 0.85459,0.85062 0.35376,0 0.85062,-0.23452 0.85062,-0.86652 0,-0.63597 -0.61213,-1.20437 -1.46672,-1.20437 -1.44684,0 -2.15834,1.31965 -2.44055,2.17026 z"
         inkscape:connector-curvature="0"
         style="font-style:normal;font-variant:normal;font-weight:normal;font-stretch:normal;letter-spacing:normal;word-spacing:normal;text-anchor:start;fill:#000000;stroke:#000000;stroke-width:0;stroke-linecap:butt;stroke-linejoin:miter;stroke-miterlimit:10.43299961;stroke-dasharray:none;stroke-dashoffset:0;stroke-opacity:1" />
    </g>
    <g
       id="g10878"
       transform="translate(17.172593,6.0609153)">
      <g
         id="g10871">
        <path
           style="font-style:normal;font-variant:normal;font-weight:normal;font-stretch:normal;letter-spacing:normal;word-spacing:normal;text-anchor:start;fill:#000000;stroke:#000000;stroke-width:0;stroke-linecap:butt;stroke-linejoin:miter;stroke-miterlimit:10.43299961;stroke-dasharray:none;stroke-dashoffset:0;stroke-opacity:1"
           inkscape:connector-curvature="0"
           d="m 382.51677,570.17825 0.17617,-0.0392 0.17225,-0.0391 0.17226,-0.0509 0.16442,-0.0509 0.16051,-0.0548 0.1566,-0.0626 0.15659,-0.0666 0.14877,-0.0705 0.14485,-0.0744 0.14093,-0.0783 0.13703,-0.0822 0.12919,-0.0822 0.12527,-0.09 0.12136,-0.094 0.11745,-0.0979 0.10962,-0.0979 0.1057,-0.10179 0.0979,-0.1057 0.094,-0.10962 0.0861,-0.10961 0.0822,-0.11353 0.0744,-0.11745 0.0666,-0.11745 0.0626,-0.12136 0.0548,-0.12528 0.047,-0.12527 0.0431,-0.12528 0.0352,-0.12919 0.0235,-0.13311 0.0196,-0.12919 0.0118,-0.1331 0.004,-0.13702 c 0,-1.69515 -1.79693,-3.29634 -4.32986,-3.29634 l -0.14094,0.60681 c 1.89872,0 2.576,1.656 2.576,2.68953 0,1.24884 -0.95524,2.88918 -3.12017,2.88918 l -2.82655,0 0,0.42672 3.66434,0 c 1.93395,0 2.75216,1.81651 2.75216,3.12017 0,1.38978 -1.01395,2.98314 -3.02229,2.98314 l 0,0 -2.43897,0 c -0.91609,0 -0.95524,-0.1331 -0.95524,-0.77514 l 0,-5.32817 0,-0.42672 0,-4.79573 c 0,-0.64987 0.0392,-0.78298 0.95524,-0.78298 l 2.41548,0 0.14094,-0.60681 -7.13684,0 0,0.60681 0.46196,0 c 1.50723,0 1.54246,0.2114 1.54246,0.91608 l 0,10.27658 c 0,0.70468 -0.0352,0.91608 -1.54246,0.91608 l -0.46196,0 0,0.60681 7.64577,0 c 2.59166,0 4.34944,-1.73821 4.34944,-3.57038 0,-1.69514 -1.6051,-3.15931 -3.77003,-3.39029 z"
           id="path9867" />
        <path
           style="font-style:normal;font-variant:normal;font-weight:normal;font-stretch:normal;letter-spacing:normal;word-spacing:normal;text-anchor:start;fill:#000000;stroke:#000000;stroke-width:0;stroke-linecap:butt;stroke-linejoin:miter;stroke-miterlimit:10.43299961;stroke-dasharray:none;stroke-dashoffset:0;stroke-opacity:1"
           inkscape:connector-curvature="0"
           d="m 390.6519,570.65978 0,-2.13752 -2.7091,0.2114 0,0.60681 c 1.36238,0 1.52289,0.1331 1.52289,1.08833 l 0,5.23029 c 0,0.87302 -0.21532,0.87302 -1.52289,0.87302 l 0,0.60681 c 0.7634,-0.0196 1.67557,-0.0626 2.22757,-0.0626 0.77515,0 1.69123,0 2.47421,0.0626 l 0,-0.60681 -0.40715,0 c -1.44459,0 -1.48766,-0.2114 -1.48766,-0.91608 l 0,-3.00272 c 0,-1.92612 0.81821,-3.66433 2.30587,-3.66433 0.13311,0 0.17226,0 0.21532,0.0196 -0.0626,0.0157 -0.45413,0.25055 -0.45413,0.75558 0,0.55199 0.41107,0.83778 0.84562,0.83778 0.34842,0 0.83778,-0.23098 0.83778,-0.85344 0,-0.62639 -0.6068,-1.18621 -1.44459,-1.18621 -1.42502,0 -2.1297,1.29974 -2.40374,2.13752 z"
           id="path9869" />
        <path
           style="font-style:normal;font-variant:normal;font-weight:normal;font-stretch:normal;letter-spacing:normal;word-spacing:normal;text-anchor:start;fill:#000000;stroke:#000000;stroke-width:0;stroke-linecap:butt;stroke-linejoin:miter;stroke-miterlimit:10.43299961;stroke-dasharray:none;stroke-dashoffset:0;stroke-opacity:1"
           inkscape:connector-curvature="0"
           d="m 401.55094,575.65909 0.008,0.0744 0.0118,0.0705 0.0157,0.0744 0.0157,0.0705 0.0196,0.0744 0.0196,0.0705 0.0235,0.0705 0.0274,0.0705 0.0313,0.0705 0.0313,0.0665 0.0352,0.0705 0.0352,0.0626 0.0392,0.0626 0.0431,0.0626 0.0431,0.0626 0.047,0.0548 0.0509,0.0548 0.0509,0.0548 0.0548,0.0509 0.0548,0.047 0.0587,0.047 0.0626,0.0392 0.0626,0.0391 0.0666,0.0352 0.0705,0.0313 0.0705,0.0274 0.0744,0.0235 0.0744,0.0196 0.0783,0.0157 0.0783,0.0117 0.0822,0.008 0.0861,0.004 c 0.40324,0 1.59728,-0.27796 1.59728,-1.85566 l 0,-1.08834 -0.48936,0 0,1.08834 c 0,1.1314 -0.48545,1.24885 -0.70468,1.24885 -0.64204,0 -0.72034,-0.87302 -0.72034,-0.97089 l 0,-3.90314 c 0,-0.82213 0,-1.5777 -0.69685,-2.30196 -0.76732,-0.75557 -1.73821,-1.06876 -2.67387,-1.06876 -1.6051,0 -2.94791,0.91217 -2.94791,2.20016 0,0.58332 0.39149,0.92 0.89651,0.92 0.54417,0 0.90043,-0.39149 0.90043,-0.90042 0,-0.23098 -0.0979,-0.87302 -0.9983,-0.90042 0.52851,-0.67728 1.48374,-0.8926 2.10621,-0.8926 0.95915,0 2.06706,0.75949 2.06706,2.4977 l 0,0.72034 0,0.41106 0,1.94961 c 0,1.85566 -1.40153,2.51336 -2.28238,2.51336 -0.95523,0 -1.75387,-0.6851 -1.75387,-1.656 0,-1.06876 0.81821,-2.69344 4.03625,-2.80697 l 0,0 0,-0.41106 c -0.99047,0.0548 -2.35676,0.11744 -3.58604,0.70468 -1.46025,0.66161 -1.94961,1.67557 -1.94961,2.53293 0,1.5777 1.89089,2.06706 3.12016,2.06706 1.29192,0 2.18451,-0.77906 2.55642,-1.69515 z"
           id="path9871" />
        <path
           style="font-style:normal;font-variant:normal;font-weight:normal;font-stretch:normal;letter-spacing:normal;word-spacing:normal;text-anchor:start;fill:#000000;stroke:#000000;stroke-width:0;stroke-linecap:butt;stroke-linejoin:miter;stroke-miterlimit:10.43299961;stroke-dasharray:none;stroke-dashoffset:0;stroke-opacity:1"
           inkscape:connector-curvature="0"
           d="m 406.89085,575.65909 0,0.0392 0,0.0391 0,0.0744 -0.004,0.0705 -0.008,0.0666 -0.004,0.0587 -0.0117,0.0587 -0.0118,0.0509 -0.0117,0.047 -0.0196,0.0431 -0.0157,0.0431 -0.0235,0.0352 -0.0274,0.0352 -0.0274,0.0313 -0.0313,0.0274 -0.0352,0.0235 -0.0392,0.0196 -0.0431,0.0196 -0.047,0.0196 -0.0509,0.0117 -0.0548,0.0157 -0.0587,0.008 -0.0626,0.0117 -0.0705,0.004 -0.0352,0.004 -0.0391,0.004 -0.0392,0.004 -0.0392,0 -0.0431,0.004 -0.0431,0 -0.0431,0 -0.047,0.004 -0.047,0 -0.047,0 -0.0509,0 -0.0509,0 -0.0509,0 -0.0548,0 -0.0548,0 -0.0587,0 -0.0587,0 -0.0626,0 0,0.60681 c 0.64987,-0.0196 1.56204,-0.0626 2.1297,-0.0626 0.5794,0 1.36238,0.0274 2.14535,0.0626 l 0,-0.60681 c -1.30757,0 -1.52289,0 -1.52289,-0.87302 l 0,-2.01225 1.24885,-1.07268 c 1.4994,2.07098 2.31762,3.15932 2.31762,3.51166 0,0.368 -0.32886,0.44629 -0.69685,0.44629 l 0,0.60681 c 0.54416,-0.0196 1.69514,-0.0626 2.1062,-0.0626 0.56375,0 1.13141,0.0274 1.69515,0.0626 l 0,-0.60681 c -0.72425,0 -1.15098,0 -1.89089,-1.03353 l -2.47812,-3.49208 c -0.0196,-0.0352 -0.11745,-0.15268 -0.11745,-0.21531 0,-0.0705 1.38196,-1.24494 1.5777,-1.39762 1.22927,-0.9983 2.0514,-1.03353 2.45855,-1.0531 l 0,-0.60681 c -0.55983,0.0548 -0.81821,0.0548 -1.36238,0.0548 -0.70468,0 -1.91438,-0.0352 -2.18451,-0.0548 l 0,0.60681 c 0.368,0.0196 0.56374,0.23097 0.56374,0.48153 0,0.39149 -0.27012,0.62638 -0.42672,0.76732 l -2.75216,2.37633 0,-9.36441 -2.81089,0.21532 0,0.60681 c 1.36629,0 1.52289,0.13311 1.52289,1.09225 z"
           id="path9873" />
        <path
           style="font-style:normal;font-variant:normal;font-weight:normal;font-stretch:normal;letter-spacing:normal;word-spacing:normal;text-anchor:start;fill:#000000;stroke:#000000;stroke-width:0;stroke-linecap:butt;stroke-linejoin:miter;stroke-miterlimit:10.43299961;stroke-dasharray:none;stroke-dashoffset:0;stroke-opacity:1"
           inkscape:connector-curvature="0"
           d="m 416.7133,572.63289 0.0196,-0.41107 c 0.11354,-2.90484 1.75387,-3.39029 2.4194,-3.39029 2.00834,0 2.20408,2.6308 2.20408,3.39029 l -4.62348,0 -0.0196,0.41107 5.44561,0 c 0.42672,0 0.48153,0 0.48153,-0.41107 0,-1.92612 -1.05311,-3.81701 -3.48817,-3.81701 -2.2628,0 -4.05973,2.00442 -4.05973,4.44731 0,2.61123 2.04748,4.50212 4.29463,4.50212 2.38025,0 3.25327,-2.16493 3.25327,-2.53293 0,-0.19575 -0.15268,-0.23881 -0.25056,-0.23881 -0.17616,0 -0.21531,0.11745 -0.25838,0.27404 -0.67727,2.00834 -2.43506,2.00834 -2.6308,2.00834 -0.97872,0 -1.75387,-0.58332 -2.20017,-1.30366 -0.58723,-0.93566 -0.58723,-2.22757 -0.58723,-2.92833 z"
           id="path9875" />
      </g>
      <g
         transform="translate(-51.012704,18.182746)"
         id="g10865">
        <path
           style="font-style:normal;font-variant:normal;font-weight:normal;font-stretch:normal;letter-spacing:normal;word-spacing:normal;text-anchor:start;fill:#000000;stroke:#000000;stroke-width:0;stroke-linecap:butt;stroke-linejoin:miter;stroke-miterlimit:10.43299961;stroke-dasharray:none;stroke-dashoffset:0;stroke-opacity:1"
           inkscape:connector-curvature="0"
           d="m 433.07361,569.80634 0,-1.28408 -2.80697,0.2114 0,0.60681 c 1.38978,0 1.52289,0.11744 1.52289,0.97089 l 0,9.12951 c 0,0.88085 -0.21141,0.88085 -1.52289,0.88085 l 0,0.6029 c 0.66553,-0.0235 1.67557,-0.0587 2.1845,-0.0587 0.5246,0 1.52289,0.0352 2.208,0.0587 l 0,-0.6029 c -1.30757,0 -1.52289,0 -1.52289,-0.88085 l 0,-3.27284 0,-0.18009 0.27404,-0.25446 c -0.27404,-0.41107 -0.27404,-0.43064 -0.27404,-0.8143 l 0,0 0,-4.35727 c 0.56374,-0.99047 1.52289,-1.55812 2.51336,-1.55812 1.42501,0 2.61905,1.71863 2.61905,3.92271 0,2.36068 -1.37021,3.9971 -2.8148,3.9971 -0.77515,0 -1.51506,-0.39149 -2.04357,-1.19012 l -0.27404,0.25446 c 0.0979,0.31319 0.91608,1.3663 2.39591,1.3663 2.32544,0 4.34944,-1.91047 4.34944,-4.42774 0,-2.47812 -1.89089,-4.40424 -4.07148,-4.40424 -1.52289,0 -2.34502,0.85344 -2.73651,1.28408 z"
           id="path9877" />
        <path
           style="font-style:normal;font-variant:normal;font-weight:normal;font-stretch:normal;letter-spacing:normal;word-spacing:normal;text-anchor:start;fill:#000000;stroke:#000000;stroke-width:0;stroke-linecap:butt;stroke-linejoin:miter;stroke-miterlimit:10.43299961;stroke-dasharray:none;stroke-dashoffset:0;stroke-opacity:1"
           inkscape:connector-curvature="0"
           d="m 447.06933,575.65909 0.0117,0.0744 0.008,0.0705 0.0157,0.0744 0.0157,0.0705 0.0196,0.0744 0.0235,0.0705 0.0235,0.0705 0.0274,0.0705 0.0274,0.0705 0.0313,0.0665 0.0352,0.0705 0.0392,0.0626 0.0392,0.0626 0.0391,0.0626 0.047,0.0626 0.047,0.0548 0.047,0.0548 0.0509,0.0548 0.0548,0.0509 0.0587,0.047 0.0587,0.047 0.0587,0.0392 0.0666,0.0391 0.0666,0.0352 0.0666,0.0313 0.0705,0.0274 0.0744,0.0235 0.0744,0.0196 0.0783,0.0157 0.0822,0.0117 0.0822,0.008 0.0822,0.004 c 0.40715,0 1.59727,-0.27796 1.59727,-1.85566 l 0,-1.08834 -0.48936,0 0,1.08834 c 0,1.1314 -0.48153,1.24885 -0.70076,1.24885 -0.64596,0 -0.72426,-0.87302 -0.72426,-0.97089 l 0,-3.90314 c 0,-0.82213 0,-1.5777 -0.69685,-2.30196 -0.7634,-0.75557 -1.7382,-1.06876 -2.67386,-1.06876 -1.60119,0 -2.94791,0.91217 -2.94791,2.20016 0,0.58332 0.39149,0.92 0.90042,0.92 0.54417,0 0.89651,-0.39149 0.89651,-0.90042 0,-0.23098 -0.0979,-0.87302 -0.99438,-0.90042 0.52459,-0.67728 1.47983,-0.8926 2.10229,-0.8926 0.95915,0 2.06706,0.75949 2.06706,2.4977 l 0,0.72034 0,0.41106 0,1.94961 c 0,1.85566 -1.40153,2.51336 -2.28238,2.51336 -0.95131,0 -1.75386,-0.6851 -1.75386,-1.656 0,-1.06876 0.82212,-2.69344 4.03624,-2.80697 l 0,0 0,-0.41106 c -0.99046,0.0548 -2.35284,0.11744 -3.58212,0.70468 -1.46417,0.66161 -1.95353,1.67557 -1.95353,2.53293 0,1.5777 1.89089,2.06706 3.12017,2.06706 1.29191,0 2.18451,-0.77906 2.55642,-1.69515 z"
           id="path9879" />
        <path
           style="font-style:normal;font-variant:normal;font-weight:normal;font-stretch:normal;letter-spacing:normal;word-spacing:normal;text-anchor:start;fill:#000000;stroke:#000000;stroke-width:0;stroke-linecap:butt;stroke-linejoin:miter;stroke-miterlimit:10.43299961;stroke-dasharray:none;stroke-dashoffset:0;stroke-opacity:1"
           inkscape:connector-curvature="0"
           d="m 457.75697,576.07016 0,1.28408 2.8657,-0.21532 0,-0.60681 c -1.3663,0 -1.51898,-0.1331 -1.51898,-1.08834 l 0,-11.84253 -2.80697,0.21532 0,0.60681 c 1.36238,0 1.51506,0.13311 1.51506,1.09225 l 0,4.20851 c -0.55983,-0.69685 -1.39762,-1.20187 -2.45855,-1.20187 l 0.0822,0.42672 c 0.68511,0 1.50332,0.29361 2.11013,1.16663 0.2114,0.33277 0.2114,0.37583 0.2114,0.72426 l 0,0 0,4.00101 c 0,0.34843 0,0.39149 -0.2114,0.72034 -0.58724,0.93566 -1.46809,1.36238 -2.30587,1.36238 -0.87694,0 -1.58162,-0.50502 -2.04357,-1.24493 -0.50894,-0.80255 -0.57158,-1.91438 -0.57158,-2.71302 0,-0.72034 0.0392,-1.8948 0.60681,-2.76782 0.41106,-0.60681 1.15098,-1.24885 2.20408,-1.24885 l -0.0822,-0.42672 c -2.29804,0 -4.34944,1.90654 -4.34944,4.4199 0,2.47813 1.91438,4.41208 4.13804,4.41208 1.24493,0 2.12578,-0.66162 2.61514,-1.28408 z"
           id="path9881" />
        <path
           style="font-style:normal;font-variant:normal;font-weight:normal;font-stretch:normal;letter-spacing:normal;word-spacing:normal;text-anchor:start;fill:#000000;stroke:#000000;stroke-width:0;stroke-linecap:butt;stroke-linejoin:miter;stroke-miterlimit:10.43299961;stroke-dasharray:none;stroke-dashoffset:0;stroke-opacity:1"
           inkscape:connector-curvature="0"
           d="m 465.25006,573.35323 0.047,0.008 0.047,0.008 0.0548,0.0118 0.0626,0.0157 0.0666,0.0157 0.0705,0.0157 0.0744,0.0196 0.0783,0.0235 0.0783,0.0235 0.0822,0.0274 0.0861,0.0313 0.0861,0.0313 0.0861,0.0391 0.0861,0.0392 0.0861,0.0431 0.0861,0.047 0.0822,0.0548 0.0861,0.0548 0.0783,0.0587 0.0783,0.0626 0.0744,0.0705 0.0705,0.0744 0.0666,0.0783 0.0626,0.0822 0.0548,0.0861 0.0235,0.047 0.0274,0.047 0.0235,0.0509 0.0196,0.047 0.0196,0.0548 0.0157,0.0509 0.0157,0.0548 0.0157,0.0548 0.0117,0.0587 0.0118,0.0587 0.008,0.0626 0.004,0.0587 0.004,0.0666 0,0.0626 c 0,0.99046 -0.68511,1.77344 -2.20017,1.77344 -1.64034,0 -2.34501,-1.11183 -2.71693,-2.76782 -0.0548,-0.25056 -0.0744,-0.33277 -0.27013,-0.33277 -0.25446,0 -0.25446,0.13702 -0.25446,0.48936 l 0,2.576 c 0,0.32885 0,0.46587 0.2114,0.46587 0.0979,0 0.11745,-0.0196 0.48936,-0.39149 0.0392,-0.0392 0.0392,-0.0744 0.39149,-0.4463 0.85736,0.81821 1.73821,0.83779 2.14927,0.83779 2.23932,0 3.13583,-1.31149 3.13583,-2.7091 0,-1.03353 -0.58724,-1.62077 -0.81821,-1.85566 -0.64205,-0.62247 -1.40936,-0.78298 -2.22758,-0.93566 -1.08833,-0.21532 -2.39591,-0.46978 -2.39591,-1.60118 0,-0.6812 0.50502,-1.47983 2.1806,-1.47983 2.14927,0 2.24714,1.75387 2.28237,2.36067 0.0235,0.17617 0.19575,0.17617 0.23881,0.17617 0.25056,0 0.25056,-0.0979 0.25056,-0.46978 l 0,-1.96919 c 0,-0.33277 0,-0.46587 -0.21141,-0.46587 -0.0979,0 -0.13702,0 -0.39149,0.23098 -0.0587,0.0822 -0.25446,0.25055 -0.33276,0.31319 -0.73992,-0.54417 -1.54247,-0.54417 -1.83608,-0.54417 -2.37634,0 -3.11625,1.30366 -3.11625,2.39591 0,0.68119 0.30927,1.22927 0.83778,1.65991 0.62247,0.50502 1.17447,0.62247 2.57208,0.8926 z"
           id="path9883" />
      </g>
    </g>
    <g
       transform="matrix(0.39280486,0,0,0.39280486,168.45476,567.86921)"
       id="g10369">
      <g
         style="font-style:normal;font-variant:normal;font-weight:normal;font-stretch:normal;letter-spacing:normal;word-spacing:normal;text-anchor:start;fill:none;stroke:#000000;stroke-width:2.54579329;stroke-linecap:butt;stroke-linejoin:miter;stroke-miterlimit:10.43299961;stroke-dasharray:none;stroke-dashoffset:0;stroke-opacity:1"
         id="g10371"
         transform="matrix(0.9621963,0,0,-0.9621963,-168.38435,561.93883)"
         xml:space="preserve"
         stroke-miterlimit="10.433"
         font-style="normal"
         font-variant="normal"
         font-weight="normal"
         font-stretch="normal"
         font-size-adjust="none"
         letter-spacing="normal"
         word-spacing="normal"><path
           style="fill:#000000;stroke-width:0"
           inkscape:connector-curvature="0"
           d="m 466.83,421.95 -0.15,1.28 0,13.45 c 0,1.66 0.11,2 2.43,2 l 4.44,0 c 7.92,0 7.92,-5.28 7.92,-7.72 0,-2.34 0,-7.73 -7.92,-7.73 l -6.87,0 0.15,-1.28 8.42,0 c 5.97,0 11.36,4.03 11.36,9.01 0,4.88 -4.93,9.27 -11.76,9.27 l -17.58,0 0,-1.55 1.19,0 c 3.84,0 3.93,-0.54 3.93,-2.34 l 0,-26.25 c 0,-1.8 -0.09,-2.34 -3.93,-2.34 l -1.19,0 0,-1.55 c 1.73,0.16 5.42,0.16 7.31,0.16 1.89,0 5.64,0 7.38,-0.16 l 0,1.55 -1.19,0 c -3.84,0 -3.94,0.54 -3.94,2.34 z"
           id="path10373" /><path
           style="fill:#000000;stroke-width:0"
           inkscape:connector-curvature="0"
           d="m 498.29,428.21 -6.97,-0.54 0,-1.55 c 3.23,0 3.69,-0.3 3.69,-2.73 l 0,-13.41 c 0,-2.23 -0.55,-2.23 -3.89,-2.23 l 0,-1.55 c 1.59,0.05 4.28,0.16 5.48,0.16 1.75,0 3.49,-0.11 5.19,-0.16 l 0,1.55 c -3.3,0 -3.5,0.25 -3.5,2.18 z"
           id="path10375" /><path
           style="fill:#000000;stroke-width:0"
           inkscape:connector-curvature="0"
           d="m 498.49,436.89 0,0.14 -0.01,0.15 -0.02,0.14 -0.02,0.14 -0.04,0.13 -0.03,0.13 -0.05,0.13 -0.05,0.12 -0.05,0.12 -0.06,0.12 -0.07,0.11 -0.07,0.1 -0.07,0.1 -0.08,0.1 -0.09,0.1 -0.09,0.08 -0.09,0.09 -0.1,0.08 -0.1,0.07 -0.1,0.07 -0.11,0.07 -0.11,0.06 -0.11,0.05 -0.12,0.05 -0.12,0.04 -0.12,0.04 -0.12,0.03 -0.13,0.03 -0.12,0.02 -0.13,0.01 -0.13,0.01 -0.13,0.01 c -1.55,0 -2.64,-1.35 -2.64,-2.64 0,-1.35 1.09,-2.64 2.64,-2.64 1.39,0 2.64,1.04 2.64,2.64 z"
           id="path10377" /><path
           style="fill:#000000;stroke-width:0"
           inkscape:connector-curvature="0"
           d="m 513.63,415.87 0.11,-0.02 0.13,-0.02 0.14,-0.03 0.16,-0.04 0.17,-0.04 0.18,-0.04 0.19,-0.05 0.19,-0.06 0.21,-0.06 0.21,-0.07 0.22,-0.08 0.21,-0.08 0.23,-0.1 0.22,-0.1 0.22,-0.11 0.22,-0.12 0.21,-0.14 0.21,-0.14 0.21,-0.15 0.2,-0.16 0.19,-0.18 0.18,-0.19 0.17,-0.2 0.15,-0.21 0.15,-0.22 0.06,-0.12 0.07,-0.12 0.05,-0.13 0.06,-0.12 0.05,-0.14 0.04,-0.13 0.04,-0.14 0.04,-0.14 0.03,-0.15 0.02,-0.15 0.02,-0.16 0.02,-0.15 0.01,-0.17 0,-0.16 c 0,-2.53 -1.75,-4.53 -5.62,-4.53 -4.19,0 -5.99,2.84 -6.94,7.07 -0.14,0.64 -0.19,0.85 -0.69,0.85 -0.66,0 -0.66,-0.35 -0.66,-1.25 l 0,-6.58 c 0,-0.84 0,-1.19 0.55,-1.19 0.25,0 0.3,0.05 1.25,1 0.09,0.1 0.09,0.19 1,1.14 2.19,-2.09 4.44,-2.14 5.49,-2.14 5.71,0 8.01,3.35 8.01,6.92 0,2.64 -1.5,4.14 -2.09,4.74 -1.64,1.59 -3.6,2 -5.69,2.39 -2.78,0.55 -6.13,1.2 -6.13,4.09 0,1.74 1.3,3.78 5.58,3.78 5.49,0 5.74,-4.48 5.83,-6.03 0.06,-0.45 0.5,-0.45 0.61,-0.45 0.64,0 0.64,0.25 0.64,1.2 l 0,5.03 c 0,0.85 0,1.19 -0.55,1.19 -0.25,0 -0.34,0 -1,-0.59 -0.14,-0.21 -0.64,-0.64 -0.84,-0.8 -1.89,1.39 -3.94,1.39 -4.69,1.39 -6.08,0 -7.97,-3.33 -7.97,-6.12 0,-1.74 0.8,-3.14 2.14,-4.24 1.6,-1.29 3,-1.59 6.58,-2.28 z"
           id="path10379" /><path
           style="fill:#000000;stroke-width:0"
           inkscape:connector-curvature="0"
           d="m 531.58,426.12 7.12,0 0,1.55 -7.12,0 0,9.17 -1.25,0 c -0.05,-4.08 -1.55,-9.42 -6.42,-9.61 l 0,-1.11 4.23,0 0,-13.75 c 0,-6.12 4.63,-6.72 6.42,-6.72 3.53,0 4.94,3.53 4.94,6.72 l 0,2.84 -1.25,0 0,-2.73 c 0,-3.69 -1.5,-5.58 -3.34,-5.58 -3.33,0 -3.33,4.53 -3.33,5.38 z"
           id="path10381" /><path
           style="fill:#000000;stroke-width:0"
           inkscape:connector-curvature="0"
           d="m 565.74,416.86 -0.02,0.59 -0.04,0.59 -0.07,0.58 -0.1,0.57 -0.12,0.56 -0.15,0.55 -0.18,0.54 -0.2,0.53 -0.22,0.51 -0.24,0.5 -0.27,0.49 -0.29,0.47 -0.31,0.46 -0.32,0.44 -0.35,0.43 -0.37,0.4 -0.38,0.39 -0.4,0.37 -0.42,0.35 -0.43,0.32 -0.45,0.31 -0.46,0.28 -0.47,0.26 -0.49,0.24 -0.5,0.21 -0.51,0.18 -0.52,0.16 -0.53,0.13 -0.54,0.11 -0.55,0.07 -0.55,0.05 -0.57,0.01 -0.04,-1.09 c 2.18,0 4.32,-1.1 5.62,-3.24 1.3,-2.14 1.3,-5.03 1.3,-6.92 0,-1.8 0,-4.48 -1.1,-6.67 -1.09,-2.25 -3.28,-3.69 -5.78,-3.69 l 0,0 c -2.14,0 -4.32,1.05 -5.67,3.33 -1.25,2.2 -1.25,5.23 -1.25,7.03 0,1.94 0,4.63 1.19,6.83 1.36,2.28 3.69,3.33 5.69,3.33 l 0.04,1.09 c -6.22,0 -11.06,-5.42 -11.06,-11.65 0,-6.43 5.19,-11.21 11.02,-11.21 6.03,0 11.06,4.88 11.06,11.21 z"
           id="path10383" /><path
           style="fill:#000000;stroke-width:0"
           inkscape:connector-curvature="0"
           d="m 572.71,423.34 0,-13.36 c 0,-2.23 -0.55,-2.23 -3.89,-2.23 l 0,-1.55 c 1.75,0.05 4.28,0.16 5.63,0.16 1.29,0 3.89,-0.11 5.57,-0.16 l 0,1.55 c -3.32,0 -3.87,0 -3.87,2.23 l 0,9.17 c 0,5.19 3.53,7.97 6.72,7.97 3.14,0 3.68,-2.69 3.68,-5.53 l 0,-11.61 c 0,-2.23 -0.54,-2.23 -3.89,-2.23 l 0,-1.55 c 1.75,0.05 4.3,0.16 5.64,0.16 1.3,0 3.88,-0.11 5.58,-0.16 l 0,1.55 c -2.59,0 -3.84,0 -3.89,1.5 l 0,9.51 c 0,4.28 0,5.83 -1.54,7.61 -0.69,0.86 -2.35,1.84 -5.22,1.84 -3.64,0 -5.99,-2.14 -7.38,-5.21 l 0,5.21 -7.03,-0.54 0,-1.55 c 3.48,0 3.89,-0.34 3.89,-2.78 z"
           id="path10385" /></g>    </g>
    <g
       id="g10832">
      <g
         id="g10825">
        <path
           id="path10624"
           d="m 339.94642,839.07758 0.1787,-0.0397 0.17474,-0.0397 0.17473,-0.0516 0.16679,-0.0516 0.16282,-0.0556 0.15885,-0.0635 0.15884,-0.0675 0.15091,-0.0715 0.14693,-0.0755 0.14297,-0.0794 0.13899,-0.0834 0.13105,-0.0834 0.12707,-0.0913 0.12311,-0.0953 0.11914,-0.0993 0.11119,-0.0993 0.10722,-0.10325 0.0993,-0.10722 0.0953,-0.11119 0.0874,-0.1112 0.0834,-0.11516 0.0754,-0.11914 0.0675,-0.11913 0.0635,-0.12311 0.0556,-0.12708 0.0477,-0.12707 0.0437,-0.12708 0.0357,-0.13105 0.0238,-0.13502 0.0199,-0.13105 0.0119,-0.13502 0.004,-0.13899 c 0,-1.71953 -1.82278,-3.34375 -4.39214,-3.34375 l -0.14296,0.61554 c 1.92602,0 2.61304,1.67981 2.61304,2.72821 0,1.26681 -0.96897,2.93073 -3.16504,2.93073 l -2.8672,0 0,0.43286 3.71704,0 c 1.96176,0 2.79174,1.84264 2.79174,3.16504 0,1.40978 -1.02854,3.02605 -3.06576,3.02605 l 0,0 -2.47405,0 c -0.92926,0 -0.96897,-0.13502 -0.96897,-0.7863 l 0,-5.40479 0,-0.43286 0,-4.8647 c 0,-0.65922 0.0397,-0.79424 0.96897,-0.79424 l 2.45023,0 0.14296,-0.61554 -7.23948,0 0,0.61554 0.4686,0 c 1.52891,0 1.56465,0.21444 1.56465,0.92926 l 0,10.42437 c 0,0.71482 -0.0357,0.92926 -1.56465,0.92926 l -0.4686,0 0,0.61553 7.75573,0 c 2.62893,0 4.412,-1.7632 4.412,-3.62172 0,-1.71953 -1.62819,-3.20475 -3.82426,-3.43905 z"
           inkscape:connector-curvature="0"
           style="font-style:normal;font-variant:normal;font-weight:normal;font-stretch:normal;letter-spacing:normal;word-spacing:normal;text-anchor:start;fill:#000000;stroke:#000000;stroke-width:0;stroke-linecap:butt;stroke-linejoin:miter;stroke-miterlimit:10.43299961;stroke-dasharray:none;stroke-dashoffset:0;stroke-opacity:1" />
        <path
           id="path10626"
           d="m 348.19855,839.56603 0,-2.16827 -2.74806,0.21445 0,0.61553 c 1.38197,0 1.54479,0.13502 1.54479,1.10399 l 0,5.30551 c 0,0.88558 -0.21841,0.88558 -1.54479,0.88558 l 0,0.61553 c 0.77438,-0.0198 1.69967,-0.0635 2.25961,-0.0635 0.78629,0 1.71555,0 2.50979,0.0635 l 0,-0.61553 -0.413,0 c -1.46537,0 -1.50906,-0.21444 -1.50906,-0.92926 l 0,-3.0459 c 0,-1.95383 0.82998,-3.71704 2.33903,-3.71704 0.13503,0 0.17474,0 0.21842,0.0199 -0.0635,0.0159 -0.46066,0.25416 -0.46066,0.76644 0,0.55994 0.41698,0.84983 0.85778,0.84983 0.35344,0 0.84983,-0.2343 0.84983,-0.86571 0,-0.6354 -0.61553,-1.20328 -1.46537,-1.20328 -1.44551,0 -2.16032,1.31844 -2.43831,2.16827 z"
           inkscape:connector-curvature="0"
           style="font-style:normal;font-variant:normal;font-weight:normal;font-stretch:normal;letter-spacing:normal;word-spacing:normal;text-anchor:start;fill:#000000;stroke:#000000;stroke-width:0;stroke-linecap:butt;stroke-linejoin:miter;stroke-miterlimit:10.43299961;stroke-dasharray:none;stroke-dashoffset:0;stroke-opacity:1" />
        <path
           id="path10628"
           d="m 359.25435,844.63724 0.008,0.0755 0.0119,0.0715 0.0159,0.0755 0.0159,0.0715 0.0199,0.0755 0.0199,0.0715 0.0238,0.0715 0.0278,0.0715 0.0318,0.0715 0.0318,0.0675 0.0357,0.0715 0.0357,0.0635 0.0397,0.0635 0.0437,0.0635 0.0437,0.0635 0.0477,0.0556 0.0516,0.0556 0.0516,0.0556 0.0556,0.0516 0.0556,0.0477 0.0596,0.0476 0.0635,0.0397 0.0635,0.0397 0.0675,0.0357 0.0715,0.0318 0.0715,0.0278 0.0754,0.0238 0.0755,0.0199 0.0794,0.0159 0.0794,0.0119 0.0834,0.008 0.0874,0.004 c 0.40903,0 1.62025,-0.28195 1.62025,-1.88234 l 0,-1.104 -0.4964,0 0,1.104 c 0,1.14767 -0.49243,1.26681 -0.71482,1.26681 -0.65127,0 -0.7307,-0.88558 -0.7307,-0.98486 l 0,-3.95928 c 0,-0.83395 0,-1.60039 -0.70687,-2.33506 -0.77835,-0.76644 -1.76321,-1.08413 -2.71232,-1.08413 -1.62819,0 -2.99031,0.92529 -2.99031,2.23181 0,0.5917 0.39712,0.93323 0.90941,0.93323 0.55199,0 0.91337,-0.39712 0.91337,-0.91338 0,-0.2343 -0.0993,-0.88557 -1.01265,-0.91337 0.53611,-0.68702 1.50508,-0.90543 2.1365,-0.90543 0.97294,0 2.09678,0.77041 2.09678,2.53362 l 0,0.7307 0,0.41697 0,1.97765 c 0,1.88235 -1.42168,2.54951 -2.3152,2.54951 -0.96897,0 -1.77909,-0.69496 -1.77909,-1.67981 0,-1.08414 0.82998,-2.73218 4.09429,-2.84735 l 0,0 0,-0.41697 c -1.00471,0.0556 -2.39065,0.11913 -3.63761,0.71481 -1.48125,0.67113 -1.97765,1.69967 -1.97765,2.56936 0,1.60039 1.91809,2.09679 3.16504,2.09679 1.31049,0 2.21592,-0.79027 2.59319,-1.71953 z"
           inkscape:connector-curvature="0"
           style="font-style:normal;font-variant:normal;font-weight:normal;font-stretch:normal;letter-spacing:normal;word-spacing:normal;text-anchor:start;fill:#000000;stroke:#000000;stroke-width:0;stroke-linecap:butt;stroke-linejoin:miter;stroke-miterlimit:10.43299961;stroke-dasharray:none;stroke-dashoffset:0;stroke-opacity:1" />
        <path
           id="path10630"
           d="m 364.67105,844.63724 0,0.0397 0,0.0397 0,0.0754 -0.004,0.0715 -0.008,0.0675 -0.004,0.0596 -0.0119,0.0596 -0.0119,0.0516 -0.0119,0.0477 -0.0199,0.0437 -0.0159,0.0437 -0.0238,0.0357 -0.0278,0.0358 -0.0278,0.0318 -0.0318,0.0278 -0.0357,0.0238 -0.0397,0.0199 -0.0437,0.0199 -0.0477,0.0199 -0.0516,0.0119 -0.0556,0.0159 -0.0596,0.008 -0.0635,0.0119 -0.0715,0.004 -0.0357,0.004 -0.0397,0.004 -0.0397,0.004 -0.0397,0 -0.0437,0.004 -0.0437,0 -0.0437,0 -0.0477,0.004 -0.0476,0 -0.0477,0 -0.0516,0 -0.0516,0 -0.0516,0 -0.0556,0 -0.0556,0 -0.0596,0 -0.0596,0 -0.0635,0 0,0.61553 c 0.65922,-0.0198 1.5845,-0.0635 2.16033,-0.0635 0.58773,0 1.38197,0.0278 2.17621,0.0635 l 0,-0.61553 c -1.32638,0 -1.5448,0 -1.5448,-0.88558 l 0,-2.04119 1.26681,-1.0881 c 1.52097,2.10076 2.35095,3.20475 2.35095,3.56215 0,0.3733 -0.33358,0.45272 -0.70687,0.45272 l 0,0.61553 c 0.55199,-0.0198 1.71952,-0.0635 2.1365,-0.0635 0.57185,0 1.14767,0.0278 1.71952,0.0635 l 0,-0.61553 c -0.73467,0 -1.16753,0 -1.91808,-1.04839 l -2.51377,-3.54231 c -0.0199,-0.0357 -0.11913,-0.15487 -0.11913,-0.21841 0,-0.0715 1.40183,-1.26284 1.60039,-1.41772 1.24695,-1.01265 2.0809,-1.04839 2.49391,-1.06825 l 0,-0.61553 c -0.56788,0.0556 -0.82998,0.0556 -1.38198,0.0556 -0.71481,0 -1.94191,-0.0358 -2.21592,-0.0556 l 0,0.61553 c 0.37329,0.0199 0.57185,0.2343 0.57185,0.48846 0,0.39712 -0.27401,0.63539 -0.43286,0.77835 l -2.79175,2.41052 0,-9.49909 -2.85131,0.21841 0,0.61554 c 1.38594,0 1.54479,0.13502 1.54479,1.10796 z"
           inkscape:connector-curvature="0"
           style="font-style:normal;font-variant:normal;font-weight:normal;font-stretch:normal;letter-spacing:normal;word-spacing:normal;text-anchor:start;fill:#000000;stroke:#000000;stroke-width:0;stroke-linecap:butt;stroke-linejoin:miter;stroke-miterlimit:10.43299961;stroke-dasharray:none;stroke-dashoffset:0;stroke-opacity:1" />
        <path
           id="path10632"
           d="m 374.63477,841.56751 0.0199,-0.41697 c 0.11517,-2.94662 1.7791,-3.43905 2.4542,-3.43905 2.03722,0 2.23578,2.66864 2.23578,3.43905 l -4.68998,0 -0.0199,0.41697 5.52392,0 c 0.43286,0 0.48846,0 0.48846,-0.41697 0,-1.95383 -1.06825,-3.87191 -3.53833,-3.87191 -2.29535,0 -4.11813,2.03325 -4.11813,4.51127 0,2.64878 2.07694,4.56687 4.3564,4.56687 2.41448,0 3.30006,-2.19607 3.30006,-2.56936 0,-0.19856 -0.15488,-0.24224 -0.25416,-0.24224 -0.1787,0 -0.21841,0.11913 -0.2621,0.27798 -0.68701,2.03722 -2.47008,2.03722 -2.66864,2.03722 -0.99279,0 -1.77909,-0.59171 -2.2318,-1.32241 -0.59568,-0.94911 -0.59568,-2.2596 -0.59568,-2.97045 z"
           inkscape:connector-curvature="0"
           style="font-style:normal;font-variant:normal;font-weight:normal;font-stretch:normal;letter-spacing:normal;word-spacing:normal;text-anchor:start;fill:#000000;stroke:#000000;stroke-width:0;stroke-linecap:butt;stroke-linejoin:miter;stroke-miterlimit:10.43299961;stroke-dasharray:none;stroke-dashoffset:0;stroke-opacity:1" />
      </g>
      <g
         transform="translate(-50.002551,18.182746)"
         id="g10818">
        <path
           id="path10634"
           d="m 395.35247,845.05422 0,1.30255 2.90294,-0.21842 0,-0.61553 c -1.38198,0 -1.54083,-0.13502 -1.54083,-1.10399 l 0,-12.01285 -2.84734,0.21841 0,0.61554 c 1.38595,0 1.54082,0.13502 1.54082,1.10796 l 0,4.26903 c -0.57185,-0.70687 -1.42168,-1.21916 -2.4939,-1.21916 l 0.0794,0.43286 c 0.69496,0 1.52494,0.29784 2.14047,1.18342 0.21842,0.33755 0.21842,0.38123 0.21842,0.73467 l 0,0 0,4.05856 c 0,0.35343 0,0.39711 -0.21842,0.73069 -0.59568,0.94912 -1.4892,1.38198 -2.33903,1.38198 -0.88558,0 -1.60039,-0.51228 -2.07296,-1.26284 -0.51228,-0.81409 -0.57582,-1.94191 -0.57582,-2.75203 0,-0.7307 0.0357,-1.92206 0.61156,-2.80764 0.41697,-0.61553 1.16753,-1.26681 2.23578,-1.26681 l -0.0794,-0.43286 c -2.33506,0 -4.412,1.93397 -4.412,4.48348 0,2.51376 1.94192,4.47553 4.19358,4.47553 1.26681,0 2.16033,-0.67113 2.65673,-1.30255 z"
           inkscape:connector-curvature="0"
           style="font-style:normal;font-variant:normal;font-weight:normal;font-stretch:normal;letter-spacing:normal;word-spacing:normal;text-anchor:start;fill:#000000;stroke:#000000;stroke-width:0;stroke-linecap:butt;stroke-linejoin:miter;stroke-miterlimit:10.43299961;stroke-dasharray:none;stroke-dashoffset:0;stroke-opacity:1" />
        <path
           id="path10636"
           d="m 402.33779,837.39776 -2.76792,0.21445 0,0.61553 c 1.28667,0 1.46537,0.11914 1.46537,1.08414 l 0,5.32536 c 0,0.88558 -0.21842,0.88558 -1.54479,0.88558 l 0,0.61553 c 0.63142,-0.0198 1.69967,-0.0635 2.17621,-0.0635 0.69496,0 1.38594,0.0437 2.06105,0.0635 l 0,-0.61553 c -1.30652,0 -1.38992,-0.0993 -1.38992,-0.86572 z"
           inkscape:connector-curvature="0"
           style="font-style:normal;font-variant:normal;font-weight:normal;font-stretch:normal;letter-spacing:normal;word-spacing:normal;text-anchor:start;fill:#000000;stroke:#000000;stroke-width:0;stroke-linecap:butt;stroke-linejoin:miter;stroke-miterlimit:10.43299961;stroke-dasharray:none;stroke-dashoffset:0;stroke-opacity:1" />
        <path
           id="path10638"
           d="m 402.42119,833.95077 -0.004,-0.0556 -0.004,-0.0596 -0.008,-0.0556 -0.008,-0.0556 -0.0119,-0.0516 -0.0159,-0.0516 -0.0159,-0.0516 -0.0199,-0.0477 -0.0238,-0.0476 -0.0238,-0.0477 -0.0238,-0.0437 -0.0278,-0.0397 -0.0318,-0.0397 -0.0318,-0.0397 -0.0318,-0.0397 -0.0357,-0.0318 -0.0397,-0.0357 -0.0357,-0.0318 -0.0397,-0.0278 -0.0437,-0.0278 -0.0437,-0.0278 -0.0437,-0.0238 -0.0437,-0.0199 -0.0476,-0.0199 -0.0437,-0.0159 -0.0516,-0.0159 -0.0477,-0.0119 -0.0477,-0.0119 -0.0516,-0.008 -0.0516,-0.004 -0.0516,-0.004 -0.0516,-0.004 c -0.61156,0 -1.04839,0.53611 -1.04839,1.04839 0,0.53611 0.43683,1.0484 1.04839,1.0484 0.55597,0 1.05237,-0.41301 1.05237,-1.0484 z"
           inkscape:connector-curvature="0"
           style="font-style:normal;font-variant:normal;font-weight:normal;font-stretch:normal;letter-spacing:normal;word-spacing:normal;text-anchor:start;fill:#000000;stroke:#000000;stroke-width:0;stroke-linecap:butt;stroke-linejoin:miter;stroke-miterlimit:10.43299961;stroke-dasharray:none;stroke-dashoffset:0;stroke-opacity:1" />
        <path
           id="path10640"
           d="m 408.4296,842.29821 0.0477,0.008 0.0476,0.008 0.0596,0.0119 0.0596,0.0159 0.0675,0.0159 0.0715,0.0159 0.0754,0.0199 0.0794,0.0238 0.0794,0.0238 0.0834,0.0278 0.0874,0.0318 0.0874,0.0318 0.0874,0.0397 0.0874,0.0397 0.0874,0.0437 0.0874,0.0476 0.0834,0.0556 0.0874,0.0556 0.0794,0.0596 0.0794,0.0635 0.0755,0.0715 0.0715,0.0755 0.0675,0.0794 0.0635,0.0834 0.0556,0.0874 0.0278,0.0477 0.0238,0.0476 0.0238,0.0516 0.0199,0.0476 0.0199,0.0556 0.0159,0.0516 0.0199,0.0556 0.0119,0.0556 0.0119,0.0596 0.0119,0.0596 0.008,0.0635 0.004,0.0596 0.004,0.0675 0,0.0635 c 0,1.00471 -0.69495,1.79895 -2.23181,1.79895 -1.66392,0 -2.37874,-1.12782 -2.756,-2.80763 -0.0556,-0.25416 -0.0754,-0.33755 -0.27401,-0.33755 -0.25813,0 -0.25813,0.13899 -0.25813,0.49639 l 0,2.61305 c 0,0.33358 0,0.47257 0.21444,0.47257 0.0993,0 0.11914,-0.0199 0.4964,-0.39712 0.0397,-0.0397 0.0397,-0.0755 0.39712,-0.45272 0.86969,0.82998 1.76321,0.84984 2.18018,0.84984 2.27153,0 3.18093,-1.33035 3.18093,-2.74806 0,-1.0484 -0.59568,-1.64408 -0.82998,-1.88235 -0.65128,-0.63142 -1.42566,-0.79424 -2.25961,-0.94911 -1.10399,-0.21842 -2.43037,-0.47655 -2.43037,-1.62422 0,-0.69099 0.51229,-1.50111 2.21196,-1.50111 2.18018,0 2.27946,1.77909 2.3152,2.39463 0.0278,0.1787 0.19856,0.1787 0.24224,0.1787 0.25416,0 0.25416,-0.0993 0.25416,-0.47654 l 0,-1.99751 c 0,-0.33755 0,-0.47257 -0.21445,-0.47257 -0.0993,0 -0.13899,0 -0.39711,0.2343 -0.0556,0.0834 -0.25416,0.25416 -0.33756,0.31769 -0.75055,-0.55199 -1.56464,-0.55199 -1.86248,-0.55199 -2.41052,0 -3.16107,1.32241 -3.16107,2.43037 0,0.69098 0.31372,1.24695 0.84983,1.68378 0.63142,0.51229 1.19136,0.63142 2.60908,0.90543 z"
           inkscape:connector-curvature="0"
           style="font-style:normal;font-variant:normal;font-weight:normal;font-stretch:normal;letter-spacing:normal;word-spacing:normal;text-anchor:start;fill:#000000;stroke:#000000;stroke-width:0;stroke-linecap:butt;stroke-linejoin:miter;stroke-miterlimit:10.43299961;stroke-dasharray:none;stroke-dashoffset:0;stroke-opacity:1" />
        <path
           id="path10642"
           d="m 414.44595,841.82564 0.004,-0.1509 0.004,-0.14297 0.004,-0.14296 0.008,-0.13899 0.0119,-0.13502 0.0119,-0.13502 0.0119,-0.12708 0.0199,-0.12708 0.0159,-0.12311 0.0199,-0.11913 0.0238,-0.11517 0.0238,-0.11516 0.0516,-0.21842 0.0596,-0.20253 0.0675,-0.19458 0.0715,-0.18268 0.0794,-0.17076 0.0834,-0.15885 0.0874,-0.1509 0.0913,-0.13899 0.0953,-0.12708 0.0993,-0.11914 0.10325,-0.11119 0.10325,-0.10325 0.10723,-0.0913 0.11119,-0.0834 0.10722,-0.0754 0.11517,-0.0635 0.11119,-0.0596 0.11119,-0.0516 0.1112,-0.0476 0.11516,-0.0358 0.10722,-0.0318 0.1112,-0.0238 0.10722,-0.0199 0.10722,-0.0119 0.10325,-0.008 0.0993,-0.004 c 0.17076,0 1.42169,0.0198 2.11665,0.73467 -0.8141,0.0596 -0.93323,0.65127 -0.93323,0.9094 0,0.51625 0.35343,0.91337 0.91337,0.91337 0.50831,0 0.90543,-0.34152 0.90543,-0.92926 0,-1.34623 -1.50111,-2.11664 -3.03002,-2.11664 -2.46611,0 -4.29285,2.13253 -4.29285,4.58672 0,2.52965 1.96176,4.49142 4.25711,4.49142 2.64879,0 3.28418,-2.37874 3.28418,-2.56936 0,-0.19856 -0.19856,-0.19856 -0.25416,-0.19856 -0.18267,0 -0.21842,0.0755 -0.2621,0.19856 -0.57185,1.83469 -1.85454,2.07296 -2.58524,2.07296 -1.05237,0 -2.79572,-0.84983 -2.79572,-4.03473 z"
           inkscape:connector-curvature="0"
           style="font-style:normal;font-variant:normal;font-weight:normal;font-stretch:normal;letter-spacing:normal;word-spacing:normal;text-anchor:start;fill:#000000;stroke:#000000;stroke-width:0;stroke-linecap:butt;stroke-linejoin:miter;stroke-miterlimit:10.43299961;stroke-dasharray:none;stroke-dashoffset:0;stroke-opacity:1" />
      </g>
    </g>
    <circle
       style="fill:#ffffff;fill-opacity:1;stroke:#000000;stroke-width:1;stroke-linecap:butt;stroke-linejoin:round;stroke-miterlimit:4;stroke-dasharray:none;stroke-dashoffset:0;stroke-opacity:1"
       id="path10891"
       transform="translate(-51.937578,231.16602)"
       cx="119.28571"
       cy="178.89462"
       r="2.5" />
    <ellipse
       style="fill:#ffffff;fill-opacity:1;stroke:#000000;stroke-width:1;stroke-linecap:butt;stroke-linejoin:round;stroke-miterlimit:4;stroke-dasharray:none;stroke-dashoffset:0;stroke-opacity:1"
       id="path10895"
       ry="5.6309905"
       rx="2.4768729"
       cy="770.06067"
       cx="567.16956" />
    <path
       cx="567.16956"
       cy="770.06067"
       rx="2.4768729"
       ry="5.6309905"
       id="path4267"
       style="fill:#ffffff;fill-opacity:1;stroke:#000000;stroke-width:1;stroke-linecap:butt;stroke-linejoin:round;stroke-miterlimit:4;stroke-dasharray:none;stroke-dashoffset:0;stroke-opacity:1"
       d=""
       inkscape:connector-curvature="0" />
    <rect
       style="opacity:1;fill:#ffffff;fill-opacity:1;fill-rule:nonzero;stroke:#ffffff;stroke-width:0.93800002;stroke-linecap:round;stroke-linejoin:round;stroke-miterlimit:10;stroke-dasharray:none;stroke-dashoffset:0;stroke-opacity:1"
       id="rect4271"
       width="13.234657"
       height="9.4642859"
       x="553.84601"
       y="765.32849" />
  </g>
</svg>
