<?xml version="1.0" encoding="UTF-8" standalone="no"?>
<!-- Created with Inkscape (http://www.inkscape.org/) -->

<svg
   xmlns:ns0="http://www.iki.fi/pav/software/textext/"
   xmlns:dc="http://purl.org/dc/elements/1.1/"
   xmlns:cc="http://creativecommons.org/ns#"
   xmlns:rdf="http://www.w3.org/1999/02/22-rdf-syntax-ns#"
   xmlns:svg="http://www.w3.org/2000/svg"
   xmlns="http://www.w3.org/2000/svg"
   xmlns:sodipodi="http://sodipodi.sourceforge.net/DTD/sodipodi-0.dtd"
   xmlns:inkscape="http://www.inkscape.org/namespaces/inkscape"
   id="svg2"
   version="1.1"
   inkscape:version="0.91 r13725"
   width="761.2146"
   height="578.25903"
   xml:space="preserve"
   sodipodi:docname="completeMechanical.svg"><sodipodi:namedview
     pagecolor="#ffffff"
     bordercolor="#666666"
     borderopacity="1"
     objecttolerance="10"
     gridtolerance="10"
     guidetolerance="10"
     inkscape:pageopacity="0"
     inkscape:pageshadow="2"
     inkscape:window-width="1920"
     inkscape:window-height="1016"
     id="namedview4"
     showgrid="false"
     fit-margin-top="0"
     fit-margin-left="0"
     fit-margin-right="0"
     fit-margin-bottom="0"
     inkscape:zoom="1"
     inkscape:cx="333.17184"
     inkscape:cy="301.08693"
     inkscape:window-x="0"
     inkscape:window-y="27"
     inkscape:window-maximized="1"
     inkscape:current-layer="g10" /><metadata
     id="metadata8"><rdf:RDF><cc:Work
         rdf:about=""><dc:format>image/svg+xml</dc:format><dc:type
           rdf:resource="http://purl.org/dc/dcmitype/StillImage" /><dc:title></dc:title></cc:Work></rdf:RDF></metadata><defs
     id="defs6" /><g
     transform="matrix(1.25,0,0,-1.25,51.821542,780.10098)"
     inkscape:label="steeringMechanical"
     inkscape:groupmode="layer"
     id="g10"><path
       inkscape:connector-curvature="0"
       id="path5368"
       style="fill:#ffffff;fill-opacity:1;stroke:#000000;stroke-width:0.80000001;stroke-linecap:butt;stroke-linejoin:miter;stroke-miterlimit:2.04444432;stroke-dasharray:none;stroke-opacity:1"
       d="m 290.71352,437.99259 c 0,-7.25316 -2.30139,-13.13353 -5.14071,-13.13353 -2.8393,0 -5.14071,5.88037 -5.14071,13.13353 0,7.25301 2.30141,13.1334 5.14071,13.1334 2.83932,0 5.14071,-5.88039 5.14071,-13.1334 z" /><path
       inkscape:connector-curvature="0"
       id="path24-7"
       style="fill:#ffffff;fill-opacity:1;stroke:#000000;stroke-width:0.80000001;stroke-linecap:square;stroke-linejoin:round;stroke-miterlimit:2.04444432;stroke-dasharray:none;stroke-opacity:1"
       d="m 284.91377,438.47289 c 0,-2.65356 -0.0627,-2.01708 -18.35155,-2.01708 -18.29008,0 -18.49046,-0.38914 -18.49046,2.26205 0,2.65356 0.20038,2.46777 18.49046,2.46777 18.28882,0 18.35155,-0.0615 18.35155,-2.71274 z" /><path
       inkscape:connector-curvature="0"
       id="path16-4"
       style="fill:#ffffff;fill-opacity:1;fill-rule:nonzero;stroke:#000000;stroke-width:0.80000001;stroke-linecap:round;stroke-linejoin:miter;stroke-miterlimit:2.04444432;stroke-dasharray:none;stroke-opacity:1"
       d="m 232.86831,461.81342 0,-0.22705 c 0.10544,0.006 0.20799,0.0117 0.31342,0.0117 8.56739,0 15.51657,-10.43091 15.51657,-23.29938 0,-12.86849 -6.94918,-23.29939 -15.51657,-23.29939 -0.10544,0 -0.20798,0.009 -0.31342,0.0117 l 0,-0.0117 -53.18438,0 0,46.81488 53.18438,0 z" /><path
       inkscape:connector-curvature="0"
       id="path18"
       style="fill:#ffffff;fill-opacity:1;fill-rule:nonzero;stroke:#000000;stroke-width:0.80000001;stroke-linecap:butt;stroke-linejoin:miter;stroke-miterlimit:2.04444432;stroke-dasharray:none;stroke-opacity:1"
       d="m 187.55026,438.17475 c 0,-13.01585 -4.10354,-23.56688 -9.16449,-23.56688 -5.06173,0 -9.16527,10.55103 -9.16527,23.56688 0,13.01341 4.10354,23.56443 9.16527,23.56443 5.06095,0 9.16449,-10.55102 9.16449,-23.56443 z" /><path
       inkscape:connector-curvature="0"
       id="path28-9"
       style="fill:none;stroke:#000000;stroke-width:0.80000001;stroke-linecap:square;stroke-linejoin:round;stroke-miterlimit:2.04444432;stroke-dasharray:none;stroke-opacity:1"
       d="m 284.76691,395.44738 c 0,-1.92867 -1.56339,-3.4944 -3.49393,-3.4944 -1.92868,0 -3.49441,1.56573 -3.49441,3.4944 0,1.92821 1.56573,3.49394 3.49441,3.49394 1.93054,0 3.49393,-1.56573 3.49393,-3.49394 z" /><path
       d="m 382.32037,395.16166 c 0,-3.31589 -0.16279,-2.52167 -47.7947,-2.52167 -47.6319,0 -48.15447,-0.48628 -48.15447,2.83119 0,3.31431 0.52257,3.08218 48.15447,3.08218 47.63191,0 47.7947,-0.0755 47.7947,-3.3917 z"
       style="fill:#ffffff;fill-opacity:1;fill-rule:nonzero;stroke:#000000;stroke-width:0.80000001;stroke-linecap:square;stroke-linejoin:round;stroke-miterlimit:2.04444432;stroke-dasharray:none;stroke-opacity:1"
       id="path36"
       inkscape:connector-curvature="0" /><path
       d="m 296.83813,395.44731 c 0,-16.3178 -5.17756,-29.54719 -11.56531,-29.54719 -6.38775,0 -11.56533,13.22939 -11.56533,29.54719 0,16.31748 5.17758,29.54687 11.56533,29.54687 6.38775,0 11.56531,-13.22939 11.56531,-29.54687 z"
       style="fill:#ffffff;fill-opacity:1;stroke:#000000;stroke-width:0.80000001;stroke-linecap:butt;stroke-linejoin:miter;stroke-miterlimit:2.04444432;stroke-dasharray:none;stroke-opacity:1"
       id="path32-2"
       inkscape:connector-curvature="0" /><g
       id="g4872"
       transform="matrix(1.1466689,0,0,1.1466689,-21.465602,-103.62036)"
       style="stroke-width:0.69767308;stroke-miterlimit:2.04444432;stroke-dasharray:none"><g
         transform="matrix(0.92038713,0,0,-0.92038713,-106.29113,845.34244)"
         id="g4874"
         style="fill:#ffffff;fill-opacity:1;stroke-width:0.7580213;stroke-miterlimit:2.04444432;stroke-dasharray:none"><path
           inkscape:connector-curvature="0"
           id="path4876"
           style="fill:#ffffff;fill-opacity:1;stroke:#000000;stroke-width:0.7580213;stroke-linecap:square;stroke-linejoin:round;stroke-miterlimit:2.04444432;stroke-dasharray:none;stroke-opacity:1"
           d="m 588.449,272.043 c 0,11.434 -9.176,20.699 -20.496,20.699 -11.316,0 -20.496,-9.265 -20.496,-20.699 0,-11.43 9.18,-20.695 20.496,-20.695 11.32,0 20.496,9.265 20.496,20.695 z" /></g><g
         transform="matrix(0.92038713,0,0,-0.92038713,-106.29113,845.34244)"
         id="g4878"
         style="stroke-width:0.7580213;stroke-miterlimit:2.04444432;stroke-dasharray:none"><path
           inkscape:connector-curvature="0"
           id="path4880"
           style="fill:none;stroke:#000000;stroke-width:0.7580213;stroke-linecap:square;stroke-linejoin:round;stroke-miterlimit:2.04444432;stroke-dasharray:none;stroke-opacity:1"
           d="m 570.055,272.043 c 0,1.047 -0.852,1.898 -1.899,1.898 -1.047,0 -1.898,-0.851 -1.898,-1.898 0,-1.047 0.851,-1.898 1.898,-1.898 1.047,0 1.899,0.851 1.899,1.898 z" /></g></g><g
       id="g30"
       transform="matrix(0.92038713,0,0,-0.92038713,25.513567,806.87583)"
       style="stroke-width:0.86919945;stroke-miterlimit:2.04444432;stroke-dasharray:none"><path
         d="m 444.766,272.043 c 0,1.371 -1.11,2.48 -2.481,2.48 -1.371,0 -2.48,-1.109 -2.48,-2.48 0,-1.367 1.109,-2.481 2.48,-2.481 1.371,0 2.481,1.114 2.481,2.481 z"
         style="fill:none;stroke:#000000;stroke-width:0.86919945;stroke-linecap:square;stroke-linejoin:round;stroke-miterlimit:2.04444432;stroke-dasharray:none;stroke-opacity:1"
         id="path32"
         inkscape:connector-curvature="0" /></g><g
       transform="matrix(1.1466689,0,0,1.1466689,-165.4656,-110.02036)"
       id="g4846"
       style="stroke-width:0.69767308;stroke-miterlimit:2.04444432;stroke-dasharray:none"><g
         style="fill:#ffffff;fill-opacity:1;stroke-width:0.7580213;stroke-miterlimit:2.04444432;stroke-dasharray:none"
         id="g4838"
         transform="matrix(0.92038713,0,0,-0.92038713,-106.29113,845.34244)"><path
           d="m 588.449,272.043 c 0,11.434 -9.176,20.699 -20.496,20.699 -11.316,0 -20.496,-9.265 -20.496,-20.699 0,-11.43 9.18,-20.695 20.496,-20.695 11.32,0 20.496,9.265 20.496,20.695 z"
           style="fill:#ffffff;fill-opacity:1;stroke:#000000;stroke-width:0.7580213;stroke-linecap:square;stroke-linejoin:round;stroke-miterlimit:2.04444432;stroke-dasharray:none;stroke-opacity:1"
           id="path4840"
           inkscape:connector-curvature="0" /></g><g
         id="g4842"
         transform="matrix(0.92038713,0,0,-0.92038713,-106.29113,845.34244)"
         style="stroke-width:0.7580213;stroke-miterlimit:2.04444432;stroke-dasharray:none"><path
           d="m 570.055,272.043 c 0,1.047 -0.852,1.898 -1.899,1.898 -1.047,0 -1.898,-0.851 -1.898,-1.898 0,-1.047 0.851,-1.898 1.898,-1.898 1.047,0 1.899,0.851 1.899,1.898 z"
           style="fill:none;stroke:#000000;stroke-width:0.7580213;stroke-linecap:square;stroke-linejoin:round;stroke-miterlimit:2.04444432;stroke-dasharray:none;stroke-opacity:1"
           id="path4844"
           inkscape:connector-curvature="0" /></g></g><g
       id="g4852"
       transform="matrix(0.87957468,0,0,0.86507256,-284.59326,79.685213)"
       style="stroke-width:0.91712254;stroke-miterlimit:2.04444432;stroke-dasharray:none"><g
         transform="matrix(0.92038713,0,0,-0.92038713,-106.29113,845.34244)"
         id="g4854"
         style="fill:#ffffff;fill-opacity:1;stroke-width:0.99645299;stroke-miterlimit:2.04444432;stroke-dasharray:none"><path
           inkscape:connector-curvature="0"
           id="path4856"
           style="fill:#ffffff;fill-opacity:1;stroke:#000000;stroke-width:0.99645299;stroke-linecap:square;stroke-linejoin:round;stroke-miterlimit:2.04444432;stroke-dasharray:none;stroke-opacity:1"
           d="m 588.449,272.043 c 0,11.434 -9.176,20.699 -20.496,20.699 -11.316,0 -20.496,-9.265 -20.496,-20.699 0,-11.43 9.18,-20.695 20.496,-20.695 11.32,0 20.496,9.265 20.496,20.695 z" /></g><g
         transform="matrix(0.92038713,0,0,-0.92038713,-106.29113,845.34244)"
         id="g4858"
         style="stroke-width:0.99645299;stroke-miterlimit:2.04444432;stroke-dasharray:none"><path
           inkscape:connector-curvature="0"
           id="path4860"
           style="fill:none;stroke:#000000;stroke-width:0.99645299;stroke-linecap:square;stroke-linejoin:round;stroke-miterlimit:2.04444432;stroke-dasharray:none;stroke-opacity:1"
           d="m 570.055,272.043 c 0,1.047 -0.852,1.898 -1.899,1.898 -1.047,0 -1.898,-0.851 -1.898,-1.898 0,-1.047 0.851,-1.898 1.898,-1.898 1.047,0 1.899,0.851 1.899,1.898 z" /></g></g><g
       transform="matrix(1.0552344,0,0,-1.0725754,-432.86409,869.14446)"
       id="g4864"
       style="fill:#ffffff;fill-opacity:1;stroke-width:0.7519719;stroke-miterlimit:2.04444432;stroke-dasharray:none"><path
         inkscape:connector-curvature="0"
         id="path4866"
         style="fill:#ffffff;fill-opacity:1;stroke:#000000;stroke-width:0.7519719;stroke-linecap:square;stroke-linejoin:round;stroke-miterlimit:2.04444432;stroke-dasharray:none;stroke-opacity:1"
         d="m 588.449,272.043 c 0,11.434 -9.176,20.699 -20.496,20.699 -11.316,0 -20.496,-9.265 -20.496,-20.699 0,-11.43 9.18,-20.695 20.496,-20.695 11.32,0 20.496,9.265 20.496,20.695 z" /></g><g
       transform="matrix(1.0552344,0,0,-1.0725754,-432.86409,869.14446)"
       id="g4868"
       style="stroke-width:0.7519719;stroke-miterlimit:2.04444432;stroke-dasharray:none"><path
         inkscape:connector-curvature="0"
         id="path4870"
         style="fill:none;stroke:#000000;stroke-width:0.7519719;stroke-linecap:square;stroke-linejoin:round;stroke-miterlimit:2.04444432;stroke-dasharray:none;stroke-opacity:1"
         d="m 570.055,272.043 c 0,1.047 -0.852,1.898 -1.899,1.898 -1.047,0 -1.898,-0.851 -1.898,-1.898 0,-1.047 0.851,-1.898 1.898,-1.898 1.047,0 1.899,0.851 1.899,1.898 z" /></g><path
       inkscape:connector-curvature="0"
       id="path84"
       style="fill:none;stroke:#000000;stroke-width:0.80000001;stroke-linecap:square;stroke-linejoin:round;stroke-miterlimit:2.04444432;stroke-dasharray:none;stroke-opacity:1"
       d="m 560.84621,598.68043 c 1.50337,-11.52613 9.00217,-47.25452 -252.5378,-49.52165 -218.399465,-1.89313 -243.787526,28.20484 -243.316715,46.9988 0.796452,31.69529 105.321895,27.8621 244.468235,26.8116 140.5303,-1.06235 248.05664,1.25351 251.38628,-24.28875 z" /><g
       style="fill:#ffffff;fill-opacity:1;stroke-width:0.86919945;stroke-miterlimit:2.04444432;stroke-dasharray:none"
       id="g18"
       transform="matrix(0.92038713,0,0,-0.92038713,25.513567,806.87583)"><path
         d="m 588.449,272.043 c 0,11.434 -9.176,20.699 -20.496,20.699 -11.316,0 -20.496,-9.265 -20.496,-20.699 0,-11.43 9.18,-20.695 20.496,-20.695 11.32,0 20.496,9.265 20.496,20.695 z"
         style="fill:#ffffff;fill-opacity:1;stroke:#000000;stroke-width:0.86919945;stroke-linecap:square;stroke-linejoin:round;stroke-miterlimit:2.04444432;stroke-dasharray:none;stroke-opacity:1"
         id="path20"
         inkscape:connector-curvature="0" /></g><g
       id="g26"
       transform="matrix(0.92038713,0,0,-0.92038713,25.513567,806.87583)"
       style="stroke-width:0.86919945;stroke-miterlimit:2.04444432;stroke-dasharray:none"><path
         d="m 456.137,272.043 c 0,7.652 -6.199,13.852 -13.852,13.852 -7.648,0 -13.851,-6.2 -13.851,-13.852 0,-7.648 6.203,-13.852 13.851,-13.852 7.653,0 13.852,6.204 13.852,13.852 z"
         style="fill:#ffffff;fill-opacity:1;fill-rule:nonzero;stroke:#000000;stroke-width:0.86919945;stroke-linecap:square;stroke-linejoin:round;stroke-miterlimit:2.04444432;stroke-dasharray:none;stroke-opacity:1"
         id="path28"
         inkscape:connector-curvature="0" /></g><g
       id="g34"
       transform="matrix(0.92038713,0,0,-0.92038713,25.513567,806.87583)"
       style="stroke-width:0.86919945;stroke-miterlimit:2.04444432;stroke-dasharray:none" /><g
       style="fill:#ffffff;fill-opacity:1"
       id="g38"
       transform="matrix(0.747732,0,0,-0.747732,-80.440541,730.78974)"><path
         d="m 52.57,413.316 130.285,0 0,64 -130.285,0 0,-64 z"
         style="fill:#ffffff;fill-opacity:1;stroke:#000000;stroke-width:0.86919945;stroke-linecap:butt;stroke-linejoin:round;stroke-miterlimit:4;stroke-dasharray:none;stroke-opacity:1"
         id="path40"
         inkscape:connector-curvature="0" /></g><g
       id="g42"
       transform="matrix(0.92038713,0,0,-0.92038713,-102.48643,806.87583)"
       style="stroke-width:0.86919945;stroke-miterlimit:2.04444432;stroke-dasharray:none"><path
         d="m 137.145,377.891 21.711,0 0,133.715 -21.711,0 0,-133.715 z"
         style="fill:#eeeeec;fill-opacity:1;fill-rule:nonzero;stroke:#000000;stroke-width:0.86919945;stroke-linecap:butt;stroke-linejoin:round;stroke-miterlimit:2.04444432;stroke-dasharray:none;stroke-opacity:1"
         id="path44"
         inkscape:connector-curvature="0" /></g><g
       id="g46"
       transform="matrix(1.4261055,0.23453489,0.36340308,-0.92038713,-179.23994,806.87583)"
       style="stroke-width:0.84228301;stroke-miterlimit:2.04444432;stroke-dasharray:none"><path
         d="m 45.388,387.964 264.684,-0.002 10e-4,13.29 -264.684,10e-4 -0.001,-13.289 z"
         style="fill:#eeeeec;fill-opacity:1;fill-rule:nonzero;stroke:#000000;stroke-width:0.67665523;stroke-linecap:butt;stroke-linejoin:round;stroke-miterlimit:2.04444432;stroke-dasharray:none;stroke-opacity:1"
         id="path48"
         inkscape:connector-curvature="0" /></g><g
       id="g50"
       transform="matrix(1.4195228,-0.23453489,0.36172562,0.92038713,-178.2908,806.87583)"
       style="stroke-width:0.84228301;stroke-miterlimit:2.04444432;stroke-dasharray:none"><path
         d="m 258.121,-446.866 264.683,0.002 10e-4,13.289 -264.683,-0.002 -0.001,-13.289 z"
         style="fill:#eeeeec;fill-opacity:1;fill-rule:nonzero;stroke:#000000;stroke-width:0.67822242;stroke-linecap:butt;stroke-linejoin:round;stroke-miterlimit:2.04444432;stroke-dasharray:none;stroke-opacity:1"
         id="path52"
         inkscape:connector-curvature="0" /></g><g
       id="g54"
       transform="matrix(0.92038713,0,0,-0.92038713,25.513567,806.87583)"
       style="stroke-width:0.86919945;stroke-miterlimit:2.04444432;stroke-dasharray:none"><path
         d="m 414.23,358.293 0,61.84 -42.949,0 0,50.371 42.949,0 0,61.84 57.918,0 0,-174.051 -57.918,0 z"
         style="fill:#ffffff;fill-opacity:1;fill-rule:nonzero;stroke:#000000;stroke-width:0.86919945;stroke-linecap:square;stroke-linejoin:round;stroke-miterlimit:2.04444432;stroke-dasharray:none;stroke-opacity:1"
         id="path56"
         inkscape:connector-curvature="0" /></g><g
       id="g62"
       transform="matrix(0.92038713,0,0,0.92038713,25.513567,806.87583)"
       style="stroke-width:0.86919945;stroke-miterlimit:2.04444432;stroke-dasharray:none"><path
         d="m 468.57,-579.719 c 0,14.52 -11.765,26.285 -26.285,26.285 -14.515,0 -26.285,-11.765 -26.285,-26.285 0,-14.515 11.77,-26.285 26.285,-26.285 14.52,0 26.285,11.77 26.285,26.285 z"
         style="fill:#eeeeec;fill-opacity:1;fill-rule:nonzero;stroke:#000000;stroke-width:0.86919945;stroke-linecap:butt;stroke-linejoin:round;stroke-miterlimit:2.04444432;stroke-dasharray:none;stroke-opacity:1"
         id="path64"
         inkscape:connector-curvature="0" /></g><g
       id="g70"
       transform="matrix(0.92038713,0,0,-0.92038713,25.513567,806.87583)"
       style="stroke-width:0.86919945;stroke-miterlimit:2.04444432;stroke-dasharray:none"><path
         d="m 440.113,532.574 4.285,0 0,20.609 -4.285,0 0,-20.609 z"
         style="fill:#eeeeec;fill-opacity:1;fill-rule:nonzero;stroke:#000000;stroke-width:0.86919945;stroke-linecap:butt;stroke-linejoin:round;stroke-miterlimit:2.04444432;stroke-dasharray:none;stroke-opacity:1"
         id="path72"
         inkscape:connector-curvature="0" /></g><g
       id="g74"
       transform="matrix(0.92038713,0,0,-0.92038713,25.513567,806.87583)"
       style="stroke-width:0.86919945;stroke-miterlimit:2.04444432;stroke-dasharray:none"><path
         d="m 444.363,614.918 c 0,1.148 -0.929,2.078 -2.078,2.078 -1.144,0 -2.074,-0.93 -2.074,-2.078 0,-1.145 0.93,-2.074 2.074,-2.074 1.149,0 2.078,0.929 2.078,2.074 z"
         style="fill:#eeeeec;fill-opacity:1;fill-rule:nonzero;stroke:#000000;stroke-width:0.86919945;stroke-linecap:butt;stroke-linejoin:round;stroke-miterlimit:2.04444432;stroke-dasharray:none;stroke-opacity:1"
         id="path76"
         inkscape:connector-curvature="0" /></g><g
       id="g90"
       transform="matrix(0.92038713,0,0,-0.92038713,25.513567,806.87583)"
       style="stroke-width:0.86919945;stroke-miterlimit:2.04444432;stroke-dasharray:none"><path
         d="m 588.352,615.129 c 0,11.433 -9.157,20.699 -20.45,20.699 -11.289,0 -20.445,-9.266 -20.445,-20.699 0,-11.43 9.156,-20.695 20.445,-20.695 11.293,0 20.45,9.265 20.45,20.695 z"
         style="fill:none;stroke:#000000;stroke-width:0.86919945;stroke-linecap:square;stroke-linejoin:round;stroke-miterlimit:2.04444432;stroke-dasharray:none;stroke-opacity:1"
         id="path92"
         inkscape:connector-curvature="0" /></g><g
       id="g106"
       transform="matrix(0.92038713,0,0,-0.92038713,-102.48643,806.87583)"
       style="stroke-width:0.86919945;stroke-miterlimit:2.04444432;stroke-dasharray:none"><path
         d="m 152,444.746 c 0,2.211 -1.789,4 -4,4 -2.211,0 -4,-1.789 -4,-4 0,-2.207 1.789,-4 4,-4 2.211,0 4,1.793 4,4 z"
         style="fill:#eeeeec;fill-opacity:1;fill-rule:nonzero;stroke:#000000;stroke-width:0.86919945;stroke-linecap:butt;stroke-linejoin:round;stroke-miterlimit:2.04444432;stroke-dasharray:none;stroke-opacity:1"
         id="path108"
         inkscape:connector-curvature="0" /></g><g
       id="g114"
       transform="matrix(0.92038713,0,0,-0.92038713,25.513567,806.87583)"
       style="stroke-width:0.86919945;stroke-miterlimit:2.04444432;stroke-dasharray:none"><path
         d="m 425.309,579.438 c 0.57,9.175 14.101,20.25 -2.454,21.695 -4.269,0.375 -12.777,-11.633 -13.085,-21.695 -0.348,-11.411 11.562,-28.102 20.445,-19.887 6.863,6.347 -5.461,10.929 -4.906,19.887 z"
         style="fill:#d3d7cf;fill-opacity:1;fill-rule:nonzero;stroke:#000000;stroke-width:0.86919945;stroke-linecap:butt;stroke-linejoin:round;stroke-miterlimit:2.04444432;stroke-dasharray:none;stroke-opacity:1"
         id="path116"
         inkscape:connector-curvature="0" /></g><g
       id="g118"
       transform="matrix(0.92038713,0,0,-0.92038713,25.513567,806.87583)"
       style="stroke-width:0.86919945;stroke-miterlimit:2.04444432;stroke-dasharray:none" /><g
       id="g130"
       transform="matrix(0.92038713,0,0,-0.92038713,25.513567,806.87583)"
       style="stroke-width:0.86919945;stroke-miterlimit:2.04444432;stroke-dasharray:none"><path
         d="m 582.137,229.93 c 0,-7.649 -6.199,-13.848 -13.852,-13.848 -7.648,0 -13.851,6.199 -13.851,13.848 0,7.652 6.203,13.851 13.851,13.851 7.653,0 13.852,-6.199 13.852,-13.851 z"
         style="fill:#ffffff;fill-opacity:1;fill-rule:nonzero;stroke:#000000;stroke-width:0.86919945;stroke-linecap:square;stroke-linejoin:round;stroke-miterlimit:2.04444432;stroke-dasharray:none;stroke-opacity:1"
         id="path132"
         inkscape:connector-curvature="0" /></g><g
       id="g4426"
       style="stroke-width:0.80000001;stroke-miterlimit:2.04444432;stroke-dasharray:none"><g
         transform="matrix(0.92038713,0,0,-0.92038713,25.513567,806.87583)"
         id="g78"
         style="stroke-width:0.86919945;stroke-miterlimit:2.04444432;stroke-dasharray:none" /><g
         transform="matrix(0.92038713,0,0,-0.92038713,25.513567,806.87583)"
         id="g146"
         style="stroke-width:0.86919945;stroke-miterlimit:2.04444432;stroke-dasharray:none"><path
           inkscape:connector-curvature="0"
           id="path148"
           transform="matrix(0.86919946,0,0,0.86919946,28.947191,196.36961)"
           d="m 475.53906,438.64648 c -1.31615,0 -2.38672,1.06872 -2.38672,2.39063 0,0.0923 0.0171,0.17995 0.0274,0.26953 l -0.14063,0 0,31.04492 4.92969,0 0,-31.04492 -0.0664,0 c 0.0102,-0.0896 0.0274,-0.17724 0.0274,-0.26953 0,-1.32191 -1.06872,-2.39063 -2.39063,-2.39063 z"
           style="fill:#eeeeec;fill-opacity:1;fill-rule:nonzero;stroke:#000000;stroke-width:1;stroke-linecap:butt;stroke-linejoin:round;stroke-miterlimit:2.04444432;stroke-dasharray:none;stroke-opacity:1" /></g></g><path
       d="m -23.47672,400.00327 -2.15002,0.52185 c -1.04648,0.25127 -1.70088,1.16061 -1.70088,2.1353 0,1.17902 0.90658,2.20433 2.21813,2.20433 2.8081,0 3.1781,-2.75748 3.27934,-3.5168 0.0138,-0.10032 0.0138,-0.20064 0.20157,-0.20064 0.21905,0 0.21905,0.0856 0.21905,0.40589 l 0,3.37598 c 0,0.28716 0,0.40221 -0.18316,0.40221 -0.11873,0 -0.14082,-0.0101 -0.25587,-0.21906 l -0.58536,-0.9526 c -0.50713,0.48505 -1.19374,1.17166 -2.69305,1.17166 -1.86655,0 -3.275662,-1.48091 -3.275662,-3.26094 0,-1.3907 0.891852,-2.62034 2.196962,-3.07685 0.18684,-0.0654 1.04648,-0.26599 2.22182,-0.55039 0.45283,-0.12241 0.95996,-0.23746 1.42752,-0.85964 0.35527,-0.43811 0.52462,-0.99218 0.52462,-1.54533 0,-1.19743 -0.83755,-2.40589 -2.25403,-2.40589 -0.48873,0 -1.76162,0.0828 -2.65716,0.90658 -0.97745,0.90934 -1.02807,1.98067 -1.0428,2.58813 -0.01748,0.16935 -0.15094,0.16935 -0.200641,0.16935 -0.216291,0 -0.216291,-0.11873 -0.216291,-0.42062 l 0,-3.36494 c 0,-0.28439 0,-0.39944 0.183157,-0.39944 0.11873,0 0.133456,0.0322 0.248505,0.21537 0,0.0147 0.0506,0.069 0.60377,0.95996 0.52554,-0.57156 1.59964,-1.17533 3.09895,-1.17533 1.96686,0 3.31155,1.64289 3.31155,3.49471 0,1.68246 -1.10723,3.05936 -2.52002,3.39715 z"
       style="fill:#000000;fill-opacity:1;fill-rule:nonzero;stroke:none"
       id="path150"
       inkscape:connector-curvature="0" /><path
       d="m -18.12375,397.36452 0.0147,0.35619 c 0.10032,2.50253 1.51311,2.92314 2.08467,2.92314 1.73309,0 1.90244,-2.26875 1.90244,-2.92314 l -3.98711,0 -0.0147,-0.35619 4.69213,0 c 0.37,0 0.41694,0 0.41694,0.35619 0,1.65761 -0.90934,3.28946 -3.00967,3.28946 -1.94846,0 -3.49747,-1.72941 -3.49747,-3.83249 0,-2.25403 1.76531,-3.88312 3.70272,-3.88312 2.05338,0 2.80442,1.86655 2.80442,2.18224 0,0.16935 -0.13346,0.20893 -0.21537,0.20893 -0.15186,0 -0.18776,-0.104 -0.22365,-0.23746 -0.58537,-1.73309 -2.09941,-1.73309 -2.26784,-1.73309 -0.84491,0 -1.51404,0.50345 -1.89876,1.12563 -0.50345,0.80534 -0.50345,1.91993 -0.50345,2.52371 z"
       style="fill:#000000;fill-opacity:1;fill-rule:nonzero;stroke:none"
       id="path152"
       inkscape:connector-curvature="0" /><path
       d="m -9.73626,399.06539 0,1.84446 -2.33318,-0.18316 0,-0.52186 c 1.17257,0 1.31247,-0.11505 1.31247,-0.93787 l 0,-4.51266 c 0,-0.75104 -0.18684,-0.75104 -1.31247,-0.75104 l 0,-0.52186 c 0.65807,0.0147 1.44224,0.0543 1.91993,0.0543 0.66912,0 1.45605,0 2.13253,-0.0543 l 0,0.52186 -0.35251,0 c -1.24436,0 -1.28025,0.18316 -1.28025,0.79061 l 0,2.58905 c 0,1.66038 0.70501,3.15601 1.98803,3.15601 0.11505,0 0.14818,0 0.18408,-0.0138 -0.0543,-0.0147 -0.39209,-0.21629 -0.39209,-0.65071 0,-0.4786 0.35619,-0.7225 0.72987,-0.7225 0.30189,0 0.72251,0.19696 0.72251,0.73263 0,0.53934 -0.52186,1.02531 -1.24437,1.02531 -1.22964,0 -1.83709,-1.12196 -2.07455,-1.84446 z"
       style="fill:#000000;fill-opacity:1;fill-rule:nonzero;stroke:none"
       id="path154"
       inkscape:connector-curvature="0" /><path
       d="m 1.04976,399.0792 0.0184,0.0368 0.0138,0.0423 0.0359,0.0792 0.0184,0.0433 0.0212,0.0433 0.0221,0.0469 0.0248,0.0469 0.0221,0.0433 0.0322,0.046 0.0249,0.0469 0.0359,0.0469 0.0322,0.0469 0.0359,0.046 0.0791,0.0865 0.0469,0.0396 0.0469,0.0469 0.0506,0.0359 0.0497,0.0396 0.058,0.0396 0.0607,0.0322 0.0644,0.0285 0.069,0.0322 0.0681,0.0258 0.1583,0.0506 0.0828,0.0138 0.0893,0.0184 0.0469,0.004 0.0469,0.006 0.0469,0.004 0.10032,0.007 0.0506,0 0,0.52186 c -0.39209,-0.0331 -0.87713,-0.0469 -1.26185,-0.0469 -0.40681,0 -1.17994,0.0285 -1.46342,0.0469 l 0,-0.52186 c 0.6185,-0.0175 0.80534,-0.40221 0.80534,-0.7225 0,-0.15095 -0.0294,-0.21537 -0.10124,-0.40313 l -1.71468,-4.28533 -1.88035,4.68846 c -0.10032,0.22273 -0.10032,0.25126 -0.10032,0.28716 0,0.43534 0.65439,0.43534 0.95628,0.43534 l 0,0.52186 c -0.50345,-0.0184 -1.44501,-0.0469 -1.82973,-0.0469 -0.45743,0 -1.133,0.0138 -1.62909,0.0469 l 0,-0.52186 c 1.05016,0 1.12195,-0.104 1.34101,-0.62218 l 2.41969,-5.96411 c 0.10033,-0.24114 0.13622,-0.32398 0.35619,-0.32398 0.21537,0 0.28716,0.15463 0.35159,0.32398 l 2.19697,5.46066 z"
       style="fill:#000000;fill-opacity:1;fill-rule:nonzero;stroke:none"
       id="path156"
       inkscape:connector-curvature="0" /><path
       d="m 10.36131,397.07735 -0.004,0.20065 -0.0138,0.19788 -0.0258,0.19789 -0.0322,0.19052 -0.0433,0.19052 -0.0497,0.18315 -0.058,0.18408 -0.0644,0.17948 -0.0791,0.17211 -0.0792,0.16567 -0.093,0.16567 -0.0976,0.16199 -0.10032,0.15462 -0.11137,0.14726 -0.11873,0.14358 -0.12609,0.13622 -0.12609,0.13346 -0.13622,0.12241 -0.14082,0.11873 -0.14726,0.10768 -0.15094,0.10401 -0.15463,0.0976 -0.15831,0.0856 -0.16474,0.0828 -0.16936,0.0681 -0.17211,0.0617 -0.17671,0.0534 -0.17948,0.0433 -0.17947,0.0396 -0.18776,0.0221 -0.18684,0.0175 -0.19052,0.004 -0.0138,-0.36632 c 0.73631,0 1.46342,-0.37459 1.89784,-1.0971 0.43903,-0.71882 0.43903,-1.69627 0.43903,-2.33318 0,-0.60745 0,-1.51311 -0.37092,-2.25034 -0.37,-0.7584 -1.10723,-1.24805 -1.95214,-1.24805 -0.7225,0 -1.45973,0.35619 -1.91257,1.12563 -0.42429,0.74092 -0.42429,1.76531 -0.42429,2.37276 0,0.6544 0,1.56006 0.40313,2.30465 0.46019,0.76945 1.24344,1.12563 1.91992,1.12563 l 0.0138,0.36632 c -2.09572,0 -3.73125,-1.82973 -3.73125,-3.93282 0,-2.16843 1.75058,-3.78279 3.71744,-3.78279 2.03498,0 3.73125,1.64658 3.73125,3.78279 z"
       style="fill:#000000;fill-opacity:1;fill-rule:nonzero;stroke:none"
       id="path158"
       inkscape:connector-curvature="0" /><path
       d="m 373.1714,410.19931 0,-0.52462 0.40313,0 c 1.29774,0 1.32628,-0.18315 1.32628,-0.79061 l 0,-8.85873 c 0,-0.60745 -0.0285,-0.78785 -1.32628,-0.78785 l -0.40313,0 0,-0.52462 6.15555,0 -0.45283,0.52462 -1.70456,0 c -0.78325,0 -0.81915,0.11505 -0.81915,0.66912 l 0,9.09251 c 0,0.56052 0.0359,0.67556 0.81915,0.67556 l 1.68247,0 c 1.0428,0 2.20432,-0.36631 3.06673,-1.56373 0.72342,-0.9885 0.867,-2.43719 0.867,-3.74966 0,-1.86655 -0.31293,-2.87253 -0.92039,-3.69628 -0.33778,-0.45283 -1.29406,-1.42752 -2.99125,-1.42752 l 0.45283,-0.52462 c 2.81822,0 5.14128,2.48781 5.14128,5.64842 0,3.19558 -2.26507,5.83801 -5.14128,5.83801 l -6.15555,0 z"
       style="fill:#000000;fill-opacity:1;fill-rule:nonzero;stroke:none"
       id="path160"
       inkscape:connector-curvature="0" /><path
       d="m 388.3946,406.14041 -2.35159,-0.17948 0,-0.52462 c 1.0925,0 1.24344,-0.10124 1.24344,-0.92039 l 0,-4.52646 c 0,-0.75196 -0.18315,-0.75196 -1.31155,-0.75196 l 0,-0.52462 c 0.53567,0.0184 1.44501,0.0543 1.84722,0.0543 0.59365,0 1.17994,-0.0359 1.75518,-0.0543 l 0,0.52462 c -1.11459,0 -1.1827,0.0828 -1.1827,0.73355 l 0,6.16936 z"
       style="fill:#000000;fill-opacity:1;fill-rule:nonzero;stroke:none"
       id="path162"
       inkscape:connector-curvature="0" /><path
       d="m 388.46271,409.07092 0,0.0469 -0.004,0.0497 -0.007,0.0469 -0.007,0.0506 -0.0212,0.0865 -0.0147,0.0423 -0.0175,0.0396 -0.0221,0.0433 -0.0175,0.0396 -0.0433,0.0718 -0.0285,0.0331 -0.0258,0.0322 -0.0322,0.0359 -0.0248,0.0249 -0.0359,0.0322 -0.0294,0.0258 -0.0359,0.0249 -0.0359,0.0212 -0.0359,0.0258 -0.0396,0.0212 -0.0359,0.0147 -0.0396,0.0175 -0.0396,0.0147 -0.0433,0.0147 -0.0396,0.006 -0.0396,0.0111 -0.0423,0.007 -0.0469,0.004 -0.0865,0.007 c -0.52093,0 -0.89185,-0.45651 -0.89185,-0.89185 0,-0.45651 0.37092,-0.89186 0.89185,-0.89186 0.46756,0 0.89186,0.35251 0.89186,0.89186 z"
       style="fill:#000000;fill-opacity:1;fill-rule:nonzero;stroke:none"
       id="path164"
       inkscape:connector-curvature="0" /><path
       d="m 397.6086,405.43631 1.93465,0 0,0.52462 -1.98159,0 0,1.94846 c 0,1.49931 0.80534,2.28992 1.55729,2.28992 0.0534,0 0.30925,0 0.56052,-0.12149 -0.20433,-0.0653 -0.50714,-0.2844 -0.50714,-0.70133 0,-0.38841 0.26692,-0.72619 0.72343,-0.72619 0.48872,0 0.73999,0.33778 0.73999,0.74091 0,0.60746 -0.58905,1.17534 -1.53152,1.17534 -0.9885,0 -1.72941,-0.63599 -1.81133,-0.70502 -0.49332,0.6185 -1.4312,0.70502 -1.88403,0.70502 l -0.0184,-0.36724 c 0.82375,0 1.29407,-0.32305 1.30879,-0.32305 l 0,-0.0147 c -0.2844,-0.0322 -0.6185,-0.25495 -0.6185,-0.7225 0,-0.10032 0.0184,-0.52462 0.47124,-0.67557 -0.0506,-0.21629 -0.0506,-0.36723 -0.0506,-0.57156 l 0,-1.93097 -3.58031,0 0,1.90152 c 0,1.62909 1.37322,2.33686 2.4694,2.33686 l 0.0184,0.36724 c -1.59687,0 -3.54901,-0.87345 -3.54901,-2.68569 l 0,-1.91993 -1.32996,0 0,-0.52462 1.32996,0 0,-5.44685 c 0,-0.75196 -0.18684,-0.75196 -1.31247,-0.75196 l 0,-0.52462 c 0.55775,0.0184 1.44592,0.0543 1.86654,0.0543 0.42062,0 1.24344,-0.0359 1.86563,-0.0543 l 0,0.52462 c -1.12196,0 -1.31248,0 -1.31248,0.75196 l 0,5.44685 3.53429,0 0,-5.44685 c 0,-0.75196 -0.18684,-0.75196 -1.31247,-0.75196 l 0,-0.52462 c 0.65808,0.0184 1.44593,0.0543 1.91624,0.0543 0.67281,0 1.45974,0 2.13622,-0.0543 l 0,0.52462 -0.35251,0 c -1.24436,0 -1.28025,0.1804 -1.28025,0.78785 l 0,5.41096 z"
       style="fill:#000000;fill-opacity:1;fill-rule:nonzero;stroke:none"
       id="path166"
       inkscape:connector-curvature="0" /><path
       d="m 401.74666,402.59968 0.011,0.35159 c 0.10401,2.50621 1.51772,2.92314 2.08928,2.92314 1.72941,0 1.89784,-2.26875 1.89784,-2.92314 l -3.98712,0 -0.011,-0.35159 4.68845,0 c 0.37368,0 0.42062,0 0.42062,0.35159 0,1.66129 -0.90935,3.29038 -3.00875,3.29038 -1.94938,0 -3.50207,-1.72573 -3.50207,-3.83249 0,-2.25127 1.76898,-3.87943 3.70271,-3.87943 2.05339,0 2.80811,1.86562 2.80811,2.18223 0,0.16843 -0.13254,0.20525 -0.21537,0.20525 -0.15463,0 -0.18684,-0.10124 -0.22274,-0.23746 -0.58997,-1.72941 -2.10032,-1.72941 -2.26875,-1.72941 -0.84492,0 -1.51404,0.50345 -1.89876,1.12195 -0.50345,0.8081 -0.50345,1.92269 -0.50345,2.52739 z"
       style="fill:#000000;fill-opacity:1;fill-rule:nonzero;stroke:none"
       id="path168"
       inkscape:connector-curvature="0" /><path
       d="m 410.13138,404.29963 0,1.84078 -2.33318,-0.17948 0,-0.52462 c 1.17534,0 1.31155,-0.11505 1.31155,-0.93879 l 0,-4.50806 c 0,-0.75196 -0.18315,-0.75196 -1.31155,-0.75196 l 0,-0.52462 c 0.66084,0.0184 1.44501,0.0543 1.91993,0.0543 0.6682,0 1.45881,0 2.1353,-0.0543 l 0,0.52462 -0.35619,0 c -1.24068,0 -1.28026,0.1804 -1.28026,0.78785 l 0,2.58813 c 0,1.6613 0.7087,3.16061 1.99264,3.16061 0.11505,0 0.14358,0 0.17947,-0.0184 -0.0506,-0.0101 -0.3884,-0.21538 -0.3884,-0.65072 0,-0.474 0.35251,-0.7225 0.72619,-0.7225 0.30188,0 0.7225,0.20156 0.7225,0.73723 0,0.53934 -0.51726,1.02071 -1.23976,1.02071 -1.23332,0 -1.83802,-1.11827 -2.07824,-1.84078 z"
       style="fill:#000000;fill-opacity:1;fill-rule:nonzero;stroke:none"
       id="path170"
       inkscape:connector-curvature="0" /><path
       d="m 415.79361,402.59968 0.0184,0.35159 c 0.10033,2.50621 1.51312,2.92314 2.08836,2.92314 1.72941,0 1.89876,-2.26875 1.89876,-2.92314 l -3.98712,0 -0.0184,-0.35159 4.69581,0 c 0.37,0 0.41694,0 0.41694,0.35159 0,1.66129 -0.90659,3.29038 -3.00599,3.29038 -1.94846,0 -3.50207,-1.72573 -3.50207,-3.83249 0,-2.25127 1.76898,-3.87943 3.70364,-3.87943 2.04878,0 2.80442,1.86562 2.80442,2.18223 0,0.16843 -0.13346,0.20525 -0.2163,0.20525 -0.15462,0 -0.18315,-0.10124 -0.21905,-0.23746 -0.58997,-1.72941 -2.0994,-1.72941 -2.26875,-1.72941 -0.84492,0 -1.5168,0.50345 -1.90152,1.12195 -0.50713,0.8081 -0.50713,1.92269 -0.50713,2.52739 z"
       style="fill:#000000;fill-opacity:1;fill-rule:nonzero;stroke:none"
       id="path172"
       inkscape:connector-curvature="0" /><path
       d="m 423.22849,404.49752 0,-4.50806 c 0,-0.75196 -0.17947,-0.75196 -1.31247,-0.75196 l 0,-0.52462 c 0.59365,0.0184 1.44593,0.0543 1.90244,0.0543 0.43442,0 1.31247,-0.0359 1.88403,-0.0543 l 0,0.52462 c -1.12563,0 -1.31247,0 -1.31247,0.75196 l 0,3.09526 c 0,1.75058 1.19374,2.68937 2.26876,2.68937 1.06028,0 1.24712,-0.90934 1.24712,-1.86562 l 0,-3.91901 c 0,-0.75196 -0.18684,-0.75196 -1.31523,-0.75196 l 0,-0.52462 c 0.59273,0.0184 1.44869,0.0543 1.9052,0.0543 0.43442,0 1.30511,-0.0359 1.88403,-0.0543 l 0,0.52462 c -0.87713,0 -1.30143,0 -1.31615,0.50346 l 0,3.21031 c 0,1.44592 0,1.96686 -0.52094,2.57064 -0.23378,0.28808 -0.79522,0.6185 -1.76162,0.6185 -1.22964,0 -2.02117,-0.72251 -2.49149,-1.75794 l 0,1.75794 -2.37368,-0.17948 0,-0.52462 c 1.17994,0 1.31247,-0.11505 1.31247,-0.93879 z"
       style="fill:#000000;fill-opacity:1;fill-rule:nonzero;stroke:none"
       id="path174"
       inkscape:connector-curvature="0" /><path
       d="m 433.15855,405.43631 2.40589,0 0,0.52462 -2.40589,0 0,3.09158 -0.42062,0 c -0.0138,-1.3769 -0.52094,-3.1781 -2.16751,-3.24252 l 0,-0.37368 1.42752,0 0,-4.64151 c 0,-2.06351 1.56374,-2.26507 2.17119,-2.26507 1.19006,0 1.66406,1.19006 1.66406,2.26507 l 0,0.95996 -0.42337,0 0,-0.92038 c 0,-1.24805 -0.50714,-1.88404 -1.12564,-1.88404 -1.12563,0 -1.12563,1.52785 -1.12563,1.81501 l 0,4.67096 z"
       style="fill:#000000;fill-opacity:1;fill-rule:nonzero;stroke:none"
       id="path176"
       inkscape:connector-curvature="0" /><path
       d="m 439.74484,406.14041 -2.35435,-0.17948 0,-0.52462 c 1.08974,0 1.24344,-0.10124 1.24344,-0.92039 l 0,-4.52646 c 0,-0.75196 -0.18315,-0.75196 -1.31155,-0.75196 l 0,-0.52462 c 0.53935,0.0184 1.44133,0.0543 1.8509,0.0543 0.58997,0 1.17625,-0.0359 1.7515,-0.0543 l 0,0.52462 c -1.11459,0 -1.17994,0.0828 -1.17994,0.73355 l 0,6.16936 z"
       style="fill:#000000;fill-opacity:1;fill-rule:nonzero;stroke:none"
       id="path178"
       inkscape:connector-curvature="0" /><path
       d="m 439.81019,409.07092 0,0.0469 -0.007,0.0497 0,0.0469 -0.011,0.0506 -0.0101,0.0433 -0.0294,0.0856 -0.0138,0.0396 -0.0184,0.0433 -0.0212,0.0396 -0.0221,0.0359 -0.0249,0.0359 -0.0249,0.0331 -0.0294,0.0322 -0.0249,0.0359 -0.0322,0.0249 -0.0285,0.0322 -0.0359,0.0258 -0.0331,0.0249 -0.0359,0.0212 -0.0359,0.0258 -0.0359,0.0212 -0.0396,0.0147 -0.0396,0.0175 -0.0791,0.0294 -0.0396,0.006 -0.046,0.0111 -0.0433,0.007 -0.0396,0.004 -0.0433,0.004 -0.0469,0.004 c -0.52094,0 -0.88817,-0.45651 -0.88817,-0.89185 0,-0.45651 0.36723,-0.89186 0.88817,-0.89186 0.47124,0 0.89186,0.35251 0.89186,0.89186 z"
       style="fill:#000000;fill-opacity:1;fill-rule:nonzero;stroke:none"
       id="path180"
       inkscape:connector-curvature="0" /><path
       d="m 447.02234,399.98946 0.0101,-0.0654 0.0111,-0.0607 0.011,-0.0644 0.0147,-0.058 0.0138,-0.0644 0.0644,-0.18316 0.0258,-0.0617 0.0249,-0.0571 0.0322,-0.0617 0.0654,-0.10769 0.0359,-0.0534 0.0396,-0.0543 0.0396,-0.0469 0.0856,-0.0929 0.0469,-0.0433 0.0506,-0.0433 0.0506,-0.0396 0.0497,-0.0322 0.058,-0.0359 0.11505,-0.058 0.0607,-0.0212 0.0644,-0.0221 0.0653,-0.0175 0.0644,-0.011 0.0718,-0.0111 0.0718,-0.006 0.0718,-0.004 c 0.34883,0 1.37782,0.24022 1.37782,1.59963 l 0,0.93788 -0.4243,0 0,-0.93788 c 0,-0.97469 -0.41417,-1.07501 -0.60469,-1.07501 -0.55315,0 -0.62126,0.75104 -0.62126,0.83387 l 0,3.36494 c 0,0.7087 0,1.36309 -0.6047,1.98527 -0.65807,0.65072 -1.49562,0.92039 -2.30464,0.92039 -1.38059,0 -2.54119,-0.78417 -2.54119,-1.89508 0,-0.50345 0.33778,-0.79429 0.77588,-0.79429 0.47124,0 0.77313,0.33778 0.77313,0.7768 0,0.20065 -0.0792,0.75472 -0.85504,0.77589 0.45283,0.58261 1.27566,0.76944 1.81132,0.76944 0.83111,0 1.78371,-0.65439 1.78371,-2.1537 l 0,-2.65624 c 0,-1.59687 -1.20479,-2.16475 -1.96687,-2.16475 -0.82282,0 -1.51311,0.58997 -1.51311,1.42752 0,0.92039 0.70777,2.32214 3.47998,2.4197 l 0,0.35619 c -0.85596,-0.0506 -2.03129,-0.10492 -3.08882,-0.60838 -1.26185,-0.57156 -1.68615,-1.445 -1.68615,-2.18592 0,-1.35849 1.63277,-1.7791 2.68937,-1.7791 1.11459,0 1.88404,0.6682 2.20433,1.45973 z"
       style="fill:#000000;fill-opacity:1;fill-rule:nonzero;stroke:none"
       id="path182"
       inkscape:connector-curvature="0" /><path
       d="m 452.8217,410.38339 -2.4197,-0.18408 0,-0.52462 c 1.17534,0 1.31155,-0.11504 1.31155,-0.94155 l 0,-8.74368 c 0,-0.75196 -0.18315,-0.75196 -1.31155,-0.75196 l 0,-0.52462 c 0.55315,0.0184 1.44501,0.0543 1.86563,0.0543 0.42061,0 1.24712,-0.0359 1.86562,-0.0543 l 0,0.52462 c -1.12471,0 -1.31155,0 -1.31155,0.75196 l 0,10.39393 z"
       style="fill:#000000;fill-opacity:1;fill-rule:nonzero;stroke:none"
       id="path184"
       inkscape:connector-curvature="0" /><path
       d="m 394.86952,389.1565 0,0.0681 0.004,0.0184 0,0.0212 0.003,0.0147 0,0.0249 0.007,0.0433 0.004,0.0258 0.007,0.0249 0.004,0.0285 0.007,0.0258 0.007,0.0285 0.0101,0.0249 0.007,0.0322 0.007,0.0295 0.0147,0.0322 0.0101,0.0285 0.0147,0.0285 0.0147,0.0359 0.0322,0.0654 0.0175,0.0285 0.0184,0.0359 0.0248,0.0285 0.0184,0.0322 0.0249,0.0322 0.0285,0.0331 c 0.65808,-0.46756 1.34101,-0.52186 1.66499,-0.52186 l 0,0.38472 c -1.46342,0 -1.46342,1.68247 -1.46342,2.07087 0,0.45651 0.0175,0.99218 0.26599,1.40911 0.13622,0.20525 0.52462,0.67281 1.19743,0.67281 1.46341,0 1.46341,-1.67879 1.46341,-2.06351 0,-0.45375 -0.0184,-0.99218 -0.26967,-1.41648 -0.13346,-0.19788 -0.52554,-0.6728 -1.19374,-0.6728 l 0,-0.38472 c 1.56005,0 2.72158,1.16153 2.72158,2.45559 0,0.62586 -0.26967,1.24436 -0.68661,1.62908 0.60009,0.57157 1.20755,0.65808 1.51312,0.65808 0.0322,0 0.11873,0 0.16935,-0.0184 -0.19052,-0.0681 -0.26599,-0.25494 -0.26599,-0.45283 0,-0.28808 0.21537,-0.48596 0.48504,-0.48596 0.16935,0 0.48228,0.11505 0.48228,0.49977 0,0.28808 -0.19788,0.82375 -0.85227,0.82375 -0.33779,0 -1.0787,-0.10033 -1.78371,-0.78786 -0.7041,0.55408 -1.4128,0.60102 -1.78279,0.60102 -1.56374,0 -2.72527,-1.15785 -2.72527,-2.44823 0,-0.74091 0.36631,-1.38058 0.78693,-1.73677 -0.21537,-0.24851 -0.51726,-0.80534 -0.51726,-1.39163 0,-0.52094 0.21905,-1.15785 0.73999,-1.49563 -1.00966,-0.28716 -1.54533,-1.00966 -1.54533,-1.68615 0,-1.20754 1.6613,-2.1353 3.71377,-2.1353 l 0.0184,0.38473 c -1.69719,0 -2.85872,0.85872 -2.85872,1.75057 0,0.77681 0.63599,1.39899 1.38058,1.44593 l 0.99218,0 c 1.44225,0 3.32536,0 3.32536,-1.44593 0,-0.90566 -1.19006,-1.75057 -2.8394,-1.75057 l -0.0184,-0.38473 c 1.98435,0 3.73585,0.85873 3.73585,2.1712 0,0.58997 -0.23746,1.44593 -1.09342,1.91624 -0.89186,0.46756 -1.86563,0.46756 -2.8937,0.46756 -0.4243,0 -1.14772,0 -1.26277,0.0184 -0.53843,0.0681 -0.88725,0.58905 -0.88725,1.12839 l -0.004,0 z"
       style="fill:#000000;fill-opacity:1;fill-rule:nonzero;stroke:none"
       id="path186"
       inkscape:connector-curvature="0" /><path
       d="m 403.37574,390.80676 0.0175,0.35251 c 0.10124,2.50621 1.51404,2.92315 2.08928,2.92315 1.72572,0 1.89508,-2.26876 1.89508,-2.92315 l -3.98436,0 -0.0175,-0.35251 4.6949,0 c 0.36723,0 0.41417,0 0.41417,0.35251 0,1.66129 -0.9029,3.28946 -3.0023,3.28946 -1.95214,0 -3.50576,-1.72573 -3.50576,-3.83249 0,-2.25035 1.76899,-3.87943 3.70364,-3.87943 2.05246,0 2.80442,1.86654 2.80442,2.18223 0,0.16935 -0.12977,0.20525 -0.21629,0.20525 -0.15094,0 -0.18316,-0.10032 -0.21905,-0.23746 -0.58629,-1.72941 -2.09941,-1.72941 -2.26876,-1.72941 -0.84123,0 -1.51311,0.50345 -1.89783,1.12195 -0.50714,0.80902 -0.50714,1.92361 -0.50714,2.52739 z"
       style="fill:#000000;fill-opacity:1;fill-rule:nonzero;stroke:none"
       id="path188"
       inkscape:connector-curvature="0" /><path
       d="m 414.56029,388.19654 0.011,-0.0644 0.0111,-0.0607 0.006,-0.0654 0.0147,-0.0571 0.0184,-0.0654 0.0212,-0.0607 0.0184,-0.0607 0.0248,-0.0617 0.0212,-0.0607 0.0331,-0.058 0.0249,-0.0607 0.0359,-0.0543 0.0644,-0.10768 0.0433,-0.0543 0.0792,-0.093 0.0469,-0.0469 0.0469,-0.0433 0.0497,-0.0433 0.0506,-0.0396 0.0543,-0.0322 0.0534,-0.0359 0.11505,-0.0571 0.12241,-0.0433 0.0644,-0.0184 0.069,-0.0101 0.0718,-0.0111 0.0681,-0.007 0.0755,-0.004 c 0.34883,0 1.37322,0.24114 1.37322,1.59963 l 0,0.9388 -0.42062,0 0,-0.9388 c 0,-0.97377 -0.41693,-1.07777 -0.60377,-1.07777 -0.55408,0 -0.62587,0.75472 -0.62587,0.83755 l 0,3.36494 c 0,0.70778 0,1.35941 -0.60009,1.98435 -0.65808,0.65072 -1.49931,0.92039 -2.30465,0.92039 -1.38058,0 -2.54211,-0.78325 -2.54211,-1.89416 0,-0.50345 0.33778,-0.79521 0.77681,-0.79521 0.46756,0 0.77681,0.3387 0.77681,0.7768 0,0.20157 -0.0865,0.75104 -0.86333,0.77681 0.45283,0.58261 1.27658,0.76945 1.81593,0.76945 0.8265,0 1.78279,-0.6544 1.78279,-2.15371 l 0,-2.65716 c 0,-1.59963 -1.20755,-2.16383 -1.96595,-2.16383 -0.82375,0 -1.51772,0.58905 -1.51772,1.4266 0,0.92039 0.71238,2.32306 3.48367,2.4197 l 0,0.35251 c -0.85504,-0.0469 -2.0313,-0.10032 -3.09158,-0.60378 -1.26185,-0.57156 -1.68247,-1.445 -1.68247,-2.18592 0,-1.35941 1.62816,-1.78002 2.68937,-1.78002 1.11459,0 1.88403,0.66912 2.20341,1.45973 z"
       style="fill:#000000;fill-opacity:1;fill-rule:nonzero;stroke:none"
       id="path190"
       inkscape:connector-curvature="0" /><path
       d="m 420.19029,392.50763 0,1.84078 -2.33686,-0.17948 0,-0.52554 c 1.17626,0 1.31247,-0.11505 1.31247,-0.93787 l 0,-4.50898 c 0,-0.75104 -0.18315,-0.75104 -1.31247,-0.75104 l 0,-0.52462 c 0.65808,0.0175 1.44593,0.0534 1.91993,0.0534 0.66912,0 1.45973,0 2.13622,-0.0534 l 0,0.52462 -0.35251,0 c -1.24436,0 -1.28394,0.17948 -1.28394,0.78693 l 0,2.58905 c 0,1.66038 0.70502,3.15969 1.98804,3.15969 0.11873,0 0.14818,0 0.18775,-0.0175 -0.0543,-0.0147 -0.39208,-0.2163 -0.39208,-0.65072 0,-0.47492 0.35251,-0.7225 0.72987,-0.7225 0.2982,0 0.71882,0.20064 0.71882,0.73631 0,0.53934 -0.52094,1.02163 -1.24436,1.02163 -1.22964,0 -1.8371,-1.11827 -2.07088,-1.84078 z"
       style="fill:#000000;fill-opacity:1;fill-rule:nonzero;stroke:none"
       id="path192"
       inkscape:connector-curvature="0" /><path
       d="m 427.4816,390.18458 0.0791,-0.0138 0.10125,-0.0221 0.0571,-0.0138 0.0607,-0.0147 0.0653,-0.0175 0.0681,-0.0184 0.0644,-0.0212 0.0718,-0.0258 0.0764,-0.0249 0.0718,-0.0285 0.15095,-0.0653 0.0718,-0.0396 0.0755,-0.0396 0.0755,-0.046 0.0681,-0.0469 0.0681,-0.0506 0.069,-0.0534 0.0644,-0.0617 0.0608,-0.0644 0.058,-0.0681 0.0534,-0.069 0.0469,-0.0755 0.0221,-0.0396 0.0423,-0.0856 0.0147,-0.0396 0.0184,-0.0469 0.0175,-0.0433 0.011,-0.0506 0.011,-0.046 0.0212,-0.10125 0.007,-0.0534 0.004,-0.0506 0.004,-0.058 0,-0.0534 c 0,-0.85227 -0.59365,-1.52784 -1.89876,-1.52784 -1.41279,0 -2.02025,0.95628 -2.34055,2.38288 -0.0506,0.21998 -0.0644,0.28808 -0.23377,0.28808 -0.21906,0 -0.21906,-0.11873 -0.21906,-0.42061 l 0,-2.22182 c 0,-0.2844 0,-0.39944 0.17948,-0.39944 0.0865,0 0.10492,0.0147 0.4243,0.33502 0.0322,0.0359 0.0322,0.0644 0.33778,0.38472 0.73723,-0.70502 1.49563,-0.71974 1.85182,-0.71974 1.93097,0 2.7041,1.12931 2.7041,2.33318 0,0.89185 -0.50714,1.39899 -0.70502,1.60055 -0.55407,0.53567 -1.21123,0.67556 -1.91993,0.80534 -0.93787,0.18684 -2.06719,0.40589 -2.06719,1.38058 0,0.58905 0.43535,1.27566 1.88404,1.27566 1.84813,0 1.93373,-1.50944 1.96318,-2.03406 0.0249,-0.15186 0.16843,-0.15186 0.20801,-0.15186 0.21629,0 0.21629,0.0828 0.21629,0.40681 l 0,1.69719 c 0,0.28348 0,0.39853 -0.18408,0.39853 -0.0856,0 -0.11873,0 -0.33778,-0.19788 -0.0469,-0.0718 -0.21537,-0.21537 -0.28716,-0.26968 -0.63691,0.46756 -1.3272,0.46756 -1.57846,0.46756 -2.05339,0 -2.68938,-1.12195 -2.68938,-2.06351 0,-0.58629 0.266,-1.06028 0.72251,-1.4312 0.53566,-0.43442 1.01058,-0.53567 2.21813,-0.76944 z"
       style="fill:#000000;fill-opacity:1;fill-rule:nonzero;stroke:none"
       id="path194"
       inkscape:connector-curvature="0" /><g
       id="g94"
       transform="matrix(0.92038713,0,0,-0.92038713,25.513567,806.87583)"
       style="stroke-width:0.86919945;stroke-miterlimit:2.04444432;stroke-dasharray:none"><path
         d="m 588.035,616.004 c -0.094,31.293 -47.976,21.742 -92.551,18.57 -47.824,-3.402 -66.734,-1.816 -66.734,-19.199 0,-17.387 15.285,-15.453 59.812,-19.203 47.036,-3.965 99.583,-14.195 99.473,19.832 z"
         style="fill:none;stroke:#000000;stroke-width:0.86919945;stroke-linecap:square;stroke-linejoin:round;stroke-miterlimit:2.04444432;stroke-dasharray:none;stroke-opacity:1"
         id="path96"
         inkscape:connector-curvature="0" /></g><g
       id="g98"
       transform="matrix(0.92038713,0,0,-0.92038713,25.513567,806.87583)"
       style="stroke-width:0.86919945;stroke-miterlimit:2.04444432;stroke-dasharray:none"><path
         d="m 456.137,615.129 c 0,7.648 -6.199,13.851 -13.852,13.851 -7.648,0 -13.851,-6.203 -13.851,-13.851 0,-7.649 6.203,-13.852 13.851,-13.852 7.653,0 13.852,6.203 13.852,13.852 z"
         style="fill:#ffffff;fill-opacity:1;fill-rule:nonzero;stroke:#000000;stroke-width:0.86919945;stroke-linecap:square;stroke-linejoin:round;stroke-miterlimit:2.04444432;stroke-dasharray:none;stroke-opacity:1"
         id="path100"
         inkscape:connector-curvature="0" /></g><g
       id="g102"
       transform="matrix(0.92038713,0,0,-0.92038713,25.513567,806.87583)"
       style="stroke-width:0.86919945;stroke-miterlimit:2.04444432;stroke-dasharray:none"><path
         d="m 444.766,615.129 c 0,1.371 -1.11,2.48 -2.481,2.48 -1.371,0 -2.48,-1.109 -2.48,-2.48 0,-1.367 1.109,-2.481 2.48,-2.481 1.371,0 2.481,1.114 2.481,2.481 z"
         style="fill:none;stroke:#000000;stroke-width:0.86919945;stroke-linecap:square;stroke-linejoin:round;stroke-miterlimit:2.04444432;stroke-dasharray:none;stroke-opacity:1"
         id="path104"
         inkscape:connector-curvature="0" /></g><g
       id="g142"
       transform="matrix(0.92038713,0,0,-0.92038713,25.513567,806.87583)"
       style="stroke-width:0.86919945;stroke-miterlimit:2.04444432;stroke-dasharray:none"><path
         inkscape:connector-curvature="0"
         id="path144"
         transform="matrix(0.86919946,0,0,0.86919946,28.947191,196.36961)"
         d="m 620.35156,479.5918 c -1.20455,0 -2.18359,0.97903 -2.18359,2.18359 0,0.38438 0.1083,0.74072 0.2832,1.05469 l 0,29.26367 3.82813,0 0,-29.31445 c 0.158,-0.30191 0.25586,-0.64011 0.25586,-1.00391 0,-1.20456 -0.97904,-2.18359 -2.1836,-2.18359 z"
         style="fill:#eeeeec;fill-opacity:1;fill-rule:nonzero;stroke:#000000;stroke-width:1;stroke-linecap:square;stroke-linejoin:round;stroke-miterlimit:2.04444432;stroke-dasharray:none;stroke-opacity:1" /></g><g
       id="g122"
       transform="matrix(0.92038713,0,0,-0.92038713,25.513567,806.87583)"
       style="stroke-width:0.86919945;stroke-miterlimit:2.04444432;stroke-dasharray:none"><path
         d="m 581.922,649.672 c 0,7.648 -6.203,13.851 -13.852,13.851 -7.652,0 -13.851,-6.203 -13.851,-13.851 0,-7.649 6.199,-13.852 13.851,-13.852 7.649,0 13.852,6.203 13.852,13.852 z"
         style="fill:#ffffff;fill-opacity:1;fill-rule:nonzero;stroke:#000000;stroke-width:0.86919945;stroke-linecap:square;stroke-linejoin:round;stroke-miterlimit:2.04444432;stroke-dasharray:none;stroke-opacity:1"
         id="path124"
         inkscape:connector-curvature="0" /></g><g
       id="g126"
       transform="matrix(0.92038713,0,0,-0.92038713,25.513567,806.87583)"
       style="stroke-width:0.86919945;stroke-miterlimit:2.04444432;stroke-dasharray:none"><path
         d="m 570.551,649.672 c 0,1.371 -1.11,2.48 -2.481,2.48 -1.371,0 -2.48,-1.109 -2.48,-2.48 0,-1.371 1.109,-2.481 2.48,-2.481 1.371,0 2.481,1.11 2.481,2.481 z"
         style="fill:none;stroke:#000000;stroke-width:0.86919945;stroke-linecap:square;stroke-linejoin:round;stroke-miterlimit:2.04444432;stroke-dasharray:none;stroke-opacity:1"
         id="path128"
         inkscape:connector-curvature="0" /></g><g
       id="g22"
       transform="matrix(0.92038713,0,0,-0.92038713,25.513567,806.87583)"
       style="stroke-width:0.86919945;stroke-miterlimit:2.04444432;stroke-dasharray:none"><path
         d="m 588.035,272.918 c -0.094,31.293 -47.976,21.746 -92.551,18.574 -47.824,-3.406 -66.734,-1.82 -66.734,-19.203 0,-17.387 15.285,-15.453 59.812,-19.203 47.036,-3.965 99.583,-14.195 99.473,19.832 z"
         style="fill:none;stroke:#000000;stroke-width:0.86919945;stroke-linecap:square;stroke-linejoin:round;stroke-miterlimit:2.04444432;stroke-dasharray:none;stroke-opacity:1"
         id="path24"
         inkscape:connector-curvature="0" /></g><g
       id="g58"
       transform="matrix(0.92038713,0,0,-0.92038713,25.513567,806.87583)"
       style="stroke-width:0.86919945;stroke-miterlimit:2.04444432;stroke-dasharray:none"><path
         d="m 468.57,307.031 c 0,14.52 -11.765,26.285 -26.285,26.285 -14.515,0 -26.285,-11.765 -26.285,-26.285 0,-14.515 11.77,-26.285 26.285,-26.285 14.52,0 26.285,11.77 26.285,26.285 z"
         style="fill:#eeeeec;fill-opacity:1;fill-rule:nonzero;stroke:#000000;stroke-width:0.86919945;stroke-linecap:butt;stroke-linejoin:round;stroke-miterlimit:2.04444432;stroke-dasharray:none;stroke-opacity:1"
         id="path60"
         inkscape:connector-curvature="0" /></g><g
       id="g66"
       transform="matrix(0.92038713,0,0,-0.91205303,25.513567,804.33429)"
       style="stroke-width:0.87316167;stroke-miterlimit:2.04444432;stroke-dasharray:none"><path
         inkscape:connector-curvature="0"
         id="path68"
         transform="matrix(0.86919946,0,0,0.86919946,28.947191,196.36961)"
         d="m 475.53906,124.92773 c -1.31615,0 -2.38672,1.07057 -2.38672,2.38672 l -0.11328,0 0,59.16993 4.92969,0 0,-59.16993 -0.0391,0 c 0,-1.31615 -1.06872,-2.38672 -2.39063,-2.38672 z"
         style="fill:#eeeeec;fill-opacity:1;fill-rule:nonzero;stroke:#000000;stroke-width:1.00455844;stroke-linecap:butt;stroke-linejoin:round;stroke-miterlimit:2.04444432;stroke-dasharray:none;stroke-opacity:1" /></g><g
       id="g82"
       transform="matrix(0.92038713,0,0,-0.92038713,25.513567,806.87583)"
       style="stroke-width:0.86919945;stroke-miterlimit:2.04444432;stroke-dasharray:none" /><g
       id="g110"
       transform="matrix(0.92038713,0,0,-0.92038713,25.513567,806.87583)"
       style="stroke-width:0.86919945;stroke-miterlimit:2.04444432;stroke-dasharray:none"><path
         d="m 425.109,307.336 c 0.571,9.176 14.106,20.25 -2.453,21.695 -4.269,0.371 -12.777,-11.633 -13.082,-21.695 -0.347,-11.41 11.563,-28.102 20.446,-19.887 6.863,6.348 -5.465,10.93 -4.911,19.887 z"
         style="fill:#d3d7cf;fill-opacity:1;fill-rule:nonzero;stroke:#000000;stroke-width:0.86919945;stroke-linecap:butt;stroke-linejoin:round;stroke-miterlimit:2.04444432;stroke-dasharray:none;stroke-opacity:1"
         id="path112"
         inkscape:connector-curvature="0" /></g><g
       id="g14"
       transform="matrix(0.92038713,0,0,-0.92038713,25.513567,806.87583)"
       style="stroke-width:0.86919945;stroke-miterlimit:2.04444432;stroke-dasharray:none"><path
         d="m 570.055,272.043 c 0,1.047 -0.852,1.898 -1.899,1.898 -1.047,0 -1.898,-0.851 -1.898,-1.898 0,-1.047 0.851,-1.898 1.898,-1.898 1.047,0 1.899,0.851 1.899,1.898 z"
         style="fill:none;stroke:#000000;stroke-width:0.86919945;stroke-linecap:square;stroke-linejoin:round;stroke-miterlimit:2.04444432;stroke-dasharray:none;stroke-opacity:1"
         id="path16"
         inkscape:connector-curvature="0" /></g><g
       id="g86"
       transform="matrix(0.92038713,0,0,-0.92038713,25.513567,806.87583)"
       style="stroke-width:0.86919945;stroke-miterlimit:2.04444432;stroke-dasharray:none"><path
         inkscape:connector-curvature="0"
         id="path88"
         transform="matrix(0.86919946,0,0,0.86919946,28.947191,196.36961)"
         d="m 475.53906,84.431641 c -1.31013,0 -2.37503,1.061272 -2.38476,2.36914 l -0.11524,0 0,10.460938 4.92969,0 0,-10.460938 -0.041,0 c -0.01,-1.307868 -1.07281,-2.36914 -2.38867,-2.36914 z"
         style="fill:#eeeeec;fill-opacity:1;fill-rule:nonzero;stroke:#000000;stroke-width:1;stroke-linecap:butt;stroke-linejoin:round;stroke-miterlimit:2.04444432;stroke-dasharray:none;stroke-opacity:1" /></g><g
       id="g134"
       transform="matrix(0.92038713,0,0,0.92038713,25.513567,806.87583)"
       style="stroke-width:0.86919945;stroke-miterlimit:2.04444432;stroke-dasharray:none"><path
         d="m 566.113,-230.383 4.289,0 0,-20.922 -4.289,0 0,20.922 z"
         style="fill:#eeeeec;fill-opacity:1;fill-rule:nonzero;stroke:#000000;stroke-width:0.86919945;stroke-linecap:butt;stroke-linejoin:round;stroke-miterlimit:2.04444432;stroke-dasharray:none;stroke-opacity:1"
         id="path136"
         inkscape:connector-curvature="0" /></g><g
       id="g138"
       transform="matrix(0.92038713,0,0,-0.92038713,25.513567,806.87583)"
       style="stroke-width:0.86919945;stroke-miterlimit:2.04444432;stroke-dasharray:none"><path
         d="m 570.766,229.93 c 0,-1.368 -1.11,-2.481 -2.481,-2.481 -1.367,0 -2.48,1.113 -2.48,2.481 0,1.371 1.113,2.48 2.48,2.48 1.371,0 2.481,-1.109 2.481,-2.48 z"
         style="fill:#eeeeec;fill-opacity:1;fill-rule:nonzero;stroke:#000000;stroke-width:0.86919945;stroke-linecap:square;stroke-linejoin:round;stroke-miterlimit:2.04444432;stroke-dasharray:none;stroke-opacity:1"
         id="path140"
         inkscape:connector-curvature="0" /></g><g
       style="stroke:none;stroke-width:0.95134407;stroke-miterlimit:2.04444432;stroke-dasharray:none"
       transform="matrix(0.76169158,0,0,0.92837961,115.63777,808.80077)"
       id="g4455"><path
         inkscape:connector-curvature="0"
         id="path4457"
         style="fill:#eeeeec;fill-opacity:1;fill-rule:nonzero;stroke:none;stroke-width:0.95134407;stroke-linecap:butt;stroke-linejoin:round;stroke-miterlimit:2.04444432;stroke-dasharray:none;stroke-opacity:1"
         d="m 566.113,-230.383 4.289,0 0,-20.922 -4.289,0 0,20.922 z" /></g><g
       transform="matrix(1.1466689,0,0,1.1466689,-21.465602,-490.82036)"
       id="g5342"
       style="stroke-width:0.69767308;stroke-miterlimit:2.04444432;stroke-dasharray:none"><g
         style="fill:#ffffff;fill-opacity:1;stroke-width:0.7580213;stroke-miterlimit:2.04444432;stroke-dasharray:none"
         id="g5344"
         transform="matrix(0.92038713,0,0,-0.92038713,-106.29113,845.34244)"><path
           d="m 588.449,272.043 c 0,11.434 -9.176,20.699 -20.496,20.699 -11.316,0 -20.496,-9.265 -20.496,-20.699 0,-11.43 9.18,-20.695 20.496,-20.695 11.32,0 20.496,9.265 20.496,20.695 z"
           style="fill:#ffffff;fill-opacity:1;stroke:#000000;stroke-width:0.7580213;stroke-linecap:square;stroke-linejoin:round;stroke-miterlimit:2.04444432;stroke-dasharray:none;stroke-opacity:1"
           id="path5346"
           inkscape:connector-curvature="0" /></g><g
         id="g5348"
         transform="matrix(0.92038713,0,0,-0.92038713,-106.29113,845.34244)"
         style="stroke-width:0.7580213;stroke-miterlimit:2.04444432;stroke-dasharray:none"><path
           d="m 570.055,272.043 c 0,1.047 -0.852,1.898 -1.899,1.898 -1.047,0 -1.898,-0.851 -1.898,-1.898 0,-1.047 0.851,-1.898 1.898,-1.898 1.047,0 1.899,0.851 1.899,1.898 z"
           style="fill:none;stroke:#000000;stroke-width:0.7580213;stroke-linecap:square;stroke-linejoin:round;stroke-miterlimit:2.04444432;stroke-dasharray:none;stroke-opacity:1"
           id="path5350"
           inkscape:connector-curvature="0" /></g></g><g
       id="g5356"
       transform="matrix(1.1466689,0,0,1.1466689,-165.4656,-497.22036)"
       style="stroke-width:0.69767308;stroke-miterlimit:2.04444432;stroke-dasharray:none"><g
         transform="matrix(0.92038713,0,0,-0.92038713,-106.29113,845.34244)"
         id="g5358"
         style="fill:#ffffff;fill-opacity:1;stroke-width:0.7580213;stroke-miterlimit:2.04444432;stroke-dasharray:none"><path
           inkscape:connector-curvature="0"
           id="path5360"
           style="fill:#ffffff;fill-opacity:1;stroke:#000000;stroke-width:0.7580213;stroke-linecap:square;stroke-linejoin:round;stroke-miterlimit:2.04444432;stroke-dasharray:none;stroke-opacity:1"
           d="m 588.449,272.043 c 0,11.434 -9.176,20.699 -20.496,20.699 -11.316,0 -20.496,-9.265 -20.496,-20.699 0,-11.43 9.18,-20.695 20.496,-20.695 11.32,0 20.496,9.265 20.496,20.695 z" /></g><g
         transform="matrix(0.92038713,0,0,-0.92038713,-106.29113,845.34244)"
         id="g5362"
         style="stroke-width:0.7580213;stroke-miterlimit:2.04444432;stroke-dasharray:none"><path
           inkscape:connector-curvature="0"
           id="path5364"
           style="fill:none;stroke:#000000;stroke-width:0.7580213;stroke-linecap:square;stroke-linejoin:round;stroke-miterlimit:2.04444432;stroke-dasharray:none;stroke-opacity:1"
           d="m 570.055,272.043 c 0,1.047 -0.852,1.898 -1.899,1.898 -1.047,0 -1.898,-0.851 -1.898,-1.898 0,-1.047 0.851,-1.898 1.898,-1.898 1.047,0 1.899,0.851 1.899,1.898 z" /></g></g><g
       transform="matrix(0.87957468,0,0,0.86507256,-284.59326,-307.51479)"
       id="g5366"
       style="stroke-width:0.91712254;stroke-miterlimit:2.04444432;stroke-dasharray:none"><g
         style="fill:#ffffff;fill-opacity:1;stroke-width:0.99645299;stroke-miterlimit:2.04444432;stroke-dasharray:none"
         id="g5368"
         transform="matrix(0.92038713,0,0,-0.92038713,-106.29113,845.34244)"><path
           d="m 588.449,272.043 c 0,11.434 -9.176,20.699 -20.496,20.699 -11.316,0 -20.496,-9.265 -20.496,-20.699 0,-11.43 9.18,-20.695 20.496,-20.695 11.32,0 20.496,9.265 20.496,20.695 z"
           style="fill:#ffffff;fill-opacity:1;stroke:#000000;stroke-width:0.99645299;stroke-linecap:square;stroke-linejoin:round;stroke-miterlimit:2.04444432;stroke-dasharray:none;stroke-opacity:1"
           id="path5370"
           inkscape:connector-curvature="0" /></g><g
         id="g5372"
         transform="matrix(0.92038713,0,0,-0.92038713,-106.29113,845.34244)"
         style="stroke-width:0.99645299;stroke-miterlimit:2.04444432;stroke-dasharray:none"><path
           d="m 570.055,272.043 c 0,1.047 -0.852,1.898 -1.899,1.898 -1.047,0 -1.898,-0.851 -1.898,-1.898 0,-1.047 0.851,-1.898 1.898,-1.898 1.047,0 1.899,0.851 1.899,1.898 z"
           style="fill:none;stroke:#000000;stroke-width:0.99645299;stroke-linecap:square;stroke-linejoin:round;stroke-miterlimit:2.04444432;stroke-dasharray:none;stroke-opacity:1"
           id="path5374"
           inkscape:connector-curvature="0" /></g></g><g
       id="g5376"
       transform="matrix(1.1465115,0,0,1.1653524,-311.00009,-503.17738)"
       style="stroke-width:0.69210523;stroke-miterlimit:2.04444432;stroke-dasharray:none"><g
         transform="matrix(0.92038713,0,0,-0.92038713,-106.29113,845.34244)"
         id="g5378"
         style="fill:#ffffff;fill-opacity:1;stroke-width:0.7519719;stroke-miterlimit:2.04444432;stroke-dasharray:none"><path
           inkscape:connector-curvature="0"
           id="path5380"
           style="fill:#ffffff;fill-opacity:1;stroke:#000000;stroke-width:0.7519719;stroke-linecap:square;stroke-linejoin:round;stroke-miterlimit:2.04444432;stroke-dasharray:none;stroke-opacity:1"
           d="m 588.449,272.043 c 0,11.434 -9.176,20.699 -20.496,20.699 -11.316,0 -20.496,-9.265 -20.496,-20.699 0,-11.43 9.18,-20.695 20.496,-20.695 11.32,0 20.496,9.265 20.496,20.695 z" /></g><g
         transform="matrix(0.92038713,0,0,-0.92038713,-106.29113,845.34244)"
         id="g5382"
         style="stroke-width:0.7519719;stroke-miterlimit:2.04444432;stroke-dasharray:none"><path
           inkscape:connector-curvature="0"
           id="path5384"
           style="fill:none;stroke:#000000;stroke-width:0.7519719;stroke-linecap:square;stroke-linejoin:round;stroke-miterlimit:2.04444432;stroke-dasharray:none;stroke-opacity:1"
           d="m 570.055,272.043 c 0,1.047 -0.852,1.898 -1.899,1.898 -1.047,0 -1.898,-0.851 -1.898,-1.898 0,-1.047 0.851,-1.898 1.898,-1.898 1.047,0 1.899,0.851 1.899,1.898 z" /></g></g><path
       d="m 560.84621,211.48043 c 1.50337,-11.52613 9.00217,-47.25452 -252.5378,-49.52165 -218.399465,-1.89313 -243.787526,28.20484 -243.316715,46.9988 0.796452,31.69529 105.321895,27.8621 244.468235,26.8116 140.5303,-1.06235 248.05664,1.25351 251.38628,-24.28875 z"
       style="fill:none;stroke:#000000;stroke-width:0.80000001;stroke-linecap:square;stroke-linejoin:round;stroke-miterlimit:2.04444432;stroke-dasharray:none;stroke-opacity:1"
       id="path5144"
       inkscape:connector-curvature="0" /><g
       id="g5463"
       transform="matrix(0.63106894,0,0,-1.0956895,-74.2232,693.03248)"
       style="stroke-width:0.96207255;stroke-miterlimit:2.04444432;stroke-dasharray:none"><path
         d="m 570.055,272.043 c 0,1.047 -0.852,1.898 -1.899,1.898 -1.047,0 -1.898,-0.851 -1.898,-1.898 0,-1.047 0.851,-1.898 1.898,-1.898 1.047,0 1.899,0.851 1.899,1.898 z"
         style="fill:none;stroke:#000000;stroke-width:0.96207255;stroke-linecap:square;stroke-linejoin:round;stroke-miterlimit:2.04444432;stroke-dasharray:none;stroke-opacity:1"
         id="path5465"
         inkscape:connector-curvature="0" /></g><g
       ns0:preamble=""
       ns0:text="Motor"
       word-spacing="normal"
       letter-spacing="normal"
       font-size-adjust="none"
       font-stretch="normal"
       font-weight="normal"
       font-variant="normal"
       font-style="normal"
       stroke-miterlimit="10.433"
       xml:space="preserve"
       transform="matrix(1.6609336,0,0,1.6609336,-177.11697,-740.37714)"
       id="content"
       style="font-style:normal;font-variant:normal;font-weight:normal;font-stretch:normal;letter-spacing:normal;word-spacing:normal;text-anchor:start;fill:none;fill-opacity:1;fill-rule:evenodd;stroke:#000000;stroke-linecap:butt;stroke-linejoin:miter;stroke-miterlimit:10.43299961;stroke-dasharray:none;stroke-dashoffset:0;stroke-opacity:1"><path
         id="path5173"
         d="m 225.83,713.69 0,0.01 -0.01,0.01 0,0.01 -0.01,0.01 0,0.02 -0.01,0.01 -0.01,0.02 -0.01,0.01 0,0.02 -0.01,0.01 -0.01,0.01 0,0.01 -0.01,0.01 -0.01,0.01 -0.01,0 -0.01,0.01 0,0.01 -0.01,0 -0.01,0.01 -0.01,0 -0.01,0.01 -0.01,0 -0.01,0 -0.01,0 -0.02,0.01 -0.01,0 -0.01,0 -0.02,0 -0.01,0 -0.02,0 -0.02,0 -0.02,0 -0.02,0 -0.02,0 -1.68,0 0,-0.31 0.24,0 c 0.76,0 0.78,-0.11 0.78,-0.46 l 0,-4.97 c 0,-0.27 0,-0.74 -1.02,-0.74 l 0,-0.31 c 0.35,0.02 0.84,0.04 1.16,0.04 0.33,0 0.82,-0.02 1.17,-0.04 l 0,0.31 c -1.03,0 -1.03,0.47 -1.03,0.74 l 0,5.35 0.01,0 2.4,-6.18 c 0.05,-0.13 0.1,-0.22 0.2,-0.22 0.11,0 0.14,0.08 0.18,0.19 l 2.45,6.29 0.01,0 0,-5.7 c 0,-0.36 -0.02,-0.47 -0.79,-0.47 l -0.24,0 0,-0.31 c 0.37,0.04 1.05,0.04 1.44,0.04 0.38,0 1.05,0 1.42,-0.04 l 0,0.31 -0.24,0 c -0.77,0 -0.79,0.11 -0.79,0.47 l 0,5.24 c 0,0.35 0.02,0.46 0.79,0.46 l 0.24,0 0,0.31 -1.68,0 c -0.26,0 -0.26,-0.01 -0.33,-0.19 l -2.18,-5.59 z"
         inkscape:connector-curvature="0"
         style="fill:#000000;stroke-width:0" /><path
         id="path5175"
         d="m 237.25,709.25 0,0.12 -0.01,0.12 -0.01,0.11 -0.02,0.12 -0.03,0.11 -0.03,0.11 -0.03,0.11 -0.04,0.1 -0.05,0.1 -0.05,0.1 -0.05,0.1 -0.06,0.09 -0.06,0.1 -0.06,0.08 -0.07,0.09 -0.08,0.08 -0.07,0.08 -0.08,0.07 -0.09,0.07 -0.08,0.06 -0.09,0.07 -0.09,0.05 -0.1,0.05 -0.1,0.05 -0.1,0.04 -0.1,0.04 -0.1,0.03 -0.11,0.03 -0.11,0.02 -0.1,0.01 -0.12,0.01 -0.11,0.01 -0.01,-0.22 c 0.44,0 0.87,-0.22 1.13,-0.65 0.26,-0.43 0.26,-1 0.26,-1.38 0,-0.36 0,-0.89 -0.22,-1.33 -0.22,-0.45 -0.66,-0.74 -1.16,-0.74 l 0,0 c -0.43,0 -0.86,0.21 -1.13,0.67 -0.25,0.44 -0.25,1.04 -0.25,1.4 0,0.39 0,0.92 0.24,1.36 0.27,0.46 0.73,0.67 1.13,0.67 l 0.01,0.22 c -1.24,0 -2.21,-1.09 -2.21,-2.33 0,-1.28 1.04,-2.23 2.2,-2.23 1.21,0 2.21,0.97 2.21,2.23 z"
         inkscape:connector-curvature="0"
         style="fill:#000000;stroke-width:0" /><path
         id="path5177"
         d="m 239.27,711.1 1.42,0 0,0.31 -1.42,0 0,1.82 -0.25,0 c -0.01,-0.81 -0.31,-1.87 -1.28,-1.91 l 0,-0.22 0.84,0 0,-2.74 c 0,-1.22 0.93,-1.34 1.28,-1.34 0.71,0 0.99,0.7 0.99,1.34 l 0,0.56 -0.25,0 0,-0.54 c 0,-0.74 -0.3,-1.12 -0.67,-1.12 -0.66,0 -0.66,0.91 -0.66,1.08 z"
         inkscape:connector-curvature="0"
         style="fill:#000000;stroke-width:0" /><path
         id="path5179"
         d="m 246.11,709.25 -0.01,0.12 0,0.12 -0.02,0.11 -0.02,0.12 -0.02,0.11 -0.03,0.11 -0.04,0.11 -0.04,0.1 -0.04,0.1 -0.05,0.1 -0.05,0.1 -0.06,0.09 -0.06,0.1 -0.07,0.08 -0.07,0.09 -0.07,0.08 -0.08,0.08 -0.08,0.07 -0.08,0.07 -0.09,0.06 -0.09,0.07 -0.09,0.05 -0.09,0.05 -0.1,0.05 -0.1,0.04 -0.1,0.04 -0.11,0.03 -0.1,0.03 -0.11,0.02 -0.11,0.01 -0.11,0.01 -0.11,0.01 -0.01,-0.22 c 0.44,0 0.86,-0.22 1.12,-0.65 0.26,-0.43 0.26,-1 0.26,-1.38 0,-0.36 0,-0.89 -0.22,-1.33 -0.22,-0.45 -0.66,-0.74 -1.15,-0.74 l 0,0 c -0.43,0 -0.87,0.21 -1.14,0.67 -0.25,0.44 -0.25,1.04 -0.25,1.4 0,0.39 0,0.92 0.24,1.36 0.27,0.46 0.74,0.67 1.14,0.67 l 0.01,0.22 c -1.25,0 -2.21,-1.09 -2.21,-2.33 0,-1.28 1.03,-2.23 2.2,-2.23 1.2,0 2.21,0.97 2.21,2.23 z"
         inkscape:connector-curvature="0"
         style="fill:#000000;stroke-width:0" /><path
         id="path5181"
         d="m 248.06,710.42 0,1.1 -1.38,-0.11 0,-0.31 c 0.7,0 0.78,-0.07 0.78,-0.56 l 0,-2.66 c 0,-0.45 -0.11,-0.45 -0.78,-0.45 l 0,-0.31 c 0.39,0.02 0.86,0.04 1.14,0.04 0.39,0 0.86,0 1.26,-0.04 l 0,0.31 -0.21,0 c -0.74,0 -0.76,0.11 -0.76,0.47 l 0,1.53 c 0,0.98 0.42,1.87 1.18,1.87 0.07,0 0.09,0 0.11,-0.01 -0.03,-0.01 -0.23,-0.13 -0.23,-0.39 0,-0.28 0.21,-0.43 0.43,-0.43 0.17,0 0.42,0.12 0.42,0.44 0,0.32 -0.31,0.61 -0.73,0.61 -0.73,0 -1.09,-0.67 -1.23,-1.1 z"
         inkscape:connector-curvature="0"
         style="fill:#000000;stroke-width:0" /></g></g></svg>