<?xml version="1.0" encoding="UTF-8" standalone="no"?>
<!-- Created with Inkscape (http://www.inkscape.org/) -->

<svg
   xmlns:dc="http://purl.org/dc/elements/1.1/"
   xmlns:cc="http://creativecommons.org/ns#"
   xmlns:rdf="http://www.w3.org/1999/02/22-rdf-syntax-ns#"
   xmlns:svg="http://www.w3.org/2000/svg"
   xmlns="http://www.w3.org/2000/svg"
   xmlns:sodipodi="http://sodipodi.sourceforge.net/DTD/sodipodi-0.dtd"
   xmlns:inkscape="http://www.inkscape.org/namespaces/inkscape"
   width="250.53656"
   height="244.50638"
   id="svg2"
   version="1.1"
   inkscape:version="0.48.4 r9939"
   sodipodi:docname="New document 1">
  <sodipodi:namedview
     id="base"
     pagecolor="#ffffff"
     bordercolor="#666666"
     borderopacity="1.0"
     inkscape:pageopacity="0.0"
     inkscape:pageshadow="2"
     inkscape:zoom="1.4"
     inkscape:cx="97.853916"
     inkscape:cy="175.4968"
     inkscape:document-units="px"
     inkscape:current-layer="layer1"
     showgrid="false"
     inkscape:snap-center="true"
     inkscape:snap-object-midpoints="true"
     inkscape:window-width="1307"
     inkscape:window-height="744"
     inkscape:window-x="59"
     inkscape:window-y="24"
     inkscape:window-maximized="1"
     fit-margin-top="0"
     fit-margin-left="0"
     fit-margin-right="0"
     fit-margin-bottom="0" />
  <defs
     id="defs4">
    <marker
       style="overflow:visible"
       id="Arrow1Lend"
       refX="0"
       refY="0"
       orient="auto"
       inkscape:stockid="Arrow1Lend">
      <path
         transform="matrix(-0.8,0,0,-0.8,-10,0)"
         style="fill-rule:evenodd;stroke:#000000;stroke-width:1pt"
         d="M 0,0 5,-5 -12.5,0 5,5 0,0 z"
         id="path3816"
         inkscape:connector-curvature="0" />
    </marker>
    <marker
       style="overflow:visible"
       id="Arrow1Lstart"
       refX="0"
       refY="0"
       orient="auto"
       inkscape:stockid="Arrow1Lstart">
      <path
         transform="matrix(0.8,0,0,0.8,10,0)"
         style="fill-rule:evenodd;stroke:#000000;stroke-width:1pt"
         d="M 0,0 5,-5 -12.5,0 5,5 0,0 z"
         id="path3813"
         inkscape:connector-curvature="0" />
    </marker>
    <marker
       style="overflow:visible"
       id="Arrow1Mend"
       refX="0"
       refY="0"
       orient="auto"
       inkscape:stockid="Arrow1Mend">
      <path
         transform="matrix(-0.4,0,0,-0.4,-4,0)"
         style="fill-rule:evenodd;stroke:#000000;stroke-width:1pt"
         d="M 0,0 5,-5 -12.5,0 5,5 0,0 z"
         id="path3792"
         inkscape:connector-curvature="0" />
    </marker>
  </defs>
  <metadata
     id="metadata7">
    <rdf:RDF>
      <cc:Work
         rdf:about="">
        <dc:format>image/svg+xml</dc:format>
        <dc:type
           rdf:resource="http://purl.org/dc/dcmitype/StillImage" />
        <dc:title></dc:title>
      </cc:Work>
    </rdf:RDF>
  </metadata>
  <g
     id="layer1"
     inkscape:groupmode="layer"
     inkscape:label="Layer 1"
     transform="translate(-174.82537,-228.58914)">
    <path
       transform="matrix(0.18744136,0,0,0.18744136,144.46224,379.03723)"
       d="m 190.91883,466.47369 c 0,7.2526 -5.87939,13.13199 -13.13198,13.13199 -7.25259,0 -13.13198,-5.87939 -13.13198,-13.13199 0,-7.25259 5.87939,-13.13198 13.13198,-13.13198 7.25259,0 13.13198,5.87939 13.13198,13.13198 z"
       sodipodi:ry="13.131983"
       sodipodi:rx="13.131983"
       sodipodi:cy="466.47369"
       sodipodi:cx="177.78685"
       id="path2985"
       style="fill:#000000;fill-opacity:1;stroke:#000000;stroke-width:5.33500195;stroke-linecap:square;stroke-linejoin:round;stroke-miterlimit:4;stroke-opacity:1;stroke-dasharray:none;stroke-dashoffset:0"
       sodipodi:type="arc" />
    <path
       inkscape:connector-curvature="0"
       id="path3780"
       d="M 177.78685,466.47369 257.5889,237.16908"
       style="fill:none;stroke:#000000;stroke-width:1px;stroke-linecap:butt;stroke-linejoin:miter;stroke-opacity:1;marker-end:url(#Arrow1Lend)" />
    <path
       transform="matrix(0.18744136,0,0,0.18744136,224.26429,149.73261)"
       d="m 190.91883,466.47369 c 0,7.2526 -5.87939,13.13199 -13.13198,13.13199 -7.25259,0 -13.13198,-5.87939 -13.13198,-13.13199 0,-7.25259 5.87939,-13.13198 13.13198,-13.13198 7.25259,0 13.13198,5.87939 13.13198,13.13198 z"
       sodipodi:ry="13.131983"
       sodipodi:rx="13.131983"
       sodipodi:cy="466.47369"
       sodipodi:cx="177.78685"
       id="path2985-1"
       style="fill:#000000;fill-opacity:1;stroke:#000000;stroke-width:5.33500195;stroke-linecap:square;stroke-linejoin:round;stroke-miterlimit:4;stroke-opacity:1;stroke-dasharray:none;stroke-dashoffset:0"
       sodipodi:type="arc" />
    <g
       id="g4780"
       transform="translate(-69.195449,159.6041)">
      <path
         style="font-style:normal;font-variant:normal;font-weight:normal;font-stretch:normal;letter-spacing:normal;word-spacing:normal;text-anchor:start;fill:#000000;stroke:#000000;stroke-width:0;stroke-linecap:butt;stroke-linejoin:miter;stroke-miterlimit:10.43299961;stroke-opacity:1;stroke-dasharray:none;stroke-dashoffset:0"
         inkscape:connector-curvature="0"
         d="m 260.57374,307.39114 -1.90298,-0.46006 c -0.92609,-0.22406 -1.50564,-1.02767 -1.50564,-1.89103 0,-1.0426 0.80361,-1.95077 1.9657,-1.95077 2.48253,0 2.81115,2.44071 2.90077,3.11287 0.012,0.0896 0.012,0.17626 0.17924,0.17626 0.19418,0 0.19418,-0.0747 0.19418,-0.35849 v -2.9874 c 0,-0.25691 0,-0.35849 -0.1643,-0.35849 -0.10456,0 -0.12249,0.0119 -0.22406,0.19419 l -0.51981,0.84543 c -0.44811,-0.43019 -1.05754,-1.03962 -2.38394,-1.03962 -1.65203,0 -2.89778,1.31147 -2.89778,2.88882 0,1.23081 0.78868,2.31822 1.9448,2.72152 0.16431,0.0597 0.92609,0.236 1.96571,0.48993 0.40031,0.10755 0.84842,0.20912 1.26367,0.7588 0.31367,0.38836 0.46304,0.8783 0.46304,1.36823 0,1.06053 -0.74087,2.13002 -1.99259,2.13002 -0.43317,0 -1.56241,-0.0747 -2.35407,-0.80361 -0.86336,-0.80361 -0.90817,-1.75361 -0.92311,-2.29134 -0.0149,-0.14937 -0.13144,-0.14937 -0.17625,-0.14937 -0.1912,0 -0.1912,0.10755 -0.1912,0.37343 v 2.97843 c 0,0.25094 0,0.35252 0.16132,0.35252 0.10456,0 0.11651,-0.0269 0.22107,-0.1912 0,-0.012 0.0448,-0.0598 0.53474,-0.84842 0.46305,0.50487 1.41603,1.03962 2.74244,1.03962 1.73866,0 2.93063,-1.45487 2.93063,-3.09196 0,-1.49071 -0.97986,-2.70957 -2.23158,-3.00831 z"
         id="path4640" />
      <path
         style="font-style:normal;font-variant:normal;font-weight:normal;font-stretch:normal;letter-spacing:normal;word-spacing:normal;text-anchor:start;fill:#000000;stroke:#000000;stroke-width:0;stroke-linecap:butt;stroke-linejoin:miter;stroke-miterlimit:10.43299961;stroke-opacity:1;stroke-dasharray:none;stroke-dashoffset:0"
         inkscape:connector-curvature="0"
         d="m 266.23486,307.21488 h 2.13001 v -0.46305 h -2.13001 v -2.73944 h -0.37343 c -0.0119,1.21886 -0.46006,2.81413 -1.91791,2.87089 v 0.3316 h 1.26666 v 4.10767 c 0,1.82829 1.38018,2.00754 1.91791,2.00754 1.05455,0 1.47577,-1.05456 1.47577,-2.00754 v -0.84842 h -0.37342 v 0.81556 c 0,1.10235 -0.44811,1.66697 -1.00078,1.66697 -0.9948,0 -0.9948,-1.35329 -0.9948,-1.60722 z"
         id="path4642" />
      <path
         style="font-style:normal;font-variant:normal;font-weight:normal;font-stretch:normal;letter-spacing:normal;word-spacing:normal;text-anchor:start;fill:#000000;stroke:#000000;stroke-width:0;stroke-linecap:butt;stroke-linejoin:miter;stroke-miterlimit:10.43299961;stroke-opacity:1;stroke-dasharray:none;stroke-dashoffset:0"
         inkscape:connector-curvature="0"
         d="m 274.38747,312.03654 0.006,0.0568 0.009,0.0538 0.0119,0.0568 0.012,0.0538 0.0149,0.0568 0.0149,0.0538 0.0179,0.0538 0.0209,0.0538 0.0239,0.0538 0.0239,0.0508 0.0269,0.0538 0.0269,0.0478 0.0299,0.0478 0.0329,0.0478 0.0329,0.0478 0.0358,0.0418 0.0388,0.0418 0.0388,0.0418 0.0418,0.0388 0.0418,0.0358 0.0448,0.0358 0.0478,0.0299 0.0478,0.0299 0.0508,0.0269 0.0538,0.0239 0.0538,0.0209 0.0538,0.0179 0.0598,0.0149 0.0598,0.012 0.0598,0.009 0.0627,0.006 0.0657,0.003 c 0.3077,0 1.21886,-0.2121 1.21886,-1.41603 v -0.83049 H 276.395 v 0.83049 c 0,0.86336 -0.37044,0.95298 -0.53773,0.95298 -0.48993,0 -0.54968,-0.66619 -0.54968,-0.74087 v -2.97844 c 0,-0.62735 0,-1.20392 -0.53176,-1.75659 -0.58553,-0.57657 -1.3264,-0.81556 -2.04039,-0.81556 -1.22484,0 -2.24951,0.69607 -2.24951,1.67892 0,0.44512 0.29874,0.70204 0.68411,0.70204 0.41525,0 0.6871,-0.29874 0.6871,-0.6871 0,-0.17626 -0.0747,-0.66619 -0.76178,-0.6871 0.40329,-0.51682 1.12923,-0.68113 1.60722,-0.68113 0.73191,0 1.57734,0.57955 1.57734,1.90596 v 0.54968 0.31368 1.48772 c 0,1.41603 -1.06949,1.91791 -1.74165,1.91791 -0.72893,0 -1.33836,-0.52279 -1.33836,-1.26367 0,-0.81556 0.62437,-2.05533 3.08001,-2.14196 h 0 v -0.31368 c -0.75581,0.0418 -1.79841,0.0896 -2.73646,0.53773 -1.11429,0.50487 -1.48772,1.27861 -1.48772,1.93285 0,1.20392 1.44291,1.57735 2.38096,1.57735 0.98285,0 1.66697,-0.5945 1.95077,-1.29355 z"
         id="path4644" />
      <path
         style="font-style:normal;font-variant:normal;font-weight:normal;font-stretch:normal;letter-spacing:normal;word-spacing:normal;text-anchor:start;fill:#000000;stroke:#000000;stroke-width:0;stroke-linecap:butt;stroke-linejoin:miter;stroke-miterlimit:10.43299961;stroke-opacity:1;stroke-dasharray:none;stroke-dashoffset:0"
         inkscape:connector-curvature="0"
         d="m 279.36746,308.22163 v -1.63112 l -2.06728,0.16132 v 0.46305 c 1.0426,0 1.1621,0.10157 1.1621,0.8305 v 3.99116 c 0,0.66619 -0.16132,0.66619 -1.1621,0.66619 v 0.46305 c 0.58254,-0.0149 1.27861,-0.0478 1.69983,-0.0478 0.59151,0 1.29355,0 1.89103,0.0478 v -0.46305 h -0.31368 c -1.10235,0 -1.13521,-0.16132 -1.13521,-0.69905 v -2.29133 c 0,-1.4698 0.62735,-2.79621 1.76256,-2.79621 0.10157,0 0.12846,0 0.16132,0.0149 -0.0478,0.012 -0.34654,0.19119 -0.34654,0.57657 0,0.42122 0.31368,0.6393 0.64528,0.6393 0.26588,0 0.6393,-0.17626 0.6393,-0.65125 0,-0.47799 -0.46304,-0.90519 -1.09936,-0.90519 -1.0904,0 -1.62514,0.99182 -1.83725,1.63112 z"
         id="path4646" />
      <path
         style="font-style:normal;font-variant:normal;font-weight:normal;font-stretch:normal;letter-spacing:normal;word-spacing:normal;text-anchor:start;fill:#000000;stroke:#000000;stroke-width:0;stroke-linecap:butt;stroke-linejoin:miter;stroke-miterlimit:10.43299961;stroke-opacity:1;stroke-dasharray:none;stroke-dashoffset:0"
         inkscape:connector-curvature="0"
         d="m 285.30641,307.21488 h 2.12703 v -0.46305 h -2.12703 v -2.73944 h -0.37342 c -0.0149,1.21886 -0.46305,2.81413 -1.9209,2.87089 v 0.3316 h 1.26666 v 4.10767 c 0,1.82829 1.38017,2.00754 1.9179,2.00754 1.05456,0 1.47578,-1.05456 1.47578,-2.00754 v -0.84842 h -0.37342 v 0.81556 c 0,1.10235 -0.44811,1.66697 -1.00078,1.66697 -0.99182,0 -0.99182,-1.35329 -0.99182,-1.60722 z"
         id="path4648" />
    </g>
    <g
       id="g4787"
       transform="translate(-25.253814,-74.246212)">
      <path
         style="font-style:normal;font-variant:normal;font-weight:normal;font-stretch:normal;letter-spacing:normal;word-spacing:normal;text-anchor:start;fill:#000000;stroke:#000000;stroke-width:0;stroke-linecap:butt;stroke-linejoin:miter;stroke-miterlimit:10.43299961;stroke-opacity:1;stroke-dasharray:none;stroke-dashoffset:0"
         inkscape:connector-curvature="0"
         d="m 295.47253,312.00368 0,0.0478 -0.003,0.0478 0,0.0448 -0.003,0.0448 0,0.0388 -0.006,0.0388 -0.006,0.0388 -0.006,0.0329 -0.009,0.0358 -0.0119,0.0299 -0.012,0.0299 -0.0149,0.0269 -0.0179,0.0269 -0.0209,0.0239 -0.0239,0.0239 -0.0269,0.0209 -0.0299,0.0179 -0.0329,0.0179 -0.0179,0.009 -0.0179,0.009 -0.0209,0.006 -0.0209,0.009 -0.0239,0.006 -0.0209,0.006 -0.0269,0.006 -0.0239,0.006 -0.0269,0.006 -0.0269,0.006 -0.0299,0.006 -0.0299,0.003 -0.0329,0.003 -0.0299,0.006 -0.0359,0.003 -0.0358,0.003 -0.0358,0.003 -0.0388,0.003 -0.0388,0.003 -0.0388,0.003 -0.0418,0 -0.0448,0.003 -0.0448,0 -0.0478,0.003 -0.0478,0 -0.0478,0 -0.0508,0 -0.0538,0 H 293.937 v 0.46305 h 8.58878 l 0.62436,-3.8418 h -0.37342 c -0.36745,2.29134 -0.71399,3.37875 -3.2712,3.37875 h -1.98065 c -0.69905,0 -0.73191,-0.10157 -0.73191,-0.5915 V 308.135 h 1.33835 c 1.44889,0 1.61021,0.475 1.61021,1.74165 h 0.37044 v -3.94635 h -0.37044 c 0,1.28458 -0.16132,1.74165 -1.61021,1.74165 h -1.33835 v -3.56994 c 0,-0.48993 0.0329,-0.59449 0.73191,-0.59449 h 1.91791 c 2.27939,0 2.6797,0.81855 2.91869,2.88583 h 0.37342 l -0.42122,-3.34589 H 293.937 v 0.46006 h 0.35849 c 1.14418,0 1.17704,0.16431 1.17704,0.69606 z"
         id="path4650" />
      <path
         style="font-style:normal;font-variant:normal;font-weight:normal;font-stretch:normal;letter-spacing:normal;word-spacing:normal;text-anchor:start;fill:#000000;stroke:#000000;stroke-width:0;stroke-linecap:butt;stroke-linejoin:miter;stroke-miterlimit:10.43299961;stroke-opacity:1;stroke-dasharray:none;stroke-dashoffset:0"
         inkscape:connector-curvature="0"
         d="m 305.22937,308.04538 v 3.99116 c 0,0.66619 -0.16431,0.66619 -1.1621,0.66619 v 0.46305 c 0.5228,-0.0149 1.27861,-0.0478 1.67892,-0.0478 0.38836,0 1.1621,0.0329 1.66697,0.0478 v -0.46305 c -0.9948,0 -1.15911,0 -1.15911,-0.66619 v -2.73944 c 0,-1.55046 1.05455,-2.38096 2.00753,-2.38096 0.93804,0 1.10235,0.80361 1.10235,1.65203 v 3.46837 c 0,0.66619 -0.16431,0.66619 -1.1621,0.66619 v 0.46305 c 0.5228,-0.0149 1.28458,-0.0478 1.6849,-0.0478 0.38836,0 1.15612,0.0329 1.66696,0.0478 v -0.46305 c -0.77373,0 -1.14716,0 -1.16209,-0.44811 v -2.84101 c 0,-1.27861 0,-1.74166 -0.46305,-2.27341 -0.20613,-0.25692 -0.69905,-0.54969 -1.55942,-0.54969 -1.08742,0 -1.78647,0.63931 -2.20172,1.55644 v -1.55644 l -2.10014,0.16132 v 0.46305 c 1.03962,0 1.1621,0.10157 1.1621,0.8305 z"
         id="path4652" />
      <path
         style="font-style:normal;font-variant:normal;font-weight:normal;font-stretch:normal;letter-spacing:normal;word-spacing:normal;text-anchor:start;fill:#000000;stroke:#000000;stroke-width:0;stroke-linecap:butt;stroke-linejoin:miter;stroke-miterlimit:10.43299961;stroke-opacity:1;stroke-dasharray:none;stroke-dashoffset:0"
         inkscape:connector-curvature="0"
         d="m 317.52849,312.35022 v 0.97987 l 2.18379,-0.16431 v -0.46305 c -1.03961,0 -1.15612,-0.10157 -1.15612,-0.83049 v -9.03689 l -2.14496,0.16431 v 0.46305 c 1.04261,0 1.15912,0.10157 1.15912,0.83348 v 3.21146 c -0.43019,-0.53176 -1.06949,-0.91714 -1.87609,-0.91714 l 0.0598,0.32563 c 0.52279,0 1.15015,0.22406 1.6102,0.89025 0.16431,0.25392 0.16431,0.28679 0.16431,0.55266 h 0 v 3.05313 c 0,0.26587 0,0.29874 -0.16431,0.54968 -0.44811,0.71399 -1.12027,1.03961 -1.75957,1.03961 -0.66619,0 -1.20392,-0.38537 -1.55943,-0.94999 -0.38836,-0.61242 -0.43317,-1.46084 -0.43317,-2.07027 0,-0.54968 0.0269,-1.4459 0.46305,-2.11209 0.31069,-0.46305 0.87531,-0.95298 1.67892,-0.95298 l -0.0598,-0.32563 c -1.75659,0 -3.319,1.45487 -3.319,3.37278 0,1.89102 1.46084,3.3668 3.15469,3.3668 0.95298,0 1.62515,-0.50487 1.99857,-0.97987 z"
         id="path4654" />
    </g>
    <g
       id="g4792"
       transform="translate(-79.802051,38.385797)">
      <path
         style="font-style:normal;font-variant:normal;font-weight:normal;font-stretch:normal;letter-spacing:normal;word-spacing:normal;text-anchor:start;fill:#000000;stroke:#000000;stroke-width:0;stroke-linecap:butt;stroke-linejoin:miter;stroke-miterlimit:10.43299961;stroke-opacity:1;stroke-dasharray:none;stroke-dashoffset:0"
         inkscape:connector-curvature="0"
         d="m 325.58551,302.99966 v 0.46305 h 0.3555 c 1.14716,0 1.17703,0.16132 1.17703,0.69905 v 7.84192 c 0,0.53773 -0.0299,0.69905 -1.17703,0.69905 h -0.3555 v 0.46305 h 5.44901 l -0.4033,-0.46305 h -1.50565 c -0.69606,0 -0.72892,-0.10157 -0.72892,-0.5915 v -8.05104 c 0,-0.49591 0.0329,-0.59748 0.72892,-0.59748 h 1.48773 c 0.9231,0 1.95077,0.32562 2.71256,1.38615 0.6393,0.87531 0.77074,2.1569 0.77074,3.319 0,1.65203 -0.28081,2.54228 -0.81854,3.2712 -0.29874,0.40031 -1.14418,1.26367 -2.64684,1.26367 l 0.4033,0.46305 c 2.49448,0 4.54981,-2.20171 4.54981,-4.99792 0,-2.82907 -2.00753,-5.1682 -4.54981,-5.1682 z"
         id="path4656" />
      <path
         style="font-style:normal;font-variant:normal;font-weight:normal;font-stretch:normal;letter-spacing:normal;word-spacing:normal;text-anchor:start;fill:#000000;stroke:#000000;stroke-width:0;stroke-linecap:butt;stroke-linejoin:miter;stroke-miterlimit:10.43299961;stroke-opacity:1;stroke-dasharray:none;stroke-dashoffset:0"
         inkscape:connector-curvature="0"
         d="m 339.05867,306.59051 -2.08221,0.16132 v 0.46305 c 0.96791,0 1.10235,0.0896 1.10235,0.81556 v 4.0061 c 0,0.66619 -0.16431,0.66619 -1.1621,0.66619 v 0.46305 c 0.47499,-0.0149 1.27861,-0.0478 1.64008,-0.0478 0.5228,0 1.03961,0.0329 1.54747,0.0478 v -0.46305 c -0.98285,0 -1.04559,-0.0747 -1.04559,-0.65125 z"
         id="path4658" />
      <path
         style="font-style:normal;font-variant:normal;font-weight:normal;font-stretch:normal;letter-spacing:normal;word-spacing:normal;text-anchor:start;fill:#000000;stroke:#000000;stroke-width:0;stroke-linecap:butt;stroke-linejoin:miter;stroke-miterlimit:10.43299961;stroke-opacity:1;stroke-dasharray:none;stroke-dashoffset:0"
         inkscape:connector-curvature="0"
         d="m 339.12141,303.99745 -0.003,-0.0418 -0.003,-0.0448 -0.006,-0.0418 -0.006,-0.0418 -0.009,-0.0388 -0.012,-0.0388 -0.0119,-0.0388 -0.0149,-0.0359 -0.0179,-0.0358 -0.0179,-0.0358 -0.0179,-0.0329 -0.0209,-0.0299 -0.0239,-0.0299 -0.0239,-0.0299 -0.0239,-0.0299 -0.0269,-0.0239 -0.0299,-0.0269 -0.0269,-0.0239 -0.0299,-0.0209 -0.0329,-0.0209 -0.0329,-0.0209 -0.0329,-0.0179 -0.0329,-0.0149 -0.0358,-0.0149 -0.0329,-0.012 -0.0359,-0.0119 -0.0388,-0.009 -0.0358,-0.009 -0.0388,-0.006 -0.0388,-0.003 -0.0388,-0.003 -0.0358,-0.003 c -0.46305,0 -0.79167,0.4033 -0.79167,0.78867 0,0.4033 0.32862,0.78868 0.79167,0.78868 0.41524,0 0.78867,-0.31069 0.78867,-0.78868 z"
         id="path4660" />
      <path
         style="font-style:normal;font-variant:normal;font-weight:normal;font-stretch:normal;letter-spacing:normal;word-spacing:normal;text-anchor:start;fill:#000000;stroke:#000000;stroke-width:0;stroke-linecap:butt;stroke-linejoin:miter;stroke-miterlimit:10.43299961;stroke-opacity:1;stroke-dasharray:none;stroke-dashoffset:0"
         inkscape:connector-curvature="0"
         d="m 343.64433,310.27696 0.0329,0.006 0.0388,0.006 0.0418,0.009 0.0448,0.0119 0.0508,0.012 0.0538,0.0119 0.0568,0.0149 0.0598,0.0179 0.0598,0.0179 0.0627,0.0209 0.0657,0.0239 0.0657,0.0239 0.0657,0.0299 0.0657,0.0299 0.0657,0.0329 0.0657,0.0358 0.0657,0.0418 0.0627,0.0418 0.0598,0.0448 0.0597,0.0478 0.0568,0.0538 0.0538,0.0568 0.0508,0.0598 0.0478,0.0627 0.0418,0.0657 0.0209,0.0358 0.0179,0.0359 0.0179,0.0388 0.0149,0.0358 0.0149,0.0418 0.0149,0.0388 0.0119,0.0418 0.009,0.0418 0.009,0.0448 0.009,0.0448 0.006,0.0478 0.003,0.0448 0.003,0.0508 0,0.0478 c 0,0.75581 -0.52279,1.35329 -1.67892,1.35329 -1.25172,0 -1.78945,-0.84842 -2.07325,-2.11209 -0.0418,-0.19119 -0.0568,-0.25393 -0.20613,-0.25393 -0.19418,0 -0.19418,0.10456 -0.19418,0.37343 v 1.96571 c 0,0.25094 0,0.3555 0.16132,0.3555 0.0747,0 0.0896,-0.0149 0.37342,-0.29874 0.0299,-0.0299 0.0299,-0.0568 0.29874,-0.34057 0.65424,0.62437 1.32641,0.63931 1.64008,0.63931 1.7088,0 2.39291,-1.00078 2.39291,-2.06728 0,-0.78868 -0.44811,-1.23679 -0.62437,-1.41603 -0.48993,-0.475 -1.07247,-0.59748 -1.69983,-0.71399 -0.83049,-0.16431 -1.82828,-0.35849 -1.82828,-1.22185 0,-0.5198 0.38836,-1.12923 1.66697,-1.12923 1.63709,0 1.71177,1.33835 1.73866,1.8014 0.0209,0.13443 0.14937,0.13443 0.18223,0.13443 0.1912,0 0.1912,-0.0747 0.1912,-0.35849 v -1.50266 c 0,-0.25393 0,-0.3555 -0.16132,-0.3555 -0.0747,0 -0.10456,0 -0.29874,0.17626 -0.0418,0.0627 -0.1912,0.19119 -0.25393,0.23899 -0.56462,-0.41525 -1.17405,-0.41525 -1.3981,-0.41525 -1.81634,0 -2.38096,0.99481 -2.38096,1.82829 0,0.51981 0.236,0.93804 0.6393,1.26666 0.475,0.38537 0.89622,0.47499 1.96571,0.68112 z"
         id="path4662" />
      <path
         style="font-style:normal;font-variant:normal;font-weight:normal;font-stretch:normal;letter-spacing:normal;word-spacing:normal;text-anchor:start;fill:#000000;stroke:#000000;stroke-width:0;stroke-linecap:butt;stroke-linejoin:miter;stroke-miterlimit:10.43299961;stroke-opacity:1;stroke-dasharray:none;stroke-dashoffset:0"
         inkscape:connector-curvature="0"
         d="m 349.00372,307.21488 h 2.13002 v -0.46305 h -2.13002 v -2.73944 h -0.37342 c -0.0149,1.21886 -0.46305,2.81413 -1.91791,2.87089 v 0.3316 h 1.26367 v 4.10767 c 0,1.82829 1.38316,2.00754 1.9209,2.00754 1.05455,0 1.47278,-1.05456 1.47278,-2.00754 v -0.84842 h -0.37342 v 0.81556 c 0,1.10235 -0.44811,1.66697 -0.99779,1.66697 -0.99481,0 -0.99481,-1.35329 -0.99481,-1.60722 z"
         id="path4664" />
      <path
         style="font-style:normal;font-variant:normal;font-weight:normal;font-stretch:normal;letter-spacing:normal;word-spacing:normal;text-anchor:start;fill:#000000;stroke:#000000;stroke-width:0;stroke-linecap:butt;stroke-linejoin:miter;stroke-miterlimit:10.43299961;stroke-opacity:1;stroke-dasharray:none;stroke-dashoffset:0"
         inkscape:connector-curvature="0"
         d="m 357.15633,312.03654 0.006,0.0568 0.009,0.0538 0.009,0.0568 0.0149,0.0538 0.0149,0.0568 0.0149,0.0538 0.0179,0.0538 0.0209,0.0538 0.0239,0.0538 0.0239,0.0508 0.0269,0.0538 0.0269,0.0478 0.0299,0.0478 0.0329,0.0478 0.0329,0.0478 0.0358,0.0418 0.0388,0.0418 0.0388,0.0418 0.0418,0.0388 0.0418,0.0358 0.0448,0.0358 0.0478,0.0299 0.0478,0.0299 0.0508,0.0269 0.0508,0.0239 0.0568,0.0209 0.0538,0.0179 0.0597,0.0149 0.0598,0.012 0.0597,0.009 0.0627,0.006 0.0657,0.003 c 0.3077,0 1.21886,-0.2121 1.21886,-1.41603 v -0.83049 h -0.37342 v 0.83049 c 0,0.86336 -0.37044,0.95298 -0.53774,0.95298 -0.48993,0 -0.55266,-0.66619 -0.55266,-0.74087 v -2.97844 c 0,-0.62735 0,-1.20392 -0.53176,-1.75659 -0.58254,-0.57657 -1.32342,-0.81556 -2.03741,-0.81556 -1.22483,0 -2.24951,0.69607 -2.24951,1.67892 0,0.44512 0.29874,0.70204 0.68412,0.70204 0.41524,0 0.6871,-0.29874 0.6871,-0.6871 0,-0.17626 -0.0747,-0.66619 -0.76179,-0.6871 0.40031,-0.51682 1.12924,-0.68113 1.60722,-0.68113 0.73191,0 1.57735,0.57955 1.57735,1.90596 v 0.54968 0.31368 1.48772 c 0,1.41603 -1.06949,1.91791 -1.74166,1.91791 -0.72892,0 -1.34134,-0.52279 -1.34134,-1.26367 0,-0.81556 0.62736,-2.05533 3.083,-2.14196 h 0 v -0.31368 c -0.75581,0.0418 -1.79842,0.0896 -2.73646,0.53773 -1.1143,0.50487 -1.48772,1.27861 -1.48772,1.93285 0,1.20392 1.43992,1.57735 2.38095,1.57735 0.98286,0 1.66398,-0.5945 1.95077,-1.29355 z"
         id="path4666" />
      <path
         style="font-style:normal;font-variant:normal;font-weight:normal;font-stretch:normal;letter-spacing:normal;word-spacing:normal;text-anchor:start;fill:#000000;stroke:#000000;stroke-width:0;stroke-linecap:butt;stroke-linejoin:miter;stroke-miterlimit:10.43299961;stroke-opacity:1;stroke-dasharray:none;stroke-dashoffset:0"
         inkscape:connector-curvature="0"
         d="m 361.29089,308.04538 v 3.99116 c 0,0.66619 -0.16132,0.66619 -1.16209,0.66619 v 0.46305 c 0.52279,-0.0149 1.28159,-0.0478 1.6819,-0.0478 0.38836,0 1.1621,0.0329 1.66697,0.0478 v -0.46305 c -0.9948,0 -1.15911,0 -1.15911,-0.66619 v -2.73944 c 0,-1.55046 1.05455,-2.38096 2.00753,-2.38096 0.93804,0 1.10235,0.80361 1.10235,1.65203 v 3.46837 c 0,0.66619 -0.16431,0.66619 -1.1621,0.66619 v 0.46305 c 0.5228,-0.0149 1.2816,-0.0478 1.6849,-0.0478 0.38836,0 1.15612,0.0329 1.66696,0.0478 v -0.46305 c -0.77672,0 -1.15014,0 -1.16209,-0.44811 v -2.84101 c 0,-1.27861 0,-1.74166 -0.46305,-2.27341 -0.20613,-0.25692 -0.69905,-0.54969 -1.55942,-0.54969 -1.08742,0 -1.78647,0.63931 -2.20172,1.55644 v -1.55644 l -2.10312,0.16132 v 0.46305 c 1.0426,0 1.16209,0.10157 1.16209,0.8305 z"
         id="path4668" />
      <path
         style="font-style:normal;font-variant:normal;font-weight:normal;font-stretch:normal;letter-spacing:normal;word-spacing:normal;text-anchor:start;fill:#000000;stroke:#000000;stroke-width:0;stroke-linecap:butt;stroke-linejoin:miter;stroke-miterlimit:10.43299961;stroke-opacity:1;stroke-dasharray:none;stroke-dashoffset:0"
         inkscape:connector-curvature="0"
         d="m 369.67652,309.92146 0,-0.11352 0.003,-0.10754 0.003,-0.10755 0.006,-0.10456 0.009,-0.10157 0.009,-0.10157 0.012,-0.0956 0.0119,-0.0956 0.0119,-0.0926 0.0179,-0.0896 0.0149,-0.0866 0.0179,-0.0866 0.0418,-0.1643 0.0448,-0.15236 0.0508,-0.14638 0.0538,-0.13742 0.0568,-0.12846 0.0627,-0.1195 0.0657,-0.11352 0.0687,-0.10456 0.0717,-0.0956 0.0747,-0.0896 0.0777,-0.0836 0.0807,-0.0777 0.0807,-0.0687 0.0807,-0.0627 0.0836,-0.0568 0.0837,-0.0478 0.0836,-0.0448 0.0866,-0.0388 0.0836,-0.0358 0.0837,-0.0269 0.0836,-0.0239 0.0807,-0.0179 0.0837,-0.0149 0.0777,-0.009 0.0777,-0.006 0.0747,-0.003 c 0.13145,0 1.06949,0.0149 1.59228,0.55267 -0.61241,0.0448 -0.69905,0.48993 -0.69905,0.68412 0,0.38836 0.26588,0.6871 0.68412,0.6871 0.38238,0 0.68112,-0.25692 0.68112,-0.69905 0,-1.01273 -1.12923,-1.59229 -2.27639,-1.59229 -1.85817,0 -3.22938,1.60424 -3.22938,3.45045 0,1.90297 1.47279,3.37875 3.20249,3.37875 1.99259,0 2.46759,-1.78946 2.46759,-1.93285 0,-0.14937 -0.14937,-0.14937 -0.19119,-0.14937 -0.13444,0 -0.16431,0.0568 -0.19717,0.14937 -0.4272,1.38018 -1.39512,1.55942 -1.9448,1.55942 -0.78867,0 -2.10014,-0.6393 -2.10014,-3.0352 z"
         id="path4670" />
      <path
         style="font-style:normal;font-variant:normal;font-weight:normal;font-stretch:normal;letter-spacing:normal;word-spacing:normal;text-anchor:start;fill:#000000;stroke:#000000;stroke-width:0;stroke-linecap:butt;stroke-linejoin:miter;stroke-miterlimit:10.43299961;stroke-opacity:1;stroke-dasharray:none;stroke-dashoffset:0"
         inkscape:connector-curvature="0"
         d="m 376.18308,309.72728 0.0149,-0.31367 c 0.0866,-2.21665 1.33836,-2.58709 1.84621,-2.58709 1.53254,0 1.68191,2.00753 1.68191,2.58709 h -3.52812 l -0.0149,0.31367 h 4.15248 c 0.32861,0 0.37044,0 0.37044,-0.31367 0,-1.4698 -0.80361,-2.91272 -2.66178,-2.91272 -1.72671,0 -3.09793,1.52955 -3.09793,3.39369 0,1.99259 1.56241,3.43551 3.27718,3.43551 1.81335,0 2.48253,-1.65204 2.48253,-1.93285 0,-0.14937 -0.11651,-0.18223 -0.1912,-0.18223 -0.13443,0 -0.1643,0.0896 -0.19716,0.20912 -0.51682,1.53253 -1.85817,1.53253 -2.00754,1.53253 -0.74685,0 -1.33835,-0.44512 -1.67891,-0.9948 -0.44811,-0.71399 -0.44811,-1.69983 -0.44811,-2.23458 z"
         id="path4672" />
    </g>
    <g
       id="g4803"
       transform="translate(-6.5659915,63.783937)">
      <path
         style="font-style:normal;font-variant:normal;font-weight:normal;font-stretch:normal;letter-spacing:normal;word-spacing:normal;text-anchor:start;fill:#000000;stroke:#000000;stroke-width:0;stroke-linecap:butt;stroke-linejoin:miter;stroke-miterlimit:10.43299961;stroke-opacity:1;stroke-dasharray:none;stroke-dashoffset:0"
         inkscape:connector-curvature="0"
         d="m 395.38607,304.4605 0.0209,-0.0508 0.0209,-0.0508 0.0239,-0.0508 0.0239,-0.0478 0.0269,-0.0478 0.0269,-0.0478 0.0269,-0.0448 0.0299,-0.0448 0.0329,-0.0448 0.0329,-0.0418 0.0358,-0.0418 0.0388,-0.0418 0.0388,-0.0388 0.0418,-0.0359 0.0448,-0.0358 0.0448,-0.0358 0.0508,-0.0329 0.0508,-0.0299 0.0538,-0.0299 0.0568,-0.0269 0.0568,-0.0269 0.0627,-0.0239 0.0627,-0.0209 0.0687,-0.0209 0.0687,-0.0179 0.0747,-0.0179 0.0777,-0.012 0.0777,-0.012 0.0836,-0.009 0.0866,-0.009 0.0896,-0.006 0.0926,0 v -0.46305 c -0.46305,0.0329 -1.06053,0.0478 -1.4459,0.0478 -0.44512,0 -1.30848,-0.0329 -1.69684,-0.0478 v 0.46305 c 0.77672,0.0119 1.0904,0.40031 1.0904,0.74087 0,0.12249 -0.0478,0.20912 -0.0747,0.29874 l -2.72749,7.17573 -2.84401,-7.51629 c -0.0866,-0.20912 -0.0866,-0.23899 -0.0866,-0.26588 0,-0.43317 0.84842,-0.43317 1.21886,-0.43317 v -0.46305 c -0.53475,0.0478 -1.55943,0.0478 -2.12404,0.0478 -0.71997,0 -1.35927,-0.0329 -1.89103,-0.0478 v 0.46305 c 0.96493,0 1.24575,0 1.45487,0.56462 l 3.45642,9.13845 c 0.10157,0.2838 0.17625,0.32563 0.37342,0.32563 0.25094,0 0.27783,-0.0747 0.35251,-0.27783 z"
         id="path4674" />
      <path
         style="font-style:normal;font-variant:normal;font-weight:normal;font-stretch:normal;letter-spacing:normal;word-spacing:normal;text-anchor:start;fill:#000000;stroke:#000000;stroke-width:0;stroke-linecap:butt;stroke-linejoin:miter;stroke-miterlimit:10.43299961;stroke-opacity:1;stroke-dasharray:none;stroke-dashoffset:0"
         inkscape:connector-curvature="0"
         d="m 397.69235,309.72728 0.012,-0.31367 c 0.0896,-2.21665 1.34134,-2.58709 1.84919,-2.58709 1.52955,0 1.67892,2.00753 1.67892,2.58709 h -3.52811 l -0.012,0.31367 h 4.15248 c 0.32861,0 0.36745,0 0.36745,-0.31367 0,-1.4698 -0.80062,-2.91272 -2.65879,-2.91272 -1.72671,0 -3.10091,1.52955 -3.10091,3.39369 0,1.99259 1.56539,3.43551 3.27717,3.43551 1.81634,0 2.48253,-1.65204 2.48253,-1.93285 0,-0.14937 -0.11352,-0.18223 -0.18821,-0.18223 -0.13742,0 -0.1643,0.0896 -0.19716,0.20912 -0.51981,1.53253 -1.85817,1.53253 -2.00754,1.53253 -0.74685,0 -1.34134,-0.44512 -1.67891,-0.9948 -0.44811,-0.71399 -0.44811,-1.69983 -0.44811,-2.23458 z"
         id="path4676" />
      <path
         style="font-style:normal;font-variant:normal;font-weight:normal;font-stretch:normal;letter-spacing:normal;word-spacing:normal;text-anchor:start;fill:#000000;stroke:#000000;stroke-width:0;stroke-linecap:butt;stroke-linejoin:miter;stroke-miterlimit:10.43299961;stroke-opacity:1;stroke-dasharray:none;stroke-dashoffset:0"
         inkscape:connector-curvature="0"
         d="m 404.27358,312.03654 0,0.0299 -0.003,0.0299 0,0.0568 -0.003,0.0538 -0.003,0.0508 -0.006,0.0448 -0.009,0.0448 -0.009,0.0388 -0.009,0.0358 -0.012,0.0329 -0.0149,0.0329 -0.0179,0.0269 -0.0179,0.0269 -0.0239,0.0239 -0.0239,0.0209 -0.0269,0.0179 -0.0299,0.0149 -0.0299,0.0149 -0.0358,0.0149 -0.0388,0.009 -0.0418,0.012 -0.0478,0.006 -0.0478,0.009 -0.0538,0.003 -0.0269,0.003 -0.0299,0.003 -0.0299,0.003 -0.0299,0 -0.0299,0.003 -0.0329,0 -0.0358,0 -0.0329,0.003 -0.0358,0 -0.0388,0 -0.0388,0 -0.0388,0 -0.0388,0 -0.0418,0 -0.0418,0 -0.0448,0 -0.0448,0 -0.0478,0 v 0.46305 c 0.52279,-0.0149 1.28159,-0.0478 1.6819,-0.0478 0.38837,0 1.1621,0.0329 1.66697,0.0478 v -0.46305 c -0.9948,0 -1.15911,0 -1.15911,-0.66619 v -2.73944 c 0,-1.55046 1.05754,-2.38096 2.00753,-2.38096 0.93805,0 1.10235,0.80361 1.10235,1.65203 v 3.46837 c 0,0.66619 -0.1643,0.66619 -1.16209,0.66619 v 0.46305 c 0.52279,-0.0149 1.28458,-0.0478 1.68489,-0.0478 0.38836,0 1.15911,0.0329 1.66697,0.0478 v -0.46305 c -0.77673,0 -1.15015,0 -1.1621,-0.44811 v -2.84101 c 0,-1.27861 0,-1.74166 -0.46305,-2.27341 -0.20613,-0.25692 -0.69905,-0.54969 -1.55942,-0.54969 -1.25172,0 -1.90895,0.89025 -2.15989,1.45487 v -5.21003 l -2.14495,0.16431 v 0.46305 c 1.0426,0 1.16508,0.10157 1.16508,0.83348 z"
         id="path4678" />
      <path
         style="font-style:normal;font-variant:normal;font-weight:normal;font-stretch:normal;letter-spacing:normal;word-spacing:normal;text-anchor:start;fill:#000000;stroke:#000000;stroke-width:0;stroke-linecap:butt;stroke-linejoin:miter;stroke-miterlimit:10.43299961;stroke-opacity:1;stroke-dasharray:none;stroke-dashoffset:0"
         inkscape:connector-curvature="0"
         d="m 413.54647,306.59051 -2.08222,0.16132 v 0.46305 c 0.96792,0 1.10235,0.0896 1.10235,0.81556 v 4.0061 c 0,0.66619 -0.16132,0.66619 -1.16209,0.66619 v 0.46305 c 0.47798,-0.0149 1.2786,-0.0478 1.63709,-0.0478 0.52279,0 1.0426,0.0329 1.55046,0.0478 v -0.46305 c -0.98285,0 -1.04559,-0.0747 -1.04559,-0.65125 z"
         id="path4680" />
      <path
         style="font-style:normal;font-variant:normal;font-weight:normal;font-stretch:normal;letter-spacing:normal;word-spacing:normal;text-anchor:start;fill:#000000;stroke:#000000;stroke-width:0;stroke-linecap:butt;stroke-linejoin:miter;stroke-miterlimit:10.43299961;stroke-opacity:1;stroke-dasharray:none;stroke-dashoffset:0"
         inkscape:connector-curvature="0"
         d="m 413.60921,303.99745 -0.003,-0.0418 -0.003,-0.0448 -0.006,-0.0418 -0.006,-0.0418 -0.009,-0.0388 -0.0119,-0.0388 -0.012,-0.0388 -0.0149,-0.0359 -0.0179,-0.0358 -0.0179,-0.0358 -0.0179,-0.0329 -0.0209,-0.0299 -0.0239,-0.0299 -0.0239,-0.0299 -0.0239,-0.0299 -0.0269,-0.0239 -0.0299,-0.0269 -0.0269,-0.0239 -0.0299,-0.0209 -0.0329,-0.0209 -0.0329,-0.0209 -0.0329,-0.0179 -0.0329,-0.0149 -0.0358,-0.0149 -0.0329,-0.012 -0.0358,-0.0119 -0.0388,-0.009 -0.0358,-0.009 -0.0388,-0.006 -0.0388,-0.003 -0.0388,-0.003 -0.0388,-0.003 c -0.46005,0 -0.78568,0.4033 -0.78568,0.78867 0,0.4033 0.32563,0.78868 0.78568,0.78868 0.41824,0 0.79167,-0.31069 0.79167,-0.78868 z"
         id="path4682" />
      <path
         style="font-style:normal;font-variant:normal;font-weight:normal;font-stretch:normal;letter-spacing:normal;word-spacing:normal;text-anchor:start;fill:#000000;stroke:#000000;stroke-width:0;stroke-linecap:butt;stroke-linejoin:miter;stroke-miterlimit:10.43299961;stroke-opacity:1;stroke-dasharray:none;stroke-dashoffset:0"
         inkscape:connector-curvature="0"
         d="m 416.77585,309.92146 0.003,-0.11352 0.003,-0.10754 0.003,-0.10755 0.006,-0.10456 0.009,-0.10157 0.009,-0.10157 0.009,-0.0956 0.0149,-0.0956 0.012,-0.0926 0.0149,-0.0896 0.0179,-0.0866 0.0179,-0.0866 0.0388,-0.1643 0.0478,-0.15236 0.0478,-0.14638 0.0568,-0.13742 0.0568,-0.12846 0.0627,-0.1195 0.0657,-0.11352 0.0687,-0.10456 0.0717,-0.0956 0.0747,-0.0896 0.0777,-0.0836 0.0777,-0.0777 0.0807,-0.0687 0.0837,-0.0627 0.0836,-0.0568 0.0836,-0.0478 0.0926,-0.0448 0.0896,-0.0388 0.0597,-0.0358 0.0896,-0.0269 0.0896,-0.0239 0.0896,-0.0179 0.0598,-0.0149 0.0896,-0.009 0.0896,-0.006 0.0598,-0.003 c 0.14937,0 1.07546,0.0149 1.58332,0.55267 -0.59748,0.0448 -0.6871,0.48993 -0.6871,0.68412 0,0.38836 0.26887,0.6871 0.6871,0.6871 0.38836,0 0.6871,-0.25692 0.6871,-0.69905 0,-1.01273 -1.13521,-1.59229 -2.27042,-1.59229 -1.87011,0 -3.24133,1.60424 -3.24133,3.45045 0,1.90297 1.47279,3.37875 3.21146,3.37875 1.97168,0 2.44966,-1.78946 2.44966,-1.93285 0,-0.14937 -0.14937,-0.14937 -0.17924,-0.14937 -0.14937,0 -0.17925,0.0568 -0.20912,0.14937 -0.41824,1.38018 -1.3742,1.55942 -1.94181,1.55942 -0.77672,0 -2.09715,-0.6393 -2.09715,-3.0352 z"
         id="path4684" />
      <path
         style="font-style:normal;font-variant:normal;font-weight:normal;font-stretch:normal;letter-spacing:normal;word-spacing:normal;text-anchor:start;fill:#000000;stroke:#000000;stroke-width:0;stroke-linecap:butt;stroke-linejoin:miter;stroke-miterlimit:10.43299961;stroke-opacity:1;stroke-dasharray:none;stroke-dashoffset:0"
         inkscape:connector-curvature="0"
         d="m 424.25032,302.83535 -2.12105,0.16431 v 0.46305 c 1.04559,0 1.16508,0.10157 1.16508,0.83348 v 7.74035 c 0,0.66619 -0.17924,0.66619 -1.16508,0.66619 v 0.46305 c 0.47798,-0.0149 1.28458,-0.0478 1.64307,-0.0478 0.38836,0 1.10533,0.0329 1.64306,0.0478 v -0.46305 c -0.98584,0 -1.16508,0 -1.16508,-0.66619 z"
         id="path4686" />
      <path
         style="font-style:normal;font-variant:normal;font-weight:normal;font-stretch:normal;letter-spacing:normal;word-spacing:normal;text-anchor:start;fill:#000000;stroke:#000000;stroke-width:0;stroke-linecap:butt;stroke-linejoin:miter;stroke-miterlimit:10.43299961;stroke-opacity:1;stroke-dasharray:none;stroke-dashoffset:0"
         inkscape:connector-curvature="0"
         d="m 427.41696,309.72728 0,-0.31367 c 0.0896,-2.21665 1.34433,-2.58709 1.85219,-2.58709 1.52357,0 1.67294,2.00753 1.67294,2.58709 h -3.52513 l 0,0.31367 h 4.15249 c 0.32861,0 0.35848,0 0.35848,-0.31367 0,-1.4698 -0.80659,-2.91272 -2.65878,-2.91272 -1.73269,0 -3.1069,1.52955 -3.1069,3.39369 0,1.99259 1.58333,3.43551 3.28614,3.43551 1.82232,0 2.47954,-1.65204 2.47954,-1.93285 0,-0.14937 -0.11949,-0.18223 -0.17924,-0.18223 -0.14937,0 -0.17924,0.0896 -0.20912,0.20912 -0.50786,1.53253 -1.85219,1.53253 -2.00156,1.53253 -0.74685,0 -1.34432,-0.44512 -1.67294,-0.9948 -0.44811,-0.71399 -0.44811,-1.69983 -0.44811,-2.23458 z"
         id="path4688" />
    </g>
    <g
       transform="matrix(0.67229649,-0.0196498,0.01964919,0.67229687,-91.646254,41.522886)"
       id="g3847">
      <g
         id="g3825">
        <path
           inkscape:connector-curvature="0"
           id="path6320"
           d="m 620.14732,510.20536 c -7.88978,0 -14.28125,6.42272 -14.28125,14.3125 0,0.0749 -0.001,0.14413 0,0.21875 l -0.34375,0 0,52.28125 0.375,0 c 0.55722,7.38017 6.72721,13.1875 14.25,13.1875 7.88978,0 14.28125,-6.39147 14.28125,-14.28125 0,-0.6325 -0.0453,-1.23297 -0.125,-1.84375 l 0,-47.71875 c 0.0797,-0.61078 0.125,-1.21125 0.125,-1.84375 0,-7.88978 -6.39147,-14.3125 -14.28125,-14.3125 z"
           style="fill:#ffffff;stroke:#000000;stroke-width:1.48680377;stroke-linecap:butt;stroke-linejoin:round;stroke-miterlimit:4;stroke-opacity:1;stroke-dasharray:none;stroke-dashoffset:0" />
        <path
           style="fill:none;stroke:#000000;stroke-width:1.48680377;stroke-linecap:butt;stroke-linejoin:round;stroke-miterlimit:4;stroke-opacity:1;stroke-dasharray:none;stroke-dashoffset:0"
           d="m 674.14732,510.20536 c -7.88978,0 -14.28125,6.42272 -14.28125,14.3125 0,0.0749 -0.001,0.14413 0,0.21875 l -0.34375,0 0,52.28125 0.375,0 c 0.55722,7.38017 6.72721,13.1875 14.25,13.1875 7.88978,0 14.28125,-6.39147 14.28125,-14.28125 0,-0.6325 -0.0453,-1.23297 -0.125,-1.84375 l 0,-47.71875 c 0.0797,-0.61078 0.125,-1.21125 0.125,-1.84375 0,-7.88978 -6.39147,-14.3125 -14.28125,-14.3125 z"
           id="path6334"
           inkscape:connector-curvature="0" />
        <rect
           y="513.79077"
           x="620"
           height="72.85714"
           width="52.142857"
           id="rect6336"
           style="fill:#cccccc;fill-opacity:1;stroke:#000000;stroke-width:1.48680377;stroke-linecap:butt;stroke-linejoin:round;stroke-miterlimit:4;stroke-opacity:1;stroke-dasharray:none;stroke-dashoffset:0" />
        <rect
           y="551.64789"
           x="632.5"
           height="13.214286"
           width="12.5"
           id="rect6346"
           style="fill:#ffb380;fill-opacity:1;stroke:#000000;stroke-width:1.48680377;stroke-linecap:butt;stroke-linejoin:round;stroke-miterlimit:4;stroke-opacity:1;stroke-dasharray:none;stroke-dashoffset:0" />
        <rect
           y="554.41577"
           x="634.10712"
           height="0.53571427"
           width="0.98214287"
           id="rect6354"
           style="fill:#ffb380;fill-opacity:1;stroke:#000000;stroke-width:1.48680377;stroke-linecap:butt;stroke-linejoin:round;stroke-miterlimit:4;stroke-opacity:1;stroke-dasharray:none;stroke-dashoffset:0" />
        <rect
           style="fill:#ffb380;fill-opacity:1;stroke:#000000;stroke-width:1.48680377;stroke-linecap:butt;stroke-linejoin:round;stroke-miterlimit:4;stroke-opacity:1;stroke-dasharray:none;stroke-dashoffset:0"
           id="rect6360"
           width="0.98214287"
           height="0.53571427"
           x="634.10712"
           y="556.41577" />
        <rect
           y="558.41577"
           x="634.10712"
           height="0.53571427"
           width="0.98214287"
           id="rect6362"
           style="fill:#ffb380;fill-opacity:1;stroke:#000000;stroke-width:1.48680377;stroke-linecap:butt;stroke-linejoin:round;stroke-miterlimit:4;stroke-opacity:1;stroke-dasharray:none;stroke-dashoffset:0" />
        <rect
           style="fill:#ffb380;fill-opacity:1;stroke:#000000;stroke-width:1.48680377;stroke-linecap:butt;stroke-linejoin:round;stroke-miterlimit:4;stroke-opacity:1;stroke-dasharray:none;stroke-dashoffset:0"
           id="rect6364"
           width="0.98214287"
           height="0.53571427"
           x="634.10712"
           y="558.41577" />
        <rect
           y="562.41577"
           x="634.10712"
           height="0.53571427"
           width="0.98214287"
           id="rect6366"
           style="fill:#ffb380;fill-opacity:1;stroke:#000000;stroke-width:1.48680377;stroke-linecap:butt;stroke-linejoin:round;stroke-miterlimit:4;stroke-opacity:1;stroke-dasharray:none;stroke-dashoffset:0" />
        <rect
           style="fill:#ffb380;fill-opacity:1;stroke:#000000;stroke-width:1.48680377;stroke-linecap:butt;stroke-linejoin:round;stroke-miterlimit:4;stroke-opacity:1;stroke-dasharray:none;stroke-dashoffset:0"
           id="rect6368"
           width="0.98214287"
           height="0.53571427"
           x="634.10712"
           y="560.41577" />
        <rect
           y="560.41577"
           x="638.10712"
           height="0.53571427"
           width="2.4107141"
           id="rect6370"
           style="fill:#ffb380;fill-opacity:1;stroke:#000000;stroke-width:1.48680377;stroke-linecap:butt;stroke-linejoin:round;stroke-miterlimit:4;stroke-opacity:1;stroke-dasharray:none;stroke-dashoffset:0" />
        <rect
           style="fill:#ffb380;fill-opacity:1;stroke:#000000;stroke-width:1.48680377;stroke-linecap:butt;stroke-linejoin:round;stroke-miterlimit:4;stroke-opacity:1;stroke-dasharray:none;stroke-dashoffset:0"
           id="rect6372"
           width="2.4107141"
           height="0.53571427"
           x="638.10712"
           y="558.41577" />
        <rect
           y="556.41577"
           x="638.10712"
           height="0.53571427"
           width="2.4107141"
           id="rect6374"
           style="fill:#ffb380;fill-opacity:1;stroke:#000000;stroke-width:1.48680377;stroke-linecap:butt;stroke-linejoin:round;stroke-miterlimit:4;stroke-opacity:1;stroke-dasharray:none;stroke-dashoffset:0" />
        <rect
           style="fill:#ffb380;fill-opacity:1;stroke:#000000;stroke-width:1.48680377;stroke-linecap:butt;stroke-linejoin:round;stroke-miterlimit:4;stroke-opacity:1;stroke-dasharray:none;stroke-dashoffset:0"
           id="rect6376"
           width="2.4107141"
           height="0.53571427"
           x="638.10712"
           y="554.41577" />
        <rect
           y="554.41577"
           x="642.10712"
           height="0.53571427"
           width="0.089285575"
           id="rect6378"
           style="fill:#ffb380;fill-opacity:1;stroke:#000000;stroke-width:1.48680377;stroke-linecap:butt;stroke-linejoin:round;stroke-miterlimit:4;stroke-opacity:1;stroke-dasharray:none;stroke-dashoffset:0" />
        <rect
           style="fill:#ffb380;fill-opacity:1;stroke:#000000;stroke-width:1.48680377;stroke-linecap:butt;stroke-linejoin:round;stroke-miterlimit:4;stroke-opacity:1;stroke-dasharray:none;stroke-dashoffset:0"
           id="rect6380"
           width="0.089285575"
           height="0.53571427"
           x="642.10712"
           y="556.41577" />
        <rect
           y="556.41577"
           x="642.10712"
           height="0.53571427"
           width="0.089285575"
           id="rect6382"
           style="fill:#ffb380;fill-opacity:1;stroke:#000000;stroke-width:1.48680377;stroke-linecap:butt;stroke-linejoin:round;stroke-miterlimit:4;stroke-opacity:1;stroke-dasharray:none;stroke-dashoffset:0" />
        <rect
           style="fill:#ffb380;fill-opacity:1;stroke:#000000;stroke-width:1.48680377;stroke-linecap:butt;stroke-linejoin:round;stroke-miterlimit:4;stroke-opacity:1;stroke-dasharray:none;stroke-dashoffset:0"
           id="rect6384"
           width="0.089285575"
           height="0.53571427"
           x="642.10712"
           y="560.41577" />
        <rect
           y="558.41577"
           x="642.10712"
           height="0.53571427"
           width="0.089285575"
           id="rect6386"
           style="fill:#ffb380;fill-opacity:1;stroke:#000000;stroke-width:1.48680377;stroke-linecap:butt;stroke-linejoin:round;stroke-miterlimit:4;stroke-opacity:1;stroke-dasharray:none;stroke-dashoffset:0" />
        <rect
           style="fill:#ffb380;fill-opacity:1;stroke:#000000;stroke-width:1.48680377;stroke-linecap:butt;stroke-linejoin:round;stroke-miterlimit:4;stroke-opacity:1;stroke-dasharray:none;stroke-dashoffset:0"
           id="rect6388"
           width="0.089285575"
           height="0.53571427"
           x="642.10712"
           y="562.41577" />
      </g>
      <path
         style="fill:none;stroke:#000000;stroke-width:5.94721508;stroke-linecap:butt;stroke-linejoin:miter;stroke-miterlimit:4;stroke-opacity:1;stroke-dasharray:none;marker-start:none;marker-end:url(#Arrow1Mend)"
         d="m 645,533.79075 0,-74.28571"
         id="path6415"
         inkscape:connector-curvature="0" />
    </g>
    <path
       style="fill:none;stroke:#000000;stroke-width:1;stroke-linecap:butt;stroke-linejoin:miter;stroke-miterlimit:4;stroke-opacity:1;stroke-dasharray:2, 2;stroke-dashoffset:0;marker-start:url(#Arrow1Lstart);marker-end:url(#Arrow1Lend)"
       d="m 219.62298,347.70894 104.08919,36.22487"
       id="path3782"
       inkscape:connector-curvature="0" />
  </g>
</svg>
