<?xml version="1.0" encoding="UTF-8" standalone="no"?>
<!-- Created with Inkscape (http://www.inkscape.org/) -->

<svg
   xmlns:dc="http://purl.org/dc/elements/1.1/"
   xmlns:cc="http://creativecommons.org/ns#"
   xmlns:rdf="http://www.w3.org/1999/02/22-rdf-syntax-ns#"
   xmlns:svg="http://www.w3.org/2000/svg"
   xmlns="http://www.w3.org/2000/svg"
   xmlns:sodipodi="http://sodipodi.sourceforge.net/DTD/sodipodi-0.dtd"
   xmlns:inkscape="http://www.inkscape.org/namespaces/inkscape"
   width="349.43411"
   height="653.22662"
   id="svg4405"
   version="1.1"
   inkscape:version="0.48.4 r9939"
   sodipodi:docname="GoTAdvance.svg">
  <defs
     id="defs4407" />
  <sodipodi:namedview
     id="base"
     pagecolor="#ffffff"
     bordercolor="#666666"
     borderopacity="1.0"
     inkscape:pageopacity="0.0"
     inkscape:pageshadow="2"
     inkscape:zoom="0.7"
     inkscape:cx="445.31325"
     inkscape:cy="372.56819"
     inkscape:document-units="px"
     inkscape:current-layer="layer1"
     showgrid="false"
     inkscape:snap-center="true"
     inkscape:snap-object-midpoints="true"
     inkscape:window-width="1221"
     inkscape:window-height="1000"
     inkscape:window-x="1425"
     inkscape:window-y="24"
     inkscape:window-maximized="1"
     fit-margin-top="0"
     fit-margin-left="0"
     fit-margin-right="0"
     fit-margin-bottom="0" />
  <metadata
     id="metadata4410">
    <rdf:RDF>
      <cc:Work
         rdf:about="">
        <dc:format>image/svg+xml</dc:format>
        <dc:type
           rdf:resource="http://purl.org/dc/dcmitype/StillImage" />
        <dc:title />
      </cc:Work>
    </rdf:RDF>
  </metadata>
  <g
     inkscape:label="Layer 1"
     inkscape:groupmode="layer"
     id="layer1"
     transform="translate(-253.71574,-4.74521)">
    <g
       id="g3803"
       transform="matrix(0.37676437,0,0,0.36749496,280.4349,410.70329)">
      <g
         id="content"
         transform="matrix(1.0629921,0,0,-1.0629921,-186.02362,789.27165)"
         xml:space="preserve"
         stroke-miterlimit="10.433"
         font-style="normal"
         font-variant="normal"
         font-weight="normal"
         font-stretch="normal"
         font-size-adjust="none"
         letter-spacing="normal"
         word-spacing="normal"
         style="font-style:normal;font-variant:normal;font-weight:normal;font-stretch:normal;letter-spacing:normal;word-spacing:normal;text-anchor:start;fill:none;stroke:#000000;stroke-width:2.68744373;stroke-linecap:butt;stroke-linejoin:miter;stroke-miterlimit:10.43299961;stroke-opacity:1;stroke-dasharray:none;stroke-dashoffset:0" />    </g>
    <g
       id="g4054"
       transform="matrix(0.37676437,0,0,0.36749496,180.1093,353.59633)">
      <g
         word-spacing="normal"
         letter-spacing="normal"
         font-size-adjust="none"
         font-stretch="normal"
         font-weight="normal"
         font-variant="normal"
         font-style="normal"
         stroke-miterlimit="10.433"
         xml:space="preserve"
         transform="matrix(1.0629921,0,0,-1.0629921,-186.02362,789.27165)"
         id="g4056"
         style="font-style:normal;font-variant:normal;font-weight:normal;font-stretch:normal;letter-spacing:normal;word-spacing:normal;text-anchor:start;fill:none;stroke:#000000;stroke-width:2.68744373;stroke-linecap:butt;stroke-linejoin:miter;stroke-miterlimit:10.43299961;stroke-opacity:1;stroke-dasharray:none;stroke-dashoffset:0" />    </g>
    <path
       style="fill:#99ffcc;fill-opacity:1;stroke:#000000;stroke-width:1;stroke-linecap:square;stroke-linejoin:round;stroke-miterlimit:4;stroke-opacity:1;stroke-dashoffset:0"
       d="m 562.24375,145.24519 c 0,77.31986 -62.68013,139.99999 -139.99999,139.99999 -77.31985,0 -139.99998,-62.68013 -139.99998,-139.99999 0,-77.31985 62.68013,-139.99998 139.99998,-139.99998 77.31986,0 139.99999,62.68013 139.99999,139.99998 z"
       id="path5276"
       inkscape:connector-curvature="0" />
    <path
       style="fill:#99ffcc;fill-opacity:1;stroke:#000000;stroke-width:1;stroke-linecap:square;stroke-linejoin:round;stroke-miterlimit:4;stroke-opacity:1;stroke-dashoffset:0"
       d="m 602.64985,236.15892 c 0,77.31986 -62.68013,139.99999 -139.99999,139.99999 -77.31985,0 -139.99998,-62.68013 -139.99998,-139.99999 0,-77.31985 62.68013,-139.99998 139.99998,-139.99998 77.31986,0 139.99999,62.68013 139.99999,139.99998 z"
       id="path5274"
       inkscape:connector-curvature="0" />
    <path
       style="fill:#99ffcc;fill-opacity:1;stroke:#000000;stroke-width:1;stroke-linecap:square;stroke-linejoin:round;stroke-miterlimit:4;stroke-opacity:1;stroke-dashoffset:0"
       d="m 585.47726,332.12342 c 0,77.31986 -62.68013,139.99999 -139.99999,139.99999 -77.31985,0 -139.99998,-62.68013 -139.99998,-139.99999 0,-77.31985 62.68013,-139.99998 139.99998,-139.99998 77.31986,0 139.99999,62.68013 139.99999,139.99998 z"
       id="path5272"
       inkscape:connector-curvature="0" />
    <path
       style="fill:#99ffcc;fill-opacity:1;stroke:#000000;stroke-width:1;stroke-linecap:square;stroke-linejoin:round;stroke-miterlimit:4;stroke-opacity:1;stroke-dashoffset:0"
       d="m 559.21329,412.93562 c 0,77.31986 -62.68013,139.99999 -139.99999,139.99999 -77.31985,0 -139.99998,-62.68013 -139.99998,-139.99999 0,-77.31985 62.68013,-139.99998 139.99998,-139.99998 77.31986,0 139.99999,62.68013 139.99999,139.99998 z"
       id="path5270"
       inkscape:connector-curvature="0" />
    <path
       transform="translate(25.64428,5.1096543)"
       sodipodi:type="arc"
       style="fill:#99ffcc;fill-opacity:1;stroke:#000000;stroke-width:1;stroke-linecap:square;stroke-linejoin:round;stroke-miterlimit:4;stroke-opacity:1;stroke-dasharray:none;stroke-dashoffset:0"
       id="path3757"
       sodipodi:cx="368.57144"
       sodipodi:cy="512.36218"
       sodipodi:rx="139.99998"
       sodipodi:ry="139.99998"
       d="m 508.57143,512.36218 c 0,77.31986 -62.68013,139.99999 -139.99999,139.99999 -77.31985,0 -139.99998,-62.68013 -139.99998,-139.99999 0,-77.31985 62.68013,-139.99998 139.99998,-139.99998 77.31986,0 139.99999,62.68013 139.99999,139.99998 z" />
    <path
       transform="translate(25.64428,5.1096543)"
       sodipodi:type="arc"
       style="fill:#000000;fill-opacity:1;stroke:#000000;stroke-width:1;stroke-linecap:square;stroke-linejoin:round;stroke-miterlimit:4;stroke-opacity:1;stroke-dasharray:none;stroke-dashoffset:0"
       id="path3765-0-2-7-7"
       sodipodi:cx="368.57144"
       sodipodi:cy="512.36218"
       sodipodi:rx="2.0535548"
       sodipodi:ry="2.0535548"
       d="m 370.625,512.36218 c 0,1.13415 -0.91941,2.05356 -2.05356,2.05356 -1.13415,0 -2.05355,-0.91941 -2.05355,-2.05356 0,-1.13414 0.9194,-2.05355 2.05355,-2.05355 1.13415,0 2.05356,0.91941 2.05356,2.05355 z" />
    <path
       transform="translate(76.905831,-180.23876)"
       sodipodi:type="arc"
       style="fill:#000000;fill-opacity:1;stroke:#000000;stroke-width:1;stroke-linecap:square;stroke-linejoin:round;stroke-miterlimit:4;stroke-opacity:1;stroke-dasharray:none;stroke-dashoffset:0"
       id="path3765-0-0"
       sodipodi:cx="368.57144"
       sodipodi:cy="512.36218"
       sodipodi:rx="2.0535548"
       sodipodi:ry="2.0535548"
       d="m 370.625,512.36218 c 0,1.13415 -0.91941,2.05356 -2.05356,2.05356 -1.13415,0 -2.05355,-0.91941 -2.05355,-2.05356 0,-1.13414 0.9194,-2.05355 2.05355,-2.05355 1.13415,0 2.05356,0.91941 2.05356,2.05355 z" />
    <path
       transform="translate(94.078424,-276.20326)"
       sodipodi:type="arc"
       style="fill:#000000;fill-opacity:1;stroke:#000000;stroke-width:1;stroke-linecap:square;stroke-linejoin:round;stroke-miterlimit:4;stroke-opacity:1;stroke-dasharray:none;stroke-dashoffset:0"
       id="path3765-0-08"
       sodipodi:cx="368.57144"
       sodipodi:cy="512.36218"
       sodipodi:rx="2.0535548"
       sodipodi:ry="2.0535548"
       d="m 370.625,512.36218 c 0,1.13415 -0.91941,2.05356 -2.05356,2.05356 -1.13415,0 -2.05355,-0.91941 -2.05355,-2.05356 0,-1.13414 0.9194,-2.05355 2.05355,-2.05355 1.13415,0 2.05356,0.91941 2.05356,2.05355 z" />
    <path
       transform="translate(53.672322,-367.11699)"
       sodipodi:type="arc"
       style="fill:#000000;fill-opacity:1;stroke:#000000;stroke-width:1;stroke-linecap:square;stroke-linejoin:round;stroke-miterlimit:4;stroke-opacity:1;stroke-dasharray:none;stroke-dashoffset:0"
       id="path3765-0-2"
       sodipodi:cx="368.57144"
       sodipodi:cy="512.36218"
       sodipodi:rx="2.0535548"
       sodipodi:ry="2.0535548"
       d="m 370.625,512.36218 c 0,1.13415 -0.91941,2.05356 -2.05356,2.05356 -1.13415,0 -2.05355,-0.91941 -2.05355,-2.05356 0,-1.13414 0.9194,-2.05355 2.05355,-2.05355 1.13415,0 2.05356,0.91941 2.05356,2.05355 z" />
    <path
       transform="translate(50.641862,-99.426561)"
       sodipodi:type="arc"
       style="fill:#000000;fill-opacity:1;stroke:#000000;stroke-width:1;stroke-linecap:square;stroke-linejoin:round;stroke-miterlimit:4;stroke-opacity:1;stroke-dasharray:none;stroke-dashoffset:0"
       id="path3765-0"
       sodipodi:cx="368.57144"
       sodipodi:cy="512.36218"
       sodipodi:rx="2.0535548"
       sodipodi:ry="2.0535548"
       d="m 370.625,512.36218 c 0,1.13415 -0.91941,2.05356 -2.05356,2.05356 -1.13415,0 -2.05355,-0.91941 -2.05355,-2.05356 0,-1.13414 0.9194,-2.05355 2.05355,-2.05355 1.13415,0 2.05356,0.91941 2.05356,2.05355 z" />
    <path
       transform="translate(-24.310358,-441.35554)"
       sodipodi:type="arc"
       style="fill:#000000;fill-opacity:1;stroke:#000000;stroke-width:1;stroke-linecap:square;stroke-linejoin:round;stroke-miterlimit:4;stroke-opacity:1;stroke-dasharray:none;stroke-dashoffset:0"
       id="path3765-0-2-7"
       sodipodi:cx="368.57144"
       sodipodi:cy="512.36218"
       sodipodi:rx="2.0535548"
       sodipodi:ry="2.0535548"
       d="m 370.625,512.36218 c 0,1.13415 -0.91941,2.05356 -2.05356,2.05356 -1.13415,0 -2.05355,-0.91941 -2.05355,-2.05356 0,-1.13414 0.9194,-2.05355 2.05355,-2.05355 1.13415,0 2.05356,0.91941 2.05356,2.05355 z" />
    <path
       style="fill:none;stroke:#000000;stroke-width:1px;stroke-linecap:butt;stroke-linejoin:miter;stroke-opacity:1"
       d="m 394.21572,517.47184 24.99758,-104.53622 26.26397,-80.8122 17.1726,-95.9645 -40.40611,-90.91373"
       id="path5316"
       inkscape:connector-curvature="0" />
    <path
       style="fill:none;stroke:#000000;stroke-width:1px;stroke-linecap:butt;stroke-linejoin:miter;stroke-opacity:1"
       d="M 422.24376,145.24519 344.26108,71.006643"
       id="path5323"
       inkscape:connector-curvature="0" />
  </g>
</svg>
