<?xml version="1.0" encoding="UTF-8" standalone="no"?>
<!-- Created with Inkscape (http://www.inkscape.org/) -->

<svg
   xmlns:dc="http://purl.org/dc/elements/1.1/"
   xmlns:cc="http://creativecommons.org/ns#"
   xmlns:rdf="http://www.w3.org/1999/02/22-rdf-syntax-ns#"
   xmlns:svg="http://www.w3.org/2000/svg"
   xmlns="http://www.w3.org/2000/svg"
   xmlns:sodipodi="http://sodipodi.sourceforge.net/DTD/sodipodi-0.dtd"
   xmlns:inkscape="http://www.inkscape.org/namespaces/inkscape"
   width="744.09448819"
   height="1052.3622047"
   id="svg2"
   version="1.1"
   inkscape:version="0.48.4 r9939"
   sodipodi:docname="New document 1">
  <sodipodi:namedview
     id="base"
     pagecolor="#ffffff"
     bordercolor="#666666"
     borderopacity="1.0"
     inkscape:pageopacity="0.0"
     inkscape:pageshadow="2"
     inkscape:zoom="0.35"
     inkscape:cx="1285.1708"
     inkscape:cy="782.55624"
     inkscape:document-units="px"
     inkscape:current-layer="layer1"
     showgrid="false"
     inkscape:snap-object-midpoints="true"
     inkscape:window-width="1307"
     inkscape:window-height="744"
     inkscape:window-x="59"
     inkscape:window-y="24"
     inkscape:window-maximized="1" />
  <defs
     id="defs4" />
  <metadata
     id="metadata7">
    <rdf:RDF>
      <cc:Work
         rdf:about="">
        <dc:format>image/svg+xml</dc:format>
        <dc:type
           rdf:resource="http://purl.org/dc/dcmitype/StillImage" />
        <dc:title></dc:title>
      </cc:Work>
    </rdf:RDF>
  </metadata>
  <g
     inkscape:label="Layer 1"
     inkscape:groupmode="layer"
     id="layer1">
    <path
       style="fill:none;stroke:#000000;stroke-width:1px;stroke-linecap:butt;stroke-linejoin:miter;stroke-opacity:1"
       d="m -431.45802,475.27888 2197.14282,0 0,5.71428"
       id="path3034"
       inkscape:connector-curvature="0" />
    <path
       sodipodi:type="star"
       style="fill:#ffffff;stroke:#000000;stroke-width:0.92096710000000004;stroke-linecap:butt;stroke-linejoin:round;stroke-miterlimit:4;stroke-opacity:1;stroke-dasharray:none;stroke-dashoffset:0"
       id="path2985"
       sodipodi:sides="3"
       sodipodi:cx="131.42857"
       sodipodi:cy="420.93362"
       sodipodi:r1="85.131638"
       sodipodi:r2="43.070896"
       sodipodi:arg1="1.6333438e-10"
       sodipodi:arg2="1.0471976"
       inkscape:flatsided="true"
       inkscape:rounded="0"
       inkscape:randomized="0"
       d="m 216.56021,420.93362 -127.697455,73.72617 0,-147.45233 z"
       inkscape:transform-center-x="-25.390174"
       transform="matrix(1.1789945,0,0,1,-4.2686992,57.202398)" />
    <path
       sodipodi:type="star"
       style="fill:#ffffff;stroke:#000000;stroke-width:0.92096710000000004;stroke-linecap:butt;stroke-linejoin:round;stroke-miterlimit:4;stroke-opacity:1;stroke-dasharray:none;stroke-dashoffset:0"
       id="path2985-7"
       sodipodi:sides="3"
       sodipodi:cx="131.42857"
       sodipodi:cy="420.93362"
       sodipodi:r1="85.131638"
       sodipodi:r2="43.070896"
       sodipodi:arg1="1.6333438e-10"
       sodipodi:arg2="1.0471976"
       inkscape:flatsided="true"
       inkscape:rounded="0"
       inkscape:randomized="0"
       d="m 216.56021,420.93362 -127.697455,73.72617 0,-147.45233 z"
       inkscape:transform-center-x="-25.390174"
       transform="matrix(1.1789945,0,0,1,295.7313,57.202398)" />
    <path
       sodipodi:type="star"
       style="fill:#ffffff;stroke:#000000;stroke-width:0.92096710000000004;stroke-linecap:butt;stroke-linejoin:round;stroke-miterlimit:4;stroke-opacity:1;stroke-dasharray:none;stroke-dashoffset:0"
       id="path2985-78"
       sodipodi:sides="3"
       sodipodi:cx="131.42857"
       sodipodi:cy="420.93362"
       sodipodi:r1="85.131638"
       sodipodi:r2="43.070896"
       sodipodi:arg1="1.6333438e-10"
       sodipodi:arg2="1.0471976"
       inkscape:flatsided="true"
       inkscape:rounded="0"
       inkscape:randomized="0"
       d="m 216.56021,420.93362 -127.697455,73.72617 0,-147.45233 z"
       inkscape:transform-center-x="-25.390174"
       transform="matrix(1.1789945,0,0,1,595.7313,57.202398)" />
    <path
       sodipodi:type="star"
       style="fill:#ffffff;stroke:#000000;stroke-width:0.92096710000000004;stroke-linecap:butt;stroke-linejoin:round;stroke-miterlimit:4;stroke-opacity:1;stroke-dasharray:none;stroke-dashoffset:0"
       id="path2985-8"
       sodipodi:sides="3"
       sodipodi:cx="131.42857"
       sodipodi:cy="420.93362"
       sodipodi:r1="85.131638"
       sodipodi:r2="43.070896"
       sodipodi:arg1="1.6333438e-10"
       sodipodi:arg2="1.0471976"
       inkscape:flatsided="true"
       inkscape:rounded="0"
       inkscape:randomized="0"
       d="m 216.56021,420.93362 -127.697455,73.72617 0,-147.45233 z"
       inkscape:transform-center-x="-25.390174"
       transform="matrix(1.1789945,0,0,1,895.7313,57.202398)" />
    <path
       sodipodi:type="arc"
       style="fill:#ffffff;stroke:#000000;stroke-width:1;stroke-linecap:butt;stroke-linejoin:round;stroke-miterlimit:4;stroke-opacity:1;stroke-dasharray:none;stroke-dashoffset:0"
       id="path3032"
       sodipodi:cx="1050.6848"
       sodipodi:cy="478.13602"
       sodipodi:rx="59.940445"
       sodipodi:ry="59.940445"
       d="m 1110.6253,478.13602 a 59.940445,59.940445 0 1 1 -119.88093,0 59.940445,59.940445 0 1 1 119.88093,0 z"
       transform="translate(328,0)" />
    <path
       style="fill:none;stroke:#000000;stroke-width:1px;stroke-linecap:butt;stroke-linejoin:miter;stroke-opacity:1"
       d="m -84.28566,763.79076 1477.14276,0 0,5.71428"
       id="path3034-2"
       inkscape:connector-curvature="0" />
    <path
       style="fill:none;stroke:#000000;stroke-width:1px;stroke-linecap:butt;stroke-linejoin:miter;stroke-opacity:1"
       d="m -80.000026,482.36219 0,282.8571 -5.71428,0"
       id="path3034-2-0"
       inkscape:connector-curvature="0" />
    <path
       style="fill:none;stroke:#000000;stroke-width:1px;stroke-linecap:butt;stroke-linejoin:miter;stroke-opacity:1"
       d="m 1388.5714,550.93363 0,191.42853 -5.7143,0"
       id="path3034-2-0-4"
       inkscape:connector-curvature="0" />
    <path
       id="path3175"
       d="m -87.67582,386.44258 0,-0.0531 0,-0.0638 0,-0.0531 0,-0.0532 0,-0.0531 0,-0.0532 0,-0.0425 0,-0.0531 0,-0.0425 0,-0.0425 -0.0106,-0.0425 0,-0.0425 0,-0.0425 0,-0.0319 0,-0.0425 -0.0106,-0.0319 -0.0106,-0.0744 0,-0.0638 -0.0213,-0.0531 -0.0106,-0.0531 -0.0213,-0.0532 -0.0213,-0.0425 -0.0213,-0.0425 -0.0213,-0.0319 -0.0319,-0.0319 -0.0319,-0.0319 -0.0425,-0.0319 -0.0425,-0.0213 -0.0425,-0.0213 -0.0319,-0.0106 -0.0213,-0.0106 -0.0319,0 -0.0213,-0.0106 -0.0319,-0.0106 -0.0319,0 -0.0319,-0.0106 -0.0319,0 -0.0425,-0.0106 -0.0319,0 -0.0425,0 -0.0319,-0.0106 -0.0425,0 -0.0425,0 -0.0531,0 -0.0425,0 -0.0425,0 -0.0531,-0.0106 -0.0532,0 -0.0531,0 -0.0531,0 -0.0532,0 c -3.28464,3.39095 -7.94055,3.39095 -9.6307,3.39095 v 1.64763 c 1.06299,0 4.17756,0 6.92007,-1.38189 v 27.43583 c 0,1.91339 -0.14881,2.54055 -4.91102,2.54055 h -1.70079 v 1.64764 c 1.86024,-0.17008 6.463,-0.17008 8.57835,-0.17008 2.12598,0 6.71811,0 8.57835,0.17008 v -1.64764 h -1.69016 c -4.76221,0 -4.93228,-0.57401 -4.93228,-2.54055 z"
       inkscape:connector-curvature="0"
       style="font-style:normal;font-variant:normal;font-weight:normal;font-stretch:normal;letter-spacing:normal;word-spacing:normal;text-anchor:start;fill:#000000;stroke:#000000;stroke-width:0;stroke-linecap:butt;stroke-linejoin:miter;stroke-miterlimit:10.43299961;stroke-opacity:1;stroke-dasharray:none;stroke-dashoffset:0" />
    <path
       id="path3177"
       d="m 914.29807,423.40237 5.62323,-5.45315 c 8.24882,-7.30276 11.4378,-10.1622 11.4378,-15.45591 0,-6.04842 -4.76221,-10.28976 -11.2252,-10.28976 -5.99527,0 -9.91772,4.88976 -9.91772,9.59882 0,2.96575 2.65748,2.96575 2.8063,2.96575 0.91418,0 2.76378,-0.6378 2.76378,-2.8063 0,-1.38189 -0.95669,-2.76378 -2.81693,-2.76378 -0.41456,0 -0.53149,0 -0.68031,0.0531 1.21181,-3.4441 4.07126,-5.4 7.14331,-5.4 4.81535,0 7.11141,4.30512 7.11141,8.64212 0,4.23071 -2.65748,8.4189 -5.55945,11.70355 l -10.17283,11.33149 c -0.59528,0.57402 -0.59528,0.68032 -0.59528,1.95591 h 19.65473 l 1.48819,-9.21614 h -1.32874 c -0.26575,1.59449 -0.62717,3.92244 -1.15866,4.71968 -0.38268,0.41457 -3.8693,0.41457 -5.03859,0.41457 z"
       inkscape:connector-curvature="0"
       style="font-style:normal;font-variant:normal;font-weight:normal;font-stretch:normal;letter-spacing:normal;word-spacing:normal;text-anchor:start;fill:#000000;stroke:#000000;stroke-width:0;stroke-linecap:butt;stroke-linejoin:miter;stroke-miterlimit:10.43299961;stroke-opacity:1;stroke-dasharray:none;stroke-dashoffset:0" />
    <path
       id="path3179"
       d="m 616.61534,418.85001 0.40394,-0.13819 0.39331,-0.15945 0.38267,-0.15945 0.38268,-0.18071 0.37205,-0.19134 0.35079,-0.20196 0.35078,-0.2126 0.35079,-0.23386 0.32953,-0.23386 0.3189,-0.24449 0.30826,-0.25512 0.29764,-0.26574 0.28701,-0.27638 0.27638,-0.28701 0.26575,-0.28701 0.25511,-0.30827 0.24449,-0.30826 0.22323,-0.3189 0.2126,-0.3189 0.20197,-0.34016 0.18071,-0.34015 0.17007,-0.34016 0.15945,-0.35079 0.13819,-0.36142 0.12756,-0.36141 0.1063,-0.36142 0.0957,-0.37205 0.0744,-0.38267 0.0638,-0.38268 0.0425,-0.38268 0.0319,-0.38268 0,-0.3933 c 0,-4.33701 -4.65591,-7.31339 -9.74764,-7.31339 -5.34685,0 -9.36496,3.18898 -9.36496,7.20709 0,1.75393 1.15866,2.76378 2.71063,2.76378 1.62638,0 2.68937,-1.16929 2.68937,-2.71063 0,-2.63622 -2.4874,-2.63622 -3.27402,-2.63622 1.62638,-2.5937 5.13426,-3.29528 7.04764,-3.29528 2.15788,0 5.0811,1.16929 5.0811,5.9315 0,0.64842 -0.11693,3.70984 -1.49881,6.04842 -1.57323,2.54055 -3.39095,2.68937 -4.69843,2.75315 -0.43583,0.0531 -1.70079,0.14882 -2.07283,0.14882 -0.4252,0.0531 -0.79725,0.1063 -0.79725,0.6378 0,0.57401 0.37205,0.57401 1.27559,0.57401 h 2.32795 c 4.34764,0 6.30355,3.60354 6.30355,8.81221 0,7.18582 -3.64607,8.72716 -5.99528,8.72716 -2.2748,0 -6.23976,-0.89291 -8.08937,-4.01811 1.84961,0.25512 3.48662,-0.91417 3.48662,-2.92323 0,-1.90275 -1.42441,-2.95512 -2.96575,-2.95512 -1.26496,0 -2.95512,0.73347 -2.95512,3.07205 0,4.81536 4.91102,8.30197 10.6937,8.30197 6.46299,0 11.27835,-4.81535 11.27835,-10.20472 0,-4.35827 -3.3378,-8.47205 -8.83347,-9.58819 z"
       inkscape:connector-curvature="0"
       style="font-style:normal;font-variant:normal;font-weight:normal;font-stretch:normal;letter-spacing:normal;word-spacing:normal;text-anchor:start;fill:#000000;stroke:#000000;stroke-width:0;stroke-linecap:butt;stroke-linejoin:miter;stroke-miterlimit:10.43299961;stroke-opacity:1;stroke-dasharray:none;stroke-dashoffset:0" />
    <path
       id="path3181"
       d="m 303.33896,413.03218 v 4.60276 c 0,1.91339 -0.0957,2.4874 -4.01811,2.4874 h -1.11614 v 1.64764 c 2.17914,-0.17008 4.93229,-0.17008 7.16457,-0.17008 2.22165,0 5.02795,0 7.18583,0.17008 v -1.64764 h -1.10552 c -3.92244,0 -4.01811,-0.57401 -4.01811,-2.4874 v -4.60276 h 5.2937 v -1.637 h -5.2937 v -24.10866 c 0,-1.063 0,-1.37126 -0.85039,-1.37126 -0.48898,0 -0.6378,0 -1.06299,0.64842 l -16.26378,24.8315 h 1.49882 l 12.91535,-19.7504 v 19.7504 h -12.91535 -1.49882 v 1.637 z"
       inkscape:connector-curvature="0"
       style="font-style:normal;font-variant:normal;font-weight:normal;font-stretch:normal;letter-spacing:normal;word-spacing:normal;text-anchor:start;fill:#000000;stroke:#000000;stroke-width:0;stroke-linecap:butt;stroke-linejoin:miter;stroke-miterlimit:10.43299961;stroke-opacity:1;stroke-dasharray:none;stroke-dashoffset:0" />
    <g
       id="g3252"
       transform="translate(1271.4286,174.28571)">
      <path
         style="font-style:normal;font-variant:normal;font-weight:normal;font-stretch:normal;letter-spacing:normal;word-spacing:normal;text-anchor:start;fill:#000000;stroke:#000000;stroke-width:0;stroke-linecap:butt;stroke-linejoin:miter;stroke-miterlimit:10.43299961;stroke-opacity:1;stroke-dasharray:none;stroke-dashoffset:0"
         inkscape:connector-curvature="0"
         d="m 301.66118,209.08482 -0.0319,-0.0638 -0.0319,-0.0638 -0.0319,-0.0531 -0.0319,-0.0532 -0.0213,-0.0531 -0.0319,-0.0531 -0.0319,-0.0532 -0.0213,-0.0425 -0.0319,-0.0425 -0.0319,-0.0425 -0.0319,-0.0425 -0.0213,-0.0319 -0.0319,-0.0425 -0.0319,-0.0319 -0.0319,-0.0319 -0.0319,-0.0319 -0.0425,-0.0213 -0.0319,-0.0319 -0.0425,-0.0213 -0.0425,-0.0213 -0.0425,-0.0213 -0.0425,-0.0106 -0.0532,-0.0213 -0.0532,-0.0106 -0.0531,-0.0106 -0.0638,-0.0106 -0.0532,-0.0106 -0.0744,-0.0106 -0.0638,0 -0.0744,-0.0106 -0.085,0 -0.0425,0 -0.0319,0 c -0.90354,0 -0.99921,0.26575 -1.37126,0.94606 l -0.32953,4.34764 14.25473,28.60512 h -28.55197 l 14.29724,-28.60512 0.32953,-4.34764 -17.90079,35.90788 c -0.26574,0.47834 -0.26574,0.58464 -0.26574,0.62716 0,0.43583 0.31889,0.43583 1.15866,0.43583 h 36.75826 c 0.8504,0 1.1693,0 1.1693,-0.43583 0,-0.0425 0,-0.14882 -0.26575,-0.62716 z"
         id="path3185" />
      <path
         style="font-style:normal;font-variant:normal;font-weight:normal;font-stretch:normal;letter-spacing:normal;word-spacing:normal;text-anchor:start;fill:#000000;stroke:#000000;stroke-width:0;stroke-linecap:butt;stroke-linejoin:miter;stroke-miterlimit:10.43299961;stroke-opacity:1;stroke-dasharray:none;stroke-dashoffset:0"
         inkscape:connector-curvature="0"
         d="m 333.30646,224.88089 h 4.98543 c 1.04173,0 1.57323,0 1.57323,-1.063 0,-0.58464 -0.5315,-0.58464 -1.47756,-0.58464 h -4.66654 c 1.91339,-7.52599 2.17914,-8.58898 2.17914,-8.89725 0,-0.90354 -0.6378,-1.43503 -1.53071,-1.43503 -0.17008,0 -1.63701,0.0531 -2.12599,1.91338 l -2.0622,8.4189 h -4.9748 c -1.063,0 -1.59449,0 -1.59449,0.99921 0,0.64843 0.42519,0.64843 1.48819,0.64843 h 4.6559 c -3.80551,15.0307 -4.01811,15.92362 -4.01811,16.89094 0,2.85945 2.00906,4.8685 4.86851,4.8685 5.38937,0 8.41889,-7.72795 8.41889,-8.15314 0,-0.5315 -0.41456,-0.5315 -0.63779,-0.5315 -0.47835,0 -0.5315,0.15945 -0.79725,0.74409 -2.2748,5.49567 -5.0811,6.77126 -6.87756,6.77126 -1.10551,0 -1.637,-0.69094 -1.637,-2.43425 0,-1.26496 0.0957,-1.64764 0.30826,-2.54055 z"
         id="path3187" />
    </g>
    <path
       id="path3187-2"
       d="m -321.28923,396.04385 h 4.98543 c 1.04173,0 1.57323,0 1.57323,-1.063 0,-0.58464 -0.5315,-0.58464 -1.47756,-0.58464 h -4.66654 c 1.91339,-7.52599 2.17914,-8.58898 2.17914,-8.89725 0,-0.90354 -0.6378,-1.43503 -1.53071,-1.43503 -0.17008,0 -1.63701,0.0531 -2.12599,1.91338 l -2.0622,8.4189 h -4.9748 c -1.063,0 -1.59449,0 -1.59449,0.99921 0,0.64843 0.42519,0.64843 1.48819,0.64843 h 4.6559 c -3.80551,15.0307 -4.01811,15.92362 -4.01811,16.89094 0,2.85945 2.00906,4.8685 4.86851,4.8685 5.38937,0 8.41889,-7.72795 8.41889,-8.15314 0,-0.5315 -0.41456,-0.5315 -0.63779,-0.5315 -0.47835,0 -0.5315,0.15945 -0.79725,0.74409 -2.2748,5.49567 -5.0811,6.77126 -6.87756,6.77126 -1.10551,0 -1.637,-0.69094 -1.637,-2.43425 0,-1.26496 0.0957,-1.64764 0.30826,-2.54055 z"
       inkscape:connector-curvature="0"
       style="font-style:normal;font-variant:normal;font-weight:normal;font-stretch:normal;letter-spacing:normal;word-spacing:normal;text-anchor:start;fill:#000000;stroke:#000000;stroke-width:0;stroke-linecap:butt;stroke-linejoin:miter;stroke-miterlimit:10.43299961;stroke-opacity:1;stroke-dasharray:none;stroke-dashoffset:0" />
    <path
       id="path3175-0"
       d="m 1244.9672,393.24619 0,-0.0531 0,-0.0638 0,-0.0531 0,-0.0532 0,-0.0531 0,-0.0532 0,-0.0425 0,-0.0531 0,-0.0425 0,-0.0425 -0.011,-0.0425 0,-0.0425 0,-0.0425 0,-0.0319 0,-0.0425 -0.011,-0.0319 -0.011,-0.0744 0,-0.0638 -0.021,-0.0531 -0.011,-0.0531 -0.021,-0.0532 -0.021,-0.0425 -0.021,-0.0425 -0.021,-0.0319 -0.032,-0.0319 -0.032,-0.0319 -0.043,-0.0319 -0.043,-0.0213 -0.043,-0.0213 -0.032,-0.0106 -0.021,-0.0106 -0.032,0 -0.021,-0.0106 -0.032,-0.0106 -0.032,0 -0.032,-0.0106 -0.032,0 -0.043,-0.0106 -0.032,0 -0.043,0 -0.032,-0.0106 -0.043,0 -0.043,0 -0.053,0 -0.043,0 -0.043,0 -0.053,-0.0106 -0.053,0 -0.053,0 -0.053,0 -0.053,0 c -3.2847,3.39095 -7.9406,3.39095 -9.6307,3.39095 v 1.64763 c 1.063,0 4.1775,0 6.92,-1.38189 v 27.43583 c 0,1.91339 -0.1488,2.54055 -4.911,2.54055 h -1.7008 v 1.64764 c 1.8603,-0.17008 6.463,-0.17008 8.5784,-0.17008 2.126,0 6.7181,0 8.5783,0.17008 v -1.64764 h -1.6901 c -4.7622,0 -4.9323,-0.57401 -4.9323,-2.54055 z"
       inkscape:connector-curvature="0"
       style="font-style:normal;font-variant:normal;font-weight:normal;font-stretch:normal;letter-spacing:normal;word-spacing:normal;text-anchor:start;fill:#000000;stroke:#000000;stroke-width:0;stroke-linecap:butt;stroke-linejoin:miter;stroke-miterlimit:10.43299961;stroke-opacity:1;stroke-dasharray:none;stroke-dashoffset:0" />
  </g>
</svg>
