<?xml version="1.0" encoding="UTF-8" standalone="no"?>
<!-- Created with Inkscape (http://www.inkscape.org/) -->

<svg
   xmlns:dc="http://purl.org/dc/elements/1.1/"
   xmlns:cc="http://creativecommons.org/ns#"
   xmlns:rdf="http://www.w3.org/1999/02/22-rdf-syntax-ns#"
   xmlns:svg="http://www.w3.org/2000/svg"
   xmlns="http://www.w3.org/2000/svg"
   xmlns:sodipodi="http://sodipodi.sourceforge.net/DTD/sodipodi-0.dtd"
   xmlns:inkscape="http://www.inkscape.org/namespaces/inkscape"
   id="svg2"
   version="1.1"
   inkscape:version="0.91 r13725"
   xml:space="preserve"
   width="1051.875"
   height="743.4375"
   viewBox="0 0 1051.875 743.4375"
   sodipodi:docname="HallSensor3D.svg"><metadata
     id="metadata8"><rdf:RDF><cc:Work
         rdf:about=""><dc:format>image/svg+xml</dc:format><dc:type
           rdf:resource="http://purl.org/dc/dcmitype/StillImage" /><dc:title></dc:title></cc:Work></rdf:RDF></metadata><defs
     id="defs6" /><sodipodi:namedview
     pagecolor="#ffffff"
     bordercolor="#666666"
     borderopacity="1"
     objecttolerance="10"
     gridtolerance="10"
     guidetolerance="10"
     inkscape:pageopacity="0"
     inkscape:pageshadow="2"
     inkscape:window-width="1600"
     inkscape:window-height="847"
     id="namedview4"
     showgrid="false"
     inkscape:zoom="0.89786808"
     inkscape:cx="494.90251"
     inkscape:cy="371.42787"
     inkscape:window-x="-8"
     inkscape:window-y="-8"
     inkscape:window-maximized="1"
     inkscape:current-layer="g10" /><g
     id="g10"
     inkscape:groupmode="layer"
     inkscape:label="HallSensor3D"
     transform="matrix(1.25,0,0,-1.25,0,743.4375)"><ellipse
       style="opacity:1;fill:none;fill-opacity:1;fill-rule:nonzero;stroke:#000000;stroke-width:1.64249718;stroke-linecap:butt;stroke-miterlimit:4;stroke-dasharray:none;stroke-dashoffset:0;stroke-opacity:1"
       id="path4230"
       transform="matrix(0.99305374,-0.11766163,-0.42496925,-0.90520778,0,0)"
       ry="287.19363"
       rx="171.29692"
       cy="-329.22711"
       cx="160.39673" /><g
       transform="matrix(0.643725,1,1,-0.643725,0,594.75)"
       id="g14" /><g
       transform="matrix(0.643725,1,1,-0.643725,0,594.75)"
       id="g22"><path
         inkscape:connector-curvature="0"
         id="path24"
         style="fill:#ffffff;fill-opacity:1;fill-rule:nonzero;stroke:#000000;stroke-width:0.80791003;stroke-linecap:butt;stroke-linejoin:miter;stroke-miterlimit:1;stroke-dasharray:none;stroke-opacity:1"
         d="m -49.342,352.778 c 10e-4,12.793 -18.886,23.169 -42.184,23.167 -23.297,0 -42.185,-10.372 -42.184,-23.169 0.002,-12.795 18.888,-23.167 42.184,-23.167 23.297,-10e-4 42.185,10.372 42.184,23.169 z" /></g><path
       inkscape:connector-curvature="0"
       id="path26"
       style="fill:#ff0000;fill-opacity:0.580508;fill-rule:nonzero;stroke:none"
       d="m 270.43,446.895 c 6.433,-4.383 5.535,-17.989 -2.004,-30.387 -7.535,-12.399 -18.864,-18.895 -25.293,-14.512 -6.43,4.383 -5.535,17.988 2.004,30.387 7.539,12.398 18.863,18.894 25.293,14.512 z" /><g
       transform="matrix(0.607983,1,0.944476,-0.643725,0,594.75)"
       id="g28"><path
         inkscape:connector-curvature="0"
         id="path30"
         style="fill:none;stroke:#000000;stroke-width:0.76086497;stroke-linecap:butt;stroke-linejoin:miter;stroke-miterlimit:1;stroke-dasharray:none;stroke-opacity:1"
         d="m 25.779,269.733 c 0.001,6.811 -10.051,12.331 -22.45,12.33 -12.397,0.002 -22.449,-5.521 -22.448,-12.329 0,-6.808 10.05,-12.331 22.449,-12.33 12.399,10e-4 22.449,5.521 22.449,12.329 z" /></g><path
       inkscape:connector-curvature="0"
       id="path32"
       style="fill:#ff0000;fill-opacity:0.58039198;fill-rule:nonzero;stroke:none"
       d="m 151.629,123.031 c 6.433,-4.383 5.535,-17.988 -2.004,-30.386 -7.535,-12.399 -18.863,-18.895 -25.293,-14.512 -6.43,4.383 -5.535,17.988 2.004,30.387 7.539,12.398 18.863,18.894 25.293,14.511 z" /><g
       transform="matrix(0.607983,1,0.944476,-0.643725,0,594.75)"
       id="g34"><path
         inkscape:connector-curvature="0"
         id="path36"
         style="fill:none;stroke:#000000;stroke-width:0.76086497;stroke-linecap:butt;stroke-linejoin:miter;stroke-miterlimit:1;stroke-dasharray:none;stroke-opacity:1"
         d="m -260.448,328.2 c 10e-4,6.811 -10.051,12.33 -22.45,12.33 -12.397,0.002 -22.449,-5.522 -22.448,-12.33 0,-6.807 10.05,-12.33 22.449,-12.329 12.399,0 22.449,5.521 22.449,12.329 z" /></g><path
       inkscape:connector-curvature="0"
       id="path38"
       style="fill:#ff0000;fill-opacity:0.58039198;fill-rule:nonzero;stroke:none"
       d="m 357.449,147.246 c 6.434,-4.387 5.535,-17.988 -2.004,-30.387 -7.535,-12.398 -18.863,-18.898 -25.293,-14.511 -6.429,4.382 -5.535,17.984 2.004,30.382 7.539,12.399 18.864,18.899 25.293,14.516 z" /><g
       transform="matrix(0.607983,1,0.944476,-0.643725,0,594.75)"
       id="g40"><path
         inkscape:connector-curvature="0"
         id="path42"
         style="fill:none;stroke:#000000;stroke-width:0.76086497;stroke-linecap:butt;stroke-linejoin:miter;stroke-miterlimit:1;stroke-dasharray:none;stroke-opacity:1"
         d="m -144.146,471.254 c -0.001,6.812 -10.051,12.33 -22.45,12.329 -12.397,0.002 -22.452,-5.519 -22.448,-12.329 0,-6.808 10.048,-12.329 22.447,-12.328 12.399,0.001 22.451,5.52 22.451,12.328 z" /></g><path
       inkscape:connector-curvature="0"
       id="path44"
       style="fill:#ff0000;fill-opacity:0.58039198;fill-rule:nonzero;stroke:none"
       d="m 490.629,422.68 c 6.43,-4.383 5.535,-17.989 -2.004,-30.387 -7.539,-12.398 -18.863,-18.895 -25.293,-14.512 -6.434,4.383 -5.535,17.989 2,30.387 7.539,12.398 18.863,18.894 25.297,14.512 z" /><g
       transform="matrix(0.607983,1,0.944476,-0.643725,0,594.75)"
       id="g46"><path
         inkscape:connector-curvature="0"
         id="path48"
         style="fill:none;stroke:#000000;stroke-width:0.76086497;stroke-linecap:butt;stroke-linejoin:miter;stroke-miterlimit:1;stroke-dasharray:none;stroke-opacity:1"
         d="m 114.769,445.593 c -0.001,6.807 -10.051,12.33 -22.45,12.329 -12.399,0 -22.449,-5.521 -22.448,-12.329 -0.002,-6.811 10.05,-12.331 22.447,-12.333 12.399,0.001 22.449,5.522 22.451,12.333 z" /></g><g
       transform="matrix(1,0.219176,0.219176,-1,0,594.75)"
       id="g50"><path
         inkscape:connector-curvature="0"
         id="path52"
         style="fill:#00b050;fill-opacity:1;fill-rule:nonzero;stroke:#000000;stroke-width:0.93855101;stroke-linecap:butt;stroke-linejoin:miter;stroke-miterlimit:1;stroke-dasharray:none;stroke-opacity:1"
         d="m 452.207,292.074 c -6.896,0.094 -15.773,5.398 -22.143,13.842 -7.701,10.203 -8.988,21.35 -3.256,25.782 l -0.119,0.115 115.737,94.445 31.41,-38.69 -115.763,-94.439 -0.295,0.35 c -0.11,-0.068 -0.208,-0.14 -0.322,-0.204 -1.52,-0.837 -3.317,-1.227 -5.249,-1.201 z" /></g><g
       transform="matrix(0.407333,0.888469,1,-0.295285,0,594.75)"
       id="g54"><path
         inkscape:connector-curvature="0"
         id="path56"
         style="fill:#00b050;fill-opacity:1;fill-rule:nonzero;stroke:#000000;stroke-width:0.95665401;stroke-linecap:butt;stroke-linejoin:miter;stroke-miterlimit:1;stroke-dasharray:none;stroke-opacity:1"
         d="m -66.879,685.297 c -10e-4,7.852 -11.59,14.217 -25.892,14.218 -14.298,0 -25.888,-6.365 -25.891,-14.219 0.002,-7.852 11.594,-14.219 25.892,-14.219 14.298,0 25.892,6.364 25.891,14.22 z" /></g><g
       transform="matrix(1,0.808069,0.808069,-1,0,594.75)"
       id="g58"><path
         inkscape:connector-curvature="0"
         id="path60"
         style="fill:#00b050;fill-opacity:1;fill-rule:nonzero;stroke:#000000;stroke-width:0.433568;stroke-linecap:butt;stroke-linejoin:miter;stroke-miterlimit:1;stroke-dasharray:none;stroke-opacity:1"
         d="m 30.586,538.649 c -3.189,0.045 -7.288,2.494 -10.231,6.397 -3.558,4.711 -4.152,9.86 -1.506,11.908 l -0.052,0.055 53.464,43.629 14.511,-17.872 -53.479,-43.629 -0.134,0.162 c -0.051,-0.03 -0.096,-0.066 -0.151,-0.095 -0.704,-0.385 -1.533,-0.567 -2.422,-0.555 z" /></g><g
       transform="matrix(-0.0323747,0.951666,1,0.178617,0,594.75)"
       id="g62"><path
         inkscape:connector-curvature="0"
         id="path64"
         style="fill:#00b050;fill-opacity:1;fill-rule:nonzero;stroke:#000000;stroke-width:0.569682;stroke-linecap:butt;stroke-linejoin:miter;stroke-miterlimit:1;stroke-dasharray:none;stroke-opacity:1"
         d="m -639.583,536.594 c 0,4.68 -6.905,8.468 -15.418,8.47 -8.517,0.002 -15.419,-3.792 -15.42,-8.468 -10e-4,-4.676 6.905,-8.468 15.418,-8.469 8.517,0.002 15.419,3.792 15.42,8.467 z" /></g><path
       inkscape:connector-curvature="0"
       id="path66"
       style="fill:#ff0000;fill-opacity:0.58039198;fill-rule:nonzero;stroke:none"
       d="m 558.969,122.809 c 0,-10.442 -8.461,-18.903 -18.899,-18.903 -10.441,0 -18.902,8.461 -18.902,18.903 0,10.437 8.461,18.898 18.902,18.898 10.438,0 18.899,-8.461 18.899,-18.898 z" /><path
       inkscape:connector-curvature="0"
       id="path68"
       style="fill:none;stroke:#000000;stroke-width:0.80000001;stroke-linecap:butt;stroke-linejoin:miter;stroke-miterlimit:1;stroke-dasharray:none;stroke-opacity:1"
       d="m 558.969,122.809 c 0,-10.442 -8.461,-18.903 -18.899,-18.903 -10.441,0 -18.902,8.461 -18.902,18.903 0,10.437 8.461,18.898 18.902,18.898 10.438,0 18.899,-8.461 18.899,-18.898 z" /><path
       inkscape:connector-curvature="0"
       id="path70"
       style="fill:#000000;fill-opacity:1;fill-rule:nonzero;stroke:none"
       d="m 642.223,120.539 0,0.145 0.004,0.035 0,0.039 0.007,0.035 0,0.051 0.004,0.039 0.008,0.051 0.008,0.046 0.012,0.059 0.007,0.055 0.032,0.109 0.019,0.059 0.012,0.058 0.023,0.067 0.028,0.062 0.019,0.059 0.028,0.062 0.027,0.071 0.035,0.062 0.035,0.07 0.035,0.063 0.043,0.07 0.039,0.063 0.051,0.07 0.047,0.063 0.055,0.066 c 1.359,-0.965 2.765,-1.074 3.433,-1.074 l 0,0.793 c -3.023,0 -3.023,3.461 -3.023,4.261 0,0.938 0.051,2.043 0.555,2.899 0.285,0.422 1.078,1.387 2.468,1.387 3.004,0 3.004,-3.457 3.004,-4.25 0,-0.93 -0.035,-2.043 -0.554,-2.911 -0.27,-0.41 -1.079,-1.386 -2.45,-1.386 l 0,-0.793 c 3.207,0 5.594,2.386 5.594,5.054 0,1.286 -0.555,2.563 -1.41,3.356 1.234,1.172 2.488,1.348 3.113,1.348 0.071,0 0.242,0 0.348,-0.036 -0.387,-0.14 -0.551,-0.523 -0.551,-0.933 0,-0.586 0.445,-0.996 0.996,-0.996 0.348,0 0.996,0.234 0.996,1.023 0,0.594 -0.406,1.695 -1.754,1.695 -0.695,0 -2.218,-0.207 -3.668,-1.617 -1.453,1.141 -2.91,1.235 -3.664,1.235 -3.222,0 -5.609,-2.379 -5.609,-5.039 0,-1.52 0.754,-2.844 1.621,-3.571 -0.445,-0.511 -1.07,-1.656 -1.07,-2.867 0,-1.07 0.453,-2.383 1.527,-3.078 -2.078,-0.59 -3.187,-2.074 -3.187,-3.461 0,-2.488 3.425,-4.395 7.648,-4.395 l 0.035,0.79 c -3.492,0 -5.883,1.769 -5.883,3.605 0,1.594 1.313,2.871 2.844,2.969 l 2.035,0 c 2.973,0 6.848,0 6.848,-2.969 0,-1.871 -2.453,-3.605 -5.844,-3.605 l -0.035,-0.79 c 4.082,0 7.68,1.77 7.68,4.461 0,1.215 -0.489,2.977 -2.242,3.946 -1.836,0.965 -3.84,0.965 -5.961,0.965 -0.868,0 -2.356,0 -2.59,0.035 -1.11,0.14 -1.828,1.215 -1.828,2.32 z" /><path
       inkscape:connector-curvature="0"
       id="path72"
       style="fill:#000000;fill-opacity:1;fill-rule:nonzero;stroke:none"
       d="m 597.805,138.816 -0.012,0.036 -0.016,0.031 -0.011,0.027 -0.02,0.035 -0.023,0.063 -0.02,0.058 -0.027,0.043 -0.024,0.051 -0.027,0.051 -0.027,0.043 -0.024,0.035 -0.023,0.031 -0.024,0.035 -0.086,0.086 -0.023,0.02 -0.031,0.012 -0.035,0.023 -0.032,0.012 -0.035,0.015 -0.035,0.008 -0.039,0.012 -0.043,0.004 -0.043,0.012 -0.043,0 -0.047,0.003 -0.055,0 -0.058,0.008 -6.172,0 0,-1.074 0.84,0 c 2.656,0 2.722,-0.375 2.722,-1.629 l 0,-17.297 c 0,-0.929 0,-2.554 -3.562,-2.554 l 0,-1.075 c 1.219,0.032 2.91,0.11 4.047,0.11 1.141,0 2.851,-0.078 4.051,-0.11 l 0,1.075 c -3.563,0 -3.563,1.625 -3.563,2.554 l 0,18.649 0.031,0 8.336,-21.524 c 0.172,-0.445 0.344,-0.754 0.696,-0.754 0.382,0 0.484,0.286 0.617,0.657 l 8.519,21.898 0.028,0 0,-19.855 c 0,-1.25 -0.059,-1.625 -2.731,-1.625 l -0.824,0 0,-1.075 c 1.277,0.11 3.629,0.11 4.981,0.11 1.347,0 3.664,0 4.949,-0.11 l 0,1.075 -0.84,0 c -2.652,0 -2.727,0.375 -2.727,1.625 l 0,18.226 c 0,1.254 0.075,1.629 2.727,1.629 l 0.84,0 0,1.074 -5.856,0 c -0.89,0 -0.89,-0.035 -1.14,-0.66 l -7.579,-19.476 -7.507,19.382 z" /><path
       inkscape:connector-curvature="0"
       id="path74"
       style="fill:#000000;fill-opacity:1;fill-rule:nonzero;stroke:none"
       d="m 632.742,118.566 0.016,-0.132 0.015,-0.125 0.032,-0.133 0.027,-0.121 0.035,-0.133 0.039,-0.129 0.043,-0.121 0.051,-0.129 0.047,-0.121 0.055,-0.121 0.062,-0.125 0.063,-0.11 0.07,-0.113 0.074,-0.109 0.09,-0.114 0.07,-0.097 0.09,-0.094 0.094,-0.098 0.094,-0.093 0.211,-0.164 0.105,-0.067 0.117,-0.074 0.11,-0.059 0.125,-0.054 0.125,-0.051 0.132,-0.043 0.133,-0.035 0.137,-0.028 0.148,-0.019 0.145,-0.016 0.144,-0.004 c 0.715,0 2.832,0.493 2.832,3.289 l 0,1.934 -0.867,0 0,-1.934 c 0,-2.007 -0.851,-2.214 -1.25,-2.214 -1.136,0 -1.273,1.55 -1.273,1.722 l 0,6.926 c 0,1.453 0,2.797 -1.238,4.078 -1.356,1.344 -3.086,1.899 -4.747,1.899 -2.839,0 -5.222,-1.618 -5.222,-3.903 0,-1.035 0.691,-1.633 1.594,-1.633 0.968,0 1.593,0.696 1.593,1.598 0,0.41 -0.179,1.547 -1.765,1.598 0.929,1.199 2.625,1.582 3.73,1.582 1.703,0 3.664,-1.348 3.664,-4.43 l 0,-5.461 c 0,-3.297 -2.48,-4.461 -4.047,-4.461 -1.687,0 -3.113,1.215 -3.113,2.938 0,1.894 1.449,4.777 7.16,4.976 l 0,0.731 c -1.758,-0.098 -4.176,-0.211 -6.351,-1.25 -2.598,-1.176 -3.469,-2.973 -3.469,-4.492 0,-2.801 3.355,-3.668 5.535,-3.668 2.293,0 3.875,1.382 4.535,3.007 z" /><path
       inkscape:connector-curvature="0"
       id="path76"
       style="fill:#000000;fill-opacity:1;fill-rule:nonzero;stroke:none"
       d="m 659.691,127.84 0,-9.274 c 0,-1.55 -0.382,-1.55 -2.703,-1.55 l 0,-1.075 c 1.215,0.036 2.973,0.11 3.907,0.11 0.898,0 2.699,-0.074 3.871,-0.11 l 0,1.075 c -2.313,0 -2.692,0 -2.692,1.55 l 0,6.368 c 0,3.605 2.449,5.531 4.664,5.531 2.18,0 2.563,-1.867 2.563,-3.836 l 0,-8.063 c 0,-1.55 -0.383,-1.55 -2.703,-1.55 l 0,-1.075 c 1.218,0.036 2.988,0.11 3.918,0.11 0.906,0 2.687,-0.074 3.875,-0.11 l 0,1.075 c -1.797,0 -2.664,0 -2.7,1.043 l 0,6.605 c 0,2.969 0,4.047 -1.078,5.285 -0.476,0.594 -1.625,1.274 -3.621,1.274 -2.531,0 -4.156,-1.485 -5.121,-3.614 l 0,3.614 -4.883,-0.375 0,-1.075 c 2.418,0 2.703,-0.238 2.703,-1.933 z" /><path
       inkscape:connector-curvature="0"
       id="path78"
       style="fill:#000000;fill-opacity:1;fill-rule:nonzero;stroke:none"
       d="m 678.969,123.93 0.035,0.734 c 0.207,5.152 3.109,6.012 4.297,6.012 3.554,0 3.906,-4.668 3.906,-6.012 l -8.203,0 -0.035,-0.734 9.656,0 c 0.758,0 0.855,0 0.855,0.734 0,3.414 -1.867,6.77 -6.179,6.77 -4.02,0 -7.207,-3.555 -7.207,-7.891 0,-4.633 3.636,-7.984 7.617,-7.984 4.223,0 5.769,3.839 5.769,4.492 0,0.347 -0.269,0.422 -0.441,0.422 -0.316,0 -0.383,-0.207 -0.453,-0.481 -1.207,-3.566 -4.32,-3.566 -4.668,-3.566 -1.734,0 -3.117,1.035 -3.906,2.312 -1.043,1.66 -1.043,3.953 -1.043,5.192 z" /><path
       inkscape:connector-curvature="0"
       id="path80"
       style="fill:#000000;fill-opacity:1;fill-rule:nonzero;stroke:none"
       d="m 696.445,129.773 4.953,0 0,1.075 -4.953,0 0,6.371 -0.867,0 c -0.027,-2.832 -1.07,-6.543 -4.457,-6.676 l 0,-0.77 2.945,0 0,-9.55 c 0,-4.246 3.207,-4.664 4.457,-4.664 2.45,0 3.43,2.453 3.43,4.664 l 0,1.972 -0.871,0 0,-1.894 c 0,-2.563 -1.039,-3.875 -2.324,-3.875 -2.313,0 -2.313,3.144 -2.313,3.738 l 0,9.609 z" /><path
       inkscape:connector-curvature="0"
       id="path82"
       style="fill:#000000;fill-opacity:1;fill-rule:nonzero;stroke:none"
       d="m 711.062,122.656 0.086,-0.015 0.082,-0.012 0.106,-0.024 0.102,-0.027 0.117,-0.027 0.129,-0.028 0.128,-0.035 0.278,-0.082 0.144,-0.051 0.157,-0.054 0.148,-0.055 0.309,-0.141 0.152,-0.078 0.152,-0.082 0.145,-0.093 0.156,-0.098 0.137,-0.106 0.14,-0.113 0.133,-0.121 0.121,-0.133 0.121,-0.136 0.11,-0.149 0.097,-0.152 0.051,-0.086 0.039,-0.082 0.043,-0.09 0.032,-0.082 0.039,-0.098 0.027,-0.09 0.035,-0.097 0.02,-0.098 0.019,-0.105 0.024,-0.102 0.011,-0.109 0.008,-0.106 0.004,-0.121 0,-0.113 c 0,-1.754 -1.211,-3.141 -3.902,-3.141 -2.907,0 -4.157,1.969 -4.817,4.906 -0.097,0.446 -0.133,0.59 -0.476,0.59 -0.453,0 -0.453,-0.238 -0.453,-0.863 l 0,-4.574 c 0,-0.582 0,-0.824 0.375,-0.824 0.175,0 0.207,0.035 0.867,0.691 0.066,0.074 0.066,0.133 0.695,0.797 1.52,-1.453 3.082,-1.488 3.809,-1.488 3.976,0 5.562,2.324 5.562,4.804 0,1.832 -1.039,2.875 -1.449,3.293 -1.141,1.102 -2.492,1.387 -3.949,1.66 -1.934,0.379 -4.254,0.832 -4.254,2.84 0,1.207 0.898,2.625 3.875,2.625 3.808,0 3.98,-3.113 4.047,-4.187 0.043,-0.313 0.344,-0.313 0.418,-0.313 0.445,0 0.445,0.172 0.445,0.832 l 0,3.496 c 0,0.586 0,0.825 -0.371,0.825 -0.176,0 -0.246,0 -0.699,-0.411 -0.098,-0.144 -0.442,-0.445 -0.59,-0.558 -1.313,0.969 -2.735,0.969 -3.25,0.969 -4.223,0 -5.531,-2.317 -5.531,-4.254 0,-1.203 0.55,-2.176 1.484,-2.942 1.102,-0.898 2.082,-1.105 4.562,-1.582 z" /><path
       inkscape:connector-curvature="0"
       id="path84"
       style="fill:#000000;fill-opacity:1;fill-rule:nonzero;stroke:none"
       d="m 612.293,78.961 0,0.34 0.008,0.105 0.011,0.098 0.004,0.09 0.016,0.094 0.012,0.078 0.023,0.089 0.024,0.071 0.035,0.074 0.035,0.066 0.043,0.063 0.043,0.059 0.058,0.058 0.067,0.047 0.07,0.043 0.078,0.043 0.043,0.023 0.051,0.024 0.043,0.012 0.051,0.023 0.058,0.016 0.059,0.011 0.059,0.016 0.054,0.016 0.067,0.015 0.062,0.012 0.074,0.012 0.145,0.019 0.078,0.012 0.09,0.008 0.074,0.007 0.098,0.004 0.082,0.008 0.097,0.008 0.102,0.008 0.098,0 0.109,0.008 0.106,0 0.109,0.007 1.355,0 0,1.114 c -1.257,-0.114 -3.922,-0.114 -5.281,-0.114 -1.359,0 -4.051,0 -5.308,0.114 l 0,-1.114 0.863,0 c 2.758,0 2.836,-0.39 2.836,-1.687 l 0,-8.402 -10.742,0 0,8.402 c 0,1.297 0.078,1.687 2.839,1.687 l 0.864,0 0,1.114 c -1.262,-0.114 -3.91,-0.114 -5.274,-0.114 -1.371,0 -4.058,0 -5.32,0.114 l 0,-1.114 0.867,0 c 2.762,0 2.84,-0.39 2.84,-1.687 l 0,-18.914 c 0,-1.301 -0.078,-1.688 -2.84,-1.688 l -0.867,0 0,-1.117 c 1.262,0.117 3.922,0.117 5.285,0.117 1.359,0 4.047,0 5.309,-0.117 l 0,1.117 -0.864,0 c -2.761,0 -2.839,0.387 -2.839,1.688 l 0,9.402 10.742,0 0,-9.402 c 0,-1.301 -0.078,-1.688 -2.836,-1.688 l -0.863,0 0,-1.117 c 1.257,0.117 3.917,0.117 5.281,0.117 1.359,0 4.051,0 5.308,-0.117 l 0,1.117 -0.863,0 c -2.762,0 -2.828,0.387 -2.828,1.688 l 0,18.914 z" /><path
       inkscape:connector-curvature="0"
       id="path86"
       style="fill:#000000;fill-opacity:1;fill-rule:nonzero;stroke:none"
       d="m 629.129,59.969 0.016,-0.141 0.019,-0.129 0.027,-0.137 0.032,-0.128 0.035,-0.137 0.035,-0.129 0.051,-0.133 0.043,-0.129 0.058,-0.129 0.059,-0.121 0.062,-0.133 0.067,-0.113 0.07,-0.117 0.082,-0.113 0.078,-0.118 0.086,-0.101 0.094,-0.098 0.094,-0.101 0.101,-0.094 0.102,-0.086 0.105,-0.09 0.117,-0.07 0.114,-0.07 0.125,-0.067 0.129,-0.055 0.129,-0.05 0.136,-0.047 0.137,-0.035 0.145,-0.028 0.144,-0.019 0.152,-0.02 0.157,-0.004 c 0.742,0 2.941,0.512 2.941,3.414 l 0,2.004 -0.898,0 0,-2.004 c 0,-2.082 -0.899,-2.296 -1.301,-2.296 -1.18,0 -1.324,1.605 -1.324,1.785 l 0,7.183 c 0,1.516 0,2.907 -1.282,4.239 -1.414,1.39 -3.199,1.968 -4.921,1.968 -2.957,0 -5.426,-1.679 -5.426,-4.05 0,-1.075 0.719,-1.696 1.648,-1.696 1,0 1.66,0.723 1.66,1.66 0,0.426 -0.183,1.606 -1.839,1.657 0.972,1.246 2.73,1.644 3.874,1.644 1.766,0 3.809,-1.398 3.809,-4.597 l 0,-5.672 c 0,-3.414 -2.582,-4.625 -4.203,-4.625 -1.758,0 -3.227,1.261 -3.227,3.047 0,1.964 1.504,4.957 7.43,5.164 l 0,0.761 c -1.824,-0.101 -4.34,-0.218 -6.605,-1.301 -2.688,-1.218 -3.586,-3.082 -3.586,-4.664 0,-2.898 3.48,-3.8 5.742,-3.8 2.379,0 4.019,1.433 4.707,3.121 z" /><path
       inkscape:connector-curvature="0"
       id="path88"
       style="fill:#000000;fill-opacity:1;fill-rule:nonzero;stroke:none"
       d="m 641.5,82.16 -5.168,-0.398 0,-1.114 c 2.516,0 2.805,-0.246 2.805,-2.011 l 0,-18.668 c 0,-1.61 -0.391,-1.61 -2.805,-1.61 l 0,-1.117 c 1.184,0.039 3.094,0.117 3.996,0.117 0.899,0 2.649,-0.078 3.984,-0.117 l 0,1.117 c -2.417,0 -2.812,0 -2.812,1.61 l 0,22.191 z" /><path
       inkscape:connector-curvature="0"
       id="path90"
       style="fill:#000000;fill-opacity:1;fill-rule:nonzero;stroke:none"
       d="m 651.445,82.16 -5.168,-0.398 0,-1.114 c 2.516,0 2.805,-0.246 2.805,-2.011 l 0,-18.668 c 0,-1.61 -0.398,-1.61 -2.805,-1.61 l 0,-1.117 c 1.184,0.039 3.086,0.117 3.985,0.117 0.902,0 2.66,-0.078 3.984,-0.117 l 0,1.117 c -2.406,0 -2.801,0 -2.801,1.61 l 0,22.191 z" /><path
       inkscape:connector-curvature="0"
       id="path92"
       style="fill:#000000;fill-opacity:1;fill-rule:nonzero;stroke:none"
       d="m 674.523,64.211 0.082,-0.016 0.086,-0.015 0.106,-0.02 0.109,-0.031 0.121,-0.024 0.133,-0.031 0.137,-0.035 0.144,-0.043 0.145,-0.047 0.148,-0.051 0.161,-0.054 0.16,-0.059 0.156,-0.07 0.16,-0.074 0.156,-0.079 0.161,-0.085 0.16,-0.102 0.148,-0.102 0.145,-0.109 0.144,-0.113 0.137,-0.129 0.129,-0.137 0.125,-0.144 0.113,-0.153 0.102,-0.156 0.05,-0.09 0.043,-0.086 0.043,-0.094 0.035,-0.085 0.04,-0.102 0.027,-0.094 0.035,-0.101 0.02,-0.098 0.046,-0.219 0.012,-0.113 0.008,-0.109 0.008,-0.121 0,-0.118 c 0,-1.82 -1.262,-3.261 -4.047,-3.261 -3.023,0 -4.32,2.043 -5.004,5.093 -0.098,0.461 -0.137,0.614 -0.496,0.614 -0.469,0 -0.469,-0.254 -0.469,-0.903 l 0,-4.742 c 0,-0.605 0,-0.855 0.387,-0.855 0.183,0 0.219,0.035 0.902,0.718 0.071,0.075 0.071,0.137 0.723,0.825 1.574,-1.508 3.199,-1.543 3.957,-1.543 4.121,0 5.769,2.414 5.769,4.984 0,1.902 -1.082,2.984 -1.507,3.418 -1.18,1.145 -2.586,1.441 -4.098,1.723 -2.004,0.394 -4.41,0.863 -4.41,2.945 0,1.254 0.937,2.723 4.019,2.723 3.95,0 4.129,-3.227 4.196,-4.344 0.05,-0.324 0.359,-0.324 0.437,-0.324 0.461,0 0.461,0.179 0.461,0.863 l 0,3.625 c 0,0.613 0,0.859 -0.387,0.859 -0.179,0 -0.253,0 -0.722,-0.425 -0.098,-0.153 -0.461,-0.461 -0.61,-0.579 -1.363,1.004 -2.836,1.004 -3.375,1.004 -4.382,0 -5.742,-2.398 -5.742,-4.41 0,-1.254 0.57,-2.265 1.543,-3.058 1.145,-0.926 2.16,-1.145 4.738,-1.641 z" /><path
       inkscape:connector-curvature="0"
       id="path94"
       style="fill:#000000;fill-opacity:1;fill-rule:nonzero;stroke:none"
       d="m 685.227,65.539 0.027,0.754 c 0.219,5.348 3.234,6.242 4.461,6.242 3.695,0 4.058,-4.844 4.058,-6.242 l -8.519,0 -0.027,-0.754 10.015,0 c 0.793,0 0.895,0 0.895,0.754 0,3.547 -1.938,7.027 -6.422,7.027 -4.164,0 -7.473,-3.691 -7.473,-8.187 0,-4.805 3.77,-8.285 7.899,-8.285 4.382,0 5.996,3.984 5.996,4.66 0,0.363 -0.282,0.441 -0.461,0.441 -0.332,0 -0.399,-0.219 -0.477,-0.508 -1.246,-3.691 -4.484,-3.691 -4.844,-3.691 -1.8,0 -3.226,1.07 -4.05,2.398 -1.078,1.723 -1.078,4.098 -1.078,5.391 z" /><path
       inkscape:connector-curvature="0"
       id="path96"
       style="fill:#000000;fill-opacity:1;fill-rule:nonzero;stroke:none"
       d="m 701.102,69.594 0,-9.625 c 0,-1.61 -0.395,-1.61 -2.805,-1.61 l 0,-1.117 c 1.262,0.039 3.086,0.117 4.051,0.117 0.937,0 2.8,-0.078 4.023,-0.117 l 0,1.117 c -2.402,0 -2.793,0 -2.793,1.61 l 0,6.605 c 0,3.738 2.543,5.742 4.844,5.742 2.258,0 2.652,-1.937 2.652,-3.98 l 0,-8.367 c 0,-1.61 -0.394,-1.61 -2.804,-1.61 l 0,-1.117 c 1.261,0.039 3.101,0.117 4.066,0.117 0.934,0 2.797,-0.078 4.019,-0.117 l 0,1.117 c -1.867,0 -2.765,0 -2.804,1.079 l 0,6.855 c 0,3.086 0,4.199 -1.113,5.484 -0.5,0.621 -1.688,1.325 -3.762,1.325 -2.625,0 -4.313,-1.54 -5.313,-3.754 l 0,3.754 -5.066,-0.387 0,-1.117 c 2.508,0 2.805,-0.246 2.805,-2.004 z" /><path
       inkscape:connector-curvature="0"
       id="path98"
       style="fill:#000000;fill-opacity:1;fill-rule:nonzero;stroke:none"
       d="m 724.586,64.211 0.078,-0.016 0.094,-0.015 0.101,-0.02 0.114,-0.031 0.125,-0.024 0.129,-0.031 0.136,-0.035 0.137,-0.043 0.152,-0.047 0.149,-0.051 0.16,-0.054 0.152,-0.059 0.164,-0.07 0.161,-0.074 0.156,-0.079 0.16,-0.085 0.301,-0.204 0.152,-0.109 0.145,-0.113 0.136,-0.129 0.133,-0.137 0.121,-0.144 0.11,-0.153 0.105,-0.156 0.043,-0.09 0.043,-0.086 0.043,-0.094 0.047,-0.085 0.035,-0.102 0.027,-0.094 0.059,-0.199 0.019,-0.109 0.016,-0.11 0.016,-0.113 0.011,-0.109 0.008,-0.121 0,-0.118 c 0,-1.82 -1.262,-3.261 -4.051,-3.261 -3.015,0 -4.316,2.043 -5,5.093 -0.101,0.461 -0.136,0.614 -0.496,0.614 -0.476,0 -0.476,-0.254 -0.476,-0.903 l 0,-4.742 c 0,-0.605 0,-0.855 0.398,-0.855 0.18,0 0.215,0.035 0.899,0.718 0.066,0.075 0.066,0.137 0.718,0.825 1.582,-1.508 3.2,-1.543 3.957,-1.543 4.114,0 5.774,2.414 5.774,4.984 0,1.902 -1.082,2.984 -1.504,3.418 -1.184,1.145 -2.594,1.441 -4.105,1.723 -2,0.394 -4.415,0.863 -4.415,2.945 0,1.254 0.938,2.723 4.02,2.723 3.957,0 4.141,-3.227 4.203,-4.344 0.043,-0.324 0.359,-0.324 0.438,-0.324 0.464,0 0.464,0.179 0.464,0.863 l 0,3.625 c 0,0.613 0,0.859 -0.398,0.859 -0.18,0 -0.246,0 -0.723,-0.425 -0.101,-0.153 -0.461,-0.461 -0.605,-0.579 -1.36,1.004 -2.836,1.004 -3.379,1.004 -4.379,0 -5.742,-2.398 -5.742,-4.41 0,-1.254 0.578,-2.265 1.543,-3.058 1.152,-0.926 2.164,-1.145 4.742,-1.641 z" /><path
       inkscape:connector-curvature="0"
       id="path100"
       style="fill:#000000;fill-opacity:1;fill-rule:nonzero;stroke:none"
       d="m 748.211,64.926 -0.004,0.422 -0.035,0.425 -0.051,0.418 -0.066,0.411 -0.094,0.406 -0.109,0.394 -0.122,0.391 -0.144,0.383 -0.156,0.363 -0.18,0.363 -0.199,0.356 -0.199,0.336 -0.223,0.332 -0.238,0.316 -0.254,0.309 -0.258,0.289 -0.281,0.281 -0.289,0.266 -0.301,0.254 -0.313,0.23 -0.324,0.223 -0.328,0.203 -0.34,0.187 -0.355,0.172 -0.36,0.153 -0.367,0.129 -0.375,0.113 -0.379,0.097 -0.39,0.079 -0.399,0.05 -0.394,0.035 -0.407,0.008 -0.035,-0.785 c 1.578,0 3.121,-0.793 4.051,-2.336 0.937,-1.543 0.937,-3.625 0.937,-4.988 0,-1.297 0,-3.227 -0.785,-4.805 -0.793,-1.621 -2.367,-2.656 -4.168,-2.656 -1.547,0 -3.121,0.754 -4.089,2.398 -0.903,1.582 -0.903,3.766 -0.903,5.063 0,1.402 0,3.336 0.86,4.922 0.98,1.644 2.656,2.402 4.097,2.402 l 0.035,0.785 c -4.48,0 -7.972,-3.906 -7.972,-8.394 0,-4.637 3.738,-8.078 7.937,-8.078 4.344,0 7.969,3.515 7.969,8.078 z" /><path
       inkscape:connector-curvature="0"
       id="path102"
       style="fill:#000000;fill-opacity:1;fill-rule:nonzero;stroke:none"
       d="m 755.273,69.168 0,3.934 -4.984,-0.387 0,-1.117 c 2.508,0 2.805,-0.246 2.805,-2.004 l 0,-9.625 c 0,-1.61 -0.399,-1.61 -2.805,-1.61 l 0,-1.117 c 1.402,0.039 3.086,0.117 4.098,0.117 1.429,0 3.121,0 4.562,-0.117 l 0,1.117 -0.754,0 c -2.664,0 -2.742,0.387 -2.742,1.688 l 0,5.523 c 0,3.547 1.516,6.746 4.246,6.746 0.254,0 0.317,0 0.395,-0.035 -0.114,-0.027 -0.832,-0.461 -0.832,-1.39 0,-1.016 0.754,-1.543 1.554,-1.543 0.641,0 1.543,0.425 1.543,1.574 0,1.152 -1.117,2.18 -2.66,2.18 -2.625,0 -3.914,-2.391 -4.426,-3.934 z" /><path
       style="fill:none;fill-rule:evenodd;stroke:#000000;stroke-width:1.5999999;stroke-linecap:butt;stroke-linejoin:miter;stroke-miterlimit:4;stroke-dasharray:none;stroke-opacity:1"
       d="m 371.19885,571.27793 c 86.64051,-44.05375 86.64051,-44.05375 86.64051,-44.05375"
       id="path4278"
       inkscape:connector-curvature="0" /><path
       transform="matrix(0.99282166,-0.11960419,-0.41920797,-0.90789024,0,0)"
       id="ellipse4282"
       style="opacity:1;fill:none;fill-opacity:1;fill-rule:nonzero;stroke:#000000;stroke-width:1.64026058;stroke-linecap:butt;stroke-miterlimit:4;stroke-dasharray:none;stroke-dashoffset:0;stroke-opacity:1"
       sodipodi:type="arc"
       sodipodi:cx="102.99416"
       sodipodi:cy="-351.47003"
       sodipodi:rx="171.33696"
       sodipodi:ry="291.14059"
       sodipodi:start="1.8837643"
       sodipodi:end="4.7104608"
       d="M 50.242291,-74.471891 A 171.33696,291.14059 0 0 1 -66.274954,-396.56589 171.33696,291.14059 0 0 1 102.6638,-642.61009"
       sodipodi:open="true" /><path
       inkscape:connector-curvature="0"
       id="path4286"
       d="M 80.267347,61.811178 C 142.15462,30.481435 142.15462,30.481435 142.15462,30.481435"
       style="fill:none;fill-rule:evenodd;stroke:#000000;stroke-width:1.60000002;stroke-linecap:butt;stroke-linejoin:miter;stroke-miterlimit:4;stroke-dasharray:none;stroke-opacity:1" /></g></svg>