<?xml version="1.0" encoding="UTF-8" standalone="no"?>
<!-- Created with Inkscape (http://www.inkscape.org/) -->

<svg
   xmlns:dc="http://purl.org/dc/elements/1.1/"
   xmlns:cc="http://creativecommons.org/ns#"
   xmlns:rdf="http://www.w3.org/1999/02/22-rdf-syntax-ns#"
   xmlns:svg="http://www.w3.org/2000/svg"
   xmlns="http://www.w3.org/2000/svg"
   xmlns:sodipodi="http://sodipodi.sourceforge.net/DTD/sodipodi-0.dtd"
   xmlns:inkscape="http://www.inkscape.org/namespaces/inkscape"
   id="svg2"
   version="1.1"
   inkscape:version="0.91 r13725"
   xml:space="preserve"
   width="204.16916"
   height="128.10001"
   viewBox="0 0 204.16916 128.10001"
   sodipodi:docname="hallSensorDrawing.svg"><sodipodi:namedview
     pagecolor="#ffffff"
     bordercolor="#666666"
     borderopacity="1"
     objecttolerance="10"
     gridtolerance="10"
     guidetolerance="10"
     inkscape:pageopacity="0"
     inkscape:pageshadow="2"
     inkscape:window-width="1024"
     inkscape:window-height="1227"
     id="namedview4"
     showgrid="false"
     inkscape:zoom="1.9070707"
     inkscape:cx="116.23567"
     inkscape:cy="178.66573"
     inkscape:window-x="1592"
     inkscape:window-y="-8"
     inkscape:window-maximized="1"
     inkscape:current-layer="g10"
     fit-margin-top="0"
     fit-margin-left="0"
     fit-margin-right="0"
     fit-margin-bottom="0" /><metadata
     id="metadata8"><rdf:RDF><cc:Work
         rdf:about=""><dc:format>image/svg+xml</dc:format><dc:type
           rdf:resource="http://purl.org/dc/dcmitype/StillImage" /><dc:title></dc:title></cc:Work></rdf:RDF></metadata><defs
     id="defs6" /><g
     transform="matrix(1.25,0,0,-1.25,-223.291,611.325)"
     inkscape:label="earlier report"
     inkscape:groupmode="layer"
     id="g10"><path
       inkscape:connector-curvature="0"
       id="path1420"
       style="fill:#009ee1;fill-opacity:1;fill-rule:nonzero;stroke:none"
       d="m 290.64,431.04 c -3.72,0 -6.72,3.12 -6.72,6.84 0,3.72 3,6.72 6.72,6.72 3.72,0 6.72,-3 6.72,-6.72 0,-3.72 -3,-6.84 -6.72,-6.84 z m 44.28,6.84 c 0,0 0,0.12 0,0.24 l 6.72,1.44 c -0.12,1.08 -0.12,2.04 -0.24,3.12 l -6.84,0.6 c -0.12,0.96 -0.24,1.8 -0.36,2.64 l 6.24,2.76 c -0.12,0.96 -0.36,2.04 -0.72,3 l -6.84,-0.6 c -0.24,0.84 -0.6,1.68 -0.84,2.52 l 5.76,3.84 c -0.48,0.96 -0.84,1.8 -1.32,2.76 l -6.6,-1.8 c -0.48,0.84 -0.84,1.56 -1.32,2.28 l 4.92,4.8 c -0.48,0.84 -1.08,1.68 -1.68,2.52 l -6.24,-2.88 c -0.6,0.6 -1.2,1.32 -1.68,2.04 l 3.96,5.52 c -0.72,0.72 -1.44,1.44 -2.16,2.16 l -5.52,-3.96 c -0.72,0.6 -1.44,1.08 -2.04,1.68 l 2.88,6.24 c -0.72,0.6 -1.56,1.2 -2.4,1.68 l -4.8,-4.92 c -0.84,0.48 -1.56,0.96 -2.4,1.32 l 1.8,6.72 c -0.84,0.36 -1.8,0.84 -2.76,1.2 l -3.84,-5.64 c -0.84,0.24 -1.68,0.6 -2.52,0.84 l 0.6,6.84 c -0.96,0.36 -1.92,0.6 -2.88,0.72 l -2.76,-6.24 c -0.84,0.12 -1.8,0.24 -2.64,0.36 l -0.6,6.96 c -1.08,0 -2.04,0.12 -3.12,0.12 l -1.56,-6.72 c -0.12,0 -0.36,0 -0.48,0 -0.72,0 -1.44,0 -2.16,0 l -1.92,6.6 c -0.96,0 -2.04,-0.12 -3,-0.24 l -0.36,-6.96 c -0.84,-0.12 -1.68,-0.36 -2.64,-0.48 l -3,6.24 c -0.96,-0.36 -1.92,-0.6 -2.88,-0.96 l 0.84,-6.84 c -0.84,-0.24 -1.68,-0.6 -2.4,-0.96 l -4.08,5.64 c -0.96,-0.48 -1.92,-0.96 -2.76,-1.44 l 2.04,-6.6 c -0.72,-0.48 -1.44,-0.84 -2.16,-1.44 l -5.04,4.8 c -0.84,-0.6 -1.68,-1.2 -2.4,-1.8 l 3.24,-6.12 c -0.72,-0.6 -1.44,-1.2 -2.04,-1.8 l -5.76,3.84 c -0.72,-0.84 -1.44,-1.56 -2.04,-2.28 l 4.2,-5.4 c -0.48,-0.72 -1.08,-1.44 -1.56,-2.16 l -6.36,2.64 c -0.6,-0.84 -1.08,-1.68 -1.68,-2.52 l 5.16,-4.56 c -0.36,-0.84 -0.84,-1.56 -1.2,-2.4 l -6.72,1.56 c -0.36,-0.96 -0.84,-1.92 -1.08,-2.88 l 5.88,-3.6 c -0.36,-0.84 -0.6,-1.68 -0.84,-2.52 l -6.84,0.36 c -0.24,-1.08 -0.48,-2.04 -0.6,-3 l 6.36,-2.52 c -0.12,-0.84 -0.12,-1.8 -0.24,-2.64 l -6.84,-0.96 c -0.12,-0.96 -0.12,-1.8 -0.12,-2.76 0,-0.12 0,-0.24 0,-0.24 l 6.84,-1.32 c 0,-0.84 0,-1.8 0.12,-2.64 l -6.6,-2.16 c 0.24,-0.96 0.36,-2.04 0.48,-3 l 6.96,-0.12 c 0.12,-0.84 0.36,-1.68 0.6,-2.52 l -6,-3.24 c 0.24,-1.08 0.6,-2.04 0.96,-2.88 l 6.84,1.08 c 0.24,-0.72 0.6,-1.56 1.08,-2.4 l -5.4,-4.32 c 0.48,-0.84 0.96,-1.8 1.44,-2.64 l 6.48,2.4 c 0.48,-0.72 1.08,-1.44 1.56,-2.16 l -4.56,-5.28 c 0.6,-0.72 1.32,-1.56 2.04,-2.28 l 5.88,3.48 c 0.6,-0.72 1.2,-1.32 1.92,-1.92 l -3.6,-5.88 c 0.84,-0.72 1.56,-1.32 2.4,-2.04 l 5.16,4.56 c 0.72,-0.6 1.44,-1.08 2.28,-1.56 L 264,394.32 c 0.96,-0.48 1.8,-0.96 2.76,-1.44 l 4.32,5.28 c 0.72,-0.36 1.56,-0.72 2.4,-1.08 l -1.2,-6.84 c 0.96,-0.36 1.92,-0.6 2.88,-0.96 l 3.24,6 c 0.84,-0.24 1.8,-0.36 2.64,-0.6 l 0,-6.96 c 0.96,-0.12 2.04,-0.36 3,-0.48 l 2.16,6.6 c 0.96,-0.12 1.8,-0.12 2.64,-0.24 l 1.32,-6.72 c 0.12,0 0.36,0 0.48,0 0.84,0 1.68,0 2.52,0 l 0.96,6.84 c 0.96,0.12 1.8,0.24 2.64,0.36 l 2.52,-6.48 c 0.96,0.12 1.92,0.36 3,0.6 l -0.36,6.84 c 0.96,0.24 1.8,0.48 2.64,0.84 l 3.48,-6 c 0.96,0.36 1.92,0.72 2.88,1.2 l -1.44,6.72 c 0.72,0.36 1.56,0.72 2.28,1.2 l 4.56,-5.16 c 0.96,0.48 1.8,0.96 2.64,1.56 l -2.64,6.36 c 0.72,0.6 1.44,1.08 2.04,1.68 l 5.4,-4.32 c 0.84,0.6 1.56,1.32 2.28,2.04 l -3.72,5.76 c 0.6,0.72 1.2,1.32 1.8,2.04 l 6.12,-3.36 c 0.6,0.84 1.2,1.68 1.8,2.52 l -4.68,4.92 c 0.48,0.84 0.96,1.56 1.44,2.28 l 6.48,-2.04 c 0.48,0.84 0.96,1.68 1.44,2.64 L 331.2,420 c 0.36,0.84 0.6,1.68 0.96,2.52 l 6.84,-0.96 c 0.36,0.96 0.6,1.92 0.84,3 l -6.12,3 c 0.12,0.84 0.36,1.68 0.48,2.64 l 6.96,0.24 c 0.12,1.08 0.24,2.04 0.24,3.12 l -6.6,1.8 c 0.12,0.84 0.12,1.68 0.12,2.52 z" /><g
       transform="matrix(0.12,0,0,-0.12,0,792)"
       id="g1422"><path
         inkscape:connector-curvature="0"
         id="path1424"
         style="fill:none;stroke:#5c5c5f;stroke-width:5;stroke-linecap:butt;stroke-linejoin:miter;stroke-miterlimit:10;stroke-dasharray:none;stroke-opacity:1"
         d="m 2422,3008 c -31,0 -56,-26 -56,-57 0,-31 25,-56 56,-56 31,0 56,25 56,56 0,31 -25,57 -56,57 z m 369,-57 c 0,0 0,-1 0,-2 l 56,-12 c -1,-9 -1,-17 -2,-26 l -57,-5 c -1,-8 -2,-15 -3,-22 l 52,-23 c -1,-8 -3,-17 -6,-25 l -57,5 c -2,-7 -5,-14 -7,-21 l 48,-32 c -4,-8 -7,-15 -11,-23 l -55,15 c -4,-7 -7,-13 -11,-19 l 41,-40 c -4,-7 -9,-14 -14,-21 l -52,24 c -5,-5 -10,-11 -14,-17 l 33,-46 c -6,-6 -12,-12 -18,-18 l -46,33 c -6,-5 -12,-9 -17,-14 l 24,-52 c -6,-5 -13,-10 -20,-14 l -40,41 c -7,-4 -13,-8 -20,-11 l 15,-56 c -7,-3 -15,-7 -23,-10 l -32,47 c -7,-2 -14,-5 -21,-7 l 5,-57 c -8,-3 -16,-5 -24,-6 l -23,52 c -7,-1 -15,-2 -22,-3 l -5,-58 c -9,0 -17,-1 -26,-1 l -13,56 c -1,0 -3,0 -4,0 -6,0 -12,0 -18,0 l -16,-55 c -8,0 -17,1 -25,2 l -3,58 c -7,1 -14,3 -22,4 l -25,-52 c -8,3 -16,5 -24,8 l 7,57 c -7,2 -14,5 -20,8 l -34,-47 c -8,4 -16,8 -23,12 l 17,55 c -6,4 -12,7 -18,12 l -42,-40 c -7,5 -14,10 -20,15 l 27,51 c -6,5 -12,10 -17,15 l -48,-32 c -6,7 -12,13 -17,19 l 35,45 c -4,6 -9,12 -13,18 l -53,-22 c -5,7 -9,14 -14,21 l 43,38 c -3,7 -7,13 -10,20 l -56,-13 c -3,8 -7,16 -9,24 l 49,30 c -3,7 -5,14 -7,21 l -57,-3 c -2,9 -4,17 -5,25 l 53,21 c -1,7 -1,15 -2,22 l -57,8 c -1,8 -1,15 -1,23 0,1 0,2 0,2 l 57,11 c 0,7 0,15 1,22 l -55,18 c 2,8 3,17 4,25 l 58,1 c 1,7 3,14 5,21 l -50,27 c 2,9 5,17 8,24 l 57,-9 c 2,6 5,13 9,20 l -45,36 c 4,7 8,15 12,22 l 54,-20 c 4,6 9,12 13,18 l -38,44 c 5,6 11,13 17,19 l 49,-29 c 5,6 10,11 16,16 l -30,49 c 7,6 13,11 20,17 l 43,-38 c 6,5 12,9 19,13 l -21,54 c 8,4 15,8 23,12 l 36,-44 c 6,3 13,6 20,9 l -10,57 c 8,3 16,5 24,8 l 27,-50 c 7,2 15,3 22,5 l 0,58 c 8,1 17,3 25,4 l 18,-55 c 8,1 15,1 22,2 l 11,56 c 1,0 3,0 4,0 7,0 14,0 21,0 l 8,-57 c 8,-1 15,-2 22,-3 l 21,54 c 8,-1 16,-3 25,-5 l -3,-57 c 8,-2 15,-4 22,-7 l 29,50 c 8,-3 16,-6 24,-10 l -12,-56 c 6,-3 13,-6 19,-10 l 38,43 c 8,-4 15,-8 22,-13 l -22,-53 c 6,-5 12,-9 17,-14 l 45,36 c 7,-5 13,-11 19,-17 l -31,-48 c 5,-6 10,-11 15,-17 l 51,28 c 5,-7 10,-14 15,-21 l -39,-41 c 4,-7 8,-13 12,-19 l 54,17 c 4,-7 8,-14 12,-22 l -46,-34 c 3,-7 5,-14 8,-21 l 57,8 c 3,-8 5,-16 7,-25 l -51,-25 c 1,-7 3,-14 4,-22 l 58,-2 c 1,-9 2,-17 2,-26 l -55,-15 c 1,-7 1,-14 1,-21 z" /></g><path
       inkscape:connector-curvature="0"
       id="path1426"
       style="fill:#837874;fill-opacity:1;fill-rule:nonzero;stroke:none"
       d="m 266.88,429.36 -12.48,-11.4 9.84,-10.8 12.48,11.28 -9.84,10.92 z" /><g
       transform="matrix(0.12,0,0,-0.12,0,792)"
       id="g1428"><path
         inkscape:connector-curvature="0"
         id="path1430"
         style="fill:none;stroke:#5c5c5f;stroke-width:5;stroke-linecap:butt;stroke-linejoin:miter;stroke-miterlimit:10;stroke-dasharray:none;stroke-opacity:1"
         d="m 2224,3022 -104,95 82,90 104,-94 -82,-91 z" /></g><path
       inkscape:connector-curvature="0"
       id="path1432"
       style="fill:#b0b1b5;fill-opacity:1;fill-rule:nonzero;stroke:none"
       d="m 240.96,402.48 0.96,-1.08 15.12,13.68 -0.96,1.08 -15.12,-13.68 z" /><g
       transform="matrix(0.12,0,0,-0.12,0,792)"
       id="g1434"><path
         inkscape:connector-curvature="0"
         id="path1436"
         style="fill:none;stroke:#9b9da0;stroke-width:5;stroke-linecap:butt;stroke-linejoin:miter;stroke-miterlimit:10;stroke-dasharray:none;stroke-opacity:1"
         d="m 2008,3246 8,9 126,-114 -8,-9 -126,114 z" /></g><path
       inkscape:connector-curvature="0"
       id="path1438"
       style="fill:#b0b1b5;fill-opacity:1;fill-rule:nonzero;stroke:none"
       d="m 243.96,399.24 0.96,-1.08 15,13.68 -0.96,1.08 -15,-13.68 z" /><g
       transform="matrix(0.12,0,0,-0.12,0,792)"
       id="g1440"><path
         inkscape:connector-curvature="0"
         id="path1442"
         style="fill:none;stroke:#9b9da0;stroke-width:5;stroke-linecap:butt;stroke-linejoin:miter;stroke-miterlimit:10;stroke-dasharray:none;stroke-opacity:1"
         d="m 2033,3273 8,9 125,-114 -8,-9 -125,114 z" /></g><path
       inkscape:connector-curvature="0"
       id="path1444"
       style="fill:#b0b1b5;fill-opacity:1;fill-rule:nonzero;stroke:none"
       d="m 261.84,409.68 -15,-13.56 0.96,-1.08 15,13.56 -0.96,1.08 z" /><g
       transform="matrix(0.12,0,0,-0.12,0,792)"
       id="g1446"><path
         inkscape:connector-curvature="0"
         id="path1448"
         style="fill:none;stroke:#9b9da0;stroke-width:5;stroke-linecap:butt;stroke-linejoin:miter;stroke-miterlimit:10;stroke-dasharray:none;stroke-opacity:1"
         d="m 2182,3186 -125,113 8,9 125,-113 -8,-9 z" /></g><path
       inkscape:connector-curvature="0"
       id="path1450"
       style="fill:#a39196;fill-opacity:1;fill-rule:nonzero;stroke:none"
       d="m 294.6,468.12 c 0,2.16 -1.8,3.96 -3.96,3.96 -2.16,0 -3.96,-1.8 -3.96,-3.96 0,-2.16 1.8,-3.96 3.96,-3.96 2.16,0 3.96,1.8 3.96,3.96 z" /><g
       transform="matrix(0.12,0,0,-0.12,0,792)"
       id="g1452"><path
         inkscape:connector-curvature="0"
         id="path1454"
         style="fill:none;stroke:#5c5c5f;stroke-width:5;stroke-linecap:butt;stroke-linejoin:miter;stroke-miterlimit:10;stroke-dasharray:none;stroke-opacity:1"
         d="m 2455,2699 c 0,-18 -15,-33 -33,-33 -18,0 -33,15 -33,33 0,18 15,33 33,33 18,0 33,-15 33,-33 z" /></g><path
       inkscape:connector-curvature="0"
       id="path1456"
       style="fill:#a39196;fill-opacity:1;fill-rule:nonzero;stroke:none"
       d="m 263.88,437.88 c 0,2.16 -1.8,3.96 -3.96,3.96 -2.16,0 -3.96,-1.8 -3.96,-3.96 0,-2.16 1.8,-3.96 3.96,-3.96 2.16,0 3.96,1.8 3.96,3.96 z" /><g
       transform="matrix(0.12,0,0,-0.12,0,792)"
       id="g1458"><path
         inkscape:connector-curvature="0"
         id="path1460"
         style="fill:none;stroke:#5c5c5f;stroke-width:5;stroke-linecap:butt;stroke-linejoin:miter;stroke-miterlimit:10;stroke-dasharray:none;stroke-opacity:1"
         d="m 2199,2951 c 0,-18 -15,-33 -33,-33 -18,0 -33,15 -33,33 0,18 15,33 33,33 18,0 33,-15 33,-33 z" /></g><path
       inkscape:connector-curvature="0"
       id="path1462"
       style="fill:#a39196;fill-opacity:1;fill-rule:nonzero;stroke:none"
       d="m 294.48,408.84 c 0,2.16 -1.68,3.96 -3.84,3.96 -2.16,0 -3.96,-1.8 -3.96,-3.96 0,-2.16 1.8,-3.96 3.96,-3.96 2.16,0 3.84,1.8 3.84,3.96 z" /><g
       transform="matrix(0.12,0,0,-0.12,0,792)"
       id="g1464"><path
         inkscape:connector-curvature="0"
         id="path1466"
         style="fill:none;stroke:#5c5c5f;stroke-width:5;stroke-linecap:butt;stroke-linejoin:miter;stroke-miterlimit:10;stroke-dasharray:none;stroke-opacity:1"
         d="m 2454,3193 c 0,-18 -14,-33 -32,-33 -18,0 -33,15 -33,33 0,18 15,33 33,33 18,0 32,-15 32,-33 z" /></g><path
       inkscape:connector-curvature="0"
       id="path1468"
       style="fill:#a39196;fill-opacity:1;fill-rule:nonzero;stroke:none"
       d="m 324,437.76 c 0,2.16 -1.68,3.96 -3.84,3.96 -2.28,0 -3.96,-1.8 -3.96,-3.96 0,-2.16 1.68,-3.96 3.96,-3.96 2.16,0 3.84,1.8 3.84,3.96 z" /><g
       transform="matrix(0.12,0,0,-0.12,0,792)"
       id="g1470"><path
         inkscape:connector-curvature="0"
         id="path1472"
         style="fill:none;stroke:#5c5c5f;stroke-width:5;stroke-linecap:butt;stroke-linejoin:miter;stroke-miterlimit:10;stroke-dasharray:none;stroke-opacity:1"
         d="m 2700,2952 c 0,-18 -14,-33 -32,-33 -19,0 -33,15 -33,33 0,18 14,33 33,33 18,0 32,-15 32,-33 z" /></g><g
       transform="matrix(0.12,0,0,-0.12,0,792)"
       id="g1474"><path
         inkscape:connector-curvature="0"
         id="path1476"
         style="fill:none;stroke:#5c5c5f;stroke-width:10;stroke-linecap:butt;stroke-linejoin:miter;stroke-miterlimit:10;stroke-dasharray:none;stroke-opacity:1"
         d="m 1821,2864 257,64" /></g><path
       inkscape:connector-curvature="0"
       id="path1478"
       style="fill:#5c5c5f;fill-opacity:1;fill-rule:nonzero;stroke:none"
       d="m 254.64,439.32 c -2.76,-0.24 -6.24,-1.08 -8.52,-2.28 l 2.52,3.72 -0.48,4.56 c 1.56,-2.16 4.2,-4.44 6.48,-6 z" /><g
       transform="matrix(0.12,0,0,-0.12,0,792)"
       id="g1494"><path
         inkscape:connector-curvature="0"
         id="path1496"
         style="fill:none;stroke:#5c5c5f;stroke-width:10;stroke-linecap:butt;stroke-linejoin:miter;stroke-miterlimit:10;stroke-dasharray:none;stroke-opacity:1"
         d="m 1778,3156 256,-24" /></g><path
       inkscape:connector-curvature="0"
       id="path1498"
       style="fill:#5c5c5f;fill-opacity:1;fill-rule:nonzero;stroke:none"
       d="m 249.48,416.76 c -2.4,-1.2 -5.4,-3.12 -7.2,-5.04 l 1.08,4.44 -1.92,4.08 c 2.16,-1.56 5.4,-2.88 8.04,-3.48 z" /><g
       id="g8550"
       transform="matrix(0.13219442,0,0,-0.13219431,161.55045,490.72585)"><g
         word-spacing="normal"
         letter-spacing="normal"
         font-size-adjust="none"
         font-stretch="normal"
         font-weight="normal"
         font-variant="normal"
         font-style="normal"
         stroke-miterlimit="10.433"
         xml:space="preserve"
         transform="matrix(1.0928571,0,0,-1.0928571,-191.25,742.5)"
         id="content"
         style="font-style:normal;font-variant:normal;font-weight:normal;font-stretch:normal;letter-spacing:normal;word-spacing:normal;text-anchor:start;fill:none;fill-opacity:1;fill-rule:evenodd;stroke:#000000;stroke-width:7.56461906;stroke-linecap:butt;stroke-linejoin:miter;stroke-miterlimit:10.43299961;stroke-dasharray:none;stroke-dashoffset:0;stroke-opacity:1"><path
           id="path8553"
           d="m 467.52,439.14 -0.02,0.05 -0.02,0.05 -0.02,0.04 -0.02,0.05 -0.04,0.09 -0.03,0.08 -0.04,0.07 -0.03,0.07 -0.04,0.07 -0.04,0.06 -0.03,0.05 -0.04,0.05 -0.03,0.05 -0.04,0.04 -0.04,0.04 -0.04,0.04 -0.04,0.03 -0.04,0.02 -0.05,0.03 -0.05,0.02 -0.05,0.02 -0.05,0.01 -0.06,0.02 -0.06,0.01 -0.06,0.01 -0.06,0 -0.07,0.01 -0.08,0 -0.08,0.01 -0.08,0 -0.09,0 -0.09,0 -0.1,0 -0.1,0 -8.43,0 0,-1.55 1.21,0 c 3.82,0 3.92,-0.54 3.92,-2.34 l 0,-24.91 c 0,-1.34 0,-3.68 -5.13,-3.68 l 0,-1.55 c 1.75,0.05 4.19,0.16 5.83,0.16 1.64,0 4.1,-0.11 5.83,-0.16 l 0,1.55 c -5.13,0 -5.13,2.34 -5.13,3.68 l 0,26.85 0.05,0 12,-30.99 c 0.25,-0.64 0.5,-1.09 1,-1.09 0.55,0 0.7,0.41 0.89,0.95 l 12.27,31.53 0.04,0 0,-28.59 c 0,-1.8 -0.09,-2.34 -3.93,-2.34 l -1.19,0 0,-1.55 c 1.84,0.16 5.22,0.16 7.17,0.16 1.94,0 5.28,0 7.13,-0.16 l 0,1.55 -1.21,0 c -3.82,0 -3.93,0.54 -3.93,2.34 l 0,26.25 c 0,1.8 0.11,2.34 3.93,2.34 l 1.21,0 0,1.55 -8.43,0 c -1.29,0 -1.29,-0.05 -1.64,-0.95 l -10.92,-28.05 z"
           inkscape:connector-curvature="0"
           style="fill:#000000;stroke-width:0" /><path
           id="path8555"
           d="m 517.83,409.98 0.02,-0.19 0.03,-0.18 0.04,-0.19 0.04,-0.18 0.05,-0.19 0.06,-0.18 0.06,-0.18 0.07,-0.18 0.07,-0.18 0.08,-0.17 0.09,-0.18 0.09,-0.16 0.1,-0.16 0.11,-0.16 0.12,-0.16 0.11,-0.14 0.13,-0.14 0.13,-0.14 0.14,-0.13 0.15,-0.12 0.15,-0.12 0.15,-0.1 0.17,-0.1 0.16,-0.09 0.18,-0.08 0.18,-0.07 0.19,-0.06 0.19,-0.05 0.2,-0.04 0.21,-0.03 0.21,-0.02 0.21,-0.01 c 1.03,0 4.08,0.71 4.08,4.74 l 0,2.78 -1.25,0 0,-2.78 c 0,-2.89 -1.23,-3.19 -1.8,-3.19 -1.64,0 -1.84,2.23 -1.84,2.48 l 0,9.97 c 0,2.1 0,4.03 -1.78,5.88 -1.95,1.93 -4.44,2.73 -6.83,2.73 -4.09,0 -7.53,-2.33 -7.53,-5.62 0,-1.49 1,-2.35 2.3,-2.35 1.39,0 2.29,1 2.29,2.3 0,0.59 -0.25,2.23 -2.54,2.3 1.34,1.73 3.78,2.28 5.37,2.28 2.46,0 5.28,-1.94 5.28,-6.38 l 0,-1.84 0,-1.05 0,-4.98 c 0,-4.74 -3.57,-6.42 -5.83,-6.42 -2.43,0 -4.48,1.75 -4.48,4.23 0,2.73 2.09,6.88 10.31,7.17 l 0,0 0,1.05 c -2.53,-0.14 -6.01,-0.3 -9.15,-1.8 -3.74,-1.69 -4.99,-4.28 -4.99,-6.47 0,-4.03 4.83,-5.28 7.97,-5.28 3.3,0 5.58,1.99 6.53,4.33 z"
           inkscape:connector-curvature="0"
           style="fill:#000000;stroke-width:0" /><path
           id="path8557"
           d="m 531.48,412.82 0,0.03 0,0.02 0,0.03 0,0.04 0,0.04 0,0.05 0.01,0.05 0,0.06 0.01,0.05 0,0.07 0.01,0.06 0.01,0.07 0.01,0.07 0.02,0.08 0.01,0.08 0.02,0.08 0.02,0.08 0.03,0.08 0.02,0.09 0.03,0.09 0.04,0.09 0.03,0.09 0.04,0.09 0.04,0.1 0.05,0.09 0.05,0.1 0.05,0.09 0.06,0.1 0.06,0.09 0.07,0.1 0.07,0.09 0.08,0.1 c 1.95,-1.39 3.98,-1.55 4.94,-1.55 l 0,1.14 c -4.35,0 -4.35,4.99 -4.35,6.14 0,1.35 0.07,2.94 0.8,4.17 0.41,0.61 1.55,2 3.55,2 4.33,0 4.33,-4.98 4.33,-6.12 0,-1.34 -0.05,-2.94 -0.8,-4.19 -0.39,-0.59 -1.55,-2 -3.53,-2 l 0,0 0,-1.14 c 4.62,0 8.06,3.44 8.06,7.28 0,1.85 -0.8,3.69 -2.03,4.83 1.78,1.69 3.58,1.94 4.48,1.94 0.1,0 0.35,0 0.5,-0.05 -0.56,-0.2 -0.79,-0.75 -0.79,-1.34 0,-0.85 0.64,-1.44 1.43,-1.44 0.5,0 1.44,0.34 1.44,1.48 0,0.85 -0.59,2.44 -2.53,2.44 -1,0 -3.19,-0.3 -5.28,-2.33 -2.09,1.64 -4.19,1.78 -5.28,1.78 -4.64,0 -8.08,-3.43 -8.08,-7.26 0,-2.19 1.09,-4.09 2.34,-5.14 -0.64,-0.74 -1.54,-2.39 -1.54,-4.13 0,-1.54 0.65,-3.43 2.2,-4.43 -3,-0.85 -4.59,-2.99 -4.59,-4.99 0,-3.58 4.93,-6.33 11.01,-6.33 l 0.05,1.14 c -5.03,0 -8.47,2.55 -8.47,5.19 0,2.3 1.89,4.14 4.09,4.28 l 2.94,0 c 4.28,0 9.86,0 9.86,-4.28 0,-2.69 -3.53,-5.19 -8.42,-5.19 l 0,0 -0.05,-1.14 c 5.88,0 11.06,2.55 11.06,6.43 0,1.75 -0.7,4.29 -3.23,5.68 -2.64,1.39 -5.53,1.39 -8.58,1.39 -1.25,0 -3.39,0 -3.73,0.05 -1.6,0.2 -2.64,1.75 -2.64,3.34 z"
           inkscape:connector-curvature="0"
           style="fill:#000000;stroke-width:0" /><path
           id="path8559"
           d="m 556.64,423.34 0,-13.36 c 0,-2.23 -0.55,-2.23 -3.89,-2.23 l 0,-1.55 c 1.75,0.05 4.28,0.16 5.62,0.16 1.3,0 3.89,-0.11 5.58,-0.16 l 0,1.55 c -3.33,0 -3.88,0 -3.88,2.23 l 0,9.17 c 0,5.19 3.53,7.97 6.72,7.97 3.14,0 3.69,-2.69 3.69,-5.53 l 0,-11.61 c 0,-2.23 -0.55,-2.23 -3.89,-2.23 l 0,-1.55 c 1.75,0.05 4.3,0.16 5.64,0.16 1.3,0 3.87,-0.11 5.58,-0.16 l 0,1.55 c -2.59,0 -3.84,0 -3.89,1.5 l 0,9.51 c 0,4.28 0,5.83 -1.55,7.61 -0.69,0.86 -2.34,1.84 -5.22,1.84 -3.64,0 -5.98,-2.14 -7.37,-5.21 l 0,5.21 -7.03,-0.54 0,-1.55 c 3.48,0 3.89,-0.34 3.89,-2.78 z"
           inkscape:connector-curvature="0"
           style="fill:#000000;stroke-width:0" /><path
           id="path8561"
           d="m 584.4,417.71 0.05,1.05 c 0.3,7.42 4.48,8.66 6.19,8.66 5.12,0 5.62,-6.72 5.62,-8.66 l -11.81,0 -0.05,-1.05 13.91,0 c 1.09,0 1.23,0 1.23,1.05 0,4.92 -2.69,9.75 -8.9,9.75 -5.79,0 -10.38,-5.12 -10.38,-11.36 0,-6.67 5.24,-11.5 10.97,-11.5 6.08,0 8.31,5.53 8.31,6.47 0,0.5 -0.39,0.61 -0.64,0.61 -0.45,0 -0.55,-0.3 -0.65,-0.7 -1.74,-5.13 -6.22,-5.13 -6.72,-5.13 -2.5,0 -4.49,1.49 -5.63,3.33 -1.5,2.39 -1.5,5.69 -1.5,7.48 z"
           inkscape:connector-curvature="0"
           style="fill:#000000;stroke-width:0" /><path
           id="path8563"
           d="m 609.57,426.12 7.13,0 0,1.55 -7.13,0 0,9.17 -1.25,0 c -0.04,-4.08 -1.54,-9.42 -6.42,-9.61 l 0,-1.11 4.24,0 0,-13.75 c 0,-6.12 4.62,-6.72 6.42,-6.72 3.53,0 4.94,3.53 4.94,6.72 l 0,2.84 -1.25,0 0,-2.73 c 0,-3.69 -1.5,-5.58 -3.35,-5.58 -3.33,0 -3.33,4.53 -3.33,5.38 z"
           inkscape:connector-curvature="0"
           style="fill:#000000;stroke-width:0" /></g></g><g
       id="g8857"
       transform="matrix(0.12502592,0,0,-0.12502578,140.07974,449.45309)"><g
         word-spacing="normal"
         letter-spacing="normal"
         font-size-adjust="none"
         font-stretch="normal"
         font-weight="normal"
         font-variant="normal"
         font-style="normal"
         stroke-miterlimit="10.433"
         xml:space="preserve"
         transform="matrix(1.0928571,0,0,-1.0928571,-191.25,742.5)"
         id="g8859"
         style="font-style:normal;font-variant:normal;font-weight:normal;font-stretch:normal;letter-spacing:normal;word-spacing:normal;text-anchor:start;fill:none;fill-opacity:1;fill-rule:evenodd;stroke:#000000;stroke-width:7.99834585;stroke-linecap:butt;stroke-linejoin:miter;stroke-miterlimit:10.43299961;stroke-dasharray:none;stroke-dashoffset:0;stroke-opacity:1"><path
           id="path8861"
           d="m 486.07,436.34 0,0.16 0,0.16 0,0.15 0.01,0.15 0.01,0.13 0.01,0.13 0.02,0.13 0.02,0.11 0.03,0.12 0.03,0.1 0.05,0.1 0.05,0.09 0.06,0.09 0.06,0.08 0.08,0.08 0.09,0.07 0.1,0.06 0.11,0.06 0.06,0.03 0.07,0.03 0.06,0.02 0.07,0.03 0.08,0.02 0.08,0.02 0.08,0.02 0.08,0.02 0.09,0.02 0.09,0.02 0.1,0.02 0.1,0.01 0.1,0.01 0.11,0.02 0.12,0.01 0.11,0.01 0.13,0.01 0.12,0.01 0.13,0.01 0.14,0.01 0.14,0 0.15,0.01 0.15,0 0.15,0.01 0.16,0 0.17,0 0.17,0 0.18,0 1.2,0 0,1.55 c -1.75,-0.16 -5.44,-0.16 -7.33,-0.16 -1.89,0 -5.62,0 -7.37,0.16 l 0,-1.55 1.2,0 c 3.83,0 3.94,-0.54 3.94,-2.34 l 0,-11.66 -14.91,0 0,11.66 c 0,1.8 0.11,2.34 3.94,2.34 l 1.2,0 0,1.55 c -1.75,-0.16 -5.43,-0.16 -7.32,-0.16 -1.9,0 -5.63,0 -7.38,0.16 l 0,-1.55 1.2,0 c 3.83,0 3.94,-0.54 3.94,-2.34 l 0,-26.25 c 0,-1.8 -0.11,-2.34 -3.94,-2.34 l -1.2,0 0,-1.55 c 1.75,0.16 5.44,0.16 7.33,0.16 1.89,0 5.62,0 7.37,-0.16 l 0,1.55 -1.2,0 c -3.83,0 -3.94,0.54 -3.94,2.34 l 0,13.05 14.91,0 0,-13.05 c 0,-1.8 -0.11,-2.34 -3.94,-2.34 l -1.2,0 0,-1.55 c 1.75,0.16 5.44,0.16 7.33,0.16 1.89,0 5.62,0 7.37,-0.16 l 0,1.55 -1.2,0 c -3.83,0 -3.92,0.54 -3.92,2.34 z"
           inkscape:connector-curvature="0"
           style="fill:#000000;stroke-width:0" /><path
           id="path8863"
           d="m 509.43,409.98 0.02,-0.19 0.03,-0.18 0.04,-0.19 0.04,-0.18 0.05,-0.19 0.05,-0.18 0.07,-0.18 0.06,-0.18 0.08,-0.18 0.08,-0.17 0.09,-0.18 0.09,-0.16 0.1,-0.16 0.11,-0.16 0.11,-0.16 0.12,-0.14 0.13,-0.14 0.13,-0.14 0.14,-0.13 0.14,-0.12 0.15,-0.12 0.16,-0.1 0.16,-0.1 0.17,-0.09 0.18,-0.08 0.18,-0.07 0.19,-0.06 0.19,-0.05 0.2,-0.04 0.2,-0.03 0.21,-0.02 0.22,-0.01 c 1.03,0 4.08,0.71 4.08,4.74 l 0,2.78 -1.25,0 0,-2.78 c 0,-2.89 -1.24,-3.19 -1.8,-3.19 -1.64,0 -1.84,2.23 -1.84,2.48 l 0,9.97 c 0,2.1 0,4.03 -1.78,5.88 -1.96,1.93 -4.44,2.73 -6.83,2.73 -4.1,0 -7.53,-2.33 -7.53,-5.62 0,-1.49 1,-2.35 2.29,-2.35 1.39,0 2.3,1 2.3,2.3 0,0.59 -0.25,2.23 -2.55,2.3 1.35,1.73 3.79,2.28 5.38,2.28 2.45,0 5.28,-1.94 5.28,-6.38 l 0,-1.84 0,-1.05 0,-4.98 c 0,-4.74 -3.58,-6.42 -5.83,-6.42 -2.44,0 -4.48,1.75 -4.48,4.23 0,2.73 2.09,6.88 10.31,7.17 l 0,0 0,1.05 c -2.53,-0.14 -6.02,-0.3 -9.16,-1.8 -3.73,-1.69 -4.98,-4.28 -4.98,-6.47 0,-4.03 4.83,-5.28 7.97,-5.28 3.3,0 5.58,1.99 6.53,4.33 z"
           inkscape:connector-curvature="0"
           style="fill:#000000;stroke-width:0" /><path
           id="path8865"
           d="m 526.6,440.78 -7.17,-0.55 0,-1.55 c 3.49,0 3.89,-0.34 3.89,-2.79 l 0,-25.91 c 0,-2.23 -0.54,-2.23 -3.89,-2.23 l 0,-1.55 c 1.64,0.05 4.29,0.16 5.54,0.16 1.25,0 3.68,-0.11 5.53,-0.16 l 0,1.55 c -3.35,0 -3.9,0 -3.9,2.23 z"
           inkscape:connector-curvature="0"
           style="fill:#000000;stroke-width:0" /><path
           id="path8867"
           d="m 540.4,440.78 -7.17,-0.55 0,-1.55 c 3.49,0 3.89,-0.34 3.89,-2.79 l 0,-25.91 c 0,-2.23 -0.55,-2.23 -3.89,-2.23 l 0,-1.55 c 1.64,0.05 4.28,0.16 5.53,0.16 1.25,0 3.69,-0.11 5.53,-0.16 l 0,1.55 c -3.34,0 -3.89,0 -3.89,2.23 z"
           inkscape:connector-curvature="0"
           style="fill:#000000;stroke-width:0" /><path
           id="path8869"
           d="m 572.43,415.87 0.11,-0.02 0.12,-0.02 0.15,-0.03 0.15,-0.04 0.17,-0.04 0.18,-0.04 0.19,-0.05 0.2,-0.06 0.2,-0.06 0.21,-0.07 0.22,-0.08 0.22,-0.08 0.22,-0.1 0.22,-0.1 0.22,-0.11 0.22,-0.12 0.22,-0.14 0.21,-0.14 0.2,-0.15 0.2,-0.16 0.19,-0.18 0.18,-0.19 0.17,-0.2 0.16,-0.21 0.14,-0.22 0.07,-0.12 0.06,-0.12 0.06,-0.13 0.05,-0.12 0.05,-0.14 0.04,-0.13 0.05,-0.14 0.03,-0.14 0.03,-0.15 0.03,-0.15 0.02,-0.16 0.01,-0.15 0.01,-0.17 0,-0.16 c 0,-2.53 -1.75,-4.53 -5.62,-4.53 -4.19,0 -5.99,2.84 -6.94,7.07 -0.14,0.64 -0.19,0.85 -0.69,0.85 -0.65,0 -0.65,-0.35 -0.65,-1.25 l 0,-6.58 c 0,-0.84 0,-1.19 0.54,-1.19 0.25,0 0.3,0.05 1.25,1 0.1,0.1 0.1,0.19 1,1.14 2.19,-2.09 4.44,-2.14 5.49,-2.14 5.72,0 8.01,3.35 8.01,6.92 0,2.64 -1.5,4.14 -2.09,4.74 -1.64,1.59 -3.59,2 -5.69,2.39 -2.78,0.55 -6.12,1.2 -6.12,4.09 0,1.74 1.3,3.78 5.58,3.78 5.48,0 5.73,-4.48 5.82,-6.03 0.07,-0.45 0.5,-0.45 0.61,-0.45 0.64,0 0.64,0.25 0.64,1.2 l 0,5.03 c 0,0.85 0,1.19 -0.54,1.19 -0.25,0 -0.35,0 -1,-0.59 -0.14,-0.21 -0.64,-0.64 -0.85,-0.8 -1.89,1.39 -3.93,1.39 -4.68,1.39 -6.08,0 -7.97,-3.33 -7.97,-6.12 0,-1.74 0.79,-3.14 2.14,-4.24 1.59,-1.29 3,-1.59 6.58,-2.28 z"
           inkscape:connector-curvature="0"
           style="fill:#000000;stroke-width:0" /><path
           id="path8871"
           d="m 587.28,417.71 0.04,1.05 c 0.3,7.42 4.49,8.66 6.19,8.66 5.13,0 5.63,-6.72 5.63,-8.66 l -11.82,0 -0.04,-1.05 13.9,0 c 1.1,0 1.24,0 1.24,1.05 0,4.92 -2.69,9.75 -8.91,9.75 -5.78,0 -10.37,-5.12 -10.37,-11.36 0,-6.67 5.23,-11.5 10.96,-11.5 6.08,0 8.32,5.53 8.32,6.47 0,0.5 -0.39,0.61 -0.64,0.61 -0.46,0 -0.55,-0.3 -0.66,-0.7 -1.73,-5.13 -6.22,-5.13 -6.72,-5.13 -2.5,0 -4.48,1.49 -5.62,3.33 -1.5,2.39 -1.5,5.69 -1.5,7.48 z"
           inkscape:connector-curvature="0"
           style="fill:#000000;stroke-width:0" /><path
           id="path8873"
           d="m 609.31,423.34 0,-13.36 c 0,-2.23 -0.55,-2.23 -3.89,-2.23 l 0,-1.55 c 1.75,0.05 4.28,0.16 5.62,0.16 1.3,0 3.89,-0.11 5.58,-0.16 l 0,1.55 c -3.33,0 -3.87,0 -3.87,2.23 l 0,9.17 c 0,5.19 3.53,7.97 6.72,7.97 3.13,0 3.68,-2.69 3.68,-5.53 l 0,-11.61 c 0,-2.23 -0.55,-2.23 -3.89,-2.23 l 0,-1.55 c 1.75,0.05 4.3,0.16 5.64,0.16 1.3,0 3.88,-0.11 5.58,-0.16 l 0,1.55 c -2.59,0 -3.84,0 -3.89,1.5 l 0,9.51 c 0,4.28 0,5.83 -1.55,7.61 -0.69,0.86 -2.34,1.84 -5.22,1.84 -3.64,0 -5.98,-2.14 -7.37,-5.21 l 0,5.21 -7.03,-0.54 0,-1.55 c 3.48,0 3.89,-0.34 3.89,-2.78 z"
           inkscape:connector-curvature="0"
           style="fill:#000000;stroke-width:0" /><path
           id="path8875"
           d="m 641.9,415.87 0.11,-0.02 0.13,-0.02 0.14,-0.03 0.16,-0.04 0.17,-0.04 0.18,-0.04 0.19,-0.05 0.19,-0.06 0.21,-0.06 0.21,-0.07 0.22,-0.08 0.21,-0.08 0.23,-0.1 0.22,-0.1 0.22,-0.11 0.22,-0.12 0.21,-0.14 0.21,-0.14 0.21,-0.15 0.2,-0.16 0.19,-0.18 0.18,-0.19 0.17,-0.2 0.15,-0.21 0.15,-0.22 0.06,-0.12 0.06,-0.12 0.06,-0.13 0.06,-0.12 0.05,-0.14 0.04,-0.13 0.04,-0.14 0.04,-0.14 0.03,-0.15 0.02,-0.15 0.02,-0.16 0.02,-0.15 0.01,-0.17 0,-0.16 c 0,-2.53 -1.75,-4.53 -5.62,-4.53 -4.19,0 -5.99,2.84 -6.94,7.07 -0.14,0.64 -0.19,0.85 -0.69,0.85 -0.66,0 -0.66,-0.35 -0.66,-1.25 l 0,-6.58 c 0,-0.84 0,-1.19 0.55,-1.19 0.25,0 0.3,0.05 1.25,1 0.09,0.1 0.09,0.19 1,1.14 2.19,-2.09 4.44,-2.14 5.49,-2.14 5.71,0 8.01,3.35 8.01,6.92 0,2.64 -1.5,4.14 -2.09,4.74 -1.64,1.59 -3.6,2 -5.69,2.39 -2.78,0.55 -6.13,1.2 -6.13,4.09 0,1.74 1.3,3.78 5.58,3.78 5.49,0 5.74,-4.48 5.83,-6.03 0.06,-0.45 0.5,-0.45 0.61,-0.45 0.64,0 0.64,0.25 0.64,1.2 l 0,5.03 c 0,0.85 0,1.19 -0.55,1.19 -0.25,0 -0.34,0 -1,-0.59 -0.14,-0.21 -0.64,-0.64 -0.84,-0.8 -1.89,1.39 -3.94,1.39 -4.69,1.39 -6.08,0 -7.97,-3.33 -7.97,-6.12 0,-1.74 0.8,-3.14 2.14,-4.24 1.6,-1.29 3,-1.59 6.58,-2.28 z"
           inkscape:connector-curvature="0"
           style="fill:#000000;stroke-width:0" /><path
           id="path8877"
           d="m 674.69,416.86 -0.01,0.59 -0.05,0.59 -0.07,0.58 -0.09,0.57 -0.13,0.56 -0.15,0.55 -0.17,0.54 -0.2,0.53 -0.22,0.51 -0.25,0.5 -0.27,0.49 -0.28,0.47 -0.31,0.46 -0.33,0.44 -0.35,0.43 -0.36,0.4 -0.39,0.39 -0.4,0.37 -0.42,0.35 -0.43,0.32 -0.45,0.31 -0.46,0.28 -0.47,0.26 -0.49,0.24 -0.5,0.21 -0.51,0.18 -0.52,0.16 -0.53,0.13 -0.54,0.11 -0.55,0.07 -0.55,0.05 -0.56,0.01 -0.05,-1.09 c 2.19,0 4.33,-1.1 5.62,-3.24 1.3,-2.14 1.3,-5.03 1.3,-6.92 0,-1.8 0,-4.48 -1.09,-6.67 -1.1,-2.25 -3.28,-3.69 -5.78,-3.69 l 0,0 c -2.15,0 -4.33,1.05 -5.68,3.33 -1.25,2.2 -1.25,5.23 -1.25,7.03 0,1.94 0,4.63 1.19,6.83 1.36,2.28 3.69,3.33 5.69,3.33 l 0.05,1.09 c -6.22,0 -11.07,-5.42 -11.07,-11.65 0,-6.43 5.19,-11.21 11.02,-11.21 6.03,0 11.06,4.88 11.06,11.21 z"
           inkscape:connector-curvature="0"
           style="fill:#000000;stroke-width:0" /><path
           id="path8879"
           d="m 684.49,422.75 0,5.46 -6.92,-0.54 0,-1.55 c 3.48,0 3.89,-0.34 3.89,-2.78 l 0,-13.36 c 0,-2.23 -0.55,-2.23 -3.89,-2.23 l 0,-1.55 c 1.95,0.05 4.28,0.16 5.69,0.16 1.98,0 4.33,0 6.33,-0.16 l 0,1.55 -1.05,0 c -3.69,0 -3.8,0.54 -3.8,2.34 l 0,7.67 c 0,4.92 2.1,9.36 5.89,9.36 0.35,0 0.44,0 0.55,-0.05 -0.16,-0.04 -1.16,-0.64 -1.16,-1.93 0,-1.41 1.05,-2.14 2.16,-2.14 0.89,0 2.14,0.59 2.14,2.18 0,1.6 -1.55,3.03 -3.69,3.03 -3.64,0 -5.43,-3.32 -6.14,-5.46 z"
           inkscape:connector-curvature="0"
           style="fill:#000000;stroke-width:0" /></g></g></g></svg>