<?xml version="1.0" encoding="UTF-8" standalone="no"?>
<!-- Created with Inkscape (http://www.inkscape.org/) -->

<svg
   xmlns:dc="http://purl.org/dc/elements/1.1/"
   xmlns:cc="http://creativecommons.org/ns#"
   xmlns:rdf="http://www.w3.org/1999/02/22-rdf-syntax-ns#"
   xmlns:svg="http://www.w3.org/2000/svg"
   xmlns="http://www.w3.org/2000/svg"
   xmlns:sodipodi="http://sodipodi.sourceforge.net/DTD/sodipodi-0.dtd"
   xmlns:inkscape="http://www.inkscape.org/namespaces/inkscape"
   width="611.60938"
   height="358.71417"
   id="svg3078"
   version="1.1"
   inkscape:version="0.48.4 r9939"
   sodipodi:docname="inertiaTestSetupDiagramTurning.svg">
  <defs
     id="defs3080" />
  <sodipodi:namedview
     id="base"
     pagecolor="#ffffff"
     bordercolor="#666666"
     borderopacity="1.0"
     inkscape:pageopacity="0.0"
     inkscape:pageshadow="2"
     inkscape:zoom="0.7"
     inkscape:cx="240.74896"
     inkscape:cy="338.24067"
     inkscape:document-units="px"
     inkscape:current-layer="layer1"
     showgrid="false"
     inkscape:window-width="1307"
     inkscape:window-height="744"
     inkscape:window-x="59"
     inkscape:window-y="24"
     inkscape:window-maximized="1"
     fit-margin-top="0"
     fit-margin-left="0"
     fit-margin-right="0"
     fit-margin-bottom="0" />
  <metadata
     id="metadata3083">
    <rdf:RDF>
      <cc:Work
         rdf:about="">
        <dc:format>image/svg+xml</dc:format>
        <dc:type
           rdf:resource="http://purl.org/dc/dcmitype/StillImage" />
      </cc:Work>
    </rdf:RDF>
  </metadata>
  <g
     inkscape:label="Layer 1"
     inkscape:groupmode="layer"
     id="layer1"
     transform="translate(-39.040533,-289.79467)">
    <g
       transform="matrix(5.1461399,0,0,-5.1461399,37.945711,649.60331)"
       id="g12">
      <path
         inkscape:connector-curvature="0"
         d="M 68.027,9.875 C 68.027,0.266 52.867,0.781 34.152,0.422 12.266,0 0.281,-0.117 0.281,9.875 c 0,9.465 13.399,9.785 33.871,9.453 22.051,-0.359 33.875,-0.113 33.875,-9.453 z"
         style="fill:none;stroke:#000000;stroke-width:0.13650766;stroke-linecap:butt;stroke-linejoin:miter;stroke-miterlimit:10;stroke-opacity:1;stroke-dasharray:none"
         id="path14" />
      <path
         inkscape:connector-curvature="0"
         d="M 68.5,35.113 C 68.5,25.504 53.34,26.02 34.625,25.66 12.738,25.238 0.754,25.121 0.754,35.113 c 0,9.465 13.398,9.786 33.871,9.454 C 56.676,44.203 68.5,44.453 68.5,35.113 z"
         style="fill:none;stroke:#000000;stroke-width:0.13650766;stroke-linecap:butt;stroke-linejoin:miter;stroke-miterlimit:10;stroke-opacity:1;stroke-dasharray:none"
         id="path16" />
      <path
         inkscape:connector-curvature="0"
         d="m 0.992,45.047 63.488,0 0,-34.426 -63.488,0 0,34.426 z"
         style="fill:#ffffff;fill-opacity:1;fill-rule:nonzero;stroke:#000000;stroke-width:0.17467754;stroke-linecap:butt;stroke-linejoin:miter;stroke-miterlimit:10;stroke-opacity:1;stroke-dasharray:none"
         id="path18" />
      <path
         inkscape:connector-curvature="0"
         d="m 18.242,31.613 14.18,0 0,-10.082 -14.18,0 0,10.082 z"
         style="fill:#ffffff;fill-opacity:1;fill-rule:nonzero;stroke:#000000;stroke-width:0.13650766;stroke-linecap:butt;stroke-linejoin:miter;stroke-miterlimit:10;stroke-opacity:1;stroke-dasharray:none"
         id="path20" />
      <g
         id="g22"
         transform="matrix(0.99593,0,0,-1,0,70.050941)">
        <path
           inkscape:connector-curvature="0"
           d="M 67.493,14.406 32.405,38.484"
           style="fill:none;stroke:#000000;stroke-width:0.06442062;stroke-linecap:butt;stroke-linejoin:miter;stroke-miterlimit:4;stroke-opacity:1;stroke-dasharray:none"
           id="path24" />
      </g>
      <path
         inkscape:connector-curvature="0"
         d="m 65.32,69.875 40.848,0 0,-15.738 -40.848,0 0,15.738 z"
         style="fill:#ffffff;fill-opacity:1;fill-rule:nonzero;stroke:#000000;stroke-width:0.08632343;stroke-linecap:butt;stroke-linejoin:miter;stroke-miterlimit:10;stroke-opacity:1;stroke-dasharray:none"
         id="path26" />
      <path
         inkscape:connector-curvature="0"
         d="m 73.848,62.485 0,-0.106 0.007,-0.105 0.012,-0.102 0.039,-0.203 0.028,-0.094 0.031,-0.094 0.035,-0.093 0.043,-0.09 0.043,-0.086 0.047,-0.086 0.051,-0.082 0.054,-0.078 0.117,-0.149 0.133,-0.132 0.071,-0.063 0.074,-0.059 0.074,-0.054 0.078,-0.051 0.082,-0.047 0.082,-0.043 0.086,-0.039 0.086,-0.035 0.086,-0.031 0.09,-0.028 0.094,-0.023 0.089,-0.016 0.094,-0.011 0.098,-0.008 0.094,0 c 0.902,0 1.441,0.765 1.441,1.406 0,0.055 0,0.094 -0.07,0.094 -0.059,0 -0.059,-0.032 -0.067,-0.09 -0.043,-0.789 -0.632,-1.242 -1.238,-1.242 -0.336,0 -1.418,0.187 -1.418,1.832 0,1.656 1.078,1.843 1.414,1.843 0.602,0 1.094,-0.503 1.203,-1.312 0.012,-0.074 0.012,-0.094 0.09,-0.094 0.086,0 0.086,0.02 0.086,0.133 l 0,1.309 c 0,0.093 0,0.132 -0.059,0.132 -0.023,0 -0.043,0 -0.089,-0.062 l -0.274,-0.41 c -0.207,0.199 -0.488,0.472 -1.019,0.472 -1.032,0 -1.918,-0.875 -1.918,-2.003 z"
         style="fill:#000000;fill-opacity:1;fill-rule:nonzero;stroke:none"
         id="path28" />
      <path
         inkscape:connector-curvature="0"
         d="m 80.129,61.778 -0.008,0.132 -0.016,0.125 -0.031,0.125 -0.019,0.059 -0.047,0.117 -0.028,0.055 -0.031,0.054 -0.031,0.051 -0.07,0.102 -0.039,0.047 -0.039,0.043 -0.086,0.086 -0.047,0.039 -0.047,0.035 -0.102,0.062 -0.054,0.032 -0.055,0.027 -0.055,0.023 -0.054,0.02 -0.118,0.031 -0.058,0.012 -0.063,0.008 -0.125,0.007 -0.004,-0.121 c 0.243,0 0.481,-0.125 0.625,-0.359 0.145,-0.238 0.145,-0.559 0.145,-0.77 0,-0.199 0,-0.496 -0.125,-0.738 -0.121,-0.25 -0.363,-0.41 -0.641,-0.41 -0.234,0 -0.48,0.117 -0.629,0.371 -0.136,0.242 -0.136,0.578 -0.136,0.777 0,0.215 0,0.516 0.132,0.754 0.149,0.258 0.407,0.375 0.629,0.375 l 0.004,0.121 c -0.687,0 -1.226,-0.601 -1.226,-1.292 0,-0.711 0.578,-1.243 1.222,-1.243 0.668,0 1.227,0.539 1.227,1.243 z"
         style="fill:#000000;fill-opacity:1;fill-rule:nonzero;stroke:none"
         id="path30" />
      <path
         inkscape:connector-curvature="0"
         d="m 80.902,62.496 0,-1.48 c 0,-0.25 -0.062,-0.25 -0.433,-0.25 l 0,-0.172 c 0.195,0.008 0.476,0.019 0.625,0.019 0.144,0 0.433,-0.011 0.617,-0.019 l 0,0.172 c -0.367,0 -0.426,0 -0.426,0.25 l 0,1.015 c 0,0.575 0.391,0.883 0.742,0.883 0.348,0 0.411,-0.297 0.411,-0.613 l 0,-1.285 c 0,-0.25 -0.063,-0.25 -0.434,-0.25 l 0,-0.172 c 0.195,0.008 0.476,0.019 0.625,0.019 0.144,0 0.434,-0.011 0.621,-0.019 l 0,0.172 c -0.371,0 -0.434,0 -0.434,0.25 l 0,1.015 c 0,0.575 0.395,0.883 0.75,0.883 0.348,0 0.407,-0.297 0.407,-0.613 l 0,-1.285 c 0,-0.25 -0.059,-0.25 -0.43,-0.25 l 0,-0.172 c 0.191,0.008 0.473,0.019 0.625,0.019 0.141,0 0.43,-0.011 0.617,-0.019 l 0,0.172 c -0.285,0 -0.426,0 -0.43,0.168 l 0,1.054 c 0,0.473 0,0.645 -0.171,0.844 -0.079,0.094 -0.262,0.203 -0.582,0.203 -0.465,0 -0.704,-0.328 -0.801,-0.539 -0.074,0.481 -0.485,0.539 -0.735,0.539 -0.402,0 -0.664,-0.238 -0.816,-0.578 l 0,0.578 -0.781,-0.058 0,-0.172 c 0.386,0 0.433,-0.039 0.433,-0.309 z"
         style="fill:#000000;fill-opacity:1;fill-rule:nonzero;stroke:none"
         id="path32" />
      <path
         inkscape:connector-curvature="0"
         d="m 85.848,62.672 0,0.363 -0.797,-0.058 0,-0.172 c 0.394,0 0.433,-0.035 0.433,-0.277 l 0,-2.583 c 0,-0.25 -0.062,-0.25 -0.433,-0.25 l 0,-0.171 c 0.191,0.007 0.476,0.015 0.621,0.015 0.148,0 0.43,-0.008 0.621,-0.015 l 0,0.171 c -0.367,0 -0.43,0 -0.43,0.25 l 0,0.977 0.078,0.07 c -0.078,0.118 -0.078,0.125 -0.078,0.231 l 0,1.234 c 0.16,0.281 0.43,0.442 0.715,0.442 0.402,0 0.738,-0.485 0.738,-1.11 0,-0.668 -0.386,-1.133 -0.796,-1.133 -0.219,0 -0.43,0.11 -0.579,0.336 l -0.078,-0.07 c 0.028,-0.09 0.262,-0.387 0.68,-0.387 0.66,0 1.23,0.539 1.23,1.254 0,0.703 -0.535,1.246 -1.152,1.246 -0.43,0 -0.664,-0.242 -0.773,-0.363 z"
         style="fill:#000000;fill-opacity:1;fill-rule:nonzero;stroke:none"
         id="path34" />
      <path
         inkscape:connector-curvature="0"
         d="m 90.133,61.031 0,-0.496 0.793,0.059 0,0.172 c -0.387,0 -0.43,0.039 -0.43,0.308 l 0,1.961 -0.812,-0.058 0,-0.172 c 0.386,0 0.429,-0.039 0.429,-0.309 l 0,-0.984 c 0,-0.481 -0.265,-0.856 -0.668,-0.856 -0.465,0 -0.484,0.258 -0.484,0.543 l 0,1.836 -0.813,-0.058 0,-0.172 c 0.43,0 0.43,-0.016 0.43,-0.508 l 0,-0.828 c 0,-0.434 0,-0.934 0.84,-0.934 0.309,0 0.551,0.153 0.715,0.496 z"
         style="fill:#000000;fill-opacity:1;fill-rule:nonzero;stroke:none"
         id="path36" />
      <path
         inkscape:connector-curvature="0"
         d="m 92,62.805 0.789,0 0,0.172 -0.789,0 0,1.015 -0.137,0 c -0.008,-0.453 -0.172,-1.043 -0.715,-1.066 l 0,-0.121 0.469,0 0,-1.524 c 0,-0.679 0.516,-0.746 0.715,-0.746 0.391,0 0.547,0.391 0.547,0.746 l 0,0.313 -0.141,0 0,-0.301 c 0,-0.41 -0.164,-0.621 -0.367,-0.621 C 92,60.672 92,61.176 92,61.27 l 0,1.535 z"
         style="fill:#000000;fill-opacity:1;fill-rule:nonzero;stroke:none"
         id="path38" />
      <path
         inkscape:connector-curvature="0"
         d="m 93.797,61.871 0.008,0.117 c 0.031,0.825 0.496,0.961 0.687,0.961 0.567,0 0.621,-0.75 0.621,-0.961 l -1.308,0 -0.008,-0.117 1.543,0 c 0.121,0 0.137,0 0.137,0.117 0,0.547 -0.297,1.082 -0.985,1.082 -0.644,0 -1.152,-0.57 -1.152,-1.261 0,-0.739 0.582,-1.274 1.215,-1.274 0.675,0 0.922,0.614 0.922,0.715 0,0.059 -0.043,0.07 -0.071,0.07 -0.051,0 -0.062,-0.035 -0.074,-0.078 -0.191,-0.57 -0.687,-0.57 -0.742,-0.57 -0.277,0 -0.5,0.168 -0.625,0.371 -0.168,0.266 -0.168,0.629 -0.168,0.828 z"
         style="fill:#000000;fill-opacity:1;fill-rule:nonzero;stroke:none"
         id="path40" />
      <path
         inkscape:connector-curvature="0"
         d="m 96.555,62.43 0,0.605 -0.766,-0.058 0,-0.172 c 0.383,0 0.43,-0.039 0.43,-0.309 l 0,-1.48 c 0,-0.25 -0.063,-0.25 -0.43,-0.25 l 0,-0.172 c 0.215,0.008 0.473,0.019 0.629,0.019 0.219,0 0.48,0 0.703,-0.019 l 0,0.172 -0.117,0 c -0.41,0 -0.422,0.058 -0.422,0.262 l 0,0.851 c 0,0.543 0.234,1.035 0.652,1.035 0.039,0 0.051,0 0.063,-0.004 -0.02,-0.004 -0.129,-0.07 -0.129,-0.215 0,-0.156 0.117,-0.238 0.238,-0.238 0.102,0 0.239,0.067 0.239,0.242 0,0.18 -0.172,0.336 -0.411,0.336 -0.402,0 -0.601,-0.367 -0.679,-0.605 z"
         style="fill:#000000;fill-opacity:1;fill-rule:nonzero;stroke:none"
         id="path42" />
      <path
         inkscape:connector-curvature="0"
         d="m 21.148,26.442 -0.011,0.132 0,1.395 c 0,0.172 0.008,0.207 0.25,0.207 l 0.457,0 c 0.82,0 0.82,-0.547 0.82,-0.801 0,-0.242 0,-0.801 -0.82,-0.801 l -0.707,0 0.011,-0.132 0.875,0 c 0.618,0 1.172,0.418 1.172,0.933 0,0.504 -0.507,0.961 -1.215,0.961 l -1.82,0 0,-0.16 0.125,0 c 0.395,0 0.406,-0.059 0.406,-0.242 l 0,-2.719 c 0,-0.184 -0.011,-0.242 -0.406,-0.242 l -0.125,0 0,-0.16 c 0.18,0.015 0.563,0.015 0.758,0.015 0.195,0 0.582,0 0.762,-0.015 l 0,0.16 -0.121,0 c -0.399,0 -0.411,0.058 -0.411,0.242 l 0,1.227 z"
         style="fill:#000000;fill-opacity:1;fill-rule:nonzero;stroke:none"
         id="path44" />
      <path
         inkscape:connector-curvature="0"
         d="m 23.781,26.574 0.004,-0.097 0.008,-0.098 0.012,-0.098 0.015,-0.093 0.02,-0.09 0.055,-0.18 0.035,-0.086 0.035,-0.082 0.043,-0.082 0.043,-0.078 0.047,-0.078 0.05,-0.07 0.055,-0.071 0.059,-0.07 0.058,-0.063 0.063,-0.062 0.066,-0.059 0.067,-0.054 0.07,-0.051 0.148,-0.094 0.079,-0.039 0.078,-0.035 0.082,-0.035 0.082,-0.028 0.082,-0.023 0.086,-0.02 0.086,-0.015 0.089,-0.012 0.09,-0.008 0.086,-0.004 c 0.844,0 1.348,0.719 1.348,1.317 0,0.051 0,0.086 -0.067,0.086 -0.058,0 -0.058,-0.032 -0.062,-0.082 -0.043,-0.739 -0.594,-1.16 -1.156,-1.16 -0.313,0 -1.324,0.175 -1.324,1.71 0,1.543 1.007,1.719 1.32,1.719 0.562,0 1.019,-0.469 1.125,-1.222 0.012,-0.071 0.012,-0.09 0.082,-0.09 0.082,0 0.082,0.019 0.082,0.125 l 0,1.222 c 0,0.086 0,0.121 -0.059,0.121 -0.019,0 -0.039,0 -0.082,-0.058 l -0.258,-0.383 c -0.187,0.188 -0.453,0.441 -0.949,0.441 -0.961,0 -1.793,-0.816 -1.793,-1.871 z"
         style="fill:#000000;fill-opacity:1;fill-rule:nonzero;stroke:none"
         id="path46" />
      <path
         inkscape:connector-curvature="0"
         d="m 29.578,26.653 0.047,0.011 0.047,0.008 0.043,0.016 0.047,0.011 0.043,0.016 0.039,0.016 0.043,0.019 0.078,0.039 0.07,0.039 0.07,0.047 0.032,0.024 0.031,0.027 0.082,0.082 0.023,0.027 0.024,0.032 0.023,0.027 0.02,0.031 0.015,0.031 0.02,0.032 0.012,0.035 0.011,0.031 0.012,0.035 0.016,0.071 0.008,0.031 0,0.035 0.004,0.039 c 0,0.445 -0.477,0.871 -1.145,0.871 l -0.039,-0.16 c 0.5,0 0.68,-0.438 0.68,-0.711 0,-0.332 -0.25,-0.766 -0.825,-0.766 l -0.746,0 0,-0.113 0.969,0 c 0.512,0 0.727,-0.48 0.727,-0.824 0,-0.367 -0.266,-0.789 -0.797,-0.789 l -0.645,0 c -0.246,0 -0.254,0.035 -0.254,0.207 l 0,2.789 c 0,0.172 0.008,0.207 0.254,0.207 l 0.637,0 0.039,0.16 -1.887,0 0,-0.16 0.121,0 c 0.399,0 0.407,-0.059 0.407,-0.242 l 0,-2.719 c 0,-0.184 -0.008,-0.242 -0.407,-0.242 l -0.121,0 0,-0.16 2.02,0 c 0.687,0 1.148,0.461 1.148,0.945 0,0.445 -0.422,0.836 -0.996,0.895 z"
         style="fill:#000000;fill-opacity:1;fill-rule:nonzero;stroke:none"
         id="path48" />
      <path
         inkscape:connector-curvature="0"
         d="m 4.813,49.781 0.007,0.02 0.012,0.019 0.008,0.024 0.008,0.016 0.035,0.058 0.012,0.016 0.011,0.019 0.016,0.016 0.012,0.016 0.015,0.019 0.016,0.016 0.015,0.011 0.04,0.032 0.015,0.011 0.024,0.012 0.019,0.012 0.047,0.023 0.023,0.008 0.11,0.031 0.062,0.008 0.035,0.004 0.032,0.004 0.039,0.004 0.035,0 0,0.183 C 5.277,50.352 5.039,50.344 4.883,50.344 c -0.176,0 -0.52,0.016 -0.676,0.019 l 0,-0.183 c 0.309,-0.004 0.434,-0.16 0.434,-0.297 0,-0.047 -0.016,-0.082 -0.028,-0.117 l -1.09,-2.863 -1.132,3 c -0.036,0.082 -0.036,0.093 -0.036,0.105 0,0.172 0.34,0.172 0.489,0.172 l 0,0.183 C 2.629,50.344 2.219,50.344 1.996,50.344 c -0.289,0 -0.543,0.016 -0.754,0.019 l 0,-0.183 c 0.383,0 0.496,0 0.578,-0.227 L 3.199,46.309 C 3.238,46.195 3.27,46.18 3.348,46.18 c 0.101,0 0.113,0.027 0.14,0.109 l 1.325,3.492 z"
         style="fill:#000000;fill-opacity:1;fill-rule:nonzero;stroke:none"
         id="path50" />
      <path
         inkscape:connector-curvature="0"
         d="m 5.734,47.68 0.004,0.125 c 0.035,0.887 0.535,1.031 0.739,1.031 0.609,0 0.668,-0.801 0.668,-1.031 l -1.407,0 -0.004,-0.125 1.657,0 c 0.129,0 0.144,0 0.144,0.125 0,0.586 -0.32,1.164 -1.058,1.164 -0.692,0 -1.239,-0.613 -1.239,-1.356 0,-0.793 0.625,-1.371 1.309,-1.371 0.723,0 0.988,0.661 0.988,0.774 0,0.058 -0.043,0.07 -0.074,0.07 -0.055,0 -0.066,-0.035 -0.078,-0.082 -0.207,-0.613 -0.742,-0.613 -0.801,-0.613 -0.297,0 -0.535,0.179 -0.672,0.398 -0.176,0.285 -0.176,0.68 -0.176,0.891 z"
         style="fill:#000000;fill-opacity:1;fill-rule:nonzero;stroke:none"
         id="path52" />
      <path
         inkscape:connector-curvature="0"
         d="m 8.359,46.758 0,-0.023 -0.004,-0.024 0,-0.039 -0.003,-0.019 0,-0.016 L 8.348,46.621 8.34,46.606 8.336,46.594 8.332,46.578 8.324,46.57 8.309,46.547 8.297,46.539 8.289,46.531 8.277,46.528 8.262,46.52 8.25,46.516 8.234,46.512 8.215,46.508 8.199,46.504 8.18,46.5 l -0.035,0 -0.008,-0.004 -0.067,0 -0.011,-0.004 -0.164,0 0,-0.183 c 0.207,0.008 0.511,0.019 0.668,0.019 0.156,0 0.464,-0.011 0.667,-0.019 l 0,0.183 c -0.398,0 -0.46,0 -0.46,0.266 l 0,1.094 c 0,0.617 0.418,0.949 0.796,0.949 0.375,0 0.442,-0.32 0.442,-0.656 l 0,-1.387 c 0,-0.266 -0.067,-0.266 -0.465,-0.266 l 0,-0.183 c 0.211,0.008 0.512,0.019 0.672,0.019 0.156,0 0.465,-0.011 0.668,-0.019 l 0,0.183 c -0.309,0 -0.461,0 -0.465,0.18 l 0,1.133 c 0,0.512 0,0.695 -0.184,0.906 -0.082,0.106 -0.281,0.223 -0.621,0.223 -0.5,0 -0.765,-0.356 -0.863,-0.582 l 0,2.078 -0.855,-0.067 0,-0.183 c 0.414,0 0.464,-0.039 0.464,-0.332 l 0,-3.09 z"
         style="fill:#000000;fill-opacity:1;fill-rule:nonzero;stroke:none"
         id="path54" />
      <path
         inkscape:connector-curvature="0"
         d="m 12.059,48.934 -0.832,-0.067 0,-0.183 c 0.386,0 0.441,-0.035 0.441,-0.328 l 0,-1.598 c 0,-0.266 -0.066,-0.266 -0.465,-0.266 l 0,-0.183 c 0.192,0.008 0.508,0.019 0.652,0.019 0.211,0 0.418,-0.011 0.622,-0.019 l 0,0.183 c -0.395,0 -0.418,0.032 -0.418,0.262 l 0,2.18 z"
         style="fill:#000000;fill-opacity:1;fill-rule:nonzero;stroke:none"
         id="path56" />
      <path
         inkscape:connector-curvature="0"
         d="m 12.082,49.965 0,0.02 -0.004,0.015 0,0.016 -0.004,0.019 -0.011,0.047 -0.008,0.012 -0.004,0.016 -0.008,0.015 -0.016,0.024 -0.011,0.011 -0.008,0.012 -0.012,0.012 -0.008,0.011 -0.011,0.008 -0.012,0.012 -0.024,0.016 -0.015,0.007 -0.012,0.008 -0.016,0.008 -0.011,0.004 -0.016,0.004 -0.012,0.004 -0.046,0.012 -0.016,0 -0.016,0.003 -0.015,0 c -0.184,0 -0.313,-0.16 -0.313,-0.316 0,-0.16 0.129,-0.312 0.313,-0.312 0.168,0 0.316,0.121 0.316,0.312 z"
         style="fill:#000000;fill-opacity:1;fill-rule:nonzero;stroke:none"
         id="path58" />
      <path
         inkscape:connector-curvature="0"
         d="m 13.348,47.602 0,0.09 0.004,0.043 0,0.043 0.015,0.156 0.008,0.035 0.004,0.035 0.016,0.07 0.015,0.067 0.016,0.062 0.023,0.055 0.02,0.055 0.023,0.054 0.024,0.047 0.054,0.086 0.032,0.039 0.027,0.035 0.031,0.036 0.063,0.054 0.035,0.028 0.031,0.023 0.035,0.02 0.031,0.015 0.071,0.031 0.031,0.012 0.035,0.008 0.031,0.008 0.036,0.004 0.027,0.004 0.031,0.003 0.031,0 c 0.051,0 0.426,-0.003 0.637,-0.218 -0.246,-0.02 -0.281,-0.196 -0.281,-0.274 0,-0.156 0.105,-0.273 0.273,-0.273 0.153,0 0.274,0.101 0.274,0.277 0,0.403 -0.453,0.637 -0.91,0.637 -0.743,0 -1.289,-0.641 -1.289,-1.379 0,-0.758 0.589,-1.348 1.277,-1.348 0.797,0 0.984,0.715 0.984,0.774 0,0.058 -0.058,0.058 -0.074,0.058 -0.055,0 -0.066,-0.023 -0.078,-0.058 -0.172,-0.551 -0.559,-0.625 -0.777,-0.625 -0.313,0 -0.836,0.258 -0.836,1.211 z"
         style="fill:#000000;fill-opacity:1;fill-rule:nonzero;stroke:none"
         id="path60" />
      <path
         inkscape:connector-curvature="0"
         d="m 16.332,50.43 -0.855,-0.067 0,-0.183 c 0.418,0 0.464,-0.039 0.464,-0.332 l 0,-3.09 c 0,-0.266 -0.066,-0.266 -0.464,-0.266 l 0,-0.183 c 0.199,0.008 0.511,0.019 0.66,0.019 0.148,0 0.441,-0.011 0.66,-0.019 l 0,0.183 c -0.399,0 -0.465,0 -0.465,0.266 l 0,3.672 z"
         style="fill:#000000;fill-opacity:1;fill-rule:nonzero;stroke:none"
         id="path62" />
      <path
         inkscape:connector-curvature="0"
         d="m 17.586,47.68 0.004,0.125 c 0.039,0.887 0.535,1.031 0.738,1.031 0.613,0 0.672,-0.801 0.672,-1.031 l -1.41,0 -0.004,-0.125 1.656,0 c 0.133,0 0.149,0 0.149,0.125 0,0.586 -0.321,1.164 -1.063,1.164 -0.687,0 -1.234,-0.613 -1.234,-1.356 0,-0.793 0.621,-1.371 1.308,-1.371 0.723,0 0.989,0.661 0.989,0.774 0,0.058 -0.047,0.07 -0.078,0.07 -0.055,0 -0.063,-0.035 -0.079,-0.082 -0.203,-0.613 -0.738,-0.613 -0.8,-0.613 -0.297,0 -0.532,0.179 -0.668,0.398 -0.18,0.285 -0.18,0.68 -0.18,0.891 z"
         style="fill:#000000;fill-opacity:1;fill-rule:nonzero;stroke:none"
         id="path64" />
    </g>
    <path
       style="fill:none;stroke:#000000;stroke-width:1;stroke-linecap:square;stroke-linejoin:round;stroke-miterlimit:4;stroke-opacity:1;stroke-dasharray:none;stroke-dashoffset:0"
       d="m 583.73381,407.21459 c -5.9584,0 -10.77719,4.81759 -10.77719,10.80007 0,5.98247 4.81879,10.80008 10.77719,10.80008 l 29.68456,0 -85.46128,85.83215 -145.25581,0.14204 c -5.96409,0.006 -10.77149,4.82332 -10.7772,10.80007 -0.006,5.97675 4.76584,10.80579 10.72993,10.80007 l 150.40807,-0.1894 c 4.10031,-0.005 7.63166,-2.27158 9.45368,-5.63688 l 86.12304,-86.49532 0,29.84231 c 0,5.98247 4.77154,10.80007 10.72993,10.80007 5.9584,0 10.77719,-4.8176 10.77719,-10.80007 l 0,-55.89512 c 0,-0.18694 0.009,-0.38386 0,-0.56842 -0.002,-0.037 -0.0458,-0.0579 -0.0472,-0.0947 -0.003,-0.0503 0.003,-0.092 0,-0.14203 -0.008,-0.0978 0.0106,-0.23395 0,-0.33158 -0.0151,-0.14385 -0.0266,-0.28308 -0.0472,-0.42632 -0.0136,-0.0981 -0.0309,-0.18709 -0.0472,-0.28421 -0.0121,-0.0741 -0.033,-0.16306 -0.0472,-0.23684 -0.008,-0.0421 -0.0389,-0.0528 -0.0472,-0.0947 -0.0262,-0.12733 -0.0165,-0.25252 -0.0472,-0.37895 -1.01242,-4.2199 -4.50637,-7.439 -8.8392,-8.10006 -0.0366,-0.006 -0.0579,-0.0429 -0.0945,-0.0473 -0.14234,-0.0202 -0.28136,-0.0326 -0.42542,-0.0473 -0.0973,-0.0106 -0.18618,-0.0399 -0.28361,-0.0473 -0.0508,-0.005 -0.0909,0.003 -0.14173,0 -0.0367,-0.002 -0.10482,0.002 -0.14173,0 -0.0136,-8.9e-4 -0.0336,4.4e-4 -0.0472,0 -0.17021,-0.008 -0.34771,0 -0.51995,0 -0.0557,0 -0.0862,-8.9e-4 -0.14173,0 l -55.49311,0 z"
       id="rect3174"
       inkscape:connector-curvature="0" />
  </g>
</svg>
