<?xml version="1.0" encoding="UTF-8" standalone="no"?>
<!-- Created with Inkscape (http://www.inkscape.org/) -->

<svg
   xmlns:dc="http://purl.org/dc/elements/1.1/"
   xmlns:cc="http://creativecommons.org/ns#"
   xmlns:rdf="http://www.w3.org/1999/02/22-rdf-syntax-ns#"
   xmlns:svg="http://www.w3.org/2000/svg"
   xmlns="http://www.w3.org/2000/svg"
   xmlns:xlink="http://www.w3.org/1999/xlink"
   xmlns:sodipodi="http://sodipodi.sourceforge.net/DTD/sodipodi-0.dtd"
   xmlns:inkscape="http://www.inkscape.org/namespaces/inkscape"
   width="521.698"
   height="424.22504"
   id="svg3078"
   version="1.1"
   inkscape:version="0.91 r13725"
   sodipodi:docname="inertiaTestSetupDiagramTurning.svg">
  <sodipodi:namedview
     id="base"
     pagecolor="#ffffff"
     bordercolor="#666666"
     borderopacity="1.0"
     inkscape:pageopacity="0.0"
     inkscape:pageshadow="2"
     inkscape:zoom="0.98994949"
     inkscape:cx="276.93892"
     inkscape:cy="293.80008"
     inkscape:document-units="px"
     inkscape:current-layer="layer1"
     showgrid="false"
     inkscape:window-width="1024"
     inkscape:window-height="1243"
     inkscape:window-x="1920"
     inkscape:window-y="0"
     inkscape:window-maximized="1"
     fit-margin-top="0"
     fit-margin-left="0"
     fit-margin-right="0"
     fit-margin-bottom="0" />
  <defs
     id="defs3080">
    <marker
       inkscape:stockid="Arrow1Lend"
       orient="auto"
       refY="0"
       refX="0"
       id="Arrow1Lend"
       style="overflow:visible"
       inkscape:isstock="true">
      <path
         id="path13350"
         d="M 0,0 5,-5 -12.5,0 5,5 0,0 Z"
         style="fill:#000000;fill-opacity:1;fill-rule:evenodd;stroke:#000000;stroke-width:1pt;stroke-opacity:1"
         transform="matrix(-0.8,0,0,-0.8,-10,0)"
         inkscape:connector-curvature="0" />
    </marker>
    <defs
       id="defs12124">
      <g
         id="g12126">
        <symbol
           style="overflow:visible"
           overflow="visible"
           id="textext-c3a1b9e6-0">
          <path
             inkscape:connector-curvature="0"
             style="stroke:none"
             d=""
             id="path12129" />
        </symbol>
        <symbol
           style="overflow:visible"
           overflow="visible"
           id="textext-c3a1b9e6-1">
          <path
             inkscape:connector-curvature="0"
             style="stroke:none"
             d="M 2.40625,-6.59375 C 2.3125,-6.8125 2.28125,-6.8125 2.046875,-6.8125 l -1.671875,0 0,0.3125 0.234375,0 c 0.765625,0 0.78125,0.109375 0.78125,0.46875 l 0,4.984375 c 0,0.265625 0,0.734375 -1.015625,0.734375 L 0.375,0 c 0.34375,-0.015625 0.828125,-0.03125 1.15625,-0.03125 0.328125,0 0.828125,0.015625 1.171875,0.03125 l 0,-0.3125 c -1.03125,0 -1.03125,-0.46875 -1.03125,-0.734375 l 0,-5.375 0.015625,0 2.40625,6.203125 C 4.140625,-0.09375 4.1875,0 4.28125,0 4.390625,0 4.421875,-0.078125 4.46875,-0.1875 L 6.921875,-6.5 l 0,5.71875 c 0,0.359375 -0.015625,0.46875 -0.78125,0.46875 l -0.234375,0 0,0.3125 c 0.359375,-0.03125 1.046875,-0.03125 1.4375,-0.03125 0.375,0 1.046875,0 1.421875,0.03125 l 0,-0.3125 -0.25,0 c -0.765625,0 -0.78125,-0.109375 -0.78125,-0.46875 l 0,-5.25 C 7.734375,-6.390625 7.75,-6.5 8.515625,-6.5 l 0.25,0 0,-0.3125 -1.6875,0 C 6.8125,-6.8125 6.8125,-6.796875 6.75,-6.625 L 4.5625,-1 Z m 0,0"
             id="path12132" />
        </symbol>
        <symbol
           style="overflow:visible"
           overflow="visible"
           id="textext-c3a1b9e6-2">
          <path
             inkscape:connector-curvature="0"
             style="stroke:none"
             d="m 3.3125,-0.75 c 0.046875,0.390625 0.3125,0.8125 0.78125,0.8125 0.21875,0 0.828125,-0.140625 0.828125,-0.953125 l 0,-0.5625 -0.25,0 0,0.5625 c 0,0.578125 -0.25,0.640625 -0.359375,0.640625 -0.328125,0 -0.375,-0.453125 -0.375,-0.5 l 0,-1.984375 c 0,-0.421875 0,-0.8125 -0.359375,-1.1875 C 3.1875,-4.3125 2.6875,-4.46875 2.21875,-4.46875 c -0.828125,0 -1.515625,0.46875 -1.515625,1.125 0,0.296875 0.203125,0.46875 0.46875,0.46875 0.28125,0 0.453125,-0.203125 0.453125,-0.453125 0,-0.125 -0.046875,-0.453125 -0.515625,-0.453125 C 1.390625,-4.140625 1.875,-4.25 2.1875,-4.25 c 0.5,0 1.0625,0.390625 1.0625,1.28125 l 0,0.359375 c -0.515625,0.03125 -1.203125,0.0625 -1.828125,0.359375 -0.75,0.34375 -1,0.859375 -1,1.296875 0,0.8125 0.96875,1.0625 1.59375,1.0625 0.65625,0 1.109375,-0.40625 1.296875,-0.859375 z M 3.25,-2.390625 l 0,1 c 0,0.9375 -0.71875,1.28125 -1.171875,1.28125 -0.484375,0 -0.890625,-0.34375 -0.890625,-0.84375 0,-0.546875 0.421875,-1.375 2.0625,-1.4375 z m 0,0"
             id="path12135" />
        </symbol>
        <symbol
           style="overflow:visible"
           overflow="visible"
           id="textext-c3a1b9e6-3">
          <path
             inkscape:connector-curvature="0"
             style="stroke:none"
             d="m 2.21875,-1.71875 c -0.875,0 -0.875,-1 -0.875,-1.21875 0,-0.265625 0.015625,-0.59375 0.15625,-0.84375 0.078125,-0.109375 0.3125,-0.390625 0.71875,-0.390625 0.859375,0 0.859375,0.984375 0.859375,1.21875 0,0.265625 0,0.59375 -0.15625,0.84375 C 2.84375,-2 2.609375,-1.71875 2.21875,-1.71875 Z M 1.0625,-1.328125 c 0,-0.03125 0,-0.265625 0.15625,-0.46875 0.390625,0.28125 0.8125,0.3125 1,0.3125 0.921875,0 1.609375,-0.6875 1.609375,-1.453125 0,-0.375 -0.15625,-0.734375 -0.40625,-0.96875 C 3.78125,-4.25 4.140625,-4.296875 4.3125,-4.296875 c 0.03125,0 0.078125,0 0.109375,0.015625 C 4.3125,-4.25 4.25,-4.140625 4.25,-4.015625 c 0,0.171875 0.140625,0.28125 0.296875,0.28125 0.09375,0 0.28125,-0.0625 0.28125,-0.296875 0,-0.171875 -0.109375,-0.484375 -0.5,-0.484375 -0.203125,0 -0.640625,0.0625 -1.0625,0.46875 C 2.84375,-4.375 2.4375,-4.40625 2.21875,-4.40625 c -0.9375,0 -1.625,0.6875 -1.625,1.453125 0,0.4375 0.21875,0.8125 0.46875,1.03125 -0.125,0.140625 -0.3125,0.46875 -0.3125,0.828125 0,0.3125 0.140625,0.6875 0.453125,0.890625 -0.609375,0.15625 -0.921875,0.59375 -0.921875,0.984375 0,0.71875 0.984375,1.265625 2.203125,1.265625 1.171875,0 2.203125,-0.5 2.203125,-1.28125 0,-0.34375 -0.125,-0.859375 -0.640625,-1.140625 -0.53125,-0.265625 -1.109375,-0.265625 -1.71875,-0.265625 -0.25,0 -0.671875,0 -0.75,-0.015625 C 1.265625,-0.703125 1.0625,-1 1.0625,-1.328125 Z M 2.5,1.828125 c -1.015625,0 -1.703125,-0.515625 -1.703125,-1.046875 0,-0.453125 0.375,-0.828125 0.8125,-0.84375 l 0.59375,0 c 0.859375,0 1.96875,0 1.96875,0.84375 0,0.546875 -0.703125,1.046875 -1.671875,1.046875 z m 0,0"
             id="path12138" />
        </symbol>
        <symbol
           style="overflow:visible"
           overflow="visible"
           id="textext-c3a1b9e6-4">
          <path
             inkscape:connector-curvature="0"
             style="stroke:none"
             d="m 1.09375,-3.421875 0,2.671875 c 0,0.4375 -0.109375,0.4375 -0.78125,0.4375 l 0,0.3125 c 0.359375,-0.015625 0.859375,-0.03125 1.140625,-0.03125 0.25,0 0.765625,0.015625 1.109375,0.03125 l 0,-0.3125 c -0.671875,0 -0.78125,0 -0.78125,-0.4375 l 0,-1.84375 C 1.78125,-3.625 2.5,-4.1875 3.125,-4.1875 c 0.640625,0 0.75,0.53125 0.75,1.109375 l 0,2.328125 c 0,0.4375 -0.109375,0.4375 -0.78125,0.4375 l 0,0.3125 c 0.34375,-0.015625 0.859375,-0.03125 1.125,-0.03125 0.25,0 0.78125,0.015625 1.109375,0.03125 l 0,-0.3125 c -0.515625,0 -0.765625,0 -0.765625,-0.296875 l 0,-1.90625 c 0,-0.859375 0,-1.15625 -0.3125,-1.515625 -0.140625,-0.171875 -0.46875,-0.375 -1.046875,-0.375 C 2.46875,-4.40625 2,-3.984375 1.71875,-3.359375 l 0,-1.046875 -1.40625,0.109375 0,0.3125 c 0.703125,0 0.78125,0.0625 0.78125,0.5625 z m 0,0"
             id="path12141" />
        </symbol>
        <symbol
           style="overflow:visible"
           overflow="visible"
           id="textext-c3a1b9e6-5">
          <path
             inkscape:connector-curvature="0"
             style="stroke:none"
             d="M 1.109375,-2.515625 C 1.171875,-4 2.015625,-4.25 2.359375,-4.25 c 1.015625,0 1.125,1.34375 1.125,1.734375 z m 0,0.21875 2.78125,0 c 0.21875,0 0.25,0 0.25,-0.21875 0,-0.984375 -0.546875,-1.953125 -1.78125,-1.953125 -1.15625,0 -2.078125,1.03125 -2.078125,2.28125 0,1.328125 1.046875,2.296875 2.1875,2.296875 C 3.6875,0.109375 4.140625,-1 4.140625,-1.1875 4.140625,-1.28125 4.0625,-1.3125 4,-1.3125 c -0.078125,0 -0.109375,0.0625 -0.125,0.140625 -0.34375,1.03125 -1.25,1.03125 -1.34375,1.03125 -0.5,0 -0.890625,-0.296875 -1.125,-0.671875 -0.296875,-0.46875 -0.296875,-1.125 -0.296875,-1.484375 z m 0,0"
             id="path12144" />
        </symbol>
        <symbol
           style="overflow:visible"
           overflow="visible"
           id="textext-c3a1b9e6-6">
          <path
             inkscape:connector-curvature="0"
             style="stroke:none"
             d="m 1.71875,-3.984375 1.4375,0 0,-0.3125 -1.4375,0 0,-1.828125 -0.25,0 c 0,0.8125 -0.296875,1.875 -1.28125,1.921875 l 0,0.21875 0.84375,0 0,2.75 c 0,1.21875 0.9375,1.34375 1.296875,1.34375 0.703125,0 0.984375,-0.703125 0.984375,-1.34375 l 0,-0.5625 -0.25,0 0,0.546875 c 0,0.734375 -0.296875,1.109375 -0.671875,1.109375 -0.671875,0 -0.671875,-0.90625 -0.671875,-1.078125 z m 0,0"
             id="path12147" />
        </symbol>
        <symbol
           style="overflow:visible"
           overflow="visible"
           id="textext-c3a1b9e6-7">
          <path
             inkscape:connector-curvature="0"
             style="stroke:none"
             d="M 4.6875,-2.140625 C 4.6875,-3.40625 3.703125,-4.46875 2.5,-4.46875 c -1.25,0 -2.21875,1.09375 -2.21875,2.328125 0,1.296875 1.03125,2.25 2.203125,2.25 1.203125,0 2.203125,-0.984375 2.203125,-2.25 z m -2.1875,2 c -0.4375,0 -0.875,-0.203125 -1.140625,-0.671875 -0.25,-0.4375 -0.25,-1.046875 -0.25,-1.40625 0,-0.390625 0,-0.921875 0.234375,-1.359375 C 1.609375,-4.03125 2.078125,-4.25 2.484375,-4.25 c 0.4375,0 0.859375,0.21875 1.125,0.65625 0.265625,0.421875 0.265625,1 0.265625,1.375 0,0.359375 0,0.90625 -0.21875,1.34375 C 3.421875,-0.421875 2.984375,-0.140625 2.5,-0.140625 Z m 0,0"
             id="path12150" />
        </symbol>
        <symbol
           style="overflow:visible"
           overflow="visible"
           id="textext-c3a1b9e6-8">
          <path
             inkscape:connector-curvature="0"
             style="stroke:none"
             d="m 1.09375,-3.421875 0,2.671875 c 0,0.4375 -0.109375,0.4375 -0.78125,0.4375 l 0,0.3125 c 0.359375,-0.015625 0.859375,-0.03125 1.140625,-0.03125 0.25,0 0.765625,0.015625 1.109375,0.03125 l 0,-0.3125 c -0.671875,0 -0.78125,0 -0.78125,-0.4375 l 0,-1.84375 C 1.78125,-3.625 2.5,-4.1875 3.125,-4.1875 c 0.640625,0 0.75,0.53125 0.75,1.109375 l 0,2.328125 c 0,0.4375 -0.109375,0.4375 -0.78125,0.4375 l 0,0.3125 c 0.34375,-0.015625 0.859375,-0.03125 1.125,-0.03125 0.25,0 0.78125,0.015625 1.109375,0.03125 l 0,-0.3125 c -0.65625,0 -0.765625,0 -0.765625,-0.4375 l 0,-1.84375 c 0,-1.03125 0.703125,-1.59375 1.34375,-1.59375 0.625,0 0.734375,0.53125 0.734375,1.109375 l 0,2.328125 c 0,0.4375 -0.109375,0.4375 -0.78125,0.4375 l 0,0.3125 c 0.34375,-0.015625 0.859375,-0.03125 1.125,-0.03125 0.265625,0 0.78125,0.015625 1.125,0.03125 l 0,-0.3125 c -0.515625,0 -0.765625,0 -0.78125,-0.296875 l 0,-1.90625 c 0,-0.859375 0,-1.15625 -0.3125,-1.515625 -0.140625,-0.171875 -0.46875,-0.375 -1.046875,-0.375 -0.828125,0 -1.28125,0.59375 -1.4375,0.984375 C 4.390625,-4.296875 3.65625,-4.40625 3.203125,-4.40625 2.46875,-4.40625 2,-3.984375 1.71875,-3.359375 l 0,-1.046875 -1.40625,0.109375 0,0.3125 c 0.703125,0 0.78125,0.0625 0.78125,0.5625 z m 0,0"
             id="path12153" />
        </symbol>
        <symbol
           style="overflow:visible"
           overflow="visible"
           id="textext-c3a1b9e6-9">
          <path
             inkscape:connector-curvature="0"
             style="stroke:none"
             d="m 1.671875,-3.3125 0,-1.09375 -1.390625,0.109375 0,0.3125 c 0.703125,0 0.78125,0.0625 0.78125,0.5625 l 0,2.671875 c 0,0.4375 -0.109375,0.4375 -0.78125,0.4375 l 0,0.3125 c 0.390625,-0.015625 0.859375,-0.03125 1.140625,-0.03125 0.390625,0 0.859375,0 1.265625,0.03125 l 0,-0.3125 -0.21875,0 c -0.734375,0 -0.75,-0.109375 -0.75,-0.46875 l 0,-1.53125 c 0,-0.984375 0.421875,-1.875 1.171875,-1.875 0.0625,0 0.09375,0 0.109375,0.015625 -0.03125,0 -0.234375,0.125 -0.234375,0.390625 0,0.265625 0.21875,0.421875 0.4375,0.421875 0.171875,0 0.421875,-0.125 0.421875,-0.4375 0,-0.3125 -0.3125,-0.609375 -0.734375,-0.609375 -0.734375,0 -1.09375,0.671875 -1.21875,1.09375 z m 0,0"
             id="path12156" />
        </symbol>
      </g>
    </defs>
    <defs
       id="defs11942">
      <g
         id="g11944">
        <symbol
           style="overflow:visible"
           id="textext-103d5097-0"
           overflow="visible">
          <path
             inkscape:connector-curvature="0"
             id="path11947"
             d=""
             style="stroke:none" />
        </symbol>
        <symbol
           style="overflow:visible"
           id="textext-103d5097-1"
           overflow="visible">
          <path
             inkscape:connector-curvature="0"
             id="path11950"
             d="m 2.21875,-3.65625 0,-2.4375 C 2.21875,-6.4375 2.234375,-6.5 2.703125,-6.5 l 1.234375,0 c 0.96875,0 1.3125,0.84375 1.3125,1.375 0,0.640625 -0.484375,1.46875 -1.59375,1.46875 z M 4.5625,-3.5625 C 5.53125,-3.75 6.21875,-4.390625 6.21875,-5.125 6.21875,-5.984375 5.296875,-6.8125 4,-6.8125 l -3.640625,0 0,0.3125 0.234375,0 c 0.765625,0 0.796875,0.109375 0.796875,0.46875 l 0,5.25 c 0,0.359375 -0.03125,0.46875 -0.796875,0.46875 l -0.234375,0 0,0.3125 3.90625,0 c 1.328125,0 2.21875,-0.890625 2.21875,-1.828125 0,-0.859375 -0.8125,-1.609375 -1.921875,-1.734375 z m -0.609375,3.25 -1.25,0 c -0.46875,0 -0.484375,-0.0625 -0.484375,-0.390625 l 0,-2.71875 1.875,0 C 5.078125,-3.421875 5.5,-2.5 5.5,-1.828125 5.5,-1.125 4.96875,-0.3125 3.953125,-0.3125 Z m 0,0"
             style="stroke:none" />
        </symbol>
        <symbol
           style="overflow:visible"
           id="textext-103d5097-2"
           overflow="visible">
          <path
             inkscape:connector-curvature="0"
             id="path11953"
             d="m 3.3125,-0.75 c 0.046875,0.390625 0.3125,0.8125 0.78125,0.8125 0.21875,0 0.828125,-0.140625 0.828125,-0.953125 l 0,-0.5625 -0.25,0 0,0.5625 c 0,0.578125 -0.25,0.640625 -0.359375,0.640625 -0.328125,0 -0.375,-0.453125 -0.375,-0.5 l 0,-1.984375 c 0,-0.421875 0,-0.8125 -0.359375,-1.1875 C 3.1875,-4.3125 2.6875,-4.46875 2.21875,-4.46875 c -0.828125,0 -1.515625,0.46875 -1.515625,1.125 0,0.296875 0.203125,0.46875 0.46875,0.46875 0.28125,0 0.453125,-0.203125 0.453125,-0.453125 0,-0.125 -0.046875,-0.453125 -0.515625,-0.453125 C 1.390625,-4.140625 1.875,-4.25 2.1875,-4.25 c 0.5,0 1.0625,0.390625 1.0625,1.28125 l 0,0.359375 c -0.515625,0.03125 -1.203125,0.0625 -1.828125,0.359375 -0.75,0.34375 -1,0.859375 -1,1.296875 0,0.8125 0.96875,1.0625 1.59375,1.0625 0.65625,0 1.109375,-0.40625 1.296875,-0.859375 z M 3.25,-2.390625 l 0,1 c 0,0.9375 -0.71875,1.28125 -1.171875,1.28125 -0.484375,0 -0.890625,-0.34375 -0.890625,-0.84375 0,-0.546875 0.421875,-1.375 2.0625,-1.4375 z m 0,0"
             style="stroke:none" />
        </symbol>
        <symbol
           style="overflow:visible"
           id="textext-103d5097-3"
           overflow="visible">
          <path
             inkscape:connector-curvature="0"
             id="path11956"
             d="m 1.71875,-3.984375 1.4375,0 0,-0.3125 -1.4375,0 0,-1.828125 -0.25,0 c 0,0.8125 -0.296875,1.875 -1.28125,1.921875 l 0,0.21875 0.84375,0 0,2.75 c 0,1.21875 0.9375,1.34375 1.296875,1.34375 0.703125,0 0.984375,-0.703125 0.984375,-1.34375 l 0,-0.5625 -0.25,0 0,0.546875 c 0,0.734375 -0.296875,1.109375 -0.671875,1.109375 -0.671875,0 -0.671875,-0.90625 -0.671875,-1.078125 z m 0,0"
             style="stroke:none" />
        </symbol>
        <symbol
           style="overflow:visible"
           id="textext-103d5097-4"
           overflow="visible">
          <path
             inkscape:connector-curvature="0"
             id="path11959"
             d="M 1.109375,-2.515625 C 1.171875,-4 2.015625,-4.25 2.359375,-4.25 c 1.015625,0 1.125,1.34375 1.125,1.734375 z m 0,0.21875 2.78125,0 c 0.21875,0 0.25,0 0.25,-0.21875 0,-0.984375 -0.546875,-1.953125 -1.78125,-1.953125 -1.15625,0 -2.078125,1.03125 -2.078125,2.28125 0,1.328125 1.046875,2.296875 2.1875,2.296875 C 3.6875,0.109375 4.140625,-1 4.140625,-1.1875 4.140625,-1.28125 4.0625,-1.3125 4,-1.3125 c -0.078125,0 -0.109375,0.0625 -0.125,0.140625 -0.34375,1.03125 -1.25,1.03125 -1.34375,1.03125 -0.5,0 -0.890625,-0.296875 -1.125,-0.671875 -0.296875,-0.46875 -0.296875,-1.125 -0.296875,-1.484375 z m 0,0"
             style="stroke:none" />
        </symbol>
        <symbol
           style="overflow:visible"
           id="textext-103d5097-5"
           overflow="visible">
          <path
             inkscape:connector-curvature="0"
             id="path11962"
             d="m 1.671875,-3.3125 0,-1.09375 -1.390625,0.109375 0,0.3125 c 0.703125,0 0.78125,0.0625 0.78125,0.5625 l 0,2.671875 c 0,0.4375 -0.109375,0.4375 -0.78125,0.4375 l 0,0.3125 c 0.390625,-0.015625 0.859375,-0.03125 1.140625,-0.03125 0.390625,0 0.859375,0 1.265625,0.03125 l 0,-0.3125 -0.21875,0 c -0.734375,0 -0.75,-0.109375 -0.75,-0.46875 l 0,-1.53125 c 0,-0.984375 0.421875,-1.875 1.171875,-1.875 0.0625,0 0.09375,0 0.109375,0.015625 -0.03125,0 -0.234375,0.125 -0.234375,0.390625 0,0.265625 0.21875,0.421875 0.4375,0.421875 0.171875,0 0.421875,-0.125 0.421875,-0.4375 0,-0.3125 -0.3125,-0.609375 -0.734375,-0.609375 -0.734375,0 -1.09375,0.671875 -1.21875,1.09375 z m 0,0"
             style="stroke:none" />
        </symbol>
        <symbol
           style="overflow:visible"
           id="textext-103d5097-6"
           overflow="visible">
          <path
             inkscape:connector-curvature="0"
             id="path11965"
             d="m 4.140625,-3.34375 c 0.25,-0.640625 0.765625,-0.640625 0.921875,-0.640625 l 0,-0.3125 c -0.234375,0.015625 -0.515625,0.03125 -0.75,0.03125 -0.171875,0 -0.640625,-0.015625 -0.859375,-0.03125 l 0,0.3125 c 0.3125,0 0.46875,0.171875 0.46875,0.421875 0,0.109375 -0.015625,0.125 -0.0625,0.25 L 2.84375,-0.875 1.75,-3.546875 C 1.703125,-3.65625 1.6875,-3.6875 1.6875,-3.734375 c 0,-0.25 0.359375,-0.25 0.5625,-0.25 l 0,-0.3125 c -0.265625,0.015625 -0.921875,0.03125 -1.09375,0.03125 -0.265625,0 -0.671875,-0.015625 -0.96875,-0.03125 l 0,0.3125 c 0.484375,0 0.671875,0 0.8125,0.34375 L 2.5,0 C 2.4375,0.125 2.296875,0.453125 2.25,0.59375 2.03125,1.140625 1.75,1.828125 1.109375,1.828125 c -0.046875,0 -0.28125,0 -0.46875,-0.1875 0.3125,-0.03125 0.390625,-0.25 0.390625,-0.421875 0,-0.25 -0.1875,-0.40625 -0.421875,-0.40625 -0.203125,0 -0.421875,0.125 -0.421875,0.421875 0,0.453125 0.421875,0.8125 0.921875,0.8125 0.625,0 1.03125,-0.578125 1.265625,-1.140625 z m 0,0"
             style="stroke:none" />
        </symbol>
      </g>
    </defs>
  </defs>
  <metadata
     id="metadata3083">
    <rdf:RDF>
      <cc:Work
         rdf:about="">
        <dc:format>image/svg+xml</dc:format>
        <dc:type
           rdf:resource="http://purl.org/dc/dcmitype/StillImage" />
        <dc:title></dc:title>
      </cc:Work>
    </rdf:RDF>
  </metadata>
  <g
     inkscape:label="Layer 1"
     inkscape:groupmode="layer"
     id="layer1"
     transform="translate(-57.857034,-294.9206)">
    <g
       id="g11885"
       transform="translate(40.285714,-283.42857)">
      <path
         inkscape:connector-curvature="0"
         d="m 157.91893,921.36212 210.20952,0 0,80.98998 -210.20952,0 0,-80.98998 z"
         style="fill:#ffffff;fill-opacity:1;fill-rule:nonzero;stroke:#000000;stroke-width:0.44423246;stroke-linecap:butt;stroke-linejoin:miter;stroke-miterlimit:10;stroke-dasharray:none;stroke-opacity:1"
         id="path26" />
      <path
         inkscape:connector-curvature="0"
         d="m 201.80521,959.3921 0,0.54549 0.036,0.54034 0.0618,0.52491 0.2007,1.04467 0.14409,0.48373 0.15953,0.48374 0.18011,0.47859 0.22129,0.46315 0.22128,0.44257 0.24187,0.44257 0.26245,0.42198 0.27789,0.4014 0.6021,0.76678 0.68444,0.67929 0.36538,0.32421 0.38081,0.30362 0.38081,0.27789 0.4014,0.26245 0.42199,0.24187 0.42198,0.22128 0.44257,0.2007 0.44257,0.18012 0.44256,0.15953 0.46316,0.14409 0.48373,0.11836 0.45801,0.0823 0.48374,0.0566 0.50432,0.0412 0.48374,0 c 4.64181,0 7.41558,-3.9368 7.41558,-7.23548 0,-0.28303 0,-0.48373 -0.36023,-0.48373 -0.30362,0 -0.30362,0.16467 -0.34479,0.46315 -0.22128,4.0603 -3.25236,6.39151 -6.37092,6.39151 -1.7291,0 -7.29722,-0.96233 -7.29722,-9.42773 0,-8.52201 5.54753,-9.48434 7.27664,-9.48434 3.09797,0 5.62987,2.58851 6.1908,6.75174 0.0618,0.38081 0.0618,0.48373 0.46316,0.48373 0.44256,0 0.44256,-0.10292 0.44256,-0.68443 l 0,-6.7363 c 0,-0.47859 0,-0.67929 -0.30362,-0.67929 -0.11836,0 -0.22128,0 -0.458,0.31906 l -1.41005,2.10992 c -1.06525,-1.02408 -2.51131,-2.42898 -5.24391,-2.42898 -5.31082,0 -9.8703,4.50287 -9.8703,10.30772 z"
         style="fill:#000000;fill-opacity:1;fill-rule:nonzero;stroke:none"
         id="path28" />
      <path
         inkscape:connector-curvature="0"
         d="m 234.12812,963.03042 -0.0412,-0.67929 -0.0823,-0.64327 -0.15953,-0.64327 -0.0978,-0.30362 -0.24187,-0.6021 -0.14409,-0.28303 -0.15953,-0.2779 -0.15953,-0.26245 -0.36023,-0.52491 -0.2007,-0.24186 -0.2007,-0.22129 -0.44257,-0.44257 -0.24187,-0.2007 -0.24186,-0.18011 -0.52491,-0.31906 -0.27789,-0.16468 -0.28304,-0.13894 -0.28304,-0.11836 -0.27789,-0.10293 -0.60724,-0.15953 -0.29848,-0.0618 -0.32421,-0.0412 -0.64326,-0.036 -0.0206,0.62268 c 1.25051,0 2.47529,0.64327 3.21634,1.84746 0.74619,1.22478 0.74619,2.8767 0.74619,3.96253 0,1.02408 0,2.55249 -0.64327,3.79785 -0.62268,1.28654 -1.86805,2.10992 -3.29867,2.10992 -1.2042,0 -2.47015,-0.6021 -3.23693,-1.90922 -0.69987,-1.24536 -0.69987,-2.97447 -0.69987,-3.99855 0,-1.10642 0,-2.65541 0.67929,-3.88019 0.76677,-1.3277 2.09448,-1.9298 3.23692,-1.9298 l 0.0206,-0.62268 c -3.5354,0 -6.30917,3.09283 -6.30917,6.64881 0,3.6589 2.97447,6.39665 6.28858,6.39665 3.43762,0 6.31432,-2.77377 6.31432,-6.39665 z"
         style="fill:#000000;fill-opacity:1;fill-rule:nonzero;stroke:none"
         id="path30" />
      <path
         inkscape:connector-curvature="0"
         d="m 238.10608,959.33549 0,7.61629 c 0,1.28653 -0.31906,1.28653 -2.22828,1.28653 l 0,0.88514 c 1.0035,-0.0412 2.44957,-0.0978 3.21634,-0.0978 0.74104,0 2.22828,0.0566 3.17517,0.0978 l 0,-0.88514 c -1.88863,0 -2.19226,0 -2.19226,-1.28653 l 0,-5.22333 c 0,-2.95903 2.01214,-4.54405 3.81844,-4.54405 1.79086,0 2.11506,1.52841 2.11506,3.15459 l 0,6.61279 c 0,1.28653 -0.3242,1.28653 -2.23342,1.28653 l 0,0.88514 c 1.00349,-0.0412 2.44956,-0.0978 3.21633,-0.0978 0.74105,0 2.23343,0.0566 3.19576,0.0978 l 0,-0.88514 c -1.90922,0 -2.23343,0 -2.23343,-1.28653 l 0,-5.22333 c 0,-2.95903 2.03273,-4.54405 3.85961,-4.54405 1.79085,0 2.09448,1.52841 2.09448,3.15459 l 0,6.61279 c 0,1.28653 -0.30363,1.28653 -2.21284,1.28653 l 0,0.88514 c 0.98291,-0.0412 2.43412,-0.0978 3.21633,-0.0978 0.72561,0 2.21284,0.0566 3.17517,0.0978 l 0,-0.88514 c -1.46665,0 -2.19225,0 -2.21284,-0.86455 l 0,-5.42403 c 0,-2.43412 0,-3.31926 -0.87999,-4.34334 -0.40654,-0.48374 -1.34829,-1.04467 -2.99505,-1.04467 -2.39296,0 -3.62288,1.68794 -4.12206,2.77377 -0.38081,-2.47529 -2.49588,-2.77377 -3.78241,-2.77377 -2.06875,0 -3.41704,1.22478 -4.19925,2.97447 l 0,-2.97447 -4.01914,0.29848 0,0.88513 c 1.98641,0 2.22828,0.2007 2.22828,1.59016 z"
         style="fill:#000000;fill-opacity:1;fill-rule:nonzero;stroke:none"
         id="path32" />
      <path
         inkscape:connector-curvature="0"
         d="m 263.55889,958.42977 0,-1.86805 -4.10147,0.29848 0,0.88513 c 2.02757,0 2.22827,0.18012 2.22827,1.42548 l 0,13.29248 c 0,1.28654 -0.31906,1.28654 -2.22827,1.28654 l 0,0.87999 c 0.98291,-0.036 2.44956,-0.0772 3.19575,-0.0772 0.76163,0 2.21284,0.0412 3.19575,0.0772 l 0,-0.87999 c -1.88863,0 -2.21284,0 -2.21284,-1.28654 l 0,-5.02777 0.4014,-0.36023 c -0.4014,-0.60725 -0.4014,-0.64327 -0.4014,-1.18876 l 0,-6.35034 c 0.82338,-1.44607 2.21284,-2.27459 3.67949,-2.27459 2.06875,0 3.79785,2.49587 3.79785,5.71221 0,3.43762 -1.98641,5.83058 -4.09632,5.83058 -1.12701,0 -2.21285,-0.56608 -2.97962,-1.7291 l -0.4014,0.36023 c 0.14409,0.46315 1.34829,1.99155 3.49938,1.99155 3.39645,0 6.32975,-2.77377 6.32975,-6.45326 0,-3.61773 -2.75319,-6.41209 -5.92835,-6.41209 -2.21284,0 -3.41704,1.24537 -3.97797,1.86805 z"
         style="fill:#000000;fill-opacity:1;fill-rule:nonzero;stroke:none"
         id="path34" />
      <path
         inkscape:connector-curvature="0"
         d="m 285.6101,966.87459 0,2.55248 4.08089,-0.30362 0,-0.88514 c -1.99156,0 -2.21284,-0.2007 -2.21284,-1.58501 l 0,-10.09158 -4.17867,0.29848 0,0.88513 c 1.98641,0 2.2077,0.2007 2.2077,1.59016 l 0,5.0638 c 0,2.4753 -1.36373,4.4051 -3.43763,4.4051 -2.39295,0 -2.49073,-1.32771 -2.49073,-2.79436 l 0,-9.44831 -4.18381,0.29848 0,0.88513 c 2.21284,0 2.21284,0.0823 2.21284,2.61424 l 0,4.26101 c 0,2.23342 0,4.80649 4.32276,4.80649 1.59016,0 2.83552,-0.78736 3.67949,-2.55248 z"
         style="fill:#000000;fill-opacity:1;fill-rule:nonzero;stroke:none"
         id="path36" />
      <path
         inkscape:connector-curvature="0"
         d="m 295.21794,957.74533 4.06031,0 0,-0.88513 -4.06031,0 0,-5.22333 -0.70502,0 c -0.0412,2.3312 -0.88514,5.36742 -3.67949,5.48578 l 0,0.62268 2.41354,0 0,7.84272 c 0,3.49423 2.65541,3.83902 3.67949,3.83902 2.01214,0 2.81494,-2.01214 2.81494,-3.83902 l 0,-1.61074 -0.72561,0 0,1.54899 c 0,2.10991 -0.84396,3.19575 -1.88863,3.19575 -1.90922,0 -1.90922,-2.59365 -1.90922,-3.07739 l 0,-7.89933 z"
         style="fill:#000000;fill-opacity:1;fill-rule:nonzero;stroke:none"
         id="path38" />
      <path
         inkscape:connector-curvature="0"
         d="m 304.46556,962.55183 0.0412,-0.6021 c 0.15953,-4.24557 2.55249,-4.94544 3.5354,-4.94544 2.91786,0 3.19576,3.8596 3.19576,4.94544 l -6.73116,0 -0.0412,0.6021 7.94049,0 c 0.62268,0 0.70502,0 0.70502,-0.6021 0,-2.81494 -1.5284,-5.56812 -5.06895,-5.56812 -3.31411,0 -5.92835,2.9333 -5.92835,6.48928 0,3.803 2.99505,6.55618 6.25256,6.55618 3.47364,0 4.74474,-3.15973 4.74474,-3.67949 0,-0.30362 -0.22128,-0.36023 -0.36538,-0.36023 -0.26245,0 -0.31906,0.18012 -0.38081,0.4014 -0.98291,2.9333 -3.5354,2.9333 -3.81844,2.9333 -1.42548,0 -2.57307,-0.86455 -3.21633,-1.90922 -0.86455,-1.36887 -0.86455,-3.23692 -0.86455,-4.261 z"
         style="fill:#000000;fill-opacity:1;fill-rule:nonzero;stroke:none"
         id="path40" />
      <path
         inkscape:connector-curvature="0"
         d="m 318.65861,959.67514 0,-3.11342 -3.94194,0.29848 0,0.88513 c 1.97097,0 2.21284,0.2007 2.21284,1.59016 l 0,7.61629 c 0,1.28653 -0.32421,1.28653 -2.21284,1.28653 l 0,0.88514 c 1.10642,-0.0412 2.43412,-0.0978 3.23692,-0.0978 1.127,0 2.47015,0 3.61773,0.0978 l 0,-0.88514 -0.60209,0 c -2.10992,0 -2.17168,-0.29847 -2.17168,-1.34829 l 0,-4.37936 c 0,-2.79435 1.2042,-5.32626 3.35529,-5.32626 0.2007,0 0.26245,0 0.3242,0.0206 -0.10292,0.0206 -0.66385,0.36023 -0.66385,1.10642 0,0.8028 0.6021,1.22478 1.22478,1.22478 0.52491,0 1.22993,-0.34479 1.22993,-1.24537 0,-0.9263 -0.88513,-1.7291 -2.11506,-1.7291 -2.06875,0 -3.09283,1.88863 -3.49423,3.11342 z"
         style="fill:#000000;fill-opacity:1;fill-rule:nonzero;stroke:none"
         id="path42" />
    </g>
    <g
       id="g16660">
      <rect
         transform="matrix(0,1,-1,0,0,0)"
         ry="17.037813"
         y="-399.12299"
         x="309.81638"
         height="340.76596"
         width="53.209999"
         id="rect10920"
         style="fill:#ffffff;stroke:#000000;stroke-width:0.99999994;stroke-linecap:round;stroke-linejoin:round;stroke-opacity:1" />
      <rect
         transform="matrix(0,1,-1,0,0,0)"
         style="fill:#ffffff;stroke:#000000;stroke-width:0.99999994;stroke-linecap:round;stroke-linejoin:round;stroke-opacity:1"
         id="rect10922"
         width="53.209999"
         height="340.76596"
         x="517.22504"
         y="-399.12299"
         ry="17.037813" />
      <rect
         ry="17.4533"
         transform="matrix(-0.00245382,0.99999699,-0.99999734,-0.00230763,0,0)"
         y="-376.08701"
         x="295.21338"
         height="303.33649"
         width="290.19955"
         id="rect10118"
         style="fill:#ffffff;stroke:#000000;stroke-width:0.99999988;stroke-linecap:round;stroke-linejoin:round;stroke-opacity:1" />
      <rect
         transform="matrix(0,1,-1,0,0,0)"
         y="-106.56292"
         x="430.33688"
         height="27.427504"
         width="10.80828"
         id="rect10926"
         style="fill:#ffffff;stroke:#000000;stroke-width:0.99999994;stroke-linecap:round;stroke-linejoin:round;stroke-opacity:1" />
      <g
         transform="translate(-25.714286,-348.57143)"
         id="g12454">
        <rect
           style="fill:#ffffff;stroke:#000000;stroke-width:0.99999994;stroke-linecap:round;stroke-linejoin:round;stroke-opacity:1"
           id="rect10924"
           width="68.175308"
           height="73.140015"
           x="757.32526"
           y="-341.62067"
           transform="matrix(0,1,-1,0,0,0)" />
        <g
           id="g12449"
           transform="translate(24,0)">
          <path
             inkscape:connector-curvature="0"
             d="m 258.61894,792.76259 -0.0566,-0.67929 0,-7.17887 c 0,-0.88513 0.0412,-1.06525 1.28654,-1.06525 l 2.35178,0 c 4.21984,0 4.21984,2.81494 4.21984,4.12206 0,1.24537 0,4.12206 -4.21984,4.12206 l -3.63832,0 0.0566,0.67929 4.50287,0 c 3.18031,0 6.03128,-2.15109 6.03128,-4.80135 0,-2.59365 -2.6091,-4.94544 -6.25256,-4.94544 l -9.36598,0 0,0.82338 0.64327,0 c 2.03272,0 2.08933,0.30362 2.08933,1.24537 l 0,13.99235 c 0,0.94689 -0.0566,1.24537 -2.08933,1.24537 l -0.64327,0 0,0.82338 c 0.92631,-0.0772 2.89728,-0.0772 3.90078,-0.0772 1.00349,0 2.99505,0 3.92135,0.0772 l 0,-0.82338 -0.62268,0 c -2.05331,0 -2.11506,-0.29848 -2.11506,-1.24537 l 0,-6.31431 z"
             style="fill:#000000;fill-opacity:1;fill-rule:nonzero;stroke:none"
             id="path44" />
          <path
             inkscape:connector-curvature="0"
             d="m 272.16872,792.0833 0.0206,0.49917 0.0412,0.50433 0.0617,0.50432 0.0772,0.47859 0.10293,0.46315 0.28303,0.92631 0.18012,0.44256 0.18011,0.42199 0.22129,0.42198 0.22128,0.4014 0.24187,0.4014 0.25731,0.36023 0.28303,0.36537 0.30363,0.36023 0.29847,0.32421 0.32421,0.31906 0.33965,0.30362 0.34479,0.2779 0.36023,0.26245 0.76163,0.48374 0.40654,0.2007 0.4014,0.18011 0.42198,0.18012 0.42199,0.14409 0.42198,0.11836 0.44257,0.10292 0.44257,0.0772 0.458,0.0618 0.46315,0.0412 0.44257,0.0206 c 4.34334,0 6.937,-3.70007 6.937,-6.77747 0,-0.26245 0,-0.44256 -0.34479,-0.44256 -0.29848,0 -0.29848,0.16467 -0.31906,0.42198 -0.22129,3.803 -3.05681,5.96952 -5.94894,5.96952 -1.61074,0 -6.81349,-0.90057 -6.81349,-8.7999 0,-7.94049 5.18216,-8.84621 6.79291,-8.84621 2.89213,0 5.24391,2.41354 5.7894,6.28858 0.0618,0.36538 0.0618,0.46315 0.42199,0.46315 0.42198,0 0.42198,-0.0978 0.42198,-0.64326 l 0,-6.28859 c 0,-0.44256 0,-0.62268 -0.30362,-0.62268 -0.0978,0 -0.2007,0 -0.42199,0.29848 l -1.3277,1.97097 c -0.96233,-0.96748 -2.3312,-2.26945 -4.88369,-2.26945 -4.94544,0 -9.22703,4.19925 -9.22703,9.62843 z"
             style="fill:#000000;fill-opacity:1;fill-rule:nonzero;stroke:none"
             id="path46" />
          <path
             inkscape:connector-curvature="0"
             d="m 302.0009,791.67675 0.24187,-0.0566 0.24186,-0.0412 0.22129,-0.0823 0.24187,-0.0566 0.22128,-0.0823 0.2007,-0.0823 0.22128,-0.0978 0.4014,-0.2007 0.36023,-0.2007 0.36023,-0.24187 0.16468,-0.12351 0.15953,-0.13894 0.42198,-0.42199 0.11836,-0.13894 0.12351,-0.16468 0.11836,-0.13894 0.10293,-0.15953 0.0772,-0.15954 0.10292,-0.16467 0.0617,-0.18012 0.0566,-0.15953 0.0618,-0.18011 0.0823,-0.36538 0.0412,-0.15953 0,-0.18011 0.0206,-0.2007 c 0,-2.29003 -2.45471,-4.48229 -5.89233,-4.48229 l -0.2007,0.82338 c 2.57307,0 3.49937,2.25401 3.49937,3.65891 0,1.70852 -1.28653,3.94194 -4.24556,3.94194 l -3.83902,0 0,0.58151 4.98661,0 c 2.63482,0 3.74124,2.47015 3.74124,4.24042 0,1.88864 -1.36887,4.06031 -4.10147,4.06031 l -3.31926,0 c -1.26595,0 -1.30712,-0.18012 -1.30712,-1.06525 l 0,-14.35259 c 0,-0.88513 0.0412,-1.06525 1.30712,-1.06525 l 3.27809,0 0.2007,-0.82338 -9.71077,0 0,0.82338 0.62268,0 c 2.05331,0 2.09448,0.30362 2.09448,1.24537 l 0,13.99235 c 0,0.94689 -0.0412,1.24537 -2.09448,1.24537 l -0.62268,0 0,0.82338 10.3952,0 c 3.5354,0 5.90777,-2.37237 5.90777,-4.8631 0,-2.29003 -2.17167,-4.30217 -5.12555,-4.6058 z"
             style="fill:#000000;fill-opacity:1;fill-rule:nonzero;stroke:none"
             id="path48" />
        </g>
      </g>
      <path
         sodipodi:nodetypes="cssc"
         inkscape:connector-curvature="0"
         id="path11832"
         d="m 80.932884,435.06837 c -9.403233,-1.1758 -14.10485,-44.67987 2.35082,-49.383 16.45567,-4.70314 87.209286,-1.79069 103.325046,3.46931 10.98811,3.58645 42.16269,9.06879 68.04606,33.49739"
         style="fill:none;fill-rule:evenodd;stroke:#000000;stroke-width:1px;stroke-linecap:butt;stroke-linejoin:miter;stroke-opacity:1" />
      <g
         transform="matrix(2.5656786,0,0,2.6424877,-499.36592,107.53558)"
         id="textext-c3a1b9e6-10">
        <g
           id="g12159"
           style="fill:#000000;fill-opacity:1">
          <use
             id="use12161"
             y="134.765"
             x="223.43201"
             xlink:href="#textext-c3a1b9e6-1"
             width="100%"
             height="100%" />
          <use
             id="use12163"
             y="134.765"
             x="232.56471"
             xlink:href="#textext-c3a1b9e6-2"
             width="100%"
             height="100%" />
          <use
             id="use12165"
             y="134.765"
             x="237.54602"
             xlink:href="#textext-c3a1b9e6-3"
             width="100%"
             height="100%" />
          <use
             id="use12167"
             y="134.765"
             x="242.52731"
             xlink:href="#textext-c3a1b9e6-4"
             width="100%"
             height="100%" />
          <use
             id="use12169"
             y="134.765"
             x="248.06253"
             xlink:href="#textext-c3a1b9e6-5"
             width="100%"
             height="100%" />
          <use
             id="use12171"
             y="134.765"
             x="252.48991"
             xlink:href="#textext-c3a1b9e6-6"
             width="100%"
             height="100%" />
          <use
             id="use12173"
             y="134.765"
             x="256.36438"
             xlink:href="#textext-c3a1b9e6-7"
             width="100%"
             height="100%" />
          <use
             id="use12175"
             y="134.765"
             x="261.34567"
             xlink:href="#textext-c3a1b9e6-8"
             width="100%"
             height="100%" />
          <use
             id="use12177"
             y="134.765"
             x="269.64749"
             xlink:href="#textext-c3a1b9e6-5"
             width="100%"
             height="100%" />
          <use
             id="use12179"
             y="134.765"
             x="274.07489"
             xlink:href="#textext-c3a1b9e6-6"
             width="100%"
             height="100%" />
          <use
             id="use12181"
             y="134.765"
             x="277.94934"
             xlink:href="#textext-c3a1b9e6-5"
             width="100%"
             height="100%" />
          <use
             id="use12183"
             y="134.765"
             x="282.37671"
             xlink:href="#textext-c3a1b9e6-9"
             width="100%"
             height="100%" />
        </g>
      </g>
    </g>
    <path
       style="fill:none;fill-rule:evenodd;stroke:#000000;stroke-width:1px;stroke-linecap:butt;stroke-linejoin:miter;stroke-opacity:1"
       d="m 263.32624,650.6704 c 9.28571,-185.85441 9.28571,-185.03204 9.28571,-185.03204"
       id="path12538"
       inkscape:connector-curvature="0" />
    <path
       style="fill:none;fill-rule:evenodd;stroke:#000000;stroke-width:1;stroke-linecap:butt;stroke-linejoin:miter;stroke-miterlimit:4;stroke-dasharray:4, 4;stroke-dashoffset:0;stroke-opacity:1;marker-end:url(#Arrow1Lend)"
       d="m 389.2856,438.57421 126.60714,0.24882 c 15.38862,-4.71533 23.74095,-18.40325 34.65326,-29.76978 10.51118,-11.35666 19.6704,-23.9021 28.02532,-36.90761"
       id="path12540"
       inkscape:connector-curvature="0"
       sodipodi:nodetypes="cccc" />
  </g>
</svg>
