<?xml version="1.0" encoding="UTF-8" standalone="no"?>
<!-- Created with Inkscape (http://www.inkscape.org/) -->

<svg
   xmlns:ns0="http://www.iki.fi/pav/software/textext/"
   xmlns:dc="http://purl.org/dc/elements/1.1/"
   xmlns:cc="http://creativecommons.org/ns#"
   xmlns:rdf="http://www.w3.org/1999/02/22-rdf-syntax-ns#"
   xmlns:svg="http://www.w3.org/2000/svg"
   xmlns="http://www.w3.org/2000/svg"
   xmlns:xlink="http://www.w3.org/1999/xlink"
   xmlns:sodipodi="http://sodipodi.sourceforge.net/DTD/sodipodi-0.dtd"
   xmlns:inkscape="http://www.inkscape.org/namespaces/inkscape"
   width="158.09816mm"
   height="81.512581mm"
   viewBox="0 0 560.19033 288.8241"
   id="svg5397"
   version="1.1"
   inkscape:version="0.91 r13725"
   sodipodi:docname="magnetoCalibSetup.svg">
  <sodipodi:namedview
     id="base"
     pagecolor="#ffffff"
     bordercolor="#666666"
     borderopacity="1.0"
     inkscape:pageopacity="0.0"
     inkscape:pageshadow="2"
     inkscape:zoom="22.4"
     inkscape:cx="373.93222"
     inkscape:cy="183.14597"
     inkscape:document-units="px"
     inkscape:current-layer="layer1"
     showgrid="false"
     inkscape:window-width="1920"
     inkscape:window-height="1016"
     inkscape:window-x="0"
     inkscape:window-y="27"
     inkscape:window-maximized="1"
     fit-margin-top="0"
     fit-margin-left="0"
     fit-margin-right="0"
     fit-margin-bottom="0" />
  <defs
     id="defs5399">
    <marker
       inkscape:isstock="true"
       style="overflow:visible"
       id="Arrow1Lend"
       refX="0"
       refY="0"
       orient="auto"
       inkscape:stockid="Arrow1Lend">
      <path
         inkscape:connector-curvature="0"
         transform="matrix(-0.8,0,0,-0.8,-10,0)"
         style="fill:#000000;fill-opacity:1;fill-rule:evenodd;stroke:#000000;stroke-width:1pt;stroke-opacity:1"
         d="M 0,0 5,-5 -12.5,0 5,5 0,0 Z"
         id="path12251" />
    </marker>
    <defs
       id="defs18087">
      <g
         id="g18089">
        <symbol
           id="textext-a835f4bb-0"
           overflow="visible"
           style="overflow:visible">
          <path
             id="path18092"
             d=""
             style="stroke:none"
             inkscape:connector-curvature="0" />
        </symbol>
        <symbol
           id="textext-a835f4bb-1"
           overflow="visible"
           style="overflow:visible">
          <path
             id="path18095"
             d="M 5.953125,-5.671875 6.09375,-5.8125 C 6.390625,-6.109375 6.71875,-6.453125 7.390625,-6.5 7.5,-6.515625 7.59375,-6.515625 7.59375,-6.6875 c 0,-0.078125 -0.046875,-0.125 -0.125,-0.125 -0.265625,0 -0.546875,0.03125 -0.8125,0.03125 -0.34375,0 -0.6875,-0.03125 -1,-0.03125 -0.0625,0 -0.1875,0 -0.1875,0.1875 0,0.109375 0.09375,0.125 0.140625,0.125 0.078125,0 0.359375,0.015625 0.359375,0.234375 0,0.171875 -0.234375,0.421875 -0.265625,0.46875 L 3.390625,-3.125 2.296875,-6.09375 C 2.234375,-6.234375 2.234375,-6.25 2.234375,-6.265625 2.234375,-6.5 2.71875,-6.5 2.828125,-6.5 c 0.125,0 0.234375,0 0.234375,-0.203125 0,-0.109375 -0.125,-0.109375 -0.15625,-0.109375 -0.28125,0 -0.96875,0.03125 -1.25,0.03125 -0.25,0 -0.875,-0.03125 -1.125,-0.03125 -0.046875,0 -0.1875,0 -0.1875,0.203125 C 0.34375,-6.5 0.453125,-6.5 0.578125,-6.5 c 0.59375,0 0.640625,0.09375 0.734375,0.34375 L 2.53125,-2.875 c 0.015625,0.03125 0.046875,0.140625 0.046875,0.15625 0,0.03125 -0.40625,1.640625 -0.453125,1.828125 C 2,-0.34375 1.984375,-0.3125 1.1875,-0.3125 c -0.1875,0 -0.265625,0 -0.265625,0.203125 C 0.921875,0 1.03125,0 1.0625,0 c 0.265625,0 0.96875,-0.03125 1.25,-0.03125 0.28125,0 1,0.03125 1.28125,0.03125 0.0625,0 0.1875,0 0.1875,-0.203125 C 3.78125,-0.3125 3.6875,-0.3125 3.5,-0.3125 c -0.015625,0 -0.203125,0 -0.375,-0.015625 C 2.90625,-0.34375 2.84375,-0.375 2.84375,-0.484375 c 0,-0.078125 0.09375,-0.421875 0.140625,-0.625 l 0.359375,-1.40625 c 0.046875,-0.203125 0.0625,-0.21875 0.140625,-0.3125 z m 0,0"
             style="stroke:none"
             inkscape:connector-curvature="0" />
        </symbol>
      </g>
    </defs>
    <defs
       id="defs17796">
      <g
         id="g17798">
        <symbol
           overflow="visible"
           id="textext-8cdf3b74-0"
           style="overflow:visible">
          <path
             style="stroke:none"
             d=""
             id="path17801"
             inkscape:connector-curvature="0" />
        </symbol>
        <symbol
           overflow="visible"
           id="textext-8cdf3b74-1"
           style="overflow:visible">
          <path
             style="stroke:none"
             d="M 4.828125,-4.09375 4,-6.078125 c -0.03125,-0.078125 -0.046875,-0.125 -0.046875,-0.125 0,-0.0625 0.15625,-0.25 0.578125,-0.296875 0.109375,-0.015625 0.203125,-0.015625 0.203125,-0.1875 0,-0.125 -0.125,-0.125 -0.15625,-0.125 -0.40625,0 -0.828125,0.03125 -1.25,0.03125 -0.25,0 -0.859375,-0.03125 -1.109375,-0.03125 -0.0625,0 -0.1875,0 -0.1875,0.203125 C 2.03125,-6.5 2.140625,-6.5 2.265625,-6.5 c 0.59375,0 0.65625,0.09375 0.75,0.3125 l 1.171875,2.78125 -2.109375,2.265625 -0.125,0.109375 C 1.46875,-0.5 1,-0.34375 0.484375,-0.3125 c -0.125,0.015625 -0.21875,0.015625 -0.21875,0.203125 0,0.015625 0,0.109375 0.140625,0.109375 0.296875,0 0.625,-0.03125 0.921875,-0.03125 C 1.703125,-0.03125 2.09375,0 2.453125,0 2.515625,0 2.625,0 2.625,-0.203125 2.625,-0.296875 2.53125,-0.3125 2.515625,-0.3125 c -0.09375,0 -0.40625,-0.03125 -0.40625,-0.3125 0,-0.15625 0.15625,-0.3125 0.265625,-0.4375 L 3.40625,-2.140625 4.296875,-3.125 l 1,2.390625 c 0.046875,0.109375 0.0625,0.109375 0.0625,0.140625 0,0.078125 -0.203125,0.25 -0.578125,0.28125 C 4.671875,-0.296875 4.578125,-0.296875 4.578125,-0.125 4.578125,0 4.6875,0 4.71875,0 5,0 5.703125,-0.03125 5.984375,-0.03125 6.234375,-0.03125 6.84375,0 7.09375,0 c 0.0625,0 0.1875,0 0.1875,-0.1875 0,-0.125 -0.109375,-0.125 -0.1875,-0.125 -0.65625,0 -0.6875,-0.03125 -0.859375,-0.4375 C 5.859375,-1.671875 5.1875,-3.234375 4.953125,-3.828125 5.625,-4.53125 6.671875,-5.71875 7,-5.984375 7.28125,-6.234375 7.671875,-6.46875 8.265625,-6.5 c 0.125,-0.015625 0.21875,-0.015625 0.21875,-0.203125 0,0 0,-0.109375 -0.125,-0.109375 -0.296875,0 -0.640625,0.03125 -0.9375,0.03125 -0.375,0 -0.75,-0.03125 -1.109375,-0.03125 -0.0625,0 -0.1875,0 -0.1875,0.203125 0,0.0625 0.046875,0.09375 0.109375,0.109375 0.09375,0.015625 0.40625,0.03125 0.40625,0.3125 0,0.140625 -0.109375,0.265625 -0.1875,0.359375 z m 0,0"
             id="path17804"
             inkscape:connector-curvature="0" />
        </symbol>
      </g>
    </defs>
  </defs>
  <metadata
     id="metadata5402">
    <rdf:RDF>
      <cc:Work
         rdf:about="">
        <dc:format>image/svg+xml</dc:format>
        <dc:type
           rdf:resource="http://purl.org/dc/dcmitype/StillImage" />
        <dc:title />
      </cc:Work>
    </rdf:RDF>
  </metadata>
  <g
     transform="translate(-67.807009,-288.1811)"
     inkscape:label="Calque 1"
     inkscape:groupmode="layer"
     id="layer1">
    <rect
       y="388.08154"
       x="254.94241"
       height="28.30859"
       width="6.7013054"
       id="rect10058"
       style="fill:#ffffff;fill-opacity:1;stroke:#000000;stroke-width:0.99999994;stroke-linecap:round;stroke-linejoin:round;stroke-miterlimit:2.04444432;stroke-dasharray:none;stroke-opacity:1" />
    <g
       style="fill:#ffffff;fill-opacity:1;stroke-width:0.7580213;stroke-miterlimit:2.04444432;stroke-dasharray:none"
       id="g4874"
       transform="matrix(0.49505064,0,0,0.47743099,-21.953607,306.19455)">
      <path
         d="m 588.449,272.043 c 0,11.434 -9.176,20.699 -20.496,20.699 -11.316,0 -20.496,-9.265 -20.496,-20.699 0,-11.43 9.18,-20.695 20.496,-20.695 11.32,0 20.496,9.265 20.496,20.695 z"
         style="fill:#ffffff;fill-opacity:1;stroke:#000000;stroke-width:2.05693173;stroke-linecap:square;stroke-linejoin:round;stroke-miterlimit:2.04444432;stroke-dasharray:none;stroke-opacity:1"
         id="path4876"
         inkscape:connector-curvature="0" />
    </g>
    <g
       style="stroke-width:0.7580213;stroke-miterlimit:2.04444432;stroke-dasharray:none"
       id="g4878"
       transform="matrix(0.49505064,0,0,0.47743099,-21.953607,306.19455)">
      <path
         d="m 570.055,272.043 c 0,1.047 -0.852,1.898 -1.899,1.898 -1.047,0 -1.898,-0.851 -1.898,-1.898 0,-1.047 0.851,-1.898 1.898,-1.898 1.047,0 1.899,0.851 1.899,1.898 z"
         style="fill:none;stroke:#000000;stroke-width:2.05693173;stroke-linecap:square;stroke-linejoin:round;stroke-miterlimit:2.04444432;stroke-dasharray:none;stroke-opacity:1"
         id="path4880"
         inkscape:connector-curvature="0" />
    </g>
    <g
       transform="matrix(0.49505064,0,0,0.47743099,-89.500215,309.08977)"
       id="g4838"
       style="fill:#ffffff;fill-opacity:1;stroke-width:0.7580213;stroke-miterlimit:2.04444432;stroke-dasharray:none">
      <path
         inkscape:connector-curvature="0"
         id="path4840"
         style="fill:#ffffff;fill-opacity:1;stroke:#000000;stroke-width:2.05693173;stroke-linecap:square;stroke-linejoin:round;stroke-miterlimit:2.04444432;stroke-dasharray:none;stroke-opacity:1"
         d="m 588.449,272.043 c 0,11.434 -9.176,20.699 -20.496,20.699 -11.316,0 -20.496,-9.265 -20.496,-20.699 0,-11.43 9.18,-20.695 20.496,-20.695 11.32,0 20.496,9.265 20.496,20.695 z" />
    </g>
    <g
       style="stroke-width:0.7580213;stroke-miterlimit:2.04444432;stroke-dasharray:none"
       transform="matrix(0.49505064,0,0,0.47743099,-89.500215,309.08977)"
       id="g4842">
      <path
         inkscape:connector-curvature="0"
         id="path4844"
         style="fill:none;stroke:#000000;stroke-width:2.05693173;stroke-linecap:square;stroke-linejoin:round;stroke-miterlimit:2.04444432;stroke-dasharray:none;stroke-opacity:1"
         d="m 570.055,272.043 c 0,1.047 -0.852,1.898 -1.899,1.898 -1.047,0 -1.898,-0.851 -1.898,-1.898 0,-1.047 0.851,-1.898 1.898,-1.898 1.047,0 1.899,0.851 1.899,1.898 z" />
    </g>
    <g
       style="fill:#ffffff;fill-opacity:1;stroke-width:0.99645299;stroke-miterlimit:2.04444432;stroke-dasharray:none"
       id="g4854"
       transform="matrix(0.37973821,0,0,0.36018458,-132.06298,330.95766)">
      <path
         d="m 588.449,272.043 c 0,11.434 -9.176,20.699 -20.496,20.699 -11.316,0 -20.496,-9.265 -20.496,-20.699 0,-11.43 9.18,-20.695 20.496,-20.695 11.32,0 20.496,9.265 20.496,20.695 z"
         style="fill:#ffffff;fill-opacity:1;stroke:#000000;stroke-width:2.70392895;stroke-linecap:square;stroke-linejoin:round;stroke-miterlimit:2.04444432;stroke-dasharray:none;stroke-opacity:1"
         id="path4856"
         inkscape:connector-curvature="0" />
    </g>
    <g
       style="stroke-width:0.99645299;stroke-miterlimit:2.04444432;stroke-dasharray:none"
       id="g4858"
       transform="matrix(0.37973821,0,0,0.36018458,-132.06298,330.95766)">
      <path
         d="m 570.055,272.043 c 0,1.047 -0.852,1.898 -1.899,1.898 -1.047,0 -1.898,-0.851 -1.898,-1.898 0,-1.047 0.851,-1.898 1.898,-1.898 1.047,0 1.899,0.851 1.899,1.898 z"
         style="fill:none;stroke:#000000;stroke-width:2.70392895;stroke-linecap:square;stroke-linejoin:round;stroke-miterlimit:2.04444432;stroke-dasharray:none;stroke-opacity:1"
         id="path4860"
         inkscape:connector-curvature="0" />
    </g>
    <path
       d="m 133.5133,436.63779 c 0,5.54789 -4.54196,10.04336 -10.14516,10.04336 -5.60123,0 -10.14517,-4.49547 -10.14517,-10.04336 0,-5.54595 4.54394,-10.04142 10.14517,-10.04142 5.6032,0 10.14516,4.49547 10.14516,10.04142 z"
       style="fill:#ffffff;fill-opacity:1;stroke:#000000;stroke-width:1;stroke-linecap:square;stroke-linejoin:round;stroke-miterlimit:2.04444432;stroke-dasharray:none;stroke-opacity:1"
       id="path4866"
       inkscape:connector-curvature="0" />
    <path
       d="m 124.40859,436.63779 c 0,0.50801 -0.42172,0.92093 -0.93997,0.92093 -0.51825,0 -0.93948,-0.41292 -0.93948,-0.92093 0,-0.50802 0.42123,-0.92093 0.93948,-0.92093 0.51825,0 0.93997,0.41291 0.93997,0.92093 z"
       style="fill:none;stroke:#000000;stroke-width:1;stroke-linecap:square;stroke-linejoin:round;stroke-miterlimit:2.04444432;stroke-dasharray:none;stroke-opacity:1"
       id="path4870"
       inkscape:connector-curvature="0" />
    <path
       inkscape:connector-curvature="0"
       id="path84"
       style="fill:none;stroke:#000000;stroke-width:1;stroke-linecap:square;stroke-linejoin:round;stroke-miterlimit:2.04444432;stroke-dasharray:none;stroke-opacity:1"
       d="m 308.36458,426.9919 c 0.70519,5.21417 4.22268,21.37693 -118.45884,22.40253 C 87.460304,450.25084 75.551431,436.63517 75.772275,428.13318 76.145871,413.79491 125.176,415.52897 190.44589,416.00419 c 65.91906,0.48058 116.35684,-0.56706 117.91869,10.98771 z" />
    <rect
       style="fill:#ffffff;fill-opacity:1;stroke:#000000;stroke-width:0.99999994;stroke-linecap:round;stroke-linejoin:round;stroke-miterlimit:2.04444432;stroke-dasharray:none;stroke-opacity:1"
       id="rect9252"
       width="220.46539"
       height="6.8224001"
       x="82.419876"
       y="380.9671" />
    <rect
       style="fill:#ffffff;fill-opacity:1;stroke:#000000;stroke-width:0.99999994;stroke-linecap:round;stroke-linejoin:round;stroke-miterlimit:2.04444432;stroke-dasharray:none;stroke-opacity:1"
       id="rect9254"
       width="6.7013054"
       height="26.919628"
       x="130.94241"
       y="388.08154" />
    <g
       id="g11005"
       transform="translate(2,0)">
      <g
         style="fill:#ffffff;fill-opacity:1;stroke-width:0.99645299;stroke-miterlimit:2.04444432;stroke-dasharray:none"
         id="g10997"
         transform="matrix(0.293637,0,0,0.26240006,134.83846,357.55945)">
        <path
           d="m 588.449,272.043 c 0,11.434 -9.176,20.699 -20.496,20.699 -11.316,0 -20.496,-9.265 -20.496,-20.699 0,-11.43 9.18,-20.695 20.496,-20.695 11.32,0 20.496,9.265 20.496,20.695 z"
           style="fill:#ffffff;fill-opacity:1;stroke:#000000;stroke-width:3.60257173;stroke-linecap:square;stroke-linejoin:round;stroke-miterlimit:2.04444432;stroke-dasharray:none;stroke-opacity:1"
           id="path10999"
           inkscape:connector-curvature="0" />
      </g>
      <g
         style="stroke-width:0.99645299;stroke-miterlimit:2.04444432;stroke-dasharray:none"
         id="g11001"
         transform="matrix(0.293637,0,0,0.26240006,134.83846,357.55945)">
        <path
           d="m 570.055,272.043 c 0,1.047 -0.852,1.898 -1.899,1.898 -1.047,0 -1.898,-0.851 -1.898,-1.898 0,-1.047 0.851,-1.898 1.898,-1.898 1.047,0 1.899,0.851 1.899,1.898 z"
           style="fill:none;stroke:#000000;stroke-width:3.60257173;stroke-linecap:square;stroke-linejoin:round;stroke-miterlimit:2.04444432;stroke-dasharray:none;stroke-opacity:1"
           id="path11003"
           inkscape:connector-curvature="0" />
      </g>
    </g>
    <g
       id="textext-c3a1b9e6-10"
       transform="matrix(0,-1.7208532,1.7726813,0,275.46143,864.75291)">
      <g
         style="fill:#000000;fill-opacity:1"
         id="g12159">
        <use
           height="100%"
           width="100%"
           xlink:href="#textext-c3a1b9e6-1"
           x="223.43201"
           y="134.765"
           id="use12161" />
        <use
           height="100%"
           width="100%"
           xlink:href="#textext-c3a1b9e6-2"
           x="232.56471"
           y="134.765"
           id="use12163" />
        <use
           height="100%"
           width="100%"
           xlink:href="#textext-c3a1b9e6-3"
           x="237.54602"
           y="134.765"
           id="use12165" />
        <use
           height="100%"
           width="100%"
           xlink:href="#textext-c3a1b9e6-4"
           x="242.52731"
           y="134.765"
           id="use12167" />
        <use
           height="100%"
           width="100%"
           xlink:href="#textext-c3a1b9e6-5"
           x="248.06253"
           y="134.765"
           id="use12169" />
        <use
           height="100%"
           width="100%"
           xlink:href="#textext-c3a1b9e6-6"
           x="252.48991"
           y="134.765"
           id="use12171" />
        <use
           height="100%"
           width="100%"
           xlink:href="#textext-c3a1b9e6-7"
           x="256.36438"
           y="134.765"
           id="use12173" />
        <use
           height="100%"
           width="100%"
           xlink:href="#textext-c3a1b9e6-8"
           x="261.34567"
           y="134.765"
           id="use12175" />
        <use
           height="100%"
           width="100%"
           xlink:href="#textext-c3a1b9e6-5"
           x="269.64749"
           y="134.765"
           id="use12177" />
        <use
           height="100%"
           width="100%"
           xlink:href="#textext-c3a1b9e6-6"
           x="274.07489"
           y="134.765"
           id="use12179" />
        <use
           height="100%"
           width="100%"
           xlink:href="#textext-c3a1b9e6-5"
           x="277.94934"
           y="134.765"
           id="use12181" />
        <use
           height="100%"
           width="100%"
           xlink:href="#textext-c3a1b9e6-9"
           x="282.37671"
           y="134.765"
           id="use12183" />
      </g>
    </g>
    <g
       id="g11894"
       transform="translate(-14,-138)">
      <path
         d="m 255.3198,539.62418 c 0,3.96308 -1.28397,7.17608 -2.86806,7.17608 -1.58409,0 -2.86807,-3.213 -2.86807,-7.17608 0,-3.96302 1.28398,-7.17602 2.86807,-7.17602 1.58409,0 2.86806,3.213 2.86806,7.17602 z"
         style="fill:#ffffff;fill-opacity:1;stroke:#000000;stroke-width:0.99999994;stroke-linecap:butt;stroke-linejoin:miter;stroke-miterlimit:2.04444432;stroke-dasharray:none;stroke-opacity:1"
         id="path5368"
         inkscape:connector-curvature="0" />
      <path
         d="m 252.08405,539.36175 c 0,1.44988 -0.035,1.10211 -10.23857,1.10211 -10.20425,0 -10.31606,0.21263 -10.31606,-1.23597 0,-1.4499 0.11178,-1.34838 10.31606,-1.34838 10.20357,0 10.23857,0.0336 10.23857,1.48224 z"
         style="fill:#ffffff;fill-opacity:1;stroke:#000000;stroke-width:0.99999994;stroke-linecap:square;stroke-linejoin:round;stroke-miterlimit:2.04444432;stroke-dasharray:none;stroke-opacity:1"
         id="path24-7"
         inkscape:connector-curvature="0" />
      <path
         d="m 223.04723,526.6086 0,0.12413 c 0.0588,-0.003 0.11602,-0.006 0.17487,-0.006 4.77985,0 8.65689,5.69938 8.65689,12.73064 0,7.03128 -3.87704,12.73066 -8.65689,12.73066 -0.0588,0 -0.11602,-0.004 -0.17487,-0.006 l 0,0.006 -29.67222,0 0,-25.57939 29.67222,0 z"
         style="fill:#ffffff;fill-opacity:1;fill-rule:nonzero;stroke:#000000;stroke-width:0.99999994;stroke-linecap:round;stroke-linejoin:miter;stroke-miterlimit:2.04444432;stroke-dasharray:none;stroke-opacity:1"
         id="path16-4"
         inkscape:connector-curvature="0" />
      <path
         d="m 197.76373,539.52464 c 0,7.11179 -2.28941,12.87683 -5.11298,12.87683 -2.824,0 -5.11341,-5.76504 -5.11341,-12.87683 0,-7.11045 2.28941,-12.87547 5.11341,-12.87547 2.82357,0 5.11298,5.76502 5.11298,12.87547 z"
         style="fill:#ffffff;fill-opacity:1;fill-rule:nonzero;stroke:#000000;stroke-width:0.99999994;stroke-linecap:butt;stroke-linejoin:miter;stroke-miterlimit:2.04444432;stroke-dasharray:none;stroke-opacity:1"
         id="path18"
         inkscape:connector-curvature="0" />
      <g
         style="font-style:normal;font-variant:normal;font-weight:normal;font-stretch:normal;letter-spacing:normal;word-spacing:normal;text-anchor:start;fill:none;fill-opacity:1;fill-rule:evenodd;stroke:#000000;stroke-width:2.26398635;stroke-linecap:butt;stroke-linejoin:miter;stroke-miterlimit:10.43299961;stroke-dasharray:none;stroke-dashoffset:0;stroke-opacity:1"
         id="content"
         transform="matrix(0.9266555,0,0,-0.90752505,-5.6886577,1183.479)"
         xml:space="preserve"
         stroke-miterlimit="10.433"
         font-style="normal"
         font-variant="normal"
         font-weight="normal"
         font-stretch="normal"
         font-size-adjust="none"
         letter-spacing="normal"
         word-spacing="normal"
         ns0:text="Motor"
         ns0:preamble=""><path
           style="fill:#000000;stroke-width:0"
           inkscape:connector-curvature="0"
           d="m 225.83,713.69 0,0.01 -0.01,0.01 0,0.01 -0.01,0.01 0,0.02 -0.01,0.01 -0.01,0.02 -0.01,0.01 0,0.02 -0.01,0.01 -0.01,0.01 0,0.01 -0.01,0.01 -0.01,0.01 -0.01,0 -0.01,0.01 0,0.01 -0.01,0 -0.01,0.01 -0.01,0 -0.01,0.01 -0.01,0 -0.01,0 -0.01,0 -0.02,0.01 -0.01,0 -0.01,0 -0.02,0 -0.01,0 -0.02,0 -0.02,0 -0.02,0 -0.02,0 -0.02,0 -1.68,0 0,-0.31 0.24,0 c 0.76,0 0.78,-0.11 0.78,-0.46 l 0,-4.97 c 0,-0.27 0,-0.74 -1.02,-0.74 l 0,-0.31 c 0.35,0.02 0.84,0.04 1.16,0.04 0.33,0 0.82,-0.02 1.17,-0.04 l 0,0.31 c -1.03,0 -1.03,0.47 -1.03,0.74 l 0,5.35 0.01,0 2.4,-6.18 c 0.05,-0.13 0.1,-0.22 0.2,-0.22 0.11,0 0.14,0.08 0.18,0.19 l 2.45,6.29 0.01,0 0,-5.7 c 0,-0.36 -0.02,-0.47 -0.79,-0.47 l -0.24,0 0,-0.31 c 0.37,0.04 1.05,0.04 1.44,0.04 0.38,0 1.05,0 1.42,-0.04 l 0,0.31 -0.24,0 c -0.77,0 -0.79,0.11 -0.79,0.47 l 0,5.24 c 0,0.35 0.02,0.46 0.79,0.46 l 0.24,0 0,0.31 -1.68,0 c -0.26,0 -0.26,-0.01 -0.33,-0.19 l -2.18,-5.59 z"
           id="path5173" /><path
           style="fill:#000000;stroke-width:0"
           inkscape:connector-curvature="0"
           d="m 237.25,709.25 0,0.12 -0.01,0.12 -0.01,0.11 -0.02,0.12 -0.03,0.11 -0.03,0.11 -0.03,0.11 -0.04,0.1 -0.05,0.1 -0.05,0.1 -0.05,0.1 -0.06,0.09 -0.06,0.1 -0.06,0.08 -0.07,0.09 -0.08,0.08 -0.07,0.08 -0.08,0.07 -0.09,0.07 -0.08,0.06 -0.09,0.07 -0.09,0.05 -0.1,0.05 -0.1,0.05 -0.1,0.04 -0.1,0.04 -0.1,0.03 -0.11,0.03 -0.11,0.02 -0.1,0.01 -0.12,0.01 -0.11,0.01 -0.01,-0.22 c 0.44,0 0.87,-0.22 1.13,-0.65 0.26,-0.43 0.26,-1 0.26,-1.38 0,-0.36 0,-0.89 -0.22,-1.33 -0.22,-0.45 -0.66,-0.74 -1.16,-0.74 l 0,0 c -0.43,0 -0.86,0.21 -1.13,0.67 -0.25,0.44 -0.25,1.04 -0.25,1.4 0,0.39 0,0.92 0.24,1.36 0.27,0.46 0.73,0.67 1.13,0.67 l 0.01,0.22 c -1.24,0 -2.21,-1.09 -2.21,-2.33 0,-1.28 1.04,-2.23 2.2,-2.23 1.21,0 2.21,0.97 2.21,2.23 z"
           id="path5175" /><path
           style="fill:#000000;stroke-width:0"
           inkscape:connector-curvature="0"
           d="m 239.27,711.1 1.42,0 0,0.31 -1.42,0 0,1.82 -0.25,0 c -0.01,-0.81 -0.31,-1.87 -1.28,-1.91 l 0,-0.22 0.84,0 0,-2.74 c 0,-1.22 0.93,-1.34 1.28,-1.34 0.71,0 0.99,0.7 0.99,1.34 l 0,0.56 -0.25,0 0,-0.54 c 0,-0.74 -0.3,-1.12 -0.67,-1.12 -0.66,0 -0.66,0.91 -0.66,1.08 z"
           id="path5177" /><path
           style="fill:#000000;stroke-width:0"
           inkscape:connector-curvature="0"
           d="m 246.11,709.25 -0.01,0.12 0,0.12 -0.02,0.11 -0.02,0.12 -0.02,0.11 -0.03,0.11 -0.04,0.11 -0.04,0.1 -0.04,0.1 -0.05,0.1 -0.05,0.1 -0.06,0.09 -0.06,0.1 -0.07,0.08 -0.07,0.09 -0.07,0.08 -0.08,0.08 -0.08,0.07 -0.08,0.07 -0.09,0.06 -0.09,0.07 -0.09,0.05 -0.09,0.05 -0.1,0.05 -0.1,0.04 -0.1,0.04 -0.11,0.03 -0.1,0.03 -0.11,0.02 -0.11,0.01 -0.11,0.01 -0.11,0.01 -0.01,-0.22 c 0.44,0 0.86,-0.22 1.12,-0.65 0.26,-0.43 0.26,-1 0.26,-1.38 0,-0.36 0,-0.89 -0.22,-1.33 -0.22,-0.45 -0.66,-0.74 -1.15,-0.74 l 0,0 c -0.43,0 -0.87,0.21 -1.14,0.67 -0.25,0.44 -0.25,1.04 -0.25,1.4 0,0.39 0,0.92 0.24,1.36 0.27,0.46 0.74,0.67 1.14,0.67 l 0.01,0.22 c -1.25,0 -2.21,-1.09 -2.21,-2.33 0,-1.28 1.03,-2.23 2.2,-2.23 1.2,0 2.21,0.97 2.21,2.23 z"
           id="path5179" /><path
           style="fill:#000000;stroke-width:0"
           inkscape:connector-curvature="0"
           d="m 248.06,710.42 0,1.1 -1.38,-0.11 0,-0.31 c 0.7,0 0.78,-0.07 0.78,-0.56 l 0,-2.66 c 0,-0.45 -0.11,-0.45 -0.78,-0.45 l 0,-0.31 c 0.39,0.02 0.86,0.04 1.14,0.04 0.39,0 0.86,0 1.26,-0.04 l 0,0.31 -0.21,0 c -0.74,0 -0.76,0.11 -0.76,0.47 l 0,1.53 c 0,0.98 0.42,1.87 1.18,1.87 0.07,0 0.09,0 0.11,-0.01 -0.03,-0.01 -0.23,-0.13 -0.23,-0.39 0,-0.28 0.21,-0.43 0.43,-0.43 0.17,0 0.42,0.12 0.42,0.44 0,0.32 -0.31,0.61 -0.73,0.61 -0.73,0 -1.09,-0.67 -1.23,-1.1 z"
           id="path5181" /></g>    </g>
    <rect
       style="fill:none;stroke:#000000;stroke-width:1;stroke-linecap:round;stroke-linejoin:round;stroke-miterlimit:4;stroke-dasharray:none;stroke-dashoffset:1.39999998;stroke-opacity:1"
       id="rect11906"
       width="25.357147"
       height="3.5714328"
       x="82.5"
       y="377.00504" />
    <rect
       transform="matrix(0,1,-1,0,0,0)"
       y="-276.49411"
       x="364.03818"
       height="58.147881"
       width="15.430017"
       id="rect11937"
       style="fill:#ffffff;stroke:#000000;stroke-width:1;stroke-linecap:round;stroke-linejoin:round;stroke-opacity:1" />
    <g
       id="g11952"
       transform="matrix(0.60943806,0,0,0.60943806,129.35391,175.84292)">
      <g
         id="g11939"
         transform="matrix(0.67072049,0,0,0.67083806,4.9137558,-209.1567)">
        <path
           inkscape:connector-curvature="0"
           d="m 258.61894,792.76259 -0.0566,-0.67929 0,-7.17887 c 0,-0.88513 0.0412,-1.06525 1.28654,-1.06525 l 2.35178,0 c 4.21984,0 4.21984,2.81494 4.21984,4.12206 0,1.24537 0,4.12206 -4.21984,4.12206 l -3.63832,0 0.0566,0.67929 4.50287,0 c 3.18031,0 6.03128,-2.15109 6.03128,-4.80135 0,-2.59365 -2.6091,-4.94544 -6.25256,-4.94544 l -9.36598,0 0,0.82338 0.64327,0 c 2.03272,0 2.08933,0.30362 2.08933,1.24537 l 0,13.99235 c 0,0.94689 -0.0566,1.24537 -2.08933,1.24537 l -0.64327,0 0,0.82338 c 0.92631,-0.0772 2.89728,-0.0772 3.90078,-0.0772 1.00349,0 2.99505,0 3.92135,0.0772 l 0,-0.82338 -0.62268,0 c -2.05331,0 -2.11506,-0.29848 -2.11506,-1.24537 l 0,-6.31431 z"
           style="fill:#000000;fill-opacity:1;fill-rule:nonzero;stroke:none"
           id="path11941" />
        <path
           inkscape:connector-curvature="0"
           d="m 272.16872,792.0833 0.0206,0.49917 0.0412,0.50433 0.0617,0.50432 0.0772,0.47859 0.10293,0.46315 0.28303,0.92631 0.18012,0.44256 0.18011,0.42199 0.22129,0.42198 0.22128,0.4014 0.24187,0.4014 0.25731,0.36023 0.28303,0.36537 0.30363,0.36023 0.29847,0.32421 0.32421,0.31906 0.33965,0.30362 0.34479,0.2779 0.36023,0.26245 0.76163,0.48374 0.40654,0.2007 0.4014,0.18011 0.42198,0.18012 0.42199,0.14409 0.42198,0.11836 0.44257,0.10292 0.44257,0.0772 0.458,0.0618 0.46315,0.0412 0.44257,0.0206 c 4.34334,0 6.937,-3.70007 6.937,-6.77747 0,-0.26245 0,-0.44256 -0.34479,-0.44256 -0.29848,0 -0.29848,0.16467 -0.31906,0.42198 -0.22129,3.803 -3.05681,5.96952 -5.94894,5.96952 -1.61074,0 -6.81349,-0.90057 -6.81349,-8.7999 0,-7.94049 5.18216,-8.84621 6.79291,-8.84621 2.89213,0 5.24391,2.41354 5.7894,6.28858 0.0618,0.36538 0.0618,0.46315 0.42199,0.46315 0.42198,0 0.42198,-0.0978 0.42198,-0.64326 l 0,-6.28859 c 0,-0.44256 0,-0.62268 -0.30362,-0.62268 -0.0978,0 -0.2007,0 -0.42199,0.29848 l -1.3277,1.97097 c -0.96233,-0.96748 -2.3312,-2.26945 -4.88369,-2.26945 -4.94544,0 -9.22703,4.19925 -9.22703,9.62843 z"
           style="fill:#000000;fill-opacity:1;fill-rule:nonzero;stroke:none"
           id="path11943" />
        <path
           inkscape:connector-curvature="0"
           d="m 302.0009,791.67675 0.24187,-0.0566 0.24186,-0.0412 0.22129,-0.0823 0.24187,-0.0566 0.22128,-0.0823 0.2007,-0.0823 0.22128,-0.0978 0.4014,-0.2007 0.36023,-0.2007 0.36023,-0.24187 0.16468,-0.12351 0.15953,-0.13894 0.42198,-0.42199 0.11836,-0.13894 0.12351,-0.16468 0.11836,-0.13894 0.10293,-0.15953 0.0772,-0.15954 0.10292,-0.16467 0.0617,-0.18012 0.0566,-0.15953 0.0618,-0.18011 0.0823,-0.36538 0.0412,-0.15953 0,-0.18011 0.0206,-0.2007 c 0,-2.29003 -2.45471,-4.48229 -5.89233,-4.48229 l -0.2007,0.82338 c 2.57307,0 3.49937,2.25401 3.49937,3.65891 0,1.70852 -1.28653,3.94194 -4.24556,3.94194 l -3.83902,0 0,0.58151 4.98661,0 c 2.63482,0 3.74124,2.47015 3.74124,4.24042 0,1.88864 -1.36887,4.06031 -4.10147,4.06031 l -3.31926,0 c -1.26595,0 -1.30712,-0.18012 -1.30712,-1.06525 l 0,-14.35259 c 0,-0.88513 0.0412,-1.06525 1.30712,-1.06525 l 3.27809,0 0.2007,-0.82338 -9.71077,0 0,0.82338 0.62268,0 c 2.05331,0 2.09448,0.30362 2.09448,1.24537 l 0,13.99235 c 0,0.94689 -0.0412,1.24537 -2.09448,1.24537 l -0.62268,0 0,0.82338 10.3952,0 c 3.5354,0 5.90777,-2.37237 5.90777,-4.8631 0,-2.29003 -2.17167,-4.30217 -5.12555,-4.6058 z"
           style="fill:#000000;fill-opacity:1;fill-rule:nonzero;stroke:none"
           id="path11945" />
      </g>
    </g>
    <g
       id="g18724"
       transform="matrix(0,-1,1,0,-28.384345,1114.8507)">
      <g
         id="g18721">
        <path
           id="path26"
           style="fill:#ffffff;fill-opacity:1;fill-rule:nonzero;stroke:#000000;stroke-width:0.44423246;stroke-linecap:butt;stroke-linejoin:miter;stroke-miterlimit:10;stroke-dasharray:none;stroke-opacity:1"
           d="m 592.39876,507.12161 0,140.99183 -54.33116,0 0,-140.99183 54.33116,0 z"
           inkscape:connector-curvature="0" />
      </g>
      <path
         inkscape:connector-curvature="0"
         d="m 566.8868,536.55704 -0.36593,0 -0.36248,0.0241 -0.35213,0.0415 -0.70081,0.13461 -0.3245,0.0966 -0.32451,0.107 -0.32106,0.12081 -0.3107,0.14842 -0.29689,0.14842 -0.29689,0.16222 -0.28308,0.17604 -0.26928,0.18638 -0.51438,0.40384 -0.4557,0.45907 -0.21749,0.24507 -0.20368,0.25542 -0.18642,0.25541 -0.17606,0.26923 -0.16225,0.28304 -0.14845,0.28303 -0.13463,0.29684 -0.12084,0.29684 -0.10701,0.29683 -0.0967,0.31065 -0.0794,0.32445 -0.0552,0.3072 -0.038,0.32445 -0.0276,0.33826 0,0.32446 c 0,3.11335 2.64095,4.97378 4.85383,4.97378 0.18987,0 0.32451,0 0.32451,-0.24162 0,-0.20364 -0.11047,-0.20364 -0.3107,-0.23125 -2.72381,-0.14842 -4.28767,-2.18143 -4.28767,-4.27311 0,-1.15974 0.64557,-4.8944 6.32448,-4.8944 5.71689,0 6.36246,3.72085 6.36246,4.8806 0,2.07787 -1.73647,3.77606 -4.52933,4.15229 -0.25546,0.0414 -0.3245,0.0414 -0.3245,0.31065 0,0.29684 0.069,0.29684 0.45914,0.29684 l 4.51897,0 c 0.32105,0 0.45569,0 0.45569,-0.20365 0,-0.0794 0,-0.14841 -0.21404,-0.30719 l -1.41541,-0.94575 c 0.68699,-0.71448 1.62945,-1.68438 1.62945,-3.51719 0,-3.56208 -3.0207,-6.62022 -6.91481,-6.62022 z"
         style="fill:#000000;fill-opacity:1;fill-rule:nonzero;stroke:none"
         id="path28" />
      <path
         inkscape:connector-curvature="0"
         d="m 564.44608,558.23668 0.45569,-0.0276 0.43153,-0.0552 0.43153,-0.107 0.20368,-0.0656 0.40392,-0.16223 0.18986,-0.0966 0.18643,-0.107 0.17606,-0.107 0.35213,-0.24162 0.16225,-0.13461 0.14845,-0.13462 0.29689,-0.29684 0.13464,-0.16222 0.12082,-0.16222 0.21404,-0.35207 0.11048,-0.18639 0.0932,-0.18984 0.0794,-0.18984 0.0691,-0.18639 0.10702,-0.40728 0.0415,-0.2002 0.0276,-0.21746 0.0241,-0.43144 -0.41772,-0.0138 c 0,0.83874 -0.43153,1.66023 -1.23935,2.15727 -0.82163,0.50048 -1.9298,0.50048 -2.65821,0.50048 -0.687,0 -1.71231,0 -2.54775,-0.43145 -0.86306,-0.41765 -1.41541,-1.25294 -1.41541,-2.21249 0,-0.80768 0.40391,-1.65678 1.28078,-2.17107 0.83543,-0.46942 1.99538,-0.46942 2.68238,-0.46942 0.74223,0 1.78135,0 2.60298,0.45561 0.89067,0.51429 1.29458,1.40481 1.29458,2.17107 l 0.41772,0.0138 c 0,-2.37127 -2.07479,-4.23169 -4.46028,-4.23169 -2.45453,0 -4.29111,1.99504 -4.29111,4.21788 0,2.30568 1.86075,4.23514 4.29111,4.23514 z"
         style="fill:#000000;fill-opacity:1;fill-rule:nonzero;stroke:none"
         id="path30" />
      <path
         inkscape:connector-curvature="0"
         d="m 566.92478,560.90478 -5.1093,0 c -0.86305,0 -0.86305,-0.214 -0.86305,-1.49456 l -0.59379,0 c 0.0276,0.67307 0.0656,1.64298 0.0656,2.15727 0,0.49703 -0.038,1.49455 -0.0656,2.12965 l 0.59379,0 c 0,-1.26674 0,-1.47039 0.86305,-1.47039 l 3.50401,0 c 1.98503,0 3.04832,1.34958 3.04832,2.5611 0,1.20117 -1.02531,1.41862 -2.11621,1.41862 l -4.43612,0 c -0.86305,0 -0.86305,-0.21745 -0.86305,-1.498 l -0.59379,0 c 0.0276,0.67306 0.0656,1.64297 0.0656,2.15725 0,0.49704 -0.038,1.49801 -0.0656,2.14347 l 0.59379,0 c 0,-1.28056 0,-1.49801 0.86305,-1.49801 l 3.50401,0 c 1.98503,0 3.04832,1.36339 3.04832,2.58872 0,1.20116 -1.02531,1.40481 -2.11621,1.40481 l -4.43612,0 c -0.86305,0 -0.86305,-0.20365 -0.86305,-1.4842 l -0.59379,0 c 0.0276,0.65926 0.0656,1.63262 0.0656,2.15726 0,0.48668 -0.038,1.4842 -0.0656,2.12965 l 0.59379,0 c 0,-0.98371 0,-1.47038 0.57997,-1.4842 l 3.63865,0 c 1.6329,0 2.22669,0 2.91368,-0.59022 0.32451,-0.27268 0.7008,-0.90433 0.7008,-2.00884 0,-1.60501 -1.13233,-2.42994 -1.86075,-2.76475 1.66052,-0.25542 1.86075,-1.67404 1.86075,-2.53694 0,-1.38756 -0.82163,-2.29188 -1.99539,-2.81653 l 1.99539,0 -0.20023,-2.69572 -0.59378,0 c 0,1.33233 -0.13464,1.49456 -1.06674,1.49456 z"
         style="fill:#000000;fill-opacity:1;fill-rule:nonzero;stroke:none"
         id="path32" />
      <path
         inkscape:connector-curvature="0"
         d="m 567.53237,577.9765 1.25316,0 -0.20023,-2.75094 -0.59378,0 c 0,1.35993 -0.12083,1.49454 -0.95627,1.49454 l -8.9171,0 c -0.86306,0 -0.86306,-0.214 -0.86306,-1.49454 l -0.59033,0 c 0.0241,0.65926 0.0518,1.64297 0.0518,2.14345 0,0.51084 -0.0276,1.4842 -0.0518,2.14346 l 0.59033,0 c 0,-1.26674 0,-1.4842 0.86306,-1.4842 l 3.37282,0 0.24166,0.26923 c 0.40736,-0.26923 0.43153,-0.26923 0.79746,-0.26923 l 4.26005,0 c 0.97008,0.55226 1.52589,1.4842 1.52589,2.46791 0,1.38755 -1.67433,2.5473 -3.83197,2.5473 -2.30609,0 -3.91138,-1.33233 -3.91138,-2.74749 0,-0.75591 0.37975,-1.4842 1.15995,-1.99849 l -0.24166,-0.26923 c -0.3107,0.0966 -1.336,0.90433 -1.336,2.34711 0,2.27807 1.86075,4.24549 4.32909,4.24549 2.42691,0 4.30147,-1.84662 4.30147,-3.97627 0,-1.48419 -0.83544,-2.29187 -1.25316,-2.6681 z"
         style="fill:#000000;fill-opacity:1;fill-rule:nonzero;stroke:none"
         id="path34" />
      <path
         inkscape:connector-curvature="0"
         d="m 561.86727,592.7667 -1.7123,0 0.20367,2.73713 0.59379,0 c 0,-1.33578 0.13464,-1.48419 1.06329,-1.48419 l 6.76981,0 -0.20023,-2.80272 -0.59378,0 c 0,1.33232 -0.13464,1.48075 -1.06674,1.48075 l -3.39699,0 c -1.66052,0 -2.95511,-0.91469 -2.95511,-2.30569 0,-1.605 0.89068,-1.67059 1.87457,-1.67059 l 6.33828,0 -0.20023,-2.80616 -0.59378,0 c 0,1.48419 -0.0552,1.48419 -1.75373,1.48419 l -2.85845,0 c -1.49826,0 -3.22437,0 -3.22437,2.89937 0,1.06655 0.52819,1.90184 1.7123,2.46791 z"
         style="fill:#000000;fill-opacity:1;fill-rule:nonzero;stroke:none"
         id="path36" />
      <path
         inkscape:connector-curvature="0"
         d="m 567.99152,599.21087 0,2.72333 0.59378,0 0,-2.72333 3.50401,0 0,-0.47287 c -1.56386,-0.0276 -3.60067,-0.59368 -3.68007,-2.46791 l -0.41772,0 0,1.61881 -5.26119,0 c -2.34407,0 -2.57536,1.78104 -2.57536,2.46791 0,1.34958 1.34982,1.88804 2.57536,1.88804 l 1.08054,0 0,-0.48668 -1.03912,0 c -1.41541,0 -2.14383,-0.56606 -2.14383,-1.26675 0,-1.28055 1.73992,-1.28055 2.06443,-1.28055 l 5.29917,0 z"
         style="fill:#000000;fill-opacity:1;fill-rule:nonzero;stroke:none"
         id="path38" />
      <path
         inkscape:connector-curvature="0"
         d="m 564.76714,605.41344 0.40391,0.0276 c 2.84809,0.107 3.31759,1.71201 3.31759,2.37127 0,1.95707 -2.58917,2.14346 -3.31759,2.14346 l 0,-4.51473 -0.40391,-0.0276 0,5.32585 c 0,0.41764 0,0.47287 0.40391,0.47287 1.88837,0 3.73531,-1.02513 3.73531,-3.39985 0,-2.22284 -1.96777,-3.97626 -4.35326,-3.97626 -2.5512,0 -4.39813,2.00884 -4.39813,4.19372 0,2.32984 2.11966,3.18239 2.46834,3.18239 0.20368,0 0.24165,-0.14842 0.24165,-0.24507 0,-0.17603 -0.12083,-0.214 -0.26927,-0.25541 -1.96777,-0.65926 -1.96777,-2.37127 -1.96777,-2.56111 0,-0.9561 0.57997,-1.72581 1.28078,-2.15726 0.91829,-0.57987 2.17145,-0.57987 2.85844,-0.57987 z"
         style="fill:#000000;fill-opacity:1;fill-rule:nonzero;stroke:none"
         id="path40" />
      <path
         inkscape:connector-curvature="0"
         d="m 566.69693,614.93301 2.0886,0 -0.20023,-2.64394 -0.59378,0 c 0,1.32197 -0.13464,1.4842 -1.06674,1.4842 l -5.1093,0 c -0.86305,0 -0.86305,-0.21746 -0.86305,-1.4842 l -0.59379,0 c 0.0276,0.7421 0.0656,1.63261 0.0656,2.17107 0,0.7559 0,1.65678 -0.0656,2.42648 l 0.59379,0 0,-0.40383 c 0,-1.41517 0.20023,-1.45659 0.90448,-1.45659 l 2.93785,0 c 1.87455,0 3.57305,0.80768 3.57305,2.25046 0,0.13461 0,0.17603 -0.0138,0.21745 -0.0138,-0.069 -0.24165,-0.44526 -0.74222,-0.44526 -0.53855,0 -0.82163,0.40384 -0.82163,0.82149 0,0.35206 0.2313,0.82493 0.83544,0.82493 0.6214,0 1.15994,-0.59367 1.15994,-1.41861 0,-1.38755 -1.26696,-2.07442 -2.0886,-2.34365 z"
         style="fill:#000000;fill-opacity:1;fill-rule:nonzero;stroke:none"
         id="path42" />
    </g>
    <rect
       rx="11.42761"
       style="fill:#ffffff;stroke:#000000;stroke-width:1;stroke-linecap:round;stroke-linejoin:round;stroke-opacity:1"
       id="rect10920-3"
       width="35.695293"
       height="228.55872"
       x="298.33847"
       y="-627.49731"
       ry="11.42761"
       transform="matrix(0,1,-1,0,0,0)" />
    <rect
       rx="11.42761"
       ry="11.42761"
       y="-627.49731"
       x="437.47607"
       height="228.55872"
       width="35.695293"
       id="rect10922-3"
       style="fill:#ffffff;stroke:#000000;stroke-width:1;stroke-linecap:round;stroke-linejoin:round;stroke-opacity:1"
       transform="matrix(0,1,-1,0,0,0)" />
    <rect
       rx="11.706286"
       style="fill:#ffffff;stroke:#000000;stroke-width:0.99999994;stroke-linecap:round;stroke-linejoin:round;stroke-opacity:1"
       id="rect10118-0"
       width="194.67691"
       height="203.45399"
       x="287.71143"
       y="-612.26746"
       transform="matrix(-0.00245339,0.99999699,-0.99999734,-0.00230804,0,0)"
       ry="11.706286" />
    <g
       id="g18714"
       transform="matrix(0,-1,1,0,159.57722,970.73079)">
      <rect
         transform="scale(-1,-1)"
         y="-412.10504"
         x="-606.0213"
         height="49.056507"
         width="45.734592"
         id="rect10924-9"
         style="fill:#ffffff;stroke:#000000;stroke-width:1;stroke-linecap:round;stroke-linejoin:round;stroke-opacity:1" />
      <g
         transform="matrix(0,0.67072049,-0.67083806,0,1114.0639,199.07033)"
         id="g12449">
        <path
           id="path44"
           style="fill:#000000;fill-opacity:1;fill-rule:nonzero;stroke:none"
           d="m 258.61894,792.76259 -0.0566,-0.67929 0,-7.17887 c 0,-0.88513 0.0412,-1.06525 1.28654,-1.06525 l 2.35178,0 c 4.21984,0 4.21984,2.81494 4.21984,4.12206 0,1.24537 0,4.12206 -4.21984,4.12206 l -3.63832,0 0.0566,0.67929 4.50287,0 c 3.18031,0 6.03128,-2.15109 6.03128,-4.80135 0,-2.59365 -2.6091,-4.94544 -6.25256,-4.94544 l -9.36598,0 0,0.82338 0.64327,0 c 2.03272,0 2.08933,0.30362 2.08933,1.24537 l 0,13.99235 c 0,0.94689 -0.0566,1.24537 -2.08933,1.24537 l -0.64327,0 0,0.82338 c 0.92631,-0.0772 2.89728,-0.0772 3.90078,-0.0772 1.00349,0 2.99505,0 3.92135,0.0772 l 0,-0.82338 -0.62268,0 c -2.05331,0 -2.11506,-0.29848 -2.11506,-1.24537 l 0,-6.31431 z"
           inkscape:connector-curvature="0" />
        <path
           id="path46"
           style="fill:#000000;fill-opacity:1;fill-rule:nonzero;stroke:none"
           d="m 272.16872,792.0833 0.0206,0.49917 0.0412,0.50433 0.0617,0.50432 0.0772,0.47859 0.10293,0.46315 0.28303,0.92631 0.18012,0.44256 0.18011,0.42199 0.22129,0.42198 0.22128,0.4014 0.24187,0.4014 0.25731,0.36023 0.28303,0.36537 0.30363,0.36023 0.29847,0.32421 0.32421,0.31906 0.33965,0.30362 0.34479,0.2779 0.36023,0.26245 0.76163,0.48374 0.40654,0.2007 0.4014,0.18011 0.42198,0.18012 0.42199,0.14409 0.42198,0.11836 0.44257,0.10292 0.44257,0.0772 0.458,0.0618 0.46315,0.0412 0.44257,0.0206 c 4.34334,0 6.937,-3.70007 6.937,-6.77747 0,-0.26245 0,-0.44256 -0.34479,-0.44256 -0.29848,0 -0.29848,0.16467 -0.31906,0.42198 -0.22129,3.803 -3.05681,5.96952 -5.94894,5.96952 -1.61074,0 -6.81349,-0.90057 -6.81349,-8.7999 0,-7.94049 5.18216,-8.84621 6.79291,-8.84621 2.89213,0 5.24391,2.41354 5.7894,6.28858 0.0618,0.36538 0.0618,0.46315 0.42199,0.46315 0.42198,0 0.42198,-0.0978 0.42198,-0.64326 l 0,-6.28859 c 0,-0.44256 0,-0.62268 -0.30362,-0.62268 -0.0978,0 -0.2007,0 -0.42199,0.29848 l -1.3277,1.97097 c -0.96233,-0.96748 -2.3312,-2.26945 -4.88369,-2.26945 -4.94544,0 -9.22703,4.19925 -9.22703,9.62843 z"
           inkscape:connector-curvature="0" />
        <path
           id="path48"
           style="fill:#000000;fill-opacity:1;fill-rule:nonzero;stroke:none"
           d="m 302.0009,791.67675 0.24187,-0.0566 0.24186,-0.0412 0.22129,-0.0823 0.24187,-0.0566 0.22128,-0.0823 0.2007,-0.0823 0.22128,-0.0978 0.4014,-0.2007 0.36023,-0.2007 0.36023,-0.24187 0.16468,-0.12351 0.15953,-0.13894 0.42198,-0.42199 0.11836,-0.13894 0.12351,-0.16468 0.11836,-0.13894 0.10293,-0.15953 0.0772,-0.15954 0.10292,-0.16467 0.0617,-0.18012 0.0566,-0.15953 0.0618,-0.18011 0.0823,-0.36538 0.0412,-0.15953 0,-0.18011 0.0206,-0.2007 c 0,-2.29003 -2.45471,-4.48229 -5.89233,-4.48229 l -0.2007,0.82338 c 2.57307,0 3.49937,2.25401 3.49937,3.65891 0,1.70852 -1.28653,3.94194 -4.24556,3.94194 l -3.83902,0 0,0.58151 4.98661,0 c 2.63482,0 3.74124,2.47015 3.74124,4.24042 0,1.88864 -1.36887,4.06031 -4.10147,4.06031 l -3.31926,0 c -1.26595,0 -1.30712,-0.18012 -1.30712,-1.06525 l 0,-14.35259 c 0,-0.88513 0.0412,-1.06525 1.30712,-1.06525 l 3.27809,0 0.2007,-0.82338 -9.71077,0 0,0.82338 0.62268,0 c 2.05331,0 2.09448,0.30362 2.09448,1.24537 l 0,13.99235 c 0,0.94689 -0.0412,1.24537 -2.09448,1.24537 l -0.62268,0 0,0.82338 10.3952,0 c 3.5354,0 5.90777,-2.37237 5.90777,-4.8631 0,-2.29003 -2.17167,-4.30217 -5.12555,-4.6058 z"
           inkscape:connector-curvature="0" />
      </g>
    </g>
    <path
       style="fill:none;fill-rule:evenodd;stroke:#000000;stroke-width:1px;stroke-linecap:butt;stroke-linejoin:miter;stroke-opacity:1"
       d="m 414.08068,387.64352 c -6.30694,0.78877 -9.46041,29.97296 1.57675,33.12799 11.03715,3.15505 58.49305,1.20127 69.30222,-2.32734 7.36995,-2.40593 28.27938,-6.08369 45.63989,-22.47132"
       id="path11832"
       inkscape:connector-curvature="0"
       sodipodi:nodetypes="cssc" />
    <path
       style="fill:none;fill-rule:evenodd;stroke:#000000;stroke-width:1px;stroke-linecap:butt;stroke-linejoin:miter;stroke-opacity:1"
       d="m 536.41564,526.99631 c 6.22812,-124.67821 6.22812,-124.12653 6.22812,-124.12653"
       id="path12538"
       inkscape:connector-curvature="0" />
    <rect
       style="fill:none;stroke:#000000;stroke-width:1;stroke-linecap:round;stroke-linejoin:round;stroke-miterlimit:4;stroke-dasharray:none;stroke-dashoffset:1.39999998;stroke-opacity:1"
       id="rect8406"
       width="33.335033"
       height="80.812202"
       x="298.31146"
       y="-598.90814"
       transform="matrix(0,1,-1,0,0,0)" />
    <rect
       style="fill:#ffffff;stroke:#000000;stroke-width:1.62816584;stroke-linecap:round;stroke-linejoin:round;stroke-opacity:1"
       id="rect10926-8"
       width="11.805188"
       height="29.952045"
       x="379.50229"
       y="-443.1412"
       transform="matrix(0,1,-1,0,0,0)" />
    <ellipse
       ry="0.65963918"
       rx="0.65544128"
       cy="-424.03391"
       cx="383.50021"
       id="path12854"
       style="fill:#000000;stroke:#000000;stroke-width:0.32236353;stroke-linecap:round;stroke-linejoin:round;stroke-miterlimit:4;stroke-dasharray:none;stroke-dashoffset:1.39999998;stroke-opacity:1"
       transform="matrix(0,1,-1,0,0,0)" />
    <ellipse
       ry="1.413499"
       rx="1.4045037"
       style="fill:none;stroke:#000000;stroke-width:0.28782183;stroke-linecap:round;stroke-linejoin:round;stroke-miterlimit:4;stroke-dasharray:none;stroke-dashoffset:1.39999998;stroke-opacity:1"
       id="circle12856"
       cx="383.50021"
       cy="-424.03391"
       transform="matrix(0,1,-1,0,0,0)" />
    <path
       inkscape:connector-curvature="0"
       id="path12858"
       d="m 423.97677,383.5002 5.75965,0"
       style="fill:none;fill-rule:evenodd;stroke:#000000;stroke-width:0.66442859;stroke-linecap:butt;stroke-linejoin:miter;stroke-miterlimit:4;stroke-dasharray:none;stroke-opacity:1" />
    <path
       style="fill:none;fill-rule:evenodd;stroke:#000000;stroke-width:0.66442859;stroke-linecap:butt;stroke-linejoin:miter;stroke-miterlimit:4;stroke-dasharray:none;stroke-opacity:1"
       d="m 423.96005,383.18286 0,5.75965"
       id="path17664"
       inkscape:connector-curvature="0" />
    <g
       id="textext-8cdf3b74-2"
       transform="matrix(0,0.79358769,-0.79358769,0,534.93846,203.77641)">
      <g
         style="fill:#000000;fill-opacity:1"
         id="g17807">
        <use
           xlink:href="#textext-8cdf3b74-1"
           x="223.43201"
           y="134.765"
           id="use17809"
           width="100%"
           height="100%"
           transform="matrix(0,-0.59111553,0.59111553,0,148.47855,264.62624)" />
      </g>
    </g>
    <g
       id="textext-a835f4bb-2"
       transform="matrix(0.46910203,0,0,0.46910203,314.09833,325.87477)">
      <g
         id="g18098"
         style="fill:#000000;fill-opacity:1">
        <use
           id="use18100"
           y="134.765"
           x="223.43201"
           xlink:href="#textext-a835f4bb-1"
           width="100%"
           height="100%" />
      </g>
    </g>
    <g
       ns0:text="Magnetometer"
       ns0:preamble=""
       transform="matrix(1.2681535,0,0,1.2681535,-208.01463,201.68909)"
       id="g18886">
      <defs
         id="defs18888">
        <g
           id="g18890">
          <symbol
             style="overflow:visible"
             overflow="visible"
             id="textext-0eed4458-0">
            <path
               inkscape:connector-curvature="0"
               style="stroke:none"
               d=""
               id="path18893" />
          </symbol>
          <symbol
             style="overflow:visible"
             overflow="visible"
             id="textext-0eed4458-1">
            <path
               inkscape:connector-curvature="0"
               style="stroke:none"
               d="M 2.40625,-6.59375 C 2.3125,-6.8125 2.28125,-6.8125 2.046875,-6.8125 l -1.671875,0 0,0.3125 0.234375,0 c 0.765625,0 0.78125,0.109375 0.78125,0.46875 l 0,4.984375 c 0,0.265625 0,0.734375 -1.015625,0.734375 L 0.375,0 c 0.34375,-0.015625 0.828125,-0.03125 1.15625,-0.03125 0.328125,0 0.828125,0.015625 1.171875,0.03125 l 0,-0.3125 c -1.03125,0 -1.03125,-0.46875 -1.03125,-0.734375 l 0,-5.375 0.015625,0 2.40625,6.203125 C 4.140625,-0.09375 4.1875,0 4.28125,0 4.390625,0 4.421875,-0.078125 4.46875,-0.1875 L 6.921875,-6.5 l 0,5.71875 c 0,0.359375 -0.015625,0.46875 -0.78125,0.46875 l -0.234375,0 0,0.3125 c 0.359375,-0.03125 1.046875,-0.03125 1.4375,-0.03125 0.375,0 1.046875,0 1.421875,0.03125 l 0,-0.3125 -0.25,0 c -0.765625,0 -0.78125,-0.109375 -0.78125,-0.46875 l 0,-5.25 C 7.734375,-6.390625 7.75,-6.5 8.515625,-6.5 l 0.25,0 0,-0.3125 -1.6875,0 C 6.8125,-6.8125 6.8125,-6.796875 6.75,-6.625 L 4.5625,-1 Z m 0,0"
               id="path18896" />
          </symbol>
          <symbol
             style="overflow:visible"
             overflow="visible"
             id="textext-0eed4458-2">
            <path
               inkscape:connector-curvature="0"
               style="stroke:none"
               d="m 3.3125,-0.75 c 0.046875,0.390625 0.3125,0.8125 0.78125,0.8125 0.21875,0 0.828125,-0.140625 0.828125,-0.953125 l 0,-0.5625 -0.25,0 0,0.5625 c 0,0.578125 -0.25,0.640625 -0.359375,0.640625 -0.328125,0 -0.375,-0.453125 -0.375,-0.5 l 0,-1.984375 c 0,-0.421875 0,-0.8125 -0.359375,-1.1875 C 3.1875,-4.3125 2.6875,-4.46875 2.21875,-4.46875 c -0.828125,0 -1.515625,0.46875 -1.515625,1.125 0,0.296875 0.203125,0.46875 0.46875,0.46875 0.28125,0 0.453125,-0.203125 0.453125,-0.453125 0,-0.125 -0.046875,-0.453125 -0.515625,-0.453125 C 1.390625,-4.140625 1.875,-4.25 2.1875,-4.25 c 0.5,0 1.0625,0.390625 1.0625,1.28125 l 0,0.359375 c -0.515625,0.03125 -1.203125,0.0625 -1.828125,0.359375 -0.75,0.34375 -1,0.859375 -1,1.296875 0,0.8125 0.96875,1.0625 1.59375,1.0625 0.65625,0 1.109375,-0.40625 1.296875,-0.859375 z M 3.25,-2.390625 l 0,1 c 0,0.9375 -0.71875,1.28125 -1.171875,1.28125 -0.484375,0 -0.890625,-0.34375 -0.890625,-0.84375 0,-0.546875 0.421875,-1.375 2.0625,-1.4375 z m 0,0"
               id="path18899" />
          </symbol>
          <symbol
             style="overflow:visible"
             overflow="visible"
             id="textext-0eed4458-3">
            <path
               inkscape:connector-curvature="0"
               style="stroke:none"
               d="m 2.21875,-1.71875 c -0.875,0 -0.875,-1 -0.875,-1.21875 0,-0.265625 0.015625,-0.59375 0.15625,-0.84375 0.078125,-0.109375 0.3125,-0.390625 0.71875,-0.390625 0.859375,0 0.859375,0.984375 0.859375,1.21875 0,0.265625 0,0.59375 -0.15625,0.84375 C 2.84375,-2 2.609375,-1.71875 2.21875,-1.71875 Z M 1.0625,-1.328125 c 0,-0.03125 0,-0.265625 0.15625,-0.46875 0.390625,0.28125 0.8125,0.3125 1,0.3125 0.921875,0 1.609375,-0.6875 1.609375,-1.453125 0,-0.375 -0.15625,-0.734375 -0.40625,-0.96875 C 3.78125,-4.25 4.140625,-4.296875 4.3125,-4.296875 c 0.03125,0 0.078125,0 0.109375,0.015625 C 4.3125,-4.25 4.25,-4.140625 4.25,-4.015625 c 0,0.171875 0.140625,0.28125 0.296875,0.28125 0.09375,0 0.28125,-0.0625 0.28125,-0.296875 0,-0.171875 -0.109375,-0.484375 -0.5,-0.484375 -0.203125,0 -0.640625,0.0625 -1.0625,0.46875 C 2.84375,-4.375 2.4375,-4.40625 2.21875,-4.40625 c -0.9375,0 -1.625,0.6875 -1.625,1.453125 0,0.4375 0.21875,0.8125 0.46875,1.03125 -0.125,0.140625 -0.3125,0.46875 -0.3125,0.828125 0,0.3125 0.140625,0.6875 0.453125,0.890625 -0.609375,0.15625 -0.921875,0.59375 -0.921875,0.984375 0,0.71875 0.984375,1.265625 2.203125,1.265625 1.171875,0 2.203125,-0.5 2.203125,-1.28125 0,-0.34375 -0.125,-0.859375 -0.640625,-1.140625 -0.53125,-0.265625 -1.109375,-0.265625 -1.71875,-0.265625 -0.25,0 -0.671875,0 -0.75,-0.015625 C 1.265625,-0.703125 1.0625,-1 1.0625,-1.328125 Z M 2.5,1.828125 c -1.015625,0 -1.703125,-0.515625 -1.703125,-1.046875 0,-0.453125 0.375,-0.828125 0.8125,-0.84375 l 0.59375,0 c 0.859375,0 1.96875,0 1.96875,0.84375 0,0.546875 -0.703125,1.046875 -1.671875,1.046875 z m 0,0"
               id="path18902" />
          </symbol>
          <symbol
             style="overflow:visible"
             overflow="visible"
             id="textext-0eed4458-4">
            <path
               inkscape:connector-curvature="0"
               style="stroke:none"
               d="m 1.09375,-3.421875 0,2.671875 c 0,0.4375 -0.109375,0.4375 -0.78125,0.4375 l 0,0.3125 c 0.359375,-0.015625 0.859375,-0.03125 1.140625,-0.03125 0.25,0 0.765625,0.015625 1.109375,0.03125 l 0,-0.3125 c -0.671875,0 -0.78125,0 -0.78125,-0.4375 l 0,-1.84375 C 1.78125,-3.625 2.5,-4.1875 3.125,-4.1875 c 0.640625,0 0.75,0.53125 0.75,1.109375 l 0,2.328125 c 0,0.4375 -0.109375,0.4375 -0.78125,0.4375 l 0,0.3125 c 0.34375,-0.015625 0.859375,-0.03125 1.125,-0.03125 0.25,0 0.78125,0.015625 1.109375,0.03125 l 0,-0.3125 c -0.515625,0 -0.765625,0 -0.765625,-0.296875 l 0,-1.90625 c 0,-0.859375 0,-1.15625 -0.3125,-1.515625 -0.140625,-0.171875 -0.46875,-0.375 -1.046875,-0.375 C 2.46875,-4.40625 2,-3.984375 1.71875,-3.359375 l 0,-1.046875 -1.40625,0.109375 0,0.3125 c 0.703125,0 0.78125,0.0625 0.78125,0.5625 z m 0,0"
               id="path18905" />
          </symbol>
          <symbol
             style="overflow:visible"
             overflow="visible"
             id="textext-0eed4458-5">
            <path
               inkscape:connector-curvature="0"
               style="stroke:none"
               d="M 1.109375,-2.515625 C 1.171875,-4 2.015625,-4.25 2.359375,-4.25 c 1.015625,0 1.125,1.34375 1.125,1.734375 z m 0,0.21875 2.78125,0 c 0.21875,0 0.25,0 0.25,-0.21875 0,-0.984375 -0.546875,-1.953125 -1.78125,-1.953125 -1.15625,0 -2.078125,1.03125 -2.078125,2.28125 0,1.328125 1.046875,2.296875 2.1875,2.296875 C 3.6875,0.109375 4.140625,-1 4.140625,-1.1875 4.140625,-1.28125 4.0625,-1.3125 4,-1.3125 c -0.078125,0 -0.109375,0.0625 -0.125,0.140625 -0.34375,1.03125 -1.25,1.03125 -1.34375,1.03125 -0.5,0 -0.890625,-0.296875 -1.125,-0.671875 -0.296875,-0.46875 -0.296875,-1.125 -0.296875,-1.484375 z m 0,0"
               id="path18908" />
          </symbol>
          <symbol
             style="overflow:visible"
             overflow="visible"
             id="textext-0eed4458-6">
            <path
               inkscape:connector-curvature="0"
               style="stroke:none"
               d="m 1.71875,-3.984375 1.4375,0 0,-0.3125 -1.4375,0 0,-1.828125 -0.25,0 c 0,0.8125 -0.296875,1.875 -1.28125,1.921875 l 0,0.21875 0.84375,0 0,2.75 c 0,1.21875 0.9375,1.34375 1.296875,1.34375 0.703125,0 0.984375,-0.703125 0.984375,-1.34375 l 0,-0.5625 -0.25,0 0,0.546875 c 0,0.734375 -0.296875,1.109375 -0.671875,1.109375 -0.671875,0 -0.671875,-0.90625 -0.671875,-1.078125 z m 0,0"
               id="path18911" />
          </symbol>
          <symbol
             style="overflow:visible"
             overflow="visible"
             id="textext-0eed4458-7">
            <path
               inkscape:connector-curvature="0"
               style="stroke:none"
               d="M 4.6875,-2.140625 C 4.6875,-3.40625 3.703125,-4.46875 2.5,-4.46875 c -1.25,0 -2.21875,1.09375 -2.21875,2.328125 0,1.296875 1.03125,2.25 2.203125,2.25 1.203125,0 2.203125,-0.984375 2.203125,-2.25 z m -2.1875,2 c -0.4375,0 -0.875,-0.203125 -1.140625,-0.671875 -0.25,-0.4375 -0.25,-1.046875 -0.25,-1.40625 0,-0.390625 0,-0.921875 0.234375,-1.359375 C 1.609375,-4.03125 2.078125,-4.25 2.484375,-4.25 c 0.4375,0 0.859375,0.21875 1.125,0.65625 0.265625,0.421875 0.265625,1 0.265625,1.375 0,0.359375 0,0.90625 -0.21875,1.34375 C 3.421875,-0.421875 2.984375,-0.140625 2.5,-0.140625 Z m 0,0"
               id="path18914" />
          </symbol>
          <symbol
             style="overflow:visible"
             overflow="visible"
             id="textext-0eed4458-8">
            <path
               inkscape:connector-curvature="0"
               style="stroke:none"
               d="m 1.09375,-3.421875 0,2.671875 c 0,0.4375 -0.109375,0.4375 -0.78125,0.4375 l 0,0.3125 c 0.359375,-0.015625 0.859375,-0.03125 1.140625,-0.03125 0.25,0 0.765625,0.015625 1.109375,0.03125 l 0,-0.3125 c -0.671875,0 -0.78125,0 -0.78125,-0.4375 l 0,-1.84375 C 1.78125,-3.625 2.5,-4.1875 3.125,-4.1875 c 0.640625,0 0.75,0.53125 0.75,1.109375 l 0,2.328125 c 0,0.4375 -0.109375,0.4375 -0.78125,0.4375 l 0,0.3125 c 0.34375,-0.015625 0.859375,-0.03125 1.125,-0.03125 0.25,0 0.78125,0.015625 1.109375,0.03125 l 0,-0.3125 c -0.65625,0 -0.765625,0 -0.765625,-0.4375 l 0,-1.84375 c 0,-1.03125 0.703125,-1.59375 1.34375,-1.59375 0.625,0 0.734375,0.53125 0.734375,1.109375 l 0,2.328125 c 0,0.4375 -0.109375,0.4375 -0.78125,0.4375 l 0,0.3125 c 0.34375,-0.015625 0.859375,-0.03125 1.125,-0.03125 0.265625,0 0.78125,0.015625 1.125,0.03125 l 0,-0.3125 c -0.515625,0 -0.765625,0 -0.78125,-0.296875 l 0,-1.90625 c 0,-0.859375 0,-1.15625 -0.3125,-1.515625 -0.140625,-0.171875 -0.46875,-0.375 -1.046875,-0.375 -0.828125,0 -1.28125,0.59375 -1.4375,0.984375 C 4.390625,-4.296875 3.65625,-4.40625 3.203125,-4.40625 2.46875,-4.40625 2,-3.984375 1.71875,-3.359375 l 0,-1.046875 -1.40625,0.109375 0,0.3125 c 0.703125,0 0.78125,0.0625 0.78125,0.5625 z m 0,0"
               id="path18917" />
          </symbol>
          <symbol
             style="overflow:visible"
             overflow="visible"
             id="textext-0eed4458-9">
            <path
               inkscape:connector-curvature="0"
               style="stroke:none"
               d="m 1.671875,-3.3125 0,-1.09375 -1.390625,0.109375 0,0.3125 c 0.703125,0 0.78125,0.0625 0.78125,0.5625 l 0,2.671875 c 0,0.4375 -0.109375,0.4375 -0.78125,0.4375 l 0,0.3125 c 0.390625,-0.015625 0.859375,-0.03125 1.140625,-0.03125 0.390625,0 0.859375,0 1.265625,0.03125 l 0,-0.3125 -0.21875,0 c -0.734375,0 -0.75,-0.109375 -0.75,-0.46875 l 0,-1.53125 c 0,-0.984375 0.421875,-1.875 1.171875,-1.875 0.0625,0 0.09375,0 0.109375,0.015625 -0.03125,0 -0.234375,0.125 -0.234375,0.390625 0,0.265625 0.21875,0.421875 0.4375,0.421875 0.171875,0 0.421875,-0.125 0.421875,-0.4375 0,-0.3125 -0.3125,-0.609375 -0.734375,-0.609375 -0.734375,0 -1.09375,0.671875 -1.21875,1.09375 z m 0,0"
               id="path18920" />
          </symbol>
        </g>
      </defs>
      <g
         id="textext-0eed4458-10">
        <g
           style="fill:#000000;fill-opacity:1"
           id="g18923">
          <use
             height="100%"
             width="100%"
             xlink:href="#textext-0eed4458-1"
             x="223.43201"
             y="134.765"
             id="use18925" />
          <use
             height="100%"
             width="100%"
             xlink:href="#textext-0eed4458-2"
             x="232.56471"
             y="134.765"
             id="use18927" />
          <use
             height="100%"
             width="100%"
             xlink:href="#textext-0eed4458-3"
             x="237.54602"
             y="134.765"
             id="use18929" />
          <use
             height="100%"
             width="100%"
             xlink:href="#textext-0eed4458-4"
             x="242.52731"
             y="134.765"
             id="use18931" />
          <use
             height="100%"
             width="100%"
             xlink:href="#textext-0eed4458-5"
             x="248.06253"
             y="134.765"
             id="use18933" />
          <use
             height="100%"
             width="100%"
             xlink:href="#textext-0eed4458-6"
             x="252.48991"
             y="134.765"
             id="use18935" />
          <use
             height="100%"
             width="100%"
             xlink:href="#textext-0eed4458-7"
             x="256.36438"
             y="134.765"
             id="use18937" />
          <use
             height="100%"
             width="100%"
             xlink:href="#textext-0eed4458-8"
             x="261.34567"
             y="134.765"
             id="use18939" />
          <use
             height="100%"
             width="100%"
             xlink:href="#textext-0eed4458-5"
             x="269.64749"
             y="134.765"
             id="use18941" />
          <use
             height="100%"
             width="100%"
             xlink:href="#textext-0eed4458-6"
             x="274.07489"
             y="134.765"
             id="use18943" />
          <use
             height="100%"
             width="100%"
             xlink:href="#textext-0eed4458-5"
             x="277.94934"
             y="134.765"
             id="use18945" />
          <use
             height="100%"
             width="100%"
             xlink:href="#textext-0eed4458-9"
             x="282.37671"
             y="134.765"
             id="use18947" />
        </g>
      </g>
    </g>
    <g
       id="g19267"
       transform="matrix(1.6541195,0,0,1.6541195,160.97079,97.473513)"
       ns0:preamble=""
       ns0:text="Battery">
      <defs
         id="defs19269">
        <g
           id="g19271">
          <symbol
             id="textext-6bbb32a1-0"
             overflow="visible"
             style="overflow:visible">
            <path
               id="path19274"
               d=""
               style="stroke:none"
               inkscape:connector-curvature="0" />
          </symbol>
          <symbol
             id="textext-6bbb32a1-1"
             overflow="visible"
             style="overflow:visible">
            <path
               id="path19277"
               d="m 2.21875,-3.65625 0,-2.4375 C 2.21875,-6.4375 2.234375,-6.5 2.703125,-6.5 l 1.234375,0 c 0.96875,0 1.3125,0.84375 1.3125,1.375 0,0.640625 -0.484375,1.46875 -1.59375,1.46875 z M 4.5625,-3.5625 C 5.53125,-3.75 6.21875,-4.390625 6.21875,-5.125 6.21875,-5.984375 5.296875,-6.8125 4,-6.8125 l -3.640625,0 0,0.3125 0.234375,0 c 0.765625,0 0.796875,0.109375 0.796875,0.46875 l 0,5.25 c 0,0.359375 -0.03125,0.46875 -0.796875,0.46875 l -0.234375,0 0,0.3125 3.90625,0 c 1.328125,0 2.21875,-0.890625 2.21875,-1.828125 0,-0.859375 -0.8125,-1.609375 -1.921875,-1.734375 z m -0.609375,3.25 -1.25,0 c -0.46875,0 -0.484375,-0.0625 -0.484375,-0.390625 l 0,-2.71875 1.875,0 C 5.078125,-3.421875 5.5,-2.5 5.5,-1.828125 5.5,-1.125 4.96875,-0.3125 3.953125,-0.3125 Z m 0,0"
               style="stroke:none"
               inkscape:connector-curvature="0" />
          </symbol>
          <symbol
             id="textext-6bbb32a1-2"
             overflow="visible"
             style="overflow:visible">
            <path
               id="path19280"
               d="m 3.3125,-0.75 c 0.046875,0.390625 0.3125,0.8125 0.78125,0.8125 0.21875,0 0.828125,-0.140625 0.828125,-0.953125 l 0,-0.5625 -0.25,0 0,0.5625 c 0,0.578125 -0.25,0.640625 -0.359375,0.640625 -0.328125,0 -0.375,-0.453125 -0.375,-0.5 l 0,-1.984375 c 0,-0.421875 0,-0.8125 -0.359375,-1.1875 C 3.1875,-4.3125 2.6875,-4.46875 2.21875,-4.46875 c -0.828125,0 -1.515625,0.46875 -1.515625,1.125 0,0.296875 0.203125,0.46875 0.46875,0.46875 0.28125,0 0.453125,-0.203125 0.453125,-0.453125 0,-0.125 -0.046875,-0.453125 -0.515625,-0.453125 C 1.390625,-4.140625 1.875,-4.25 2.1875,-4.25 c 0.5,0 1.0625,0.390625 1.0625,1.28125 l 0,0.359375 c -0.515625,0.03125 -1.203125,0.0625 -1.828125,0.359375 -0.75,0.34375 -1,0.859375 -1,1.296875 0,0.8125 0.96875,1.0625 1.59375,1.0625 0.65625,0 1.109375,-0.40625 1.296875,-0.859375 z M 3.25,-2.390625 l 0,1 c 0,0.9375 -0.71875,1.28125 -1.171875,1.28125 -0.484375,0 -0.890625,-0.34375 -0.890625,-0.84375 0,-0.546875 0.421875,-1.375 2.0625,-1.4375 z m 0,0"
               style="stroke:none"
               inkscape:connector-curvature="0" />
          </symbol>
          <symbol
             id="textext-6bbb32a1-3"
             overflow="visible"
             style="overflow:visible">
            <path
               id="path19283"
               d="m 1.71875,-3.984375 1.4375,0 0,-0.3125 -1.4375,0 0,-1.828125 -0.25,0 c 0,0.8125 -0.296875,1.875 -1.28125,1.921875 l 0,0.21875 0.84375,0 0,2.75 c 0,1.21875 0.9375,1.34375 1.296875,1.34375 0.703125,0 0.984375,-0.703125 0.984375,-1.34375 l 0,-0.5625 -0.25,0 0,0.546875 c 0,0.734375 -0.296875,1.109375 -0.671875,1.109375 -0.671875,0 -0.671875,-0.90625 -0.671875,-1.078125 z m 0,0"
               style="stroke:none"
               inkscape:connector-curvature="0" />
          </symbol>
          <symbol
             id="textext-6bbb32a1-4"
             overflow="visible"
             style="overflow:visible">
            <path
               id="path19286"
               d="M 1.109375,-2.515625 C 1.171875,-4 2.015625,-4.25 2.359375,-4.25 c 1.015625,0 1.125,1.34375 1.125,1.734375 z m 0,0.21875 2.78125,0 c 0.21875,0 0.25,0 0.25,-0.21875 0,-0.984375 -0.546875,-1.953125 -1.78125,-1.953125 -1.15625,0 -2.078125,1.03125 -2.078125,2.28125 0,1.328125 1.046875,2.296875 2.1875,2.296875 C 3.6875,0.109375 4.140625,-1 4.140625,-1.1875 4.140625,-1.28125 4.0625,-1.3125 4,-1.3125 c -0.078125,0 -0.109375,0.0625 -0.125,0.140625 -0.34375,1.03125 -1.25,1.03125 -1.34375,1.03125 -0.5,0 -0.890625,-0.296875 -1.125,-0.671875 -0.296875,-0.46875 -0.296875,-1.125 -0.296875,-1.484375 z m 0,0"
               style="stroke:none"
               inkscape:connector-curvature="0" />
          </symbol>
          <symbol
             id="textext-6bbb32a1-5"
             overflow="visible"
             style="overflow:visible">
            <path
               id="path19289"
               d="m 1.671875,-3.3125 0,-1.09375 -1.390625,0.109375 0,0.3125 c 0.703125,0 0.78125,0.0625 0.78125,0.5625 l 0,2.671875 c 0,0.4375 -0.109375,0.4375 -0.78125,0.4375 l 0,0.3125 c 0.390625,-0.015625 0.859375,-0.03125 1.140625,-0.03125 0.390625,0 0.859375,0 1.265625,0.03125 l 0,-0.3125 -0.21875,0 c -0.734375,0 -0.75,-0.109375 -0.75,-0.46875 l 0,-1.53125 c 0,-0.984375 0.421875,-1.875 1.171875,-1.875 0.0625,0 0.09375,0 0.109375,0.015625 -0.03125,0 -0.234375,0.125 -0.234375,0.390625 0,0.265625 0.21875,0.421875 0.4375,0.421875 0.171875,0 0.421875,-0.125 0.421875,-0.4375 0,-0.3125 -0.3125,-0.609375 -0.734375,-0.609375 -0.734375,0 -1.09375,0.671875 -1.21875,1.09375 z m 0,0"
               style="stroke:none"
               inkscape:connector-curvature="0" />
          </symbol>
          <symbol
             id="textext-6bbb32a1-6"
             overflow="visible"
             style="overflow:visible">
            <path
               id="path19292"
               d="m 4.140625,-3.34375 c 0.25,-0.640625 0.765625,-0.640625 0.921875,-0.640625 l 0,-0.3125 c -0.234375,0.015625 -0.515625,0.03125 -0.75,0.03125 -0.171875,0 -0.640625,-0.015625 -0.859375,-0.03125 l 0,0.3125 c 0.3125,0 0.46875,0.171875 0.46875,0.421875 0,0.109375 -0.015625,0.125 -0.0625,0.25 L 2.84375,-0.875 1.75,-3.546875 C 1.703125,-3.65625 1.6875,-3.6875 1.6875,-3.734375 c 0,-0.25 0.359375,-0.25 0.5625,-0.25 l 0,-0.3125 c -0.265625,0.015625 -0.921875,0.03125 -1.09375,0.03125 -0.265625,0 -0.671875,-0.015625 -0.96875,-0.03125 l 0,0.3125 c 0.484375,0 0.671875,0 0.8125,0.34375 L 2.5,0 C 2.4375,0.125 2.296875,0.453125 2.25,0.59375 2.03125,1.140625 1.75,1.828125 1.109375,1.828125 c -0.046875,0 -0.28125,0 -0.46875,-0.1875 0.3125,-0.03125 0.390625,-0.25 0.390625,-0.421875 0,-0.25 -0.1875,-0.40625 -0.421875,-0.40625 -0.203125,0 -0.421875,0.125 -0.421875,0.421875 0,0.453125 0.421875,0.8125 0.921875,0.8125 0.625,0 1.03125,-0.578125 1.265625,-1.140625 z m 0,0"
               style="stroke:none"
               inkscape:connector-curvature="0" />
          </symbol>
        </g>
      </defs>
      <g
         id="textext-6bbb32a1-7">
        <g
           id="g19295"
           style="fill:#000000;fill-opacity:1">
          <use
             id="use19297"
             y="134.765"
             x="223.43201"
             xlink:href="#textext-6bbb32a1-1"
             width="100%"
             height="100%" />
          <use
             id="use19299"
             y="134.765"
             x="230.48851"
             xlink:href="#textext-6bbb32a1-2"
             width="100%"
             height="100%" />
          <use
             id="use19301"
             y="134.765"
             x="235.4698"
             xlink:href="#textext-6bbb32a1-3"
             width="100%"
             height="100%" />
          <use
             id="use19303"
             y="134.765"
             x="239.34427"
             xlink:href="#textext-6bbb32a1-3"
             width="100%"
             height="100%" />
          <use
             id="use19305"
             y="134.765"
             x="243.21872"
             xlink:href="#textext-6bbb32a1-4"
             width="100%"
             height="100%" />
          <use
             id="use19307"
             y="134.765"
             x="247.6461"
             xlink:href="#textext-6bbb32a1-5"
             width="100%"
             height="100%" />
          <use
             id="use19309"
             y="134.765"
             x="251.54845"
             xlink:href="#textext-6bbb32a1-6"
             width="100%"
             height="100%" />
        </g>
      </g>
    </g>
    <path
       style="fill:none;fill-rule:evenodd;stroke:#000000;stroke-width:1px;stroke-linecap:butt;stroke-linejoin:miter;stroke-opacity:1"
       d="m 517.77787,316.42029 c -27.7792,-0.50508 -27.7792,56.56854 26.26396,54.04316"
       id="path19481"
       inkscape:connector-curvature="0" />
    <path
       style="fill:none;fill-rule:evenodd;stroke:#000000;stroke-width:1px;stroke-linecap:butt;stroke-linejoin:miter;stroke-opacity:1"
       d="m 517.77787,312.37968 c -36.3655,-1.01015 -28.28428,68.1853 25.75889,60.60915"
       id="path19483"
       inkscape:connector-curvature="0" />
    <g
       id="g19485"
       transform="matrix(1.6417144,0,0,1.6417144,44.379824,184.58152)"
       ns0:preamble=""
       ns0:text="Magnetometer">
      <defs
         id="defs19487">
        <g
           id="g19489">
          <symbol
             id="symbol19491"
             overflow="visible"
             style="overflow:visible">
            <path
               id="path19493"
               d=""
               style="stroke:none"
               inkscape:connector-curvature="0" />
          </symbol>
          <symbol
             id="symbol19495"
             overflow="visible"
             style="overflow:visible">
            <path
               id="path19497"
               d="M 2.40625,-6.59375 C 2.3125,-6.8125 2.28125,-6.8125 2.046875,-6.8125 l -1.671875,0 0,0.3125 0.234375,0 c 0.765625,0 0.78125,0.109375 0.78125,0.46875 l 0,4.984375 c 0,0.265625 0,0.734375 -1.015625,0.734375 L 0.375,0 c 0.34375,-0.015625 0.828125,-0.03125 1.15625,-0.03125 0.328125,0 0.828125,0.015625 1.171875,0.03125 l 0,-0.3125 c -1.03125,0 -1.03125,-0.46875 -1.03125,-0.734375 l 0,-5.375 0.015625,0 2.40625,6.203125 C 4.140625,-0.09375 4.1875,0 4.28125,0 4.390625,0 4.421875,-0.078125 4.46875,-0.1875 L 6.921875,-6.5 l 0,5.71875 c 0,0.359375 -0.015625,0.46875 -0.78125,0.46875 l -0.234375,0 0,0.3125 c 0.359375,-0.03125 1.046875,-0.03125 1.4375,-0.03125 0.375,0 1.046875,0 1.421875,0.03125 l 0,-0.3125 -0.25,0 c -0.765625,0 -0.78125,-0.109375 -0.78125,-0.46875 l 0,-5.25 C 7.734375,-6.390625 7.75,-6.5 8.515625,-6.5 l 0.25,0 0,-0.3125 -1.6875,0 C 6.8125,-6.8125 6.8125,-6.796875 6.75,-6.625 L 4.5625,-1 Z m 0,0"
               style="stroke:none"
               inkscape:connector-curvature="0" />
          </symbol>
          <symbol
             id="symbol19499"
             overflow="visible"
             style="overflow:visible">
            <path
               id="path19501"
               d="m 3.3125,-0.75 c 0.046875,0.390625 0.3125,0.8125 0.78125,0.8125 0.21875,0 0.828125,-0.140625 0.828125,-0.953125 l 0,-0.5625 -0.25,0 0,0.5625 c 0,0.578125 -0.25,0.640625 -0.359375,0.640625 -0.328125,0 -0.375,-0.453125 -0.375,-0.5 l 0,-1.984375 c 0,-0.421875 0,-0.8125 -0.359375,-1.1875 C 3.1875,-4.3125 2.6875,-4.46875 2.21875,-4.46875 c -0.828125,0 -1.515625,0.46875 -1.515625,1.125 0,0.296875 0.203125,0.46875 0.46875,0.46875 0.28125,0 0.453125,-0.203125 0.453125,-0.453125 0,-0.125 -0.046875,-0.453125 -0.515625,-0.453125 C 1.390625,-4.140625 1.875,-4.25 2.1875,-4.25 c 0.5,0 1.0625,0.390625 1.0625,1.28125 l 0,0.359375 c -0.515625,0.03125 -1.203125,0.0625 -1.828125,0.359375 -0.75,0.34375 -1,0.859375 -1,1.296875 0,0.8125 0.96875,1.0625 1.59375,1.0625 0.65625,0 1.109375,-0.40625 1.296875,-0.859375 z M 3.25,-2.390625 l 0,1 c 0,0.9375 -0.71875,1.28125 -1.171875,1.28125 -0.484375,0 -0.890625,-0.34375 -0.890625,-0.84375 0,-0.546875 0.421875,-1.375 2.0625,-1.4375 z m 0,0"
               style="stroke:none"
               inkscape:connector-curvature="0" />
          </symbol>
          <symbol
             id="symbol19503"
             overflow="visible"
             style="overflow:visible">
            <path
               id="path19505"
               d="m 2.21875,-1.71875 c -0.875,0 -0.875,-1 -0.875,-1.21875 0,-0.265625 0.015625,-0.59375 0.15625,-0.84375 0.078125,-0.109375 0.3125,-0.390625 0.71875,-0.390625 0.859375,0 0.859375,0.984375 0.859375,1.21875 0,0.265625 0,0.59375 -0.15625,0.84375 C 2.84375,-2 2.609375,-1.71875 2.21875,-1.71875 Z M 1.0625,-1.328125 c 0,-0.03125 0,-0.265625 0.15625,-0.46875 0.390625,0.28125 0.8125,0.3125 1,0.3125 0.921875,0 1.609375,-0.6875 1.609375,-1.453125 0,-0.375 -0.15625,-0.734375 -0.40625,-0.96875 C 3.78125,-4.25 4.140625,-4.296875 4.3125,-4.296875 c 0.03125,0 0.078125,0 0.109375,0.015625 C 4.3125,-4.25 4.25,-4.140625 4.25,-4.015625 c 0,0.171875 0.140625,0.28125 0.296875,0.28125 0.09375,0 0.28125,-0.0625 0.28125,-0.296875 0,-0.171875 -0.109375,-0.484375 -0.5,-0.484375 -0.203125,0 -0.640625,0.0625 -1.0625,0.46875 C 2.84375,-4.375 2.4375,-4.40625 2.21875,-4.40625 c -0.9375,0 -1.625,0.6875 -1.625,1.453125 0,0.4375 0.21875,0.8125 0.46875,1.03125 -0.125,0.140625 -0.3125,0.46875 -0.3125,0.828125 0,0.3125 0.140625,0.6875 0.453125,0.890625 -0.609375,0.15625 -0.921875,0.59375 -0.921875,0.984375 0,0.71875 0.984375,1.265625 2.203125,1.265625 1.171875,0 2.203125,-0.5 2.203125,-1.28125 0,-0.34375 -0.125,-0.859375 -0.640625,-1.140625 -0.53125,-0.265625 -1.109375,-0.265625 -1.71875,-0.265625 -0.25,0 -0.671875,0 -0.75,-0.015625 C 1.265625,-0.703125 1.0625,-1 1.0625,-1.328125 Z M 2.5,1.828125 c -1.015625,0 -1.703125,-0.515625 -1.703125,-1.046875 0,-0.453125 0.375,-0.828125 0.8125,-0.84375 l 0.59375,0 c 0.859375,0 1.96875,0 1.96875,0.84375 0,0.546875 -0.703125,1.046875 -1.671875,1.046875 z m 0,0"
               style="stroke:none"
               inkscape:connector-curvature="0" />
          </symbol>
          <symbol
             id="symbol19507"
             overflow="visible"
             style="overflow:visible">
            <path
               id="path19509"
               d="m 1.09375,-3.421875 0,2.671875 c 0,0.4375 -0.109375,0.4375 -0.78125,0.4375 l 0,0.3125 c 0.359375,-0.015625 0.859375,-0.03125 1.140625,-0.03125 0.25,0 0.765625,0.015625 1.109375,0.03125 l 0,-0.3125 c -0.671875,0 -0.78125,0 -0.78125,-0.4375 l 0,-1.84375 C 1.78125,-3.625 2.5,-4.1875 3.125,-4.1875 c 0.640625,0 0.75,0.53125 0.75,1.109375 l 0,2.328125 c 0,0.4375 -0.109375,0.4375 -0.78125,0.4375 l 0,0.3125 c 0.34375,-0.015625 0.859375,-0.03125 1.125,-0.03125 0.25,0 0.78125,0.015625 1.109375,0.03125 l 0,-0.3125 c -0.515625,0 -0.765625,0 -0.765625,-0.296875 l 0,-1.90625 c 0,-0.859375 0,-1.15625 -0.3125,-1.515625 -0.140625,-0.171875 -0.46875,-0.375 -1.046875,-0.375 C 2.46875,-4.40625 2,-3.984375 1.71875,-3.359375 l 0,-1.046875 -1.40625,0.109375 0,0.3125 c 0.703125,0 0.78125,0.0625 0.78125,0.5625 z m 0,0"
               style="stroke:none"
               inkscape:connector-curvature="0" />
          </symbol>
          <symbol
             id="symbol19511"
             overflow="visible"
             style="overflow:visible">
            <path
               id="path19513"
               d="M 1.109375,-2.515625 C 1.171875,-4 2.015625,-4.25 2.359375,-4.25 c 1.015625,0 1.125,1.34375 1.125,1.734375 z m 0,0.21875 2.78125,0 c 0.21875,0 0.25,0 0.25,-0.21875 0,-0.984375 -0.546875,-1.953125 -1.78125,-1.953125 -1.15625,0 -2.078125,1.03125 -2.078125,2.28125 0,1.328125 1.046875,2.296875 2.1875,2.296875 C 3.6875,0.109375 4.140625,-1 4.140625,-1.1875 4.140625,-1.28125 4.0625,-1.3125 4,-1.3125 c -0.078125,0 -0.109375,0.0625 -0.125,0.140625 -0.34375,1.03125 -1.25,1.03125 -1.34375,1.03125 -0.5,0 -0.890625,-0.296875 -1.125,-0.671875 -0.296875,-0.46875 -0.296875,-1.125 -0.296875,-1.484375 z m 0,0"
               style="stroke:none"
               inkscape:connector-curvature="0" />
          </symbol>
          <symbol
             id="symbol19515"
             overflow="visible"
             style="overflow:visible">
            <path
               id="path19517"
               d="m 1.71875,-3.984375 1.4375,0 0,-0.3125 -1.4375,0 0,-1.828125 -0.25,0 c 0,0.8125 -0.296875,1.875 -1.28125,1.921875 l 0,0.21875 0.84375,0 0,2.75 c 0,1.21875 0.9375,1.34375 1.296875,1.34375 0.703125,0 0.984375,-0.703125 0.984375,-1.34375 l 0,-0.5625 -0.25,0 0,0.546875 c 0,0.734375 -0.296875,1.109375 -0.671875,1.109375 -0.671875,0 -0.671875,-0.90625 -0.671875,-1.078125 z m 0,0"
               style="stroke:none"
               inkscape:connector-curvature="0" />
          </symbol>
          <symbol
             id="symbol19519"
             overflow="visible"
             style="overflow:visible">
            <path
               id="path19521"
               d="M 4.6875,-2.140625 C 4.6875,-3.40625 3.703125,-4.46875 2.5,-4.46875 c -1.25,0 -2.21875,1.09375 -2.21875,2.328125 0,1.296875 1.03125,2.25 2.203125,2.25 1.203125,0 2.203125,-0.984375 2.203125,-2.25 z m -2.1875,2 c -0.4375,0 -0.875,-0.203125 -1.140625,-0.671875 -0.25,-0.4375 -0.25,-1.046875 -0.25,-1.40625 0,-0.390625 0,-0.921875 0.234375,-1.359375 C 1.609375,-4.03125 2.078125,-4.25 2.484375,-4.25 c 0.4375,0 0.859375,0.21875 1.125,0.65625 0.265625,0.421875 0.265625,1 0.265625,1.375 0,0.359375 0,0.90625 -0.21875,1.34375 C 3.421875,-0.421875 2.984375,-0.140625 2.5,-0.140625 Z m 0,0"
               style="stroke:none"
               inkscape:connector-curvature="0" />
          </symbol>
          <symbol
             id="symbol19523"
             overflow="visible"
             style="overflow:visible">
            <path
               id="path19525"
               d="m 1.09375,-3.421875 0,2.671875 c 0,0.4375 -0.109375,0.4375 -0.78125,0.4375 l 0,0.3125 c 0.359375,-0.015625 0.859375,-0.03125 1.140625,-0.03125 0.25,0 0.765625,0.015625 1.109375,0.03125 l 0,-0.3125 c -0.671875,0 -0.78125,0 -0.78125,-0.4375 l 0,-1.84375 C 1.78125,-3.625 2.5,-4.1875 3.125,-4.1875 c 0.640625,0 0.75,0.53125 0.75,1.109375 l 0,2.328125 c 0,0.4375 -0.109375,0.4375 -0.78125,0.4375 l 0,0.3125 c 0.34375,-0.015625 0.859375,-0.03125 1.125,-0.03125 0.25,0 0.78125,0.015625 1.109375,0.03125 l 0,-0.3125 c -0.65625,0 -0.765625,0 -0.765625,-0.4375 l 0,-1.84375 c 0,-1.03125 0.703125,-1.59375 1.34375,-1.59375 0.625,0 0.734375,0.53125 0.734375,1.109375 l 0,2.328125 c 0,0.4375 -0.109375,0.4375 -0.78125,0.4375 l 0,0.3125 c 0.34375,-0.015625 0.859375,-0.03125 1.125,-0.03125 0.265625,0 0.78125,0.015625 1.125,0.03125 l 0,-0.3125 c -0.515625,0 -0.765625,0 -0.78125,-0.296875 l 0,-1.90625 c 0,-0.859375 0,-1.15625 -0.3125,-1.515625 -0.140625,-0.171875 -0.46875,-0.375 -1.046875,-0.375 -0.828125,0 -1.28125,0.59375 -1.4375,0.984375 C 4.390625,-4.296875 3.65625,-4.40625 3.203125,-4.40625 2.46875,-4.40625 2,-3.984375 1.71875,-3.359375 l 0,-1.046875 -1.40625,0.109375 0,0.3125 c 0.703125,0 0.78125,0.0625 0.78125,0.5625 z m 0,0"
               style="stroke:none"
               inkscape:connector-curvature="0" />
          </symbol>
          <symbol
             id="symbol19527"
             overflow="visible"
             style="overflow:visible">
            <path
               id="path19529"
               d="m 1.671875,-3.3125 0,-1.09375 -1.390625,0.109375 0,0.3125 c 0.703125,0 0.78125,0.0625 0.78125,0.5625 l 0,2.671875 c 0,0.4375 -0.109375,0.4375 -0.78125,0.4375 l 0,0.3125 c 0.390625,-0.015625 0.859375,-0.03125 1.140625,-0.03125 0.390625,0 0.859375,0 1.265625,0.03125 l 0,-0.3125 -0.21875,0 c -0.734375,0 -0.75,-0.109375 -0.75,-0.46875 l 0,-1.53125 c 0,-0.984375 0.421875,-1.875 1.171875,-1.875 0.0625,0 0.09375,0 0.109375,0.015625 -0.03125,0 -0.234375,0.125 -0.234375,0.390625 0,0.265625 0.21875,0.421875 0.4375,0.421875 0.171875,0 0.421875,-0.125 0.421875,-0.4375 0,-0.3125 -0.3125,-0.609375 -0.734375,-0.609375 -0.734375,0 -1.09375,0.671875 -1.21875,1.09375 z m 0,0"
               style="stroke:none"
               inkscape:connector-curvature="0" />
          </symbol>
        </g>
      </defs>
      <g
         id="g19531">
        <g
           id="g19533"
           style="fill:#000000;fill-opacity:1">
          <use
             id="use19535"
             y="134.765"
             x="223.43201"
             xlink:href="#textext-0eed4458-1"
             width="100%"
             height="100%" />
          <use
             id="use19537"
             y="134.765"
             x="232.56471"
             xlink:href="#textext-0eed4458-2"
             width="100%"
             height="100%" />
          <use
             id="use19539"
             y="134.765"
             x="237.54602"
             xlink:href="#textext-0eed4458-3"
             width="100%"
             height="100%" />
          <use
             id="use19541"
             y="134.765"
             x="242.52731"
             xlink:href="#textext-0eed4458-4"
             width="100%"
             height="100%" />
          <use
             id="use19543"
             y="134.765"
             x="248.06253"
             xlink:href="#textext-0eed4458-5"
             width="100%"
             height="100%" />
          <use
             id="use19545"
             y="134.765"
             x="252.48991"
             xlink:href="#textext-0eed4458-6"
             width="100%"
             height="100%" />
          <use
             id="use19547"
             y="134.765"
             x="256.36438"
             xlink:href="#textext-0eed4458-7"
             width="100%"
             height="100%" />
          <use
             id="use19549"
             y="134.765"
             x="261.34567"
             xlink:href="#textext-0eed4458-8"
             width="100%"
             height="100%" />
          <use
             id="use19551"
             y="134.765"
             x="269.64749"
             xlink:href="#textext-0eed4458-5"
             width="100%"
             height="100%" />
          <use
             id="use19553"
             y="134.765"
             x="274.07489"
             xlink:href="#textext-0eed4458-6"
             width="100%"
             height="100%" />
          <use
             id="use19555"
             y="134.765"
             x="277.94934"
             xlink:href="#textext-0eed4458-5"
             width="100%"
             height="100%" />
          <use
             id="use19557"
             y="134.765"
             x="282.37671"
             xlink:href="#textext-0eed4458-9"
             width="100%"
             height="100%" />
        </g>
      </g>
    </g>
  </g>
</svg>
