<?xml version="1.0" encoding="UTF-8" standalone="no"?>
<!-- Created with Inkscape (http://www.inkscape.org/) -->

<svg
   xmlns:dc="http://purl.org/dc/elements/1.1/"
   xmlns:cc="http://creativecommons.org/ns#"
   xmlns:rdf="http://www.w3.org/1999/02/22-rdf-syntax-ns#"
   xmlns:svg="http://www.w3.org/2000/svg"
   xmlns="http://www.w3.org/2000/svg"
   xmlns:sodipodi="http://sodipodi.sourceforge.net/DTD/sodipodi-0.dtd"
   xmlns:inkscape="http://www.inkscape.org/namespaces/inkscape"
   id="svg2"
   version="1.1"
   inkscape:version="0.91 r13725"
   xml:space="preserve"
   width="677.8125"
   height="513.75"
   viewBox="0 0 677.8125 513.75"
   sodipodi:docname="P5UseCase.svg"><metadata
     id="metadata8"><rdf:RDF><cc:Work
         rdf:about=""><dc:format>image/svg+xml</dc:format><dc:type
           rdf:resource="http://purl.org/dc/dcmitype/StillImage" /><dc:title></dc:title></cc:Work></rdf:RDF></metadata><defs
     id="defs6" /><sodipodi:namedview
     pagecolor="#ffffff"
     bordercolor="#666666"
     borderopacity="1"
     objecttolerance="10"
     gridtolerance="10"
     guidetolerance="10"
     inkscape:pageopacity="0"
     inkscape:pageshadow="2"
     inkscape:window-width="1600"
     inkscape:window-height="847"
     id="namedview4"
     showgrid="false"
     inkscape:zoom="1.2992872"
     inkscape:cx="273.23153"
     inkscape:cy="282.67926"
     inkscape:window-x="-8"
     inkscape:window-y="-8"
     inkscape:window-maximized="1"
     inkscape:current-layer="g10" /><g
     id="g10"
     inkscape:groupmode="layer"
     inkscape:label="P5UseCase"
     transform="matrix(1.25,0,0,-1.25,0,513.75)"><path
       d="m 199.21,29.867 161.33,0 0,345.35 -161.33,0 0,-345.35 z"
       style="fill:#ffffff;fill-opacity:1;fill-rule:evenodd;stroke:none"
       id="path12"
       inkscape:connector-curvature="0" /><path
       d="m 199.21,29.867 161.33,0 0,345.35 -161.33,0 0,-345.35 z"
       style="fill:none;stroke:#73ae42;stroke-width:1.5;stroke-linecap:round;stroke-linejoin:round;stroke-miterlimit:10;stroke-dasharray:none;stroke-opacity:1"
       id="path14"
       inkscape:connector-curvature="0" /><path
       d="m 214.06,361.77 c 0,-0.03 -0.01,-0.06 -0.03,-0.09 -0.02,-0.03 -0.05,-0.05 -0.1,-0.06 -0.06,-0.02 -0.13,-0.03 -0.21,-0.04 -0.09,-0.01 -0.2,-0.02 -0.33,-0.02 -0.13,0 -0.24,0.01 -0.32,0.02 -0.09,0.01 -0.16,0.02 -0.21,0.04 -0.05,0.01 -0.08,0.03 -0.1,0.06 -0.02,0.03 -0.04,0.06 -0.04,0.09 l 0,5.14 -0.01,0 -2.01,-5.14 c -0.01,-0.04 -0.04,-0.07 -0.07,-0.1 -0.03,-0.03 -0.08,-0.05 -0.13,-0.07 -0.06,-0.01 -0.13,-0.02 -0.21,-0.03 -0.09,0 -0.19,-0.01 -0.32,-0.01 -0.12,0 -0.22,0.01 -0.31,0.02 -0.08,0 -0.15,0.02 -0.21,0.03 -0.05,0.02 -0.1,0.04 -0.13,0.07 -0.03,0.03 -0.05,0.06 -0.06,0.09 l -1.95,5.14 -0.01,0 0,-5.14 c 0,-0.03 -0.01,-0.06 -0.03,-0.09 -0.02,-0.03 -0.06,-0.05 -0.11,-0.06 -0.05,-0.02 -0.12,-0.03 -0.21,-0.04 -0.08,-0.01 -0.19,-0.02 -0.32,-0.02 -0.13,0 -0.24,0.01 -0.32,0.02 -0.09,0.01 -0.16,0.02 -0.21,0.04 -0.05,0.01 -0.09,0.03 -0.11,0.06 -0.02,0.03 -0.03,0.06 -0.03,0.09 l 0,5.63 c 0,0.16 0.05,0.29 0.15,0.38 0.09,0.09 0.22,0.13 0.38,0.13 l 0.93,0 c 0.16,0 0.3,-0.01 0.42,-0.04 0.12,-0.02 0.22,-0.06 0.31,-0.12 0.08,-0.06 0.16,-0.13 0.21,-0.22 0.06,-0.1 0.11,-0.21 0.15,-0.35 l 1.51,-3.76 0.02,0 1.56,3.75 c 0.04,0.14 0.09,0.26 0.15,0.35 0.06,0.09 0.12,0.17 0.19,0.23 0.08,0.06 0.16,0.1 0.26,0.12 0.1,0.03 0.22,0.04 0.35,0.04 l 0.95,0 c 0.1,0 0.18,-0.01 0.25,-0.03 0.07,-0.03 0.13,-0.06 0.18,-0.1 0.04,-0.05 0.07,-0.1 0.1,-0.16 0.02,-0.07 0.03,-0.14 0.03,-0.22 l 0,-5.63 z m 2.93,-0.01 c 0,-0.03 -0.02,-0.06 -0.04,-0.09 -0.02,-0.02 -0.05,-0.04 -0.11,-0.06 -0.05,-0.01 -0.12,-0.03 -0.2,-0.03 -0.09,-0.01 -0.2,-0.02 -0.33,-0.02 -0.13,0 -0.24,0.01 -0.33,0.02 -0.08,0 -0.15,0.02 -0.21,0.03 -0.05,0.02 -0.08,0.04 -0.11,0.06 -0.02,0.03 -0.03,0.06 -0.03,0.09 l 0,4.34 c 0,0.04 0.01,0.06 0.03,0.09 0.03,0.02 0.06,0.04 0.11,0.06 0.06,0.02 0.13,0.03 0.21,0.04 0.09,0.01 0.2,0.02 0.33,0.02 0.13,0 0.24,-0.01 0.33,-0.02 0.08,-0.01 0.15,-0.02 0.2,-0.04 0.06,-0.02 0.09,-0.04 0.11,-0.06 0.02,-0.03 0.04,-0.05 0.04,-0.09 l 0,-4.34 z m 0.1,5.83 c 0,-0.25 -0.06,-0.42 -0.17,-0.51 -0.11,-0.1 -0.32,-0.15 -0.62,-0.15 -0.3,0 -0.51,0.05 -0.61,0.14 -0.11,0.09 -0.16,0.26 -0.16,0.49 0,0.25 0.05,0.42 0.16,0.52 0.11,0.1 0.32,0.14 0.62,0.14 0.31,0 0.51,-0.04 0.62,-0.14 0.1,-0.09 0.16,-0.25 0.16,-0.49 z m 4.42,-5.14 c 0,-0.08 0,-0.15 -0.01,-0.21 -0.01,-0.06 -0.01,-0.11 -0.02,-0.14 -0.01,-0.04 -0.02,-0.08 -0.03,-0.1 -0.02,-0.02 -0.04,-0.06 -0.09,-0.09 -0.04,-0.04 -0.11,-0.09 -0.22,-0.14 -0.1,-0.05 -0.22,-0.1 -0.35,-0.14 -0.13,-0.05 -0.28,-0.08 -0.43,-0.11 -0.16,-0.02 -0.32,-0.04 -0.49,-0.04 -0.36,0 -0.69,0.06 -0.98,0.16 -0.28,0.11 -0.52,0.26 -0.71,0.46 -0.2,0.21 -0.34,0.45 -0.44,0.75 -0.1,0.29 -0.15,0.63 -0.15,1 0,0.44 0.06,0.82 0.18,1.13 0.12,0.32 0.29,0.58 0.5,0.79 0.22,0.21 0.47,0.36 0.77,0.47 0.29,0.1 0.61,0.15 0.96,0.15 0.15,0 0.29,-0.01 0.43,-0.04 0.13,-0.02 0.26,-0.05 0.38,-0.09 0.12,-0.04 0.23,-0.08 0.32,-0.13 0.1,-0.05 0.17,-0.09 0.21,-0.13 0.04,-0.03 0.06,-0.06 0.08,-0.09 0.02,-0.02 0.03,-0.06 0.04,-0.09 0.01,-0.04 0.01,-0.09 0.02,-0.15 0,-0.06 0.01,-0.12 0.01,-0.21 0,-0.18 -0.02,-0.32 -0.06,-0.39 -0.03,-0.08 -0.08,-0.12 -0.14,-0.12 -0.06,0 -0.12,0.02 -0.19,0.07 -0.07,0.05 -0.15,0.1 -0.24,0.15 -0.1,0.06 -0.21,0.11 -0.34,0.15 -0.12,0.05 -0.28,0.07 -0.46,0.07 -0.35,0 -0.62,-0.12 -0.8,-0.37 -0.19,-0.24 -0.28,-0.6 -0.28,-1.08 0,-0.23 0.02,-0.44 0.07,-0.62 0.04,-0.18 0.11,-0.33 0.2,-0.45 0.1,-0.12 0.21,-0.21 0.35,-0.27 0.14,-0.06 0.3,-0.09 0.48,-0.09 0.19,0 0.35,0.03 0.48,0.08 0.13,0.05 0.25,0.1 0.35,0.16 0.1,0.07 0.19,0.12 0.25,0.17 0.07,0.05 0.13,0.08 0.18,0.08 0.03,0 0.05,-0.01 0.08,-0.03 0.02,-0.01 0.03,-0.04 0.05,-0.09 0.01,-0.04 0.02,-0.1 0.03,-0.16 0,-0.07 0.01,-0.16 0.01,-0.27 z m 4.7,3.26 c 0,-0.12 0,-0.21 -0.01,-0.29 -0.01,-0.07 -0.02,-0.13 -0.03,-0.18 -0.02,-0.04 -0.04,-0.07 -0.06,-0.08 -0.02,-0.02 -0.05,-0.03 -0.09,-0.03 -0.03,0 -0.06,0.01 -0.09,0.02 -0.04,0.01 -0.08,0.02 -0.13,0.04 -0.04,0.01 -0.09,0.02 -0.14,0.03 -0.06,0.01 -0.12,0.02 -0.18,0.02 -0.08,0 -0.15,-0.01 -0.23,-0.04 -0.07,-0.03 -0.15,-0.07 -0.23,-0.13 -0.08,-0.06 -0.16,-0.14 -0.25,-0.24 -0.09,-0.09 -0.18,-0.21 -0.28,-0.36 l 0,-2.71 c 0,-0.03 -0.02,-0.06 -0.04,-0.09 -0.02,-0.02 -0.05,-0.04 -0.11,-0.06 -0.05,-0.01 -0.12,-0.03 -0.2,-0.03 -0.09,-0.01 -0.2,-0.02 -0.33,-0.02 -0.13,0 -0.24,0.01 -0.33,0.02 -0.08,0 -0.15,0.02 -0.21,0.03 -0.05,0.02 -0.08,0.04 -0.11,0.06 -0.02,0.03 -0.03,0.06 -0.03,0.09 l 0,4.35 c 0,0.04 0.01,0.06 0.03,0.09 0.02,0.02 0.05,0.04 0.1,0.06 0.04,0.02 0.1,0.03 0.18,0.04 0.07,0 0.16,0.01 0.27,0.01 0.12,0 0.21,-0.01 0.29,-0.01 0.07,-0.01 0.13,-0.02 0.17,-0.04 0.04,-0.02 0.07,-0.04 0.09,-0.06 0.02,-0.03 0.03,-0.05 0.03,-0.09 l 0,-0.54 c 0.12,0.16 0.24,0.3 0.35,0.4 0.11,0.11 0.22,0.19 0.32,0.26 0.1,0.06 0.2,0.1 0.3,0.13 0.1,0.02 0.2,0.03 0.3,0.03 0.05,0 0.1,0 0.15,-0.01 0.05,0 0.11,-0.01 0.17,-0.02 0.05,-0.01 0.1,-0.02 0.15,-0.04 0.04,-0.01 0.07,-0.03 0.09,-0.05 0.02,-0.01 0.04,-0.03 0.04,-0.05 0.01,-0.02 0.02,-0.05 0.03,-0.08 0.01,-0.03 0.01,-0.08 0.01,-0.15 0.01,-0.07 0.01,-0.16 0.01,-0.28 z m 5.52,-1.73 c 0,-0.37 -0.06,-0.71 -0.16,-1.02 -0.11,-0.3 -0.27,-0.57 -0.49,-0.79 -0.22,-0.22 -0.5,-0.39 -0.82,-0.51 -0.33,-0.12 -0.72,-0.18 -1.16,-0.18 -0.43,0 -0.8,0.05 -1.11,0.16 -0.32,0.11 -0.58,0.26 -0.79,0.47 -0.2,0.2 -0.36,0.46 -0.46,0.76 -0.1,0.3 -0.15,0.64 -0.15,1.02 0,0.37 0.06,0.71 0.17,1.02 0.11,0.31 0.27,0.57 0.49,0.79 0.22,0.22 0.49,0.39 0.82,0.51 0.32,0.12 0.71,0.18 1.15,0.18 0.43,0 0.8,-0.05 1.12,-0.16 0.31,-0.1 0.57,-0.26 0.78,-0.46 0.2,-0.21 0.36,-0.46 0.46,-0.76 0.1,-0.3 0.15,-0.64 0.15,-1.03 z m -1.39,-0.05 c 0,0.22 -0.02,0.41 -0.06,0.59 -0.04,0.19 -0.1,0.34 -0.19,0.48 -0.09,0.13 -0.21,0.23 -0.36,0.31 -0.15,0.07 -0.33,0.11 -0.56,0.11 -0.2,0 -0.38,-0.03 -0.53,-0.1 -0.15,-0.07 -0.27,-0.16 -0.37,-0.29 -0.09,-0.13 -0.17,-0.29 -0.21,-0.47 -0.05,-0.18 -0.08,-0.38 -0.08,-0.61 0,-0.22 0.02,-0.42 0.06,-0.6 0.04,-0.18 0.11,-0.34 0.19,-0.47 0.09,-0.13 0.21,-0.24 0.36,-0.31 0.15,-0.07 0.34,-0.11 0.56,-0.11 0.2,0 0.38,0.03 0.53,0.1 0.15,0.07 0.27,0.17 0.37,0.29 0.1,0.13 0.17,0.28 0.22,0.46 0.04,0.18 0.07,0.39 0.07,0.62 z m 9.68,-1.38 c 0,-0.08 0,-0.15 -0.01,-0.21 0,-0.06 -0.01,-0.1 -0.02,-0.14 -0.01,-0.05 -0.03,-0.08 -0.05,-0.11 -0.01,-0.03 -0.04,-0.06 -0.08,-0.1 -0.04,-0.04 -0.12,-0.09 -0.23,-0.14 -0.11,-0.06 -0.25,-0.12 -0.41,-0.17 -0.17,-0.06 -0.35,-0.1 -0.56,-0.14 -0.21,-0.03 -0.44,-0.05 -0.68,-0.05 -0.48,0 -0.91,0.07 -1.29,0.2 -0.38,0.13 -0.71,0.33 -0.98,0.6 -0.27,0.26 -0.47,0.59 -0.62,0.99 -0.14,0.4 -0.21,0.86 -0.21,1.39 0,0.54 0.08,1.01 0.24,1.43 0.15,0.42 0.37,0.77 0.66,1.05 0.28,0.28 0.62,0.5 1.01,0.64 0.4,0.15 0.84,0.22 1.31,0.22 0.2,0 0.38,-0.01 0.56,-0.04 0.18,-0.03 0.35,-0.07 0.5,-0.12 0.15,-0.04 0.29,-0.1 0.41,-0.16 0.12,-0.06 0.21,-0.11 0.25,-0.16 0.05,-0.04 0.09,-0.08 0.1,-0.11 0.02,-0.03 0.04,-0.06 0.05,-0.11 0.01,-0.05 0.01,-0.1 0.02,-0.16 0.01,-0.06 0.01,-0.14 0.01,-0.23 0,-0.1 -0.01,-0.18 -0.01,-0.25 -0.01,-0.07 -0.02,-0.12 -0.04,-0.17 -0.02,-0.04 -0.04,-0.07 -0.06,-0.09 -0.03,-0.02 -0.06,-0.03 -0.09,-0.03 -0.05,0 -0.12,0.03 -0.2,0.09 -0.09,0.05 -0.19,0.12 -0.32,0.19 -0.13,0.07 -0.29,0.13 -0.47,0.19 -0.18,0.06 -0.4,0.08 -0.65,0.08 -0.27,0 -0.52,-0.05 -0.74,-0.15 -0.21,-0.1 -0.4,-0.25 -0.55,-0.44 -0.15,-0.19 -0.27,-0.42 -0.35,-0.69 -0.08,-0.27 -0.11,-0.57 -0.11,-0.91 0,-0.37 0.04,-0.7 0.12,-0.97 0.09,-0.27 0.21,-0.49 0.36,-0.67 0.16,-0.17 0.34,-0.31 0.57,-0.39 0.22,-0.09 0.46,-0.13 0.74,-0.13 0.25,0 0.47,0.03 0.65,0.08 0.18,0.05 0.34,0.11 0.47,0.18 0.13,0.06 0.24,0.12 0.32,0.17 0.09,0.06 0.15,0.08 0.2,0.08 0.03,0 0.06,-0.01 0.08,-0.02 0.02,-0.01 0.04,-0.04 0.06,-0.08 0.01,-0.04 0.02,-0.09 0.03,-0.16 0.01,-0.07 0.01,-0.16 0.01,-0.28 z m 5.96,1.43 c 0,-0.37 -0.06,-0.71 -0.16,-1.02 -0.11,-0.3 -0.27,-0.57 -0.49,-0.79 -0.22,-0.22 -0.5,-0.39 -0.82,-0.51 -0.33,-0.12 -0.72,-0.18 -1.16,-0.18 -0.43,0 -0.8,0.05 -1.11,0.16 -0.32,0.11 -0.58,0.26 -0.79,0.47 -0.2,0.2 -0.36,0.46 -0.46,0.76 -0.1,0.3 -0.15,0.64 -0.15,1.02 0,0.37 0.06,0.71 0.17,1.02 0.11,0.31 0.27,0.57 0.49,0.79 0.22,0.22 0.49,0.39 0.82,0.51 0.32,0.12 0.71,0.18 1.15,0.18 0.43,0 0.8,-0.05 1.12,-0.16 0.31,-0.1 0.57,-0.26 0.78,-0.46 0.2,-0.21 0.36,-0.46 0.46,-0.76 0.1,-0.3 0.15,-0.64 0.15,-1.03 z m -1.39,-0.05 c 0,0.22 -0.02,0.41 -0.06,0.59 -0.04,0.19 -0.1,0.34 -0.19,0.48 -0.09,0.13 -0.21,0.23 -0.36,0.31 -0.15,0.07 -0.33,0.11 -0.56,0.11 -0.2,0 -0.38,-0.03 -0.53,-0.1 -0.15,-0.07 -0.27,-0.16 -0.37,-0.29 -0.09,-0.13 -0.17,-0.29 -0.21,-0.47 -0.05,-0.18 -0.08,-0.38 -0.08,-0.61 0,-0.22 0.02,-0.42 0.06,-0.6 0.04,-0.18 0.11,-0.34 0.19,-0.47 0.09,-0.13 0.21,-0.24 0.36,-0.31 0.15,-0.07 0.34,-0.11 0.56,-0.11 0.2,0 0.38,0.03 0.53,0.1 0.15,0.07 0.27,0.17 0.37,0.29 0.1,0.13 0.17,0.28 0.22,0.46 0.04,0.18 0.07,0.39 0.07,0.62 z m 7.12,-2.17 c 0,-0.03 -0.01,-0.06 -0.03,-0.09 -0.03,-0.02 -0.06,-0.04 -0.11,-0.06 -0.05,-0.01 -0.12,-0.03 -0.21,-0.03 -0.09,-0.01 -0.19,-0.02 -0.32,-0.02 -0.14,0 -0.25,0.01 -0.33,0.02 -0.09,0 -0.16,0.02 -0.21,0.03 -0.05,0.02 -0.09,0.04 -0.11,0.06 -0.02,0.03 -0.03,0.06 -0.03,0.09 l 0,2.48 c 0,0.22 -0.02,0.38 -0.05,0.5 -0.03,0.12 -0.08,0.23 -0.15,0.31 -0.06,0.09 -0.15,0.15 -0.25,0.2 -0.1,0.05 -0.22,0.07 -0.36,0.07 -0.17,0 -0.34,-0.05 -0.52,-0.17 -0.17,-0.11 -0.35,-0.28 -0.54,-0.5 l 0,-2.89 c 0,-0.03 -0.02,-0.06 -0.04,-0.09 -0.02,-0.02 -0.05,-0.04 -0.11,-0.06 -0.05,-0.01 -0.12,-0.03 -0.2,-0.03 -0.09,-0.01 -0.2,-0.02 -0.33,-0.02 -0.13,0 -0.24,0.01 -0.33,0.02 -0.08,0 -0.15,0.02 -0.21,0.03 -0.05,0.02 -0.08,0.04 -0.11,0.06 -0.02,0.03 -0.03,0.06 -0.03,0.09 l 0,4.35 c 0,0.04 0.01,0.06 0.03,0.09 0.02,0.02 0.05,0.04 0.1,0.06 0.04,0.02 0.1,0.03 0.18,0.04 0.07,0 0.16,0.01 0.27,0.01 0.12,0 0.21,-0.01 0.29,-0.01 0.07,-0.01 0.13,-0.02 0.17,-0.04 0.04,-0.02 0.07,-0.04 0.09,-0.06 0.02,-0.03 0.03,-0.05 0.03,-0.09 l 0,-0.5 c 0.26,0.26 0.53,0.46 0.81,0.59 0.27,0.13 0.55,0.19 0.85,0.19 0.33,0 0.6,-0.05 0.83,-0.14 0.22,-0.1 0.4,-0.23 0.54,-0.4 0.14,-0.17 0.24,-0.37 0.3,-0.59 0.06,-0.23 0.09,-0.5 0.09,-0.81 l 0,-2.69 z m 3.51,0.43 c 0,-0.15 -0.01,-0.26 -0.03,-0.33 -0.02,-0.08 -0.05,-0.13 -0.08,-0.16 -0.03,-0.03 -0.08,-0.06 -0.14,-0.09 -0.06,-0.02 -0.14,-0.04 -0.22,-0.06 -0.09,-0.02 -0.18,-0.03 -0.28,-0.04 -0.09,-0.01 -0.19,-0.02 -0.29,-0.02 -0.27,0 -0.51,0.04 -0.7,0.1 -0.2,0.06 -0.36,0.15 -0.49,0.28 -0.13,0.13 -0.22,0.29 -0.29,0.49 -0.06,0.19 -0.09,0.43 -0.09,0.69 l 0,2.23 -0.57,0 c -0.07,0 -0.12,0.04 -0.16,0.12 -0.03,0.07 -0.05,0.2 -0.05,0.38 0,0.1 0,0.18 0.01,0.24 0.01,0.07 0.02,0.12 0.04,0.15 0.02,0.04 0.04,0.07 0.07,0.09 0.03,0.01 0.06,0.02 0.09,0.02 l 0.57,0 0,0.97 c 0,0.03 0.01,0.06 0.03,0.09 0.02,0.03 0.06,0.05 0.11,0.07 0.05,0.01 0.12,0.03 0.21,0.03 0.09,0.01 0.2,0.02 0.32,0.02 0.14,0 0.25,-0.01 0.33,-0.02 0.09,0 0.16,-0.02 0.21,-0.03 0.05,-0.02 0.09,-0.04 0.11,-0.07 0.02,-0.03 0.03,-0.06 0.03,-0.09 l 0,-0.97 1.04,0 c 0.04,0 0.07,-0.01 0.1,-0.02 0.02,-0.02 0.05,-0.05 0.06,-0.09 0.02,-0.03 0.04,-0.08 0.04,-0.15 0.01,-0.06 0.02,-0.14 0.02,-0.24 0,-0.18 -0.02,-0.31 -0.06,-0.38 -0.03,-0.08 -0.08,-0.12 -0.15,-0.12 l -1.05,0 0,-2.04 c 0,-0.24 0.04,-0.42 0.12,-0.54 0.09,-0.12 0.23,-0.18 0.45,-0.18 0.07,0 0.13,0.01 0.19,0.02 0.06,0.01 0.11,0.03 0.15,0.04 0.05,0.02 0.08,0.03 0.11,0.04 0.03,0.01 0.06,0.02 0.09,0.02 0.02,0 0.04,-0.01 0.06,-0.02 0.02,-0.01 0.03,-0.03 0.05,-0.07 0.01,-0.03 0.02,-0.08 0.02,-0.14 0.01,-0.06 0.02,-0.13 0.02,-0.22 z m 4.74,3.52 c 0,-0.12 0,-0.21 -0.01,-0.29 -0.01,-0.07 -0.02,-0.13 -0.03,-0.18 -0.02,-0.04 -0.04,-0.07 -0.06,-0.08 -0.02,-0.02 -0.05,-0.03 -0.09,-0.03 -0.03,0 -0.06,0.01 -0.09,0.02 -0.04,0.01 -0.08,0.02 -0.13,0.04 -0.04,0.01 -0.09,0.02 -0.14,0.03 -0.06,0.01 -0.12,0.02 -0.18,0.02 -0.08,0 -0.15,-0.01 -0.23,-0.04 -0.07,-0.03 -0.15,-0.07 -0.23,-0.13 -0.08,-0.06 -0.16,-0.14 -0.25,-0.24 -0.09,-0.09 -0.18,-0.21 -0.28,-0.36 l 0,-2.71 c 0,-0.03 -0.02,-0.06 -0.04,-0.09 -0.02,-0.02 -0.05,-0.04 -0.11,-0.06 -0.05,-0.01 -0.12,-0.03 -0.2,-0.03 -0.09,-0.01 -0.2,-0.02 -0.33,-0.02 -0.13,0 -0.24,0.01 -0.33,0.02 -0.08,0 -0.15,0.02 -0.21,0.03 -0.05,0.02 -0.08,0.04 -0.11,0.06 -0.02,0.03 -0.03,0.06 -0.03,0.09 l 0,4.35 c 0,0.04 0.01,0.06 0.03,0.09 0.02,0.02 0.05,0.04 0.1,0.06 0.04,0.02 0.1,0.03 0.18,0.04 0.07,0 0.16,0.01 0.27,0.01 0.12,0 0.21,-0.01 0.29,-0.01 0.07,-0.01 0.13,-0.02 0.17,-0.04 0.04,-0.02 0.07,-0.04 0.09,-0.06 0.02,-0.03 0.03,-0.05 0.03,-0.09 l 0,-0.54 c 0.12,0.16 0.24,0.3 0.35,0.4 0.11,0.11 0.22,0.19 0.32,0.26 0.1,0.06 0.2,0.1 0.3,0.13 0.1,0.02 0.2,0.03 0.3,0.03 0.05,0 0.1,0 0.15,-0.01 0.05,0 0.11,-0.01 0.17,-0.02 0.05,-0.01 0.1,-0.02 0.15,-0.04 0.04,-0.01 0.07,-0.03 0.09,-0.05 0.02,-0.01 0.04,-0.03 0.04,-0.05 0.01,-0.02 0.02,-0.05 0.03,-0.08 0.01,-0.03 0.01,-0.08 0.01,-0.15 0.01,-0.07 0.01,-0.16 0.01,-0.28 z m 5.52,-1.73 c 0,-0.37 -0.06,-0.71 -0.16,-1.02 -0.11,-0.3 -0.27,-0.57 -0.49,-0.79 -0.22,-0.22 -0.5,-0.39 -0.82,-0.51 -0.33,-0.12 -0.72,-0.18 -1.16,-0.18 -0.43,0 -0.8,0.05 -1.11,0.16 -0.32,0.11 -0.58,0.26 -0.79,0.47 -0.2,0.2 -0.36,0.46 -0.46,0.76 -0.1,0.3 -0.15,0.64 -0.15,1.02 0,0.37 0.06,0.71 0.17,1.02 0.11,0.31 0.27,0.57 0.49,0.79 0.22,0.22 0.49,0.39 0.82,0.51 0.32,0.12 0.71,0.18 1.15,0.18 0.43,0 0.8,-0.05 1.12,-0.16 0.31,-0.1 0.57,-0.26 0.78,-0.46 0.2,-0.21 0.36,-0.46 0.46,-0.76 0.1,-0.3 0.15,-0.64 0.15,-1.03 z m -1.39,-0.05 c 0,0.22 -0.02,0.41 -0.06,0.59 -0.04,0.19 -0.1,0.34 -0.19,0.48 -0.09,0.13 -0.21,0.23 -0.36,0.31 -0.15,0.07 -0.33,0.11 -0.56,0.11 -0.2,0 -0.38,-0.03 -0.53,-0.1 -0.15,-0.07 -0.27,-0.16 -0.37,-0.29 -0.09,-0.13 -0.17,-0.29 -0.21,-0.47 -0.05,-0.18 -0.08,-0.38 -0.08,-0.61 0,-0.22 0.02,-0.42 0.06,-0.6 0.04,-0.18 0.11,-0.34 0.19,-0.47 0.09,-0.13 0.21,-0.24 0.36,-0.31 0.15,-0.07 0.34,-0.11 0.56,-0.11 0.2,0 0.38,0.03 0.53,0.1 0.15,0.07 0.27,0.17 0.37,0.29 0.1,0.13 0.17,0.28 0.22,0.46 0.04,0.18 0.07,0.39 0.07,0.62 z m 3.9,-2.17 c 0,-0.03 -0.02,-0.06 -0.04,-0.09 -0.02,-0.02 -0.05,-0.04 -0.11,-0.06 -0.05,-0.01 -0.12,-0.03 -0.2,-0.03 -0.09,-0.01 -0.2,-0.02 -0.33,-0.02 -0.13,0 -0.24,0.01 -0.33,0.02 -0.08,0 -0.15,0.02 -0.21,0.03 -0.05,0.02 -0.08,0.04 -0.11,0.06 -0.02,0.03 -0.03,0.06 -0.03,0.09 l 0,6.42 c 0,0.03 0.01,0.06 0.03,0.09 0.03,0.02 0.06,0.05 0.11,0.06 0.06,0.02 0.13,0.03 0.21,0.04 0.09,0.01 0.2,0.02 0.33,0.02 0.13,0 0.24,-0.01 0.33,-0.02 0.08,-0.01 0.15,-0.02 0.2,-0.04 0.06,-0.01 0.09,-0.04 0.11,-0.06 0.02,-0.03 0.04,-0.06 0.04,-0.09 l 0,-6.42 z m 2.25,0 c 0,-0.03 -0.02,-0.06 -0.04,-0.09 -0.02,-0.02 -0.05,-0.04 -0.11,-0.06 -0.05,-0.01 -0.12,-0.03 -0.2,-0.03 -0.09,-0.01 -0.2,-0.02 -0.33,-0.02 -0.13,0 -0.24,0.01 -0.33,0.02 -0.08,0 -0.15,0.02 -0.21,0.03 -0.05,0.02 -0.08,0.04 -0.11,0.06 -0.02,0.03 -0.03,0.06 -0.03,0.09 l 0,6.42 c 0,0.03 0.01,0.06 0.03,0.09 0.03,0.02 0.06,0.05 0.11,0.06 0.06,0.02 0.13,0.03 0.21,0.04 0.09,0.01 0.2,0.02 0.33,0.02 0.13,0 0.24,-0.01 0.33,-0.02 0.08,-0.01 0.15,-0.02 0.2,-0.04 0.06,-0.01 0.09,-0.04 0.11,-0.06 0.02,-0.03 0.04,-0.06 0.04,-0.09 l 0,-6.42 z m 6.07,2.3 c 0,-0.15 -0.04,-0.26 -0.11,-0.33 -0.08,-0.07 -0.18,-0.11 -0.31,-0.11 l -2.91,0 c 0,-0.18 0.02,-0.35 0.07,-0.5 0.05,-0.15 0.13,-0.28 0.23,-0.39 0.11,-0.1 0.24,-0.18 0.41,-0.24 0.17,-0.05 0.37,-0.08 0.6,-0.08 0.23,0 0.44,0.01 0.62,0.04 0.18,0.03 0.34,0.07 0.47,0.11 0.13,0.03 0.24,0.07 0.32,0.1 0.09,0.03 0.16,0.05 0.21,0.05 0.03,0 0.06,-0.01 0.08,-0.02 0.02,-0.01 0.04,-0.03 0.05,-0.06 0.02,-0.03 0.03,-0.07 0.03,-0.13 0.01,-0.05 0.01,-0.12 0.01,-0.2 0,-0.07 0,-0.13 0,-0.18 -0.01,-0.05 -0.01,-0.1 -0.02,-0.13 -0.01,-0.04 -0.02,-0.07 -0.03,-0.09 -0.02,-0.03 -0.03,-0.05 -0.06,-0.07 -0.02,-0.03 -0.08,-0.06 -0.19,-0.1 -0.1,-0.04 -0.23,-0.07 -0.4,-0.11 -0.16,-0.04 -0.34,-0.07 -0.55,-0.1 -0.21,-0.03 -0.43,-0.04 -0.67,-0.04 -0.42,0 -0.79,0.05 -1.11,0.15 -0.33,0.09 -0.59,0.24 -0.81,0.44 -0.21,0.2 -0.37,0.45 -0.48,0.75 -0.1,0.31 -0.16,0.66 -0.16,1.07 0,0.38 0.06,0.73 0.17,1.04 0.11,0.32 0.27,0.58 0.48,0.8 0.21,0.21 0.47,0.38 0.77,0.49 0.31,0.12 0.65,0.17 1.03,0.17 0.4,0 0.74,-0.05 1.03,-0.16 0.28,-0.11 0.51,-0.26 0.7,-0.45 0.18,-0.19 0.31,-0.41 0.4,-0.67 0.09,-0.26 0.13,-0.55 0.13,-0.85 l 0,-0.2 z m -1.31,0.35 c 0.01,0.35 -0.07,0.62 -0.23,0.82 -0.16,0.19 -0.42,0.29 -0.76,0.29 -0.17,0 -0.32,-0.03 -0.44,-0.08 -0.13,-0.06 -0.24,-0.14 -0.32,-0.24 -0.09,-0.1 -0.15,-0.22 -0.19,-0.35 -0.05,-0.14 -0.07,-0.28 -0.08,-0.44 l 2.02,0 z m 5.21,1.3 c 0,-0.12 0,-0.21 -0.01,-0.29 -0.01,-0.07 -0.02,-0.13 -0.03,-0.18 -0.02,-0.04 -0.04,-0.07 -0.06,-0.08 -0.02,-0.02 -0.05,-0.03 -0.09,-0.03 -0.03,0 -0.06,0.01 -0.09,0.02 -0.04,0.01 -0.08,0.02 -0.13,0.04 -0.04,0.01 -0.09,0.02 -0.14,0.03 -0.06,0.01 -0.12,0.02 -0.18,0.02 -0.08,0 -0.15,-0.01 -0.23,-0.04 -0.07,-0.03 -0.15,-0.07 -0.23,-0.13 -0.08,-0.06 -0.16,-0.14 -0.25,-0.24 -0.09,-0.09 -0.18,-0.21 -0.28,-0.36 l 0,-2.71 c 0,-0.03 -0.02,-0.06 -0.04,-0.09 -0.02,-0.02 -0.05,-0.04 -0.11,-0.06 -0.05,-0.01 -0.12,-0.03 -0.2,-0.03 -0.09,-0.01 -0.2,-0.02 -0.33,-0.02 -0.13,0 -0.24,0.01 -0.33,0.02 -0.08,0 -0.15,0.02 -0.21,0.03 -0.05,0.02 -0.08,0.04 -0.11,0.06 -0.02,0.03 -0.03,0.06 -0.03,0.09 l 0,4.35 c 0,0.04 0.01,0.06 0.03,0.09 0.02,0.02 0.05,0.04 0.1,0.06 0.04,0.02 0.1,0.03 0.18,0.04 0.07,0 0.16,0.01 0.27,0.01 0.12,0 0.21,-0.01 0.29,-0.01 0.07,-0.01 0.13,-0.02 0.17,-0.04 0.04,-0.02 0.07,-0.04 0.09,-0.06 0.02,-0.03 0.03,-0.05 0.03,-0.09 l 0,-0.54 c 0.12,0.16 0.24,0.3 0.35,0.4 0.11,0.11 0.22,0.19 0.32,0.26 0.1,0.06 0.2,0.1 0.3,0.13 0.1,0.02 0.2,0.03 0.3,0.03 0.05,0 0.1,0 0.15,-0.01 0.05,0 0.11,-0.01 0.17,-0.02 0.05,-0.01 0.1,-0.02 0.15,-0.04 0.04,-0.01 0.07,-0.03 0.09,-0.05 0.02,-0.01 0.04,-0.03 0.04,-0.05 0.01,-0.02 0.02,-0.05 0.03,-0.08 0.01,-0.03 0.01,-0.08 0.01,-0.15 0.01,-0.07 0.01,-0.16 0.01,-0.28 z"
       style="fill:#73ae42;fill-opacity:1;fill-rule:nonzero;stroke:none"
       id="path16"
       inkscape:connector-curvature="0" /><path
       d="m 466.32,114.17 0,28.35 0,-11.34 -5.44,0 0,22.68 2.72,2.83 21.77,0 2.72,-2.83 0,-22.68 -5.44,0 0,11.34 0,-28.35 -8.16,0 0,22.68 0,-22.68 -8.17,0 z m 13.84,51.03 c 0,3.13 -2.54,5.67 -5.67,5.67 -3.13,0 -5.67,-2.54 -5.67,-5.67 0,-3.13 2.54,-5.67 5.67,-5.67 3.13,0 5.67,2.54 5.67,5.67 z"
       style="fill:#73ae42;fill-opacity:1;fill-rule:evenodd;stroke:none"
       id="path18"
       inkscape:connector-curvature="0" /><path
       d="m 466.32,114.17 0,28.35 0,-11.34 -5.44,0 0,22.68 2.72,2.83 21.77,0 2.72,-2.83 0,-22.68 -5.44,0 0,11.34 0,-28.35 -8.16,0 0,22.68 0,-22.68 -8.17,0 z m 13.84,51.03 c 0,3.13 -2.54,5.67 -5.67,5.67 -3.13,0 -5.67,-2.54 -5.67,-5.67 0,-3.13 2.54,-5.67 5.67,-5.67 3.13,0 5.67,2.54 5.67,5.67 z"
       style="fill:none;stroke:#ffffff;stroke-width:0.75075001;stroke-linecap:round;stroke-linejoin:round;stroke-miterlimit:10;stroke-dasharray:none;stroke-opacity:1"
       id="path20"
       inkscape:connector-curvature="0" /><text
       transform="matrix(1,0,0,-1,431,98.8)"
       style="font-variant:normal;font-weight:normal;font-size:12.02499962px;font-family:Calibri;-inkscape-font-specification:Calibri;writing-mode:lr-tb;fill:#73ae42;fill-opacity:1;fill-rule:nonzero;stroke:none"
       id="text22"><tspan
         x="0 8.2371254 14.2376 18.734949 23.220276 28.475201 33.718102 36.700298 42.688751 44.949451 52.441025 58.429474 62.193298 68.181747 73.436676 77.921997 83.922478"
         y="0"
         sodipodi:role="line"
         id="tspan24">Obstacle Detector</tspan></text>
<path
       d="m 466.32,40.214 0,28.346 0,-11.338 -5.44,0 0,22.677 2.72,2.835 21.77,0 2.72,-2.835 0,-22.677 -5.44,0 0,11.338 0,-28.346 -8.16,0 0,22.677 0,-22.677 -8.17,0 z m 13.84,51.024 c 0,3.131 -2.54,5.669 -5.67,5.669 -3.13,0 -5.67,-2.538 -5.67,-5.669 0,-3.132 2.54,-5.67 5.67,-5.67 3.13,0 5.67,2.538 5.67,5.67 z"
       style="fill:#73ae42;fill-opacity:1;fill-rule:evenodd;stroke:none"
       id="path26"
       inkscape:connector-curvature="0" /><path
       d="m 466.32,40.214 0,28.346 0,-11.338 -5.44,0 0,22.677 2.72,2.835 21.77,0 2.72,-2.835 0,-22.677 -5.44,0 0,11.338 0,-28.346 -8.16,0 0,22.677 0,-22.677 -8.17,0 z m 13.84,51.024 c 0,3.131 -2.54,5.669 -5.67,5.669 -3.13,0 -5.67,-2.538 -5.67,-5.669 0,-3.132 2.54,-5.67 5.67,-5.67 3.13,0 5.67,2.538 5.67,5.67 z"
       style="fill:none;stroke:#ffffff;stroke-width:0.75075001;stroke-linecap:round;stroke-linejoin:round;stroke-miterlimit:10;stroke-dasharray:none;stroke-opacity:1"
       id="path28"
       inkscape:connector-curvature="0" /><text
       transform="matrix(1,0,0,-1,440,24.7)"
       style="font-variant:normal;font-weight:normal;font-size:12.02499962px;font-family:Calibri;-inkscape-font-specification:Calibri;writing-mode:lr-tb;fill:#73ae42;fill-opacity:1;fill-rule:nonzero;stroke:none"
       id="text30"><tspan
         x="0 6.7340002 8.9826746 14.971125 20.9716 26.960051 29.954275 40.464127 46.4646 53.198601 55.447273 59.932598 65.933075"
         y="0"
         sodipodi:role="line"
         id="tspan32">Blade Monitor</tspan></text>
<path
       d="m 466.32,188.14 0,28.34 0,-11.34 -5.44,0 0,22.68 2.72,2.84 21.77,0 2.72,-2.84 0,-22.68 -5.44,0 0,11.34 0,-28.34 -8.16,0 0,22.67 0,-22.67 -8.17,0 z m 13.84,51.02 c 0,3.13 -2.54,5.67 -5.67,5.67 -3.13,0 -5.67,-2.54 -5.67,-5.67 0,-3.13 2.54,-5.67 5.67,-5.67 3.13,0 5.67,2.54 5.67,5.67 z"
       style="fill:#73ae42;fill-opacity:1;fill-rule:evenodd;stroke:none"
       id="path42"
       inkscape:connector-curvature="0" /><path
       d="m 466.32,188.14 0,28.34 0,-11.34 -5.44,0 0,22.68 2.72,2.84 21.77,0 2.72,-2.84 0,-22.68 -5.44,0 0,11.34 0,-28.34 -8.16,0 0,22.67 0,-22.67 -8.17,0 z m 13.84,51.02 c 0,3.13 -2.54,5.67 -5.67,5.67 -3.13,0 -5.67,-2.54 -5.67,-5.67 0,-3.13 2.54,-5.67 5.67,-5.67 3.13,0 5.67,2.54 5.67,5.67 z"
       style="fill:none;stroke:#ffffff;stroke-width:0.75075001;stroke-linecap:round;stroke-linejoin:round;stroke-miterlimit:10;stroke-dasharray:none;stroke-opacity:1"
       id="path44"
       inkscape:connector-curvature="0" /><text
       transform="matrix(1,0,0,-1,429.92,172.9)"
       style="font-variant:normal;font-weight:normal;font-size:12.02499962px;font-family:Calibri;-inkscape-font-specification:Calibri;writing-mode:lr-tb;fill:#73ae42;fill-opacity:1;fill-rule:nonzero;stroke:none"
       id="text46"><tspan
         x="0 7.4915748 13.552175 23.316475 26.334749 32.359276 35.377548 39.1534 45.165901 47.438625 54.95425 60.966751 64.742599 70.755096 76.022049 79.797897 86.555946"
         y="0"
         sodipodi:role="line"
         id="tspan48">Humidity Detector</tspan></text>
<path
       d="m 69.473,303.13 0,28.34 0,-11.33 -5.442,0 0,22.67 2.721,2.84 21.77,0 2.721,-2.84 0,-22.67 -5.442,0 0,11.33 0,-28.34 -8.164,0 0,22.67 0,-22.67 -8.164,0 z m 13.833,51.02 c 0,3.13 -2.538,5.67 -5.669,5.67 -3.131,0 -5.669,-2.54 -5.669,-5.67 0,-3.13 2.538,-5.67 5.669,-5.67 3.131,0 5.669,2.54 5.669,5.67 z"
       style="fill:#73ae42;fill-opacity:1;fill-rule:evenodd;stroke:none"
       id="path50"
       inkscape:connector-curvature="0" /><path
       d="m 69.473,303.13 0,28.34 0,-11.33 -5.442,0 0,22.67 2.721,2.84 21.77,0 2.721,-2.84 0,-22.67 -5.442,0 0,11.33 0,-28.34 -8.164,0 0,22.67 0,-22.67 -8.164,0 z m 13.833,51.02 c 0,3.13 -2.538,5.67 -5.669,5.67 -3.131,0 -5.669,-2.54 -5.669,-5.67 0,-3.13 2.538,-5.67 5.669,-5.67 3.131,0 5.669,2.54 5.669,5.67 z"
       style="fill:none;stroke:#ffffff;stroke-width:0.75075001;stroke-linecap:round;stroke-linejoin:round;stroke-miterlimit:10;stroke-dasharray:none;stroke-opacity:1"
       id="path52"
       inkscape:connector-curvature="0" /><text
       transform="matrix(1,0,0,-1,67.85,288.1)"
       style="font-variant:normal;font-weight:normal;font-size:12.02499962px;font-family:Calibri;-inkscape-font-specification:Calibri;writing-mode:lr-tb;fill:#73ae42;fill-opacity:1;fill-rule:nonzero;stroke:none"
       id="text54"><tspan
         x="0 7.5276499 14.2857"
         y="0"
         sodipodi:role="line"
         id="tspan56">GoT</tspan></text>
<path
       d="m 69.473,222.34 0,28.35 0,-11.34 -5.442,0 0,22.67 2.721,2.84 21.77,0 2.721,-2.84 0,-22.67 -5.442,0 0,11.34 0,-28.35 -8.164,0 0,22.68 0,-22.68 -8.164,0 z m 13.833,51.02 c 0,3.13 -2.538,5.67 -5.669,5.67 -3.131,0 -5.669,-2.54 -5.669,-5.67 0,-3.13 2.538,-5.67 5.669,-5.67 3.131,0 5.669,2.54 5.669,5.67 z"
       style="fill:#73ae42;fill-opacity:1;fill-rule:evenodd;stroke:none"
       id="path58"
       inkscape:connector-curvature="0" /><path
       d="m 69.473,222.34 0,28.35 0,-11.34 -5.442,0 0,22.67 2.721,2.84 21.77,0 2.721,-2.84 0,-22.67 -5.442,0 0,11.34 0,-28.35 -8.164,0 0,22.68 0,-22.68 -8.164,0 z m 13.833,51.02 c 0,3.13 -2.538,5.67 -5.669,5.67 -3.131,0 -5.669,-2.54 -5.669,-5.67 0,-3.13 2.538,-5.67 5.669,-5.67 3.131,0 5.669,2.54 5.669,5.67 z"
       style="fill:none;stroke:#ffffff;stroke-width:0.75075001;stroke-linecap:round;stroke-linejoin:round;stroke-miterlimit:10;stroke-dasharray:none;stroke-opacity:1"
       id="path60"
       inkscape:connector-curvature="0" /><text
       transform="matrix(1,0,0,-1,35.925,207.18)"
       style="font-variant:normal;font-weight:normal;font-size:12.02499962px;font-family:Calibri;-inkscape-font-specification:Calibri;writing-mode:lr-tb;fill:#73ae42;fill-opacity:1;fill-rule:nonzero;stroke:none"
       id="text62"><tspan
         x="0 6.7460251 13.480025 18.734949 25.46895 27.717625 33.706074 38.191399 40.440075 47.931648 53.920101 57.683926 63.672375 68.927299 72.6791 79.413101"
         y="0"
         sodipodi:role="line"
         id="tspan64">Angular Detector</tspan></text>
<path
       d="m 336.56,320.84 c 0,10.33 -25.38,18.7 -56.69,18.7 -31.31,0 -56.69,-8.37 -56.69,-18.7 0,-10.32 25.38,-18.69 56.69,-18.69 31.31,0 56.69,8.37 56.69,18.69 z"
       style="fill:#5b9bd5;fill-opacity:1;fill-rule:evenodd;stroke:none"
       id="path66"
       inkscape:connector-curvature="0" /><path
       d="m 336.56,320.84 c 0,10.33 -25.38,18.7 -56.69,18.7 -31.31,0 -56.69,-8.37 -56.69,-18.7 0,-10.32 25.38,-18.69 56.69,-18.69 31.31,0 56.69,8.37 56.69,18.69 z"
       style="fill:none;stroke:#ffffff;stroke-width:0.75075001;stroke-linecap:round;stroke-linejoin:round;stroke-miterlimit:10;stroke-dasharray:none;stroke-opacity:1"
       id="path68"
       inkscape:connector-curvature="0" /><text
       transform="matrix(1,0,0,-1,236.95,317.08)"
       style="font-variant:normal;font-weight:normal;font-size:12.02499962px;font-family:Calibri;-inkscape-font-specification:Calibri;writing-mode:lr-tb;fill:#ffffff;fill-opacity:1;fill-rule:nonzero;stroke:none"
       id="text70"><tspan
         x="0 5.9884501 11.988925 17.977375 23.965824 26.226524 29.256824 35.966774 38.21545 42.700775 44.949451 50.937901 53.920101 56.168774 61.411674 66.666603 71.151924 73.400597 80.134598"
         y="0"
         sodipodi:role="line"
         id="tspan72">Edge Initialization</tspan></text>
<path
       d="m 336.56,109.95 c 0,10.32 -25.38,18.69 -56.69,18.69 -31.31,0 -56.69,-8.37 -56.69,-18.69 0,-10.33 25.38,-18.702 56.69,-18.702 31.31,0 56.69,8.372 56.69,18.702 z"
       style="fill:#5b9bd5;fill-opacity:1;fill-rule:evenodd;stroke:none"
       id="path74"
       inkscape:connector-curvature="0" /><path
       d="m 336.56,109.95 c 0,10.32 -25.38,18.69 -56.69,18.69 -31.31,0 -56.69,-8.37 -56.69,-18.69 0,-10.33 25.38,-18.702 56.69,-18.702 31.31,0 56.69,8.372 56.69,18.702 z"
       style="fill:none;stroke:#ffffff;stroke-width:0.75075001;stroke-linecap:round;stroke-linejoin:round;stroke-miterlimit:10;stroke-dasharray:none;stroke-opacity:1"
       id="path76"
       inkscape:connector-curvature="0" /><text
       transform="matrix(1,0,0,-1,245.68,105.8)"
       style="font-variant:normal;font-weight:normal;font-size:12.02499962px;font-family:Calibri;-inkscape-font-specification:Calibri;writing-mode:lr-tb;fill:#ffffff;fill-opacity:1;fill-rule:nonzero;stroke:none"
       id="text78"><tspan
         x="0 5.2549248 11.988925 17.977375 23.965824 29.990351 32.972549 38.973026 45.707024 51.7075 55.459301 59.944626 65.945099"
         y="0"
         sodipodi:role="line"
         id="tspan80">Speed Control</tspan></text>
<path
       d="m 336.56,162.67 c 0,10.33 -25.38,18.7 -56.69,18.7 -31.31,0 -56.69,-8.37 -56.69,-18.7 0,-10.33 25.38,-18.7 56.69,-18.7 31.31,0 56.69,8.37 56.69,18.7 z"
       style="fill:#5b9bd5;fill-opacity:1;fill-rule:evenodd;stroke:none"
       id="path82"
       inkscape:connector-curvature="0" /><path
       d="m 336.56,162.67 c 0,10.33 -25.38,18.7 -56.69,18.7 -31.31,0 -56.69,-8.37 -56.69,-18.7 0,-10.33 25.38,-18.7 56.69,-18.7 31.31,0 56.69,8.37 56.69,18.7 z"
       style="fill:none;stroke:#ffffff;stroke-width:0.75075001;stroke-linecap:round;stroke-linejoin:round;stroke-miterlimit:10;stroke-dasharray:none;stroke-opacity:1"
       id="path84"
       inkscape:connector-curvature="0" /><text
       transform="matrix(1,0,0,-1,236.13,158.6)"
       style="font-variant:normal;font-weight:normal;font-size:12px;font-family:Calibri;-inkscape-font-specification:Calibri;writing-mode:lr-tb;fill:#ffffff;fill-opacity:1;fill-rule:nonzero;stroke:none"
       id="text86"><tspan
         x="0 6.7680001 12.768 18.768 23.256001 27.756001 33.731998 36.743999 42.743999 49.512001 53.256001 57.743999 63.720001 68.975998 72.720001 75.708 81.708"
         y="0"
         sodipodi:role="line"
         id="tspan88">Course Correction</tspan></text>
<path
       d="m 336.56,268.12 c 0,10.33 -25.38,18.7 -56.69,18.7 -31.31,0 -56.69,-8.37 -56.69,-18.7 0,-10.33 25.38,-18.7 56.69,-18.7 31.31,0 56.69,8.37 56.69,18.7 z"
       style="fill:#5b9bd5;fill-opacity:1;fill-rule:evenodd;stroke:none"
       id="path90"
       inkscape:connector-curvature="0" /><path
       d="m 336.56,268.12 c 0,10.33 -25.38,18.7 -56.69,18.7 -31.31,0 -56.69,-8.37 -56.69,-18.7 0,-10.33 25.38,-18.7 56.69,-18.7 31.31,0 56.69,8.37 56.69,18.7 z"
       style="fill:none;stroke:#ffffff;stroke-width:0.75075001;stroke-linecap:round;stroke-linejoin:round;stroke-miterlimit:10;stroke-dasharray:none;stroke-opacity:1"
       id="path92"
       inkscape:connector-curvature="0" /><text
       transform="matrix(1,0,0,-1,243.27,264.25)"
       style="font-variant:normal;font-weight:normal;font-size:12.02499962px;font-family:Calibri;-inkscape-font-specification:Calibri;writing-mode:lr-tb;fill:#ffffff;fill-opacity:1;fill-rule:nonzero;stroke:none"
       id="text94"><tspan
         x="0 6.7340002 12.734475 19.468475 23.220276 29.208725 31.469425 38.203426 40.452099 46.440552 52.441025 59.175026 62.157227 68.1577"
         y="0"
         sodipodi:role="line"
         id="tspan96">Route Planning</tspan></text>
<path
       d="m 336.56,215.4 c 0,10.32 -25.38,18.69 -56.69,18.69 -31.31,0 -56.69,-8.37 -56.69,-18.69 0,-10.33 25.38,-18.7 56.69,-18.7 31.31,0 56.69,8.37 56.69,18.7 z"
       style="fill:#5b9bd5;fill-opacity:1;fill-rule:evenodd;stroke:none"
       id="path98"
       inkscape:connector-curvature="0" /><path
       d="m 336.56,215.4 c 0,10.32 -25.38,18.69 -56.69,18.69 -31.31,0 -56.69,-8.37 -56.69,-18.69 0,-10.33 25.38,-18.7 56.69,-18.7 31.31,0 56.69,8.37 56.69,18.7 z"
       style="fill:none;stroke:#ffffff;stroke-width:0.75075001;stroke-linecap:round;stroke-linejoin:round;stroke-miterlimit:10;stroke-dasharray:none;stroke-opacity:1"
       id="path100"
       inkscape:connector-curvature="0" /><text
       transform="matrix(1,0,0,-1,239.3,211.43)"
       style="font-variant:normal;font-weight:normal;font-size:12.02499962px;font-family:Calibri;-inkscape-font-specification:Calibri;writing-mode:lr-tb;fill:#ffffff;fill-opacity:1;fill-rule:nonzero;stroke:none"
       id="text102"><tspan
         x="0 6.7340002 12.72245 17.989401"
         y="0"
         sodipodi:role="line"
         id="tspan104">Read</tspan></text>
<text
       transform="matrix(1,0,0,-1,263.88,211.43)"
       style="font-variant:normal;font-weight:normal;font-size:12.02499962px;font-family:Calibri;-inkscape-font-specification:Calibri;writing-mode:lr-tb;fill:#ffffff;fill-opacity:1;fill-rule:nonzero;stroke:none"
       id="text106"><tspan
         x="0"
         y="0"
         id="tspan108">/</tspan></text>
<text
       transform="matrix(1,0,0,-1,268.52,211.43)"
       style="font-variant:normal;font-weight:normal;font-size:12.02499962px;font-family:Calibri;-inkscape-font-specification:Calibri;writing-mode:lr-tb;fill:#ffffff;fill-opacity:1;fill-rule:nonzero;stroke:none"
       id="text110"><tspan
         x="0 10.497825 14.98315 17.231825 21.71715 27.705601 29.966299 40.452099 46.440552"
         y="0"
         sodipodi:role="line"
         id="tspan112">Write Map</tspan></text>
<path
       d="m 466.56717,265.86767 0,28.34 0,-11.34 -5.44,0 0,22.68 2.72,2.84 21.77,0 2.72,-2.84 0,-22.68 -5.44,0 0,11.34 0,-28.34 -8.16,0 0,22.67 0,-22.67 -8.17,0 z m 13.84,51.02 c 0,3.13 -2.54,5.67 -5.67,5.67 -3.13,0 -5.67,-2.54 -5.67,-5.67 0,-3.13 2.54,-5.67 5.67,-5.67 3.13,0 5.67,2.54 5.67,5.67 z"
       style="fill:#73ae42;fill-opacity:1;fill-rule:evenodd;stroke:none"
       id="path114"
       inkscape:connector-curvature="0" /><path
       d="m 466.56717,265.86767 0,28.34 0,-11.34 -5.44,0 0,22.68 2.72,2.84 21.77,0 2.72,-2.84 0,-22.68 -5.44,0 0,11.34 0,-28.34 -8.16,0 0,22.67 0,-22.67 -8.17,0 z m 13.84,51.02 c 0,3.13 -2.54,5.67 -5.67,5.67 -3.13,0 -5.67,-2.54 -5.67,-5.67 0,-3.13 2.54,-5.67 5.67,-5.67 3.13,0 5.67,2.54 5.67,5.67 z"
       style="fill:none;stroke:#ffffff;stroke-width:0.75075001;stroke-linecap:round;stroke-linejoin:round;stroke-miterlimit:10;stroke-dasharray:none;stroke-opacity:1"
       id="path116"
       inkscape:connector-curvature="0" /><text
       transform="scale(1,-1)"
       style="font-variant:normal;font-weight:normal;font-size:12.02499962px;font-family:Calibri;-inkscape-font-specification:Calibri;writing-mode:lr-tb;fill:#73ae42;fill-opacity:1;fill-rule:nonzero;stroke:none"
       id="text118"
       x="456.67715"
       y="-250.90767"><tspan
         x="456.67715 461.9321 466.41742 472.41788 476.9032 482.15814 488.14658"
         y="-250.90767"
         sodipodi:role="line"
         id="tspan120">Storage</tspan></text>
<path
       d="m 336.56,57.222 c 0,10.326 -25.38,18.698 -56.69,18.698 -31.31,0 -56.69,-8.372 -56.69,-18.698 0,-10.327 25.38,-18.698 56.69,-18.698 31.31,0 56.69,8.371 56.69,18.698 z"
       style="fill:#5b9bd5;fill-opacity:1;fill-rule:evenodd;stroke:none"
       id="path122"
       inkscape:connector-curvature="0" /><path
       d="m 336.56,57.222 c 0,10.326 -25.38,18.698 -56.69,18.698 -31.31,0 -56.69,-8.372 -56.69,-18.698 0,-10.327 25.38,-18.698 56.69,-18.698 31.31,0 56.69,8.371 56.69,18.698 z"
       style="fill:none;stroke:#ffffff;stroke-width:0.75075001;stroke-linecap:round;stroke-linejoin:round;stroke-miterlimit:10;stroke-dasharray:none;stroke-opacity:1"
       id="path124"
       inkscape:connector-curvature="0" /><text
       transform="matrix(1,0,0,-1,247.05,52.975)"
       style="font-variant:normal;font-weight:normal;font-size:12.02499962px;font-family:Calibri;-inkscape-font-specification:Calibri;writing-mode:lr-tb;fill:#ffffff;fill-opacity:1;fill-rule:nonzero;stroke:none"
       id="text126"><tspan
         x="0 6.7340002 8.9826746 14.971125 20.9716 26.960051 29.954275 36.688274 42.688751 48.689224 53.174549 56.92635 63.660351"
         y="0"
         sodipodi:role="line"
         id="tspan128">Blade Control</tspan></text>
<path
       d="m 69.473,60.765 0,28.347 0,-11.339 -5.442,0 0,22.677 2.721,2.83 21.77,0 2.721,-2.83 0,-22.677 -5.442,0 0,11.339 0,-28.347 -8.164,0 0,22.677 0,-22.677 -8.164,0 z m 13.833,51.025 c 0,3.13 -2.538,5.67 -5.669,5.67 -3.131,0 -5.669,-2.54 -5.669,-5.67 0,-3.13 2.538,-5.67 5.669,-5.67 3.131,0 5.669,2.54 5.669,5.67 z"
       style="fill:#73ae42;fill-opacity:1;fill-rule:evenodd;stroke:none"
       id="path130"
       inkscape:connector-curvature="0" /><path
       d="m 69.473,60.765 0,28.347 0,-11.339 -5.442,0 0,22.677 2.721,2.83 21.77,0 2.721,-2.83 0,-22.677 -5.442,0 0,11.339 0,-28.347 -8.164,0 0,22.677 0,-22.677 -8.164,0 z m 13.833,51.025 c 0,3.13 -2.538,5.67 -5.669,5.67 -3.131,0 -5.669,-2.54 -5.669,-5.67 0,-3.13 2.538,-5.67 5.669,-5.67 3.131,0 5.669,2.54 5.669,5.67 z"
       style="fill:none;stroke:#ffffff;stroke-width:0.75075001;stroke-linecap:round;stroke-linejoin:round;stroke-miterlimit:10;stroke-dasharray:none;stroke-opacity:1"
       id="path132"
       inkscape:connector-curvature="0" /><text
       transform="matrix(1,0,0,-1,23.4,45.3)"
       style="font-variant:normal;font-weight:normal;font-size:12.02499962px;font-family:Calibri;-inkscape-font-specification:Calibri;writing-mode:lr-tb;fill:#73ae42;fill-opacity:1;fill-rule:nonzero;stroke:none"
       id="text134"><tspan
         x="0 7.5036001 11.988925 17.243851 22.48675 26.9841 29.232775 34.475674 40.464127 47.210152 52.465076 56.216873 62.950874 65.199547 72.691124 78.679573 83.176926 89.165375 93.674751 98.160072 104.16055"
         y="0"
         sodipodi:role="line"
         id="tspan136">Grass Length Detector</tspan></text>
<path
       d="m 69.473,141.55 0,28.35 0,-11.34 -5.442,0 0,22.68 2.721,2.83 21.77,0 2.721,-2.83 0,-22.68 -5.442,0 0,11.34 0,-28.35 -8.164,0 0,22.68 0,-22.68 -8.164,0 z m 13.833,51.03 c 0,3.13 -2.538,5.67 -5.669,5.67 -3.131,0 -5.669,-2.54 -5.669,-5.67 0,-3.13 2.538,-5.67 5.669,-5.67 3.131,0 5.669,2.54 5.669,5.67 z"
       style="fill:#73ae42;fill-opacity:1;fill-rule:evenodd;stroke:none"
       id="path138"
       inkscape:connector-curvature="0" /><path
       d="m 69.473,141.55 0,28.35 0,-11.34 -5.442,0 0,22.68 2.721,2.83 21.77,0 2.721,-2.83 0,-22.68 -5.442,0 0,11.34 0,-28.35 -8.164,0 0,22.68 0,-22.68 -8.164,0 z m 13.833,51.03 c 0,3.13 -2.538,5.67 -5.669,5.67 -3.131,0 -5.669,-2.54 -5.669,-5.67 0,-3.13 2.538,-5.67 5.669,-5.67 3.131,0 5.669,2.54 5.669,5.67 z"
       style="fill:none;stroke:#ffffff;stroke-width:0.75075001;stroke-linecap:round;stroke-linejoin:round;stroke-miterlimit:10;stroke-dasharray:none;stroke-opacity:1"
       id="path140"
       inkscape:connector-curvature="0" /><text
       transform="matrix(1,0,0,-1,26.775,126.23)"
       style="font-variant:normal;font-weight:normal;font-size:12.02499962px;font-family:Calibri;-inkscape-font-specification:Calibri;writing-mode:lr-tb;fill:#73ae42;fill-opacity:1;fill-rule:nonzero;stroke:none"
       id="text142"><tspan
         x="0 5.2549248 12.012975 18.001425 23.989876 30.0144 32.996601 42.772926 48.761375 54.761848 59.259201 66.01725 69.769051 75.7575 85.533829 91.522278 97.534775"
         y="0"
         sodipodi:role="line"
         id="tspan144">Speed Measurement</tspan></text>
<path
       d="M 91.243,330.76 223.88,323.79"
       style="fill:none;stroke:#5692c9;stroke-width:0.75075001;stroke-linecap:round;stroke-linejoin:round;stroke-miterlimit:10;stroke-dasharray:none;stroke-opacity:1"
       id="path148"
       inkscape:connector-curvature="0" /><path
       d="M 460.88,212.72 323.32,174.68"
       style="fill:none;stroke:#5692c9;stroke-width:0.75075001;stroke-linecap:round;stroke-linejoin:round;stroke-miterlimit:10;stroke-dasharray:none;stroke-opacity:1"
       id="path150"
       inkscape:connector-curvature="0" /><path
       d="M 91.243,244.76 245.63,177.57"
       style="fill:none;stroke:#5692c9;stroke-width:0.75075001;stroke-linecap:round;stroke-linejoin:round;stroke-miterlimit:10;stroke-dasharray:none;stroke-opacity:1"
       id="path152"
       inkscape:connector-curvature="0" /><path
       d="M 91.243,165.87 237.71,122.45"
       style="fill:none;stroke:#5692c9;stroke-width:0.75075001;stroke-linecap:round;stroke-linejoin:round;stroke-miterlimit:10;stroke-dasharray:none;stroke-opacity:1"
       id="path154"
       inkscape:connector-curvature="0" /><path
       d="M 460.88,67.768 335.7,60.474"
       style="fill:none;stroke:#5692c9;stroke-width:0.75075001;stroke-linecap:round;stroke-linejoin:round;stroke-miterlimit:10;stroke-dasharray:none;stroke-opacity:1"
       id="path156"
       inkscape:connector-curvature="0" /><path
       d="M 91.243,90.513 225.76,104.37"
       style="fill:none;stroke:#5692c9;stroke-width:0.75075001;stroke-linecap:round;stroke-linejoin:round;stroke-miterlimit:10;stroke-dasharray:none;stroke-opacity:1"
       id="path158"
       inkscape:connector-curvature="0" /><path
       d="M 460.88,143.93 333.96,157.07"
       style="fill:none;stroke:#5692c9;stroke-width:0.75075001;stroke-linecap:round;stroke-linejoin:round;stroke-miterlimit:10;stroke-dasharray:none;stroke-opacity:1"
       id="path160"
       inkscape:connector-curvature="0" /><path
       d="M 461.06707,289.1281 334.93294,218.40818"
       style="fill:none;stroke:#5692c9;stroke-width:0.75074995;stroke-linecap:round;stroke-linejoin:round;stroke-miterlimit:10;stroke-dasharray:none;stroke-opacity:1"
       id="path162"
       inkscape:connector-curvature="0" /><path
       d="M 91.221,320.14 259.04,180.06"
       style="fill:none;stroke:#5692c9;stroke-width:0.75075001;stroke-linecap:round;stroke-linejoin:round;stroke-miterlimit:10;stroke-dasharray:none;stroke-opacity:1"
       id="path164"
       inkscape:connector-curvature="0" /><path
       d="M 255.59,126.84 91.243,241.22"
       style="fill:none;stroke:#5692c9;stroke-width:0.75075001;stroke-linecap:round;stroke-linejoin:round;stroke-miterlimit:10;stroke-dasharray:none;stroke-opacity:1"
       id="path166"
       inkscape:connector-curvature="0" /><path
       d="m 279.87,234.09 0,15.33"
       style="fill:none;stroke:#5692c9;stroke-width:0.75075001;stroke-linecap:round;stroke-linejoin:round;stroke-miterlimit:10;stroke-dasharray:none;stroke-opacity:1"
       id="path168"
       inkscape:connector-curvature="0" /><path
       d="m 279.87,181.37 0,15.33"
       style="fill:none;stroke:#5692c9;stroke-width:0.75075001;stroke-linecap:round;stroke-linejoin:round;stroke-miterlimit:10;stroke-dasharray:none;stroke-opacity:1"
       id="path170"
       inkscape:connector-curvature="0" /><path
       d="m 279.87,143.97 0,-15.33"
       style="fill:none;stroke:#5692c9;stroke-width:0.75075001;stroke-linecap:round;stroke-linejoin:round;stroke-miterlimit:10;stroke-dasharray:none;stroke-opacity:1"
       id="path172"
       inkscape:connector-curvature="0" /><path
       d="m 467.53421,341.73348 0,28.34 0,-11.34 -5.44,0 0,22.68 2.72,2.84 21.77,0 2.72,-2.84 0,-22.68 -5.44,0 0,11.34 0,-28.34 -8.16,0 0,22.67 0,-22.67 -8.17,0 z m 13.84,51.02 c 0,3.13 -2.54,5.67 -5.67,5.67 -3.13,0 -5.67,-2.54 -5.67,-5.67 0,-3.13 2.54,-5.67 5.67,-5.67 3.13,0 5.67,2.54 5.67,5.67 z"
       style="fill:#73ae42;fill-opacity:1;fill-rule:evenodd;stroke:none"
       id="path34"
       inkscape:connector-curvature="0" /><path
       d="m 467.53421,341.73348 0,28.34 0,-11.34 -5.44,0 0,22.68 2.72,2.84 21.77,0 2.72,-2.84 0,-22.68 -5.44,0 0,11.34 0,-28.34 -8.16,0 0,22.67 0,-22.67 -8.17,0 z m 13.84,51.02 c 0,3.13 -2.54,5.67 -5.67,5.67 -3.13,0 -5.67,-2.54 -5.67,-5.67 0,-3.13 2.54,-5.67 5.67,-5.67 3.13,0 5.67,2.54 5.67,5.67 z"
       style="fill:none;stroke:#ffffff;stroke-width:0.75075001;stroke-linecap:round;stroke-linejoin:round;stroke-miterlimit:10;stroke-dasharray:none;stroke-opacity:1"
       id="path36"
       inkscape:connector-curvature="0" /><text
       y="-326.63348"
       x="439.23422"
       style="font-variant:normal;font-weight:normal;font-size:12.02499962px;font-family:Calibri;-inkscape-font-specification:Calibri;writing-mode:lr-tb;fill:#73ae42;fill-opacity:1;fill-rule:nonzero;stroke:none"
       id="text38"
       transform="scale(1,-1)"><tspan
         x="439.23422 445.23468 451.96869 460.21783 466.2063 470.70364 472.9523 483.43811 489.4386 496.17258 498.42126 502.90659 508.90704"
         y="-326.63348"
         sodipodi:role="line"
         id="tspan40">Power Monitor</tspan></text>
<path
       inkscape:connector-curvature="0"
       id="path4328"
       style="fill:none;stroke:#5692c9;stroke-width:0.7504;stroke-linecap:round;stroke-linejoin:round;stroke-miterlimit:10;stroke-dasharray:none;stroke-opacity:1"
       d="M 461.72015,368.33434 334.93292,271.68413" /><path
       style="fill:none;fill-rule:evenodd;stroke:#5692c9;stroke-width:0.80000001px;stroke-linecap:butt;stroke-linejoin:miter;stroke-opacity:1"
       d="m 235.20589,310.94054 c -56.03072,-56.01397 3.07861,-84.35045 3.07861,-84.35045"
       id="path4330"
       inkscape:connector-curvature="0" /></g></svg>