<?xml version="1.0" encoding="UTF-8" standalone="no"?>
<!-- Created with Inkscape (http://www.inkscape.org/) -->

<svg
   xmlns:dc="http://purl.org/dc/elements/1.1/"
   xmlns:cc="http://creativecommons.org/ns#"
   xmlns:rdf="http://www.w3.org/1999/02/22-rdf-syntax-ns#"
   xmlns:svg="http://www.w3.org/2000/svg"
   xmlns="http://www.w3.org/2000/svg"
   xmlns:sodipodi="http://sodipodi.sourceforge.net/DTD/sodipodi-0.dtd"
   xmlns:inkscape="http://www.inkscape.org/namespaces/inkscape"
   width="1141.3173"
   height="238.32047"
   id="svg2"
   version="1.1"
   inkscape:version="0.48.4 r9939"
   sodipodi:docname="proportionalController.svg">
  <sodipodi:namedview
     id="base"
     pagecolor="#ffffff"
     bordercolor="#666666"
     borderopacity="1.0"
     inkscape:pageopacity="0.0"
     inkscape:pageshadow="2"
     inkscape:zoom="0.35355339"
     inkscape:cx="475.90946"
     inkscape:cy="399.96709"
     inkscape:document-units="px"
     inkscape:current-layer="layer1"
     showgrid="false"
     inkscape:window-width="653"
     inkscape:window-height="716"
     inkscape:window-x="59"
     inkscape:window-y="24"
     inkscape:window-maximized="0"
     inkscape:snap-center="true"
     inkscape:snap-object-midpoints="true"
     fit-margin-top="0"
     fit-margin-left="0"
     fit-margin-right="0"
     fit-margin-bottom="0" />
  <defs
     id="defs4">
    <marker
       inkscape:stockid="Arrow1Lend"
       orient="auto"
       refY="0"
       refX="0"
       id="Arrow1Lend"
       style="overflow:visible">
      <path
         id="path4241"
         d="M 0,0 5,-5 -12.5,0 5,5 0,0 z"
         style="fill-rule:evenodd;stroke:#000000;stroke-width:1pt"
         transform="matrix(-0.8,0,0,-0.8,-10,0)"
         inkscape:connector-curvature="0" />
    </marker>
    <marker
       inkscape:stockid="Arrow1Lend"
       orient="auto"
       refY="0"
       refX="0"
       id="Arrow1Lend-3"
       style="overflow:visible">
      <path
         inkscape:connector-curvature="0"
         id="path4241-6"
         d="M 0,0 5,-5 -12.5,0 5,5 0,0 z"
         style="fill-rule:evenodd;stroke:#000000;stroke-width:1pt"
         transform="matrix(-0.8,0,0,-0.8,-10,0)" />
    </marker>
    <marker
       inkscape:stockid="Arrow1Lend"
       orient="auto"
       refY="0"
       refX="0"
       id="Arrow1Lend-2"
       style="overflow:visible">
      <path
         inkscape:connector-curvature="0"
         id="path4241-8"
         d="M 0,0 5,-5 -12.5,0 5,5 0,0 z"
         style="fill-rule:evenodd;stroke:#000000;stroke-width:1pt"
         transform="matrix(-0.8,0,0,-0.8,-10,0)" />
    </marker>
  </defs>
  <metadata
     id="metadata7">
    <rdf:RDF>
      <cc:Work
         rdf:about="">
        <dc:format>image/svg+xml</dc:format>
        <dc:type
           rdf:resource="http://purl.org/dc/dcmitype/StillImage" />
        <dc:title />
      </cc:Work>
    </rdf:RDF>
  </metadata>
  <g
     id="layer1"
     inkscape:groupmode="layer"
     inkscape:label="Layer 1"
     transform="translate(263.89692,-509.81582)">
    <g
       id="g3580"
       transform="translate(-34,0)">
      <rect
         style="fill:none;stroke:#000000;stroke-width:1;stroke-linecap:square;stroke-linejoin:round;stroke-miterlimit:4;stroke-opacity:1;stroke-dasharray:none;stroke-dashoffset:0"
         id="rect2985"
         width="78.791901"
         height="78.791901"
         x="174.59395"
         y="549.30621" />
      <g
         transform="matrix(1,0,0,0.92197879,-118.03037,268.82654)"
         id="g2993">
        <g
           style="font-style:normal;font-variant:normal;font-weight:normal;font-stretch:normal;letter-spacing:normal;word-spacing:normal;text-anchor:start;fill:none;stroke:#000000;stroke-width:1.04145265;stroke-linecap:butt;stroke-linejoin:miter;stroke-miterlimit:10.43299961;stroke-opacity:1;stroke-dasharray:none;stroke-dashoffset:0"
           id="content"
           transform="matrix(1.0629921,0,0,-1.0629921,-186.02362,789.27165)"
           xml:space="preserve"
           stroke-miterlimit="10.433"
           font-style="normal"
           font-variant="normal"
           font-weight="normal"
           font-stretch="normal"
           font-size-adjust="none"
           letter-spacing="normal"
           word-spacing="normal"><path
             style="fill:#000000;stroke-width:0"
             inkscape:connector-curvature="0"
             d="m 480.88,426.32 -0.01,0.02 0,0.02 -0.01,0.01 -0.01,0.02 0,0.02 -0.01,0.02 -0.01,0.03 -0.01,0.02 -0.01,0.02 -0.01,0.02 -0.01,0.03 -0.01,0.02 -0.02,0.05 -0.02,0.06 -0.02,0.05 -0.02,0.05 -0.01,0.02 -0.01,0.03 -0.01,0.02 -0.01,0.02 -0.01,0.03 0,0.02 -0.01,0.02 0,0.02 -0.01,0.02 0,0.02 0,0.01 0,0.02 c 0,0.04 0.89,0.75 1.45,1.14 l 8.72,6.73 c 4.67,3.44 6.63,3.63 8.11,3.78 0.41,0.05 0.91,0.1 0.91,1 0,0.19 -0.16,0.55 -0.55,0.55 -1.11,0 -2.34,-0.16 -3.55,-0.16 -1.79,0 -3.73,0.16 -5.53,0.16 -0.34,0 -0.94,0 -0.94,-1 0,-0.34 0.25,-0.5 0.6,-0.55 1.09,-0.09 1.54,-0.34 1.54,-1.04 0,-0.89 -1.5,-2.05 -1.79,-2.3 l -19.44,-14.94 4,15.99 c 0.44,1.79 0.55,2.29 4.17,2.29 1.25,0 1.71,0 1.71,1 0,0.44 -0.41,0.55 -0.71,0.55 -1.39,0 -4.98,-0.16 -6.37,-0.16 -1.44,0 -4.99,0.16 -6.42,0.16 -0.36,0 -1,0 -1,-0.95 0,-0.6 0.45,-0.6 1.43,-0.6 0.66,0 1.55,-0.04 2.14,-0.09 0.8,-0.11 1.11,-0.25 1.11,-0.8 0,-0.2 -0.06,-0.36 -0.2,-0.95 l -6.67,-26.75 c -0.5,-1.95 -0.61,-2.34 -4.55,-2.34 -0.84,0 -1.39,0 -1.39,-0.96 0,-0.59 0.59,-0.59 0.75,-0.59 1.39,0 4.94,0.16 6.33,0.16 1.05,0 2.14,-0.07 3.19,-0.07 1.09,0 2.18,-0.09 3.23,-0.09 0.36,0 1,0 1,1 0,0.55 -0.45,0.55 -1.39,0.55 -1.84,0 -3.23,0 -3.23,0.89 0,0.36 0.29,1.45 0.43,2.2 0.71,2.58 1.35,5.22 2,7.81 l 7.42,5.78 5.79,-13.4 c 0.59,-1.35 0.59,-1.44 0.59,-1.74 0,-1.5 -2.14,-1.54 -2.59,-1.54 -0.55,0 -1.1,0 -1.1,-1 0,-0.55 0.6,-0.55 0.71,-0.55 1.98,0 4.07,0.16 6.07,0.16 1.1,0 3.78,-0.16 4.88,-0.16 0.25,0 0.9,0 0.9,1 0,0.55 -0.56,0.55 -1,0.55 -2.04,0.04 -2.68,0.5 -3.43,2.23 z"
             id="path2996" /><path
             style="fill:#000000;stroke-width:0"
             inkscape:connector-curvature="0"
             d="m 500.49,394.51 -0.02,-0.09 -0.02,-0.08 -0.02,-0.09 -0.03,-0.07 -0.02,-0.08 -0.02,-0.07 -0.02,-0.07 -0.02,-0.06 -0.03,-0.06 -0.02,-0.05 -0.03,-0.06 -0.03,-0.05 -0.03,-0.04 -0.03,-0.05 -0.04,-0.04 -0.04,-0.03 -0.04,-0.04 -0.05,-0.03 -0.05,-0.03 -0.06,-0.02 -0.06,-0.03 -0.06,-0.02 -0.07,-0.01 -0.07,-0.02 -0.09,-0.02 -0.04,0 -0.04,-0.01 -0.05,0 -0.04,-0.01 -0.05,0 -0.05,0 -0.05,-0.01 -0.06,0 -0.05,0 -0.06,0 -0.06,-0.01 -0.06,0 -0.06,0 -0.06,0 c -0.46,0 -0.94,0 -0.94,-0.73 0,-0.39 0.31,-0.53 0.48,-0.53 0.91,0 2.06,0.14 3,0.14 1.19,0 2.5,-0.14 3.66,-0.14 0.31,0 0.7,0.11 0.7,0.76 0,0.5 -0.5,0.5 -0.9,0.5 -0.79,0 -1.72,0 -1.72,0.41 0,0.19 0.25,1.09 0.39,1.61 0.42,1.84 0.9,3.73 1.28,5.18 0.42,-0.68 1.5,-2.04 3.59,-2.04 v 0.97 c -2.47,0 -3.09,2.68 -3.09,3.03 0,0.14 0.06,0.39 0.09,0.53 l 1.75,7 c 2.02,2.69 3.77,3.2 4.88,3.2 1.36,0 2.54,-1.01 2.54,-3.37 0,-1.44 -0.76,-4.99 -1.81,-7.02 -0.87,-1.7 -2.58,-3.37 -4.36,-3.37 v -0.97 c 4.25,0 8.95,4.7 8.95,9.89 0,4.08 -2.82,5.81 -5.21,5.81 -2.18,0 -4.02,-1.45 -4.96,-2.44 -0.59,1.99 -2.54,2.44 -3.59,2.44 -1.36,0 -2.19,-0.91 -2.75,-1.84 -0.7,-1.19 -1.25,-3.27 -1.25,-3.49 0,-0.45 0.48,-0.45 0.59,-0.45 0.49,0 0.52,0.11 0.77,1.05 0.51,2.03 1.19,3.76 2.55,3.76 0.9,0 1.14,-0.76 1.14,-1.7 0,-0.39 -0.07,-0.84 -0.11,-1.05 z"
             id="path2998" /></g>      </g>
    </g>
    <g
       id="g3404"
       transform="translate(-19.285822,113.00359)">
      <path
         id="path3114"
         d="m 476.25135,453.65213 -0.0213,-0.0319 -0.0106,-0.0213 -0.0106,-0.0319 -0.0106,-0.0213 -0.0106,-0.0213 -0.0213,-0.0213 -0.0106,-0.0213 -0.0106,-0.0213 -0.0106,-0.0213 -0.0106,-0.0213 -0.0106,-0.0106 0,-0.0213 -0.0106,-0.0213 -0.0106,-0.0106 -0.0106,-0.0106 -0.0106,-0.0213 0,-0.0106 -0.0106,-0.0106 0,-0.0106 -0.0106,-0.0106 0,-0.0106 -0.0106,-0.0106 0,-0.0106 -0.0106,0 0,-0.0106 0,-0.0106 -0.0106,0 0,-0.0106 0,0 0,-0.0106 0,0 0,0 c 0,-0.085 0.0319,-0.11693 0.89291,-0.72284 l 3.74173,-2.61496 c 4.87914,-3.44409 7.18583,-5.07047 9.81142,-5.30433 0.40394,-0.0319 0.8504,-0.0638 0.8504,-0.80787 0,-0.30827 -0.25512,-0.48898 -0.48898,-0.48898 -0.77599,0 -1.73268,0.11693 -2.55118,0.11693 -0.99921,0 -3.47599,-0.14882 -4.46457,-0.14882 -0.23386,0 -0.78661,0 -0.78661,0.81851 0,0.0319 0,0.47834 0.55275,0.51023 0.44646,0.0319 0.92481,0.11693 0.92481,0.52087 0,0.68031 -1.14804,1.48819 -1.62638,1.81771 l -15.44528,10.88504 2.92323,-11.66102 c 0.32953,-1.26496 0.36142,-1.5626 3.25276,-1.5626 0.6059,0 1.11614,0 1.11614,-0.77598 0,-0.34016 -0.2126,-0.55276 -0.59528,-0.55276 -1.06299,0 -3.77362,0.14882 -4.85787,0.14882 -0.62717,0 -1.92402,0 -2.55118,-0.0319 -0.73347,-0.0532 -1.62638,-0.11693 -2.32795,-0.11693 -0.2126,0 -0.77599,0 -0.77599,0.81851 0,0.51023 0.41457,0.51023 1.22244,0.51023 0.58465,0 0.73347,0 1.40315,0.085 0.7441,0.0638 0.82914,0.14882 0.82914,0.51024 0,0.0744 0,0.25512 -0.15945,0.8185 l -4.92166,19.66535 c -0.30826,1.26497 -0.37204,1.5626 -3.26338,1.5626 -0.65906,0 -1.11614,0 -1.11614,0.80788 0,0.0425 0,0.52086 0.6059,0.52086 1.06299,0 3.7311,-0.14882 4.7941,-0.14882 0.63779,0 1.93464,0 2.56181,0.0319 0.74409,0.0532 1.67952,0.11693 2.37047,0.11693 0.22323,0 0.78661,0 0.78661,-0.8185 0,-0.51024 -0.44645,-0.51024 -1.17992,-0.51024 -0.0531,0 -0.74409,0 -1.41378,-0.085 -0.86102,-0.0638 -0.86102,-0.1807 -0.86102,-0.55275 0,-0.29764 0.38268,-1.6689 1.74331,-7.10079 l 6.14409,-4.33701 5.37874,10.39607 c 0.25512,0.47834 0.25512,0.53149 0.25512,0.7122 0,0.85039 -1.0311,0.96732 -1.70079,0.96732 -0.44646,0 -0.95669,0 -0.95669,0.80788 0,0.0425 0.0319,0.52086 0.62716,0.52086 1.03111,0 3.69922,-0.14882 4.73032,-0.14882 1.11614,0 2.5937,0.14882 3.64606,0.14882 0.47835,0 0.72284,-0.26574 0.72284,-0.78661 0,-0.54213 -0.47835,-0.54213 -0.83977,-0.54213 -0.66968,0 -1.81771,-0.0532 -2.44488,-1.23307 z"
         inkscape:connector-curvature="0"
         style="font-style:normal;font-variant:normal;font-weight:normal;font-stretch:normal;letter-spacing:normal;word-spacing:normal;text-anchor:start;fill:#000000;stroke:#000000;stroke-width:0;stroke-linecap:butt;stroke-linejoin:miter;stroke-miterlimit:10.43299961;stroke-opacity:1;stroke-dasharray:none;stroke-dashoffset:0" />
      <polyline
         transform="matrix(1.0629921,0,0,-1.0629921,-120.23604,921.11354)"
         id="polyline3116"
         points="507,418 610.56,418 610.56,420.04 507,420.04 "
         style="font-style:normal;font-variant:normal;font-weight:normal;font-stretch:normal;letter-spacing:normal;word-spacing:normal;text-anchor:start;fill:#000000;fill-rule:nonzero;stroke:#000000;stroke-width:0;stroke-linecap:butt;stroke-linejoin:miter;stroke-miterlimit:10.43299961;stroke-opacity:1;stroke-dasharray:none;stroke-dashoffset:0" />
      <path
         id="path3118"
         d="m 431.78639,494.10961 h 6.89882 c 0.3933,0 1.9559,0 1.9559,-1.47756 0,-1.02047 -0.96732,-1.02047 -1.59449,-1.02047 H 427.3856 c -1.07362,0 -2.2748,0.0638 -4.18819,1.83898 -1.07362,0.96732 -2.45551,2.94449 -2.45551,3.22086 0,0.44646 0.48898,0.44646 0.63779,0.44646 0.41457,0 0.44646,-0.0638 0.65906,-0.39331 1.89213,-2.61496 4.1563,-2.61496 4.99606,-2.61496 h 3.30591 l -3.66732,11.863 c -0.18071,0.59527 -0.18071,0.62716 -0.18071,0.85039 0,1.00984 0.9248,1.19055 1.22244,1.19055 1.40315,0 1.6689,-1.33937 1.78582,-1.86024 z"
         inkscape:connector-curvature="0"
         style="font-style:normal;font-variant:normal;font-weight:normal;font-stretch:normal;letter-spacing:normal;word-spacing:normal;text-anchor:start;fill:#000000;stroke:#000000;stroke-width:0;stroke-linecap:butt;stroke-linejoin:miter;stroke-miterlimit:10.43299961;stroke-opacity:1;stroke-dasharray:none;stroke-dashoffset:0" />
      <path
         id="path3120"
         d="m 451.34544,498.2978 -0.0106,-0.11693 -0.0106,-0.12756 -0.0106,-0.11693 -0.0213,-0.10629 -0.0319,-0.11693 -0.0319,-0.1063 -0.0319,-0.1063 -0.0425,-0.0957 -0.0532,-0.0957 -0.0425,-0.0957 -0.0638,-0.085 -0.0531,-0.085 -0.0638,-0.085 -0.0744,-0.085 -0.0638,-0.0744 -0.0744,-0.0638 -0.085,-0.0744 -0.0744,-0.0638 -0.085,-0.0531 -0.085,-0.0638 -0.085,-0.0425 -0.085,-0.0532 -0.0957,-0.0425 -0.085,-0.0319 -0.0957,-0.0425 -0.0957,-0.0213 -0.085,-0.0319 -0.0957,-0.0213 -0.0957,-0.0106 -0.0957,-0.0106 -0.0957,-0.0106 -0.0957,0 c -1.21181,0 -2.13662,0.98858 -2.13662,2.10472 0,1.35 1.10552,2.15788 2.10473,2.15788 1.21181,0 2.14724,-1.00985 2.14724,-2.12599 z"
         inkscape:connector-curvature="0"
         style="font-style:normal;font-variant:normal;font-weight:normal;font-stretch:normal;letter-spacing:normal;word-spacing:normal;text-anchor:start;fill:#000000;stroke:#000000;stroke-width:0;stroke-linecap:butt;stroke-linejoin:miter;stroke-miterlimit:10.43299961;stroke-opacity:1;stroke-dasharray:none;stroke-dashoffset:0" />
      <path
         id="path3122"
         d="m 471.53166,493.65253 -0.0957,0.0213 -0.085,0.0213 -0.085,0.0319 -0.085,0.0319 -0.0744,0.0319 -0.085,0.0319 -0.0744,0.0425 -0.0744,0.0425 -0.0638,0.0425 -0.0744,0.0532 -0.0638,0.0425 -0.0638,0.0531 -0.0531,0.0532 -0.0638,0.0532 -0.0532,0.0531 -0.0532,0.0638 -0.0425,0.0532 -0.0532,0.0638 -0.0425,0.0638 -0.0425,0.0638 -0.0319,0.0638 -0.0425,0.0638 -0.0213,0.0638 -0.0319,0.0744 -0.0213,0.0638 -0.0319,0.0638 -0.0106,0.0744 -0.0213,0.0638 -0.0106,0.0744 -0.0106,0.0638 0,0.0744 0,0.0638 c 0,0.86103 0.7441,1.20119 1.22244,1.20119 0.37205,0 1.7752,-0.23386 1.7752,-2.11536 0,-2.40236 -2.65748,-3.22087 -4.91102,-3.22087 -5.78268,0 -6.82441,4.25197 -6.82441,5.4 0,1.38189 0.77598,2.25355 1.29685,2.71063 0.95669,0.7441 1.62638,0.87166 4.17756,1.32874 0.78661,0.14882 3.15708,0.59528 3.15708,2.43426 0,0.63779 -0.41456,2.05157 -1.9559,2.97637 -1.44567,0.81851 -3.27402,0.81851 -3.70984,0.81851 -1.48819,0 -3.60355,-0.34016 -4.44331,-1.5626 1.22244,-0.14882 2.04094,-1.06299 2.04094,-2.11535 0,-0.92481 -0.66968,-1.36063 -1.44566,-1.36063 -1.08426,0 -2.15788,0.85039 -2.15788,2.47677 0,2.22165 2.37047,3.58228 5.96339,3.58228 6.82441,0 8.08937,-4.66653 8.08937,-6.1122 0,-3.40158 -3.75237,-4.06063 -5.12363,-4.32638 -0.32952,-0.0744 -1.25433,-0.22323 -1.47755,-0.28701 -1.37126,-0.26575 -2.04095,-1.04173 -2.04095,-1.86024 0,-0.85039 0.66969,-1.83897 1.47756,-2.37047 0.99921,-0.63779 2.29606,-0.70157 2.92323,-0.70157 0.78661,0 2.71063,0.11693 3.52913,1.38189 z"
         inkscape:connector-curvature="0"
         style="font-style:normal;font-variant:normal;font-weight:normal;font-stretch:normal;letter-spacing:normal;word-spacing:normal;text-anchor:start;fill:#000000;stroke:#000000;stroke-width:0;stroke-linecap:butt;stroke-linejoin:miter;stroke-miterlimit:10.43299961;stroke-opacity:1;stroke-dasharray:none;stroke-dashoffset:0" />
      <path
         id="path3124"
         d="m 492.74898,499.20135 h 11.3315 c 0.47835,0 1.36063,0 1.36063,-0.90355 0,-0.91417 -0.85039,-0.91417 -1.36063,-0.91417 h -11.3315 v -11.37402 c 0,-0.47834 0,-1.36063 -0.89291,-1.36063 -0.93543,0 -0.93543,0.8504 -0.93543,1.36063 v 11.37402 h -11.36339 c -0.47834,0 -1.37126,0 -1.37126,0.88228 0,0.93544 0.83977,0.93544 1.37126,0.93544 h 11.36339 v 11.37401 c 0,0.47835 0,1.36063 0.89291,1.36063 0.93543,0 0.93543,-0.85039 0.93543,-1.36063 z"
         inkscape:connector-curvature="0"
         style="font-style:normal;font-variant:normal;font-weight:normal;font-stretch:normal;letter-spacing:normal;word-spacing:normal;text-anchor:start;fill:#000000;stroke:#000000;stroke-width:0;stroke-linecap:butt;stroke-linejoin:miter;stroke-miterlimit:10.43299961;stroke-opacity:1;stroke-dasharray:none;stroke-dashoffset:0" />
      <path
         id="path3126"
         d="m 520.52497,484.01119 0,-0.0425 0,-0.0425 0,-0.0425 0,-0.0425 0,-0.0425 0,-0.0425 0,-0.0425 -0.0106,-0.0319 0,-0.0319 0,-0.0425 0,-0.0319 0,-0.0319 -0.0106,-0.0319 0,-0.0319 0,-0.0213 -0.0106,-0.0319 0,-0.0319 0,-0.0213 -0.0106,-0.0213 -0.0106,-0.0319 -0.0106,-0.0425 -0.0106,-0.0425 -0.0213,-0.0319 -0.0213,-0.0319 -0.0213,-0.0319 -0.0319,-0.0212 -0.0213,-0.0319 -0.0319,-0.0213 -0.0425,-0.0106 -0.0319,-0.0213 -0.0425,-0.0106 -0.0531,-0.0106 -0.0213,-0.0106 -0.0319,0 -0.0213,-0.0106 -0.0319,0 -0.0319,0 -0.0319,-0.0106 -0.0213,0 -0.0425,0 -0.0319,0 -0.0319,0 -0.0319,-0.0106 -0.0425,0 -0.0425,0 -0.0319,0 -0.0425,0 -0.0425,0 -0.0531,0 -0.0425,0 -0.0425,0 -0.0532,0 c -2.37048,2.33858 -5.72953,2.37047 -7.26024,2.37047 v 1.32874 c 0.90354,0 3.3378,0 5.36811,-1.02047 v 18.87874 c 0,1.23307 0,1.71141 -3.69921,1.71141 h -1.40315 v 1.32874 c 0.66968,-0.0319 5.21929,-0.14882 6.60118,-0.14882 1.14803,0 5.81457,0.11693 6.62244,0.14882 v -1.32874 h -1.41378 c -3.69921,0 -3.69921,-0.47834 -3.69921,-1.71141 z"
         inkscape:connector-curvature="0"
         style="font-style:normal;font-variant:normal;font-weight:normal;font-stretch:normal;letter-spacing:normal;word-spacing:normal;text-anchor:start;fill:#000000;stroke:#000000;stroke-width:0;stroke-linecap:butt;stroke-linejoin:miter;stroke-miterlimit:10.43299961;stroke-opacity:1;stroke-dasharray:none;stroke-dashoffset:0" />
    </g>
    <path
       id="path3343"
       d="m -86.93648,589.77045 h 14.786221 c 0.733464,0 1.743307,0 1.743307,-1.06299 0,-1.06299 -1.009843,-1.06299 -1.743307,-1.06299 H -86.93648 V 572.8051 c 0,-0.72284 0,-1.74331 -1.062992,-1.74331 -1.041732,0 -1.041732,1.02047 -1.041732,1.74331 v 14.83937 h -14.828736 c -0.75473,0 -1.74331,0 -1.74331,1.06299 0,1.06299 0.98858,1.06299 1.74331,1.06299 h 14.828736 v 14.81811 c 0,0.74409 0,1.75394 1.041732,1.75394 1.062992,0 1.062992,-1.00985 1.062992,-1.75394 z"
       inkscape:connector-curvature="0"
       style="font-style:normal;font-variant:normal;font-weight:normal;font-stretch:normal;letter-spacing:normal;word-spacing:normal;text-anchor:start;fill:#000000;stroke:#000000;stroke-width:0;stroke-linecap:butt;stroke-linejoin:miter;stroke-miterlimit:10.43299961;stroke-opacity:1;stroke-dasharray:none;stroke-dashoffset:0" />
    <path
       id="path3345"
       d="m -55.696917,615.76505 0.170079,0 0.170078,0 0.170079,-0.0106 0.08504,0 0.07441,-0.0106 0.08504,0 0.07441,-0.0106 0.08504,-0.0106 0.07441,-0.0106 0.07441,-0.0213 0.07441,-0.0213 0.06378,-0.0213 0.07441,-0.0213 0.06378,-0.0213 0.06378,-0.0319 0.05315,-0.0319 0.05315,-0.0425 0.05315,-0.0319 0.05315,-0.0531 0.04252,-0.0425 0.04252,-0.0532 0.02126,-0.0319 0.02126,-0.0319 0.01063,-0.0319 0.02126,-0.0319 0.01063,-0.0319 0.01063,-0.0319 0.01063,-0.0425 0.01063,-0.0319 0.01063,-0.0425 0.01063,-0.0425 0.01063,-0.0425 0,-0.0425 0.01063,-0.0425 0,-0.0425 0,-0.0531 0,-0.0425 c 0,-1.06299 -0.956693,-1.06299 -1.860236,-1.06299 h -28.647647 c -0.892914,0 -1.838977,0 -1.838977,1.06299 0,1.06299 0.946063,1.06299 1.838977,1.06299 z"
       inkscape:connector-curvature="0"
       style="font-style:normal;font-variant:normal;font-weight:normal;font-stretch:normal;letter-spacing:normal;word-spacing:normal;text-anchor:start;fill:#000000;stroke:#000000;stroke-width:0;stroke-linecap:butt;stroke-linejoin:miter;stroke-miterlimit:10.43299961;stroke-opacity:1;stroke-dasharray:none;stroke-dashoffset:0" />
    <rect
       style="fill:none;stroke:#000000;stroke-width:0.99999994;stroke-linecap:square;stroke-linejoin:round;stroke-miterlimit:4;stroke-opacity:1;stroke-dasharray:none;stroke-dashoffset:0"
       id="rect3385"
       width="171.72594"
       height="78.791901"
       x="368.5939"
       y="549.30621" />
    <path
       sodipodi:type="arc"
       style="fill:none;stroke:#000000;stroke-width:1;stroke-linecap:square;stroke-linejoin:round;stroke-miterlimit:4;stroke-opacity:1;stroke-dasharray:none;stroke-dashoffset:0"
       id="path3437"
       sodipodi:cx="213.9899"
       sodipodi:cy="588.70215"
       sodipodi:rx="39.395935"
       sodipodi:ry="39.395935"
       d="m 253.38583,588.70215 c 0,21.75777 -17.63816,39.39593 -39.39593,39.39593 -21.75778,0 -39.39594,-17.63816 -39.39594,-39.39593 0,-21.75778 17.63816,-39.39594 39.39594,-39.39594 21.75777,0 39.39593,17.63816 39.39593,39.39594 z"
       transform="translate(-284,0)" />
    <path
       style="fill:none;stroke:#000000;stroke-width:1;stroke-linecap:butt;stroke-linejoin:miter;stroke-miterlimit:4;stroke-opacity:1;stroke-dasharray:none;marker-start:none;marker-end:url(#Arrow1Lend)"
       d="m -233.3938,588.70215 121.96518,0"
       id="path3464"
       inkscape:connector-curvature="0" />
    <path
       inkscape:connector-curvature="0"
       id="path5042"
       d="m -30.353136,588.70215 171.463916,0"
       style="fill:none;stroke:#000000;stroke-width:0.99999994;stroke-linecap:butt;stroke-linejoin:miter;stroke-miterlimit:4;stroke-opacity:1;stroke-dasharray:none;marker-start:none;marker-end:url(#Arrow1Lend)" />
    <path
       style="fill:none;stroke:#000000;stroke-width:1;stroke-linecap:butt;stroke-linejoin:miter;stroke-miterlimit:4;stroke-opacity:1;stroke-dasharray:none;marker-start:none;marker-end:url(#Arrow1Lend)"
       d="m 218.18626,588.70215 149.38399,0"
       id="path5044"
       inkscape:connector-curvature="0" />
    <path
       inkscape:connector-curvature="0"
       id="path5046"
       d="m 540.12769,588.70215 336.79261,0"
       style="fill:none;stroke:#000000;stroke-width:0.99999994;stroke-linecap:butt;stroke-linejoin:miter;stroke-miterlimit:4;stroke-opacity:1;stroke-dasharray:none;marker-start:none;marker-end:url(#Arrow1Lend)" />
    <path
       style="fill:none;stroke:#000000;stroke-width:1;stroke-linecap:butt;stroke-linejoin:miter;stroke-miterlimit:4;stroke-opacity:1;stroke-dasharray:none;marker-start:none;marker-end:none"
       d="m 641.64144,747.29611 -712.133038,0"
       id="path5071"
       inkscape:connector-curvature="0" />
    <path
       inkscape:connector-curvature="0"
       id="path5050-8"
       d="m 641.15249,747.21948 0,-158.41377"
       style="fill:none;stroke:#000000;stroke-width:0.99999988;stroke-linecap:butt;stroke-linejoin:miter;stroke-miterlimit:4;stroke-opacity:1;stroke-dasharray:none;marker-start:none;marker-end:none" />
    <path
       inkscape:connector-curvature="0"
       id="path5050-8-4"
       d="m -70.010101,747.63628 0,-117.93383"
       style="fill:none;stroke:#000000;stroke-width:1;stroke-linecap:butt;stroke-linejoin:miter;stroke-miterlimit:4;stroke-opacity:1;stroke-dasharray:none;marker-start:none;marker-end:url(#Arrow1Lend)" />
    <g
       id="g3546"
       transform="translate(166,264)">
      <path
         inkscape:connector-curvature="0"
         d="m -397.59692,252.27087 0.25875,-0.41 0.26375,-0.37125 0.24875,-0.35125 0.24875,-0.3325 0.24875,-0.31625 0.25,-0.28375 0.24875,-0.27375 0.24875,-0.24875 0.24,-0.225 0.23875,-0.215 0.23875,-0.195 0.225,-0.18 0.23875,-0.15625 0.225,-0.15125 0.24,-0.1325 0.21375,-0.12625 0.23,-0.10375 0.225,-0.1025 0.215,-0.0775 0.22875,-0.0788 0.215,-0.0675 0.215,-0.0588 0.205,-0.0437 0.215,-0.035 0.205,-0.0337 0.215,-0.0337 0.405,-0.0438 0.4,-0.025 0.39625,-0.025 c 0.67875,-0.0525 0.7275,-1.005 0.7275,-1.08875 0,-0.43875 -0.28375,-0.66875 -0.7275,-0.66875 -1.475,0 -3.12,0.18625 -4.63875,0.18625 -1.86,0 -3.79875,-0.18625 -5.60125,-0.18625 -0.34125,0 -1.06875,0 -1.06875,1.08 0,0.625 0.5225,0.6775 0.9075,0.6775 1.51875,0.10375 2.6075,0.67 2.6075,1.86125 0,0.84875 -0.84875,2.09 -0.84875,2.14375 l -17.34875,27.5725 -3.8475,-29.8725 c 0,-0.9675 1.29375,-1.705 3.90125,-1.705 0.795,0 1.41625,0 1.41625,-1.1325 0,-0.4975 -0.465,-0.625 -0.80125,-0.625 -2.24625,0 -4.6975,0.18625 -6.9975,0.18625 -1.025,0 -2.09,-0.0588 -3.12,-0.0588 -1.01,0 -2.09,-0.1275 -3.05125,-0.1275 -0.38625,0 -1.055,0 -1.055,1.08 0,0.6775 0.48875,0.6775 1.39625,0.6775 3.17375,0 3.2175,0.51375 3.39875,1.91 l 4.44875,34.8725 c 0.18,1.13375 0.41,1.29 1.1325,1.29 0.9075,0 1.1325,-0.28375 1.60125,-1.00625 l 20.3225,-32.36875 z"
         style="fill:#000000;fill-opacity:1;fill-rule:nonzero;stroke:none"
         id="path3180" />
      <path
         inkscape:connector-curvature="0"
         d="m -390.84942,284.87337 0,-0.0288 0.01,-0.025 0,-0.0337 0.01,-0.0337 0,-0.035 0.015,-0.0337 0.009,-0.0438 0.01,-0.0487 0.015,-0.0537 0.01,-0.0437 0.0238,-0.0688 0.02,-0.1175 0.0337,-0.13625 0.035,-0.14625 0.0487,-0.1475 0.0337,-0.17 0.0437,-0.15625 0.0875,-0.3425 0.0937,-0.36125 0.0925,-0.35125 0.0875,-0.34125 0.035,-0.15625 0.0437,-0.16125 0.0488,-0.16125 0.0337,-0.1325 0.035,-0.13625 0.009,-0.0588 0.025,-0.0537 0.0188,-0.1175 0.025,-0.0437 0.01,-0.0437 0.015,-0.0488 0.009,-0.0337 0,-0.035 0.01,-0.0288 0.01,-0.025 0,-0.0238 0.015,-0.01 0,-0.01 c 0.0875,-0.3325 1.225,-2.295 2.505,-3.2475 0.42,-0.3025 1.48375,-1.0975 3.1875,-1.0975 0.38625,0 1.3825,0.0337 2.17875,0.54625 -1.285,0.35125 -1.73875,1.47 -1.73875,2.1725 0,0.875 0.66875,1.465 1.5775,1.465 0.9075,0 2.21125,-0.74625 2.21125,-2.41625 0,-2.05125 -2.1775,-2.86625 -4.19375,-2.86625 -2.05625,0 -3.83375,0.815 -5.57125,2.7975 -0.70375,-2.4125 -3.115,-2.7975 -4.0675,-2.7975 -1.455,0 -2.45125,0.9075 -3.08625,1.99625 -0.90875,1.53875 -1.455,3.8525 -1.455,4.04875 0,0.5075 0.54625,0.5075 0.66875,0.5075 0.55625,0 0.59125,-0.1225 0.87375,-1.19125 0.58125,-2.4025 1.3525,-4.2625 2.89625,-4.2625 1.02,0 1.28875,0.86375 1.28875,1.92875 0,0.75625 -0.36125,2.21125 -0.645,3.27625 -0.25875,1.07875 -0.64375,2.7 -0.86375,3.55875 l -1.255,5.07375 c -0.16125,0.4975 -0.4,1.48375 -0.4,1.60625 0,0.87375 0.7175,1.26 1.3525,1.26 0.59,0 1.38125,-0.35125 1.68875,-1.1325 0.0788,-0.25 0.50875,-1.9825 0.7575,-2.97375 l 1.06875,-4.25375 z"
         style="fill:#000000;fill-opacity:1;fill-rule:nonzero;stroke:none"
         id="path3182" />
      <path
         inkscape:connector-curvature="0"
         d="m -369.09567,283.84337 0.4975,0 0.14625,-0.01 0.17125,0 0.15625,-0.0138 0.18,0 0.18625,-0.01 0.19,-0.01 0.19625,-0.015 0.2,-0.01 0.205,-0.009 0.215,-0.025 0.44375,-0.0337 0.445,-0.0437 0.46375,-0.0587 0.46375,-0.0688 0.45375,-0.0775 0.45375,-0.0888 0.225,-0.0587 0.215,-0.0438 0.22875,-0.0587 0.215,-0.0675 0.205,-0.0588 0.205,-0.0637 c 2.925,-1.035 3.4675,-2.93 3.4675,-4.12125 0,-2.1725 -2.1775,-3.46625 -4.9075,-3.46625 l 0,1.09875 c 1.73375,0 3.20875,0.86375 3.20875,2.3675 0,3.8325 -6.68,3.8325 -8.38375,3.8325 l -1.925,0 c 1.6075,-5.7225 5.99625,-6.2 7.1,-6.2 l 0,-1.09875 c -4.73125,0 -11.1375,3.6275 -11.1375,10.385 0,3.98 2.495,7.4175 7.11875,7.4175 6.68,0 9.8,-3.90125 9.8,-4.4675 0,-0.225 -0.36125,-0.67 -0.67875,-0.67 -0.22875,0 -0.3175,0.0937 -0.635,0.41125 -3.085,3.6275 -7.715,3.6275 -8.4175,3.6275 -2.36875,0 -3.955,-1.5775 -3.955,-4.785 0,-0.5475 0,-1.33875 0.48875,-3.50625 l 2.495,0 z"
         style="fill:#000000;fill-opacity:1;fill-rule:nonzero;stroke:none"
         id="path3184" />
      <path
         inkscape:connector-curvature="0"
         d="m -340.49692,277.23212 3.85625,0 c 0.79125,0 1.31375,0 1.31375,-0.85875 0,-0.5575 -0.5225,-0.5575 -1.225,-0.5575 l -3.6825,0 c 0.91875,-5.01375 1.22125,-6.84 1.53875,-7.9825 0.195,-0.875 1.06875,-1.705 2.02125,-1.705 0.0337,0 1.09875,0 1.86,0.47875 -1.635,0.5075 -1.7375,1.94875 -1.7375,2.1775 0,0.87375 0.67375,1.45 1.5775,1.45 1.06875,0 2.245,-0.9075 2.245,-2.40125 0,-1.8175 -1.92875,-2.80375 -3.945,-2.80375 -1.73375,0 -3.67625,0.98625 -4.75125,2.96 -0.77125,1.46375 -1.1025,3.24125 -1.92875,7.82625 l -3.12,0 c -0.79125,0 -1.3125,0 -1.3125,0.87375 0,0.5425 0.52125,0.5425 1.225,0.5425 l 2.925,0 c -0.035,0.24875 -2.52,14.4575 -3.4725,18.70125 -0.19,0.86375 -0.87375,3.8575 -2.7675,3.8575 -0.035,0 -0.99625,0 -1.73375,-0.45375 1.61125,-0.5225 1.73375,-1.95375 1.73375,-2.17875 0,-0.87375 -0.67875,-1.46375 -1.5725,-1.46375 -1.07,0 -2.26125,0.9075 -2.26125,2.41625 0,1.7675 1.875,2.8025 3.83375,2.8025 2.52875,0 4.2775,-2.61125 4.755,-3.47125 1.41625,-2.66625 2.31,-7.52 2.4025,-7.9975 l 2.2225,-12.2125 z"
         style="fill:#000000;fill-opacity:1;fill-rule:nonzero;stroke:none"
         id="path3186" />
    </g>
    <g
       id="g3552"
       transform="translate(125.97439,267.47328)">
      <path
         inkscape:connector-curvature="0"
         d="m -119.72067,269.17087 0.26375,-0.41 0.25875,-0.37625 0.24875,-0.35125 0.25375,-0.3275 0.24875,-0.3175 0.24875,-0.28375 0.25,-0.2725 0.24875,-0.24875 0.23875,-0.225 0.235,-0.22 0.23875,-0.19 0.23,-0.18125 0.23375,-0.16125 0.23,-0.14625 0.23875,-0.13625 0.215,-0.1225 0.225,-0.1025 0.22875,-0.1025 0.215,-0.0788 0.225,-0.0825 0.215,-0.0687 0.22,-0.0537 0.2,-0.0488 0.22,-0.0337 0.2,-0.0288 0.215,-0.035 0.41,-0.0488 0.395,-0.0187 0.4,-0.025 c 0.67875,-0.0587 0.72375,-1.01125 0.72375,-1.08875 0,-0.445 -0.28375,-0.66875 -0.72375,-0.66875 -1.47375,0 -3.12,0.18 -4.63875,0.18 -1.86,0 -3.79875,-0.18 -5.605,-0.18 -0.33625,0 -1.06375,0 -1.06375,1.07875 0,0.62 0.52125,0.67875 0.9075,0.67875 1.51875,0.1025 2.6075,0.66875 2.6075,1.86 0,0.85 -0.85,2.085 -0.85,2.14375 l -17.3525,27.56875 -3.84375,-29.87375 c 0,-0.96125 1.29375,-1.69875 3.90125,-1.69875 0.79125,0 1.41625,0 1.41625,-1.1325 0,-0.49875 -0.46375,-0.625 -0.805,-0.625 -2.24625,0 -4.6925,0.18 -6.9975,0.18 -1.02,0 -2.085,-0.0537 -3.12,-0.0537 -1.00625,0 -2.085,-0.12625 -3.0475,-0.12625 -0.385,0 -1.05375,0 -1.05375,1.07875 0,0.67875 0.4875,0.67875 1.39125,0.67875 3.17875,0 3.2225,0.5075 3.40375,1.90375 l 4.4475,34.87375 c 0.18125,1.1325 0.405,1.29375 1.1325,1.29375 0.90875,0 1.13375,-0.28375 1.5975,-1.01125 l 20.3225,-32.3625 z"
         style="fill:#000000;fill-opacity:1;fill-rule:nonzero;stroke:none"
         id="path3188" />
      <path
         inkscape:connector-curvature="0"
         d="m -113.40317,300.74337 0.49875,0 0.16125,-0.015 0.15625,0 0.16125,-0.01 0.18,0 0.18125,-0.01 0.195,-0.0138 0.19,-0.01 0.205,-0.01 0.215,-0.015 0.205,-0.0188 0.445,-0.035 0.44875,-0.0437 0.45375,-0.0587 0.46875,-0.0675 0.45,-0.0788 0.45375,-0.0925 0.23,-0.0537 0.22375,-0.0487 0.215,-0.0538 0.22,-0.0687 0.2,-0.0588 0.205,-0.0675 c 2.925,-1.03125 3.47125,-2.925 3.47125,-4.11625 0,-2.17875 -2.1775,-3.4725 -4.91125,-3.4725 l 0,1.10375 c 1.7475,0 3.2075,0.86 3.2075,2.36875 0,3.8325 -6.68,3.8325 -8.37875,3.8325 l -1.92875,0 c 1.61125,-5.7275 6.01125,-6.20125 7.1,-6.20125 l 0,-1.10375 c -4.72625,0 -11.1375,3.63375 -11.1375,10.39125 0,3.97875 2.495,7.41625 7.12375,7.41625 6.68,0 9.8,-3.90125 9.8,-4.4675 0,-0.22875 -0.3525,-0.66875 -0.68375,-0.66875 -0.225,0 -0.3175,0.0875 -0.635,0.405 -3.08125,3.6325 -7.7,3.6325 -8.4125,3.6325 -2.36875,0 -3.94625,-1.57625 -3.94625,-4.79 0,-0.54125 0,-1.3375 0.47375,-3.5 l 2.495,0 z"
         style="fill:#000000;fill-opacity:1;fill-rule:nonzero;stroke:none"
         id="path3190" />
      <path
         inkscape:connector-curvature="0"
         d="m -91.60567,301.77337 0,-0.0337 0.015,-0.025 0,-0.0337 0.0088,-0.03 0,-0.0337 0.01,-0.0337 0.015,-0.05 0.01,-0.0437 0.01,-0.0587 0.01375,-0.0438 0.02,-0.0675 0.01,-0.0537 0.04875,-0.19625 0.03375,-0.14625 0.04375,-0.14625 0.035,-0.17125 0.04375,-0.16125 0.04875,-0.17 0.04375,-0.16625 0.0875,-0.36625 0.0925,-0.35125 0.045,-0.17125 0.04875,-0.16625 0.03375,-0.16125 0.04375,-0.15625 0.04375,-0.16125 0.06875,-0.2725 0.01,-0.0537 0.02375,-0.0588 0.01,-0.0587 0.015,-0.0538 0.02,-0.0437 0.01375,-0.0487 0.01,-0.045 0.01,-0.0337 0,-0.0337 0.015,-0.035 0.0088,-0.0238 0,-0.02 0.01,-0.0137 0,-0.01 c 0.0925,-0.3275 1.22625,-2.29 2.51,-3.2425 0.42,-0.3075 1.485,-1.09875 3.18375,-1.09875 0.385,0 1.38625,0.0338 2.1775,0.5425 -1.27875,0.35125 -1.73375,1.47375 -1.73375,2.1775 0,0.87375 0.67,1.465 1.5775,1.465 0.90375,0 2.2125,-0.7525 2.2125,-2.4175 0,-2.05 -2.17875,-2.87125 -4.2,-2.87125 -2.05,0 -3.8325,0.82125 -5.56625,2.8025 -0.7025,-2.41625 -3.12,-2.8025 -4.0725,-2.8025 -1.45,0 -2.45125,0.90875 -3.085,1.9975 -0.90875,1.5425 -1.45125,3.8575 -1.45125,4.0475 0,0.5125 0.5425,0.5125 0.67,0.5125 0.55625,0 0.59,-0.12625 0.87375,-1.19125 0.57625,-2.4025 1.3475,-4.2625 2.89,-4.2625 1.02125,0 1.29375,0.86 1.29375,1.92375 0,0.7625 -0.36125,2.2125 -0.64875,3.28125 -0.25875,1.075 -0.645,2.695 -0.86,3.56 l -1.25875,5.0675 c -0.15625,0.49875 -0.39625,1.485 -0.39625,1.6125 0,0.87375 0.7125,1.25875 1.3475,1.25875 0.59125,0 1.3875,-0.35125 1.69,-1.1325 0.0825,-0.25375 0.5125,-1.9875 0.76125,-2.97375 l 1.065,-4.2525 z"
         style="fill:#000000;fill-opacity:1;fill-rule:nonzero;stroke:none"
         id="path3192" />
      <path
         inkscape:connector-curvature="0"
         d="m -69.42317,301.77337 0,-0.0587 0.015,-0.0337 0.0087,-0.03 0,-0.0337 0.01,-0.0337 0.015,-0.05 0.01,-0.0437 0.01,-0.0587 0.01375,-0.0438 0.01,-0.0675 0.025,-0.0537 0.0088,-0.0588 0.035,-0.1375 0.03375,-0.14625 0.04375,-0.14625 0.035,-0.17125 0.04375,-0.16125 0.04875,-0.17 0.04375,-0.16625 0.0875,-0.36625 0.09375,-0.35125 0.04375,-0.17125 0.03375,-0.16625 0.04875,-0.16125 0.04375,-0.15625 0.035,-0.16125 0.04375,-0.13625 0.03375,-0.13625 0.01,-0.0537 0.02375,-0.0588 0.01,-0.0587 0.015,-0.0538 0.01,-0.0437 0.02375,-0.0487 0.01,-0.045 0,-0.0337 0.01,-0.0337 0.015,-0.035 0.01,-0.0238 0,-0.02 0.0087,-0.0137 0,-0.01 c 0.09375,-0.3275 1.22625,-2.29 2.495,-3.2425 0.435,-0.3075 1.5,-1.09875 3.19875,-1.09875 0.38625,0 1.3725,0.0338 2.1775,0.5425 -1.27875,0.35125 -1.73375,1.47375 -1.73375,2.1775 0,0.87375 0.67,1.465 1.5775,1.465 0.90875,0 2.2125,-0.7525 2.2125,-2.4175 0,-2.05 -2.1775,-2.87125 -4.2,-2.87125 -2.06,0 -3.8325,0.82125 -5.56625,2.8025 -0.7025,-2.41625 -3.12,-2.8025 -4.0725,-2.8025 -1.45,0 -2.45125,0.90875 -3.085,1.9975 -0.90875,1.5425 -1.45,3.8575 -1.45,4.0475 0,0.5125 0.54125,0.5125 0.66875,0.5125 0.55625,0 0.59,-0.12625 0.87375,-1.19125 0.57625,-2.4025 1.3475,-4.2625 2.88125,-4.2625 1.03,0 1.30375,0.86 1.30375,1.92375 0,0.7625 -0.3625,2.2125 -0.645,3.28125 -0.26375,1.075 -0.65875,2.695 -0.865,3.56 l -1.25875,5.0675 c -0.15625,0.49875 -0.39625,1.485 -0.39625,1.6125 0,0.87375 0.71375,1.25875 1.3475,1.25875 0.59125,0 1.3875,-0.35125 1.68,-1.1325 0.0925,-0.25375 0.5225,-1.9875 0.77125,-2.97375 l 1.065,-4.2525 z"
         style="fill:#000000;fill-opacity:1;fill-rule:nonzero;stroke:none"
         id="path3194" />
      <path
         inkscape:connector-curvature="0"
         d="m -35.55567,299.23462 -0.015,-0.41125 -0.02,-0.385 -0.04875,-0.38625 -0.0675,-0.37125 -0.07875,-0.36625 -0.1025,-0.35125 -0.1125,-0.33625 -0.12125,-0.3175 -0.1525,-0.3175 -0.15625,-0.3075 -0.18,-0.28375 -0.18625,-0.2825 -0.2,-0.26375 -0.215,-0.25 -0.22875,-0.24875 -0.24,-0.22375 -0.24875,-0.22 -0.25875,-0.19125 -0.27375,-0.19 -0.56625,-0.34125 -0.3075,-0.1475 -0.3075,-0.13625 -0.3025,-0.1125 -0.3325,-0.11625 -0.32625,-0.0888 -0.3425,-0.0825 -0.33625,-0.0638 -0.3425,-0.0487 -0.35125,-0.0437 -0.36125,-0.01 -0.35125,-0.015 c -5.875,0 -11.40125,5.48875 -11.40125,10.89875 0,3.95 2.895,6.90875 7.19125,6.90875 l 0.035,-1.09875 c -1.96375,0 -3.945,-1.27375 -3.945,-4.38875 0,-1.61125 0.75625,-5.50375 2.29875,-7.74875 1.705,-2.4475 3.98,-3.4675 5.7625,-3.4675 2.14375,0 3.945,1.46 3.945,4.385 0,0.9425 -0.45375,4.85875 -2.2125,7.6225 -1.48375,2.32375 -3.86625,3.5975 -5.84875,3.5975 l -0.035,1.09875 c 5.66,0 11.34375,-5.205 11.34375,-10.8975 z"
         style="fill:#000000;fill-opacity:1;fill-rule:nonzero;stroke:none"
         id="path3196" />
      <path
         inkscape:connector-curvature="0"
         d="m -24.93067,301.77337 0,-0.0337 0.0087,-0.025 0,-0.0337 0.015,-0.03 0.02,-0.0675 0,-0.05 0.015,-0.0437 0.0087,-0.0587 0.025,-0.0438 0.01,-0.0675 0.0087,-0.0537 0.025,-0.0588 0.02,-0.1375 0.04875,-0.14625 0.03375,-0.14625 0.04375,-0.17125 0.035,-0.16125 0.04375,-0.17 0.04875,-0.16625 0.0875,-0.36625 0.0925,-0.35125 0.04375,-0.17125 0.045,-0.16625 0.04875,-0.16125 0.03375,-0.15625 0.04375,-0.16125 0.06875,-0.2725 0.02,-0.0537 0.01375,-0.0588 0.01,-0.0587 0.025,-0.0538 0.0087,-0.0437 0.01,-0.0487 0.015,-0.045 0.02,-0.0675 0,-0.035 0.01375,-0.0238 0.01,-0.02 0,-0.0238 c 0.0925,-0.3275 1.22625,-2.29 2.505,-3.2425 0.42,-0.3075 1.48875,-1.09875 3.18875,-1.09875 0.395,0 1.38125,0.0338 2.1775,0.5425 -1.27,0.35125 -1.73375,1.47375 -1.73375,2.1775 0,0.87375 0.66875,1.465 1.5725,1.465 0.90875,0 2.2125,-0.7525 2.2125,-2.4175 0,-2.05 -2.17875,-2.87125 -4.195,-2.87125 -2.055,0 -3.82375,0.82125 -5.55625,2.8025 -0.7175,-2.41625 -3.12,-2.8025 -4.0825,-2.8025 -1.455,0 -2.44125,0.90875 -3.08625,1.9975 -0.8975,1.5425 -1.45,3.8575 -1.45,4.0475 0,0.5125 0.5525,0.5125 0.67875,0.5125 0.5425,0 0.57625,-0.12625 0.86,-1.19125 0.59,-2.4025 1.3525,-4.2625 2.895,-4.2625 1.03,0 1.29375,0.86 1.29375,1.92375 0,0.7625 -0.35125,2.2125 -0.63875,3.28125 -0.26875,1.075 -0.655,2.695 -0.87,3.56 l -1.26,5.0675 c -0.16,0.49875 -0.385,1.485 -0.385,1.6125 0,0.87375 0.7025,1.25875 1.3375,1.25875 0.59125,0 1.3825,-0.35125 1.69,-1.1325 0.0925,-0.25375 0.5125,-1.9875 0.76125,-2.97375 l 1.065,-4.2525 z"
         style="fill:#000000;fill-opacity:1;fill-rule:nonzero;stroke:none"
         id="path3198" />
    </g>
    <g
       id="g3574">
      <path
         inkscape:connector-curvature="0"
         d="m 707.22308,525.31337 0.26375,-0.41 0.25875,-0.37125 0.24875,-0.35125 0.24875,-0.3325 0.25,-0.3175 0.24875,-0.2825 0.25375,-0.26875 0.24875,-0.25375 0.235,-0.225 0.23875,-0.215 0.24,-0.195 0.22375,-0.18125 0.24,-0.15625 0.22875,-0.14625 0.235,-0.13625 0.22,-0.1275 0.44875,-0.205 0.22,-0.0775 0.22375,-0.0788 0.215,-0.0688 0.215,-0.0587 0.205,-0.0437 0.215,-0.0337 0.205,-0.0337 0.215,-0.035 0.41,-0.0437 0.79125,-0.0488 c 0.68375,-0.0537 0.7275,-1.00625 0.7275,-1.08875 0,-0.44 -0.28375,-0.66875 -0.7275,-0.66875 -1.475,0 -3.115,0.185 -4.63875,0.185 -1.86,0 -3.79875,-0.185 -5.6,-0.185 -0.3425,0 -1.065,0 -1.065,1.07875 0,0.625 0.5225,0.67875 0.90875,0.67875 1.5175,0.1025 2.60625,0.66875 2.60625,1.86 0,0.855 -0.84875,2.09 -0.84875,2.14375 l -17.35375,27.57375 -3.8425,-29.87375 c 0,-0.96625 1.28875,-1.70375 3.90125,-1.70375 0.79125,0 1.41625,0 1.41625,-1.1325 0,-0.49875 -0.46375,-0.625 -0.80625,-0.625 -2.24625,0 -4.6975,0.185 -6.99625,0.185 -1.02125,0 -2.085,-0.0587 -3.12125,-0.0587 -1.01,0 -2.085,-0.12625 -3.05125,-0.12625 -0.38625,0 -1.055,0 -1.055,1.07875 0,0.67875 0.48875,0.67875 1.39625,0.67875 3.17375,0 3.22375,0.5125 3.40375,1.90875 l 4.44375,34.87375 c 0.18,1.1325 0.41,1.28875 1.1375,1.28875 0.90375,0 1.1325,-0.2825 1.59625,-1.00625 l 20.3225,-32.3675 z"
         style="fill:#000000;fill-opacity:1;fill-rule:nonzero;stroke:none"
         id="path3200" />
      <path
         inkscape:connector-curvature="0"
         d="m 725.66558,555.37712 -0.015,-0.40625 -0.0187,-0.385 -0.0588,-0.38625 -0.0538,-0.37625 -0.0838,-0.36125 -0.1025,-0.35125 -0.11125,-0.34125 -0.27375,-0.635 -0.16625,-0.3075 -0.17125,-0.28375 -0.195,-0.2825 -0.19,-0.25875 -0.215,-0.25 -0.23,-0.24875 -0.23875,-0.22875 -0.24875,-0.215 -0.25875,-0.195 -0.27375,-0.19125 -0.56625,-0.34125 -0.3075,-0.14625 -0.30375,-0.1375 -0.63375,-0.225 -0.3325,-0.0925 -0.3375,-0.0775 -0.34125,-0.0688 -0.35125,-0.0437 -0.3525,-0.0487 -0.35125,-0.01 -0.36125,-0.01 c -5.86375,0 -11.40125,5.48875 -11.40125,10.89875 0,3.945 2.895,6.90375 7.2025,6.90375 l 0.0337,-1.0975 c -1.9625,0 -3.945,-1.27 -3.945,-4.39 0,-1.61125 0.75625,-5.49875 2.3,-7.745 1.70375,-2.45 3.98375,-3.47125 5.75125,-3.47125 2.15375,0 3.955,1.465 3.955,4.39 0,0.9425 -0.46375,4.85375 -2.20625,7.6225 -1.49875,2.32375 -3.8675,3.59375 -5.855,3.59375 l -0.0337,1.0975 c 5.64875,0 11.3425,-5.205 11.3425,-10.8975 z"
         style="fill:#000000;fill-opacity:1;fill-rule:nonzero;stroke:none"
         id="path3202" />
      <path
         inkscape:connector-curvature="0"
         d="m 743.70808,559.49337 -0.01,0.0675 -0.025,0.0837 -0.0238,0.0875 -0.02,0.0788 -0.0237,0.0925 -0.02,0.0925 -0.025,0.0875 -0.0237,0.0937 -0.0438,0.19 -0.0437,0.195 -0.0488,0.19 -0.02,0.0937 -0.025,0.0875 -0.0238,0.0925 -0.02,0.0788 -0.0237,0.0775 -0.025,0.0838 -0.02,0.0775 -0.009,0.0688 -0.0488,0.13625 -0.01,0.0538 -0.025,0.0487 -0.0187,0.0888 -0.015,0.0138 0,0.01 -0.01,0.01 0,0.0238 -0.01,0.01 c -0.77125,1.22625 -2.34875,3.37 -4.79,3.37 -2.72875,0 -2.72875,-2.56375 -2.72875,-3.2775 0,-2.33875 1.09875,-5.13625 2.21125,-8.03125 0.3175,-0.79125 0.5525,-1.3725 0.5525,-2.0175 0,-2.05 -1.73375,-3.37875 -3.75,-3.37875 -3.96,0 -5.7275,5.39625 -5.7275,6.045 0,0.5075 0.54125,0.5075 0.66875,0.5075 0.55625,0 0.59,-0.19 0.7125,-0.63375 0.9425,-3.2425 2.69,-4.82 4.21875,-4.82 0.66875,0 0.98625,0.445 0.98625,1.3825 0,0.8975 -0.3175,1.7375 -0.7025,2.63125 -2.13,5.46875 -2.13,6.61125 -2.13,7.68125 0,0.66875 0,2.495 1.45125,3.755 1.15625,0.9375 2.7,1.25375 4.08125,1.25375 2.47125,0 3.82375,-1.3475 5.1375,-2.5975 0.86375,2.53 3.505,2.5975 3.97875,2.5975 1.3525,0 2.38375,-0.78125 3.12,-2.085 0.875,-1.5425 1.41625,-3.8325 1.41625,-3.96 0,-0.5075 -0.54125,-0.5075 -0.65375,-0.5075 -0.56625,0 -0.60125,0.15625 -0.88375,1.22625 -0.455,1.86 -1.21625,4.22875 -2.87125,4.22875 -1.02125,0 -1.30375,-0.89375 -1.30375,-1.92875 0,-0.67 0.3175,-2.11 0.6,-3.14 0.25875,-1.055 0.66,-2.66625 0.86,-3.54 l 0.9075,-3.52625 c 0.23,-0.98625 0.67,-2.73375 0.67,-2.92375 0,-0.78625 -0.635,-1.26 -1.30375,-1.26 -1.45125,0 -1.73375,1.1575 -2.06625,2.41625 l -2.05,8.21875 z"
         style="fill:#000000;fill-opacity:1;fill-rule:nonzero;stroke:none"
         id="path3204" />
      <path
         inkscape:connector-curvature="0"
         d="m 763.40433,550.27462 4.01875,0 c 0.7475,0 1.255,0 1.255,-0.86 0,-0.55625 -0.5075,-0.55625 -1.16625,-0.55625 l -3.755,0 1.455,-5.84 c 0.0338,-0.205 0.12125,-0.4 0.12125,-0.55625 0,-0.7275 -0.55625,-1.27 -1.3475,-1.27 -0.98625,0 -1.57625,0.66875 -1.86,1.69875 -0.25875,0.98625 0.24875,-0.9075 -1.50875,5.9675 l -4.01375,0 c -0.7475,0 -1.26,0 -1.26,0.87375 0,0.5425 0.45375,0.5425 1.1825,0.5425 l 3.74,0 -2.325,9.32125 c -0.24875,1 -0.6,2.41625 -0.6,2.92875 0,2.335 1.9825,3.75 4.2425,3.75 4.385,0 6.87,-5.5225 6.87,-6.045 0,-0.5075 -0.5125,-0.5075 -0.63375,-0.5075 -0.46375,0 -0.5225,0.0888 -0.81625,0.7475 -1.1225,2.495 -3.14375,4.7075 -5.2975,4.7075 -0.84,0 -1.38125,-0.50875 -1.38125,-1.92875 0,-0.40625 0.15625,-1.23625 0.22375,-1.63125 l 2.85625,-11.3425 z"
         style="fill:#000000;fill-opacity:1;fill-rule:nonzero;stroke:none"
         id="path3206" />
    </g>
    <path
       id="path3208"
       style="fill:#000000;fill-opacity:1;fill-rule:nonzero;stroke:none"
       d="m 304.52558,523.34962 0.12625,-0.48375 0.0687,-0.24375 0.15125,-0.455 0.0925,-0.21875 0.0925,-0.225 0.1025,-0.205 0.1025,-0.21 0.1325,-0.205 0.1175,-0.195 0.14125,-0.18125 0.14125,-0.185 0.17125,-0.18125 0.16625,-0.15625 0.185,-0.16625 0.195,-0.15625 0.22,-0.14625 0.22,-0.14125 0.24875,-0.1275 0.24375,-0.11625 0.27375,-0.1175 0.2975,-0.1075 0.29875,-0.1025 0.33625,-0.0875 0.3425,-0.0788 0.36125,-0.0775 0.39,-0.0538 0.40125,-0.0637 0.42875,-0.0387 0.455,-0.04 0.23375,-0.0138 0.24875,0 c 0.3225,0 1.08875,-0.0637 1.08875,-1.29875 0,-0.0638 0,-0.71375 -0.83,-0.71375 -2.12875,0 -4.40375,0.205 -6.59625,0.205 -2.21125,0 -4.61375,-0.205 -6.74375,-0.205 -0.375,0 -1.15125,0 -1.15125,1.29875 0,0.71375 0.64875,0.71375 1.15125,0.71375 3.70125,0.0538 4.405,1.415 4.405,2.83125 0,0.205 -0.14125,1.1825 -0.195,1.3625 l -5.83,23.12 c -2.1825,8.6625 -9.63875,14.2825 -16.10375,14.2825 -4.39,0 -7.89625,-2.8425 -7.89625,-8.40375 0,-0.14125 0,-2.20625 0.71375,-5.04875 l 6.28375,-25.17125 c 0.57125,-2.32375 0.7125,-2.9725 5.445,-2.9725 1.66,0 2.1775,0 2.1775,-1.29875 0,-0.71375 -0.69875,-0.71375 -0.90875,-0.71375 -1.80125,0 -6.465,0.205 -8.27125,0.205 -1.87,0 -6.48,-0.205 -8.35,-0.205 -0.5225,0 -1.235,0 -1.235,1.29875 0,0.71375 0.58625,0.71375 1.83125,0.71375 0.1175,0 1.3525,0 2.45625,0.11625 1.15625,0.1425 1.7375,0.21 1.7375,1.04 0,0.40125 -0.7125,3.10125 -1.08875,4.595 l -1.44,5.68875 c -0.57125,2.53375 -3.6775,14.75625 -3.93625,15.98625 -0.45375,1.80625 -0.45375,2.78375 -0.45375,3.755 0,7.895 5.87875,12.41625 12.68625,12.41625 8.13,0 16.17125,-7.29875 18.3,-15.84375 l 5.7675,-22.97375 z"
       inkscape:connector-curvature="0" />
  </g>
</svg>
