<?xml version="1.0" encoding="UTF-8" standalone="no"?>
<!-- Created with Inkscape (http://www.inkscape.org/) -->

<svg
   xmlns:dc="http://purl.org/dc/elements/1.1/"
   xmlns:cc="http://creativecommons.org/ns#"
   xmlns:rdf="http://www.w3.org/1999/02/22-rdf-syntax-ns#"
   xmlns:svg="http://www.w3.org/2000/svg"
   xmlns="http://www.w3.org/2000/svg"
   xmlns:sodipodi="http://sodipodi.sourceforge.net/DTD/sodipodi-0.dtd"
   xmlns:inkscape="http://www.inkscape.org/namespaces/inkscape"
   width="2089.4053"
   height="764.01282"
   id="svg2"
   version="1.1"
   inkscape:version="0.48.4 r9939"
   sodipodi:docname="S-planeVsZ-plane.pdf">
  <sodipodi:namedview
     id="base"
     pagecolor="#ffffff"
     bordercolor="#666666"
     borderopacity="1.0"
     inkscape:pageopacity="0.0"
     inkscape:pageshadow="2"
     inkscape:zoom="0.35"
     inkscape:cx="1223.7731"
     inkscape:cy="373.62251"
     inkscape:document-units="px"
     inkscape:current-layer="layer1"
     showgrid="false"
     inkscape:snap-center="false"
     inkscape:snap-object-midpoints="false"
     inkscape:window-width="1221"
     inkscape:window-height="1000"
     inkscape:window-x="1425"
     inkscape:window-y="24"
     inkscape:window-maximized="1"
     fit-margin-top="0"
     fit-margin-left="0"
     fit-margin-right="0"
     fit-margin-bottom="0" />
  <defs
     id="defs4">
    <marker
       style="overflow:visible"
       id="Arrow1Lstart"
       refX="0"
       refY="0"
       orient="auto"
       inkscape:stockid="Arrow1Lstart">
      <path
         transform="matrix(0.8,0,0,0.8,10,0)"
         style="fill-rule:evenodd;stroke:#000000;stroke-width:1pt"
         d="M 0,0 5,-5 -12.5,0 5,5 0,0 z"
         id="path3939"
         inkscape:connector-curvature="0" />
    </marker>
    <marker
       style="overflow:visible"
       id="Arrow1Lend"
       refX="0"
       refY="0"
       orient="auto"
       inkscape:stockid="Arrow1Lend">
      <path
         transform="matrix(-0.8,0,0,-0.8,-10,0)"
         style="fill-rule:evenodd;stroke:#000000;stroke-width:1pt"
         d="M 0,0 5,-5 -12.5,0 5,5 0,0 z"
         id="path3942"
         inkscape:connector-curvature="0" />
    </marker>
    <marker
       style="overflow:visible"
       id="Arrow1Lend-2"
       refX="0"
       refY="0"
       orient="auto"
       inkscape:stockid="Arrow1Lend">
      <path
         transform="matrix(-0.8,0,0,-0.8,-10,0)"
         style="fill-rule:evenodd;stroke:#000000;stroke-width:1pt"
         d="M 0,0 5,-5 -12.5,0 5,5 0,0 z"
         id="path3942-0"
         inkscape:connector-curvature="0" />
    </marker>
  </defs>
  <metadata
     id="metadata7">
    <rdf:RDF>
      <cc:Work
         rdf:about="">
        <dc:format>image/svg+xml</dc:format>
        <dc:type
           rdf:resource="http://purl.org/dc/dcmitype/StillImage" />
        <dc:title></dc:title>
      </cc:Work>
    </rdf:RDF>
  </metadata>
  <g
     id="layer1"
     inkscape:groupmode="layer"
     inkscape:label="Layer 1"
     transform="translate(395.2811,-76.546347)">
    <rect
       y="231.88268"
       x="-21.960155"
       height="483.84024"
       width="262.97711"
       id="rect4391"
       style="fill:#006af0;fill-opacity:0.79237288;stroke:#000000;stroke-width:0.99999994;stroke-linecap:square;stroke-linejoin:round;stroke-miterlimit:4;stroke-opacity:1;stroke-dasharray:none;stroke-dashoffset:0" />
    <g
       id="g4381"
       transform="matrix(2.7695114,0,0,2.7686553,-276.54442,-810.71026)"
       style="stroke-width:1.48930573;stroke-miterlimit:4;stroke-dasharray:none">
      <path
         style="fill:none;stroke:#000000;stroke-width:1.80565166;stroke-linecap:butt;stroke-linejoin:miter;stroke-miterlimit:4;stroke-opacity:1;stroke-dasharray:none;marker-start:none;marker-end:url(#Arrow1Lend)"
         d="m 78.791899,458.39249 217.182801,0"
         id="path2985"
         inkscape:connector-curvature="0" />
      <path
         inkscape:connector-curvature="0"
         id="path4379"
         d="m 187.3833,566.98389 0,-217.1828"
         style="fill:none;stroke:#000000;stroke-width:1.80565166;stroke-linecap:butt;stroke-linejoin:miter;stroke-miterlimit:4;stroke-opacity:1;stroke-dasharray:none;marker-start:none;marker-end:url(#Arrow1Lend)" />
    </g>
    <path
       d="m 617.20321,458.39249 a 73.819908,73.819908 0 1 1 -147.63982,0 73.819908,73.819908 0 1 1 147.63982,0 z"
       sodipodi:ry="73.819908"
       sodipodi:rx="73.819908"
       sodipodi:cy="458.39249"
       sodipodi:cx="543.3833"
       id="path4393"
       style="fill:#006af0;fill-opacity:0.79237288;stroke:#000000;stroke-width:0.36113033;stroke-linecap:square;stroke-linejoin:round;stroke-miterlimit:4;stroke-opacity:1;stroke-dasharray:none;stroke-dashoffset:0"
       sodipodi:type="arc"
       transform="matrix(2.7695114,0,0,2.7686553,-444.83011,-810.71026)" />
    <g
       transform="matrix(2.7695114,0,0,2.7686553,541.11596,-810.71026)"
       id="g4385"
       style="stroke-width:1.48930573;stroke-miterlimit:4;stroke-dasharray:none">
      <path
         inkscape:connector-curvature="0"
         id="path4387"
         d="m 78.791899,458.39249 217.182801,0"
         style="fill:none;stroke:#000000;stroke-width:1.80565166;stroke-linecap:butt;stroke-linejoin:miter;stroke-miterlimit:4;stroke-opacity:1;stroke-dasharray:none;marker-start:none;marker-end:url(#Arrow1Lend)" />
      <path
         style="fill:none;stroke:#000000;stroke-width:1.80565166;stroke-linecap:butt;stroke-linejoin:miter;stroke-miterlimit:4;stroke-opacity:1;stroke-dasharray:none;marker-start:none;marker-end:url(#Arrow1Lend)"
         d="m 187.3833,566.98389 0,-217.1828"
         id="path4389"
         inkscape:connector-curvature="0" />
    </g>
    <g
       id="g5331"
       transform="matrix(0.82492987,0,0,0.82467489,80.64073,-16.021147)">
      <g
         word-spacing="normal"
         letter-spacing="normal"
         font-size-adjust="none"
         font-stretch="normal"
         font-weight="normal"
         font-variant="normal"
         font-style="normal"
         stroke-miterlimit="10.433"
         xml:space="preserve"
         transform="matrix(1.0629921,0,0,-1.0629921,-186.02362,789.27165)"
         id="content"
         style="font-style:normal;font-variant:normal;font-weight:normal;font-stretch:normal;letter-spacing:normal;word-spacing:normal;text-anchor:start;fill:none;stroke:#000000;stroke-width:1.21241164;stroke-linecap:butt;stroke-linejoin:miter;stroke-miterlimit:10.43299961;stroke-opacity:1;stroke-dasharray:none;stroke-dashoffset:0"><path
           id="path5334"
           d="m 465.88,415.87 0.11,-0.02 0.13,-0.02 0.14,-0.03 0.16,-0.04 0.16,-0.04 0.18,-0.04 0.19,-0.05 0.2,-0.06 0.21,-0.06 0.21,-0.07 0.21,-0.08 0.22,-0.08 0.22,-0.1 0.22,-0.1 0.22,-0.11 0.22,-0.12 0.22,-0.14 0.21,-0.14 0.2,-0.15 0.2,-0.16 0.19,-0.18 0.18,-0.19 0.17,-0.2 0.16,-0.21 0.14,-0.22 0.07,-0.12 0.06,-0.12 0.06,-0.13 0.05,-0.12 0.05,-0.14 0.05,-0.13 0.04,-0.14 0.03,-0.14 0.03,-0.15 0.03,-0.15 0.02,-0.16 0.01,-0.15 0.01,-0.17 0.01,-0.16 c 0,-2.53 -1.75,-4.53 -5.63,-4.53 -4.19,0 -5.98,2.84 -6.94,7.07 -0.14,0.64 -0.18,0.85 -0.68,0.85 -0.66,0 -0.66,-0.35 -0.66,-1.25 v -6.58 c 0,-0.84 0,-1.19 0.55,-1.19 0.25,0 0.29,0.05 1.25,1 0.09,0.1 0.09,0.19 1,1.14 2.18,-2.09 4.43,-2.14 5.48,-2.14 5.72,0 8.02,3.35 8.02,6.92 0,2.64 -1.5,4.14 -2.1,4.74 -1.64,1.59 -3.59,2 -5.68,2.39 -2.79,0.55 -6.13,1.2 -6.13,4.09 0,1.74 1.3,3.78 5.58,3.78 5.48,0 5.73,-4.48 5.83,-6.03 0.06,-0.45 0.5,-0.45 0.61,-0.45 0.64,0 0.64,0.25 0.64,1.2 v 5.03 c 0,0.85 0,1.19 -0.55,1.19 -0.25,0 -0.34,0 -1,-0.59 -0.14,-0.21 -0.64,-0.64 -0.84,-0.8 -1.89,1.39 -3.94,1.39 -4.69,1.39 -6.08,0 -7.97,-3.33 -7.97,-6.12 0,-1.74 0.8,-3.14 2.14,-4.24 1.59,-1.29 3,-1.59 6.58,-2.28 z"
           inkscape:connector-curvature="0"
           style="fill:#000000;stroke-width:0" /><polygon
           id="polygon5336"
           points="488.95,418.4 475.75,418.4 475.75,415.51 488.95,415.51 "
           style="fill:#000000;stroke-width:0" /><path
           id="path5338"
           d="m 500.32,424.93 v 3.28 l -7.17,-0.54 v -1.55 c 3.55,0 3.89,-0.3 3.89,-2.48 v -23.32 c 0,-2.25 -0.55,-2.25 -3.89,-2.25 v -1.54 c 1.7,0.06 4.28,0.15 5.58,0.15 1.34,0 3.89,-0.09 5.64,-0.15 v 1.54 c -3.35,0 -3.89,0 -3.89,2.25 v 8.36 0.46 l 0.7,0.65 c -0.7,1.05 -0.7,1.1 -0.7,2.08 h 0 V 423 c 1.43,2.53 3.89,3.98 6.42,3.98 3.64,0 6.69,-4.39 6.69,-10.02 0,-6.03 -3.5,-10.21 -7.19,-10.21 -1.99,0 -3.88,1 -5.22,3.04 l -0.7,-0.65 c 0.25,-0.8 2.34,-3.49 6.12,-3.49 5.94,0 11.11,4.88 11.11,11.31 0,6.33 -4.83,11.25 -10.41,11.25 -3.89,0 -5.98,-2.18 -6.98,-3.28 z"
           inkscape:connector-curvature="0"
           style="fill:#000000;stroke-width:0" /><path
           id="path5340"
           d="m 528.29,440.78 -7.17,-0.55 v -1.55 c 3.48,0 3.89,-0.34 3.89,-2.79 v -25.91 c 0,-2.23 -0.55,-2.23 -3.89,-2.23 v -1.55 c 1.64,0.05 4.28,0.16 5.53,0.16 1.25,0 3.69,-0.11 5.53,-0.16 v 1.55 c -3.34,0 -3.89,0 -3.89,2.23 z"
           inkscape:connector-curvature="0"
           style="fill:#000000;stroke-width:0" /><path
           id="path5342"
           d="m 549.87,409.98 0.02,-0.19 0.03,-0.18 0.03,-0.19 0.05,-0.18 0.05,-0.19 0.05,-0.18 0.06,-0.18 0.07,-0.18 0.08,-0.18 0.08,-0.17 0.09,-0.18 0.09,-0.16 0.1,-0.16 0.11,-0.16 0.11,-0.16 0.12,-0.14 0.13,-0.14 0.13,-0.14 0.14,-0.13 0.14,-0.12 0.15,-0.12 0.16,-0.1 0.16,-0.1 0.17,-0.09 0.17,-0.08 0.19,-0.07 0.18,-0.06 0.2,-0.05 0.2,-0.04 0.2,-0.03 0.21,-0.02 0.22,-0.01 c 1.03,0 4.08,0.71 4.08,4.74 v 2.78 h -1.25 v -2.78 c 0,-2.89 -1.24,-3.19 -1.8,-3.19 -1.64,0 -1.84,2.23 -1.84,2.48 v 9.97 c 0,2.1 0,4.03 -1.79,5.88 -1.95,1.93 -4.43,2.73 -6.82,2.73 -4.1,0 -7.54,-2.33 -7.54,-5.62 0,-1.49 1,-2.35 2.3,-2.35 1.39,0 2.3,1 2.3,2.3 0,0.59 -0.25,2.23 -2.55,2.3 1.35,1.73 3.78,2.28 5.38,2.28 2.45,0 5.28,-1.94 5.28,-6.38 v -1.84 -1.05 -4.98 c 0,-4.74 -3.58,-6.42 -5.83,-6.42 -2.44,0 -4.48,1.75 -4.48,4.23 0,2.73 2.09,6.88 10.31,7.17 h 0 v 1.05 c -2.53,-0.14 -6.02,-0.3 -9.16,-1.8 -3.73,-1.69 -4.98,-4.28 -4.98,-6.47 0,-4.03 4.83,-5.28 7.97,-5.28 3.29,0 5.57,1.99 6.53,4.33 z"
           inkscape:connector-curvature="0"
           style="fill:#000000;stroke-width:0" /><path
           id="path5344"
           d="m 563.72,423.34 v -13.36 c 0,-2.23 -0.55,-2.23 -3.9,-2.23 v -1.55 c 1.75,0.05 4.28,0.16 5.63,0.16 1.3,0 3.89,-0.11 5.58,-0.16 v 1.55 c -3.33,0 -3.88,0 -3.88,2.23 v 9.17 c 0,5.19 3.53,7.97 6.72,7.97 3.14,0 3.69,-2.69 3.69,-5.53 v -11.61 c 0,-2.23 -0.55,-2.23 -3.89,-2.23 v -1.55 c 1.75,0.05 4.3,0.16 5.64,0.16 1.29,0 3.87,-0.11 5.58,-0.16 v 1.55 c -2.6,0 -3.85,0 -3.89,1.5 v 9.51 c 0,4.28 0,5.83 -1.55,7.61 -0.69,0.86 -2.35,1.84 -5.22,1.84 -3.64,0 -5.98,-2.14 -7.38,-5.21 v 5.21 l -7.03,-0.54 v -1.55 c 3.49,0 3.9,-0.34 3.9,-2.78 z"
           inkscape:connector-curvature="0"
           style="fill:#000000;stroke-width:0" /><path
           id="path5346"
           d="m 591.48,417.71 0.05,1.05 c 0.29,7.42 4.48,8.66 6.19,8.66 5.12,0 5.62,-6.72 5.62,-8.66 h -11.81 l -0.05,-1.05 h 13.91 c 1.09,0 1.23,0 1.23,1.05 0,4.92 -2.69,9.75 -8.9,9.75 -5.79,0 -10.38,-5.12 -10.38,-11.36 0,-6.67 5.23,-11.5 10.97,-11.5 6.08,0 8.31,5.53 8.31,6.47 0,0.5 -0.39,0.61 -0.64,0.61 -0.45,0 -0.55,-0.3 -0.66,-0.7 -1.73,-5.13 -6.22,-5.13 -6.72,-5.13 -2.5,0 -4.48,1.49 -5.62,3.33 -1.5,2.39 -1.5,5.69 -1.5,7.48 z"
           inkscape:connector-curvature="0"
           style="fill:#000000;stroke-width:0" /></g>    </g>
    <g
       id="g5708"
       transform="matrix(0.82492987,0,0,0.82467489,505.57855,-21.917705)">
      <g
         word-spacing="normal"
         letter-spacing="normal"
         font-size-adjust="none"
         font-stretch="normal"
         font-weight="normal"
         font-variant="normal"
         font-style="normal"
         stroke-miterlimit="10.433"
         xml:space="preserve"
         transform="matrix(1.0629921,0,0,-1.0629921,-186.02362,789.27165)"
         id="g5710"
         style="font-style:normal;font-variant:normal;font-weight:normal;font-stretch:normal;letter-spacing:normal;word-spacing:normal;text-anchor:start;fill:none;stroke:#000000;stroke-width:1.21241164;stroke-linecap:butt;stroke-linejoin:miter;stroke-miterlimit:10.43299961;stroke-opacity:1;stroke-dasharray:none;stroke-dashoffset:0"><path
           id="path5712"
           d="m 474.96,426.18 0.02,0.03 0.02,0.02 0.02,0.03 0.01,0.02 0.02,0.02 0.02,0.03 0.02,0.02 0.01,0.02 0.02,0.02 0.01,0.02 0.02,0.02 0.01,0.02 0.01,0.02 0.02,0.01 0.02,0.04 0.02,0.03 0.02,0.03 0.02,0.03 0.02,0.03 0.01,0.02 0.02,0.03 0.01,0.02 0.01,0.02 0.01,0.03 0.01,0.02 0.01,0.02 0,0.02 0.01,0.01 0,0.02 0.01,0.02 0,0.02 0,0.03 0,0.03 0,0.04 0,0.04 c 0,0.64 -0.39,0.64 -1.29,0.64 h -15.94 l -0.55,-8.02 h 1.25 c 0.3,5.08 1.24,6.92 6.72,6.92 h 5.69 l -13.91,-18.78 c -0.45,-0.54 -0.45,-0.64 -0.45,-0.89 0,-0.7 0.36,-0.7 1.3,-0.7 h 16.43 l 0.86,9.31 h -1.25 c -0.45,-5.87 -1.5,-8.06 -7.28,-8.06 h -5.87 z"
           inkscape:connector-curvature="0"
           style="fill:#000000;stroke-width:0" /><polygon
           id="polygon5714"
           points="478.14,415.51 491.35,415.51 491.35,418.4 478.14,418.4 "
           style="fill:#000000;stroke-width:0" /><path
           id="path5716"
           d="m 502.72,424.93 v 3.28 l -7.17,-0.54 v -1.55 c 3.54,0 3.89,-0.3 3.89,-2.48 v -23.32 c 0,-2.25 -0.55,-2.25 -3.89,-2.25 v -1.54 c 1.7,0.06 4.28,0.15 5.57,0.15 1.35,0 3.9,-0.09 5.65,-0.15 v 1.54 c -3.35,0 -3.89,0 -3.89,2.25 v 8.36 0.46 l 0.7,0.65 c -0.7,1.05 -0.7,1.1 -0.7,2.08 h 0 V 423 c 1.43,2.53 3.89,3.98 6.42,3.98 3.64,0 6.68,-4.39 6.68,-10.02 0,-6.03 -3.5,-10.21 -7.18,-10.21 -1.99,0 -3.88,1 -5.22,3.04 l -0.7,-0.65 c 0.24,-0.8 2.34,-3.49 6.12,-3.49 5.94,0 11.11,4.88 11.11,11.31 0,6.33 -4.83,11.25 -10.41,11.25 -3.89,0 -5.98,-2.18 -6.98,-3.28 z"
           inkscape:connector-curvature="0"
           style="fill:#000000;stroke-width:0" /><path
           id="path5718"
           d="m 530.69,440.78 -7.17,-0.55 v -1.55 c 3.48,0 3.89,-0.34 3.89,-2.79 v -25.91 c 0,-2.23 -0.55,-2.23 -3.89,-2.23 v -1.55 c 1.64,0.05 4.28,0.16 5.53,0.16 1.25,0 3.68,-0.11 5.53,-0.16 v 1.55 c -3.35,0 -3.89,0 -3.89,2.23 z"
           inkscape:connector-curvature="0"
           style="fill:#000000;stroke-width:0" /><path
           id="path5720"
           d="m 552.27,409.98 0.02,-0.19 0.03,-0.18 0.03,-0.19 0.05,-0.18 0.04,-0.19 0.06,-0.18 0.06,-0.18 0.07,-0.18 0.07,-0.18 0.09,-0.17 0.08,-0.18 0.1,-0.16 0.1,-0.16 0.11,-0.16 0.11,-0.16 0.12,-0.14 0.12,-0.14 0.14,-0.14 0.13,-0.13 0.15,-0.12 0.15,-0.12 0.16,-0.1 0.16,-0.1 0.17,-0.09 0.17,-0.08 0.18,-0.07 0.19,-0.06 0.19,-0.05 0.2,-0.04 0.21,-0.03 0.21,-0.02 0.22,-0.01 c 1.03,0 4.07,0.71 4.07,4.74 v 2.78 h -1.25 v -2.78 c 0,-2.89 -1.23,-3.19 -1.79,-3.19 -1.64,0 -1.85,2.23 -1.85,2.48 v 9.97 c 0,2.1 0,4.03 -1.78,5.88 -1.95,1.93 -4.44,2.73 -6.83,2.73 -4.09,0 -7.53,-2.33 -7.53,-5.62 0,-1.49 1,-2.35 2.3,-2.35 1.39,0 2.3,1 2.3,2.3 0,0.59 -0.25,2.23 -2.55,2.3 1.34,1.73 3.78,2.28 5.37,2.28 2.46,0 5.29,-1.94 5.29,-6.38 v -1.84 -1.05 -4.98 c 0,-4.74 -3.58,-6.42 -5.83,-6.42 -2.44,0 -4.49,1.75 -4.49,4.23 0,2.73 2.1,6.88 10.32,7.17 h 0 v 1.05 c -2.53,-0.14 -6.02,-0.3 -9.16,-1.8 -3.73,-1.69 -4.98,-4.28 -4.98,-6.47 0,-4.03 4.82,-5.28 7.96,-5.28 3.3,0 5.58,1.99 6.54,4.33 z"
           inkscape:connector-curvature="0"
           style="fill:#000000;stroke-width:0" /><path
           id="path5722"
           d="m 566.11,423.34 v -13.36 c 0,-2.23 -0.54,-2.23 -3.89,-2.23 v -1.55 c 1.75,0.05 4.28,0.16 5.63,0.16 1.3,0 3.89,-0.11 5.58,-0.16 v 1.55 c -3.33,0 -3.88,0 -3.88,2.23 v 9.17 c 0,5.19 3.53,7.97 6.72,7.97 3.14,0 3.69,-2.69 3.69,-5.53 v -11.61 c 0,-2.23 -0.55,-2.23 -3.89,-2.23 v -1.55 c 1.75,0.05 4.29,0.16 5.64,0.16 1.29,0 3.87,-0.11 5.57,-0.16 v 1.55 c -2.59,0 -3.84,0 -3.88,1.5 v 9.51 c 0,4.28 0,5.83 -1.55,7.61 -0.69,0.86 -2.35,1.84 -5.22,1.84 -3.64,0 -5.98,-2.14 -7.38,-5.21 v 5.21 l -7.03,-0.54 v -1.55 c 3.49,0 3.89,-0.34 3.89,-2.78 z"
           inkscape:connector-curvature="0"
           style="fill:#000000;stroke-width:0" /><path
           id="path5724"
           d="m 593.88,417.71 0.05,1.05 c 0.29,7.42 4.48,8.66 6.18,8.66 5.13,0 5.63,-6.72 5.63,-8.66 h -11.81 l -0.05,-1.05 h 13.9 c 1.1,0 1.24,0 1.24,1.05 0,4.92 -2.69,9.75 -8.91,9.75 -5.78,0 -10.37,-5.12 -10.37,-11.36 0,-6.67 5.23,-11.5 10.97,-11.5 6.07,0 8.31,5.53 8.31,6.47 0,0.5 -0.39,0.61 -0.64,0.61 -0.45,0 -0.55,-0.3 -0.66,-0.7 -1.73,-5.13 -6.22,-5.13 -6.72,-5.13 -2.5,0 -4.48,1.49 -5.62,3.33 -1.5,2.39 -1.5,5.69 -1.5,7.48 z"
           inkscape:connector-curvature="0"
           style="fill:#000000;stroke-width:0" /></g>    </g>
    <g
       id="g6018"
       transform="matrix(0.82492987,0,0,0.82467489,1023.8149,209.92243)">
      <g
         word-spacing="normal"
         letter-spacing="normal"
         font-size-adjust="none"
         font-stretch="normal"
         font-weight="normal"
         font-variant="normal"
         font-style="normal"
         stroke-miterlimit="10.433"
         xml:space="preserve"
         transform="matrix(1.0629921,0,0,-1.0629921,-186.02362,789.27165)"
         id="g6020"
         style="font-style:normal;font-variant:normal;font-weight:normal;font-stretch:normal;letter-spacing:normal;word-spacing:normal;text-anchor:start;fill:none;stroke:#000000;stroke-width:1.21241164;stroke-linecap:butt;stroke-linejoin:miter;stroke-miterlimit:10.43299961;stroke-opacity:1;stroke-dasharray:none;stroke-dashoffset:0"><path
           id="path6022"
           d="m 470.16,438.09 0,0.05 0,0.06 0,0.05 0,0.05 0,0.05 0,0.05 0,0.04 0,0.05 0,0.04 0,0.04 -0.01,0.04 0,0.04 0,0.04 0,0.03 0,0.04 -0.01,0.03 -0.01,0.07 0,0.06 -0.02,0.05 -0.01,0.05 -0.02,0.05 -0.02,0.04 -0.02,0.04 -0.02,0.03 -0.03,0.03 -0.03,0.03 -0.04,0.03 -0.04,0.02 -0.04,0.02 -0.03,0.01 -0.02,0.01 -0.03,0 -0.02,0.01 -0.03,0.01 -0.03,0 -0.03,0.01 -0.03,0 -0.04,0.01 -0.03,0 -0.04,0 -0.03,0.01 -0.04,0 -0.04,0 -0.05,0 -0.04,0 -0.04,0 -0.05,0.01 -0.05,0 -0.05,0 -0.05,0 -0.05,0 c -3.09,-3.19 -7.47,-3.19 -9.06,-3.19 v -1.55 c 1,0 3.93,0 6.51,1.3 v -25.81 c 0,-1.8 -0.14,-2.39 -4.62,-2.39 h -1.6 v -1.55 c 1.75,0.16 6.08,0.16 8.07,0.16 2,0 6.32,0 8.07,-0.16 v 1.55 h -1.59 c -4.48,0 -4.64,0.54 -4.64,2.39 z"
           inkscape:connector-curvature="0"
           style="fill:#000000;stroke-width:0" /></g>    </g>
    <g
       transform="matrix(0.82492987,0,0,0.82467489,251.54585,-494.52039)"
       id="g7162">
      <g
         style="font-style:normal;font-variant:normal;font-weight:normal;font-stretch:normal;letter-spacing:normal;word-spacing:normal;text-anchor:start;fill:none;stroke:#000000;stroke-width:1.21241164;stroke-linecap:butt;stroke-linejoin:miter;stroke-miterlimit:10.43299961;stroke-opacity:1;stroke-dasharray:none;stroke-dashoffset:0"
         id="g7164"
         transform="matrix(1.1102271,0,0,-1.1102271,-194.28975,1572.2261)"
         xml:space="preserve"
         stroke-miterlimit="10.433"
         font-style="normal"
         font-variant="normal"
         font-weight="normal"
         font-stretch="normal"
         font-size-adjust="none"
         letter-spacing="normal"
         word-spacing="normal"><path
           style="fill:#000000;stroke-width:0"
           inkscape:connector-curvature="0"
           d="m 481.33,424.78 0.07,0 0.07,0 0.07,0 0.08,0 0.09,0 0.09,0.01 0.09,0 0.09,0.01 0.1,0.01 0.1,0.02 0.1,0.02 0.11,0.02 0.1,0.02 0.1,0.03 0.1,0.03 0.1,0.04 0.1,0.04 0.1,0.05 0.09,0.05 0.09,0.06 0.08,0.07 0.08,0.07 0.04,0.04 0.04,0.04 0.03,0.04 0.04,0.05 0.03,0.04 0.03,0.05 0.03,0.05 0.03,0.05 0.03,0.05 0.02,0.06 0.02,0.06 0.02,0.06 0.02,0.06 0.02,0.06 0.01,0.07 0.01,0.07 0.01,0.07 0,0.08 0.01,0.07 0,0.08 c 0,1.19 -1.05,1.19 -1.94,1.19 h -11.36 c -7.53,0 -13.06,-8.22 -13.06,-14.14 0,-4.39 2.94,-7.88 7.47,-7.88 l 0.06,1.1 c -2.45,0 -4.44,1.79 -4.44,5.37 0,1.5 0.6,5.59 2.35,8.53 2.09,3.44 5.08,4.13 6.76,4.13 4.19,0 4.6,-3.28 4.6,-4.83 0,-2.34 -1,-6.42 -2.69,-8.97 -1.95,-2.94 -4.64,-4.23 -6.58,-4.23 h 0 l -0.06,-1.1 c 5.89,0 12.51,6.03 12.51,13.71 0,0.84 0,3.23 -1.54,5.42 z"
           id="path7166" /></g>    </g>
    <path
       inkscape:connector-curvature="0"
       id="path7269"
       d="m 1286.1295,249.65892 -70.7083,73.04265"
       style="fill:none;stroke:#000000;stroke-width:2.5;stroke-linecap:butt;stroke-linejoin:miter;stroke-miterlimit:4;stroke-opacity:1;stroke-dasharray:none;marker-start:none;marker-end:url(#Arrow1Lend)" />
    <g
       transform="matrix(0.82492987,0,0,0.82467489,15.851594,-725.42937)"
       id="g7955">
      <g
         style="font-style:normal;font-variant:normal;font-weight:normal;font-stretch:normal;letter-spacing:normal;word-spacing:normal;text-anchor:start;fill:none;stroke:#000000;stroke-width:1.21241164;stroke-linecap:butt;stroke-linejoin:miter;stroke-miterlimit:10.43299961;stroke-opacity:1;stroke-dasharray:none;stroke-dashoffset:0"
         id="g7957"
         transform="matrix(1.1102271,0,0,-1.1102271,-194.28975,1572.2261)"
         xml:space="preserve"
         stroke-miterlimit="10.433"
         font-style="normal"
         font-variant="normal"
         font-weight="normal"
         font-stretch="normal"
         font-size-adjust="none"
         letter-spacing="normal"
         word-spacing="normal"><path
           style="fill:#000000;stroke-width:0"
           inkscape:connector-curvature="0"
           d="m 475.3,437.34 0,0.09 -0.01,0.08 -0.01,0.09 -0.01,0.09 -0.02,0.08 -0.02,0.08 -0.03,0.09 -0.03,0.08 -0.03,0.07 -0.04,0.08 -0.04,0.08 -0.04,0.07 -0.05,0.07 -0.05,0.07 -0.06,0.07 -0.06,0.06 -0.06,0.06 -0.07,0.06 -0.07,0.05 -0.07,0.06 -0.08,0.04 -0.07,0.05 -0.09,0.04 -0.08,0.04 -0.09,0.03 -0.09,0.03 -0.1,0.03 -0.1,0.02 -0.1,0.01 -0.1,0.02 -0.11,0 -0.11,0.01 c -1.16,0 -2.64,-1.16 -2.64,-2.64 0,-1 0.69,-1.8 1.84,-1.8 1.35,0 2.69,1.3 2.69,2.64 z"
           id="path7959" /><path
           style="fill:#000000;stroke-width:0"
           inkscape:connector-curvature="0"
           d="m 465.29,403.71 -0.1,-0.35 -0.1,-0.35 -0.11,-0.34 -0.12,-0.33 -0.12,-0.33 -0.14,-0.32 -0.14,-0.31 -0.14,-0.3 -0.16,-0.3 -0.16,-0.29 -0.16,-0.28 -0.18,-0.26 -0.18,-0.26 -0.18,-0.25 -0.2,-0.24 -0.19,-0.23 -0.2,-0.22 -0.21,-0.2 -0.21,-0.19 -0.22,-0.19 -0.22,-0.16 -0.23,-0.16 -0.23,-0.14 -0.23,-0.13 -0.24,-0.12 -0.24,-0.1 -0.25,-0.08 -0.25,-0.08 -0.25,-0.05 -0.25,-0.04 -0.26,-0.03 -0.26,-0.01 c -0.3,0 -1.05,0 -1.95,0.46 1.5,0.36 2.25,1.64 2.25,2.64 0,0.79 -0.55,1.75 -1.89,1.75 -1.25,0 -2.69,-1.05 -2.69,-2.85 0,-2 1.98,-3.09 4.37,-3.09 3.49,0 8.13,2.64 9.38,7.58 l 4.58,18.23 c 0.25,1 0.25,1.69 0.25,1.85 0,2.84 -2.1,4.57 -4.58,4.57 -5.09,0 -7.92,-7.21 -7.92,-7.67 0,-0.5 0.48,-0.5 0.59,-0.5 0.45,0 0.5,0.07 0.89,1 1.25,3.05 3.55,6.08 6.28,6.08 0.71,0 1.6,-0.2 1.6,-2.28 0,-1.16 -0.16,-1.7 -0.35,-2.55 z"
           id="path7961" /><path
           style="fill:#000000;stroke-width:0"
           inkscape:connector-curvature="0"
           d="m 512.65,414.28 h -1.25 c -0.25,-1.3 -0.45,-2.46 -0.89,-3.64 -0.25,-0.8 -0.4,-1.21 -3.3,-1.21 h -3.98 c 0.64,2.8 2.19,5.19 4.44,8.47 2.34,3.55 4.37,6.99 4.37,10.92 0,6.93 -6.72,12.5 -15.14,12.5 -8.56,0 -15.19,-5.68 -15.19,-12.5 0,-3.93 2.04,-7.37 4.38,-10.92 2.19,-3.28 3.78,-5.67 4.44,-8.47 h -3.99 c -2.89,0 -3.04,0.41 -3.29,1.16 -0.39,1.14 -0.64,2.44 -0.89,3.69 h -1.25 l 1.65,-8.08 h 7.97 c 1.09,0 1.23,0 1.23,1.05 0,3.48 -1.53,7.87 -2.68,11.06 -1.05,2.89 -2.44,6.83 -2.44,10.56 0,7.97 5.48,11.36 10.02,11.36 4.78,0 10.06,-3.59 10.06,-11.36 0,-3.73 -1.35,-7.53 -2.8,-11.61 -0.73,-2.09 -2.33,-6.58 -2.33,-10.01 0,-1.05 0.14,-1.05 1.28,-1.05 H 511 z"
           id="path7963" /></g>    </g>
    <g
       id="g8167"
       transform="matrix(0.82492987,0,0,0.82467489,1032.4009,-683.01752)">
      <g
         word-spacing="normal"
         letter-spacing="normal"
         font-size-adjust="none"
         font-stretch="normal"
         font-weight="normal"
         font-variant="normal"
         font-style="normal"
         stroke-miterlimit="10.433"
         xml:space="preserve"
         transform="matrix(1.1102271,0,0,-1.1102271,-194.28975,1572.2261)"
         id="g8169"
         style="font-style:normal;font-variant:normal;font-weight:normal;font-stretch:normal;letter-spacing:normal;word-spacing:normal;text-anchor:start;fill:none;stroke:#000000;stroke-width:1.21241164;stroke-linecap:butt;stroke-linejoin:miter;stroke-miterlimit:10.43299961;stroke-opacity:1;stroke-dasharray:none;stroke-dashoffset:0"><path
           id="path8171"
           d="m 475,424.84 -0.13,-0.01 -0.12,-0.01 -0.13,-0.02 -0.12,-0.03 -0.12,-0.03 -0.12,-0.04 -0.11,-0.04 -0.11,-0.04 -0.11,-0.05 -0.1,-0.06 -0.1,-0.06 -0.1,-0.06 -0.09,-0.07 -0.09,-0.07 -0.09,-0.07 -0.08,-0.08 -0.08,-0.08 -0.07,-0.08 -0.07,-0.09 -0.06,-0.08 -0.06,-0.09 -0.06,-0.1 -0.05,-0.09 -0.04,-0.1 -0.04,-0.09 -0.04,-0.1 -0.03,-0.1 -0.02,-0.1 -0.02,-0.1 -0.02,-0.11 0,-0.1 -0.01,-0.1 c 0,-0.7 0.44,-1.44 1.55,-1.44 1.09,0 2.28,0.85 2.28,2.78 0,2.25 -2.14,4.28 -5.92,4.28 -6.58,0 -8.42,-5.07 -8.42,-7.26 0,-3.89 3.69,-4.64 5.12,-4.94 2.6,-0.5 5.19,-1.05 5.19,-3.78 0,-1.3 -1.14,-5.48 -7.12,-5.48 -0.71,0 -4.54,0 -5.69,2.64 1.9,-0.25 3.14,1.25 3.14,2.64 0,1.14 -0.8,1.75 -1.85,1.75 -1.29,0 -2.78,-1.05 -2.78,-3.3 0,-2.84 2.85,-4.83 7.13,-4.83 8.06,0 10.01,6.03 10.01,8.27 0,1.79 -0.95,3.04 -1.54,3.64 -1.35,1.39 -2.8,1.64 -4.99,2.09 -1.79,0.39 -3.78,0.75 -3.78,2.99 0,1.45 1.19,4.48 5.58,4.48 1.23,0 3.73,-0.34 4.48,-2.28 z"
           inkscape:connector-curvature="0"
           style="fill:#000000;stroke-width:0" /><path
           id="path8173"
           d="m 526.95,422.5 0.14,0 0.15,0 0.14,0 0.07,0.01 0.08,0 0.07,0.01 0.07,0.01 0.07,0.01 0.07,0.01 0.07,0.01 0.06,0.02 0.07,0.02 0.06,0.02 0.06,0.02 0.06,0.03 0.06,0.03 0.05,0.04 0.05,0.03 0.05,0.05 0.04,0.04 0.04,0.05 0.02,0.03 0.02,0.03 0.01,0.02 0.02,0.03 0.01,0.03 0.02,0.04 0.01,0.03 0.01,0.04 0.01,0.03 0.01,0.04 0,0.04 0.01,0.04 0,0.04 0.01,0.04 0,0.04 0,0.05 c 0,1 -0.95,1 -1.64,1 h -29.84 c -0.71,0 -1.64,0 -1.64,-1 0,-0.98 0.93,-0.98 1.68,-0.98 z"
           inkscape:connector-curvature="0"
           style="fill:#000000;stroke-width:0" /><path
           id="path8175"
           d="m 527,412.82 0.07,0 0.06,0 0.14,0.01 0.14,0 0.07,0 0.07,0.01 0.07,0.01 0.07,0 0.06,0.01 0.07,0.02 0.07,0.01 0.06,0.02 0.07,0.02 0.06,0.02 0.06,0.02 0.06,0.03 0.05,0.03 0.05,0.04 0.05,0.04 0.05,0.04 0.04,0.05 0.02,0.02 0.02,0.03 0.02,0.02 0.02,0.03 0.01,0.03 0.02,0.03 0.01,0.03 0.02,0.03 0.01,0.04 0.01,0.03 0.01,0.04 0.01,0.04 0,0.04 0.01,0.04 0,0.04 0.01,0.04 0,0.05 0,0.04 c 0,1 -0.95,1 -1.69,1 H 497.2 c -0.75,0 -1.68,0 -1.68,-1 0,-1 0.93,-1 1.64,-1 z"
           inkscape:connector-curvature="0"
           style="fill:#000000;stroke-width:0" /><path
           id="path8177"
           d="m 565.06,437.34 0,0.09 -0.01,0.08 -0.01,0.09 -0.01,0.09 -0.02,0.08 -0.02,0.08 -0.03,0.09 -0.03,0.08 -0.03,0.07 -0.04,0.08 -0.04,0.08 -0.05,0.07 -0.04,0.07 -0.06,0.07 -0.05,0.07 -0.06,0.06 -0.06,0.06 -0.07,0.06 -0.07,0.05 -0.07,0.06 -0.08,0.04 -0.08,0.05 -0.08,0.04 -0.09,0.04 -0.08,0.03 -0.1,0.03 -0.09,0.03 -0.1,0.02 -0.1,0.01 -0.11,0.02 -0.1,0 -0.11,0.01 c -1.16,0 -2.64,-1.16 -2.64,-2.64 0,-1 0.69,-1.8 1.84,-1.8 1.35,0 2.69,1.3 2.69,2.64 z"
           inkscape:connector-curvature="0"
           style="fill:#000000;stroke-width:0" /><path
           id="path8179"
           d="m 555.04,403.71 -0.09,-0.35 -0.1,-0.35 -0.11,-0.34 -0.12,-0.33 -0.13,-0.33 -0.13,-0.32 -0.14,-0.31 -0.14,-0.3 -0.16,-0.3 -0.16,-0.29 -0.17,-0.28 -0.17,-0.26 -0.18,-0.26 -0.19,-0.25 -0.19,-0.24 -0.19,-0.23 -0.21,-0.22 -0.2,-0.2 -0.22,-0.19 -0.21,-0.19 -0.22,-0.16 -0.23,-0.16 -0.23,-0.14 -0.24,-0.13 -0.23,-0.12 -0.25,-0.1 -0.24,-0.08 -0.25,-0.08 -0.25,-0.05 -0.26,-0.04 -0.25,-0.03 -0.26,-0.01 c -0.3,0 -1.05,0 -1.95,0.46 1.5,0.36 2.25,1.64 2.25,2.64 0,0.79 -0.55,1.75 -1.9,1.75 -1.25,0 -2.68,-1.05 -2.68,-2.85 0,-2 1.98,-3.09 4.37,-3.09 3.49,0 8.13,2.64 9.38,7.58 l 4.58,18.23 c 0.25,1 0.25,1.69 0.25,1.85 0,2.84 -2.1,4.57 -4.58,4.57 -5.1,0 -7.92,-7.21 -7.92,-7.67 0,-0.5 0.48,-0.5 0.59,-0.5 0.45,0 0.5,0.07 0.89,1 1.25,3.05 3.55,6.08 6.28,6.08 0.7,0 1.59,-0.2 1.59,-2.28 0,-1.16 -0.15,-1.7 -0.34,-2.55 z"
           inkscape:connector-curvature="0"
           style="fill:#000000;stroke-width:0" /><path
           id="path8181"
           d="m 602.41,414.28 h -1.25 c -0.25,-1.3 -0.45,-2.46 -0.89,-3.64 -0.25,-0.8 -0.41,-1.21 -3.3,-1.21 h -3.98 c 0.64,2.8 2.19,5.19 4.44,8.47 2.34,3.55 4.37,6.99 4.37,10.92 0,6.93 -6.72,12.5 -15.14,12.5 -8.56,0 -15.19,-5.68 -15.19,-12.5 0,-3.93 2.03,-7.37 4.38,-10.92 2.18,-3.28 3.78,-5.67 4.43,-8.47 h -3.98 c -2.89,0 -3.05,0.41 -3.3,1.16 -0.39,1.14 -0.64,2.44 -0.89,3.69 h -1.25 l 1.66,-8.08 h 7.97 c 1.09,0 1.23,0 1.23,1.05 0,3.48 -1.53,7.87 -2.69,11.06 -1.04,2.89 -2.43,6.83 -2.43,10.56 0,7.97 5.48,11.36 10.01,11.36 4.79,0 10.07,-3.59 10.07,-11.36 0,-3.73 -1.35,-7.53 -2.8,-11.61 -0.73,-2.09 -2.33,-6.58 -2.33,-10.01 0,-1.05 0.14,-1.05 1.28,-1.05 h 7.92 z"
           inkscape:connector-curvature="0"
           style="fill:#000000;stroke-width:0" /></g>    </g>
    <g
       id="g8384"
       transform="matrix(0.82492987,0,0,0.82467489,828.99677,-730.14179)">
      <g
         id="g8386"
         transform="matrix(1.1102271,0,0,-1.1102271,-194.28975,1572.2261)"
         xml:space="preserve"
         stroke-miterlimit="10.433"
         font-style="normal"
         font-variant="normal"
         font-weight="normal"
         font-stretch="normal"
         font-size-adjust="none"
         letter-spacing="normal"
         word-spacing="normal"
         style="font-style:normal;font-variant:normal;font-weight:normal;font-stretch:normal;letter-spacing:normal;word-spacing:normal;text-anchor:start;fill:none;stroke:#000000;stroke-width:1.21241164;stroke-linecap:butt;stroke-linejoin:miter;stroke-miterlimit:10.43299961;stroke-opacity:1;stroke-dasharray:none;stroke-dashoffset:0"><path
           d="m 474.16,436.39 0.04,0.16 0.04,0.16 0.04,0.15 0.04,0.14 0.04,0.14 0.04,0.13 0.05,0.12 0.05,0.11 0.05,0.11 0.06,0.11 0.07,0.09 0.07,0.09 0.08,0.09 0.08,0.08 0.1,0.07 0.1,0.07 0.12,0.06 0.12,0.06 0.14,0.05 0.15,0.05 0.17,0.04 0.08,0.02 0.09,0.02 0.1,0.02 0.1,0.02 0.1,0.01 0.1,0.02 0.11,0.01 0.12,0.01 0.12,0.02 0.12,0.01 0.13,0.01 0.13,0 0.13,0.01 0.14,0.01 0.15,0.01 0.15,0 0.16,0 0.16,0.01 0.16,0 0.17,0 0.18,0 0.18,0 c 1.19,0 1.6,0 1.6,0.96 0,0.59 -0.55,0.59 -0.75,0.59 -1.46,0 -5.15,-0.16 -6.58,-0.16 -1.5,0 -5.13,0.16 -6.63,0.16 -0.34,0 -1,0 -1,-1 0,-0.55 0.46,-0.55 1.39,-0.55 2.1,0 3.44,0 3.44,-0.95 0,-0.25 0,-0.34 -0.09,-0.8 l -6.72,-26.84 c -0.46,-1.84 -0.61,-2.34 -4.55,-2.34 -1.14,0 -1.59,0 -1.59,-1 0,-0.55 0.61,-0.55 0.75,-0.55 1.45,0 5.08,0.16 6.53,0.16 1.5,0 5.19,-0.16 6.67,-0.16 0.41,0 1,0 1,0.95 0,0.6 -0.41,0.6 -1.5,0.6 -0.89,0 -1.14,0 -2.14,0.09 -1.05,0.11 -1.23,0.3 -1.23,0.84 0,0.41 0.09,0.8 0.18,1.16 z"
           id="path8388"
           inkscape:connector-curvature="0"
           style="fill:#000000;stroke-width:0" /><path
           d="m 485.71,409.14 -0.01,-0.07 -0.02,-0.08 -0.02,-0.07 -0.01,-0.08 -0.04,-0.16 -0.04,-0.16 -0.03,-0.16 -0.04,-0.16 -0.04,-0.16 -0.03,-0.16 -0.02,-0.08 -0.02,-0.07 -0.01,-0.07 -0.02,-0.07 -0.01,-0.07 -0.02,-0.07 -0.01,-0.06 -0.01,-0.06 -0.01,-0.06 -0.01,-0.05 -0.01,-0.05 -0.01,-0.04 0,-0.04 -0.01,-0.04 0,-0.03 0,-0.02 c 0,-0.89 0.7,-1.35 1.44,-1.35 0.6,0 1.5,0.39 1.84,1.39 0.06,0.11 0.66,2.44 0.95,3.69 l 1.1,4.48 c 0.29,1.1 0.59,2.19 0.84,3.35 0.2,0.84 0.61,2.28 0.66,2.48 0.75,1.55 3.39,6.08 8.11,6.08 2.25,0 2.7,-1.84 2.7,-3.48 0,-1.25 -0.36,-2.64 -0.75,-4.14 l -1.39,-5.79 -1,-3.78 c -0.21,-1 -0.66,-2.68 -0.66,-2.93 0,-0.89 0.7,-1.35 1.45,-1.35 1.55,0 1.85,1.25 2.24,2.85 0.7,2.78 2.55,10.06 3,12 0.14,0.65 2.78,6.62 8.22,6.62 2.14,0 2.69,-1.69 2.69,-3.48 0,-2.85 -2.1,-8.52 -3.1,-11.16 -0.45,-1.2 -0.64,-1.75 -0.64,-2.75 0,-2.33 1.74,-4.08 4.08,-4.08 4.69,0 6.53,7.27 6.53,7.67 0,0.5 -0.45,0.5 -0.59,0.5 -0.5,0 -0.5,-0.15 -0.75,-0.9 -0.75,-2.64 -2.35,-6.17 -5.08,-6.17 -0.86,0 -1.2,0.5 -1.2,1.64 0,1.25 0.45,2.45 0.89,3.54 0.95,2.58 3.04,8.11 3.04,10.96 0,3.23 -2,5.32 -5.73,5.32 -3.74,0 -6.27,-2.18 -8.11,-4.82 -0.06,0.65 -0.2,2.34 -1.61,3.53 -1.23,1.04 -2.83,1.29 -4.08,1.29 -4.48,0 -6.92,-3.18 -7.76,-4.32 -0.25,2.84 -2.35,4.32 -4.6,4.32 -2.28,0 -3.23,-1.93 -3.69,-2.82 -0.89,-1.75 -1.54,-4.69 -1.54,-4.85 0,-0.5 0.5,-0.5 0.61,-0.5 0.5,0 0.54,0.07 0.84,1.16 0.84,3.53 1.84,5.92 3.64,5.92 0.8,0 1.55,-0.39 1.55,-2.28 0,-1.05 -0.16,-1.61 -0.8,-4.19 z"
           id="path8390"
           inkscape:connector-curvature="0"
           style="fill:#000000;stroke-width:0" /></g>    </g>
    <g
       id="g8590"
       transform="matrix(0.82492987,0,0,0.82467489,1078.8327,-489.80796)">
      <g
         word-spacing="normal"
         letter-spacing="normal"
         font-size-adjust="none"
         font-stretch="normal"
         font-weight="normal"
         font-variant="normal"
         font-style="normal"
         stroke-miterlimit="10.433"
         xml:space="preserve"
         transform="matrix(1.1102271,0,0,-1.1102271,-194.28975,1572.2261)"
         id="g8592"
         style="font-style:normal;font-variant:normal;font-weight:normal;font-stretch:normal;letter-spacing:normal;word-spacing:normal;text-anchor:start;fill:none;stroke:#000000;stroke-width:1.21241164;stroke-linecap:butt;stroke-linejoin:miter;stroke-miterlimit:10.43299961;stroke-opacity:1;stroke-dasharray:none;stroke-dashoffset:0"><path
           id="path8594"
           d="m 481.38,423.14 0.47,0.11 0.48,0.12 0.48,0.14 0.48,0.15 0.49,0.16 0.48,0.18 0.48,0.19 0.47,0.2 0.47,0.22 0.47,0.23 0.46,0.24 0.45,0.25 0.43,0.27 0.43,0.28 0.42,0.29 0.4,0.3 0.39,0.31 0.37,0.32 0.36,0.34 0.33,0.35 0.32,0.35 0.29,0.37 0.28,0.38 0.25,0.39 0.22,0.4 0.2,0.41 0.17,0.42 0.15,0.43 0.11,0.44 0.08,0.45 0.05,0.46 0.02,0.47 c 0,4.28 -4.48,7.47 -11,7.47 h -14.2 c -1,0 -1.45,0 -1.45,-1 0,-0.55 0.45,-0.55 1.4,-0.55 0.1,0 1.05,0 1.89,-0.09 0.89,-0.11 1.35,-0.16 1.35,-0.8 0,-0.2 -0.05,-0.36 -0.21,-0.95 l -6.67,-26.75 c -0.5,-1.95 -0.59,-2.34 -4.53,-2.34 -0.91,0 -1.34,0 -1.34,-1 0,-0.55 0.59,-0.55 0.68,-0.55 1.41,0 4.89,0.16 6.29,0.16 1.39,0 4.93,-0.16 6.32,-0.16 0.41,0 1,0 1,1 0,0.55 -0.45,0.55 -1.39,0.55 -1.84,0 -3.25,0 -3.25,0.89 0,0.29 0.11,0.54 0.16,0.84 l 3.28,13.2 h 5.94 l -0.05,1.11 h -5.59 l 3.25,13 c 0.29,1.19 0.43,1.69 1.39,1.85 0.45,0.04 2.04,0.04 3.03,0.04 3.55,0 9.08,0 9.08,-4.93 0,-1.69 -0.8,-5.13 -2.75,-7.07 -1.28,-1.29 -3.92,-2.89 -8.41,-2.89 l 0.05,-1.11 c 4.53,0 5.42,-2.78 5.42,-4.53 0,-0.75 -0.39,-2.28 -0.69,-3.44 -0.36,-1.39 -0.79,-3.23 -0.79,-4.23 0,-5.37 5.96,-5.37 6.62,-5.37 4.23,0 5.97,5.03 5.97,5.73 0,0.59 -0.55,0.59 -0.59,0.59 -0.46,0 -0.55,-0.36 -0.65,-0.7 -1.25,-3.69 -3.39,-4.53 -4.54,-4.53 -1.64,0 -1.99,1.09 -1.99,3.05 0,1.53 0.3,4.07 0.5,5.67 0.1,0.7 0.21,1.64 0.21,2.34 0,3.83 -3.35,5.38 -4.69,5.88 z"
           inkscape:connector-curvature="0"
           style="fill:#000000;stroke-width:0" /><path
           id="path8596"
           d="m 502.99,417.71 0.14,0.01 0.16,0 0.16,0 0.18,0 0.19,0.01 0.2,0 0.21,0.01 0.21,0.01 0.23,0.01 0.23,0.01 0.24,0.01 0.24,0.02 0.25,0.02 0.26,0.02 0.52,0.05 0.54,0.07 0.54,0.07 0.55,0.1 0.54,0.11 0.53,0.12 0.26,0.07 0.26,0.08 0.26,0.08 0.24,0.08 0.25,0.09 0.23,0.1 c 3.49,1.5 3.74,4.43 3.74,5.12 0,2.2 -1.89,4.23 -5.33,4.23 v -1.09 c 2.34,0 3.69,-1.44 3.69,-3.14 0,-5.17 -7.97,-5.17 -10.02,-5.17 h -2.05 c 1.96,7.56 7.08,8.31 8.38,8.31 v 1.09 c -5.53,0 -13.05,-4.82 -13.05,-13.54 0,-5.08 2.94,-9.02 7.82,-9.02 7.12,0 11.31,5.28 11.31,5.88 0,0.29 -0.3,0.65 -0.6,0.65 -0.25,0 -0.34,-0.11 -0.65,-0.5 -3.94,-4.93 -9.36,-4.93 -9.96,-4.93 -3.89,0 -4.34,4.18 -4.34,5.78 0,0.59 0.05,2.14 0.8,5.18 z"
           inkscape:connector-curvature="0"
           style="fill:#000000;stroke-width:0" /></g>    </g>
    <g
       id="g9368"
       transform="matrix(0.82492987,0,0,0.82467489,426.66669,89.820671)">
      <path
         id="path8795"
         d="m 1135.304,70.646707 0,-0.177636 0.011,-0.177636 0,-0.166535 0.011,-0.166534 0.011,-0.144329 0.011,-0.14433 0.022,-0.144329 0.033,-0.122125 0.033,-0.133227 0.044,-0.111023 0.056,-0.111023 0.055,-0.09992 0.067,-0.09992 0.089,-0.08882 0.089,-0.08882 0.1,-0.07772 0.1222,-0.06661 0.1332,-0.06661 0.067,-0.03331 0.078,-0.03331 0.078,-0.0222 0.078,-0.03331 0.089,-0.0222 0.089,-0.0222 0.089,-0.0222 0.1,-0.0222 0.1,-0.0222 0.111,-0.0222 0.111,-0.0222 0.1221,-0.0111 0.111,-0.0111 0.1333,-0.0222 0.1221,-0.0111 0.1443,-0.0111 0.1333,-0.0111 0.1443,-0.0111 0.1554,-0.0111 0.1554,-0.0111 0.1666,0 0.1665,-0.0111 0.1665,0 0.1777,-0.0111 0.1887,0 0.1888,0 0.1887,0 0.2109,0 h 1.4322 v -1.720852 c -1.9429,0.177636 -6.3061,0.177636 -8.4044,0.177636 -2.1538,0 -6.5281,0 -8.471,-0.177636 v 1.720852 h 1.4433 c 4.3632,0 4.5408,0.599522 4.5408,2.597931 v 29.143462 c 0,1.998407 -0.1776,2.597927 -4.5408,2.597927 h -1.4433 v 1.72085 c 1.9429,-0.17763 6.3172,-0.17763 8.4155,-0.17763 2.1538,0 6.517,0 8.4599,0.17763 v -1.72085 h -1.4322 c -4.3743,0 -4.5519,-0.59952 -4.5519,-2.597927 z"
         inkscape:connector-curvature="0"
         style="font-style:normal;font-variant:normal;font-weight:normal;font-stretch:normal;letter-spacing:normal;word-spacing:normal;text-anchor:start;fill:#000000;stroke:#000000;stroke-width:0;stroke-linecap:butt;stroke-linejoin:miter;stroke-miterlimit:10.43299961;stroke-opacity:1;stroke-dasharray:none;stroke-dashoffset:0" />
      <path
         id="path8797"
         d="m 1148.9376,85.079659 v 14.832635 c 0,2.475806 -0.5995,2.475806 -4.3188,2.475806 v 1.72085 c 1.9429,-0.0555 4.7518,-0.17763 6.2506,-0.17763 1.4433,0 4.3188,0.12212 6.1951,0.17763 v -1.72085 c -3.6971,0 -4.3077,0 -4.3077,-2.475806 V 89.731511 c 0,-5.762079 3.9191,-8.84851 7.4607,-8.84851 3.4861,0 4.0967,2.986511 4.0967,6.139556 v 12.889737 c 0,2.475806 -0.6106,2.475806 -4.3187,2.475806 v 1.72085 c 1.9429,-0.0555 4.7628,-0.17763 6.2616,-0.17763 1.4322,0 4.2966,0.12212 6.1951,0.17763 v -1.72085 c -3.7192,0 -4.3188,0 -4.3188,-2.475806 V 89.731511 c 0,-5.762079 3.9302,-8.84851 7.4719,-8.84851 3.4861,0 4.0967,2.986511 4.0967,6.139556 v 12.889737 c 0,2.475806 -0.6106,2.475806 -4.3188,2.475806 v 1.72085 c 1.9207,-0.0555 4.7518,-0.17763 6.2395,-0.17763 1.4433,0 4.3188,0.12212 6.1951,0.17763 v -1.72085 c -2.8644,0 -4.2522,0 -4.3077,-1.66534 V 90.1645 c 0,-4.751772 0,-6.472624 -1.7098,-8.448829 -0.7882,-0.954795 -2.609,-2.042817 -5.8176,-2.042817 -4.6407,0 -7.0721,3.308476 -8.0158,5.406805 -0.7772,-4.807283 -4.8739,-5.406805 -7.3497,-5.406805 -4.0412,0 -6.6392,2.375886 -8.1935,5.784283 v -5.784283 l -7.8049,0.599522 v 1.720852 c 3.8747,0 4.3188,0.377477 4.3188,3.086431 z"
         inkscape:connector-curvature="0"
         style="font-style:normal;font-variant:normal;font-weight:normal;font-stretch:normal;letter-spacing:normal;word-spacing:normal;text-anchor:start;fill:#000000;stroke:#000000;stroke-width:0;stroke-linecap:butt;stroke-linejoin:miter;stroke-miterlimit:10.43299961;stroke-opacity:1;stroke-dasharray:none;stroke-dashoffset:0" />
      <path
         id="path8799"
         d="m 1207.3689,99.912294 0.033,0.210946 0.022,0.19984 0.044,0.21094 0.044,0.19984 0.055,0.21094 0.067,0.19985 0.067,0.19984 0.078,0.19984 0.078,0.19984 0.089,0.18874 0.1,0.19984 0.111,0.17763 0.111,0.17764 0.1111,0.17764 0.1332,0.17763 0.1332,0.15543 0.1332,0.15544 0.1444,0.15543 0.1554,0.14433 0.1665,0.13323 0.1666,0.13322 0.1665,0.11103 0.1887,0.11102 0.1888,0.0999 0.1887,0.0888 0.1999,0.0777 0.2109,0.0666 0.2109,0.0555 0.2221,0.0444 0.2331,0.0333 0.2332,0.0222 0.2331,0.0111 c 1.1436,0 4.5298,-0.78826 4.5298,-5.262476 v -3.086432 h -1.3878 v 3.086432 c 0,3.208556 -1.3656,3.541626 -1.9984,3.541626 -1.8208,0 -2.0428,-2.47581 -2.0428,-2.753365 V 88.898841 c 0,-2.331477 0,-4.474216 -1.9763,-6.528136 -2.1649,-2.142738 -4.9294,-3.03092 -7.5828,-3.03092 -4.5408,0 -8.36,2.58683 -8.36,6.239477 0,1.654238 1.1102,2.609033 2.5535,2.609033 1.5432,0 2.5424,-1.110227 2.5424,-2.553522 0,-0.655034 -0.2775,-2.475806 -2.8199,-2.553522 1.4877,-1.920693 4.1966,-2.531318 5.9619,-2.531318 2.7311,0 5.862,2.15384 5.862,7.083249 v 2.042818 1.165738 5.528931 c 0,5.262481 -3.9635,7.127661 -6.4616,7.127661 -2.7089,0 -4.9849,-1.9429 -4.9849,-4.696264 0,-3.03092 2.3204,-7.638362 11.4465,-7.960328 h 0 V 89.676 c -2.8089,0.155431 -6.6725,0.333068 -10.1586,1.998408 -4.1523,1.876284 -5.54,4.751772 -5.54,7.18317 0,4.474212 5.3624,5.862002 8.8485,5.862002 3.6637,0 6.195,-2.20936 7.2498,-4.807286 z"
         inkscape:connector-curvature="0"
         style="font-style:normal;font-variant:normal;font-weight:normal;font-stretch:normal;letter-spacing:normal;word-spacing:normal;text-anchor:start;fill:#000000;stroke:#000000;stroke-width:0;stroke-linecap:butt;stroke-linejoin:miter;stroke-miterlimit:10.43299961;stroke-opacity:1;stroke-dasharray:none;stroke-dashoffset:0" />
      <path
         id="path8801"
         d="m 1222.5235,96.759249 0,-0.03331 0,-0.0222 0,-0.03331 0,-0.04441 0,-0.04441 0,-0.05551 0.011,-0.05551 0,-0.06661 0.011,-0.05551 0,-0.07772 0.011,-0.06661 0.011,-0.07772 0.011,-0.07772 0.022,-0.08882 0.011,-0.08882 0.022,-0.08882 0.022,-0.08882 0.033,-0.08882 0.022,-0.09992 0.033,-0.09992 0.044,-0.09992 0.033,-0.09992 0.044,-0.09992 0.044,-0.111023 0.055,-0.09992 0.056,-0.111023 0.055,-0.09992 0.067,-0.111023 0.078,-0.09992 0.067,-0.111023 0.078,-0.09992 0.089,-0.111023 c 2.165,1.543216 4.4187,1.720852 5.4846,1.720852 v -1.265659 c -4.8184,0 -4.8184,-5.540033 -4.8184,-6.816794 0,-1.498807 0.067,-3.264068 0.8771,-4.629647 0.4552,-0.677239 1.7208,-2.220455 3.9413,-2.220455 4.8072,0 4.8072,5.528931 4.8072,6.79459 0,1.487705 -0.056,3.264068 -0.8881,4.651852 -0.433,0.655034 -1.7209,2.220454 -3.9191,2.220454 h 0 v 1.265659 c 5.1292,0 8.9484,-3.819181 8.9484,-8.082453 0,-2.053921 -0.8882,-4.096738 -2.2538,-5.362397 1.9762,-1.876284 3.9746,-2.153841 4.9739,-2.153841 0.111,0 0.3885,0 0.5551,0.05551 -0.6218,0.222046 -0.8771,0.832671 -0.8771,1.487705 0,0.943693 0.7105,1.598727 1.5987,1.598727 0.5551,0 1.5876,-0.377477 1.5876,-1.643136 0,-0.943693 -0.655,-2.708954 -2.8088,-2.708954 -1.1103,0 -3.5417,0.333068 -5.862,2.586829 -2.3204,-1.820773 -4.6519,-1.976204 -5.862,-1.976204 -5.1515,0 -8.9707,3.808078 -8.9707,8.060248 0,2.431398 1.2102,4.540829 2.598,5.706568 -0.7106,0.821568 -1.7098,2.653442 -1.7098,4.585237 0,1.70975 0.7217,3.808085 2.4425,4.918305 -3.3307,0.9437 -5.0959,3.31958 -5.0959,5.54004 0,3.97461 5.4734,7.02773 12.2236,7.02773 l 0.055,-1.26565 c -5.5845,0 -9.4036,-2.83108 -9.4036,-5.76208 0,-2.55353 2.0983,-4.59634 4.5408,-4.75178 h 3.2641 c 4.7517,0 10.9468,0 10.9468,4.75178 0,2.98651 -3.9191,5.76208 -9.3481,5.76208 h 0 l -0.055,1.26565 c 6.5281,0 12.2902,-2.83107 12.2902,-7.13876 0,-1.94289 -0.7883,-4.76287 -3.5972,-6.30609 -2.931,-1.54321 -6.1395,-1.54321 -9.5257,-1.54321 -1.3878,0 -3.7637,0 -4.1411,-0.0555 -1.7764,-0.22205 -2.931,-1.942902 -2.931,-3.708163 z"
         inkscape:connector-curvature="0"
         style="font-style:normal;font-variant:normal;font-weight:normal;font-stretch:normal;letter-spacing:normal;word-spacing:normal;text-anchor:start;fill:#000000;stroke:#000000;stroke-width:0;stroke-linecap:butt;stroke-linejoin:miter;stroke-miterlimit:10.43299961;stroke-opacity:1;stroke-dasharray:none;stroke-dashoffset:0" />
      <path
         id="path8803"
         d="m 1250.5012,91.330238 0.056,-1.165738 c 0.3331,-8.237885 4.9849,-9.614567 6.8723,-9.614567 5.6844,0 6.2395,7.460726 6.2395,9.614567 h -13.1118 l -0.056,1.165738 h 15.4432 c 1.2102,0 1.3656,0 1.3656,-1.165738 0,-5.462318 -2.9754,-10.824715 -9.881,-10.824715 -6.4171,0 -11.5242,5.684363 -11.5242,12.61218 0,7.405215 5.8176,12.767615 12.1792,12.767615 6.7502,0 9.226,-6.139559 9.226,-7.183172 0,-0.555114 -0.433,-0.677239 -0.7105,-0.677239 -0.4996,0 -0.5996,0.333068 -0.7217,0.777159 -1.9318,5.695462 -6.9056,5.695462 -7.4607,5.695462 -2.7756,0 -4.9849,-1.65424 -6.2506,-3.697053 -1.6653,-2.653443 -1.6653,-6.317192 -1.6653,-8.304499 z"
         inkscape:connector-curvature="0"
         style="font-style:normal;font-variant:normal;font-weight:normal;font-stretch:normal;letter-spacing:normal;word-spacing:normal;text-anchor:start;fill:#000000;stroke:#000000;stroke-width:0;stroke-linecap:butt;stroke-linejoin:miter;stroke-miterlimit:10.43299961;stroke-opacity:1;stroke-dasharray:none;stroke-dashoffset:0" />
      <path
         id="path8805"
         d="m 1313.3178,92.273931 -0.022,-0.655034 -0.044,-0.655034 -0.078,-0.643932 -0.111,-0.632829 -0.1333,-0.621727 -0.1665,-0.610625 -0.1998,-0.599523 -0.211,-0.58842 -0.2553,-0.566216 -0.2665,-0.555113 -0.2997,-0.544012 -0.322,-0.521807 -0.3442,-0.510704 -0.3552,-0.4885 -0.3886,-0.477398 -0.4108,-0.44409 -0.4219,-0.432989 -0.4441,-0.410784 -0.4663,-0.388579 -0.4774,-0.355273 -0.4996,-0.344171 -0.5107,-0.310863 -0.5218,-0.288659 -0.544,-0.266455 -0.5551,-0.233147 -0.5662,-0.199841 -0.5774,-0.177637 -0.5884,-0.144329 -0.5995,-0.122125 -0.6106,-0.07772 -0.6106,-0.05551 -0.6329,-0.0111 -0.044,1.210148 c 2.4203,0 4.7962,1.22125 6.2395,3.597136 1.4433,2.375886 1.4433,5.584442 1.4433,7.682771 0,1.998409 0,4.973818 -1.2213,7.405215 -1.2101,2.498015 -3.6415,4.096735 -6.4171,4.096735 h 0 c -2.3759,0 -4.7962,-1.16574 -6.295,-3.697053 -1.3877,-2.4425 -1.3877,-5.806488 -1.3877,-7.804897 0,-2.15384 0,-5.140351 1.3211,-7.582851 1.5099,-2.531318 4.0968,-3.697056 6.3172,-3.697056 l 0.044,-1.210148 c -6.9056,0 -12.2791,6.017431 -12.2791,12.934146 0,7.13876 5.7621,12.445649 12.2347,12.445649 6.6947,0 12.2791,-5.417911 12.2791,-12.445649 z"
         inkscape:connector-curvature="0"
         style="font-style:normal;font-variant:normal;font-weight:normal;font-stretch:normal;letter-spacing:normal;word-spacing:normal;text-anchor:start;fill:#000000;stroke:#000000;stroke-width:0;stroke-linecap:butt;stroke-linejoin:miter;stroke-miterlimit:10.43299961;stroke-opacity:1;stroke-dasharray:none;stroke-dashoffset:0" />
      <path
         id="path8807"
         d="m 1324.6532,80.272376 v -6.417112 c 0,-4.873897 2.6535,-7.52734 5.0738,-7.52734 0.1776,0 1.0103,0 1.843,0.399682 -0.6773,0.210943 -1.6654,0.93259 -1.6654,2.309272 0,1.276761 0.8882,2.386988 2.3759,2.386988 1.5987,0 2.4314,-1.110227 2.4314,-2.442499 0,-2.042818 -2.0539,-3.863591 -4.9849,-3.863591 -3.8636,0 -8.571,2.931 -8.571,8.792999 v 6.361601 h -4.3632 v 1.720852 h 4.3632 v 17.919066 c 0,2.475806 -0.5995,2.475806 -4.3188,2.475806 v 1.72085 c 2.1761,-0.0555 4.774,-0.17763 6.3172,-0.17763 2.2094,0 4.8073,0 7.0278,0.17763 v -1.72085 h -1.1658 c -4.0856,0 -4.1966,-0.59952 -4.1966,-2.597931 V 81.993228 h 6.295 v -1.720852 z"
         inkscape:connector-curvature="0"
         style="font-style:normal;font-variant:normal;font-weight:normal;font-stretch:normal;letter-spacing:normal;word-spacing:normal;text-anchor:start;fill:#000000;stroke:#000000;stroke-width:0;stroke-linecap:butt;stroke-linejoin:miter;stroke-miterlimit:10.43299961;stroke-opacity:1;stroke-dasharray:none;stroke-dashoffset:0" />
    </g>
    <g
       id="g9352"
       transform="matrix(0.82492987,0,0,0.82467489,318.24732,151.08223)">
      <path
         id="path8809"
         d="m 1368.5738,117.37617 0,-0.0222 0,-0.0333 0,-0.0111 0,-0.0222 -0.011,-0.0111 0,-0.0222 -0.011,-0.0111 0,-0.0222 -0.011,-0.0222 -0.011,-0.0222 -0.011,-0.0222 -0.022,-0.0333 -0.011,-0.0222 -0.022,-0.0333 -0.022,-0.0333 -0.033,-0.0333 -0.022,-0.0333 -0.033,-0.0444 -0.022,-0.0222 -0.022,-0.0222 -0.011,-0.0222 -0.022,-0.0222 -0.022,-0.0222 -0.022,-0.0333 -0.022,-0.0222 -0.022,-0.0222 -0.033,-0.0333 -0.022,-0.0222 -0.033,-0.0333 -0.022,-0.0333 -0.033,-0.0333 -0.022,-0.0333 -0.033,-0.0333 -0.033,-0.0333 -0.033,-0.0333 -0.044,-0.0333 -0.033,-0.0444 -0.033,-0.0333 -0.044,-0.0444 -0.044,-0.0333 -0.033,-0.0444 -0.044,-0.0444 c -6.9056,-6.97223 -8.6708,-17.419465 -8.6708,-25.879395 0,-9.625669 2.0983,-19.262441 8.8929,-26.156951 0.7105,-0.677238 0.7105,-0.788261 0.7105,-0.954795 0,-0.38858 -0.1998,-0.544011 -0.5329,-0.544011 -0.5551,0 -5.54,3.752567 -8.793,10.769202 -2.8311,6.095147 -3.4972,12.234703 -3.4972,16.886555 0,4.318783 0.6106,10.991245 3.6527,17.252925 3.3084,6.8057 8.0824,10.39173 8.6375,10.39173 0.3331,0 0.5329,-0.15543 0.5329,-0.55511 z"
         inkscape:connector-curvature="0"
         style="font-style:normal;font-variant:normal;font-weight:normal;font-stretch:normal;letter-spacing:normal;word-spacing:normal;text-anchor:start;fill:#000000;stroke:#000000;stroke-width:0;stroke-linecap:butt;stroke-linejoin:miter;stroke-miterlimit:10.43299961;stroke-opacity:1;stroke-dasharray:none;stroke-dashoffset:0" />
      <path
         id="path8811"
         d="m 1393.3541,99.734657 v 4.984923 l 7.9603,-0.61063 v -1.72085 c -3.8636,0 -4.3188,-0.37748 -4.3188,-3.086431 V 79.672854 l -8.1379,0.599522 v 1.720852 c 3.8858,0 4.3188,0.377477 4.3188,3.086431 v 9.858817 c 0,4.796181 -2.6535,8.559854 -6.6947,8.559854 -4.6297,0 -4.8517,-2.59793 -4.8517,-5.473423 V 79.672854 l -8.138,0.599522 v 1.720852 c 4.3188,0 4.3188,0.155432 4.3188,5.08484 v 8.293397 c 0,4.318783 0,9.348115 8.3933,9.348115 3.1087,0 5.5401,-1.54322 7.1499,-4.984923 z"
         inkscape:connector-curvature="0"
         style="font-style:normal;font-variant:normal;font-weight:normal;font-stretch:normal;letter-spacing:normal;word-spacing:normal;text-anchor:start;fill:#000000;stroke:#000000;stroke-width:0;stroke-linecap:butt;stroke-linejoin:miter;stroke-miterlimit:10.43299961;stroke-opacity:1;stroke-dasharray:none;stroke-dashoffset:0" />
      <path
         id="path8813"
         d="m 1408.5864,85.079659 v 14.832635 c 0,2.475806 -0.6106,2.475806 -4.3188,2.475806 v 1.72085 c 1.9429,-0.0555 4.7518,-0.17763 6.2395,-0.17763 1.4433,0 4.3188,0.12212 6.1951,0.17763 v -1.72085 c -3.6971,0 -4.3077,0 -4.3077,-2.475806 V 89.731511 c 0,-5.762079 3.9302,-8.84851 7.4607,-8.84851 3.4861,0 4.0968,2.986511 4.0968,6.139556 v 12.889737 c 0,2.475806 -0.6107,2.475806 -4.3188,2.475806 v 1.72085 c 1.9429,-0.0555 4.7739,-0.17763 6.2617,-0.17763 1.4432,0 4.3076,0.12212 6.195,0.17763 v -1.72085 c -2.8755,0 -4.2633,0 -4.3188,-1.66534 V 90.1645 c 0,-4.751772 0,-6.472624 -1.7208,-8.448829 -0.7661,-0.954795 -2.5979,-2.042817 -5.7954,-2.042817 -4.0412,0 -6.6392,2.375886 -8.1824,5.784283 v -5.784283 l -7.8049,0.599522 v 1.720852 c 3.8636,0 4.3188,0.377477 4.3188,3.086431 z"
         inkscape:connector-curvature="0"
         style="font-style:normal;font-variant:normal;font-weight:normal;font-stretch:normal;letter-spacing:normal;word-spacing:normal;text-anchor:start;fill:#000000;stroke:#000000;stroke-width:0;stroke-linecap:butt;stroke-linejoin:miter;stroke-miterlimit:10.43299961;stroke-opacity:1;stroke-dasharray:none;stroke-dashoffset:0" />
      <path
         id="path8815"
         d="m 1443.0479,79.672854 -7.7272,0.599522 v 1.720852 c 3.586,0 4.0856,0.333068 4.0856,3.03092 v 14.888146 c 0,2.475806 -0.5995,2.475806 -4.3188,2.475806 v 1.72085 c 1.7764,-0.0555 4.7518,-0.17763 6.0952,-0.17763 1.9429,0 3.8636,0.12212 5.751,0.17763 v -1.72085 c -3.6527,0 -3.8858,-0.27756 -3.8858,-2.420295 z"
         inkscape:connector-curvature="0"
         style="font-style:normal;font-variant:normal;font-weight:normal;font-stretch:normal;letter-spacing:normal;word-spacing:normal;text-anchor:start;fill:#000000;stroke:#000000;stroke-width:0;stroke-linecap:butt;stroke-linejoin:miter;stroke-miterlimit:10.43299961;stroke-opacity:1;stroke-dasharray:none;stroke-dashoffset:0" />
      <path
         id="path8817"
         d="m 1443.281,70.036082 -0.011,-0.155432 -0.011,-0.166534 -0.022,-0.155431 -0.022,-0.155432 -0.033,-0.14433 -0.044,-0.144329 -0.044,-0.14433 -0.055,-0.133227 -0.056,-0.133227 -0.078,-0.133227 -0.067,-0.122125 -0.078,-0.111023 -0.089,-0.111023 -0.089,-0.111023 -0.089,-0.111022 -0.1,-0.08882 -0.1,-0.09992 -0.111,-0.08882 -0.111,-0.07772 -0.1222,-0.07772 -0.111,-0.07772 -0.1221,-0.06661 -0.1332,-0.05551 -0.1222,-0.05551 -0.1332,-0.04441 -0.1332,-0.04441 -0.1443,-0.03331 -0.1333,-0.03331 -0.1443,-0.0222 -0.1332,-0.0111 -0.1444,-0.0111 -0.1443,-0.0111 c -1.7208,0 -2.931,1.498806 -2.931,2.930999 0,1.498807 1.2102,2.931 2.931,2.931 1.5432,0 2.931,-1.154636 2.931,-2.931 z"
         inkscape:connector-curvature="0"
         style="font-style:normal;font-variant:normal;font-weight:normal;font-stretch:normal;letter-spacing:normal;word-spacing:normal;text-anchor:start;fill:#000000;stroke:#000000;stroke-width:0;stroke-linecap:butt;stroke-linejoin:miter;stroke-miterlimit:10.43299961;stroke-opacity:1;stroke-dasharray:none;stroke-dashoffset:0" />
      <path
         id="path8819"
         d="m 1458.1581,81.993228 h 7.9159 v -1.720852 h -7.9159 V 70.091594 h -1.3878 c -0.044,4.529726 -1.7098,10.458339 -7.1277,10.669282 v 1.232352 h 4.7074 v 15.265623 c 0,6.794589 5.1292,7.460729 7.1276,7.460729 3.9191,0 5.4846,-3.9191 5.4846,-7.460729 v -3.153045 h -1.3878 v 3.03092 c 0,4.096734 -1.6654,6.195064 -3.7193,6.195064 -3.697,0 -3.697,-5.029326 -3.697,-5.973019 z"
         inkscape:connector-curvature="0"
         style="font-style:normal;font-variant:normal;font-weight:normal;font-stretch:normal;letter-spacing:normal;word-spacing:normal;text-anchor:start;fill:#000000;stroke:#000000;stroke-width:0;stroke-linecap:butt;stroke-linejoin:miter;stroke-miterlimit:10.43299961;stroke-opacity:1;stroke-dasharray:none;stroke-dashoffset:0" />
      <path
         id="path8821"
         d="m 1495.0176,92.051886 0.011,-0.421887 0,-0.399681 0.022,-0.399682 0.022,-0.38858 0.033,-0.377477 0.033,-0.377477 0.033,-0.355273 0.044,-0.355272 0.055,-0.344171 0.056,-0.333068 0.067,-0.321966 0.067,-0.321966 0.1443,-0.610625 0.1665,-0.566215 0.1888,-0.544012 0.1998,-0.510704 0.2221,-0.477398 0.2331,-0.444091 0.2443,-0.421886 0.2553,-0.388579 0.2665,-0.355273 0.2775,-0.333068 0.2887,-0.310864 0.2887,-0.288659 0.2997,-0.255352 0.3109,-0.233148 0.2997,-0.210943 0.3109,-0.177636 0.322,-0.166534 0.3108,-0.14433 0.3109,-0.133227 0.3109,-0.09992 0.3108,-0.08882 0.3109,-0.06661 0.2997,-0.05551 0.2998,-0.03331 0.2887,-0.0222 0.2775,-0.0111 c 0.4885,0 3.9635,0.05551 5.9064,2.05392 -2.2648,0.166534 -2.5979,1.820772 -2.5979,2.54242 0,1.443295 0.9881,2.553522 2.5535,2.553522 1.4211,0 2.5313,-0.954795 2.5313,-2.597931 0,-3.76367 -4.1966,-5.917511 -8.4599,-5.917511 -6.9056,0 -12.0126,5.96192 -12.0126,12.823123 0,7.072147 5.4845,12.556675 11.9016,12.556675 7.4052,0 9.1816,-6.650266 9.1816,-7.183175 0,-0.555114 -0.5551,-0.555114 -0.7106,-0.555114 -0.5107,0 -0.6106,0.210943 -0.7327,0.555114 -1.5988,5.129255 -5.1848,5.795385 -7.2387,5.795385 -2.931,0 -7.8049,-2.37588 -7.8049,-11.279907 z"
         inkscape:connector-curvature="0"
         style="font-style:normal;font-variant:normal;font-weight:normal;font-stretch:normal;letter-spacing:normal;word-spacing:normal;text-anchor:start;fill:#000000;stroke:#000000;stroke-width:0;stroke-linecap:butt;stroke-linejoin:miter;stroke-miterlimit:10.43299961;stroke-opacity:1;stroke-dasharray:none;stroke-dashoffset:0" />
      <path
         id="path8823"
         d="m 1522.8399,79.672854 -7.7272,0.599522 v 1.720852 c 3.586,0 4.0856,0.333068 4.0856,3.03092 v 14.888146 c 0,2.475806 -0.5995,2.475806 -4.3187,2.475806 v 1.72085 c 1.7763,-0.0555 4.7628,-0.17763 6.0951,-0.17763 1.9429,0 3.8636,0.12212 5.751,0.17763 v -1.72085 c -3.6527,0 -3.8858,-0.27756 -3.8858,-2.420295 z"
         inkscape:connector-curvature="0"
         style="font-style:normal;font-variant:normal;font-weight:normal;font-stretch:normal;letter-spacing:normal;word-spacing:normal;text-anchor:start;fill:#000000;stroke:#000000;stroke-width:0;stroke-linecap:butt;stroke-linejoin:miter;stroke-miterlimit:10.43299961;stroke-opacity:1;stroke-dasharray:none;stroke-dashoffset:0" />
      <path
         id="path8825"
         d="m 1523.073,70.036082 -0.011,-0.155432 -0.011,-0.166534 -0.011,-0.155431 -0.033,-0.155432 -0.033,-0.14433 -0.044,-0.144329 -0.044,-0.14433 -0.055,-0.133227 -0.055,-0.133227 -0.067,-0.133227 -0.078,-0.122125 -0.078,-0.111023 -0.089,-0.111023 -0.089,-0.111023 -0.089,-0.111022 -0.1,-0.08882 -0.1,-0.09992 -0.111,-0.08882 -0.111,-0.07772 -0.1221,-0.07772 -0.1111,-0.07772 -0.1221,-0.06661 -0.1332,-0.05551 -0.1221,-0.05551 -0.1333,-0.04441 -0.1332,-0.04441 -0.1332,-0.03331 -0.1444,-0.03331 -0.1443,-0.0222 -0.1332,-0.0111 -0.1443,-0.0111 -0.1444,-0.0111 c -1.7208,0 -2.931,1.498806 -2.931,2.930999 0,1.498807 1.2102,2.931 2.931,2.931 1.5432,0 2.931,-1.154636 2.931,-2.931 z"
         inkscape:connector-curvature="0"
         style="font-style:normal;font-variant:normal;font-weight:normal;font-stretch:normal;letter-spacing:normal;word-spacing:normal;text-anchor:start;fill:#000000;stroke:#000000;stroke-width:0;stroke-linecap:butt;stroke-linejoin:miter;stroke-miterlimit:10.43299961;stroke-opacity:1;stroke-dasharray:none;stroke-dashoffset:0" />
      <path
         id="path8827"
         d="m 1537.6059,85.734693 v -6.061839 l -7.6828,0.599522 v 1.720852 c 3.8747,0 4.3188,0.377477 4.3188,3.086431 v 14.832635 c 0,2.475806 -0.6106,2.475806 -4.3188,2.475806 v 1.72085 c 2.165,-0.0555 4.7518,-0.17763 6.3172,-0.17763 2.1983,0 4.8073,0 7.0278,0.17763 v -1.72085 h -1.1658 c -4.0967,0 -4.2188,-0.59952 -4.2188,-2.597931 v -8.515442 c 0,-5.462318 2.3314,-10.391726 6.5392,-10.391726 0.3886,0 0.4885,0 0.6106,0.05551 -0.1776,0.04441 -1.2878,0.710546 -1.2878,2.142739 0,1.56542 1.1657,2.375886 2.3981,2.375886 0.9881,0 2.3758,-0.655034 2.3758,-2.420295 0,-1.776364 -1.7208,-3.363988 -4.0967,-3.363988 -4.0412,0 -6.0396,3.685953 -6.8168,6.061839 z"
         inkscape:connector-curvature="0"
         style="font-style:normal;font-variant:normal;font-weight:normal;font-stretch:normal;letter-spacing:normal;word-spacing:normal;text-anchor:start;fill:#000000;stroke:#000000;stroke-width:0;stroke-linecap:butt;stroke-linejoin:miter;stroke-miterlimit:10.43299961;stroke-opacity:1;stroke-dasharray:none;stroke-dashoffset:0" />
      <path
         id="path8829"
         d="m 1556.5686,92.051886 0,-0.421887 0.011,-0.399681 0.011,-0.399682 0.022,-0.38858 0.033,-0.377477 0.033,-0.377477 0.044,-0.355273 0.044,-0.355272 0.044,-0.344171 0.056,-0.333068 0.067,-0.321966 0.067,-0.321966 0.1554,-0.610625 0.1665,-0.566215 0.1777,-0.544012 0.2109,-0.510704 0.211,-0.477398 0.2331,-0.444091 0.2443,-0.421886 0.2553,-0.388579 0.2665,-0.355273 0.2775,-0.333068 0.2887,-0.310864 0.2886,-0.288659 0.2998,-0.255352 0.3109,-0.233148 0.3108,-0.210943 0.3109,-0.177636 0.3109,-0.166534 0.3108,-0.14433 0.322,-0.133227 0.3108,-0.09992 0.3109,-0.08882 0.2998,-0.06661 0.2997,-0.05551 0.2998,-0.03331 0.2887,-0.0222 0.2775,-0.0111 c 0.4885,0 3.9746,0.05551 5.9175,2.05392 -2.2759,0.166534 -2.5979,1.820772 -2.5979,2.54242 0,1.443295 0.9881,2.553522 2.5424,2.553522 1.4211,0 2.5313,-0.954795 2.5313,-2.597931 0,-3.76367 -4.1966,-5.917511 -8.4599,-5.917511 -6.9056,0 -12.0016,5.96192 -12.0016,12.823123 0,7.072147 5.4735,12.556675 11.8906,12.556675 7.4163,0 9.1816,-6.650266 9.1816,-7.183175 0,-0.555114 -0.5552,-0.555114 -0.7106,-0.555114 -0.4996,0 -0.6106,0.210943 -0.7327,0.555114 -1.5877,5.129255 -5.1848,5.795385 -7.2276,5.795385 -2.931,0 -7.8049,-2.37588 -7.8049,-11.279907 z"
         inkscape:connector-curvature="0"
         style="font-style:normal;font-variant:normal;font-weight:normal;font-stretch:normal;letter-spacing:normal;word-spacing:normal;text-anchor:start;fill:#000000;stroke:#000000;stroke-width:0;stroke-linecap:butt;stroke-linejoin:miter;stroke-miterlimit:10.43299961;stroke-opacity:1;stroke-dasharray:none;stroke-dashoffset:0" />
      <path
         id="path8831"
         d="m 1584.3909,65.717299 -7.9604,0.610625 v 1.720852 c 3.8636,0 4.3188,0.377477 4.3188,3.097533 v 28.765985 c 0,2.475806 -0.6106,2.475806 -4.3188,2.475806 v 1.72085 c 1.8208,-0.0555 4.7518,-0.17763 6.1396,-0.17763 1.3878,0 4.0967,0.12212 6.1396,0.17763 v -1.72085 c -3.7082,0 -4.3188,0 -4.3188,-2.475806 z"
         inkscape:connector-curvature="0"
         style="font-style:normal;font-variant:normal;font-weight:normal;font-stretch:normal;letter-spacing:normal;word-spacing:normal;text-anchor:start;fill:#000000;stroke:#000000;stroke-width:0;stroke-linecap:butt;stroke-linejoin:miter;stroke-miterlimit:10.43299961;stroke-opacity:1;stroke-dasharray:none;stroke-dashoffset:0" />
      <path
         id="path8833"
         d="m 1596.0594,91.330238 0.055,-1.165738 c 0.333,-8.237885 4.9849,-9.614567 6.8723,-9.614567 5.6843,0 6.2395,7.460726 6.2395,9.614567 h -13.1118 l -0.055,1.165738 h 15.4432 c 1.2102,0 1.3767,0 1.3767,-1.165738 0,-5.462318 -2.9865,-10.824715 -9.8921,-10.824715 -6.4171,0 -11.5242,5.684363 -11.5242,12.61218 0,7.405215 5.8176,12.767615 12.1792,12.767615 6.7502,0 9.2371,-6.139559 9.2371,-7.183172 0,-0.555114 -0.4441,-0.677239 -0.7216,-0.677239 -0.4996,0 -0.5996,0.333068 -0.7217,0.777159 -1.9318,5.695462 -6.9056,5.695462 -7.4607,5.695462 -2.7756,0 -4.9738,-1.65424 -6.2506,-3.697053 -1.6653,-2.653443 -1.6653,-6.317192 -1.6653,-8.304499 z"
         inkscape:connector-curvature="0"
         style="font-style:normal;font-variant:normal;font-weight:normal;font-stretch:normal;letter-spacing:normal;word-spacing:normal;text-anchor:start;fill:#000000;stroke:#000000;stroke-width:0;stroke-linecap:butt;stroke-linejoin:miter;stroke-miterlimit:10.43299961;stroke-opacity:1;stroke-dasharray:none;stroke-dashoffset:0" />
      <path
         id="path8835"
         d="m 1630.4098,90.286625 0,-0.410784 0,-0.432989 -0.011,-0.432989 -0.022,-0.455193 -0.044,-0.93259 -0.067,-0.977 -0.089,-1.021409 -0.1221,-1.054716 -0.1443,-1.07692 -0.1777,-1.12133 -0.222,-1.132431 -0.2553,-1.143534 -0.2998,-1.165739 -0.3331,-1.17684 -0.3886,-1.187943 -0.4329,-1.187943 -0.2443,-0.588421 -0.2442,-0.58842 -0.2665,-0.58842 -0.2776,-0.588421 c -3.3084,-6.79459 -8.0713,-10.391725 -8.6264,-10.391725 -0.322,0 -0.5551,0.210943 -0.5551,0.544011 0,0.166534 0,0.277557 1.0436,1.276761 5.429,5.462317 8.5931,14.266418 8.5931,25.834985 0,9.448032 -2.0539,19.184725 -8.9151,26.156955 -0.7216,0.65503 -0.7216,0.77715 -0.7216,0.93259 0,0.33306 0.2331,0.55511 0.5551,0.55511 0.5551,0 5.5178,-3.76367 8.8041,-10.78031 2.8089,-6.07294 3.4639,-12.212494 3.4639,-16.864345 z"
         inkscape:connector-curvature="0"
         style="font-style:normal;font-variant:normal;font-weight:normal;font-stretch:normal;letter-spacing:normal;word-spacing:normal;text-anchor:start;fill:#000000;stroke:#000000;stroke-width:0;stroke-linecap:butt;stroke-linejoin:miter;stroke-miterlimit:10.43299961;stroke-opacity:1;stroke-dasharray:none;stroke-dashoffset:0" />
    </g>
    <g
       id="g9284"
       transform="matrix(0.82492987,0,0,0.82467489,322.25413,-44.483523)">
      <g
         id="g9259">
        <path
           id="path9053"
           d="m 392.44687,867.78961 0,-0.17764 0.0111,-0.17764 0,-0.16653 0.0111,-0.16653 0.0111,-0.14433 0.0111,-0.14433 0.0222,-0.14433 0.0333,-0.12213 0.0333,-0.13322 0.0444,-0.11103 0.0555,-0.11102 0.0555,-0.0999 0.0666,-0.0999 0.0888,-0.0888 0.0888,-0.0888 0.0999,-0.0777 0.12213,-0.0666 0.13322,-0.0666 0.0666,-0.0333 0.0777,-0.0333 0.0777,-0.0222 0.0777,-0.0333 0.0888,-0.0222 0.0888,-0.0222 0.0888,-0.0222 0.0999,-0.0222 0.0999,-0.0222 0.11102,-0.0222 0.11103,-0.0222 0.12212,-0.0111 0.11102,-0.0111 0.13323,-0.0222 0.12213,-0.0111 0.14433,-0.0111 0.13322,-0.0111 0.14433,-0.0111 0.15543,-0.0111 0.15544,-0.0111 0.16653,0 0.16653,-0.0111 0.16654,0 0.17763,-0.0111 0.18874,0 0.18874,0 0.18874,0 0.21094,0 h 1.4322 v -1.72086 c -1.9429,0.17764 -6.30609,0.17764 -8.40442,0.17764 -2.15384,0 -6.52814,0 -8.47104,-0.17764 v 1.72086 h 1.4433 c 4.36319,0 4.54083,0.59952 4.54083,2.59793 v 29.14346 c 0,1.99841 -0.17764,2.59793 -4.54083,2.59793 h -1.4433 v 1.72085 c 1.9429,-0.17763 6.3172,-0.17763 8.41553,-0.17763 2.15384,0 6.51703,0 8.45993,0.17763 V 899.531 h -1.4322 c -4.37429,0 -4.55193,-0.59952 -4.55193,-2.59793 z"
           inkscape:connector-curvature="0"
           style="font-style:normal;font-variant:normal;font-weight:normal;font-stretch:normal;letter-spacing:normal;word-spacing:normal;text-anchor:start;fill:#000000;stroke:#000000;stroke-width:0;stroke-linecap:butt;stroke-linejoin:miter;stroke-miterlimit:10.43299961;stroke-opacity:1;stroke-dasharray:none;stroke-dashoffset:0" />
        <path
           id="path9055"
           d="m 406.08046,882.22256 v 14.83263 c 0,2.47581 -0.59952,2.47581 -4.31878,2.47581 v 1.72085 c 1.94289,-0.0555 4.75177,-0.17763 6.25058,-0.17763 1.44329,0 4.31878,0.12212 6.19506,0.17763 V 899.531 c -3.69705,0 -4.30768,0 -4.30768,-2.47581 v -10.18078 c 0,-5.76208 3.9191,-8.84851 7.46073,-8.84851 3.48611,0 4.09674,2.98651 4.09674,6.13956 v 12.88973 c 0,2.47581 -0.61063,2.47581 -4.31879,2.47581 v 1.72085 c 1.9429,-0.0555 4.76288,-0.17763 6.26168,-0.17763 1.4322,0 4.29658,0.12212 6.19507,0.17763 V 899.531 c -3.71926,0 -4.31878,0 -4.31878,-2.47581 v -10.18078 c 0,-5.76208 3.9302,-8.84851 7.47183,-8.84851 3.48611,0 4.09673,2.98651 4.09673,6.13956 v 12.88973 c 0,2.47581 -0.61062,2.47581 -4.31878,2.47581 v 1.72085 c 1.92069,-0.0555 4.75177,-0.17763 6.23948,-0.17763 1.44329,0 4.31878,0.12212 6.19506,0.17763 V 899.531 c -2.86438,0 -4.25217,0 -4.30768,-1.66534 V 887.3074 c 0,-4.75177 0,-6.47262 -1.70975,-8.44883 -0.78826,-0.95479 -2.60903,-2.04282 -5.81759,-2.04282 -4.64075,0 -7.07214,3.30848 -8.01584,5.40681 -0.77716,-4.80728 -4.87389,-5.40681 -7.3497,-5.40681 -4.04123,0 -6.63916,2.37589 -8.19348,5.78429 v -5.78429 l -7.80489,0.59953 v 1.72085 c 3.87469,0 4.31878,0.37748 4.31878,3.08643 z"
           inkscape:connector-curvature="0"
           style="font-style:normal;font-variant:normal;font-weight:normal;font-stretch:normal;letter-spacing:normal;word-spacing:normal;text-anchor:start;fill:#000000;stroke:#000000;stroke-width:0;stroke-linecap:butt;stroke-linejoin:miter;stroke-miterlimit:10.43299961;stroke-opacity:1;stroke-dasharray:none;stroke-dashoffset:0" />
        <path
           id="path9057"
           d="m 464.51171,897.05519 0.0333,0.21095 0.0222,0.19984 0.0444,0.21094 0.0444,0.19984 0.0555,0.21094 0.0666,0.19985 0.0666,0.19984 0.0777,0.19984 0.0777,0.19984 0.0888,0.18874 0.0999,0.19984 0.11102,0.17763 0.11103,0.17764 0.11102,0.17764 0.13323,0.17763 0.13322,0.15543 0.13323,0.15544 0.14433,0.15543 0.15543,0.14433 0.16654,0.13323 0.16653,0.13322 0.16654,0.11103 0.18873,0.11102 0.18874,0.0999 0.18874,0.0888 0.19984,0.0777 0.21094,0.0666 0.21095,0.0555 0.22204,0.0444 0.23315,0.0333 0.23315,0.0222 0.23315,0.0111 c 1.14353,0 4.52972,-0.78826 4.52972,-5.26248 v -3.08643 h -1.38778 v 3.08643 c 0,3.20856 -1.36558,3.54163 -1.99841,3.54163 -1.82077,0 -2.04282,-2.47581 -2.04282,-2.75337 v -11.06896 c 0,-2.33148 0,-4.47421 -1.9762,-6.52813 -2.16494,-2.14274 -4.92941,-3.03092 -7.58285,-3.03092 -4.54083,0 -8.36001,2.58682 -8.36001,6.23947 0,1.65424 1.11022,2.60904 2.55352,2.60904 1.54322,0 2.54242,-1.11023 2.54242,-2.55353 0,-0.65503 -0.27756,-2.4758 -2.81998,-2.55352 1.48771,-1.92069 4.19666,-2.53132 5.96192,-2.53132 2.73116,0 5.862,2.15384 5.862,7.08325 v 2.04282 1.16574 5.52893 c 0,5.26248 -3.96351,7.12766 -6.46152,7.12766 -2.70895,0 -4.98492,-1.9429 -4.98492,-4.69626 0,-3.03092 2.32037,-7.63837 11.44644,-7.96033 h 0 v -1.16574 c -2.80887,0.15543 -6.67246,0.33307 -10.15858,1.99841 -4.15225,1.87628 -5.54003,4.75177 -5.54003,7.18317 0,4.47421 5.3624,5.862 8.84851,5.862 3.66375,0 6.19507,-2.20936 7.24978,-4.80729 z"
           inkscape:connector-curvature="0"
           style="font-style:normal;font-variant:normal;font-weight:normal;font-stretch:normal;letter-spacing:normal;word-spacing:normal;text-anchor:start;fill:#000000;stroke:#000000;stroke-width:0;stroke-linecap:butt;stroke-linejoin:miter;stroke-miterlimit:10.43299961;stroke-opacity:1;stroke-dasharray:none;stroke-dashoffset:0" />
        <path
           id="path9059"
           d="m 479.66631,893.90215 0,-0.0333 0,-0.0222 0,-0.0333 0,-0.0444 0,-0.0444 0,-0.0555 0.0111,-0.0555 0,-0.0666 0.0111,-0.0555 0,-0.0777 0.0111,-0.0666 0.0111,-0.0777 0.0111,-0.0777 0.0222,-0.0888 0.0111,-0.0888 0.0222,-0.0888 0.0222,-0.0888 0.0333,-0.0888 0.0222,-0.0999 0.0333,-0.0999 0.0444,-0.0999 0.0333,-0.0999 0.0444,-0.0999 0.0444,-0.11102 0.0555,-0.0999 0.0555,-0.11103 0.0555,-0.0999 0.0666,-0.11102 0.0777,-0.0999 0.0666,-0.11102 0.0777,-0.0999 0.0888,-0.11103 c 2.16495,1.54322 4.41871,1.72086 5.48453,1.72086 v -1.26566 c -4.81839,0 -4.81839,-5.54004 -4.81839,-6.8168 0,-1.4988 0.0666,-3.26406 0.87708,-4.62964 0.45519,-0.67724 1.72085,-2.22046 3.94131,-2.22046 4.80728,0 4.80728,5.52893 4.80728,6.79459 0,1.48771 -0.0555,3.26407 -0.88818,4.65185 -0.43299,0.65504 -1.72085,2.22046 -3.9191,2.22046 h 0 v 1.26566 c 5.12924,0 8.94843,-3.81918 8.94843,-8.08246 0,-2.05392 -0.88819,-4.09673 -2.25376,-5.36239 1.9762,-1.87629 3.97461,-2.15384 4.97381,-2.15384 0.11103,0 0.38858,0 0.55512,0.0555 -0.62173,0.22204 -0.87708,0.83267 -0.87708,1.4877 0,0.94369 0.71054,1.59873 1.59872,1.59873 0.55512,0 1.58763,-0.37748 1.58763,-1.64314 0,-0.94369 -0.65504,-2.70895 -2.80888,-2.70895 -1.11022,0 -3.54162,0.33307 -5.862,2.58683 -2.32037,-1.82077 -4.65185,-1.97621 -5.86199,-1.97621 -5.15146,0 -8.97064,3.80808 -8.97064,8.06025 0,2.4314 1.21015,4.54083 2.59793,5.70657 -0.71054,0.82157 -1.70975,2.65344 -1.70975,4.58524 0,1.70975 0.72165,3.80808 2.4425,4.9183 -3.33068,0.9437 -5.09594,3.31958 -5.09594,5.54004 0,3.97461 5.47342,7.02773 12.2236,7.02773 l 0.0555,-1.26565 c -5.58444,0 -9.40362,-2.83108 -9.40362,-5.76208 0,-2.55353 2.09833,-4.59634 4.54083,-4.75178 h 3.26406 c 4.75178,0 10.94684,0 10.94684,4.75178 0,2.98651 -3.9191,5.76208 -9.34811,5.76208 h 0 l -0.0555,1.26565 c 6.52814,0 12.29021,-2.83107 12.29021,-7.13876 0,-1.94289 -0.78826,-4.76287 -3.59713,-6.30609 -2.931,-1.54321 -6.13956,-1.54321 -9.52575,-1.54321 -1.38778,0 -3.76367,0 -4.14115,-0.0555 -1.77636,-0.22205 -2.931,-1.9429 -2.931,-3.70816 z"
           inkscape:connector-curvature="0"
           style="font-style:normal;font-variant:normal;font-weight:normal;font-stretch:normal;letter-spacing:normal;word-spacing:normal;text-anchor:start;fill:#000000;stroke:#000000;stroke-width:0;stroke-linecap:butt;stroke-linejoin:miter;stroke-miterlimit:10.43299961;stroke-opacity:1;stroke-dasharray:none;stroke-dashoffset:0" />
        <path
           id="path9061"
           d="m 507.64404,888.47314 0.0555,-1.16574 c 0.33307,-8.23789 4.98492,-9.61457 6.8723,-9.61457 5.68437,0 6.23948,7.46073 6.23948,9.61457 h -13.11178 l -0.0555,1.16574 h 15.44325 c 1.21015,0 1.36558,0 1.36558,-1.16574 0,-5.46232 -2.9754,-10.82471 -9.88102,-10.82471 -6.41711,0 -11.52415,5.68436 -11.52415,12.61218 0,7.40521 5.81759,12.76761 12.17919,12.76761 6.75018,0 9.22598,-6.13956 9.22598,-7.18317 0,-0.55512 -0.43298,-0.67724 -0.71054,-0.67724 -0.4996,0 -0.59952,0.33307 -0.72165,0.77716 -1.93179,5.69546 -6.90561,5.69546 -7.46072,5.69546 -2.77557,0 -4.98492,-1.65424 -6.25058,-3.69705 -1.66534,-2.65345 -1.66534,-6.3172 -1.66534,-8.3045 z"
           inkscape:connector-curvature="0"
           style="font-style:normal;font-variant:normal;font-weight:normal;font-stretch:normal;letter-spacing:normal;word-spacing:normal;text-anchor:start;fill:#000000;stroke:#000000;stroke-width:0;stroke-linecap:butt;stroke-linejoin:miter;stroke-miterlimit:10.43299961;stroke-opacity:1;stroke-dasharray:none;stroke-dashoffset:0" />
        <path
           id="path9063"
           d="m 570.46069,889.41683 -0.0222,-0.65503 -0.0444,-0.65504 -0.0777,-0.64393 -0.11103,-0.63283 -0.13322,-0.62173 -0.16654,-0.61062 -0.19984,-0.59952 -0.21094,-0.58842 -0.25535,-0.56622 -0.26646,-0.55511 -0.29976,-0.54401 -0.32197,-0.52181 -0.34417,-0.5107 -0.35527,-0.4885 -0.38858,-0.4774 -0.41078,-0.44409 -0.42189,-0.43299 -0.44409,-0.41079 -0.4663,-0.38858 -0.47739,-0.35527 -0.49961,-0.34417 -0.5107,-0.31086 -0.52181,-0.28866 -0.54401,-0.26646 -0.55511,-0.23314 -0.56622,-0.19984 -0.57732,-0.17764 -0.58842,-0.14433 -0.59952,-0.12213 -0.61062,-0.0777 -0.61063,-0.0555 -0.63283,-0.0111 -0.0444,1.21014 c 2.4203,0 4.79618,1.22125 6.23948,3.59714 1.4433,2.37588 1.4433,5.58444 1.4433,7.68277 0,1.99841 0,4.97382 -1.22125,7.40522 -1.21015,2.49801 -3.64155,4.09673 -6.41712,4.09673 h 0 c -2.37588,0 -4.79618,-1.16574 -6.29498,-3.69705 -1.38779,-2.4425 -1.38779,-5.80649 -1.38779,-7.8049 0,-2.15384 0,-5.14035 1.32117,-7.58285 1.50991,-2.53132 4.09674,-3.69706 6.31719,-3.69706 l 0.0444,-1.21014 c -6.90561,0 -12.27911,6.01743 -12.27911,12.93414 0,7.13876 5.76208,12.44565 12.2347,12.44565 6.69467,0 12.27912,-5.41791 12.27912,-12.44565 z"
           inkscape:connector-curvature="0"
           style="font-style:normal;font-variant:normal;font-weight:normal;font-stretch:normal;letter-spacing:normal;word-spacing:normal;text-anchor:start;fill:#000000;stroke:#000000;stroke-width:0;stroke-linecap:butt;stroke-linejoin:miter;stroke-miterlimit:10.43299961;stroke-opacity:1;stroke-dasharray:none;stroke-dashoffset:0" />
        <path
           id="path9065"
           d="m 581.7961,877.41528 v -6.41712 c 0,-4.87389 2.65345,-7.52734 5.07374,-7.52734 0.17764,0 1.01031,0 1.84298,0.39969 -0.67724,0.21094 -1.66534,0.93259 -1.66534,2.30927 0,1.27676 0.88818,2.38699 2.37588,2.38699 1.59873,0 2.4314,-1.11023 2.4314,-2.4425 0,-2.04282 -2.05392,-3.86359 -4.98492,-3.86359 -3.86359,0 -8.57095,2.931 -8.57095,8.79299 v 6.36161 h -4.36319 v 1.72085 h 4.36319 v 17.91906 c 0,2.47581 -0.59952,2.47581 -4.31878,2.47581 v 1.72085 c 2.17604,-0.0555 4.77397,-0.17763 6.31719,-0.17763 2.20935,0 4.80728,0 7.02773,0.17763 V 899.531 h -1.16573 c -4.08564,0 -4.19666,-0.59952 -4.19666,-2.59793 v -17.79694 h 6.29499 v -1.72085 z"
           inkscape:connector-curvature="0"
           style="font-style:normal;font-variant:normal;font-weight:normal;font-stretch:normal;letter-spacing:normal;word-spacing:normal;text-anchor:start;fill:#000000;stroke:#000000;stroke-width:0;stroke-linecap:butt;stroke-linejoin:miter;stroke-miterlimit:10.43299961;stroke-opacity:1;stroke-dasharray:none;stroke-dashoffset:0" />
      </g>
      <g
         transform="translate(-280,80)"
         id="g9268">
        <path
           id="path9067"
           d="m 617.20125,862.8602 -7.96033,0.61062 v 1.72086 c 3.86359,0 4.31878,0.37747 4.31878,3.09753 v 28.76598 c 0,2.47581 -0.61062,2.47581 -4.31878,2.47581 v 1.72085 c 1.82077,-0.0555 4.75177,-0.17763 6.13955,-0.17763 1.38779,0 4.09674,0.12212 6.13956,0.17763 V 899.531 c -3.70816,0 -4.31878,0 -4.31878,-2.47581 z"
           inkscape:connector-curvature="0"
           style="font-style:normal;font-variant:normal;font-weight:normal;font-stretch:normal;letter-spacing:normal;word-spacing:normal;text-anchor:start;fill:#000000;stroke:#000000;stroke-width:0;stroke-linecap:butt;stroke-linejoin:miter;stroke-miterlimit:10.43299961;stroke-opacity:1;stroke-dasharray:none;stroke-dashoffset:0" />
        <path
           id="path9069"
           d="m 628.88084,888.47314 0.0444,-1.16574 c 0.33307,-8.23789 4.98492,-9.61457 6.87231,-9.61457 5.68436,0 6.23948,7.46073 6.23948,9.61457 h -13.11179 l -0.0444,1.16574 h 15.43215 c 1.22125,0 1.37668,0 1.37668,-1.16574 0,-5.46232 -2.98651,-10.82471 -9.89212,-10.82471 -6.41711,0 -11.52416,5.68436 -11.52416,12.61218 0,7.40521 5.81759,12.76761 12.17919,12.76761 6.75018,0 9.23709,-6.13956 9.23709,-7.18317 0,-0.55512 -0.43298,-0.67724 -0.71054,-0.67724 -0.51071,0 -0.61063,0.33307 -0.73275,0.77716 -1.9318,5.69546 -6.90561,5.69546 -7.46073,5.69546 -2.77557,0 -4.97382,-1.65424 -6.23947,-3.69705 -1.66534,-2.65345 -1.66534,-6.3172 -1.66534,-8.3045 z"
           inkscape:connector-curvature="0"
           style="font-style:normal;font-variant:normal;font-weight:normal;font-stretch:normal;letter-spacing:normal;word-spacing:normal;text-anchor:start;fill:#000000;stroke:#000000;stroke-width:0;stroke-linecap:butt;stroke-linejoin:miter;stroke-miterlimit:10.43299961;stroke-opacity:1;stroke-dasharray:none;stroke-dashoffset:0" />
        <path
           id="path9071"
           d="m 656.92517,877.41528 v -6.41712 c 0,-4.87389 2.65344,-7.52734 5.08484,-7.52734 0.17764,0 1.01031,0 1.84298,0.39969 -0.67724,0.21094 -1.66534,0.93259 -1.66534,2.30927 0,1.27676 0.87708,2.38699 2.37588,2.38699 1.58763,0 2.4203,-1.11023 2.4203,-2.4425 0,-2.04282 -2.04282,-3.86359 -4.97382,-3.86359 -3.87469,0 -8.57095,2.931 -8.57095,8.79299 v 6.36161 h -4.3743 v 1.72085 h 4.3743 v 17.91906 c 0,2.47581 -0.61063,2.47581 -4.31878,2.47581 v 1.72085 c 2.16494,-0.0555 4.77397,-0.17763 6.31719,-0.17763 2.19825,0 4.80728,0 7.02774,0.17763 V 899.531 h -1.16574 c -4.09674,0 -4.19666,-0.59952 -4.19666,-2.59793 v -17.79694 h 6.29499 v -1.72085 z"
           inkscape:connector-curvature="0"
           style="font-style:normal;font-variant:normal;font-weight:normal;font-stretch:normal;letter-spacing:normal;word-spacing:normal;text-anchor:start;fill:#000000;stroke:#000000;stroke-width:0;stroke-linecap:butt;stroke-linejoin:miter;stroke-miterlimit:10.43299961;stroke-opacity:1;stroke-dasharray:none;stroke-dashoffset:0" />
        <path
           id="path9073"
           d="m 673.74511,879.13613 h 7.90482 v -1.72085 h -7.90482 v -10.18079 h -1.38778 c -0.0555,4.52973 -1.72085,10.45834 -7.13876,10.66929 v 1.23235 h 4.70736 v 15.26562 c 0,6.79459 5.12925,7.46073 7.12766,7.46073 3.9191,0 5.48452,-3.9191 5.48452,-7.46073 v -3.15304 h -1.38778 v 3.03092 c 0,4.09673 -1.66534,6.19506 -3.71926,6.19506 -3.68596,0 -3.68596,-5.02933 -3.68596,-5.97302 z"
           inkscape:connector-curvature="0"
           style="font-style:normal;font-variant:normal;font-weight:normal;font-stretch:normal;letter-spacing:normal;word-spacing:normal;text-anchor:start;fill:#000000;stroke:#000000;stroke-width:0;stroke-linecap:butt;stroke-linejoin:miter;stroke-miterlimit:10.43299961;stroke-opacity:1;stroke-dasharray:none;stroke-dashoffset:0" />
        <path
           id="path9075"
           d="m 710.21607,897.05519 0,0.11103 0,0.11102 -0.0111,0.21094 -0.0111,0.19984 -0.0111,0.18874 -0.0222,0.16654 -0.0222,0.16653 -0.0333,0.14433 -0.0444,0.13323 -0.0444,0.12212 -0.0555,0.12213 -0.0555,0.0999 -0.0777,0.0999 -0.0777,0.0888 -0.0888,0.0777 -0.0999,0.0666 -0.11102,0.0555 -0.12213,0.0555 -0.13323,0.0555 -0.14433,0.0333 -0.15543,0.0444 -0.16653,0.0222 -0.17764,0.0333 -0.19984,0.0111 -0.0999,0.0111 -0.11102,0.0111 -0.11102,0.0111 -0.11103,0 -0.12212,0.0111 -0.12213,0 -0.12212,0 -0.13323,0.0111 -0.13323,0 -0.13322,0 -0.14433,0 -0.14433,0 -0.15543,0 -0.14433,0 -0.16654,0 -0.15543,0 -0.16653,0 -0.17764,0 v 1.72085 c 1.9429,-0.0555 4.75177,-0.17763 6.25058,-0.17763 1.43219,0 4.31878,0.12212 6.18396,0.17763 V 899.531 c -3.68595,0 -4.29658,0 -4.29658,-2.47581 v -10.18078 c 0,-5.76208 3.91911,-8.84851 7.46073,-8.84851 3.48611,0 4.08564,2.98651 4.08564,6.13956 v 12.88973 c 0,2.47581 -0.59953,2.47581 -4.30769,2.47581 v 1.72085 c 1.9429,-0.0555 4.76288,-0.17763 6.25058,-0.17763 1.4433,0 4.30768,0.12212 6.19507,0.17763 V 899.531 c -2.87549,0 -4.26327,0 -4.31878,-1.66534 V 887.3074 c 0,-4.75177 0,-6.47262 -1.70975,-8.44883 -0.76606,-0.95479 -2.60904,-2.04282 -5.79539,-2.04282 -4.65185,0 -7.09435,3.30848 -8.03804,5.40681 V 862.8602 l -7.96033,0.61062 v 1.72086 c 3.86359,0 4.31878,0.37747 4.31878,3.09753 z"
           inkscape:connector-curvature="0"
           style="font-style:normal;font-variant:normal;font-weight:normal;font-stretch:normal;letter-spacing:normal;word-spacing:normal;text-anchor:start;fill:#000000;stroke:#000000;stroke-width:0;stroke-linecap:butt;stroke-linejoin:miter;stroke-miterlimit:10.43299961;stroke-opacity:1;stroke-dasharray:none;stroke-dashoffset:0" />
        <path
           id="path9077"
           d="m 753.32619,897.05519 0.0222,0.21095 0.0333,0.19984 0.0444,0.21094 0.0444,0.19984 0.0555,0.21094 0.0555,0.19985 0.0777,0.19984 0.0666,0.19984 0.0888,0.19984 0.0888,0.18874 0.0999,0.19984 0.0999,0.17763 0.11102,0.17764 0.12213,0.17764 0.12212,0.17763 0.13323,0.15543 0.14433,0.15544 0.14433,0.15543 0.15543,0.14433 0.15543,0.13323 0.16654,0.13322 0.17763,0.11103 0.17764,0.11102 0.18874,0.0999 0.19984,0.0888 0.19984,0.0777 0.21094,0.0666 0.21095,0.0555 0.22204,0.0444 0.22205,0.0333 0.23314,0.0222 0.24425,0.0111 c 1.14354,0 4.52973,-0.78826 4.52973,-5.26248 v -3.08643 h -1.38778 v 3.08643 c 0,3.20856 -1.37668,3.54163 -1.99841,3.54163 -1.82077,0 -2.04282,-2.47581 -2.04282,-2.75337 v -11.06896 c 0,-2.33148 0,-4.47421 -1.9762,-6.52813 -2.17605,-2.14274 -4.92941,-3.03092 -7.58285,-3.03092 -4.54083,0 -8.36001,2.58682 -8.36001,6.23947 0,1.65424 1.11022,2.60904 2.54242,2.60904 1.55431,0 2.55352,-1.11023 2.55352,-2.55353 0,-0.65503 -0.27756,-2.4758 -2.83108,-2.55352 1.4988,-1.92069 4.19666,-2.53132 5.97302,-2.53132 2.72006,0 5.862,2.15384 5.862,7.08325 v 2.04282 1.16574 5.52893 c 0,5.26248 -3.97461,7.12766 -6.47262,7.12766 -2.69786,0 -4.97382,-1.9429 -4.97382,-4.69626 0,-3.03092 2.32037,-7.63837 11.44644,-7.96033 h 0 v -1.16574 c -2.80888,0.15543 -6.67247,0.33307 -10.16968,1.99841 -4.14115,1.87628 -5.52893,4.75177 -5.52893,7.18317 0,4.47421 5.36239,5.862 8.84851,5.862 3.65265,0 6.19507,-2.20936 7.24978,-4.80729 z"
           inkscape:connector-curvature="0"
           style="font-style:normal;font-variant:normal;font-weight:normal;font-stretch:normal;letter-spacing:normal;word-spacing:normal;text-anchor:start;fill:#000000;stroke:#000000;stroke-width:0;stroke-linecap:butt;stroke-linejoin:miter;stroke-miterlimit:10.43299961;stroke-opacity:1;stroke-dasharray:none;stroke-dashoffset:0" />
        <path
           id="path9079"
           d="m 772.39989,862.8602 -7.97143,0.61062 v 1.72086 c 3.87469,0 4.31879,0.37747 4.31879,3.09753 v 28.76598 c 0,2.47581 -0.59953,2.47581 -4.31879,2.47581 v 1.72085 c 1.82077,-0.0555 4.75177,-0.17763 6.13956,-0.17763 1.38778,0 4.09674,0.12212 6.15066,0.17763 V 899.531 c -3.71926,0 -4.31879,0 -4.31879,-2.47581 z"
           inkscape:connector-curvature="0"
           style="font-style:normal;font-variant:normal;font-weight:normal;font-stretch:normal;letter-spacing:normal;word-spacing:normal;text-anchor:start;fill:#000000;stroke:#000000;stroke-width:0;stroke-linecap:butt;stroke-linejoin:miter;stroke-miterlimit:10.43299961;stroke-opacity:1;stroke-dasharray:none;stroke-dashoffset:0" />
        <path
           id="path9081"
           d="m 787.61,877.41528 v -6.41712 c 0,-4.87389 2.65345,-7.52734 5.08484,-7.52734 0.16654,0 0.99921,0 1.83188,0.39969 -0.67724,0.21094 -1.66534,0.93259 -1.66534,2.30927 0,1.27676 0.88818,2.38699 2.37588,2.38699 1.59873,0 2.4314,-1.11023 2.4314,-2.4425 0,-2.04282 -2.04282,-3.86359 -4.97382,-3.86359 -3.87469,0 -8.57095,2.931 -8.57095,8.79299 v 6.36161 h -4.37429 v 1.72085 h 4.37429 v 17.91906 c 0,2.47581 -0.61062,2.47581 -4.31878,2.47581 v 1.72085 c 2.16494,-0.0555 4.76287,-0.17763 6.30609,-0.17763 2.20935,0 4.80728,0 7.02773,0.17763 V 899.531 h -1.15463 c -4.09674,0 -4.20776,-0.59952 -4.20776,-2.59793 v -17.79694 h 6.30609 v -1.72085 z"
           inkscape:connector-curvature="0"
           style="font-style:normal;font-variant:normal;font-weight:normal;font-stretch:normal;letter-spacing:normal;word-spacing:normal;text-anchor:start;fill:#000000;stroke:#000000;stroke-width:0;stroke-linecap:butt;stroke-linejoin:miter;stroke-miterlimit:10.43299961;stroke-opacity:1;stroke-dasharray:none;stroke-dashoffset:0" />
        <polygon
           id="polygon9083"
           points="842.92,415.51 842.92,418.4 829.72,418.4 829.72,415.51 "
           style="font-style:normal;font-variant:normal;font-weight:normal;font-stretch:normal;letter-spacing:normal;word-spacing:normal;text-anchor:start;fill:#000000;stroke:#000000;stroke-width:0;stroke-linecap:butt;stroke-linejoin:miter;stroke-miterlimit:10.43299961;stroke-opacity:1;stroke-dasharray:none;stroke-dashoffset:0"
           transform="matrix(1.1102271,0,0,-1.1102271,-125.71832,1352.2261)" />
        <path
           id="path9085"
           d="m 822.73759,880.4573 v -3.64155 l -7.96033,0.59953 v 1.72085 c 3.9302,0 4.31878,0.33307 4.31878,2.75336 v 25.8905 c 0,2.49801 -0.61062,2.49801 -4.31878,2.49801 v 1.70975 c 1.88739,-0.0666 4.75177,-0.16654 6.19507,-0.16654 1.4877,0 4.31878,0.0999 6.26168,0.16654 V 910.278 c -3.71926,0 -4.31878,0 -4.31878,-2.49801 v -9.2815 -0.51071 l 0.77715,-0.72164 c -0.77715,-1.16574 -0.77715,-1.22125 -0.77715,-2.30928 h 0 v -12.35682 c 1.58762,-2.80888 4.31878,-4.41871 7.12765,-4.41871 4.04123,0 7.41632,4.8739 7.41632,11.12448 0,6.69467 -3.88579,11.33542 -7.97143,11.33542 -2.20935,0 -4.30768,-1.11023 -5.79539,-3.37509 l -0.77715,0.72164 c 0.27755,0.88819 2.59793,3.8747 6.79459,3.8747 6.59474,0 12.33462,-5.41791 12.33462,-12.55667 0,-7.02774 -5.3624,-12.49006 -11.55747,-12.49006 -4.31878,0 -6.63915,2.4203 -7.74938,3.64155 z"
           inkscape:connector-curvature="0"
           style="font-style:normal;font-variant:normal;font-weight:normal;font-stretch:normal;letter-spacing:normal;word-spacing:normal;text-anchor:start;fill:#000000;stroke:#000000;stroke-width:0;stroke-linecap:butt;stroke-linejoin:miter;stroke-miterlimit:10.43299961;stroke-opacity:1;stroke-dasharray:none;stroke-dashoffset:0" />
        <path
           id="path9087"
           d="m 853.79064,862.8602 -7.96033,0.61062 v 1.72086 c 3.86359,0 4.31879,0.37747 4.31879,3.09753 v 28.76598 c 0,2.47581 -0.61063,2.47581 -4.31879,2.47581 v 1.72085 c 1.82078,-0.0555 4.75177,-0.17763 6.13956,-0.17763 1.38778,0 4.08563,0.12212 6.13955,0.17763 V 899.531 c -3.71926,0 -4.31878,0 -4.31878,-2.47581 z"
           inkscape:connector-curvature="0"
           style="font-style:normal;font-variant:normal;font-weight:normal;font-stretch:normal;letter-spacing:normal;word-spacing:normal;text-anchor:start;fill:#000000;stroke:#000000;stroke-width:0;stroke-linecap:butt;stroke-linejoin:miter;stroke-miterlimit:10.43299961;stroke-opacity:1;stroke-dasharray:none;stroke-dashoffset:0" />
        <path
           id="path9089"
           d="m 877.74934,897.05519 0.0222,0.21095 0.0333,0.19984 0.0333,0.21094 0.0555,0.19984 0.0444,0.21094 0.0666,0.19985 0.0666,0.19984 0.0777,0.19984 0.0777,0.19984 0.0999,0.18874 0.0888,0.19984 0.11102,0.17763 0.11102,0.17764 0.12213,0.17764 0.12212,0.17763 0.13323,0.15543 0.13323,0.15544 0.15543,0.15543 0.14433,0.14433 0.16653,0.13323 0.16654,0.13322 0.17763,0.11103 0.17764,0.11102 0.18874,0.0999 0.18874,0.0888 0.19984,0.0777 0.21094,0.0666 0.22205,0.0555 0.21094,0.0444 0.23315,0.0333 0.23315,0.0222 0.24425,0.0111 c 1.14353,0 4.51862,-0.78826 4.51862,-5.26248 v -3.08643 h -1.38778 v 3.08643 c 0,3.20856 -1.36558,3.54163 -1.98731,3.54163 -1.82077,0 -2.05392,-2.47581 -2.05392,-2.75337 v -11.06896 c 0,-2.33148 0,-4.47421 -1.9762,-6.52813 -2.16495,-2.14274 -4.91831,-3.03092 -7.58286,-3.03092 -4.54082,0 -8.36001,2.58682 -8.36001,6.23947 0,1.65424 1.11023,2.60904 2.55353,2.60904 1.54321,0 2.55352,-1.11023 2.55352,-2.55353 0,-0.65503 -0.27756,-2.4758 -2.83108,-2.55352 1.4877,-1.92069 4.19666,-2.53132 5.97302,-2.53132 2.72006,0 5.862,2.15384 5.862,7.08325 v 2.04282 1.16574 5.52893 c 0,5.26248 -3.97461,7.12766 -6.47262,7.12766 -2.70896,0 -4.98492,-1.9429 -4.98492,-4.69626 0,-3.03092 2.33147,-7.63837 11.45754,-7.96033 h 0 v -1.16574 c -2.80887,0.15543 -6.68357,0.33307 -10.16968,1.99841 -4.14115,1.87628 -5.52893,4.75177 -5.52893,7.18317 0,4.47421 5.35129,5.862 8.83741,5.862 3.66375,0 6.19506,-2.20936 7.26088,-4.80729 z"
           inkscape:connector-curvature="0"
           style="font-style:normal;font-variant:normal;font-weight:normal;font-stretch:normal;letter-spacing:normal;word-spacing:normal;text-anchor:start;fill:#000000;stroke:#000000;stroke-width:0;stroke-linecap:butt;stroke-linejoin:miter;stroke-miterlimit:10.43299961;stroke-opacity:1;stroke-dasharray:none;stroke-dashoffset:0" />
        <path
           id="path9091"
           d="m 893.11489,882.22256 v 14.83263 c 0,2.47581 -0.59953,2.47581 -4.31879,2.47581 v 1.72085 c 1.9429,-0.0555 4.75177,-0.17763 6.25058,-0.17763 1.4433,0 4.31878,0.12212 6.19507,0.17763 V 899.531 c -3.69706,0 -4.30768,0 -4.30768,-2.47581 v -10.18078 c 0,-5.76208 3.9191,-8.84851 7.46072,-8.84851 3.48612,0 4.09674,2.98651 4.09674,6.13956 v 12.88973 c 0,2.47581 -0.61062,2.47581 -4.31878,2.47581 v 1.72085 c 1.94289,-0.0555 4.76287,-0.17763 6.26168,-0.17763 1.43219,0 4.29658,0.12212 6.18396,0.17763 V 899.531 c -2.87549,0 -4.26327,0 -4.30768,-1.66534 V 887.3074 c 0,-4.75177 0,-6.47262 -1.72085,-8.44883 -0.76606,-0.95479 -2.60903,-2.04282 -5.79539,-2.04282 -4.04122,0 -6.63915,2.37589 -8.19347,5.78429 v -5.78429 l -7.8049,0.59953 v 1.72085 c 3.87469,0 4.31879,0.37748 4.31879,3.08643 z"
           inkscape:connector-curvature="0"
           style="font-style:normal;font-variant:normal;font-weight:normal;font-stretch:normal;letter-spacing:normal;word-spacing:normal;text-anchor:start;fill:#000000;stroke:#000000;stroke-width:0;stroke-linecap:butt;stroke-linejoin:miter;stroke-miterlimit:10.43299961;stroke-opacity:1;stroke-dasharray:none;stroke-dashoffset:0" />
        <path
           id="path9093"
           d="m 923.94589,888.47314 0.0555,-1.16574 c 0.32197,-8.23789 4.97382,-9.61457 6.86121,-9.61457 5.69546,0 6.25058,7.46073 6.25058,9.61457 H 924.0014 l -0.0555,1.16574 h 15.43216 c 1.22125,0 1.37668,0 1.37668,-1.16574 0,-5.46232 -2.98651,-10.82471 -9.89212,-10.82471 -6.41712,0 -11.51306,5.68436 -11.51306,12.61218 0,7.40521 5.80649,12.76761 12.17919,12.76761 6.73908,0 9.22599,-6.13956 9.22599,-7.18317 0,-0.55512 -0.43299,-0.67724 -0.71055,-0.67724 -0.4996,0 -0.61062,0.33307 -0.73275,0.77716 -1.92069,5.69546 -6.90561,5.69546 -7.46072,5.69546 -2.77557,0 -4.97382,-1.65424 -6.23948,-3.69705 -1.66534,-2.65345 -1.66534,-6.3172 -1.66534,-8.3045 z"
           inkscape:connector-curvature="0"
           style="font-style:normal;font-variant:normal;font-weight:normal;font-stretch:normal;letter-spacing:normal;word-spacing:normal;text-anchor:start;fill:#000000;stroke:#000000;stroke-width:0;stroke-linecap:butt;stroke-linejoin:miter;stroke-miterlimit:10.43299961;stroke-opacity:1;stroke-dasharray:none;stroke-dashoffset:0" />
      </g>
    </g>
    <path
       inkscape:connector-curvature="0"
       id="path7269-7"
       d="m 812.03063,662.34978 83.20008,-76.10571"
       style="fill:none;stroke:#000000;stroke-width:2.5;stroke-linecap:butt;stroke-linejoin:miter;stroke-miterlimit:4;stroke-opacity:1;stroke-dasharray:none;marker-start:none;marker-end:url(#Arrow1Lend)" />
  </g>
</svg>
