<?xml version="1.0" encoding="UTF-8" standalone="no"?>
<!-- Created with Inkscape (http://www.inkscape.org/) -->

<svg
   xmlns:ns0="http://www.iki.fi/pav/software/textext/"
   xmlns:dc="http://purl.org/dc/elements/1.1/"
   xmlns:cc="http://creativecommons.org/ns#"
   xmlns:rdf="http://www.w3.org/1999/02/22-rdf-syntax-ns#"
   xmlns:svg="http://www.w3.org/2000/svg"
   xmlns="http://www.w3.org/2000/svg"
   xmlns:xlink="http://www.w3.org/1999/xlink"
   xmlns:sodipodi="http://sodipodi.sourceforge.net/DTD/sodipodi-0.dtd"
   xmlns:inkscape="http://www.inkscape.org/namespaces/inkscape"
   width="483.80719mm"
   height="126.83429mm"
   viewBox="0 0 1714.2774 449.41286"
   id="svg21338"
   version="1.1"
   inkscape:version="0.91 r13725"
   sodipodi:docname="steeringTestWPController.svg">
  <sodipodi:namedview
     id="base"
     pagecolor="#ffffff"
     bordercolor="#666666"
     borderopacity="1.0"
     inkscape:pageopacity="0.0"
     inkscape:pageshadow="2"
     inkscape:zoom="0.49497475"
     inkscape:cx="821.95223"
     inkscape:cy="430.44423"
     inkscape:document-units="px"
     inkscape:current-layer="layer1"
     showgrid="false"
     fit-margin-top="0"
     fit-margin-left="0"
     fit-margin-right="0"
     fit-margin-bottom="0"
     inkscape:window-width="1024"
     inkscape:window-height="1243"
     inkscape:window-x="1920"
     inkscape:window-y="0"
     inkscape:window-maximized="1" />
  <defs
     id="defs21340">
    <marker
       style="overflow:visible"
       id="Arrow1Lend"
       refX="0"
       refY="0"
       orient="auto"
       inkscape:stockid="Arrow1Lend">
      <path
         transform="matrix(-0.8,0,0,-0.8,-10,0)"
         style="fill-rule:evenodd;stroke:#000000;stroke-width:1pt"
         d="M 0,0 5,-5 -12.5,0 5,5 0,0 Z"
         id="path4095"
         inkscape:connector-curvature="0" />
    </marker>
    <marker
       style="overflow:visible"
       id="marker21052"
       refX="0"
       refY="0"
       orient="auto"
       inkscape:stockid="Arrow1Lend">
      <path
         transform="matrix(-0.8,0,0,-0.8,-10,0)"
         style="fill-rule:evenodd;stroke:#000000;stroke-width:1pt"
         d="M 0,0 5,-5 -12.5,0 5,5 0,0 Z"
         id="path21054"
         inkscape:connector-curvature="0" />
    </marker>
    <marker
       style="overflow:visible"
       id="marker21056"
       refX="0"
       refY="0"
       orient="auto"
       inkscape:stockid="Arrow1Lend">
      <path
         transform="matrix(-0.8,0,0,-0.8,-10,0)"
         style="fill-rule:evenodd;stroke:#000000;stroke-width:1pt"
         d="M 0,0 5,-5 -12.5,0 5,5 0,0 Z"
         id="path21058"
         inkscape:connector-curvature="0" />
    </marker>
    <marker
       style="overflow:visible"
       id="marker21060"
       refX="0"
       refY="0"
       orient="auto"
       inkscape:stockid="Arrow1Lend">
      <path
         transform="matrix(-0.8,0,0,-0.8,-10,0)"
         style="fill-rule:evenodd;stroke:#000000;stroke-width:1pt"
         d="M 0,0 5,-5 -12.5,0 5,5 0,0 Z"
         id="path21062"
         inkscape:connector-curvature="0" />
    </marker>
    <marker
       style="overflow:visible"
       id="marker21064"
       refX="0"
       refY="0"
       orient="auto"
       inkscape:stockid="Arrow1Lend">
      <path
         transform="matrix(-0.8,0,0,-0.8,-10,0)"
         style="fill-rule:evenodd;stroke:#000000;stroke-width:1pt"
         d="M 0,0 5,-5 -12.5,0 5,5 0,0 Z"
         id="path21066"
         inkscape:connector-curvature="0" />
    </marker>
    <marker
       style="overflow:visible"
       id="marker21068"
       refX="0"
       refY="0"
       orient="auto"
       inkscape:stockid="Arrow1Lend">
      <path
         transform="matrix(-0.8,0,0,-0.8,-10,0)"
         style="fill-rule:evenodd;stroke:#000000;stroke-width:1pt"
         d="M 0,0 5,-5 -12.5,0 5,5 0,0 Z"
         id="path21070"
         inkscape:connector-curvature="0" />
    </marker>
    <marker
       style="overflow:visible"
       id="marker21072"
       refX="0"
       refY="0"
       orient="auto"
       inkscape:stockid="Arrow1Lend">
      <path
         transform="matrix(-0.8,0,0,-0.8,-10,0)"
         style="fill-rule:evenodd;stroke:#000000;stroke-width:1pt"
         d="M 0,0 5,-5 -12.5,0 5,5 0,0 Z"
         id="path21074"
         inkscape:connector-curvature="0" />
    </marker>
  </defs>
  <metadata
     id="metadata21343">
    <rdf:RDF>
      <cc:Work
         rdf:about="">
        <dc:format>image/svg+xml</dc:format>
        <dc:type
           rdf:resource="http://purl.org/dc/dcmitype/StillImage" />
        <dc:title></dc:title>
      </cc:Work>
    </rdf:RDF>
  </metadata>
  <g
     inkscape:label="Calque 1"
     inkscape:groupmode="layer"
     id="layer1"
     transform="translate(1042.0258,12.344232)">
    <g
       transform="matrix(0.66927186,0,0,0.66873068,235.18561,-361.99873)"
       id="g3908" />
    <rect
       style="fill:none;stroke:#000000;stroke-width:1;stroke-linecap:butt;stroke-linejoin:round;stroke-miterlimit:4;stroke-dasharray:none;stroke-dashoffset:0;stroke-opacity:1"
       id="rect5509-1"
       width="128.37183"
       height="125.42694"
       x="-493.00928"
       y="4.3336048" />
    <rect
       y="4.3336048"
       x="-100.77835"
       height="125.42694"
       width="216.94325"
       id="rect3085"
       style="fill:none;stroke:#000000;stroke-width:0.99999994;stroke-linecap:butt;stroke-linejoin:round;stroke-miterlimit:4;stroke-dasharray:none;stroke-dashoffset:0;stroke-opacity:1" />
    <rect
       style="fill:none;stroke:#000000;stroke-width:1;stroke-linecap:butt;stroke-linejoin:round;stroke-miterlimit:4;stroke-dasharray:none;stroke-dashoffset:0;stroke-opacity:1"
       id="rect3087"
       width="128.37183"
       height="125.42694"
       x="322.80457"
       y="4.3336048" />
    <g
       id="g3455"
       transform="matrix(3.388382,0,0,3.3988634,-43.620557,-1518.2222)">
      <g
         word-spacing="normal"
         letter-spacing="normal"
         font-size-adjust="none"
         font-stretch="normal"
         font-weight="normal"
         font-variant="normal"
         font-style="normal"
         stroke-miterlimit="10.433"
         xml:space="preserve"
         transform="matrix(0.4279517,0,0,-0.4279517,-74.891548,645.63775)"
         id="g3457"
         style="font-style:normal;font-variant:normal;font-weight:normal;font-stretch:normal;letter-spacing:normal;word-spacing:normal;text-anchor:start;fill:none;stroke:#000000;stroke-width:0.29467073;stroke-linecap:butt;stroke-linejoin:miter;stroke-miterlimit:10.43299961;stroke-dasharray:none;stroke-dashoffset:0;stroke-opacity:1"><path
           id="path3459"
           d="m 473.19,447.92 0,0.04 0,0.04 0,0.05 0,0.04 0,0.03 0,0.04 0,0.04 0,0.03 -0.01,0.04 0,0.03 0,0.03 0,0.03 0,0.03 -0.01,0.03 0,0.03 0,0.02 -0.01,0.03 0,0.02 -0.01,0.03 0,0.02 -0.02,0.04 -0.01,0.04 -0.02,0.03 -0.02,0.03 -0.02,0.03 -0.02,0.03 -0.03,0.02 -0.03,0.02 -0.03,0.02 -0.04,0.01 -0.04,0.01 -0.05,0.02 -0.02,0 -0.02,0 -0.03,0.01 -0.03,0 -0.02,0.01 -0.03,0 -0.03,0 -0.03,0 -0.03,0 -0.04,0.01 -0.03,0 -0.04,0 -0.03,0 -0.04,0 -0.04,0 -0.04,0 -0.04,0 -0.05,0 -0.04,0 -0.05,0 c -2.23,-2.2 -5.39,-2.23 -6.82,-2.23 l 0,-1.25 c 0.84,0 3.14,0 5.04,0.97 l 0,-17.77 c 0,-1.16 0,-1.61 -3.48,-1.61 l -1.31,0 0,-1.25 c 0.62,0.03 4.9,0.14 6.2,0.14 1.08,0 5.47,-0.11 6.23,-0.14 l 0,1.25 -1.32,0 c -3.49,0 -3.49,0.45 -3.49,1.61 z"
           inkscape:connector-curvature="0"
           style="fill:#000000;stroke-width:0" /><polyline
           id="polyline3461"
           points="462,418 481.92,418 481.92,420.04 462,420.04 "
           style="fill:#000000;fill-rule:nonzero;stroke-width:0" /><path
           id="path3463"
           d="m 477.02,402.13 -0.09,-0.02 -0.08,-0.02 -0.08,-0.03 -0.08,-0.03 -0.07,-0.03 -0.08,-0.03 -0.07,-0.04 -0.07,-0.04 -0.06,-0.04 -0.07,-0.05 -0.06,-0.04 -0.06,-0.05 -0.05,-0.05 -0.06,-0.05 -0.05,-0.05 -0.05,-0.06 -0.04,-0.05 -0.05,-0.06 -0.04,-0.06 -0.04,-0.06 -0.03,-0.06 -0.03,-0.06 -0.03,-0.06 -0.03,-0.07 -0.02,-0.06 -0.03,-0.06 -0.01,-0.07 -0.02,-0.06 -0.01,-0.07 -0.01,-0.06 0,-0.07 0,-0.06 c 0,-0.81 0.7,-1.13 1.15,-1.13 0.35,0 1.68,0.22 1.68,1.99 0,2.26 -2.5,3.03 -4.63,3.03 -5.44,0 -6.42,-4 -6.42,-5.08 0,-1.3 0.73,-2.12 1.22,-2.55 0.9,-0.7 1.53,-0.82 3.93,-1.25 0.74,-0.14 2.97,-0.56 2.97,-2.29 0,-0.6 -0.39,-1.93 -1.84,-2.8 -1.36,-0.77 -3.08,-0.77 -3.49,-0.77 -1.4,0 -3.39,0.32 -4.18,1.47 1.15,0.14 1.92,1 1.92,1.99 0,0.87 -0.63,1.28 -1.36,1.28 -1.02,0 -2.03,-0.8 -2.03,-2.33 0,-2.09 2.23,-3.37 5.61,-3.37 6.42,0 7.61,4.39 7.61,5.75 0,3.2 -3.53,3.82 -4.81,4.07 -0.32,0.07 -1.19,0.21 -1.4,0.27 -1.29,0.25 -1.92,0.98 -1.92,1.75 0,0.8 0.63,1.73 1.39,2.23 0.94,0.6 2.16,0.66 2.75,0.66 0.74,0 2.55,-0.11 3.32,-1.3 z"
           inkscape:connector-curvature="0"
           style="fill:#000000;stroke-width:0" /></g>    </g>
    <path
       inkscape:connector-curvature="0"
       id="path5521-0"
       d="m -364.45228,67.047038 c 260.6096,0 260.6096,0 260.6096,0"
       style="fill:none;stroke:#000000;stroke-width:0.99999988px;stroke-linecap:butt;stroke-linejoin:miter;stroke-opacity:1;marker-end:url(#Arrow1Lend)" />
    <path
       inkscape:connector-curvature="0"
       id="path4402"
       d="m 116.41306,67.047038 c 204.5376,0 204.5376,0 204.5376,0"
       style="fill:none;stroke:#000000;stroke-width:0.99999994px;stroke-linecap:butt;stroke-linejoin:miter;stroke-opacity:1;marker-end:url(#Arrow1Lend)" />
    <path
       style="fill:none;stroke:#000000;stroke-width:0.99999994px;stroke-linecap:butt;stroke-linejoin:miter;stroke-opacity:1;marker-end:url(#Arrow1Lend)"
       d="m 453.407,67.047038 c 217.0247,0 217.0247,0 217.0247,0"
       id="path4404"
       inkscape:connector-curvature="0" />
    <path
       style="fill:none;stroke:#000000;stroke-width:0.99999988px;stroke-linecap:butt;stroke-linejoin:miter;stroke-opacity:1;marker-end:url(#Arrow1Lend)"
       d="m -724.88304,67.047018 c 229.37845,0 229.37845,0 229.37845,0"
       id="path3530"
       inkscape:connector-curvature="0" />
    <path
       style="fill:none;stroke:#000000;stroke-width:0.99999988;stroke-linecap:butt;stroke-linejoin:miter;stroke-miterlimit:4;stroke-dasharray:none;stroke-opacity:1;marker-end:none"
       d="m -788.30595,436.56864 c 1304.16615,0 1304.16615,0 1304.16615,0"
       id="path4404-2"
       inkscape:connector-curvature="0" />
    <path
       style="fill:none;stroke:#000000;stroke-width:0.99999982px;stroke-linecap:butt;stroke-linejoin:miter;stroke-opacity:1;marker-end:url(#Arrow1Lend)"
       d="m -787.8546,436.94329 c 0,-305.89066 0,-305.89066 0,-305.89066"
       id="path3530-6"
       inkscape:connector-curvature="0" />
    <path
       style="fill:none;stroke:#000000;stroke-width:1;stroke-linecap:butt;stroke-linejoin:miter;stroke-miterlimit:4;stroke-dasharray:none;stroke-opacity:1;marker-end:none"
       d="m 515.4011,436.18771 c 0,-369.061652 0,-369.061652 0,-369.061652"
       id="path3530-4"
       inkscape:connector-curvature="0" />
    <ellipse
       ry="62.6255"
       rx="62.505871"
       cy="67.04702"
       cx="-787.85461"
       style="fill:none;stroke:#000000;stroke-width:1;stroke-linecap:square;stroke-linejoin:round;stroke-miterlimit:4;stroke-dasharray:none;stroke-dashoffset:0;stroke-opacity:1"
       id="path4740" />
    <path
       style="font-style:normal;font-variant:normal;font-weight:normal;font-stretch:normal;letter-spacing:normal;word-spacing:normal;text-anchor:start;fill:#000000;stroke:#000000;stroke-width:0;stroke-linecap:butt;stroke-linejoin:miter;stroke-miterlimit:10.43299961;stroke-dasharray:none;stroke-dashoffset:0;stroke-opacity:1"
       inkscape:connector-curvature="0"
       d="m -816.78098,68.115318 14.78622,0 c 0.73347,0 1.74331,0 1.74331,-1.06299 0,-1.06299 -1.00984,-1.06299 -1.74331,-1.06299 l -14.78622,0 0,-14.83937 c 0,-0.72284 0,-1.74331 -1.06299,-1.74331 -1.04173,0 -1.04173,1.02047 -1.04173,1.74331 l 0,14.83937 -14.82874,0 c -0.75473,0 -1.74331,0 -1.74331,1.06299 0,1.06299 0.98858,1.06299 1.74331,1.06299 l 14.82874,0 0,14.81811 c 0,0.74409 0,1.75394 1.04173,1.75394 1.06299,0 1.06299,-1.00985 1.06299,-1.75394 z"
       id="path4816" />
    <path
       style="font-style:normal;font-variant:normal;font-weight:normal;font-stretch:normal;letter-spacing:normal;word-spacing:normal;text-anchor:start;fill:#000000;stroke:#000000;stroke-width:0;stroke-linecap:butt;stroke-linejoin:miter;stroke-miterlimit:10.43299961;stroke-dasharray:none;stroke-dashoffset:0;stroke-opacity:1"
       inkscape:connector-curvature="0"
       d="m -773.54111,102.10991 0.17007,0 0.17008,0 0.17008,-0.0106 0.085,0 0.0744,-0.0106 0.085,0 0.0744,-0.0106 0.085,-0.0106 0.0744,-0.0106 0.0744,-0.0213 0.0744,-0.0213 0.0638,-0.0213 0.0744,-0.0213 0.0638,-0.0213 0.0638,-0.0319 0.0532,-0.0319 0.0531,-0.0425 0.0532,-0.0319 0.0531,-0.0531 0.0425,-0.0425 0.0425,-0.0532 0.0213,-0.0319 0.0213,-0.0319 0.0106,-0.0319 0.0213,-0.0319 0.0106,-0.0319 0.0106,-0.0319 0.0106,-0.0425 0.0106,-0.0319 0.0106,-0.0425 0.0106,-0.0425 0.0106,-0.0425 0,-0.0425 0.0106,-0.0425 0,-0.0425 0,-0.0531 0,-0.0425 c 0,-1.062994 -0.95669,-1.062994 -1.86023,-1.062994 l -28.64764,0 c -0.89291,0 -1.83898,0 -1.83898,1.062994 0,1.06299 0.94607,1.06299 1.83898,1.06299 z"
       id="path4818" />
    <g
       transform="translate(-760.84366,-279.89761)"
       id="g4966">
      <g
         style="font-style:normal;font-variant:normal;font-weight:normal;font-stretch:normal;letter-spacing:normal;word-spacing:normal;text-anchor:start;fill:none;stroke:#000000;stroke-linecap:butt;stroke-linejoin:miter;stroke-miterlimit:10.43299961;stroke-dasharray:none;stroke-dashoffset:0;stroke-opacity:1"
         word-spacing="normal"
         letter-spacing="normal"
         font-size-adjust="none"
         font-stretch="normal"
         font-weight="normal"
         font-variant="normal"
         font-style="normal"
         stroke-miterlimit="10.433"
         xml:space="preserve"
         transform="matrix(1.0629921,0,0,-1.0629921,-186.02362,789.27165)"
         id="g4968"><path
           style="fill:#000000;stroke-width:0"
           inkscape:connector-curvature="0"
           id="path4970"
           d="m 480.88,426.32 -0.01,0.02 0,0.02 -0.01,0.01 -0.01,0.02 0,0.02 -0.01,0.02 -0.01,0.03 -0.01,0.02 -0.01,0.02 -0.01,0.02 -0.01,0.03 -0.01,0.02 -0.02,0.05 -0.02,0.06 -0.02,0.05 -0.02,0.05 -0.01,0.02 -0.01,0.03 -0.01,0.02 -0.01,0.02 -0.01,0.03 0,0.02 -0.01,0.02 0,0.02 -0.01,0.02 0,0.02 0,0.01 0,0.02 c 0,0.04 0.89,0.75 1.45,1.14 l 8.72,6.73 c 4.67,3.44 6.63,3.63 8.11,3.78 0.41,0.05 0.91,0.1 0.91,1 0,0.19 -0.16,0.55 -0.55,0.55 -1.11,0 -2.34,-0.16 -3.55,-0.16 -1.79,0 -3.73,0.16 -5.53,0.16 -0.34,0 -0.94,0 -0.94,-1 0,-0.34 0.25,-0.5 0.6,-0.55 1.09,-0.09 1.54,-0.34 1.54,-1.04 0,-0.89 -1.5,-2.05 -1.79,-2.3 l -19.44,-14.94 4,15.99 c 0.44,1.79 0.55,2.29 4.17,2.29 1.25,0 1.71,0 1.71,1 0,0.44 -0.41,0.55 -0.71,0.55 -1.39,0 -4.98,-0.16 -6.37,-0.16 -1.44,0 -4.99,0.16 -6.42,0.16 -0.36,0 -1,0 -1,-0.95 0,-0.6 0.45,-0.6 1.43,-0.6 0.66,0 1.55,-0.04 2.14,-0.09 0.8,-0.11 1.11,-0.25 1.11,-0.8 0,-0.2 -0.06,-0.36 -0.2,-0.95 l -6.67,-26.75 c -0.5,-1.95 -0.61,-2.34 -4.55,-2.34 -0.84,0 -1.39,0 -1.39,-0.96 0,-0.59 0.59,-0.59 0.75,-0.59 1.39,0 4.94,0.16 6.33,0.16 1.05,0 2.14,-0.07 3.19,-0.07 1.09,0 2.18,-0.09 3.23,-0.09 0.36,0 1,0 1,1 0,0.55 -0.45,0.55 -1.39,0.55 -1.84,0 -3.23,0 -3.23,0.89 0,0.36 0.29,1.45 0.43,2.2 0.71,2.58 1.35,5.22 2,7.81 l 7.42,5.78 5.79,-13.4 c 0.59,-1.35 0.59,-1.44 0.59,-1.74 0,-1.5 -2.14,-1.54 -2.59,-1.54 -0.55,0 -1.1,0 -1.1,-1 0,-0.55 0.6,-0.55 0.71,-0.55 1.98,0 4.07,0.16 6.07,0.16 1.1,0 3.78,-0.16 4.88,-0.16 0.25,0 0.9,0 0.9,1 0,0.55 -0.56,0.55 -1,0.55 -2.04,0.04 -2.68,0.5 -3.43,2.23 z" /><path
           style="fill:#000000;stroke-width:0"
           inkscape:connector-curvature="0"
           id="path4972"
           d="m 500.49,394.51 -0.02,-0.09 -0.02,-0.08 -0.02,-0.09 -0.03,-0.07 -0.02,-0.08 -0.02,-0.07 -0.02,-0.07 -0.02,-0.06 -0.03,-0.06 -0.02,-0.05 -0.03,-0.06 -0.03,-0.05 -0.03,-0.04 -0.03,-0.05 -0.04,-0.04 -0.04,-0.03 -0.04,-0.04 -0.05,-0.03 -0.05,-0.03 -0.06,-0.02 -0.06,-0.03 -0.06,-0.02 -0.07,-0.01 -0.07,-0.02 -0.09,-0.02 -0.04,0 -0.04,-0.01 -0.05,0 -0.04,-0.01 -0.05,0 -0.05,0 -0.05,-0.01 -0.06,0 -0.05,0 -0.06,0 -0.06,-0.01 -0.06,0 -0.06,0 -0.06,0 c -0.46,0 -0.94,0 -0.94,-0.73 0,-0.39 0.31,-0.53 0.48,-0.53 0.91,0 2.06,0.14 3,0.14 1.19,0 2.5,-0.14 3.66,-0.14 0.31,0 0.7,0.11 0.7,0.76 0,0.5 -0.5,0.5 -0.9,0.5 -0.79,0 -1.72,0 -1.72,0.41 0,0.19 0.25,1.09 0.39,1.61 0.42,1.84 0.9,3.73 1.28,5.18 0.42,-0.68 1.5,-2.04 3.59,-2.04 l 0,0.97 c -2.47,0 -3.09,2.68 -3.09,3.03 0,0.14 0.06,0.39 0.09,0.53 l 1.75,7 c 2.02,2.69 3.77,3.2 4.88,3.2 1.36,0 2.54,-1.01 2.54,-3.37 0,-1.44 -0.76,-4.99 -1.81,-7.02 -0.87,-1.7 -2.58,-3.37 -4.36,-3.37 l 0,-0.97 c 4.25,0 8.95,4.7 8.95,9.89 0,4.08 -2.82,5.81 -5.21,5.81 -2.18,0 -4.02,-1.45 -4.96,-2.44 -0.59,1.99 -2.54,2.44 -3.59,2.44 -1.36,0 -2.19,-0.91 -2.75,-1.84 -0.7,-1.19 -1.25,-3.27 -1.25,-3.49 0,-0.45 0.48,-0.45 0.59,-0.45 0.49,0 0.52,0.11 0.77,1.05 0.51,2.03 1.19,3.76 2.55,3.76 0.9,0 1.14,-0.76 1.14,-1.7 0,-0.39 -0.07,-0.84 -0.11,-1.05 z" /></g>    </g>
    <g
       transform="translate(-368.19281,-276.4854)"
       id="g5128">
      <g
         id="g22770"
         transform="matrix(5.3073725,0,0,5.3073725,-913.30586,-358.99624)"
         ns0:preamble=""
         ns0:text="$K_{steering}$">
        <defs
           id="defs22772">
          <g
             id="g22774">
            <symbol
               id="textext-1e25bcb1-0"
               overflow="visible"
               style="overflow:visible">
              <path
                 id="path22777"
                 d=""
                 style="stroke:none"
                 inkscape:connector-curvature="0" />
            </symbol>
            <symbol
               id="textext-1e25bcb1-1"
               overflow="visible"
               style="overflow:visible">
              <path
                 id="path22780"
                 d="M 5.078125,-4.03125 C 5.0625,-4.0625 5.03125,-4.140625 5.03125,-4.171875 c 0,0 0.171875,-0.140625 0.28125,-0.21875 l 1.75,-1.34375 C 8,-6.4375 8.390625,-6.46875 8.6875,-6.5 8.765625,-6.515625 8.859375,-6.515625 8.859375,-6.703125 8.859375,-6.734375 8.828125,-6.8125 8.75,-6.8125 c -0.21875,0 -0.46875,0.03125 -0.703125,0.03125 -0.359375,0 -0.75,-0.03125 -1.109375,-0.03125 -0.0625,0 -0.1875,0 -0.1875,0.203125 0,0.0625 0.046875,0.09375 0.125,0.109375 0.21875,0.015625 0.296875,0.0625 0.296875,0.203125 0,0.1875 -0.296875,0.421875 -0.359375,0.46875 L 2.9375,-2.84375 3.734375,-6.046875 C 3.8125,-6.40625 3.84375,-6.5 4.5625,-6.5 c 0.25,0 0.34375,0 0.34375,-0.203125 0,-0.078125 -0.078125,-0.109375 -0.140625,-0.109375 -0.28125,0 -1,0.03125 -1.28125,0.03125 C 3.203125,-6.78125 2.5,-6.8125 2.203125,-6.8125 2.140625,-6.8125 2,-6.8125 2,-6.625 2,-6.5 2.09375,-6.5 2.296875,-6.5 c 0.125,0 0.3125,0.015625 0.421875,0.015625 0.15625,0.03125 0.21875,0.046875 0.21875,0.171875 0,0.03125 0,0.0625 -0.03125,0.1875 L 1.5625,-0.78125 c -0.09375,0.390625 -0.109375,0.46875 -0.90625,0.46875 -0.171875,0 -0.28125,0 -0.28125,0.1875 C 0.375,0 0.5,0 0.53125,0 0.8125,0 1.515625,-0.03125 1.796875,-0.03125 2,-0.03125 2.21875,-0.015625 2.4375,-0.015625 2.65625,-0.015625 2.875,0 3.078125,0 3.15625,0 3.28125,0 3.28125,-0.203125 3.28125,-0.3125 3.1875,-0.3125 3,-0.3125 c -0.375,0 -0.640625,0 -0.640625,-0.171875 0,-0.078125 0.046875,-0.296875 0.078125,-0.4375 C 2.578125,-1.453125 2.71875,-1.96875 2.84375,-2.5 l 1.484375,-1.15625 1.15625,2.6875 c 0.125,0.265625 0.125,0.296875 0.125,0.34375 0,0.3125 -0.4375,0.3125 -0.53125,0.3125 -0.109375,0 -0.21875,0 -0.21875,0.203125 C 4.859375,0 4.984375,0 5,0 5.40625,0 5.828125,-0.03125 6.21875,-0.03125 6.4375,-0.03125 6.984375,0 7.203125,0 7.25,0 7.375,0 7.375,-0.203125 7.375,-0.3125 7.265625,-0.3125 7.171875,-0.3125 c -0.40625,0 -0.53125,-0.09375 -0.6875,-0.4375 z m 0,0"
                 style="stroke:none"
                 inkscape:connector-curvature="0" />
            </symbol>
            <symbol
               id="textext-1e25bcb1-2"
               overflow="visible"
               style="overflow:visible">
              <path
                 id="path22783"
                 d=""
                 style="stroke:none"
                 inkscape:connector-curvature="0" />
            </symbol>
            <symbol
               id="textext-1e25bcb1-3"
               overflow="visible"
               style="overflow:visible">
              <path
                 id="path22786"
                 d="m 3,-2.625 c -0.171875,0.046875 -0.296875,0.1875 -0.296875,0.328125 0,0.171875 0.140625,0.234375 0.234375,0.234375 0.078125,0 0.34375,-0.046875 0.34375,-0.40625 0,-0.453125 -0.5,-0.609375 -0.9375,-0.609375 -1.078125,0 -1.28125,0.8125 -1.28125,1.015625 0,0.265625 0.15625,0.4375 0.25,0.515625 0.171875,0.140625 0.296875,0.171875 0.78125,0.25 0.15625,0.03125 0.59375,0.109375 0.59375,0.453125 0,0.125 -0.078125,0.390625 -0.359375,0.5625 C 2.046875,-0.125 1.703125,-0.125 1.625,-0.125 1.34375,-0.125 0.953125,-0.1875 0.78125,-0.421875 1.015625,-0.453125 1.171875,-0.625 1.171875,-0.8125 c 0,-0.171875 -0.125,-0.265625 -0.265625,-0.265625 -0.203125,0 -0.40625,0.171875 -0.40625,0.46875 0,0.421875 0.4375,0.671875 1.109375,0.671875 1.296875,0 1.53125,-0.875 1.53125,-1.140625 0,-0.640625 -0.703125,-0.765625 -0.96875,-0.8125 -0.0625,-0.015625 -0.234375,-0.046875 -0.28125,-0.0625 -0.25,-0.046875 -0.375,-0.1875 -0.375,-0.34375 0,-0.15625 0.125,-0.34375 0.28125,-0.453125 0.1875,-0.109375 0.421875,-0.125 0.546875,-0.125 0.140625,0 0.5,0.015625 0.65625,0.25 z m 0,0"
                 style="stroke:none"
                 inkscape:connector-curvature="0" />
            </symbol>
            <symbol
               id="textext-1e25bcb1-4"
               overflow="visible"
               style="overflow:visible">
              <path
                 id="path22789"
                 d="m 1.71875,-2.75 0.703125,0 c 0.140625,0 0.21875,0 0.21875,-0.15625 C 2.640625,-3 2.5625,-3 2.4375,-3 l -0.65625,0 0.25,-1.03125 C 2.046875,-4.0625 2.0625,-4.109375 2.0625,-4.125 c 0,-0.140625 -0.109375,-0.234375 -0.25,-0.234375 -0.171875,0 -0.265625,0.125 -0.328125,0.296875 C 1.4375,-3.875 1.53125,-4.21875 1.21875,-3 l -0.703125,0 c -0.125,0 -0.21875,0 -0.21875,0.15625 C 0.296875,-2.75 0.375,-2.75 0.5,-2.75 l 0.65625,0 L 0.75,-1.109375 C 0.703125,-0.9375 0.640625,-0.6875 0.640625,-0.59375 c 0,0.40625 0.359375,0.65625 0.75,0.65625 0.78125,0 1.21875,-0.96875 1.21875,-1.0625 0,-0.09375 -0.09375,-0.09375 -0.109375,-0.09375 -0.09375,0 -0.09375,0.015625 -0.15625,0.140625 -0.1875,0.4375 -0.546875,0.828125 -0.921875,0.828125 -0.15625,0 -0.25,-0.09375 -0.25,-0.34375 0,-0.0625 0.03125,-0.21875 0.046875,-0.28125 z m 0,0"
                 style="stroke:none"
                 inkscape:connector-curvature="0" />
            </symbol>
            <symbol
               id="textext-1e25bcb1-5"
               overflow="visible"
               style="overflow:visible">
              <path
                 id="path22792"
                 d="m 1.5625,-1.59375 c 0.1875,0 0.75,-0.015625 1.125,-0.140625 0.515625,-0.1875 0.609375,-0.515625 0.609375,-0.71875 0,-0.390625 -0.390625,-0.625 -0.859375,-0.625 -0.84375,0 -1.96875,0.640625 -1.96875,1.84375 0,0.703125 0.4375,1.296875 1.25,1.296875 1.1875,0 1.734375,-0.6875 1.734375,-0.78125 0,-0.046875 -0.0625,-0.125 -0.125,-0.125 -0.03125,0 -0.046875,0.015625 -0.109375,0.078125 C 2.671875,-0.125 1.859375,-0.125 1.734375,-0.125 1.3125,-0.125 1.03125,-0.40625 1.03125,-0.96875 c 0,-0.09375 0,-0.234375 0.09375,-0.625 z M 1.171875,-1.78125 C 1.46875,-2.796875 2.234375,-2.875 2.4375,-2.875 2.734375,-2.875 3,-2.71875 3,-2.453125 3,-1.78125 1.8125,-1.78125 1.515625,-1.78125 Z m 0,0"
                 style="stroke:none"
                 inkscape:connector-curvature="0" />
            </symbol>
            <symbol
               id="textext-1e25bcb1-6"
               overflow="visible"
               style="overflow:visible">
              <path
                 id="path22795"
                 d="m 1.640625,-1.40625 c 0,-0.046875 0.171875,-0.671875 0.171875,-0.703125 0.015625,-0.0625 0.21875,-0.40625 0.453125,-0.578125 0.0625,-0.046875 0.25,-0.1875 0.5625,-0.1875 0.0625,0 0.234375,0 0.375,0.09375 -0.21875,0.0625 -0.296875,0.265625 -0.296875,0.390625 0,0.140625 0.109375,0.25 0.265625,0.25 0.171875,0 0.390625,-0.125 0.390625,-0.421875 0,-0.359375 -0.375,-0.515625 -0.734375,-0.515625 -0.359375,0 -0.671875,0.15625 -0.984375,0.5 -0.125,-0.421875 -0.546875,-0.5 -0.71875,-0.5 -0.25,0 -0.421875,0.171875 -0.546875,0.359375 -0.15625,0.265625 -0.25,0.671875 -0.25,0.71875 0,0.078125 0.09375,0.078125 0.125,0.078125 0.09375,0 0.09375,-0.015625 0.140625,-0.203125 0.109375,-0.421875 0.25,-0.75 0.515625,-0.75 0.1875,0 0.234375,0.15625 0.234375,0.34375 0,0.125 -0.0625,0.390625 -0.125,0.578125 -0.046875,0.1875 -0.109375,0.46875 -0.140625,0.625 L 0.84375,-0.4375 C 0.828125,-0.34375 0.78125,-0.171875 0.78125,-0.15625 0.78125,0 0.90625,0.0625 1.015625,0.0625 1.125,0.0625 1.265625,0 1.3125,-0.125 1.328125,-0.171875 1.40625,-0.484375 1.453125,-0.65625 Z m 0,0"
                 style="stroke:none"
                 inkscape:connector-curvature="0" />
            </symbol>
            <symbol
               id="textext-1e25bcb1-7"
               overflow="visible"
               style="overflow:visible">
              <path
                 id="path22798"
                 d="m 2.265625,-4.359375 c 0,-0.109375 -0.09375,-0.265625 -0.28125,-0.265625 -0.1875,0 -0.390625,0.1875 -0.390625,0.390625 0,0.109375 0.078125,0.265625 0.28125,0.265625 0.1875,0 0.390625,-0.203125 0.390625,-0.390625 z M 0.84375,-0.8125 c -0.03125,0.09375 -0.0625,0.171875 -0.0625,0.296875 0,0.328125 0.265625,0.578125 0.65625,0.578125 0.6875,0 1,-0.953125 1,-1.0625 0,-0.09375 -0.09375,-0.09375 -0.109375,-0.09375 -0.09375,0 -0.109375,0.046875 -0.140625,0.125 -0.15625,0.5625 -0.453125,0.84375 -0.734375,0.84375 -0.140625,0 -0.171875,-0.09375 -0.171875,-0.25 0,-0.15625 0.046875,-0.28125 0.109375,-0.4375 C 1.46875,-1 1.546875,-1.1875 1.609375,-1.375 1.671875,-1.546875 1.9375,-2.171875 1.953125,-2.265625 1.984375,-2.328125 2,-2.40625 2,-2.484375 2,-2.8125 1.71875,-3.078125 1.34375,-3.078125 0.640625,-3.078125 0.328125,-2.125 0.328125,-2 c 0,0.078125 0.09375,0.078125 0.125,0.078125 0.09375,0 0.09375,-0.03125 0.125,-0.109375 C 0.75,-2.625 1.0625,-2.875 1.3125,-2.875 c 0.109375,0 0.171875,0.046875 0.171875,0.234375 0,0.171875 -0.03125,0.265625 -0.203125,0.703125 z m 0,0"
                 style="stroke:none"
                 inkscape:connector-curvature="0" />
            </symbol>
            <symbol
               id="textext-1e25bcb1-8"
               overflow="visible"
               style="overflow:visible">
              <path
                 id="path22801"
                 d="m 0.84375,-0.4375 c -0.015625,0.09375 -0.0625,0.265625 -0.0625,0.28125 0,0.15625 0.125,0.21875 0.234375,0.21875 0.125,0 0.234375,-0.078125 0.28125,-0.140625 0.03125,-0.0625 0.078125,-0.296875 0.125,-0.4375 0.03125,-0.125 0.109375,-0.453125 0.140625,-0.625 0.046875,-0.15625 0.09375,-0.3125 0.125,-0.46875 0.078125,-0.28125 0.09375,-0.34375 0.296875,-0.625 C 2.171875,-2.515625 2.5,-2.875 3.03125,-2.875 c 0.390625,0 0.40625,0.359375 0.40625,0.484375 0,0.421875 -0.296875,1.1875 -0.40625,1.484375 -0.078125,0.203125 -0.109375,0.265625 -0.109375,0.375 0,0.375 0.296875,0.59375 0.65625,0.59375 0.703125,0 1,-0.953125 1,-1.0625 0,-0.09375 -0.078125,-0.09375 -0.109375,-0.09375 -0.09375,0 -0.09375,0.046875 -0.125,0.125 C 4.1875,-0.40625 3.875,-0.125 3.609375,-0.125 c -0.15625,0 -0.1875,-0.09375 -0.1875,-0.25 0,-0.15625 0.046875,-0.25 0.171875,-0.5625 0.078125,-0.21875 0.359375,-0.953125 0.359375,-1.34375 0,-0.671875 -0.53125,-0.796875 -0.90625,-0.796875 -0.578125,0 -0.96875,0.359375 -1.171875,0.640625 -0.046875,-0.484375 -0.453125,-0.640625 -0.75,-0.640625 -0.296875,0 -0.453125,0.21875 -0.546875,0.375 -0.15625,0.265625 -0.25,0.65625 -0.25,0.703125 0,0.078125 0.09375,0.078125 0.125,0.078125 0.09375,0 0.09375,-0.015625 0.140625,-0.203125 0.109375,-0.40625 0.25,-0.75 0.515625,-0.75 0.1875,0 0.234375,0.15625 0.234375,0.34375 0,0.125 -0.0625,0.390625 -0.125,0.578125 -0.046875,0.1875 -0.109375,0.46875 -0.140625,0.625 z m 0,0"
                 style="stroke:none"
                 inkscape:connector-curvature="0" />
            </symbol>
            <symbol
               id="textext-1e25bcb1-9"
               overflow="visible"
               style="overflow:visible">
              <path
                 id="path22804"
                 d="m 3.703125,-2.578125 c 0.03125,-0.09375 0.03125,-0.125 0.03125,-0.140625 0,-0.15625 -0.125,-0.21875 -0.234375,-0.21875 -0.15625,0 -0.296875,0.125 -0.328125,0.265625 -0.109375,-0.1875 -0.34375,-0.40625 -0.71875,-0.40625 -0.859375,0 -1.78125,0.9375 -1.78125,1.9375 0,0.71875 0.484375,1.140625 1.0625,1.140625 0.328125,0 0.625,-0.15625 0.875,-0.375 L 2.453125,0.25 C 2.375,0.546875 2.328125,0.734375 2.0625,0.96875 c -0.3125,0.25 -0.609375,0.25 -0.78125,0.25 -0.3125,0 -0.40625,-0.015625 -0.53125,-0.046875 0.171875,-0.078125 0.21875,-0.25 0.21875,-0.34375 0,-0.171875 -0.125,-0.25 -0.265625,-0.25 C 0.5,0.578125 0.296875,0.734375 0.296875,1 c 0,0.421875 0.609375,0.421875 1,0.421875 1.09375,0 1.546875,-0.5625 1.65625,-0.953125 z M 2.75,-0.921875 c -0.03125,0.09375 -0.03125,0.109375 -0.15625,0.25 C 2.359375,-0.375 2.015625,-0.1875 1.75,-0.1875 c -0.34375,0 -0.515625,-0.3125 -0.515625,-0.671875 0,-0.296875 0.1875,-1.078125 0.375,-1.390625 0.28125,-0.484375 0.609375,-0.625 0.84375,-0.625 0.5,0 0.625,0.515625 0.625,0.59375 0,0.015625 0,0.015625 -0.015625,0.09375 z m 0,0"
                 style="stroke:none"
                 inkscape:connector-curvature="0" />
            </symbol>
          </g>
        </defs>
        <g
           id="textext-1e25bcb1-10">
          <g
             id="g22807"
             style="fill:#000000;fill-opacity:1">
            <use
               id="use22809"
               y="134.765"
               x="223.43201"
               xlink:href="#textext-1e25bcb1-1"
               width="100%"
               height="100%" />
          </g>
          <g
             id="g22811"
             style="fill:#000000;fill-opacity:1">
            <use
               id="use22813"
               y="136.259"
               x="231.89301"
               xlink:href="#textext-1e25bcb1-3"
               width="100%"
               height="100%" />
            <use
               id="use22815"
               y="136.259"
               x="235.65327"
               xlink:href="#textext-1e25bcb1-4"
               width="100%"
               height="100%" />
            <use
               id="use22817"
               y="136.259"
               x="238.66316"
               xlink:href="#textext-1e25bcb1-5"
               width="100%"
               height="100%" />
            <use
               id="use22819"
               y="136.259"
               x="242.44296"
               xlink:href="#textext-1e25bcb1-5"
               width="100%"
               height="100%" />
            <use
               id="use22821"
               y="136.259"
               x="246.22276"
               xlink:href="#textext-1e25bcb1-6"
               width="100%"
               height="100%" />
          </g>
          <g
             id="g22823"
             style="fill:#000000;fill-opacity:1">
            <use
               id="use22825"
               y="136.259"
               x="250.13786"
               xlink:href="#textext-1e25bcb1-7"
               width="100%"
               height="100%" />
            <use
               id="use22827"
               y="136.259"
               x="252.95667"
               xlink:href="#textext-1e25bcb1-8"
               width="100%"
               height="100%" />
            <use
               id="use22829"
               y="136.259"
               x="257.88156"
               xlink:href="#textext-1e25bcb1-9"
               width="100%"
               height="100%" />
          </g>
        </g>
      </g>
    </g>
    <path
       inkscape:connector-curvature="0"
       id="path6021"
       d="m -1042.0259,67.047018 c 189.37845,0 189.37845,0 189.37845,0"
       style="fill:none;stroke:#000000;stroke-width:0.99999976px;stroke-linecap:butt;stroke-linejoin:miter;stroke-opacity:1;marker-end:url(#Arrow1Lend)" />
    <g
       ns0:text="$\\theta_{v}(s)$"
       ns0:preamble=""
       transform="matrix(5.832505,0,0,5.832505,-797.43275,-747.47028)"
       id="g18174">
      <defs
         id="defs18176">
        <g
           id="g18178">
          <symbol
             style="overflow:visible"
             overflow="visible"
             id="textext-2752cf60-0">
            <path
               inkscape:connector-curvature="0"
               style="stroke:none"
               d=""
               id="path18181" />
          </symbol>
          <symbol
             style="overflow:visible"
             overflow="visible"
             id="textext-2752cf60-1">
            <path
               inkscape:connector-curvature="0"
               style="stroke:none"
               d="m 4.53125,-4.984375 c 0,-0.65625 -0.171875,-2.046875 -1.1875,-2.046875 -1.390625,0 -2.921875,2.8125 -2.921875,5.09375 0,0.9375 0.28125,2.046875 1.1875,2.046875 1.40625,0 2.921875,-2.859375 2.921875,-5.09375 z M 1.46875,-3.625 C 1.640625,-4.25 1.84375,-5.046875 2.25,-5.765625 2.515625,-6.25 2.875,-6.8125 3.328125,-6.8125 c 0.484375,0 0.546875,0.640625 0.546875,1.203125 0,0.5 -0.078125,1 -0.3125,1.984375 z m 2,0.328125 C 3.359375,-2.84375 3.15625,-2 2.765625,-1.28125 c -0.34375,0.6875 -0.71875,1.171875 -1.15625,1.171875 -0.328125,0 -0.53125,-0.296875 -0.53125,-1.21875 0,-0.421875 0.0625,-1 0.3125,-1.96875 z m 0,0"
               id="path18184" />
          </symbol>
          <symbol
             style="overflow:visible"
             overflow="visible"
             id="textext-2752cf60-2">
            <path
               inkscape:connector-curvature="0"
               style="stroke:none"
               d="M 3.890625,-3.734375 C 3.625,-3.71875 3.421875,-3.5 3.421875,-3.28125 c 0,0.140625 0.09375,0.296875 0.3125,0.296875 0.21875,0 0.453125,-0.171875 0.453125,-0.5625 C 4.1875,-4 3.765625,-4.40625 3,-4.40625 c -1.3125,0 -1.6875,1.015625 -1.6875,1.453125 0,0.78125 0.734375,0.921875 1.03125,0.984375 0.515625,0.109375 1.03125,0.21875 1.03125,0.765625 0,0.25 -0.21875,1.09375 -1.421875,1.09375 -0.140625,0 -0.90625,0 -1.140625,-0.53125 0.390625,0.046875 0.640625,-0.25 0.640625,-0.53125 0,-0.21875 -0.171875,-0.34375 -0.375,-0.34375 -0.265625,0 -0.5625,0.203125 -0.5625,0.65625 0,0.5625 0.578125,0.96875 1.421875,0.96875 1.625,0 2.015625,-1.203125 2.015625,-1.65625 0,-0.359375 -0.1875,-0.609375 -0.3125,-0.71875 -0.265625,-0.28125 -0.5625,-0.34375 -1,-0.421875 -0.359375,-0.078125 -0.75,-0.15625 -0.75,-0.609375 C 1.890625,-3.578125 2.125,-4.1875 3,-4.1875 c 0.25,0 0.75,0.078125 0.890625,0.453125 z m 0,0"
               id="path18187" />
          </symbol>
          <symbol
             style="overflow:visible"
             overflow="visible"
             id="textext-2752cf60-3">
            <path
               inkscape:connector-curvature="0"
               style="stroke:none"
               d=""
               id="path18190" />
          </symbol>
          <symbol
             style="overflow:visible"
             overflow="visible"
             id="textext-2752cf60-4">
            <path
               inkscape:connector-curvature="0"
               style="stroke:none"
               d="m 3.71875,-2.53125 c 0,-0.546875 -0.328125,-0.546875 -0.34375,-0.546875 -0.1875,0 -0.375,0.1875 -0.375,0.375 0,0.109375 0.0625,0.171875 0.109375,0.203125 0.125,0.109375 0.265625,0.28125 0.265625,0.5625 0,0.3125 -0.46875,1.8125 -1.296875,1.8125 -0.5625,0 -0.5625,-0.5 -0.5625,-0.625 0,-0.3125 0.125,-0.703125 0.390625,-1.359375 C 1.953125,-2.25 2,-2.359375 2,-2.46875 2,-2.84375 1.6875,-3.078125 1.34375,-3.078125 0.640625,-3.078125 0.328125,-2.125 0.328125,-2 c 0,0.078125 0.09375,0.078125 0.125,0.078125 0.09375,0 0.09375,-0.03125 0.125,-0.109375 C 0.734375,-2.59375 1.03125,-2.875 1.3125,-2.875 c 0.125,0 0.171875,0.078125 0.171875,0.234375 0,0.171875 -0.046875,0.3125 -0.125,0.46875 -0.296875,0.78125 -0.375,1.078125 -0.375,1.328125 0,0.6875 0.546875,0.90625 1.078125,0.90625 1.171875,0 1.65625,-2.015625 1.65625,-2.59375 z m 0,0"
               id="path18193" />
          </symbol>
          <symbol
             style="overflow:visible"
             overflow="visible"
             id="textext-2752cf60-5">
            <path
               inkscape:connector-curvature="0"
               style="stroke:none"
               d=""
               id="path18196" />
          </symbol>
          <symbol
             style="overflow:visible"
             overflow="visible"
             id="textext-2752cf60-6">
            <path
               inkscape:connector-curvature="0"
               style="stroke:none"
               d="m 3.296875,2.390625 c 0,-0.03125 0,-0.046875 -0.171875,-0.21875 C 1.890625,0.921875 1.5625,-0.96875 1.5625,-2.5 c 0,-1.734375 0.375,-3.46875 1.609375,-4.703125 0.125,-0.125 0.125,-0.140625 0.125,-0.171875 0,-0.078125 -0.03125,-0.109375 -0.09375,-0.109375 -0.109375,0 -1,0.6875 -1.59375,1.953125 -0.5,1.09375 -0.625,2.203125 -0.625,3.03125 0,0.78125 0.109375,1.984375 0.65625,3.125 C 2.25,1.84375 3.09375,2.5 3.203125,2.5 c 0.0625,0 0.09375,-0.03125 0.09375,-0.109375 z m 0,0"
               id="path18199" />
          </symbol>
          <symbol
             style="overflow:visible"
             overflow="visible"
             id="textext-2752cf60-7">
            <path
               inkscape:connector-curvature="0"
               style="stroke:none"
               d="m 2.875,-2.5 c 0,-0.765625 -0.109375,-1.96875 -0.65625,-3.109375 -0.59375,-1.21875 -1.453125,-1.875 -1.546875,-1.875 -0.0625,0 -0.109375,0.046875 -0.109375,0.109375 0,0.03125 0,0.046875 0.1875,0.234375 0.984375,0.984375 1.546875,2.5625 1.546875,4.640625 0,1.71875 -0.359375,3.46875 -1.59375,4.71875 C 0.5625,2.34375 0.5625,2.359375 0.5625,2.390625 0.5625,2.453125 0.609375,2.5 0.671875,2.5 0.765625,2.5 1.671875,1.8125 2.25,0.546875 2.765625,-0.546875 2.875,-1.65625 2.875,-2.5 Z m 0,0"
               id="path18202" />
          </symbol>
        </g>
      </defs>
      <g
         id="textext-2752cf60-8">
        <g
           style="fill:#000000;fill-opacity:1"
           id="g18205">
          <use
             height="100%"
             width="100%"
             xlink:href="#textext-2752cf60-1"
             x="223.43201"
             y="134.765"
             id="use18207" />
        </g>
        <g
           style="fill:#000000;fill-opacity:1"
           id="g18209">
          <use
             height="100%"
             width="100%"
             xlink:href="#textext-2752cf60-4"
             x="228.10899"
             y="136.259"
             id="use18211" />
        </g>
        <g
           style="fill:#000000;fill-opacity:1"
           id="g18213">
          <use
             height="100%"
             width="100%"
             xlink:href="#textext-2752cf60-6"
             x="232.842"
             y="134.765"
             id="use18215" />
        </g>
        <g
           style="fill:#000000;fill-opacity:1"
           id="g18217">
          <use
             height="100%"
             width="100%"
             xlink:href="#textext-2752cf60-2"
             x="236.717"
             y="134.765"
             id="use18219" />
        </g>
        <g
           style="fill:#000000;fill-opacity:1"
           id="g18221">
          <use
             height="100%"
             width="100%"
             xlink:href="#textext-2752cf60-7"
             x="241.38699"
             y="134.765"
             id="use18223" />
        </g>
      </g>
    </g>
    <g
       id="g18471"
       ns0:preamble=""
       ns0:text="$\\omega_v(s)$"
       transform="matrix(6.8302109,0,0,6.8302109,-1379.4033,-881.69774)">
      <defs
         id="defs18473">
        <g
           id="g18475">
          <symbol
             id="textext-4f305aa4-0"
             overflow="visible"
             style="overflow:visible">
            <path
               id="path18478"
               d=""
               style="stroke:none"
               inkscape:connector-curvature="0" />
          </symbol>
          <symbol
             id="textext-4f305aa4-1"
             overflow="visible"
             style="overflow:visible">
            <path
               id="path18481"
               d="m 6.03125,-3.703125 c 0,-0.453125 -0.171875,-0.703125 -0.40625,-0.703125 -0.25,0 -0.515625,0.234375 -0.515625,0.46875 0,0.09375 0.046875,0.203125 0.140625,0.296875 0.171875,0.15625 0.359375,0.421875 0.359375,0.84375 0,0.390625 -0.203125,0.96875 -0.5,1.421875 C 4.8125,-0.953125 4.4375,-0.609375 3.96875,-0.609375 3.40625,-0.609375 3.09375,-0.96875 3,-1.5 c 0.109375,-0.265625 0.34375,-0.90625 0.34375,-1.1875 0,-0.109375 -0.046875,-0.21875 -0.1875,-0.21875 -0.078125,0 -0.1875,0.03125 -0.265625,0.171875 C 2.78125,-2.53125 2.65625,-1.890625 2.65625,-1.53125 2.328125,-1.0625 1.9375,-0.609375 1.3125,-0.609375 c -0.671875,0 -0.875,-0.59375 -0.875,-1.140625 0,-1.25 1.015625,-2.296875 1.015625,-2.421875 0,-0.109375 -0.078125,-0.1875 -0.1875,-0.1875 -0.125,0 -0.203125,0.125 -0.265625,0.21875 -0.5,0.734375 -0.875,1.921875 -0.875,2.828125 0,0.6875 0.21875,1.421875 1.046875,1.421875 0.703125,0 1.171875,-0.5 1.53125,-1.046875 0.09375,0.578125 0.484375,1.046875 1.09375,1.046875 0.78125,0 1.25,-0.609375 1.609375,-1.359375 0.25,-0.484375 0.625,-1.84375 0.625,-2.453125 z m 0,0"
               style="stroke:none"
               inkscape:connector-curvature="0" />
          </symbol>
          <symbol
             id="textext-4f305aa4-2"
             overflow="visible"
             style="overflow:visible">
            <path
               id="path18484"
               d="M 3.890625,-3.734375 C 3.625,-3.71875 3.421875,-3.5 3.421875,-3.28125 c 0,0.140625 0.09375,0.296875 0.3125,0.296875 0.21875,0 0.453125,-0.171875 0.453125,-0.5625 C 4.1875,-4 3.765625,-4.40625 3,-4.40625 c -1.3125,0 -1.6875,1.015625 -1.6875,1.453125 0,0.78125 0.734375,0.921875 1.03125,0.984375 0.515625,0.109375 1.03125,0.21875 1.03125,0.765625 0,0.25 -0.21875,1.09375 -1.421875,1.09375 -0.140625,0 -0.90625,0 -1.140625,-0.53125 0.390625,0.046875 0.640625,-0.25 0.640625,-0.53125 0,-0.21875 -0.171875,-0.34375 -0.375,-0.34375 -0.265625,0 -0.5625,0.203125 -0.5625,0.65625 0,0.5625 0.578125,0.96875 1.421875,0.96875 1.625,0 2.015625,-1.203125 2.015625,-1.65625 0,-0.359375 -0.1875,-0.609375 -0.3125,-0.71875 -0.265625,-0.28125 -0.5625,-0.34375 -1,-0.421875 -0.359375,-0.078125 -0.75,-0.15625 -0.75,-0.609375 C 1.890625,-3.578125 2.125,-4.1875 3,-4.1875 c 0.25,0 0.75,0.078125 0.890625,0.453125 z m 0,0"
               style="stroke:none"
               inkscape:connector-curvature="0" />
          </symbol>
          <symbol
             id="textext-4f305aa4-3"
             overflow="visible"
             style="overflow:visible">
            <path
               id="path18487"
               d=""
               style="stroke:none"
               inkscape:connector-curvature="0" />
          </symbol>
          <symbol
             id="textext-4f305aa4-4"
             overflow="visible"
             style="overflow:visible">
            <path
               id="path18490"
               d="m 3.71875,-2.53125 c 0,-0.546875 -0.328125,-0.546875 -0.34375,-0.546875 -0.1875,0 -0.375,0.1875 -0.375,0.375 0,0.109375 0.0625,0.171875 0.109375,0.203125 0.125,0.109375 0.265625,0.28125 0.265625,0.5625 0,0.3125 -0.46875,1.8125 -1.296875,1.8125 -0.5625,0 -0.5625,-0.5 -0.5625,-0.625 0,-0.3125 0.125,-0.703125 0.390625,-1.359375 C 1.953125,-2.25 2,-2.359375 2,-2.46875 2,-2.84375 1.6875,-3.078125 1.34375,-3.078125 0.640625,-3.078125 0.328125,-2.125 0.328125,-2 c 0,0.078125 0.09375,0.078125 0.125,0.078125 0.09375,0 0.09375,-0.03125 0.125,-0.109375 C 0.734375,-2.59375 1.03125,-2.875 1.3125,-2.875 c 0.125,0 0.171875,0.078125 0.171875,0.234375 0,0.171875 -0.046875,0.3125 -0.125,0.46875 -0.296875,0.78125 -0.375,1.078125 -0.375,1.328125 0,0.6875 0.546875,0.90625 1.078125,0.90625 1.171875,0 1.65625,-2.015625 1.65625,-2.59375 z m 0,0"
               style="stroke:none"
               inkscape:connector-curvature="0" />
          </symbol>
          <symbol
             id="textext-4f305aa4-5"
             overflow="visible"
             style="overflow:visible">
            <path
               id="path18493"
               d=""
               style="stroke:none"
               inkscape:connector-curvature="0" />
          </symbol>
          <symbol
             id="textext-4f305aa4-6"
             overflow="visible"
             style="overflow:visible">
            <path
               id="path18496"
               d="m 3.296875,2.390625 c 0,-0.03125 0,-0.046875 -0.171875,-0.21875 C 1.890625,0.921875 1.5625,-0.96875 1.5625,-2.5 c 0,-1.734375 0.375,-3.46875 1.609375,-4.703125 0.125,-0.125 0.125,-0.140625 0.125,-0.171875 0,-0.078125 -0.03125,-0.109375 -0.09375,-0.109375 -0.109375,0 -1,0.6875 -1.59375,1.953125 -0.5,1.09375 -0.625,2.203125 -0.625,3.03125 0,0.78125 0.109375,1.984375 0.65625,3.125 C 2.25,1.84375 3.09375,2.5 3.203125,2.5 c 0.0625,0 0.09375,-0.03125 0.09375,-0.109375 z m 0,0"
               style="stroke:none"
               inkscape:connector-curvature="0" />
          </symbol>
          <symbol
             id="textext-4f305aa4-7"
             overflow="visible"
             style="overflow:visible">
            <path
               id="path18499"
               d="m 2.875,-2.5 c 0,-0.765625 -0.109375,-1.96875 -0.65625,-3.109375 -0.59375,-1.21875 -1.453125,-1.875 -1.546875,-1.875 -0.0625,0 -0.109375,0.046875 -0.109375,0.109375 0,0.03125 0,0.046875 0.1875,0.234375 0.984375,0.984375 1.546875,2.5625 1.546875,4.640625 0,1.71875 -0.359375,3.46875 -1.59375,4.71875 C 0.5625,2.34375 0.5625,2.359375 0.5625,2.390625 0.5625,2.453125 0.609375,2.5 0.671875,2.5 0.765625,2.5 1.671875,1.8125 2.25,0.546875 2.765625,-0.546875 2.875,-1.65625 2.875,-2.5 Z m 0,0"
               style="stroke:none"
               inkscape:connector-curvature="0" />
          </symbol>
        </g>
      </defs>
      <g
         id="textext-4f305aa4-8">
        <g
           id="g18502"
           style="fill:#000000;fill-opacity:1">
          <use
             id="use18504"
             y="134.765"
             x="223.43201"
             xlink:href="#textext-4f305aa4-1"
             width="100%"
             height="100%" />
        </g>
        <g
           id="g18506"
           style="fill:#000000;fill-opacity:1">
          <use
             id="use18508"
             y="136.259"
             x="229.633"
             xlink:href="#textext-4f305aa4-4"
             width="100%"
             height="100%" />
        </g>
        <g
           id="g18510"
           style="fill:#000000;fill-opacity:1">
          <use
             id="use18512"
             y="134.765"
             x="234.367"
             xlink:href="#textext-4f305aa4-6"
             width="100%"
             height="100%" />
        </g>
        <g
           id="g18514"
           style="fill:#000000;fill-opacity:1">
          <use
             id="use18516"
             y="134.765"
             x="238.241"
             xlink:href="#textext-4f305aa4-2"
             width="100%"
             height="100%" />
        </g>
        <g
           id="g18518"
           style="fill:#000000;fill-opacity:1">
          <use
             id="use18520"
             y="134.765"
             x="242.911"
             xlink:href="#textext-4f305aa4-7"
             width="100%"
             height="100%" />
        </g>
      </g>
    </g>
    <g
       id="g19529"
       transform="matrix(4.5299381,0,0,4.5299381,-1344.5902,-575.77473)"
       ns0:preamble=""
       ns0:text="$PWM(s)$">
      <defs
         id="defs19531">
        <g
           id="g19533">
          <symbol
             id="textext-3740b16b-0"
             overflow="visible"
             style="overflow:visible">
            <path
               id="path19536"
               d=""
               style="stroke:none"
               inkscape:connector-curvature="0" />
          </symbol>
          <symbol
             id="textext-3740b16b-1"
             overflow="visible"
             style="overflow:visible">
            <path
               id="path19539"
               d="m 3.015625,-3.15625 1.703125,0 c 1.40625,0 2.796875,-1.03125 2.796875,-2.140625 0,-0.78125 -0.65625,-1.515625 -1.96875,-1.515625 l -3.21875,0 c -0.1875,0 -0.296875,0 -0.296875,0.1875 0,0.125 0.078125,0.125 0.28125,0.125 0.125,0 0.3125,0.015625 0.421875,0.015625 0.171875,0.03125 0.21875,0.046875 0.21875,0.171875 0,0.03125 0,0.0625 -0.03125,0.1875 l -1.34375,5.34375 c -0.09375,0.390625 -0.109375,0.46875 -0.90625,0.46875 -0.15625,0 -0.265625,0 -0.265625,0.1875 C 0.40625,0 0.515625,0 0.546875,0 0.828125,0 1.53125,-0.03125 1.8125,-0.03125 c 0.21875,0 0.4375,0.015625 0.640625,0.015625 0.21875,0 0.4375,0.015625 0.640625,0.015625 0.078125,0 0.203125,0 0.203125,-0.203125 0,-0.109375 -0.09375,-0.109375 -0.28125,-0.109375 -0.359375,0 -0.640625,0 -0.640625,-0.171875 0,-0.0625 0.015625,-0.109375 0.03125,-0.171875 z M 3.734375,-6.125 C 3.828125,-6.46875 3.84375,-6.5 4.28125,-6.5 l 0.953125,0 c 0.828125,0 1.359375,0.265625 1.359375,0.953125 0,0.390625 -0.203125,1.25 -0.59375,1.609375 -0.5,0.453125 -1.09375,0.53125 -1.53125,0.53125 l -1.40625,0 z m 0,0"
               style="stroke:none"
               inkscape:connector-curvature="0" />
          </symbol>
          <symbol
             id="textext-3740b16b-2"
             overflow="visible"
             style="overflow:visible">
            <path
               id="path19542"
               d="m 9.140625,-5.65625 c 0.25,-0.4375 0.484375,-0.796875 1.125,-0.84375 0.07813,-0.015625 0.1875,-0.015625 0.1875,-0.203125 0,-0.03125 -0.04687,-0.109375 -0.125,-0.109375 -0.234375,0 -0.515625,0.03125 -0.765625,0.03125 -0.34375,0 -0.703125,-0.03125 -1.046875,-0.03125 -0.046875,0 -0.1875,0 -0.1875,0.1875 0,0.109375 0.09375,0.125 0.15625,0.125 0.234375,0.015625 0.59375,0.09375 0.59375,0.390625 0,0.109375 -0.0625,0.1875 -0.140625,0.328125 L 6.25,-1.09375 5.875,-6.03125 c 0,-0.203125 -0.015625,-0.453125 0.703125,-0.46875 0.171875,0 0.265625,0 0.265625,-0.203125 0,-0.09375 -0.109375,-0.109375 -0.140625,-0.109375 -0.40625,0 -0.828125,0.03125 -1.21875,0.03125 -0.234375,0 -0.8125,-0.03125 -1.046875,-0.03125 -0.0625,0 -0.1875,0 -0.1875,0.203125 C 4.25,-6.5 4.34375,-6.5 4.484375,-6.5 4.921875,-6.5 5,-6.4375 5.015625,-6.25 l 0.0625,0.765625 -2.53125,4.390625 -0.375,-5.046875 c 0,-0.125 0,-0.34375 0.765625,-0.359375 0.09375,0 0.203125,0 0.203125,-0.203125 C 3.140625,-6.8125 3.015625,-6.8125 3,-6.8125 c -0.390625,0 -0.8125,0.03125 -1.21875,0.03125 -0.359375,0 -0.71875,-0.03125 -1.046875,-0.03125 -0.0625,0 -0.1875,0 -0.1875,0.1875 0,0.125 0.09375,0.125 0.25,0.125 0.5,0 0.515625,0.09375 0.53125,0.375 l 0.453125,6.078125 c 0,0.1875 0.015625,0.265625 0.15625,0.265625 0.109375,0 0.140625,-0.0625 0.234375,-0.203125 l 2.9375,-5.09375 0.359375,5.03125 C 5.5,0.171875 5.515625,0.21875 5.625,0.21875 c 0.140625,0 0.203125,-0.09375 0.25,-0.1875 z m 0,0"
               style="stroke:none"
               inkscape:connector-curvature="0" />
          </symbol>
          <symbol
             id="textext-3740b16b-3"
             overflow="visible"
             style="overflow:visible">
            <path
               id="path19545"
               d="M 9.234375,-6.046875 C 9.328125,-6.40625 9.34375,-6.5 10.09375,-6.5 c 0.21875,0 0.3125,0 0.3125,-0.203125 0,-0.109375 -0.09375,-0.109375 -0.265625,-0.109375 l -1.3125,0 c -0.265625,0 -0.28125,0 -0.390625,0.1875 L 4.796875,-0.9375 4.015625,-6.578125 C 3.984375,-6.8125 3.96875,-6.8125 3.703125,-6.8125 l -1.359375,0 c -0.1875,0 -0.296875,0 -0.296875,0.1875 0,0.125 0.09375,0.125 0.28125,0.125 0.140625,0 0.3125,0.015625 0.4375,0.015625 0.15625,0.03125 0.21875,0.046875 0.21875,0.171875 0,0.03125 -0.015625,0.0625 -0.046875,0.1875 l -1.265625,5.0625 c -0.09375,0.40625 -0.265625,0.71875 -1.078125,0.75 -0.046875,0 -0.171875,0.015625 -0.171875,0.1875 0,0.09375 0.0625,0.125 0.140625,0.125 0.3125,0 0.65625,-0.03125 1,-0.03125 C 1.890625,-0.03125 2.25,0 2.578125,0 c 0.046875,0 0.1875,0 0.1875,-0.203125 0,-0.109375 -0.109375,-0.109375 -0.1875,-0.109375 -0.5625,0 -0.671875,-0.203125 -0.671875,-0.4375 0,-0.0625 0,-0.125 0.03125,-0.234375 l 1.359375,-5.421875 0.015625,0 0.859375,6.171875 C 4.1875,-0.109375 4.203125,0 4.3125,0 4.421875,0 4.484375,-0.109375 4.53125,-0.171875 l 4.03125,-6.3125 0.015625,0 -1.4375,5.703125 c -0.09375,0.390625 -0.109375,0.46875 -0.90625,0.46875 -0.15625,0 -0.265625,0 -0.265625,0.1875 C 5.96875,0 6.078125,0 6.109375,0 6.390625,0 7.0625,-0.03125 7.34375,-0.03125 7.75,-0.03125 8.1875,0 8.59375,0 8.65625,0 8.78125,0 8.78125,-0.203125 8.78125,-0.3125 8.6875,-0.3125 8.5,-0.3125 c -0.359375,0 -0.640625,0 -0.640625,-0.171875 0,-0.046875 0,-0.0625 0.046875,-0.25 z m 0,0"
               style="stroke:none"
               inkscape:connector-curvature="0" />
          </symbol>
          <symbol
             id="textext-3740b16b-4"
             overflow="visible"
             style="overflow:visible">
            <path
               id="path19548"
               d="M 3.890625,-3.734375 C 3.625,-3.71875 3.421875,-3.5 3.421875,-3.28125 c 0,0.140625 0.09375,0.296875 0.3125,0.296875 0.21875,0 0.453125,-0.171875 0.453125,-0.5625 C 4.1875,-4 3.765625,-4.40625 3,-4.40625 c -1.3125,0 -1.6875,1.015625 -1.6875,1.453125 0,0.78125 0.734375,0.921875 1.03125,0.984375 0.515625,0.109375 1.03125,0.21875 1.03125,0.765625 0,0.25 -0.21875,1.09375 -1.421875,1.09375 -0.140625,0 -0.90625,0 -1.140625,-0.53125 0.390625,0.046875 0.640625,-0.25 0.640625,-0.53125 0,-0.21875 -0.171875,-0.34375 -0.375,-0.34375 -0.265625,0 -0.5625,0.203125 -0.5625,0.65625 0,0.5625 0.578125,0.96875 1.421875,0.96875 1.625,0 2.015625,-1.203125 2.015625,-1.65625 0,-0.359375 -0.1875,-0.609375 -0.3125,-0.71875 -0.265625,-0.28125 -0.5625,-0.34375 -1,-0.421875 -0.359375,-0.078125 -0.75,-0.15625 -0.75,-0.609375 C 1.890625,-3.578125 2.125,-4.1875 3,-4.1875 c 0.25,0 0.75,0.078125 0.890625,0.453125 z m 0,0"
               style="stroke:none"
               inkscape:connector-curvature="0" />
          </symbol>
          <symbol
             id="textext-3740b16b-5"
             overflow="visible"
             style="overflow:visible">
            <path
               id="path19551"
               d=""
               style="stroke:none"
               inkscape:connector-curvature="0" />
          </symbol>
          <symbol
             id="textext-3740b16b-6"
             overflow="visible"
             style="overflow:visible">
            <path
               id="path19554"
               d="m 3.296875,2.390625 c 0,-0.03125 0,-0.046875 -0.171875,-0.21875 C 1.890625,0.921875 1.5625,-0.96875 1.5625,-2.5 c 0,-1.734375 0.375,-3.46875 1.609375,-4.703125 0.125,-0.125 0.125,-0.140625 0.125,-0.171875 0,-0.078125 -0.03125,-0.109375 -0.09375,-0.109375 -0.109375,0 -1,0.6875 -1.59375,1.953125 -0.5,1.09375 -0.625,2.203125 -0.625,3.03125 0,0.78125 0.109375,1.984375 0.65625,3.125 C 2.25,1.84375 3.09375,2.5 3.203125,2.5 c 0.0625,0 0.09375,-0.03125 0.09375,-0.109375 z m 0,0"
               style="stroke:none"
               inkscape:connector-curvature="0" />
          </symbol>
          <symbol
             id="textext-3740b16b-7"
             overflow="visible"
             style="overflow:visible">
            <path
               id="path19557"
               d="m 2.875,-2.5 c 0,-0.765625 -0.109375,-1.96875 -0.65625,-3.109375 -0.59375,-1.21875 -1.453125,-1.875 -1.546875,-1.875 -0.0625,0 -0.109375,0.046875 -0.109375,0.109375 0,0.03125 0,0.046875 0.1875,0.234375 0.984375,0.984375 1.546875,2.5625 1.546875,4.640625 0,1.71875 -0.359375,3.46875 -1.59375,4.71875 C 0.5625,2.34375 0.5625,2.359375 0.5625,2.390625 0.5625,2.453125 0.609375,2.5 0.671875,2.5 0.765625,2.5 1.671875,1.8125 2.25,0.546875 2.765625,-0.546875 2.875,-1.65625 2.875,-2.5 Z m 0,0"
               style="stroke:none"
               inkscape:connector-curvature="0" />
          </symbol>
        </g>
      </defs>
      <g
         id="textext-3740b16b-8">
        <g
           id="g19560"
           style="fill:#000000;fill-opacity:1">
          <use
             id="use19562"
             y="134.765"
             x="223.43201"
             xlink:href="#textext-3740b16b-1"
             width="100%"
             height="100%" />
        </g>
        <g
           id="g19564"
           style="fill:#000000;fill-opacity:1">
          <use
             id="use19566"
             y="134.765"
             x="231.21278"
             xlink:href="#textext-3740b16b-2"
             width="100%"
             height="100%" />
        </g>
        <g
           id="g19568"
           style="fill:#000000;fill-opacity:1">
          <use
             id="use19570"
             y="134.765"
             x="242.00627"
             xlink:href="#textext-3740b16b-3"
             width="100%"
             height="100%" />
        </g>
        <g
           id="g19572"
           style="fill:#000000;fill-opacity:1">
          <use
             id="use19574"
             y="134.765"
             x="252.756"
             xlink:href="#textext-3740b16b-6"
             width="100%"
             height="100%" />
        </g>
        <g
           id="g19576"
           style="fill:#000000;fill-opacity:1">
          <use
             id="use19578"
             y="134.765"
             x="256.63101"
             xlink:href="#textext-3740b16b-4"
             width="100%"
             height="100%" />
        </g>
        <g
           id="g19580"
           style="fill:#000000;fill-opacity:1">
          <use
             id="use19582"
             y="134.765"
             x="261.30099"
             xlink:href="#textext-3740b16b-7"
             width="100%"
             height="100%" />
        </g>
      </g>
    </g>
    <g
       transform="matrix(4.7127995,0,0,4.7127995,-1775.0082,-604.1923)"
       ns0:text="$\\theta_{error}(s)$"
       ns0:preamble=""
       id="g20026">
      <defs
         id="defs20028">
        <g
           id="g20030">
          <symbol
             style="overflow:visible"
             overflow="visible"
             id="textext-ca236229-0">
            <path
               inkscape:connector-curvature="0"
               style="stroke:none"
               d=""
               id="path20033" />
          </symbol>
          <symbol
             style="overflow:visible"
             overflow="visible"
             id="textext-ca236229-1">
            <path
               inkscape:connector-curvature="0"
               style="stroke:none"
               d="m 4.53125,-4.984375 c 0,-0.65625 -0.171875,-2.046875 -1.1875,-2.046875 -1.390625,0 -2.921875,2.8125 -2.921875,5.09375 0,0.9375 0.28125,2.046875 1.1875,2.046875 1.40625,0 2.921875,-2.859375 2.921875,-5.09375 z M 1.46875,-3.625 C 1.640625,-4.25 1.84375,-5.046875 2.25,-5.765625 2.515625,-6.25 2.875,-6.8125 3.328125,-6.8125 c 0.484375,0 0.546875,0.640625 0.546875,1.203125 0,0.5 -0.078125,1 -0.3125,1.984375 z m 2,0.328125 C 3.359375,-2.84375 3.15625,-2 2.765625,-1.28125 c -0.34375,0.6875 -0.71875,1.171875 -1.15625,1.171875 -0.328125,0 -0.53125,-0.296875 -0.53125,-1.21875 0,-0.421875 0.0625,-1 0.3125,-1.96875 z m 0,0"
               id="path20036" />
          </symbol>
          <symbol
             style="overflow:visible"
             overflow="visible"
             id="textext-ca236229-2">
            <path
               inkscape:connector-curvature="0"
               style="stroke:none"
               d="M 3.890625,-3.734375 C 3.625,-3.71875 3.421875,-3.5 3.421875,-3.28125 c 0,0.140625 0.09375,0.296875 0.3125,0.296875 0.21875,0 0.453125,-0.171875 0.453125,-0.5625 C 4.1875,-4 3.765625,-4.40625 3,-4.40625 c -1.3125,0 -1.6875,1.015625 -1.6875,1.453125 0,0.78125 0.734375,0.921875 1.03125,0.984375 0.515625,0.109375 1.03125,0.21875 1.03125,0.765625 0,0.25 -0.21875,1.09375 -1.421875,1.09375 -0.140625,0 -0.90625,0 -1.140625,-0.53125 0.390625,0.046875 0.640625,-0.25 0.640625,-0.53125 0,-0.21875 -0.171875,-0.34375 -0.375,-0.34375 -0.265625,0 -0.5625,0.203125 -0.5625,0.65625 0,0.5625 0.578125,0.96875 1.421875,0.96875 1.625,0 2.015625,-1.203125 2.015625,-1.65625 0,-0.359375 -0.1875,-0.609375 -0.3125,-0.71875 -0.265625,-0.28125 -0.5625,-0.34375 -1,-0.421875 -0.359375,-0.078125 -0.75,-0.15625 -0.75,-0.609375 C 1.890625,-3.578125 2.125,-4.1875 3,-4.1875 c 0.25,0 0.75,0.078125 0.890625,0.453125 z m 0,0"
               id="path20039" />
          </symbol>
          <symbol
             style="overflow:visible"
             overflow="visible"
             id="textext-ca236229-3">
            <path
               inkscape:connector-curvature="0"
               style="stroke:none"
               d=""
               id="path20042" />
          </symbol>
          <symbol
             style="overflow:visible"
             overflow="visible"
             id="textext-ca236229-4">
            <path
               inkscape:connector-curvature="0"
               style="stroke:none"
               d="m 1.5625,-1.59375 c 0.1875,0 0.75,-0.015625 1.125,-0.140625 0.515625,-0.1875 0.609375,-0.515625 0.609375,-0.71875 0,-0.390625 -0.390625,-0.625 -0.859375,-0.625 -0.84375,0 -1.96875,0.640625 -1.96875,1.84375 0,0.703125 0.4375,1.296875 1.25,1.296875 1.1875,0 1.734375,-0.6875 1.734375,-0.78125 0,-0.046875 -0.0625,-0.125 -0.125,-0.125 -0.03125,0 -0.046875,0.015625 -0.109375,0.078125 C 2.671875,-0.125 1.859375,-0.125 1.734375,-0.125 1.3125,-0.125 1.03125,-0.40625 1.03125,-0.96875 c 0,-0.09375 0,-0.234375 0.09375,-0.625 z M 1.171875,-1.78125 C 1.46875,-2.796875 2.234375,-2.875 2.4375,-2.875 2.734375,-2.875 3,-2.71875 3,-2.453125 3,-1.78125 1.8125,-1.78125 1.515625,-1.78125 Z m 0,0"
               id="path20045" />
          </symbol>
          <symbol
             style="overflow:visible"
             overflow="visible"
             id="textext-ca236229-5">
            <path
               inkscape:connector-curvature="0"
               style="stroke:none"
               d="m 1.640625,-1.40625 c 0,-0.046875 0.171875,-0.671875 0.171875,-0.703125 0.015625,-0.0625 0.21875,-0.40625 0.453125,-0.578125 0.0625,-0.046875 0.25,-0.1875 0.5625,-0.1875 0.0625,0 0.234375,0 0.375,0.09375 -0.21875,0.0625 -0.296875,0.265625 -0.296875,0.390625 0,0.140625 0.109375,0.25 0.265625,0.25 0.171875,0 0.390625,-0.125 0.390625,-0.421875 0,-0.359375 -0.375,-0.515625 -0.734375,-0.515625 -0.359375,0 -0.671875,0.15625 -0.984375,0.5 -0.125,-0.421875 -0.546875,-0.5 -0.71875,-0.5 -0.25,0 -0.421875,0.171875 -0.546875,0.359375 -0.15625,0.265625 -0.25,0.671875 -0.25,0.71875 0,0.078125 0.09375,0.078125 0.125,0.078125 0.09375,0 0.09375,-0.015625 0.140625,-0.203125 0.109375,-0.421875 0.25,-0.75 0.515625,-0.75 0.1875,0 0.234375,0.15625 0.234375,0.34375 0,0.125 -0.0625,0.390625 -0.125,0.578125 -0.046875,0.1875 -0.109375,0.46875 -0.140625,0.625 L 0.84375,-0.4375 C 0.828125,-0.34375 0.78125,-0.171875 0.78125,-0.15625 0.78125,0 0.90625,0.0625 1.015625,0.0625 1.125,0.0625 1.265625,0 1.3125,-0.125 1.328125,-0.171875 1.40625,-0.484375 1.453125,-0.65625 Z m 0,0"
               id="path20048" />
          </symbol>
          <symbol
             style="overflow:visible"
             overflow="visible"
             id="textext-ca236229-6">
            <path
               inkscape:connector-curvature="0"
               style="stroke:none"
               d="m 3.703125,-1.859375 c 0,-0.765625 -0.578125,-1.21875 -1.265625,-1.21875 -1.03125,0 -2,0.96875 -2,1.921875 0,0.703125 0.5,1.21875 1.265625,1.21875 1,0 2,-0.90625 2,-1.921875 z m -2,1.734375 c -0.34375,0 -0.6875,-0.21875 -0.6875,-0.78125 0,-0.28125 0.125,-0.96875 0.40625,-1.359375 C 1.71875,-2.703125 2.125,-2.875 2.4375,-2.875 c 0.375,0 0.6875,0.25 0.6875,0.765625 C 3.125,-1.9375 3.046875,-1.25 2.734375,-0.765625 2.46875,-0.34375 2.0625,-0.125 1.703125,-0.125 Z m 0,0"
               id="path20051" />
          </symbol>
          <symbol
             style="overflow:visible"
             overflow="visible"
             id="textext-ca236229-7">
            <path
               inkscape:connector-curvature="0"
               style="stroke:none"
               d=""
               id="path20054" />
          </symbol>
          <symbol
             style="overflow:visible"
             overflow="visible"
             id="textext-ca236229-8">
            <path
               inkscape:connector-curvature="0"
               style="stroke:none"
               d="m 3.296875,2.390625 c 0,-0.03125 0,-0.046875 -0.171875,-0.21875 C 1.890625,0.921875 1.5625,-0.96875 1.5625,-2.5 c 0,-1.734375 0.375,-3.46875 1.609375,-4.703125 0.125,-0.125 0.125,-0.140625 0.125,-0.171875 0,-0.078125 -0.03125,-0.109375 -0.09375,-0.109375 -0.109375,0 -1,0.6875 -1.59375,1.953125 -0.5,1.09375 -0.625,2.203125 -0.625,3.03125 0,0.78125 0.109375,1.984375 0.65625,3.125 C 2.25,1.84375 3.09375,2.5 3.203125,2.5 c 0.0625,0 0.09375,-0.03125 0.09375,-0.109375 z m 0,0"
               id="path20057" />
          </symbol>
          <symbol
             style="overflow:visible"
             overflow="visible"
             id="textext-ca236229-9">
            <path
               inkscape:connector-curvature="0"
               style="stroke:none"
               d="m 2.875,-2.5 c 0,-0.765625 -0.109375,-1.96875 -0.65625,-3.109375 -0.59375,-1.21875 -1.453125,-1.875 -1.546875,-1.875 -0.0625,0 -0.109375,0.046875 -0.109375,0.109375 0,0.03125 0,0.046875 0.1875,0.234375 0.984375,0.984375 1.546875,2.5625 1.546875,4.640625 0,1.71875 -0.359375,3.46875 -1.59375,4.71875 C 0.5625,2.34375 0.5625,2.359375 0.5625,2.390625 0.5625,2.453125 0.609375,2.5 0.671875,2.5 0.765625,2.5 1.671875,1.8125 2.25,0.546875 2.765625,-0.546875 2.875,-1.65625 2.875,-2.5 Z m 0,0"
               id="path20060" />
          </symbol>
        </g>
      </defs>
      <g
         id="textext-ca236229-10">
        <g
           style="fill:#000000;fill-opacity:1"
           id="g20063">
          <use
             height="100%"
             width="100%"
             xlink:href="#textext-ca236229-1"
             x="223.43201"
             y="134.765"
             id="use20065" />
        </g>
        <g
           style="fill:#000000;fill-opacity:1"
           id="g20067">
          <use
             height="100%"
             width="100%"
             xlink:href="#textext-ca236229-4"
             x="228.10899"
             y="136.259"
             id="use20069" />
          <use
             height="100%"
             width="100%"
             xlink:href="#textext-ca236229-5"
             x="231.88879"
             y="136.259"
             id="use20071" />
        </g>
        <g
           style="fill:#000000;fill-opacity:1"
           id="g20073">
          <use
             height="100%"
             width="100%"
             xlink:href="#textext-ca236229-5"
             x="235.80389"
             y="136.259"
             id="use20075" />
        </g>
        <g
           style="fill:#000000;fill-opacity:1"
           id="g20077">
          <use
             height="100%"
             width="100%"
             xlink:href="#textext-ca236229-6"
             x="239.71898"
             y="136.259"
             id="use20079" />
          <use
             height="100%"
             width="100%"
             xlink:href="#textext-ca236229-5"
             x="243.6515"
             y="136.259"
             id="use20081" />
        </g>
        <g
           style="fill:#000000;fill-opacity:1"
           id="g20083">
          <use
             height="100%"
             width="100%"
             xlink:href="#textext-ca236229-8"
             x="248.06"
             y="134.765"
             id="use20085" />
        </g>
        <g
           style="fill:#000000;fill-opacity:1"
           id="g20087">
          <use
             height="100%"
             width="100%"
             xlink:href="#textext-ca236229-2"
             x="251.935"
             y="134.765"
             id="use20089" />
        </g>
        <g
           style="fill:#000000;fill-opacity:1"
           id="g20091">
          <use
             height="100%"
             width="100%"
             xlink:href="#textext-ca236229-9"
             x="256.60501"
             y="134.765"
             id="use20093" />
        </g>
      </g>
    </g>
    <g
       id="g20679"
       transform="matrix(4.7127995,0,0,4.7127995,-2057.0082,-604.1923)"
       ns0:preamble=""
       ns0:text="$\\theta_{ref}(s)$">
      <defs
         id="defs20681">
        <g
           id="g20683">
          <symbol
             style="overflow:visible"
             id="textext-8fee9e9d-0"
             overflow="visible">
            <path
               inkscape:connector-curvature="0"
               id="path20686"
               d=""
               style="stroke:none" />
          </symbol>
          <symbol
             style="overflow:visible"
             id="textext-8fee9e9d-1"
             overflow="visible">
            <path
               inkscape:connector-curvature="0"
               id="path20689"
               d="m 4.53125,-4.984375 c 0,-0.65625 -0.171875,-2.046875 -1.1875,-2.046875 -1.390625,0 -2.921875,2.8125 -2.921875,5.09375 0,0.9375 0.28125,2.046875 1.1875,2.046875 1.40625,0 2.921875,-2.859375 2.921875,-5.09375 z M 1.46875,-3.625 C 1.640625,-4.25 1.84375,-5.046875 2.25,-5.765625 2.515625,-6.25 2.875,-6.8125 3.328125,-6.8125 c 0.484375,0 0.546875,0.640625 0.546875,1.203125 0,0.5 -0.078125,1 -0.3125,1.984375 z m 2,0.328125 C 3.359375,-2.84375 3.15625,-2 2.765625,-1.28125 c -0.34375,0.6875 -0.71875,1.171875 -1.15625,1.171875 -0.328125,0 -0.53125,-0.296875 -0.53125,-1.21875 0,-0.421875 0.0625,-1 0.3125,-1.96875 z m 0,0"
               style="stroke:none" />
          </symbol>
          <symbol
             style="overflow:visible"
             id="textext-8fee9e9d-2"
             overflow="visible">
            <path
               inkscape:connector-curvature="0"
               id="path20692"
               d="M 3.890625,-3.734375 C 3.625,-3.71875 3.421875,-3.5 3.421875,-3.28125 c 0,0.140625 0.09375,0.296875 0.3125,0.296875 0.21875,0 0.453125,-0.171875 0.453125,-0.5625 C 4.1875,-4 3.765625,-4.40625 3,-4.40625 c -1.3125,0 -1.6875,1.015625 -1.6875,1.453125 0,0.78125 0.734375,0.921875 1.03125,0.984375 0.515625,0.109375 1.03125,0.21875 1.03125,0.765625 0,0.25 -0.21875,1.09375 -1.421875,1.09375 -0.140625,0 -0.90625,0 -1.140625,-0.53125 0.390625,0.046875 0.640625,-0.25 0.640625,-0.53125 0,-0.21875 -0.171875,-0.34375 -0.375,-0.34375 -0.265625,0 -0.5625,0.203125 -0.5625,0.65625 0,0.5625 0.578125,0.96875 1.421875,0.96875 1.625,0 2.015625,-1.203125 2.015625,-1.65625 0,-0.359375 -0.1875,-0.609375 -0.3125,-0.71875 -0.265625,-0.28125 -0.5625,-0.34375 -1,-0.421875 -0.359375,-0.078125 -0.75,-0.15625 -0.75,-0.609375 C 1.890625,-3.578125 2.125,-4.1875 3,-4.1875 c 0.25,0 0.75,0.078125 0.890625,0.453125 z m 0,0"
               style="stroke:none" />
          </symbol>
          <symbol
             style="overflow:visible"
             id="textext-8fee9e9d-3"
             overflow="visible">
            <path
               inkscape:connector-curvature="0"
               id="path20695"
               d=""
               style="stroke:none" />
          </symbol>
          <symbol
             style="overflow:visible"
             id="textext-8fee9e9d-4"
             overflow="visible">
            <path
               inkscape:connector-curvature="0"
               id="path20698"
               d="m 1.640625,-1.40625 c 0,-0.046875 0.171875,-0.671875 0.171875,-0.703125 0.015625,-0.0625 0.21875,-0.40625 0.453125,-0.578125 0.0625,-0.046875 0.25,-0.1875 0.5625,-0.1875 0.0625,0 0.234375,0 0.375,0.09375 -0.21875,0.0625 -0.296875,0.265625 -0.296875,0.390625 0,0.140625 0.109375,0.25 0.265625,0.25 0.171875,0 0.390625,-0.125 0.390625,-0.421875 0,-0.359375 -0.375,-0.515625 -0.734375,-0.515625 -0.359375,0 -0.671875,0.15625 -0.984375,0.5 -0.125,-0.421875 -0.546875,-0.5 -0.71875,-0.5 -0.25,0 -0.421875,0.171875 -0.546875,0.359375 -0.15625,0.265625 -0.25,0.671875 -0.25,0.71875 0,0.078125 0.09375,0.078125 0.125,0.078125 0.09375,0 0.09375,-0.015625 0.140625,-0.203125 0.109375,-0.421875 0.25,-0.75 0.515625,-0.75 0.1875,0 0.234375,0.15625 0.234375,0.34375 0,0.125 -0.0625,0.390625 -0.125,0.578125 -0.046875,0.1875 -0.109375,0.46875 -0.140625,0.625 L 0.84375,-0.4375 C 0.828125,-0.34375 0.78125,-0.171875 0.78125,-0.15625 0.78125,0 0.90625,0.0625 1.015625,0.0625 1.125,0.0625 1.265625,0 1.3125,-0.125 1.328125,-0.171875 1.40625,-0.484375 1.453125,-0.65625 Z m 0,0"
               style="stroke:none" />
          </symbol>
          <symbol
             style="overflow:visible"
             id="textext-8fee9e9d-5"
             overflow="visible">
            <path
               inkscape:connector-curvature="0"
               id="path20701"
               d="m 1.5625,-1.59375 c 0.1875,0 0.75,-0.015625 1.125,-0.140625 0.515625,-0.1875 0.609375,-0.515625 0.609375,-0.71875 0,-0.390625 -0.390625,-0.625 -0.859375,-0.625 -0.84375,0 -1.96875,0.640625 -1.96875,1.84375 0,0.703125 0.4375,1.296875 1.25,1.296875 1.1875,0 1.734375,-0.6875 1.734375,-0.78125 0,-0.046875 -0.0625,-0.125 -0.125,-0.125 -0.03125,0 -0.046875,0.015625 -0.109375,0.078125 C 2.671875,-0.125 1.859375,-0.125 1.734375,-0.125 1.3125,-0.125 1.03125,-0.40625 1.03125,-0.96875 c 0,-0.09375 0,-0.234375 0.09375,-0.625 z M 1.171875,-1.78125 C 1.46875,-2.796875 2.234375,-2.875 2.4375,-2.875 2.734375,-2.875 3,-2.71875 3,-2.453125 3,-1.78125 1.8125,-1.78125 1.515625,-1.78125 Z m 0,0"
               style="stroke:none" />
          </symbol>
          <symbol
             style="overflow:visible"
             id="textext-8fee9e9d-6"
             overflow="visible">
            <path
               inkscape:connector-curvature="0"
               id="path20704"
               d="m 2.84375,-2.75 0.671875,0 C 3.65625,-2.75 3.75,-2.75 3.75,-2.90625 3.75,-3 3.65625,-3 3.53125,-3 l -0.640625,0 c 0.15625,-0.890625 0.203125,-1.203125 0.265625,-1.40625 0.03125,-0.15625 0.1875,-0.296875 0.359375,-0.296875 0,0 0.1875,0 0.328125,0.078125 -0.296875,0.09375 -0.3125,0.34375 -0.3125,0.375 0,0.15625 0.125,0.265625 0.28125,0.265625 0.1875,0 0.390625,-0.15625 0.390625,-0.421875 0,-0.328125 -0.328125,-0.5 -0.6875,-0.5 -0.3125,0 -0.65625,0.171875 -0.84375,0.515625 C 2.53125,-4.125 2.484375,-3.8125 2.328125,-3 L 1.78125,-3 c -0.140625,0 -0.234375,0 -0.234375,0.15625 0,0.09375 0.09375,0.09375 0.21875,0.09375 l 0.515625,0 c 0,0.046875 -0.4375,2.546875 -0.609375,3.296875 -0.03125,0.15625 -0.15625,0.671875 -0.484375,0.671875 -0.015625,0 -0.171875,0 -0.3125,-0.078125 0.28125,-0.09375 0.3125,-0.34375 0.3125,-0.375 C 1.1875,0.609375 1.0625,0.5 0.90625,0.5 c -0.1875,0 -0.390625,0.15625 -0.390625,0.421875 0,0.3125 0.328125,0.5 0.671875,0.5 0.4375,0 0.75,-0.453125 0.828125,-0.609375 0.25,-0.46875 0.421875,-1.328125 0.4375,-1.40625 z m 0,0"
               style="stroke:none" />
          </symbol>
          <symbol
             style="overflow:visible"
             id="textext-8fee9e9d-7"
             overflow="visible">
            <path
               inkscape:connector-curvature="0"
               id="path20707"
               d=""
               style="stroke:none" />
          </symbol>
          <symbol
             style="overflow:visible"
             id="textext-8fee9e9d-8"
             overflow="visible">
            <path
               inkscape:connector-curvature="0"
               id="path20710"
               d="m 3.296875,2.390625 c 0,-0.03125 0,-0.046875 -0.171875,-0.21875 C 1.890625,0.921875 1.5625,-0.96875 1.5625,-2.5 c 0,-1.734375 0.375,-3.46875 1.609375,-4.703125 0.125,-0.125 0.125,-0.140625 0.125,-0.171875 0,-0.078125 -0.03125,-0.109375 -0.09375,-0.109375 -0.109375,0 -1,0.6875 -1.59375,1.953125 -0.5,1.09375 -0.625,2.203125 -0.625,3.03125 0,0.78125 0.109375,1.984375 0.65625,3.125 C 2.25,1.84375 3.09375,2.5 3.203125,2.5 c 0.0625,0 0.09375,-0.03125 0.09375,-0.109375 z m 0,0"
               style="stroke:none" />
          </symbol>
          <symbol
             style="overflow:visible"
             id="textext-8fee9e9d-9"
             overflow="visible">
            <path
               inkscape:connector-curvature="0"
               id="path20713"
               d="m 2.875,-2.5 c 0,-0.765625 -0.109375,-1.96875 -0.65625,-3.109375 -0.59375,-1.21875 -1.453125,-1.875 -1.546875,-1.875 -0.0625,0 -0.109375,0.046875 -0.109375,0.109375 0,0.03125 0,0.046875 0.1875,0.234375 0.984375,0.984375 1.546875,2.5625 1.546875,4.640625 0,1.71875 -0.359375,3.46875 -1.59375,4.71875 C 0.5625,2.34375 0.5625,2.359375 0.5625,2.390625 0.5625,2.453125 0.609375,2.5 0.671875,2.5 0.765625,2.5 1.671875,1.8125 2.25,0.546875 2.765625,-0.546875 2.875,-1.65625 2.875,-2.5 Z m 0,0"
               style="stroke:none" />
          </symbol>
        </g>
      </defs>
      <g
         id="textext-8fee9e9d-10">
        <g
           id="g20716"
           style="fill:#000000;fill-opacity:1">
          <use
             height="100%"
             width="100%"
             id="use20718"
             y="134.765"
             x="223.43201"
             xlink:href="#textext-8fee9e9d-1" />
        </g>
        <g
           id="g20720"
           style="fill:#000000;fill-opacity:1">
          <use
             height="100%"
             width="100%"
             id="use20722"
             y="136.259"
             x="228.10899"
             xlink:href="#textext-8fee9e9d-4" />
        </g>
        <g
           id="g20724"
           style="fill:#000000;fill-opacity:1">
          <use
             height="100%"
             width="100%"
             id="use20726"
             y="136.259"
             x="232.02409"
             xlink:href="#textext-8fee9e9d-5" />
          <use
             height="100%"
             width="100%"
             id="use20728"
             y="136.259"
             x="235.80389"
             xlink:href="#textext-8fee9e9d-6" />
        </g>
        <g
           id="g20730"
           style="fill:#000000;fill-opacity:1">
          <use
             height="100%"
             width="100%"
             id="use20732"
             y="134.765"
             x="240.967"
             xlink:href="#textext-8fee9e9d-8" />
        </g>
        <g
           id="g20734"
           style="fill:#000000;fill-opacity:1">
          <use
             height="100%"
             width="100%"
             id="use20736"
             y="134.765"
             x="244.842"
             xlink:href="#textext-8fee9e9d-2" />
        </g>
        <g
           id="g20738"
           style="fill:#000000;fill-opacity:1">
          <use
             height="100%"
             width="100%"
             id="use20740"
             y="134.765"
             x="249.51199"
             xlink:href="#textext-8fee9e9d-9" />
        </g>
      </g>
    </g>
  </g>
</svg>
