<?xml version="1.0" encoding="UTF-8" standalone="no"?>
<!-- Created with Inkscape (http://www.inkscape.org/) -->

<svg
   xmlns:dc="http://purl.org/dc/elements/1.1/"
   xmlns:cc="http://creativecommons.org/ns#"
   xmlns:rdf="http://www.w3.org/1999/02/22-rdf-syntax-ns#"
   xmlns:svg="http://www.w3.org/2000/svg"
   xmlns="http://www.w3.org/2000/svg"
   xmlns:sodipodi="http://sodipodi.sourceforge.net/DTD/sodipodi-0.dtd"
   xmlns:inkscape="http://www.inkscape.org/namespaces/inkscape"
   id="svg2"
   version="1.1"
   inkscape:version="0.48.4 r9939"
   width="670.78131"
   height="560.11719"
   xml:space="preserve"
   sodipodi:docname="steeringMechanical.pdf"><metadata
     id="metadata8"><rdf:RDF><cc:Work
         rdf:about=""><dc:format>image/svg+xml</dc:format><dc:type
           rdf:resource="http://purl.org/dc/dcmitype/StillImage" /><dc:title></dc:title></cc:Work></rdf:RDF></metadata><defs
     id="defs6" /><sodipodi:namedview
     pagecolor="#ffffff"
     bordercolor="#666666"
     borderopacity="1"
     objecttolerance="10"
     gridtolerance="10"
     guidetolerance="10"
     inkscape:pageopacity="0"
     inkscape:pageshadow="2"
     inkscape:window-width="1307"
     inkscape:window-height="744"
     id="namedview4"
     showgrid="false"
     fit-margin-top="0"
     fit-margin-left="0"
     fit-margin-right="0"
     fit-margin-bottom="0"
     inkscape:zoom="0.89702957"
     inkscape:cx="327.4494"
     inkscape:cy="269.84565"
     inkscape:window-x="59"
     inkscape:window-y="24"
     inkscape:window-maximized="1"
     inkscape:current-layer="g10" /><g
     id="g10"
     inkscape:groupmode="layer"
     inkscape:label="steeringMechanical"
     transform="matrix(1.25,0,0,-1.25,-65.195236,782.67471)"><g
       id="g12"
       transform="matrix(0.92038713,0,0,0.92038713,25.513567,32.011322)"><g
         id="g14"
         transform="matrix(1,0,0,-1,0,841.88977)"><path
           d="m 570.055,272.043 c 0,1.047 -0.852,1.898 -1.899,1.898 -1.047,0 -1.898,-0.851 -1.898,-1.898 0,-1.047 0.851,-1.898 1.898,-1.898 1.047,0 1.899,0.851 1.899,1.898 z"
           style="fill:none;stroke:#000000;stroke-width:0.37795946;stroke-linecap:square;stroke-linejoin:round;stroke-miterlimit:1;stroke-opacity:1;stroke-dasharray:none"
           id="path16"
           inkscape:connector-curvature="0" /></g><g
         id="g18"
         transform="matrix(1,0,0,-1,0,841.88977)"><path
           d="m 588.449,272.043 c 0,11.434 -9.176,20.699 -20.496,20.699 -11.316,0 -20.496,-9.265 -20.496,-20.699 0,-11.43 9.18,-20.695 20.496,-20.695 11.32,0 20.496,9.265 20.496,20.695 z"
           style="fill:none;stroke:#000000;stroke-width:0.69917315;stroke-linecap:square;stroke-linejoin:round;stroke-miterlimit:1;stroke-opacity:1;stroke-dasharray:none"
           id="path20"
           inkscape:connector-curvature="0" /></g><g
         id="g22"
         transform="matrix(1,0,0,-1,0,841.88977)"><path
           d="m 588.035,272.918 c -0.094,31.293 -47.976,21.746 -92.551,18.574 -47.824,-3.406 -66.734,-1.82 -66.734,-19.203 0,-17.387 15.285,-15.453 59.812,-19.203 47.036,-3.965 99.583,-14.195 99.473,19.832 z"
           style="fill:none;stroke:#000000;stroke-width:0.69917315;stroke-linecap:square;stroke-linejoin:round;stroke-miterlimit:1;stroke-opacity:1;stroke-dasharray:none"
           id="path24"
           inkscape:connector-curvature="0" /></g><g
         id="g26"
         transform="matrix(1,0,0,-1,0,841.88977)"><path
           d="m 456.137,272.043 c 0,7.652 -6.199,13.852 -13.852,13.852 -7.648,0 -13.851,-6.2 -13.851,-13.852 0,-7.648 6.203,-13.852 13.851,-13.852 7.653,0 13.852,6.204 13.852,13.852 z"
           style="fill:#ffffff;fill-opacity:1;fill-rule:nonzero;stroke:#000000;stroke-width:0.69917315;stroke-linecap:square;stroke-linejoin:round;stroke-miterlimit:1;stroke-opacity:1;stroke-dasharray:none"
           id="path28"
           inkscape:connector-curvature="0" /></g><g
         id="g30"
         transform="matrix(1,0,0,-1,0,841.88977)"><path
           d="m 444.766,272.043 c 0,1.371 -1.11,2.48 -2.481,2.48 -1.371,0 -2.48,-1.109 -2.48,-2.48 0,-1.367 1.109,-2.481 2.48,-2.481 1.371,0 2.481,1.114 2.481,2.481 z"
           style="fill:none;stroke:#000000;stroke-width:0.69917315;stroke-linecap:square;stroke-linejoin:round;stroke-miterlimit:1;stroke-opacity:1;stroke-dasharray:none"
           id="path32"
           inkscape:connector-curvature="0" /></g><g
         id="g34"
         transform="matrix(1,0,0,-1,0,841.88977)"><path
           d="m 440.113,271.816 4.285,0 0,9.094 -4.285,0 0,-9.094 z"
           style="fill:#eeeeec;fill-opacity:1;fill-rule:nonzero;stroke:#000000;stroke-width:0.86919945;stroke-linecap:butt;stroke-linejoin:round;stroke-miterlimit:4;stroke-opacity:1;stroke-dasharray:none"
           id="path36"
           inkscape:connector-curvature="0" /></g><g
         id="g38"
         transform="matrix(1,0,0,-1,0,841.88977)"><path
           d="m 52.57,413.316 130.285,0 0,64 -130.285,0 0,-64 z"
           style="fill:none;stroke:#000000;stroke-width:0.86919945;stroke-linecap:butt;stroke-linejoin:round;stroke-miterlimit:4;stroke-opacity:1;stroke-dasharray:none"
           id="path40"
           inkscape:connector-curvature="0" /></g><g
         id="g42"
         transform="matrix(1,0,0,-1,0,841.88977)"><path
           d="m 137.145,377.891 21.711,0 0,133.715 -21.711,0 0,-133.715 z"
           style="fill:#eeeeec;fill-opacity:1;fill-rule:nonzero;stroke:#000000;stroke-width:0.86919945;stroke-linecap:butt;stroke-linejoin:round;stroke-miterlimit:4;stroke-opacity:1;stroke-dasharray:none"
           id="path44"
           inkscape:connector-curvature="0" /></g><g
         id="g46"
         transform="matrix(1,0.254822,0.254822,-1,0,841.88977)"><path
           d="m 45.388,387.964 264.684,-0.002 10e-4,13.29 -264.684,10e-4 -0.001,-13.289 z"
           style="fill:#eeeeec;fill-opacity:1;fill-rule:nonzero;stroke:#000000;stroke-width:0.84228253;stroke-linecap:butt;stroke-linejoin:round;stroke-miterlimit:4;stroke-opacity:1;stroke-dasharray:none"
           id="path48"
           inkscape:connector-curvature="0" /></g><g
         id="g50"
         transform="matrix(1,-0.254822,0.254822,1,0,841.88977)"><path
           d="m 258.121,-446.866 264.683,0.002 10e-4,13.289 -264.683,-0.002 -0.001,-13.289 z"
           style="fill:#eeeeec;fill-opacity:1;fill-rule:nonzero;stroke:#000000;stroke-width:0.84228253;stroke-linecap:butt;stroke-linejoin:round;stroke-miterlimit:4;stroke-opacity:1;stroke-dasharray:none"
           id="path52"
           inkscape:connector-curvature="0" /></g><g
         id="g54"
         transform="matrix(1,0,0,-1,0,841.88977)"><path
           d="m 414.23,358.293 0,61.84 -42.949,0 0,50.371 42.949,0 0,61.84 57.918,0 0,-174.051 -57.918,0 z"
           style="fill:#ffffff;fill-opacity:1;fill-rule:nonzero;stroke:#000000;stroke-width:0.69917315;stroke-linecap:square;stroke-linejoin:round;stroke-miterlimit:1;stroke-opacity:1;stroke-dasharray:none"
           id="path56"
           inkscape:connector-curvature="0" /></g><g
         id="g58"
         transform="matrix(1,0,0,-1,0,841.88977)"><path
           d="m 468.57,307.031 c 0,14.52 -11.765,26.285 -26.285,26.285 -14.515,0 -26.285,-11.765 -26.285,-26.285 0,-14.515 11.77,-26.285 26.285,-26.285 14.52,0 26.285,11.77 26.285,26.285 z"
           style="fill:#eeeeec;fill-opacity:1;fill-rule:nonzero;stroke:#000000;stroke-width:0.86919945;stroke-linecap:butt;stroke-linejoin:round;stroke-miterlimit:4;stroke-opacity:1;stroke-dasharray:none"
           id="path60"
           inkscape:connector-curvature="0" /></g><g
         id="g62"
         transform="translate(0,841.88977)"><path
           d="m 468.57,-579.719 c 0,14.52 -11.765,26.285 -26.285,26.285 -14.515,0 -26.285,-11.765 -26.285,-26.285 0,-14.515 11.77,-26.285 26.285,-26.285 14.52,0 26.285,11.77 26.285,26.285 z"
           style="fill:#eeeeec;fill-opacity:1;fill-rule:nonzero;stroke:#000000;stroke-width:0.86919945;stroke-linecap:butt;stroke-linejoin:round;stroke-miterlimit:4;stroke-opacity:1;stroke-dasharray:none"
           id="path64"
           inkscape:connector-curvature="0" /></g><g
         id="g66"
         transform="matrix(1,0,0,-1,0,841.88977)"><path
           d="m 440.113,307.031 4.285,0 0,51.43 -4.285,0 0,-51.43 z"
           style="fill:#eeeeec;fill-opacity:1;fill-rule:nonzero;stroke:#000000;stroke-width:0.86919945;stroke-linecap:butt;stroke-linejoin:round;stroke-miterlimit:4;stroke-opacity:1;stroke-dasharray:none"
           id="path68"
           inkscape:connector-curvature="0" /></g><g
         id="g70"
         transform="matrix(1,0,0,-1,0,841.88977)"><path
           d="m 440.113,532.574 4.285,0 0,20.609 -4.285,0 0,-20.609 z"
           style="fill:#eeeeec;fill-opacity:1;fill-rule:nonzero;stroke:#000000;stroke-width:0.86919945;stroke-linecap:butt;stroke-linejoin:round;stroke-miterlimit:4;stroke-opacity:1;stroke-dasharray:none"
           id="path72"
           inkscape:connector-curvature="0" /></g><g
         id="g74"
         transform="matrix(1,0,0,-1,0,841.88977)"><path
           d="m 444.363,614.918 c 0,1.148 -0.929,2.078 -2.078,2.078 -1.144,0 -2.074,-0.93 -2.074,-2.078 0,-1.145 0.93,-2.074 2.074,-2.074 1.149,0 2.078,0.929 2.078,2.074 z"
           style="fill:#eeeeec;fill-opacity:1;fill-rule:nonzero;stroke:#000000;stroke-width:0.86919945;stroke-linecap:butt;stroke-linejoin:round;stroke-miterlimit:4;stroke-opacity:1;stroke-dasharray:none"
           id="path76"
           inkscape:connector-curvature="0" /></g><g
         id="g78"
         transform="matrix(1,0,0,-1,0,841.88977)"><path
           d="m 440.113,579.953 4.285,0 0,26.984 -4.285,0 0,-26.984 z"
           style="fill:#eeeeec;fill-opacity:1;fill-rule:nonzero;stroke:#000000;stroke-width:0.86919945;stroke-linecap:butt;stroke-linejoin:round;stroke-miterlimit:4;stroke-opacity:1;stroke-dasharray:none"
           id="path80"
           inkscape:connector-curvature="0" /></g><g
         id="g82"
         transform="matrix(1,0,0,-1,0,841.88977)"><path
           d="m 444.363,307.031 c 0,1.149 -0.929,2.078 -2.078,2.078 -1.144,0 -2.074,-0.929 -2.074,-2.078 0,-1.144 0.93,-2.074 2.074,-2.074 1.149,0 2.078,0.93 2.078,2.074 z"
           style="fill:#eeeeec;fill-opacity:1;fill-rule:nonzero;stroke:#000000;stroke-width:0.86919945;stroke-linecap:butt;stroke-linejoin:round;stroke-miterlimit:4;stroke-opacity:1;stroke-dasharray:none"
           id="path84"
           inkscape:connector-curvature="0" /></g><g
         id="g86"
         transform="matrix(1,0,0,-1,0,841.88977)"><path
           d="m 444.363,271.832 c 0,1.148 -0.929,2.078 -2.078,2.078 -1.144,0 -2.074,-0.93 -2.074,-2.078 0,-1.144 0.93,-2.074 2.074,-2.074 1.149,0 2.078,0.93 2.078,2.074 z"
           style="fill:#eeeeec;fill-opacity:1;fill-rule:nonzero;stroke:#000000;stroke-width:0.86919945;stroke-linecap:butt;stroke-linejoin:round;stroke-miterlimit:4;stroke-opacity:1;stroke-dasharray:none"
           id="path88"
           inkscape:connector-curvature="0" /></g><g
         id="g90"
         transform="matrix(1,0,0,-1,0,841.88977)"><path
           d="m 588.352,615.129 c 0,11.433 -9.157,20.699 -20.45,20.699 -11.289,0 -20.445,-9.266 -20.445,-20.699 0,-11.43 9.156,-20.695 20.445,-20.695 11.293,0 20.45,9.265 20.45,20.695 z"
           style="fill:none;stroke:#000000;stroke-width:0.69917315;stroke-linecap:square;stroke-linejoin:round;stroke-miterlimit:1;stroke-opacity:1;stroke-dasharray:none"
           id="path92"
           inkscape:connector-curvature="0" /></g><g
         id="g94"
         transform="matrix(1,0,0,-1,0,841.88977)"><path
           d="m 588.035,616.004 c -0.094,31.293 -47.976,21.742 -92.551,18.57 -47.824,-3.402 -66.734,-1.816 -66.734,-19.199 0,-17.387 15.285,-15.453 59.812,-19.203 47.036,-3.965 99.583,-14.195 99.473,19.832 z"
           style="fill:none;stroke:#000000;stroke-width:0.69917315;stroke-linecap:square;stroke-linejoin:round;stroke-miterlimit:1;stroke-opacity:1;stroke-dasharray:none"
           id="path96"
           inkscape:connector-curvature="0" /></g><g
         id="g98"
         transform="matrix(1,0,0,-1,0,841.88977)"><path
           d="m 456.137,615.129 c 0,7.648 -6.199,13.851 -13.852,13.851 -7.648,0 -13.851,-6.203 -13.851,-13.851 0,-7.649 6.203,-13.852 13.851,-13.852 7.653,0 13.852,6.203 13.852,13.852 z"
           style="fill:#ffffff;fill-opacity:1;fill-rule:nonzero;stroke:#000000;stroke-width:0.69917315;stroke-linecap:square;stroke-linejoin:round;stroke-miterlimit:1;stroke-opacity:1;stroke-dasharray:none"
           id="path100"
           inkscape:connector-curvature="0" /></g><g
         id="g102"
         transform="matrix(1,0,0,-1,0,841.88977)"><path
           d="m 444.766,615.129 c 0,1.371 -1.11,2.48 -2.481,2.48 -1.371,0 -2.48,-1.109 -2.48,-2.48 0,-1.367 1.109,-2.481 2.48,-2.481 1.371,0 2.481,1.114 2.481,2.481 z"
           style="fill:none;stroke:#000000;stroke-width:0.69917315;stroke-linecap:square;stroke-linejoin:round;stroke-miterlimit:1;stroke-opacity:1;stroke-dasharray:none"
           id="path104"
           inkscape:connector-curvature="0" /></g><g
         id="g106"
         transform="matrix(1,0,0,-1,0,841.88977)"><path
           d="m 152,444.746 c 0,2.211 -1.789,4 -4,4 -2.211,0 -4,-1.789 -4,-4 0,-2.207 1.789,-4 4,-4 2.211,0 4,1.793 4,4 z"
           style="fill:#eeeeec;fill-opacity:1;fill-rule:nonzero;stroke:#000000;stroke-width:0.86919945;stroke-linecap:butt;stroke-linejoin:round;stroke-miterlimit:4;stroke-opacity:1;stroke-dasharray:none"
           id="path108"
           inkscape:connector-curvature="0" /></g><g
         id="g110"
         transform="matrix(1,0,0,-1,0,841.88977)"><path
           d="m 425.109,307.336 c 0.571,9.176 14.106,20.25 -2.453,21.695 -4.269,0.371 -12.777,-11.633 -13.082,-21.695 -0.347,-11.41 11.563,-28.102 20.446,-19.887 6.863,6.348 -5.465,10.93 -4.911,19.887 z"
           style="fill:#d3d7cf;fill-opacity:1;fill-rule:nonzero;stroke:#000000;stroke-width:0.86919945;stroke-linecap:butt;stroke-linejoin:round;stroke-miterlimit:4;stroke-opacity:1;stroke-dasharray:none"
           id="path112"
           inkscape:connector-curvature="0" /></g><g
         id="g114"
         transform="matrix(1,0,0,-1,0,841.88977)"><path
           d="m 425.309,579.438 c 0.57,9.175 14.101,20.25 -2.454,21.695 -4.269,0.375 -12.777,-11.633 -13.085,-21.695 -0.348,-11.411 11.562,-28.102 20.445,-19.887 6.863,6.347 -5.461,10.929 -4.906,19.887 z"
           style="fill:#d3d7cf;fill-opacity:1;fill-rule:nonzero;stroke:#000000;stroke-width:0.86919945;stroke-linecap:butt;stroke-linejoin:round;stroke-miterlimit:4;stroke-opacity:1;stroke-dasharray:none"
           id="path116"
           inkscape:connector-curvature="0" /></g><g
         id="g118"
         transform="matrix(1,0,0,-1,0,841.88977)"><path
           d="m 566.504,615.102 3.328,0 0,26.379 -3.328,0 0,-26.379 z"
           style="fill:#eeeeec;fill-opacity:1;fill-rule:nonzero;stroke:#000000;stroke-width:0.86919945;stroke-linecap:butt;stroke-linejoin:round;stroke-miterlimit:4;stroke-opacity:1;stroke-dasharray:none"
           id="path120"
           inkscape:connector-curvature="0" /></g><g
         id="g122"
         transform="matrix(1,0,0,-1,0,841.88977)"><path
           d="m 581.922,649.672 c 0,7.648 -6.203,13.851 -13.852,13.851 -7.652,0 -13.851,-6.203 -13.851,-13.851 0,-7.649 6.199,-13.852 13.851,-13.852 7.649,0 13.852,6.203 13.852,13.852 z"
           style="fill:#ffffff;fill-opacity:1;fill-rule:nonzero;stroke:#000000;stroke-width:0.69917315;stroke-linecap:square;stroke-linejoin:round;stroke-miterlimit:1;stroke-opacity:1;stroke-dasharray:none"
           id="path124"
           inkscape:connector-curvature="0" /></g><g
         id="g126"
         transform="matrix(1,0,0,-1,0,841.88977)"><path
           d="m 570.551,649.672 c 0,1.371 -1.11,2.48 -2.481,2.48 -1.371,0 -2.48,-1.109 -2.48,-2.48 0,-1.371 1.109,-2.481 2.48,-2.481 1.371,0 2.481,1.11 2.481,2.481 z"
           style="fill:none;stroke:#000000;stroke-width:0.69917315;stroke-linecap:square;stroke-linejoin:round;stroke-miterlimit:1;stroke-opacity:1;stroke-dasharray:none"
           id="path128"
           inkscape:connector-curvature="0" /></g><g
         id="g130"
         transform="matrix(1,0,0,-1,0,841.88977)"><path
           d="m 582.137,229.93 c 0,-7.649 -6.199,-13.848 -13.852,-13.848 -7.648,0 -13.851,6.199 -13.851,13.848 0,7.652 6.203,13.851 13.851,13.851 7.653,0 13.852,-6.199 13.852,-13.851 z"
           style="fill:#ffffff;fill-opacity:1;fill-rule:nonzero;stroke:#000000;stroke-width:0.69917315;stroke-linecap:square;stroke-linejoin:round;stroke-miterlimit:1;stroke-opacity:1;stroke-dasharray:none"
           id="path132"
           inkscape:connector-curvature="0" /></g><g
         id="g134"
         transform="translate(0,841.88977)"><path
           d="m 566.113,-230.383 4.289,0 0,-20.922 -4.289,0 0,20.922 z"
           style="fill:#eeeeec;fill-opacity:1;fill-rule:nonzero;stroke:#000000;stroke-width:0.86919945;stroke-linecap:butt;stroke-linejoin:round;stroke-miterlimit:4;stroke-opacity:1;stroke-dasharray:none"
           id="path136"
           inkscape:connector-curvature="0" /></g><g
         id="g138"
         transform="matrix(1,0,0,-1,0,841.88977)"><path
           d="m 570.766,229.93 c 0,-1.368 -1.11,-2.481 -2.481,-2.481 -1.367,0 -2.48,1.113 -2.48,2.481 0,1.371 1.113,2.48 2.48,2.48 1.371,0 2.481,-1.109 2.481,-2.48 z"
           style="fill:#eeeeec;fill-opacity:1;fill-rule:nonzero;stroke:#000000;stroke-width:0.69917315;stroke-linecap:square;stroke-linejoin:round;stroke-miterlimit:1;stroke-opacity:1;stroke-dasharray:none"
           id="path140"
           inkscape:connector-curvature="0" /></g><g
         id="g142"
         transform="matrix(1,0,0,-1,0,841.88977)"><path
           d="m 570.055,615.129 c 0,1.047 -0.852,1.898 -1.899,1.898 -1.047,0 -1.898,-0.851 -1.898,-1.898 0,-1.047 0.851,-1.899 1.898,-1.899 1.047,0 1.899,0.852 1.899,1.899 z"
           style="fill:#eeeeec;fill-opacity:1;fill-rule:nonzero;stroke:#000000;stroke-width:0.37795946;stroke-linecap:square;stroke-linejoin:round;stroke-miterlimit:1;stroke-opacity:1;stroke-dasharray:none"
           id="path144"
           inkscape:connector-curvature="0" /></g><g
         id="g146"
         transform="matrix(1,0,0,-1,0,841.88977)"><path
           d="m 444.363,579.719 c 0,1.144 -0.929,2.074 -2.078,2.074 -1.144,0 -2.074,-0.93 -2.074,-2.074 0,-1.149 0.93,-2.078 2.074,-2.078 1.149,0 2.078,0.929 2.078,2.078 z"
           style="fill:#eeeeec;fill-opacity:1;fill-rule:nonzero;stroke:#000000;stroke-width:0.86919945;stroke-linecap:butt;stroke-linejoin:round;stroke-miterlimit:4;stroke-opacity:1;stroke-dasharray:none"
           id="path148"
           inkscape:connector-curvature="0" /></g><path
         d="m 85.844,399.823 -2.336,0.567 c -1.137,0.273 -1.848,1.261 -1.848,2.32 0,1.281 0.985,2.395 2.41,2.395 3.051,0 3.453,-2.996 3.563,-3.821 0.015,-0.109 0.015,-0.218 0.219,-0.218 0.238,0 0.238,0.093 0.238,0.441 l 0,3.668 c 0,0.312 0,0.437 -0.199,0.437 -0.129,0 -0.153,-0.011 -0.278,-0.238 l -0.636,-1.035 c -0.551,0.527 -1.297,1.273 -2.926,1.273 -2.028,0 -3.559,-1.609 -3.559,-3.543 0,-1.511 0.969,-2.847 2.387,-3.343 0.203,-0.071 1.137,-0.289 2.414,-0.598 0.492,-0.133 1.043,-0.258 1.551,-0.934 0.386,-0.476 0.57,-1.078 0.57,-1.679 0,-1.301 -0.91,-2.614 -2.449,-2.614 -0.531,0 -1.914,0.09 -2.887,0.985 -1.062,0.988 -1.117,2.152 -1.133,2.812 -0.019,0.184 -0.164,0.184 -0.218,0.184 -0.235,0 -0.235,-0.129 -0.235,-0.457 l 0,-3.656 c 0,-0.309 0,-0.434 0.199,-0.434 0.129,0 0.145,0.035 0.27,0.234 0,0.016 0.055,0.075 0.656,1.043 0.571,-0.621 1.738,-1.277 3.367,-1.277 2.137,0 3.598,1.785 3.598,3.797 0,1.828 -1.203,3.324 -2.738,3.691 z"
         style="fill:#000000;fill-opacity:1;fill-rule:nonzero;stroke:none"
         id="path150"
         inkscape:connector-curvature="0" /><path
         d="m 91.66,396.956 0.016,0.387 c 0.109,2.719 1.644,3.176 2.265,3.176 1.883,0 2.067,-2.465 2.067,-3.176 l -4.332,0 -0.016,-0.387 5.098,0 c 0.402,0 0.453,0 0.453,0.387 0,1.801 -0.988,3.574 -3.27,3.574 -2.117,0 -3.8,-1.879 -3.8,-4.164 0,-2.449 1.918,-4.219 4.023,-4.219 2.231,0 3.047,2.028 3.047,2.371 0,0.184 -0.145,0.227 -0.234,0.227 -0.165,0 -0.204,-0.113 -0.243,-0.258 -0.636,-1.883 -2.281,-1.883 -2.464,-1.883 -0.918,0 -1.645,0.547 -2.063,1.223 -0.547,0.875 -0.547,2.086 -0.547,2.742 z"
         style="fill:#000000;fill-opacity:1;fill-rule:nonzero;stroke:none"
         id="path152"
         inkscape:connector-curvature="0" /><path
         d="m 100.773,398.804 0,2.004 -2.535,-0.199 0,-0.567 c 1.274,0 1.426,-0.125 1.426,-1.019 l 0,-4.903 c 0,-0.816 -0.203,-0.816 -1.426,-0.816 l 0,-0.567 c 0.715,0.016 1.567,0.059 2.086,0.059 0.727,0 1.582,0 2.317,-0.059 l 0,0.567 -0.383,0 c -1.352,0 -1.391,0.199 -1.391,0.859 l 0,2.813 c 0,1.804 0.766,3.429 2.16,3.429 0.125,0 0.161,0 0.2,-0.015 -0.059,-0.016 -0.426,-0.235 -0.426,-0.707 0,-0.52 0.387,-0.785 0.793,-0.785 0.328,0 0.785,0.214 0.785,0.796 0,0.586 -0.567,1.114 -1.352,1.114 -1.336,0 -1.996,-1.219 -2.254,-2.004 z"
         style="fill:#000000;fill-opacity:1;fill-rule:nonzero;stroke:none"
         id="path154"
         inkscape:connector-curvature="0" /><path
         d="m 112.492,398.819 0.02,0.04 0.015,0.046 0.039,0.086 0.02,0.047 0.023,0.047 0.024,0.051 0.027,0.051 0.024,0.047 0.035,0.05 0.027,0.051 0.039,0.051 0.035,0.051 0.039,0.05 0.086,0.094 0.051,0.043 0.051,0.051 0.055,0.039 0.054,0.043 0.063,0.043 0.066,0.035 0.07,0.031 0.075,0.035 0.074,0.028 0.172,0.055 0.09,0.015 0.097,0.02 0.051,0.004 0.051,0.007 0.051,0.004 0.109,0.008 0.055,0 0,0.567 c -0.426,-0.036 -0.953,-0.051 -1.371,-0.051 -0.442,0 -1.282,0.031 -1.59,0.051 l 0,-0.567 c 0.672,-0.019 0.875,-0.437 0.875,-0.785 0,-0.164 -0.032,-0.234 -0.11,-0.438 l -1.863,-4.656 -2.043,5.094 c -0.109,0.242 -0.109,0.273 -0.109,0.312 0,0.473 0.711,0.473 1.039,0.473 l 0,0.567 c -0.547,-0.02 -1.57,-0.051 -1.988,-0.051 -0.497,0 -1.231,0.015 -1.77,0.051 l 0,-0.567 c 1.141,0 1.219,-0.113 1.457,-0.676 l 2.629,-6.48 c 0.109,-0.262 0.148,-0.352 0.387,-0.352 0.234,0 0.312,0.168 0.382,0.352 l 2.387,5.933 z"
         style="fill:#000000;fill-opacity:1;fill-rule:nonzero;stroke:none"
         id="path156"
         inkscape:connector-curvature="0" /><path
         d="m 122.609,396.644 -0.004,0.218 -0.015,0.215 -0.028,0.215 -0.035,0.207 -0.047,0.207 -0.054,0.199 -0.063,0.2 -0.07,0.195 -0.086,0.187 -0.086,0.18 -0.101,0.18 -0.106,0.176 -0.109,0.168 -0.121,0.16 -0.129,0.156 -0.137,0.148 -0.137,0.145 -0.148,0.133 -0.153,0.129 -0.16,0.117 -0.164,0.113 -0.168,0.106 -0.172,0.093 -0.179,0.09 -0.184,0.074 -0.187,0.067 -0.192,0.058 -0.195,0.047 -0.195,0.043 -0.204,0.024 -0.203,0.019 -0.207,0.004 -0.015,-0.398 c 0.8,0 1.59,-0.407 2.062,-1.192 0.477,-0.781 0.477,-1.843 0.477,-2.535 0,-0.66 0,-1.644 -0.403,-2.445 -0.402,-0.824 -1.203,-1.356 -2.121,-1.356 -0.785,0 -1.586,0.387 -2.078,1.223 -0.461,0.805 -0.461,1.918 -0.461,2.578 0,0.711 0,1.695 0.438,2.504 0.5,0.836 1.351,1.223 2.086,1.223 l 0.015,0.398 c -2.277,0 -4.054,-1.988 -4.054,-4.273 0,-2.356 1.902,-4.11 4.039,-4.11 2.211,0 4.054,1.789 4.054,4.11 z"
         style="fill:#000000;fill-opacity:1;fill-rule:nonzero;stroke:none"
         id="path158"
         inkscape:connector-curvature="0" /><path
         d="m 377.73,410.901 0,-0.57 0.438,0 c 1.41,0 1.441,-0.199 1.441,-0.859 l 0,-9.625 c 0,-0.66 -0.031,-0.856 -1.441,-0.856 l -0.438,0 0,-0.57 6.688,0 -0.492,0.57 -1.852,0 c -0.851,0 -0.89,0.125 -0.89,0.727 l 0,9.879 c 0,0.609 0.039,0.734 0.89,0.734 l 1.828,0 c 1.133,0 2.395,-0.398 3.332,-1.699 0.786,-1.074 0.942,-2.648 0.942,-4.074 0,-2.028 -0.34,-3.121 -1,-4.016 -0.367,-0.492 -1.406,-1.551 -3.25,-1.551 l 0.492,-0.57 c 3.062,0 5.586,2.703 5.586,6.137 0,3.472 -2.461,6.343 -5.586,6.343 l -6.688,0 z"
         style="fill:#000000;fill-opacity:1;fill-rule:nonzero;stroke:none"
         id="path160"
         inkscape:connector-curvature="0" /><path
         d="m 394.27,406.491 -2.555,-0.195 0,-0.57 c 1.187,0 1.351,-0.11 1.351,-1 l 0,-4.918 c 0,-0.817 -0.199,-0.817 -1.425,-0.817 l 0,-0.57 c 0.582,0.02 1.57,0.059 2.007,0.059 0.645,0 1.282,-0.039 1.907,-0.059 l 0,0.57 c -1.211,0 -1.285,0.09 -1.285,0.797 l 0,6.703 z"
         style="fill:#000000;fill-opacity:1;fill-rule:nonzero;stroke:none"
         id="path162"
         inkscape:connector-curvature="0" /><path
         d="m 394.344,409.675 0,0.051 -0.004,0.054 -0.008,0.051 -0.008,0.055 -0.023,0.094 -0.016,0.046 -0.019,0.043 -0.024,0.047 -0.019,0.043 -0.047,0.078 -0.031,0.036 -0.028,0.035 -0.035,0.039 -0.027,0.027 -0.039,0.035 -0.032,0.028 -0.039,0.027 -0.039,0.023 -0.039,0.028 -0.043,0.023 -0.039,0.016 -0.043,0.019 -0.043,0.016 -0.047,0.016 -0.043,0.007 -0.043,0.012 -0.046,0.008 -0.051,0.004 -0.094,0.008 c -0.566,0 -0.969,-0.496 -0.969,-0.969 0,-0.496 0.403,-0.969 0.969,-0.969 0.508,0 0.969,0.383 0.969,0.969 z"
         style="fill:#000000;fill-opacity:1;fill-rule:nonzero;stroke:none"
         id="path164"
         inkscape:connector-curvature="0" /><path
         d="m 404.281,405.726 2.102,0 0,0.57 -2.153,0 0,2.117 c 0,1.629 0.875,2.488 1.692,2.488 0.058,0 0.336,0 0.609,-0.132 -0.222,-0.071 -0.551,-0.309 -0.551,-0.762 0,-0.422 0.29,-0.789 0.786,-0.789 0.531,0 0.804,0.367 0.804,0.805 0,0.66 -0.64,1.277 -1.664,1.277 -1.074,0 -1.879,-0.691 -1.968,-0.766 -0.536,0.672 -1.555,0.766 -2.047,0.766 l -0.02,-0.399 c 0.895,0 1.406,-0.351 1.422,-0.351 l 0,-0.016 c -0.309,-0.035 -0.672,-0.277 -0.672,-0.785 0,-0.109 0.02,-0.57 0.512,-0.734 -0.055,-0.235 -0.055,-0.399 -0.055,-0.621 l 0,-2.098 -3.89,0 0,2.066 c 0,1.77 1.492,2.539 2.683,2.539 l 0.02,0.399 c -1.735,0 -3.856,-0.949 -3.856,-2.918 l 0,-2.086 -1.445,0 0,-0.57 1.445,0 0,-5.918 c 0,-0.817 -0.203,-0.817 -1.426,-0.817 l 0,-0.57 c 0.606,0.02 1.571,0.059 2.028,0.059 0.457,0 1.351,-0.039 2.027,-0.059 l 0,0.57 c -1.219,0 -1.426,0 -1.426,0.817 l 0,5.918 3.84,0 0,-5.918 c 0,-0.817 -0.203,-0.817 -1.426,-0.817 l 0,-0.57 c 0.715,0.02 1.571,0.059 2.082,0.059 0.731,0 1.586,0 2.321,-0.059 l 0,0.57 -0.383,0 c -1.352,0 -1.391,0.196 -1.391,0.856 l 0,5.879 z"
         style="fill:#000000;fill-opacity:1;fill-rule:nonzero;stroke:none"
         id="path166"
         inkscape:connector-curvature="0" /><path
         d="m 408.777,402.644 0.012,0.382 c 0.113,2.723 1.649,3.176 2.27,3.176 1.879,0 2.062,-2.465 2.062,-3.176 l -4.332,0 -0.012,-0.382 5.094,0 c 0.406,0 0.457,0 0.457,0.382 0,1.805 -0.988,3.575 -3.269,3.575 -2.118,0 -3.805,-1.875 -3.805,-4.164 0,-2.446 1.922,-4.215 4.023,-4.215 2.231,0 3.051,2.027 3.051,2.371 0,0.183 -0.144,0.223 -0.234,0.223 -0.168,0 -0.203,-0.11 -0.242,-0.258 -0.641,-1.879 -2.282,-1.879 -2.465,-1.879 -0.918,0 -1.645,0.547 -2.063,1.219 -0.547,0.878 -0.547,2.089 -0.547,2.746 z"
         style="fill:#000000;fill-opacity:1;fill-rule:nonzero;stroke:none"
         id="path168"
         inkscape:connector-curvature="0" /><path
         d="m 417.887,404.491 0,2 -2.535,-0.195 0,-0.57 c 1.277,0 1.425,-0.125 1.425,-1.02 l 0,-4.898 c 0,-0.817 -0.199,-0.817 -1.425,-0.817 l 0,-0.57 c 0.718,0.02 1.57,0.059 2.086,0.059 0.726,0 1.585,0 2.32,-0.059 l 0,0.57 -0.387,0 c -1.348,0 -1.391,0.196 -1.391,0.856 l 0,2.812 c 0,1.805 0.77,3.434 2.165,3.434 0.125,0 0.156,0 0.195,-0.02 -0.055,-0.011 -0.422,-0.234 -0.422,-0.707 0,-0.515 0.383,-0.785 0.789,-0.785 0.328,0 0.785,0.219 0.785,0.801 0,0.586 -0.562,1.109 -1.347,1.109 -1.34,0 -1.997,-1.215 -2.258,-2 z"
         style="fill:#000000;fill-opacity:1;fill-rule:nonzero;stroke:none"
         id="path170"
         inkscape:connector-curvature="0" /><path
         d="m 424.039,402.644 0.02,0.382 c 0.109,2.723 1.644,3.176 2.269,3.176 1.879,0 2.063,-2.465 2.063,-3.176 l -4.332,0 -0.02,-0.382 5.102,0 c 0.402,0 0.453,0 0.453,0.382 0,1.805 -0.985,3.575 -3.266,3.575 -2.117,0 -3.805,-1.875 -3.805,-4.164 0,-2.446 1.922,-4.215 4.024,-4.215 2.226,0 3.047,2.027 3.047,2.371 0,0.183 -0.145,0.223 -0.235,0.223 -0.168,0 -0.199,-0.11 -0.238,-0.258 -0.641,-1.879 -2.281,-1.879 -2.465,-1.879 -0.918,0 -1.648,0.547 -2.066,1.219 -0.551,0.878 -0.551,2.089 -0.551,2.746 z"
         style="fill:#000000;fill-opacity:1;fill-rule:nonzero;stroke:none"
         id="path172"
         inkscape:connector-curvature="0" /><path
         d="m 432.117,404.706 0,-4.898 c 0,-0.817 -0.195,-0.817 -1.426,-0.817 l 0,-0.57 c 0.645,0.02 1.571,0.059 2.067,0.059 0.472,0 1.426,-0.039 2.047,-0.059 l 0,0.57 c -1.223,0 -1.426,0 -1.426,0.817 l 0,3.363 c 0,1.902 1.297,2.922 2.465,2.922 1.152,0 1.355,-0.988 1.355,-2.027 l 0,-4.258 c 0,-0.817 -0.203,-0.817 -1.429,-0.817 l 0,-0.57 c 0.644,0.02 1.574,0.059 2.07,0.059 0.472,0 1.418,-0.039 2.047,-0.059 l 0,0.57 c -0.953,0 -1.414,0 -1.43,0.547 l 0,3.488 c 0,1.571 0,2.137 -0.566,2.793 -0.254,0.313 -0.864,0.672 -1.914,0.672 -1.336,0 -2.196,-0.785 -2.707,-1.91 l 0,1.91 -2.579,-0.195 0,-0.57 c 1.282,0 1.426,-0.125 1.426,-1.02 z"
         style="fill:#000000;fill-opacity:1;fill-rule:nonzero;stroke:none"
         id="path174"
         inkscape:connector-curvature="0" /><path
         d="m 442.906,405.726 2.614,0 0,0.57 -2.614,0 0,3.359 -0.457,0 c -0.015,-1.496 -0.566,-3.453 -2.355,-3.523 l 0,-0.406 1.551,0 0,-5.043 c 0,-2.242 1.699,-2.461 2.359,-2.461 1.293,0 1.808,1.293 1.808,2.461 l 0,1.043 -0.46,0 0,-1 c 0,-1.356 -0.551,-2.047 -1.223,-2.047 -1.223,0 -1.223,1.66 -1.223,1.972 l 0,5.075 z"
         style="fill:#000000;fill-opacity:1;fill-rule:nonzero;stroke:none"
         id="path176"
         inkscape:connector-curvature="0" /><path
         d="m 450.062,406.491 -2.558,-0.195 0,-0.57 c 1.184,0 1.351,-0.11 1.351,-1 l 0,-4.918 c 0,-0.817 -0.199,-0.817 -1.425,-0.817 l 0,-0.57 c 0.586,0.02 1.566,0.059 2.011,0.059 0.641,0 1.278,-0.039 1.903,-0.059 l 0,0.57 c -1.211,0 -1.282,0.09 -1.282,0.797 l 0,6.703 z"
         style="fill:#000000;fill-opacity:1;fill-rule:nonzero;stroke:none"
         id="path178"
         inkscape:connector-curvature="0" /><path
         d="m 450.133,409.675 0,0.051 -0.008,0.054 0,0.051 -0.012,0.055 -0.011,0.047 -0.032,0.093 -0.015,0.043 -0.02,0.047 -0.023,0.043 -0.024,0.039 -0.027,0.039 -0.027,0.036 -0.032,0.035 -0.027,0.039 -0.035,0.027 -0.031,0.035 -0.039,0.028 -0.036,0.027 -0.039,0.023 -0.039,0.028 -0.039,0.023 -0.043,0.016 -0.043,0.019 -0.086,0.032 -0.043,0.007 -0.05,0.012 -0.047,0.008 -0.043,0.004 -0.047,0.004 -0.051,0.004 c -0.566,0 -0.965,-0.496 -0.965,-0.969 0,-0.496 0.399,-0.969 0.965,-0.969 0.512,0 0.969,0.383 0.969,0.969 z"
         style="fill:#000000;fill-opacity:1;fill-rule:nonzero;stroke:none"
         id="path180"
         inkscape:connector-curvature="0" /><path
         d="m 457.969,399.808 0.011,-0.071 0.012,-0.066 0.012,-0.07 0.016,-0.063 0.015,-0.07 0.07,-0.199 0.028,-0.067 0.027,-0.062 0.035,-0.067 0.071,-0.117 0.039,-0.058 0.043,-0.059 0.043,-0.051 0.093,-0.101 0.051,-0.047 0.055,-0.047 0.055,-0.043 0.054,-0.035 0.063,-0.039 0.125,-0.063 0.066,-0.023 0.07,-0.024 0.071,-0.019 0.07,-0.012 0.078,-0.012 0.078,-0.007 0.078,-0.004 c 0.379,0 1.497,0.261 1.497,1.738 l 0,1.019 -0.461,0 0,-1.019 c 0,-1.059 -0.45,-1.168 -0.657,-1.168 -0.601,0 -0.675,0.816 -0.675,0.906 l 0,3.656 c 0,0.77 0,1.481 -0.657,2.157 -0.715,0.707 -1.625,1 -2.504,1 -1.5,0 -2.761,-0.852 -2.761,-2.059 0,-0.547 0.367,-0.863 0.843,-0.863 0.512,0 0.84,0.367 0.84,0.844 0,0.218 -0.086,0.82 -0.929,0.843 0.492,0.633 1.386,0.836 1.968,0.836 0.903,0 1.938,-0.711 1.938,-2.34 l 0,-2.886 c 0,-1.735 -1.309,-2.352 -2.137,-2.352 -0.894,0 -1.644,0.641 -1.644,1.551 0,1 0.769,2.523 3.781,2.629 l 0,0.387 c -0.93,-0.055 -2.207,-0.114 -3.356,-0.661 -1.371,-0.621 -1.832,-1.57 -1.832,-2.375 0,-1.476 1.774,-1.933 2.922,-1.933 1.211,0 2.047,0.726 2.395,1.586 z"
         style="fill:#000000;fill-opacity:1;fill-rule:nonzero;stroke:none"
         id="path182"
         inkscape:connector-curvature="0" /><path
         d="m 464.27,411.101 -2.629,-0.2 0,-0.57 c 1.277,0 1.425,-0.125 1.425,-1.023 l 0,-9.5 c 0,-0.817 -0.199,-0.817 -1.425,-0.817 l 0,-0.57 c 0.601,0.02 1.57,0.059 2.027,0.059 0.457,0 1.355,-0.039 2.027,-0.059 l 0,0.57 c -1.222,0 -1.425,0 -1.425,0.817 l 0,11.293 z"
         style="fill:#000000;fill-opacity:1;fill-rule:nonzero;stroke:none"
         id="path184"
         inkscape:connector-curvature="0" /><path
         d="m 401.305,388.038 0,0.074 0.004,0.02 0,0.023 0.003,0.016 0,0.027 0.008,0.047 0.004,0.028 0.008,0.027 0.004,0.031 0.008,0.028 0.008,0.031 0.011,0.027 0.008,0.035 0.008,0.032 0.016,0.035 0.011,0.031 0.016,0.031 0.016,0.039 0.035,0.071 0.019,0.031 0.02,0.039 0.027,0.031 0.02,0.035 0.027,0.035 0.031,0.036 c 0.715,-0.508 1.457,-0.567 1.809,-0.567 l 0,0.418 c -1.59,0 -1.59,1.828 -1.59,2.25 0,0.496 0.019,1.078 0.289,1.531 0.148,0.223 0.57,0.731 1.301,0.731 1.59,0 1.59,-1.824 1.59,-2.242 0,-0.493 -0.02,-1.078 -0.293,-1.539 -0.145,-0.215 -0.571,-0.731 -1.297,-0.731 l 0,-0.418 c 1.695,0 2.957,1.262 2.957,2.668 0,0.68 -0.293,1.352 -0.746,1.77 0.652,0.621 1.312,0.715 1.644,0.715 0.035,0 0.129,0 0.184,-0.02 -0.207,-0.074 -0.289,-0.277 -0.289,-0.492 0,-0.313 0.234,-0.528 0.527,-0.528 0.184,0 0.524,0.125 0.524,0.543 0,0.313 -0.215,0.895 -0.926,0.895 -0.367,0 -1.172,-0.109 -1.938,-0.856 -0.765,0.602 -1.535,0.653 -1.937,0.653 -1.699,0 -2.961,-1.258 -2.961,-2.66 0,-0.805 0.398,-1.5 0.855,-1.887 -0.234,-0.27 -0.562,-0.875 -0.562,-1.512 0,-0.566 0.238,-1.258 0.804,-1.625 -1.097,-0.312 -1.679,-1.097 -1.679,-1.832 0,-1.312 1.805,-2.32 4.035,-2.32 l 0.02,0.418 c -1.844,0 -3.106,0.933 -3.106,1.902 0,0.844 0.691,1.52 1.5,1.571 l 1.078,0 c 1.567,0 3.613,0 3.613,-1.571 0,-0.984 -1.293,-1.902 -3.085,-1.902 l -0.02,-0.418 c 2.156,0 4.059,0.933 4.059,2.359 0,0.641 -0.258,1.571 -1.188,2.082 -0.969,0.508 -2.027,0.508 -3.144,0.508 -0.461,0 -1.247,0 -1.372,0.02 -0.585,0.074 -0.964,0.64 -0.964,1.226 l -0.004,0 z"
         style="fill:#000000;fill-opacity:1;fill-rule:nonzero;stroke:none"
         id="path186"
         inkscape:connector-curvature="0" /><path
         d="m 410.547,389.831 0.019,0.383 c 0.11,2.723 1.645,3.176 2.27,3.176 1.875,0 2.059,-2.465 2.059,-3.176 l -4.329,0 -0.019,-0.383 5.101,0 c 0.399,0 0.45,0 0.45,0.383 0,1.805 -0.981,3.574 -3.262,3.574 -2.121,0 -3.809,-1.875 -3.809,-4.164 0,-2.445 1.922,-4.215 4.024,-4.215 2.23,0 3.047,2.028 3.047,2.371 0,0.184 -0.141,0.223 -0.235,0.223 -0.164,0 -0.199,-0.109 -0.238,-0.258 -0.637,-1.879 -2.281,-1.879 -2.465,-1.879 -0.914,0 -1.644,0.547 -2.062,1.219 -0.551,0.879 -0.551,2.09 -0.551,2.746 z"
         style="fill:#000000;fill-opacity:1;fill-rule:nonzero;stroke:none"
         id="path188"
         inkscape:connector-curvature="0" /><path
         d="m 422.699,386.995 0.012,-0.07 0.012,-0.066 0.007,-0.071 0.016,-0.062 0.02,-0.071 0.023,-0.066 0.02,-0.066 0.027,-0.067 0.023,-0.066 0.036,-0.063 0.027,-0.066 0.039,-0.059 0.07,-0.117 0.047,-0.059 0.086,-0.101 0.051,-0.051 0.051,-0.047 0.054,-0.047 0.055,-0.043 0.059,-0.035 0.058,-0.039 0.125,-0.062 0.133,-0.047 0.07,-0.02 0.075,-0.011 0.078,-0.012 0.074,-0.008 0.082,-0.004 c 0.379,0 1.492,0.262 1.492,1.738 l 0,1.02 -0.457,0 0,-1.02 c 0,-1.058 -0.453,-1.171 -0.656,-1.171 -0.602,0 -0.68,0.82 -0.68,0.91 l 0,3.656 c 0,0.769 0,1.477 -0.652,2.156 -0.715,0.707 -1.629,1 -2.504,1 -1.5,0 -2.762,-0.851 -2.762,-2.058 0,-0.547 0.367,-0.864 0.844,-0.864 0.508,0 0.844,0.368 0.844,0.844 0,0.219 -0.094,0.816 -0.938,0.844 0.492,0.633 1.387,0.836 1.973,0.836 0.898,0 1.937,-0.711 1.937,-2.34 l 0,-2.887 c 0,-1.738 -1.312,-2.351 -2.136,-2.351 -0.895,0 -1.649,0.64 -1.649,1.55 0,1 0.774,2.524 3.785,2.629 l 0,0.383 c -0.929,-0.051 -2.207,-0.109 -3.359,-0.656 -1.371,-0.621 -1.828,-1.57 -1.828,-2.375 0,-1.477 1.769,-1.934 2.922,-1.934 1.211,0 2.047,0.727 2.394,1.586 z"
         style="fill:#000000;fill-opacity:1;fill-rule:nonzero;stroke:none"
         id="path190"
         inkscape:connector-curvature="0" /><path
         d="m 428.816,391.679 0,2 -2.539,-0.195 0,-0.571 c 1.278,0 1.426,-0.125 1.426,-1.019 l 0,-4.899 c 0,-0.816 -0.199,-0.816 -1.426,-0.816 l 0,-0.57 c 0.715,0.019 1.571,0.058 2.086,0.058 0.727,0 1.586,0 2.321,-0.058 l 0,0.57 -0.383,0 c -1.352,0 -1.395,0.195 -1.395,0.855 l 0,2.813 c 0,1.804 0.766,3.433 2.16,3.433 0.129,0 0.161,0 0.204,-0.019 -0.059,-0.016 -0.426,-0.235 -0.426,-0.707 0,-0.516 0.383,-0.785 0.793,-0.785 0.324,0 0.781,0.218 0.781,0.8 0,0.586 -0.566,1.11 -1.352,1.11 -1.336,0 -1.996,-1.215 -2.25,-2 z"
         style="fill:#000000;fill-opacity:1;fill-rule:nonzero;stroke:none"
         id="path192"
         inkscape:connector-curvature="0" /><path
         d="m 436.738,389.155 0.086,-0.015 0.11,-0.024 0.062,-0.015 0.066,-0.016 0.071,-0.019 0.074,-0.02 0.07,-0.023 0.078,-0.028 0.083,-0.027 0.078,-0.031 0.164,-0.071 0.078,-0.043 0.082,-0.043 0.082,-0.05 0.074,-0.051 0.074,-0.055 0.075,-0.058 0.07,-0.067 0.066,-0.07 0.063,-0.074 0.058,-0.075 0.051,-0.082 0.024,-0.043 0.046,-0.093 0.016,-0.043 0.02,-0.051 0.019,-0.047 0.012,-0.055 0.012,-0.05 0.023,-0.11 0.008,-0.058 0.004,-0.055 0.004,-0.063 0,-0.058 c 0,-0.926 -0.645,-1.66 -2.063,-1.66 -1.535,0 -2.195,1.039 -2.543,2.589 -0.055,0.239 -0.07,0.313 -0.254,0.313 -0.238,0 -0.238,-0.129 -0.238,-0.457 l 0,-2.414 c 0,-0.309 0,-0.434 0.195,-0.434 0.094,0 0.114,0.016 0.461,0.364 0.035,0.039 0.035,0.07 0.367,0.418 0.801,-0.766 1.625,-0.782 2.012,-0.782 2.098,0 2.938,1.227 2.938,2.535 0,0.969 -0.551,1.52 -0.766,1.739 -0.602,0.582 -1.316,0.734 -2.086,0.875 -1.019,0.203 -2.246,0.441 -2.246,1.5 0,0.64 0.473,1.386 2.047,1.386 2.008,0 2.101,-1.64 2.133,-2.21 0.027,-0.165 0.183,-0.165 0.226,-0.165 0.235,0 0.235,0.09 0.235,0.442 l 0,1.844 c 0,0.308 0,0.433 -0.2,0.433 -0.093,0 -0.129,0 -0.367,-0.215 -0.051,-0.078 -0.234,-0.234 -0.312,-0.293 -0.692,0.508 -1.442,0.508 -1.715,0.508 -2.231,0 -2.922,-1.219 -2.922,-2.242 0,-0.637 0.289,-1.152 0.785,-1.555 0.582,-0.472 1.098,-0.582 2.41,-0.836 z"
         style="fill:#000000;fill-opacity:1;fill-rule:nonzero;stroke:none"
         id="path194"
         inkscape:connector-curvature="0" /></g></g></svg>