<?xml version="1.0" encoding="UTF-8" standalone="no"?>
<!-- Created with Inkscape (http://www.inkscape.org/) -->

<svg
   xmlns:dc="http://purl.org/dc/elements/1.1/"
   xmlns:cc="http://creativecommons.org/ns#"
   xmlns:rdf="http://www.w3.org/1999/02/22-rdf-syntax-ns#"
   xmlns:svg="http://www.w3.org/2000/svg"
   xmlns="http://www.w3.org/2000/svg"
   xmlns:sodipodi="http://sodipodi.sourceforge.net/DTD/sodipodi-0.dtd"
   xmlns:inkscape="http://www.inkscape.org/namespaces/inkscape"
   width="337.19385"
   height="94.516556"
   id="svg2"
   version="1.1"
   inkscape:version="0.48.4 r9939"
   sodipodi:docname="steeringControlDiagram.pdf">
  <sodipodi:namedview
     id="base"
     pagecolor="#ffffff"
     bordercolor="#666666"
     borderopacity="1.0"
     inkscape:pageopacity="0.0"
     inkscape:pageshadow="2"
     inkscape:zoom="0.7"
     inkscape:cx="-272.22605"
     inkscape:cy="213.13217"
     inkscape:document-units="px"
     inkscape:current-layer="layer1"
     showgrid="false"
     inkscape:window-width="1307"
     inkscape:window-height="744"
     inkscape:window-x="59"
     inkscape:window-y="24"
     inkscape:window-maximized="1"
     inkscape:snap-object-midpoints="true"
     inkscape:snap-center="true"
     fit-margin-top="0"
     fit-margin-left="0"
     fit-margin-right="0"
     fit-margin-bottom="0" />
  <defs
     id="defs4">
    <marker
       inkscape:stockid="Arrow1Lend"
       orient="auto"
       refY="0"
       refX="0"
       id="Arrow1Lend"
       style="overflow:visible">
      <path
         id="path4095"
         d="M 0,0 5,-5 -12.5,0 5,5 0,0 z"
         style="fill-rule:evenodd;stroke:#000000;stroke-width:1pt"
         transform="matrix(-0.8,0,0,-0.8,-10,0)"
         inkscape:connector-curvature="0" />
    </marker>
    <marker
       inkscape:stockid="Arrow1Lend"
       orient="auto"
       refY="0"
       refX="0"
       id="Arrow1Lend-1"
       style="overflow:visible">
      <path
         inkscape:connector-curvature="0"
         id="path4095-7"
         d="M 0,0 5,-5 -12.5,0 5,5 0,0 z"
         style="fill-rule:evenodd;stroke:#000000;stroke-width:1pt"
         transform="matrix(-0.8,0,0,-0.8,-10,0)" />
    </marker>
  </defs>
  <metadata
     id="metadata7">
    <rdf:RDF>
      <cc:Work
         rdf:about="">
        <dc:format>image/svg+xml</dc:format>
        <dc:type
           rdf:resource="http://purl.org/dc/dcmitype/StillImage" />
        <dc:title></dc:title>
      </cc:Work>
    </rdf:RDF>
  </metadata>
  <g
     id="layer1"
     inkscape:groupmode="layer"
     inkscape:label="Layer 1"
     transform="translate(-283.24121,-406.80234)">
    <g
       id="g4026">
      <rect
         y="428.08792"
         x="404.51273"
         height="72.73098"
         width="74.751289"
         id="rect3755"
         style="fill:none;stroke:#000000;stroke-width:1;stroke-linecap:butt;stroke-linejoin:round;stroke-miterlimit:4;stroke-opacity:1;stroke-dasharray:none;stroke-dashoffset:0" />
      <g
         transform="translate(123.7367,135.86593)"
         id="g3767">
        <g
           style="font-style:normal;font-variant:normal;font-weight:normal;font-stretch:normal;letter-spacing:normal;word-spacing:normal;text-anchor:start;fill:none;stroke:#000000;stroke-linecap:butt;stroke-linejoin:miter;stroke-miterlimit:10.43299961;stroke-opacity:1;stroke-dasharray:none;stroke-dashoffset:0"
           id="content"
           transform="matrix(1.0629921,0,0,-1.0629921,-192.08454,774.11936)"
           xml:space="preserve"
           stroke-miterlimit="10.433"
           font-style="normal"
           font-variant="normal"
           font-weight="normal"
           font-stretch="normal"
           font-size-adjust="none"
           letter-spacing="normal"
           word-spacing="normal"><path
             style="fill:#000000;stroke-width:0"
             inkscape:connector-curvature="0"
             d="m 481.46,439.76 -0.02,0.03 -0.01,0.02 -0.01,0.03 -0.01,0.02 -0.01,0.02 -0.02,0.02 -0.01,0.02 -0.01,0.02 -0.01,0.02 -0.01,0.02 -0.01,0.01 0,0.02 -0.01,0.02 -0.01,0.01 -0.01,0.01 -0.01,0.02 0,0.01 -0.01,0.01 0,0.01 -0.01,0.01 0,0.01 -0.01,0.01 0,0.01 -0.01,0 0,0.01 0,0.01 -0.01,0 0,0.01 0,0 0,0.01 0,0 0,0 c 0,0.08 0.03,0.11 0.84,0.68 l 3.52,2.46 c 4.59,3.24 6.76,4.77 9.23,4.99 0.38,0.03 0.8,0.06 0.8,0.76 0,0.29 -0.24,0.46 -0.45,0.46 -0.74,0 -1.64,-0.11 -2.41,-0.11 -0.94,0 -3.27,0.14 -4.2,0.14 -0.22,0 -0.74,0 -0.74,-0.77 0,-0.03 0,-0.45 0.52,-0.48 0.42,-0.03 0.87,-0.11 0.87,-0.49 0,-0.64 -1.08,-1.4 -1.53,-1.71 l -14.53,-10.24 2.75,10.97 c 0.31,1.19 0.34,1.47 3.06,1.47 0.57,0 1.05,0 1.05,0.73 0,0.32 -0.2,0.52 -0.56,0.52 -1,0 -3.55,-0.14 -4.57,-0.14 -0.59,0 -1.81,0 -2.4,0.03 -0.69,0.05 -1.53,0.11 -2.19,0.11 -0.2,0 -0.73,0 -0.73,-0.77 0,-0.48 0.39,-0.48 1.15,-0.48 0.55,0 0.69,0 1.32,-0.08 0.7,-0.06 0.78,-0.14 0.78,-0.48 0,-0.07 0,-0.24 -0.14,-0.77 l -4.64,-18.5 c -0.29,-1.19 -0.35,-1.47 -3.07,-1.47 -0.62,0 -1.04,0 -1.04,-0.76 0,-0.04 0,-0.49 0.56,-0.49 1,0 3.51,0.14 4.51,0.14 0.6,0 1.82,0 2.41,-0.03 0.7,-0.05 1.58,-0.11 2.23,-0.11 0.21,0 0.74,0 0.74,0.77 0,0.48 -0.42,0.48 -1.11,0.48 -0.05,0 -0.7,0 -1.33,0.08 -0.81,0.06 -0.81,0.17 -0.81,0.52 0,0.28 0.36,1.57 1.64,6.68 l 5.78,4.08 5.06,-9.78 c 0.24,-0.45 0.24,-0.5 0.24,-0.67 0,-0.8 -0.97,-0.91 -1.6,-0.91 -0.42,0 -0.9,0 -0.9,-0.76 0,-0.04 0.03,-0.49 0.59,-0.49 0.97,0 3.49,0.14 4.45,0.14 1.05,0 2.44,-0.14 3.43,-0.14 0.45,0 0.68,0.25 0.68,0.74 0,0.51 -0.45,0.51 -0.79,0.51 -0.63,0 -1.71,0.05 -2.3,1.16 z"
             id="path3770" /><polyline
             style="fill:#000000;fill-rule:nonzero;stroke-width:0"
             points="462,418 498,418 498,420.04 462,420.04 "
             id="polyline3772" /><path
             style="fill:#000000;stroke-width:0"
             inkscape:connector-curvature="0"
             d="m 485.05,402.13 -0.08,-0.02 -0.08,-0.02 -0.08,-0.03 -0.08,-0.03 -0.07,-0.03 -0.08,-0.03 -0.07,-0.04 -0.07,-0.04 -0.06,-0.04 -0.07,-0.05 -0.06,-0.04 -0.06,-0.05 -0.06,-0.05 -0.05,-0.05 -0.05,-0.05 -0.05,-0.06 -0.05,-0.05 -0.04,-0.06 -0.04,-0.06 -0.04,-0.06 -0.03,-0.06 -0.04,-0.06 -0.03,-0.06 -0.02,-0.07 -0.03,-0.06 -0.02,-0.06 -0.01,-0.07 -0.02,-0.06 -0.01,-0.07 -0.01,-0.06 0,-0.07 0,-0.06 c 0,-0.81 0.7,-1.13 1.15,-1.13 0.35,0 1.67,0.22 1.67,1.99 0,2.26 -2.5,3.03 -4.62,3.03 -5.44,0 -6.42,-4 -6.42,-5.08 0,-1.3 0.73,-2.12 1.22,-2.55 0.9,-0.7 1.53,-0.82 3.93,-1.25 0.74,-0.14 2.97,-0.56 2.97,-2.29 0,-0.6 -0.39,-1.93 -1.84,-2.8 -1.36,-0.77 -3.08,-0.77 -3.49,-0.77 -1.4,0 -3.39,0.32 -4.18,1.47 1.15,0.14 1.92,1 1.92,1.99 0,0.87 -0.63,1.28 -1.36,1.28 -1.02,0 -2.03,-0.8 -2.03,-2.33 0,-2.09 2.23,-3.37 5.61,-3.37 6.42,0 7.61,4.39 7.61,5.75 0,3.2 -3.53,3.82 -4.82,4.07 -0.31,0.07 -1.18,0.21 -1.39,0.27 -1.29,0.25 -1.92,0.98 -1.92,1.75 0,0.8 0.63,1.73 1.39,2.23 0.94,0.6 2.16,0.66 2.75,0.66 0.74,0 2.55,-0.11 3.31,-1.3 z"
             id="path3774" /></g>      </g>
    </g>
    <g
       id="g3800"
       transform="translate(-17.170986,86.650367)">
      <g
         id="g3802"
         transform="matrix(1.0629921,0,0,-1.0629921,-186.02362,789.27165)"
         xml:space="preserve"
         stroke-miterlimit="10.433"
         font-style="normal"
         font-variant="normal"
         font-weight="normal"
         font-stretch="normal"
         font-size-adjust="none"
         letter-spacing="normal"
         word-spacing="normal"
         style="font-style:normal;font-variant:normal;font-weight:normal;font-stretch:normal;letter-spacing:normal;word-spacing:normal;text-anchor:start;fill:none;stroke:#000000;stroke-linecap:butt;stroke-linejoin:miter;stroke-miterlimit:10.43299961;stroke-opacity:1;stroke-dasharray:none;stroke-dashoffset:0"><path
           d="m 478.19,431.11 0,0.31 -0.01,0.34 -0.02,0.36 -0.02,0.37 -0.03,0.39 -0.04,0.39 -0.04,0.41 -0.06,0.41 -0.07,0.42 -0.07,0.43 -0.09,0.42 -0.1,0.43 -0.12,0.42 -0.12,0.42 -0.14,0.41 -0.16,0.41 -0.17,0.4 -0.18,0.38 -0.2,0.37 -0.22,0.36 -0.23,0.34 -0.25,0.32 -0.28,0.3 -0.29,0.27 -0.31,0.25 -0.16,0.12 -0.17,0.1 -0.17,0.1 -0.18,0.1 -0.18,0.08 -0.19,0.08 -0.19,0.07 -0.2,0.06 -0.21,0.05 -0.21,0.05 -0.22,0.03 -0.22,0.02 -0.23,0.02 -0.23,0 -0.05,-1.09 c 2.44,0 2.73,-3.19 2.73,-6.03 0,-2.44 -0.39,-4.99 -1.59,-9.92 h -10.41 c 0.85,3.2 1.85,7.18 3.83,10.72 1.36,2.43 3.19,5.23 5.44,5.23 l 0.05,1.09 c -6.92,0 -14.6,-14.04 -14.6,-25.45 0,-4.69 1.44,-10.22 5.99,-10.22 v 1.1 c -1.66,0 -2.71,1.45 -2.71,6.07 0,2.1 0.3,4.99 1.6,9.86 h 10.37 c -0.54,-2.28 -1.59,-6.51 -3.5,-10.11 -1.73,-3.39 -3.62,-5.82 -5.76,-5.82 v -1.1 c 7.01,0 14.59,14.3 14.59,25.46 z"
           id="path3804"
           inkscape:connector-curvature="0"
           style="fill:#000000;stroke-width:0" /><path
           d="m 487.11,405.79 0,0.02 0,0.01 0.01,0.02 0,0.03 0.01,0.03 0.01,0.03 0.01,0.03 0,0.04 0.01,0.04 0.02,0.05 0.01,0.04 0.01,0.06 0.01,0.05 0.02,0.05 0.03,0.12 0.03,0.13 0.03,0.13 0.04,0.15 0.03,0.14 0.04,0.15 0.04,0.15 0.08,0.32 0.08,0.31 0.04,0.15 0.04,0.15 0.04,0.14 0.03,0.14 0.04,0.14 0.03,0.12 0.03,0.12 0.02,0.05 0.01,0.05 0.01,0.05 0.02,0.05 0.01,0.04 0.01,0.04 0.01,0.04 0.01,0.03 0.01,0.03 0.01,0.03 0,0.02 0.01,0.02 0,0.01 0.01,0.01 c 0.07,0.29 1.07,2.02 2.2,2.86 0.37,0.27 1.31,0.97 2.81,0.97 0.35,0 1.22,-0.03 1.92,-0.48 -1.12,-0.31 -1.53,-1.3 -1.53,-1.92 0,-0.77 0.6,-1.29 1.39,-1.29 0.8,0 1.96,0.66 1.96,2.13 0,1.81 -1.93,2.53 -3.71,2.53 -1.81,0 -3.37,-0.72 -4.9,-2.47 -0.63,2.13 -2.75,2.47 -3.6,2.47 -1.28,0 -2.15,-0.8 -2.72,-1.76 -0.79,-1.36 -1.28,-3.4 -1.28,-3.57 0,-0.45 0.49,-0.45 0.6,-0.45 0.48,0 0.51,0.11 0.76,1.05 0.52,2.12 1.19,3.76 2.55,3.76 0.91,0 1.14,-0.76 1.14,-1.7 0,-0.67 -0.31,-1.95 -0.56,-2.89 -0.24,-0.95 -0.58,-2.38 -0.77,-3.14 l -1.11,-4.47 c -0.14,-0.44 -0.34,-1.31 -0.34,-1.42 0,-0.77 0.62,-1.11 1.19,-1.11 0.51,0 1.21,0.31 1.48,1 0.08,0.22 0.45,1.75 0.67,2.62 z"
           id="path3806"
           inkscape:connector-curvature="0"
           style="fill:#000000;stroke-width:0" /><path
           d="m 506.29,406.7 0.09,0 0.11,0 0.12,0 0.12,0 0.13,0.01 0.14,0 0.15,0.01 0.16,0 0.16,0.01 0.17,0.01 0.17,0.01 0.18,0.01 0.18,0.01 0.19,0.02 0.39,0.03 0.39,0.04 0.41,0.05 0.4,0.06 0.41,0.07 0.4,0.08 0.2,0.05 0.19,0.04 0.2,0.05 0.18,0.06 0.19,0.05 0.18,0.06 c 2.58,0.91 3.06,2.58 3.06,3.63 0,1.92 -1.92,3.06 -4.33,3.06 v -0.97 c 1.53,0 2.83,-0.76 2.83,-2.09 0,-3.38 -5.89,-3.38 -7.39,-3.38 h -1.7 c 1.42,5.05 5.29,5.47 6.26,5.47 v 0.97 c -4.17,0 -9.83,-3.2 -9.83,-9.16 0,-3.51 2.21,-6.54 6.29,-6.54 5.89,0 8.64,3.44 8.64,3.94 0,0.2 -0.32,0.59 -0.6,0.59 -0.2,0 -0.28,-0.08 -0.56,-0.36 -2.72,-3.2 -6.8,-3.2 -7.42,-3.2 -2.1,0 -3.49,1.39 -3.49,4.22 0,0.48 0,1.18 0.43,3.09 z"
           id="path3808"
           inkscape:connector-curvature="0"
           style="fill:#000000;stroke-width:0" /><path
           d="m 531.5,412.53 h 3.41 c 0.7,0 1.16,0 1.16,0.76 0,0.49 -0.46,0.49 -1.08,0.49 h -3.25 c 0.81,4.42 1.08,6.03 1.36,7.04 0.17,0.77 0.93,1.5 1.78,1.5 0.03,0 0.97,0 1.64,-0.42 -1.44,-0.45 -1.53,-1.72 -1.53,-1.92 0,-0.77 0.59,-1.28 1.39,-1.28 0.94,0 1.98,0.8 1.98,2.12 0,1.6 -1.7,2.47 -3.48,2.47 -1.53,0 -3.23,-0.87 -4.19,-2.61 -0.69,-1.29 -0.97,-2.86 -1.7,-6.9 h -2.75 c -0.71,0 -1.16,0 -1.16,-0.77 0,-0.48 0.45,-0.48 1.08,-0.48 h 2.58 c -0.03,-0.22 -2.22,-12.75 -3.06,-16.49 -0.18,-0.76 -0.77,-3.4 -2.44,-3.4 -0.03,0 -0.88,0 -1.53,0.4 1.42,0.46 1.53,1.72 1.53,1.92 0,0.77 -0.59,1.29 -1.39,1.29 -0.94,0 -1.99,-0.8 -1.99,-2.13 0,-1.56 1.64,-2.47 3.38,-2.47 2.23,0 3.76,2.3 4.19,3.06 1.25,2.35 2.04,6.63 2.12,7.05 z"
           id="path3810"
           inkscape:connector-curvature="0"
           style="fill:#000000;stroke-width:0" /></g>    </g>
    <g
       id="g3848"
       transform="translate(237.38585,88.812203)">
      <g
         word-spacing="normal"
         letter-spacing="normal"
         font-size-adjust="none"
         font-stretch="normal"
         font-weight="normal"
         font-variant="normal"
         font-style="normal"
         stroke-miterlimit="10.433"
         xml:space="preserve"
         transform="matrix(1.0629921,0,0,-1.0629921,-186.02362,789.27165)"
         id="g3850"
         style="font-style:normal;font-variant:normal;font-weight:normal;font-stretch:normal;letter-spacing:normal;word-spacing:normal;text-anchor:start;fill:none;stroke:#000000;stroke-linecap:butt;stroke-linejoin:miter;stroke-miterlimit:10.43299961;stroke-opacity:1;stroke-dasharray:none;stroke-dashoffset:0"><path
           id="path3852"
           d="m 478.19,431.11 0,0.31 -0.01,0.34 -0.02,0.36 -0.02,0.37 -0.03,0.39 -0.04,0.39 -0.04,0.41 -0.06,0.41 -0.07,0.42 -0.07,0.43 -0.09,0.42 -0.1,0.43 -0.12,0.42 -0.12,0.42 -0.14,0.41 -0.16,0.41 -0.17,0.4 -0.18,0.38 -0.2,0.37 -0.22,0.36 -0.23,0.34 -0.25,0.32 -0.28,0.3 -0.29,0.27 -0.31,0.25 -0.16,0.12 -0.17,0.1 -0.17,0.1 -0.18,0.1 -0.18,0.08 -0.19,0.08 -0.19,0.07 -0.2,0.06 -0.21,0.05 -0.21,0.05 -0.22,0.03 -0.22,0.02 -0.23,0.02 -0.23,0 -0.05,-1.09 c 2.44,0 2.73,-3.19 2.73,-6.03 0,-2.44 -0.39,-4.99 -1.59,-9.92 h -10.41 c 0.85,3.2 1.85,7.18 3.83,10.72 1.36,2.43 3.19,5.23 5.44,5.23 l 0.05,1.09 c -6.92,0 -14.6,-14.04 -14.6,-25.45 0,-4.69 1.44,-10.22 5.99,-10.22 v 1.1 c -1.66,0 -2.71,1.45 -2.71,6.07 0,2.1 0.3,4.99 1.6,9.86 h 10.37 c -0.54,-2.28 -1.59,-6.51 -3.5,-10.11 -1.73,-3.39 -3.62,-5.82 -5.76,-5.82 v -1.1 c 7.01,0 14.59,14.3 14.59,25.46 z"
           inkscape:connector-curvature="0"
           style="fill:#000000;stroke-width:0" /><path
           id="path3854"
           d="m 497.42,408.03 -0.01,0.36 -0.02,0.34 -0.04,0.34 -0.06,0.33 -0.07,0.32 -0.09,0.31 -0.1,0.3 -0.11,0.28 -0.13,0.28 -0.14,0.27 -0.16,0.25 -0.16,0.25 -0.18,0.23 -0.19,0.22 -0.2,0.22 -0.21,0.2 -0.22,0.19 -0.23,0.17 -0.24,0.17 -0.25,0.15 -0.25,0.15 -0.27,0.13 -0.27,0.12 -0.27,0.1 -0.29,0.1 -0.29,0.08 -0.3,0.07 -0.3,0.06 -0.3,0.04 -0.31,0.04 -0.32,0.01 -0.32,0.01 c -5.17,0 -10.04,-4.84 -10.04,-9.61 0,-3.48 2.54,-6.09 6.34,-6.09 l 0.03,0.97 c -1.73,0 -3.48,1.12 -3.48,3.87 0,1.42 0.67,4.85 2.03,6.83 1.5,2.16 3.52,3.06 5.08,3.06 1.89,0 3.48,-1.29 3.48,-3.87 0,-0.83 -0.4,-4.28 -1.95,-6.72 -1.31,-2.05 -3.41,-3.17 -5.16,-3.17 h 0 l -0.03,-0.97 c 4.99,0 10,4.59 10,9.61 z"
           inkscape:connector-curvature="0"
           style="fill:#000000;stroke-width:0" /><path
           id="path3856"
           d="m 513.34,404.4 -0.02,-0.06 -0.02,-0.07 -0.02,-0.08 -0.01,-0.07 -0.02,-0.08 -0.02,-0.08 -0.02,-0.08 -0.02,-0.08 -0.04,-0.17 -0.05,-0.17 -0.04,-0.17 -0.02,-0.08 -0.02,-0.08 -0.02,-0.08 -0.02,-0.07 -0.02,-0.07 -0.02,-0.07 -0.01,-0.07 -0.02,-0.06 -0.02,-0.06 -0.01,-0.06 -0.02,-0.05 -0.01,-0.04 -0.01,-0.04 -0.02,-0.04 0,-0.01 -0.01,-0.01 0,-0.01 -0.01,-0.01 0,-0.01 0,-0.01 -0.01,0 0,0 c -0.67,-1.08 -2.06,-2.97 -4.22,-2.97 -2.41,0 -2.41,2.26 -2.41,2.89 0,2.06 0.97,4.53 1.96,7.08 0.28,0.7 0.48,1.21 0.48,1.78 0,1.81 -1.53,2.98 -3.31,2.98 -3.49,0 -5.05,-4.76 -5.05,-5.33 0,-0.45 0.49,-0.45 0.6,-0.45 0.48,0 0.51,0.17 0.62,0.56 0.83,2.86 2.38,4.25 3.72,4.25 0.59,0 0.87,-0.39 0.87,-1.22 0,-0.79 -0.28,-1.53 -0.62,-2.32 -1.88,-4.82 -1.88,-5.83 -1.88,-6.77 0,-0.59 0,-2.2 1.29,-3.31 1.01,-0.83 2.37,-1.11 3.59,-1.11 2.19,0 3.37,1.19 4.53,2.29 0.77,-2.23 3.09,-2.29 3.52,-2.29 1.18,0 2.09,0.69 2.75,1.84 0.76,1.36 1.25,3.38 1.25,3.49 0,0.45 -0.49,0.45 -0.58,0.45 -0.5,0 -0.53,-0.14 -0.78,-1.08 -0.41,-1.64 -1.08,-3.73 -2.53,-3.73 -0.91,0 -1.16,0.79 -1.16,1.7 0,0.59 0.28,1.86 0.53,2.77 0.24,0.93 0.58,2.35 0.77,3.12 l 0.79,3.11 c 0.21,0.87 0.6,2.41 0.6,2.58 0,0.69 -0.57,1.11 -1.16,1.11 -1.28,0 -1.53,-1.02 -1.81,-2.13 z"
           inkscape:connector-curvature="0"
           style="fill:#000000;stroke-width:0" /><path
           id="path3858"
           d="m 530.7,412.53 h 3.55 c 0.65,0 1.1,0 1.1,0.76 0,0.49 -0.45,0.49 -1.03,0.49 h -3.31 l 1.28,5.15 c 0.03,0.18 0.11,0.35 0.11,0.49 0,0.64 -0.48,1.12 -1.18,1.12 -0.88,0 -1.4,-0.59 -1.65,-1.5 -0.23,-0.87 0.22,0.8 -1.32,-5.26 h -3.55 c -0.66,0 -1.11,0 -1.11,-0.77 0,-0.48 0.41,-0.48 1.05,-0.48 h 3.29 l -2.04,-8.22 c -0.22,-0.88 -0.54,-2.13 -0.54,-2.58 0,-2.06 1.75,-3.31 3.74,-3.31 3.88,0 6.06,4.87 6.06,5.33 0,0.45 -0.45,0.45 -0.56,0.45 -0.41,0 -0.45,-0.08 -0.72,-0.66 -0.98,-2.2 -2.77,-4.15 -4.67,-4.15 -0.73,0 -1.22,0.45 -1.22,1.7 0,0.36 0.14,1.09 0.2,1.44 z"
           inkscape:connector-curvature="0"
           style="fill:#000000;stroke-width:0" /></g>    </g>
    <path
       inkscape:connector-curvature="0"
       id="path4060"
       d="m 318.28413,464.57034 c 84.77917,0 84.77917,0 84.77917,0"
       style="fill:none;stroke:#000000;stroke-width:0.99999994px;stroke-linecap:butt;stroke-linejoin:miter;stroke-opacity:1;marker-end:url(#Arrow1Lend)" />
    <path
       style="fill:none;stroke:#000000;stroke-width:0.99999994px;stroke-linecap:butt;stroke-linejoin:miter;stroke-opacity:1;marker-end:url(#Arrow1Lend)"
       d="m 479.44788,464.57034 c 79.97425,0 79.97425,0 79.97425,0"
       id="path4062"
       inkscape:connector-curvature="0" />
  </g>
</svg>
