<?xml version="1.0" encoding="UTF-8" standalone="no"?>
<!-- Created with Inkscape (http://www.inkscape.org/) -->

<svg
   xmlns:dc="http://purl.org/dc/elements/1.1/"
   xmlns:cc="http://creativecommons.org/ns#"
   xmlns:rdf="http://www.w3.org/1999/02/22-rdf-syntax-ns#"
   xmlns:svg="http://www.w3.org/2000/svg"
   xmlns="http://www.w3.org/2000/svg"
   xmlns:sodipodi="http://sodipodi.sourceforge.net/DTD/sodipodi-0.dtd"
   xmlns:inkscape="http://www.inkscape.org/namespaces/inkscape"
   width="860.85034"
   height="299.56619"
   id="svg5325"
   version="1.1"
   inkscape:version="0.48.4 r9939"
   sodipodi:docname="steeringControlDiagramWithPControl.svg">
  <sodipodi:namedview
     id="base"
     pagecolor="#ffffff"
     bordercolor="#666666"
     borderopacity="1.0"
     inkscape:pageopacity="0.0"
     inkscape:pageshadow="2"
     inkscape:zoom="0.49497475"
     inkscape:cx="-45.073466"
     inkscape:cy="-4.589943"
     inkscape:document-units="px"
     inkscape:current-layer="layer1"
     showgrid="false"
     inkscape:window-width="1307"
     inkscape:window-height="744"
     inkscape:window-x="59"
     inkscape:window-y="24"
     inkscape:window-maximized="1"
     inkscape:snap-object-midpoints="true"
     inkscape:snap-center="true"
     fit-margin-top="0"
     fit-margin-left="0"
     fit-margin-right="0"
     fit-margin-bottom="0" />
  <defs
     id="defs5327">
    <marker
       inkscape:stockid="Arrow1Lend"
       orient="auto"
       refY="0"
       refX="0"
       id="Arrow1Lend"
       style="overflow:visible">
      <path
         inkscape:connector-curvature="0"
         id="path4095"
         d="M 0,0 5,-5 -12.5,0 5,5 0,0 z"
         style="fill-rule:evenodd;stroke:#000000;stroke-width:1pt"
         transform="matrix(-0.8,0,0,-0.8,-10,0)" />
    </marker>
    <marker
       inkscape:stockid="Arrow1Lend"
       orient="auto"
       refY="0"
       refX="0"
       id="marker5266"
       style="overflow:visible">
      <path
         inkscape:connector-curvature="0"
         id="path5268"
         d="M 0,0 5,-5 -12.5,0 5,5 0,0 z"
         style="fill-rule:evenodd;stroke:#000000;stroke-width:1pt"
         transform="matrix(-0.8,0,0,-0.8,-10,0)" />
    </marker>
    <marker
       inkscape:stockid="Arrow1Lend"
       orient="auto"
       refY="0"
       refX="0"
       id="marker5270"
       style="overflow:visible">
      <path
         inkscape:connector-curvature="0"
         id="path5272"
         d="M 0,0 5,-5 -12.5,0 5,5 0,0 z"
         style="fill-rule:evenodd;stroke:#000000;stroke-width:1pt"
         transform="matrix(-0.8,0,0,-0.8,-10,0)" />
    </marker>
    <marker
       inkscape:stockid="Arrow1Lend"
       orient="auto"
       refY="0"
       refX="0"
       id="marker5274"
       style="overflow:visible">
      <path
         inkscape:connector-curvature="0"
         id="path5276"
         d="M 0,0 5,-5 -12.5,0 5,5 0,0 z"
         style="fill-rule:evenodd;stroke:#000000;stroke-width:1pt"
         transform="matrix(-0.8,0,0,-0.8,-10,0)" />
    </marker>
    <marker
       inkscape:stockid="Arrow1Lend"
       orient="auto"
       refY="0"
       refX="0"
       id="marker5278"
       style="overflow:visible">
      <path
         inkscape:connector-curvature="0"
         id="path5280"
         d="M 0,0 5,-5 -12.5,0 5,5 0,0 z"
         style="fill-rule:evenodd;stroke:#000000;stroke-width:1pt"
         transform="matrix(-0.8,0,0,-0.8,-10,0)" />
    </marker>
    <marker
       inkscape:stockid="Arrow1Lend"
       orient="auto"
       refY="0"
       refX="0"
       id="marker5282"
       style="overflow:visible">
      <path
         inkscape:connector-curvature="0"
         id="path5284"
         d="M 0,0 5,-5 -12.5,0 5,5 0,0 z"
         style="fill-rule:evenodd;stroke:#000000;stroke-width:1pt"
         transform="matrix(-0.8,0,0,-0.8,-10,0)" />
    </marker>
  </defs>
  <metadata
     id="metadata5330">
    <rdf:RDF>
      <cc:Work
         rdf:about="">
        <dc:format>image/svg+xml</dc:format>
        <dc:type
           rdf:resource="http://purl.org/dc/dcmitype/StillImage" />
        <dc:title />
      </cc:Work>
    </rdf:RDF>
  </metadata>
  <g
     transform="translate(127.56804,-388.29337)"
     inkscape:label="Layer 1"
     inkscape:groupmode="layer"
     id="layer1">
    <g
       transform="translate(-60.89897,88.196841)"
       id="g4026">
      <rect
         y="428.08792"
         x="404.51273"
         height="72.73098"
         width="74.751289"
         id="rect3755"
         style="fill:none;stroke:#000000;stroke-width:1;stroke-linecap:butt;stroke-linejoin:round;stroke-miterlimit:4;stroke-opacity:1;stroke-dasharray:none;stroke-dashoffset:0" />
      <g
         transform="translate(123.7367,135.86593)"
         id="g3767">
        <g
           style="font-style:normal;font-variant:normal;font-weight:normal;font-stretch:normal;letter-spacing:normal;word-spacing:normal;text-anchor:start;fill:none;stroke:#000000;stroke-linecap:butt;stroke-linejoin:miter;stroke-miterlimit:10.43299961;stroke-opacity:1;stroke-dasharray:none;stroke-dashoffset:0"
           id="content"
           transform="matrix(1.0629921,0,0,-1.0629921,-192.08454,774.11936)"
           xml:space="preserve"
           stroke-miterlimit="10.433"
           font-style="normal"
           font-variant="normal"
           font-weight="normal"
           font-stretch="normal"
           font-size-adjust="none"
           letter-spacing="normal"
           word-spacing="normal"><path
             style="fill:#000000;stroke-width:0"
             inkscape:connector-curvature="0"
             d="m 481.46,439.76 -0.02,0.03 -0.01,0.02 -0.01,0.03 -0.01,0.02 -0.01,0.02 -0.02,0.02 -0.01,0.02 -0.01,0.02 -0.01,0.02 -0.01,0.02 -0.01,0.01 0,0.02 -0.01,0.02 -0.01,0.01 -0.01,0.01 -0.01,0.02 0,0.01 -0.01,0.01 0,0.01 -0.01,0.01 0,0.01 -0.01,0.01 0,0.01 -0.01,0 0,0.01 0,0.01 -0.01,0 0,0.01 0,0 0,0.01 0,0 0,0 c 0,0.08 0.03,0.11 0.84,0.68 l 3.52,2.46 c 4.59,3.24 6.76,4.77 9.23,4.99 0.38,0.03 0.8,0.06 0.8,0.76 0,0.29 -0.24,0.46 -0.45,0.46 -0.74,0 -1.64,-0.11 -2.41,-0.11 -0.94,0 -3.27,0.14 -4.2,0.14 -0.22,0 -0.74,0 -0.74,-0.77 0,-0.03 0,-0.45 0.52,-0.48 0.42,-0.03 0.87,-0.11 0.87,-0.49 0,-0.64 -1.08,-1.4 -1.53,-1.71 l -14.53,-10.24 2.75,10.97 c 0.31,1.19 0.34,1.47 3.06,1.47 0.57,0 1.05,0 1.05,0.73 0,0.32 -0.2,0.52 -0.56,0.52 -1,0 -3.55,-0.14 -4.57,-0.14 -0.59,0 -1.81,0 -2.4,0.03 -0.69,0.05 -1.53,0.11 -2.19,0.11 -0.2,0 -0.73,0 -0.73,-0.77 0,-0.48 0.39,-0.48 1.15,-0.48 0.55,0 0.69,0 1.32,-0.08 0.7,-0.06 0.78,-0.14 0.78,-0.48 0,-0.07 0,-0.24 -0.14,-0.77 l -4.64,-18.5 c -0.29,-1.19 -0.35,-1.47 -3.07,-1.47 -0.62,0 -1.04,0 -1.04,-0.76 0,-0.04 0,-0.49 0.56,-0.49 1,0 3.51,0.14 4.51,0.14 0.6,0 1.82,0 2.41,-0.03 0.7,-0.05 1.58,-0.11 2.23,-0.11 0.21,0 0.74,0 0.74,0.77 0,0.48 -0.42,0.48 -1.11,0.48 -0.05,0 -0.7,0 -1.33,0.08 -0.81,0.06 -0.81,0.17 -0.81,0.52 0,0.28 0.36,1.57 1.64,6.68 l 5.78,4.08 5.06,-9.78 c 0.24,-0.45 0.24,-0.5 0.24,-0.67 0,-0.8 -0.97,-0.91 -1.6,-0.91 -0.42,0 -0.9,0 -0.9,-0.76 0,-0.04 0.03,-0.49 0.59,-0.49 0.97,0 3.49,0.14 4.45,0.14 1.05,0 2.44,-0.14 3.43,-0.14 0.45,0 0.68,0.25 0.68,0.74 0,0.51 -0.45,0.51 -0.79,0.51 -0.63,0 -1.71,0.05 -2.3,1.16 z"
             id="path3770" /><polyline
             style="fill:#000000;fill-rule:nonzero;stroke-width:0"
             points="462,418 498,418 498,420.04 462,420.04 "
             id="polyline3772" /><path
             style="fill:#000000;stroke-width:0"
             inkscape:connector-curvature="0"
             d="m 485.05,402.13 -0.08,-0.02 -0.08,-0.02 -0.08,-0.03 -0.08,-0.03 -0.07,-0.03 -0.08,-0.03 -0.07,-0.04 -0.07,-0.04 -0.06,-0.04 -0.07,-0.05 -0.06,-0.04 -0.06,-0.05 -0.06,-0.05 -0.05,-0.05 -0.05,-0.05 -0.05,-0.06 -0.05,-0.05 -0.04,-0.06 -0.04,-0.06 -0.04,-0.06 -0.03,-0.06 -0.04,-0.06 -0.03,-0.06 -0.02,-0.07 -0.03,-0.06 -0.02,-0.06 -0.01,-0.07 -0.02,-0.06 -0.01,-0.07 -0.01,-0.06 0,-0.07 0,-0.06 c 0,-0.81 0.7,-1.13 1.15,-1.13 0.35,0 1.67,0.22 1.67,1.99 0,2.26 -2.5,3.03 -4.62,3.03 -5.44,0 -6.42,-4 -6.42,-5.08 0,-1.3 0.73,-2.12 1.22,-2.55 0.9,-0.7 1.53,-0.82 3.93,-1.25 0.74,-0.14 2.97,-0.56 2.97,-2.29 0,-0.6 -0.39,-1.93 -1.84,-2.8 -1.36,-0.77 -3.08,-0.77 -3.49,-0.77 -1.4,0 -3.39,0.32 -4.18,1.47 1.15,0.14 1.92,1 1.92,1.99 0,0.87 -0.63,1.28 -1.36,1.28 -1.02,0 -2.03,-0.8 -2.03,-2.33 0,-2.09 2.23,-3.37 5.61,-3.37 6.42,0 7.61,4.39 7.61,5.75 0,3.2 -3.53,3.82 -4.82,4.07 -0.31,0.07 -1.18,0.21 -1.39,0.27 -1.29,0.25 -1.92,0.98 -1.92,1.75 0,0.8 0.63,1.73 1.39,2.23 0.94,0.6 2.16,0.66 2.75,0.66 0.74,0 2.55,-0.11 3.31,-1.3 z"
             id="path3774" /></g>      </g>
    </g>
    <g
       id="g3800"
       transform="translate(-427.98023,160.92782)">
      <g
         id="g3802"
         transform="matrix(1.0629921,0,0,-1.0629921,-186.02362,789.27165)"
         xml:space="preserve"
         stroke-miterlimit="10.433"
         font-style="normal"
         font-variant="normal"
         font-weight="normal"
         font-stretch="normal"
         font-size-adjust="none"
         letter-spacing="normal"
         word-spacing="normal"
         style="font-style:normal;font-variant:normal;font-weight:normal;font-stretch:normal;letter-spacing:normal;word-spacing:normal;text-anchor:start;fill:none;stroke:#000000;stroke-linecap:butt;stroke-linejoin:miter;stroke-miterlimit:10.43299961;stroke-opacity:1;stroke-dasharray:none;stroke-dashoffset:0"><path
           d="m 478.19,431.11 0,0.31 -0.01,0.34 -0.02,0.36 -0.02,0.37 -0.03,0.39 -0.04,0.39 -0.04,0.41 -0.06,0.41 -0.07,0.42 -0.07,0.43 -0.09,0.42 -0.1,0.43 -0.12,0.42 -0.12,0.42 -0.14,0.41 -0.16,0.41 -0.17,0.4 -0.18,0.38 -0.2,0.37 -0.22,0.36 -0.23,0.34 -0.25,0.32 -0.28,0.3 -0.29,0.27 -0.31,0.25 -0.16,0.12 -0.17,0.1 -0.17,0.1 -0.18,0.1 -0.18,0.08 -0.19,0.08 -0.19,0.07 -0.2,0.06 -0.21,0.05 -0.21,0.05 -0.22,0.03 -0.22,0.02 -0.23,0.02 -0.23,0 -0.05,-1.09 c 2.44,0 2.73,-3.19 2.73,-6.03 0,-2.44 -0.39,-4.99 -1.59,-9.92 h -10.41 c 0.85,3.2 1.85,7.18 3.83,10.72 1.36,2.43 3.19,5.23 5.44,5.23 l 0.05,1.09 c -6.92,0 -14.6,-14.04 -14.6,-25.45 0,-4.69 1.44,-10.22 5.99,-10.22 v 1.1 c -1.66,0 -2.71,1.45 -2.71,6.07 0,2.1 0.3,4.99 1.6,9.86 h 10.37 c -0.54,-2.28 -1.59,-6.51 -3.5,-10.11 -1.73,-3.39 -3.62,-5.82 -5.76,-5.82 v -1.1 c 7.01,0 14.59,14.3 14.59,25.46 z"
           id="path3804"
           inkscape:connector-curvature="0"
           style="fill:#000000;stroke-width:0" /><path
           d="m 487.11,405.79 0,0.02 0,0.01 0.01,0.02 0,0.03 0.01,0.03 0.01,0.03 0.01,0.03 0,0.04 0.01,0.04 0.02,0.05 0.01,0.04 0.01,0.06 0.01,0.05 0.02,0.05 0.03,0.12 0.03,0.13 0.03,0.13 0.04,0.15 0.03,0.14 0.04,0.15 0.04,0.15 0.08,0.32 0.08,0.31 0.04,0.15 0.04,0.15 0.04,0.14 0.03,0.14 0.04,0.14 0.03,0.12 0.03,0.12 0.02,0.05 0.01,0.05 0.01,0.05 0.02,0.05 0.01,0.04 0.01,0.04 0.01,0.04 0.01,0.03 0.01,0.03 0.01,0.03 0,0.02 0.01,0.02 0,0.01 0.01,0.01 c 0.07,0.29 1.07,2.02 2.2,2.86 0.37,0.27 1.31,0.97 2.81,0.97 0.35,0 1.22,-0.03 1.92,-0.48 -1.12,-0.31 -1.53,-1.3 -1.53,-1.92 0,-0.77 0.6,-1.29 1.39,-1.29 0.8,0 1.96,0.66 1.96,2.13 0,1.81 -1.93,2.53 -3.71,2.53 -1.81,0 -3.37,-0.72 -4.9,-2.47 -0.63,2.13 -2.75,2.47 -3.6,2.47 -1.28,0 -2.15,-0.8 -2.72,-1.76 -0.79,-1.36 -1.28,-3.4 -1.28,-3.57 0,-0.45 0.49,-0.45 0.6,-0.45 0.48,0 0.51,0.11 0.76,1.05 0.52,2.12 1.19,3.76 2.55,3.76 0.91,0 1.14,-0.76 1.14,-1.7 0,-0.67 -0.31,-1.95 -0.56,-2.89 -0.24,-0.95 -0.58,-2.38 -0.77,-3.14 l -1.11,-4.47 c -0.14,-0.44 -0.34,-1.31 -0.34,-1.42 0,-0.77 0.62,-1.11 1.19,-1.11 0.51,0 1.21,0.31 1.48,1 0.08,0.22 0.45,1.75 0.67,2.62 z"
           id="path3806"
           inkscape:connector-curvature="0"
           style="fill:#000000;stroke-width:0" /><path
           d="m 506.29,406.7 0.09,0 0.11,0 0.12,0 0.12,0 0.13,0.01 0.14,0 0.15,0.01 0.16,0 0.16,0.01 0.17,0.01 0.17,0.01 0.18,0.01 0.18,0.01 0.19,0.02 0.39,0.03 0.39,0.04 0.41,0.05 0.4,0.06 0.41,0.07 0.4,0.08 0.2,0.05 0.19,0.04 0.2,0.05 0.18,0.06 0.19,0.05 0.18,0.06 c 2.58,0.91 3.06,2.58 3.06,3.63 0,1.92 -1.92,3.06 -4.33,3.06 v -0.97 c 1.53,0 2.83,-0.76 2.83,-2.09 0,-3.38 -5.89,-3.38 -7.39,-3.38 h -1.7 c 1.42,5.05 5.29,5.47 6.26,5.47 v 0.97 c -4.17,0 -9.83,-3.2 -9.83,-9.16 0,-3.51 2.21,-6.54 6.29,-6.54 5.89,0 8.64,3.44 8.64,3.94 0,0.2 -0.32,0.59 -0.6,0.59 -0.2,0 -0.28,-0.08 -0.56,-0.36 -2.72,-3.2 -6.8,-3.2 -7.42,-3.2 -2.1,0 -3.49,1.39 -3.49,4.22 0,0.48 0,1.18 0.43,3.09 z"
           id="path3808"
           inkscape:connector-curvature="0"
           style="fill:#000000;stroke-width:0" /><path
           d="m 531.5,412.53 h 3.41 c 0.7,0 1.16,0 1.16,0.76 0,0.49 -0.46,0.49 -1.08,0.49 h -3.25 c 0.81,4.42 1.08,6.03 1.36,7.04 0.17,0.77 0.93,1.5 1.78,1.5 0.03,0 0.97,0 1.64,-0.42 -1.44,-0.45 -1.53,-1.72 -1.53,-1.92 0,-0.77 0.59,-1.28 1.39,-1.28 0.94,0 1.98,0.8 1.98,2.12 0,1.6 -1.7,2.47 -3.48,2.47 -1.53,0 -3.23,-0.87 -4.19,-2.61 -0.69,-1.29 -0.97,-2.86 -1.7,-6.9 h -2.75 c -0.71,0 -1.16,0 -1.16,-0.77 0,-0.48 0.45,-0.48 1.08,-0.48 h 2.58 c -0.03,-0.22 -2.22,-12.75 -3.06,-16.49 -0.18,-0.76 -0.77,-3.4 -2.44,-3.4 -0.03,0 -0.88,0 -1.53,0.4 1.42,0.46 1.53,1.72 1.53,1.92 0,0.77 -0.59,1.29 -1.39,1.29 -0.94,0 -1.99,-0.8 -1.99,-2.13 0,-1.56 1.64,-2.47 3.38,-2.47 2.23,0 3.76,2.3 4.19,3.06 1.25,2.35 2.04,6.63 2.12,7.05 z"
           id="path3810"
           inkscape:connector-curvature="0"
           style="fill:#000000;stroke-width:0" /></g>    </g>
    <g
       id="g3848"
       transform="translate(350.23313,160.92782)">
      <g
         word-spacing="normal"
         letter-spacing="normal"
         font-size-adjust="none"
         font-stretch="normal"
         font-weight="normal"
         font-variant="normal"
         font-style="normal"
         stroke-miterlimit="10.433"
         xml:space="preserve"
         transform="matrix(1.0629921,0,0,-1.0629921,-186.02362,789.27165)"
         id="g3850"
         style="font-style:normal;font-variant:normal;font-weight:normal;font-stretch:normal;letter-spacing:normal;word-spacing:normal;text-anchor:start;fill:none;stroke:#000000;stroke-linecap:butt;stroke-linejoin:miter;stroke-miterlimit:10.43299961;stroke-opacity:1;stroke-dasharray:none;stroke-dashoffset:0"><path
           id="path3852"
           d="m 478.19,431.11 0,0.31 -0.01,0.34 -0.02,0.36 -0.02,0.37 -0.03,0.39 -0.04,0.39 -0.04,0.41 -0.06,0.41 -0.07,0.42 -0.07,0.43 -0.09,0.42 -0.1,0.43 -0.12,0.42 -0.12,0.42 -0.14,0.41 -0.16,0.41 -0.17,0.4 -0.18,0.38 -0.2,0.37 -0.22,0.36 -0.23,0.34 -0.25,0.32 -0.28,0.3 -0.29,0.27 -0.31,0.25 -0.16,0.12 -0.17,0.1 -0.17,0.1 -0.18,0.1 -0.18,0.08 -0.19,0.08 -0.19,0.07 -0.2,0.06 -0.21,0.05 -0.21,0.05 -0.22,0.03 -0.22,0.02 -0.23,0.02 -0.23,0 -0.05,-1.09 c 2.44,0 2.73,-3.19 2.73,-6.03 0,-2.44 -0.39,-4.99 -1.59,-9.92 h -10.41 c 0.85,3.2 1.85,7.18 3.83,10.72 1.36,2.43 3.19,5.23 5.44,5.23 l 0.05,1.09 c -6.92,0 -14.6,-14.04 -14.6,-25.45 0,-4.69 1.44,-10.22 5.99,-10.22 v 1.1 c -1.66,0 -2.71,1.45 -2.71,6.07 0,2.1 0.3,4.99 1.6,9.86 h 10.37 c -0.54,-2.28 -1.59,-6.51 -3.5,-10.11 -1.73,-3.39 -3.62,-5.82 -5.76,-5.82 v -1.1 c 7.01,0 14.59,14.3 14.59,25.46 z"
           inkscape:connector-curvature="0"
           style="fill:#000000;stroke-width:0" /><path
           id="path3854"
           d="m 497.42,408.03 -0.01,0.36 -0.02,0.34 -0.04,0.34 -0.06,0.33 -0.07,0.32 -0.09,0.31 -0.1,0.3 -0.11,0.28 -0.13,0.28 -0.14,0.27 -0.16,0.25 -0.16,0.25 -0.18,0.23 -0.19,0.22 -0.2,0.22 -0.21,0.2 -0.22,0.19 -0.23,0.17 -0.24,0.17 -0.25,0.15 -0.25,0.15 -0.27,0.13 -0.27,0.12 -0.27,0.1 -0.29,0.1 -0.29,0.08 -0.3,0.07 -0.3,0.06 -0.3,0.04 -0.31,0.04 -0.32,0.01 -0.32,0.01 c -5.17,0 -10.04,-4.84 -10.04,-9.61 0,-3.48 2.54,-6.09 6.34,-6.09 l 0.03,0.97 c -1.73,0 -3.48,1.12 -3.48,3.87 0,1.42 0.67,4.85 2.03,6.83 1.5,2.16 3.52,3.06 5.08,3.06 1.89,0 3.48,-1.29 3.48,-3.87 0,-0.83 -0.4,-4.28 -1.95,-6.72 -1.31,-2.05 -3.41,-3.17 -5.16,-3.17 h 0 l -0.03,-0.97 c 4.99,0 10,4.59 10,9.61 z"
           inkscape:connector-curvature="0"
           style="fill:#000000;stroke-width:0" /><path
           id="path3856"
           d="m 513.34,404.4 -0.02,-0.06 -0.02,-0.07 -0.02,-0.08 -0.01,-0.07 -0.02,-0.08 -0.02,-0.08 -0.02,-0.08 -0.02,-0.08 -0.04,-0.17 -0.05,-0.17 -0.04,-0.17 -0.02,-0.08 -0.02,-0.08 -0.02,-0.08 -0.02,-0.07 -0.02,-0.07 -0.02,-0.07 -0.01,-0.07 -0.02,-0.06 -0.02,-0.06 -0.01,-0.06 -0.02,-0.05 -0.01,-0.04 -0.01,-0.04 -0.02,-0.04 0,-0.01 -0.01,-0.01 0,-0.01 -0.01,-0.01 0,-0.01 0,-0.01 -0.01,0 0,0 c -0.67,-1.08 -2.06,-2.97 -4.22,-2.97 -2.41,0 -2.41,2.26 -2.41,2.89 0,2.06 0.97,4.53 1.96,7.08 0.28,0.7 0.48,1.21 0.48,1.78 0,1.81 -1.53,2.98 -3.31,2.98 -3.49,0 -5.05,-4.76 -5.05,-5.33 0,-0.45 0.49,-0.45 0.6,-0.45 0.48,0 0.51,0.17 0.62,0.56 0.83,2.86 2.38,4.25 3.72,4.25 0.59,0 0.87,-0.39 0.87,-1.22 0,-0.79 -0.28,-1.53 -0.62,-2.32 -1.88,-4.82 -1.88,-5.83 -1.88,-6.77 0,-0.59 0,-2.2 1.29,-3.31 1.01,-0.83 2.37,-1.11 3.59,-1.11 2.19,0 3.37,1.19 4.53,2.29 0.77,-2.23 3.09,-2.29 3.52,-2.29 1.18,0 2.09,0.69 2.75,1.84 0.76,1.36 1.25,3.38 1.25,3.49 0,0.45 -0.49,0.45 -0.58,0.45 -0.5,0 -0.53,-0.14 -0.78,-1.08 -0.41,-1.64 -1.08,-3.73 -2.53,-3.73 -0.91,0 -1.16,0.79 -1.16,1.7 0,0.59 0.28,1.86 0.53,2.77 0.24,0.93 0.58,2.35 0.77,3.12 l 0.79,3.11 c 0.21,0.87 0.6,2.41 0.6,2.58 0,0.69 -0.57,1.11 -1.16,1.11 -1.28,0 -1.53,-1.02 -1.81,-2.13 z"
           inkscape:connector-curvature="0"
           style="fill:#000000;stroke-width:0" /><path
           id="path3858"
           d="m 530.7,412.53 h 3.55 c 0.65,0 1.1,0 1.1,0.76 0,0.49 -0.45,0.49 -1.03,0.49 h -3.31 l 1.28,5.15 c 0.03,0.18 0.11,0.35 0.11,0.49 0,0.64 -0.48,1.12 -1.18,1.12 -0.88,0 -1.4,-0.59 -1.65,-1.5 -0.23,-0.87 0.22,0.8 -1.32,-5.26 h -3.55 c -0.66,0 -1.11,0 -1.11,-0.77 0,-0.48 0.41,-0.48 1.05,-0.48 h 3.29 l -2.04,-8.22 c -0.22,-0.88 -0.54,-2.13 -0.54,-2.58 0,-2.06 1.75,-3.31 3.74,-3.31 3.88,0 6.06,4.87 6.06,5.33 0,0.45 -0.45,0.45 -0.56,0.45 -0.41,0 -0.45,-0.08 -0.72,-0.66 -0.98,-2.2 -2.77,-4.15 -4.67,-4.15 -0.73,0 -1.22,0.45 -1.22,1.7 0,0.36 0.14,1.09 0.2,1.44 z"
           inkscape:connector-curvature="0"
           style="fill:#000000;stroke-width:0" /></g>    </g>
    <g
       id="g3908"
       transform="translate(184.68194,70.522491)" />
    <path
       id="path3984"
       d="m 41.60193,553.37667 h 8.43586 c 0.41846,0 0.9946,0 0.9946,-0.60646 0,-0.60646 -0.57614,-0.60646 -0.9946,-0.60646 h -8.43586 v -8.46618 c 0,-0.4124 0,-0.9946 -0.60646,-0.9946 -0.59433,0 -0.59433,0.5822 -0.59433,0.9946 v 8.46618 h -8.46012 c -0.43059,0 -0.9946,0 -0.9946,0.60646 0,0.60646 0.56401,0.60646 0.9946,0.60646 h 8.46012 v 8.45406 c 0,0.42452 0,1.00066 0.59433,1.00066 0.60646,0 0.60646,-0.57614 0.60646,-1.00066 z"
       inkscape:connector-curvature="0"
       style="font-style:normal;font-variant:normal;font-weight:normal;font-stretch:normal;letter-spacing:normal;word-spacing:normal;text-anchor:start;fill:#000000;stroke:#000000;stroke-width:0;stroke-linecap:butt;stroke-linejoin:miter;stroke-miterlimit:10.43299961;stroke-opacity:1;stroke-dasharray:none;stroke-dashoffset:0" />
    <path
       id="path3986"
       d="m 69.1559,573.37308 0.097,0 0.097,0 0.097,-0.006 0.0485,0 0.0425,-0.006 0.0485,0 0.0425,-0.006 0.0485,-0.006 0.0425,-0.006 0.0425,-0.0121 0.0424,-0.0122 0.0364,-0.0121 0.0425,-0.0121 0.0364,-0.0122 0.0364,-0.0182 0.0303,-0.0182 0.0303,-0.0242 0.0303,-0.0182 0.0303,-0.0303 0.0242,-0.0242 0.0242,-0.0303 0.0122,-0.0182 0.0122,-0.0182 0.006,-0.0182 0.0122,-0.0182 0.006,-0.0182 0.006,-0.0182 0.006,-0.0243 0.006,-0.0182 0.006,-0.0242 0.006,-0.0243 0.006,-0.0242 0,-0.0242 0.006,-0.0242 0,-0.0242 0,-0.0304 0,-0.0242 c 0,-0.60646 -0.54582,-0.60646 -1.06131,-0.60646 h -16.3441 c -0.50943,0 -1.04918,0 -1.04918,0.60646 0,0.60646 0.53975,0.60646 1.04918,0.60646 z"
       inkscape:connector-curvature="0"
       style="font-style:normal;font-variant:normal;font-weight:normal;font-stretch:normal;letter-spacing:normal;word-spacing:normal;text-anchor:start;fill:#000000;stroke:#000000;stroke-width:0;stroke-linecap:butt;stroke-linejoin:miter;stroke-miterlimit:10.43299961;stroke-opacity:1;stroke-dasharray:none;stroke-dashoffset:0" />
    <path
       sodipodi:type="arc"
       style="fill:none;stroke:#000000;stroke-width:1;stroke-linecap:butt;stroke-linejoin:round;stroke-miterlimit:4;stroke-opacity:1;stroke-dasharray:none;stroke-dashoffset:0"
       id="path4034"
       sodipodi:cx="441.88837"
       sodipodi:cy="464.57034"
       sodipodi:rx="36.248554"
       sodipodi:ry="36.248554"
       d="m 478.13692,464.57034 c 0,20.01953 -16.22903,36.24856 -36.24855,36.24856 -20.01953,0 -36.24856,-16.22903 -36.24856,-36.24856 0,-20.01952 16.22903,-36.24855 36.24856,-36.24855 20.01952,0 36.24855,16.22903 36.24855,36.24855 z"
       transform="translate(-380.89896,88.196841)" />
    <path
       d="m 478.13692,464.57034 c 0,20.01953 -16.22903,36.24856 -36.24855,36.24856 -20.01953,0 -36.24856,-16.22903 -36.24856,-36.24856 0,-20.01952 16.22903,-36.24855 36.24856,-36.24855 20.01952,0 36.24855,16.22903 36.24855,36.24855 z"
       sodipodi:ry="36.248554"
       sodipodi:rx="36.248554"
       sodipodi:cy="464.57034"
       sodipodi:cx="441.88837"
       id="path4036"
       style="fill:none;stroke:#000000;stroke-width:1;stroke-linecap:butt;stroke-linejoin:round;stroke-miterlimit:4;stroke-opacity:1;stroke-dasharray:none;stroke-dashoffset:0"
       sodipodi:type="arc"
       transform="translate(95.10103,88.196841)" />
    <path
       id="path3984-8"
       d="m 537.60193,569.37667 h 8.43586 c 0.41846,0 0.9946,0 0.9946,-0.60646 0,-0.60646 -0.57614,-0.60646 -0.9946,-0.60646 h -8.43586 v -8.46618 c 0,-0.4124 0,-0.9946 -0.60646,-0.9946 -0.59433,0 -0.59433,0.5822 -0.59433,0.9946 v 8.46618 h -8.46012 c -0.43059,0 -0.9946,0 -0.9946,0.60646 0,0.60646 0.56401,0.60646 0.9946,0.60646 h 8.46012 v 8.45406 c 0,0.42452 0,1.00066 0.59433,1.00066 0.60646,0 0.60646,-0.57614 0.60646,-1.00066 z"
       inkscape:connector-curvature="0"
       style="font-style:normal;font-variant:normal;font-weight:normal;font-stretch:normal;letter-spacing:normal;word-spacing:normal;text-anchor:start;fill:#000000;stroke:#000000;stroke-width:0;stroke-linecap:butt;stroke-linejoin:miter;stroke-miterlimit:10.43299961;stroke-opacity:1;stroke-dasharray:none;stroke-dashoffset:0" />
    <path
       style="font-style:normal;font-variant:normal;font-weight:normal;font-stretch:normal;letter-spacing:normal;word-spacing:normal;text-anchor:start;fill:#000000;stroke:#000000;stroke-width:0;stroke-linecap:butt;stroke-linejoin:miter;stroke-miterlimit:10.43299961;stroke-opacity:1;stroke-dasharray:none;stroke-dashoffset:0"
       inkscape:connector-curvature="0"
       d="m 519.60193,553.37667 h 8.43586 c 0.41846,0 0.9946,0 0.9946,-0.60646 0,-0.60646 -0.57614,-0.60646 -0.9946,-0.60646 h -8.43586 v -8.46618 c 0,-0.4124 0,-0.9946 -0.60646,-0.9946 -0.59433,0 -0.59433,0.5822 -0.59433,0.9946 v 8.46618 h -8.46012 c -0.43059,0 -0.9946,0 -0.9946,0.60646 0,0.60646 0.56401,0.60646 0.9946,0.60646 h 8.46012 v 8.45406 c 0,0.42452 0,1.00066 0.59433,1.00066 0.60646,0 0.60646,-0.57614 0.60646,-1.00066 z"
       id="path4056" />
    <path
       style="fill:none;stroke:#000000;stroke-width:1px;stroke-linecap:butt;stroke-linejoin:miter;stroke-opacity:1;marker-start:none;marker-end:url(#Arrow1Lend)"
       d="m -108.67052,552.76718 c 131.31984,0 131.31984,0 131.31984,0"
       id="path4058"
       inkscape:connector-curvature="0" />
    <path
       inkscape:connector-curvature="0"
       id="path4060"
       d="m 257.38517,552.76718 c 84.77917,0 84.77917,0 84.77917,0"
       style="fill:none;stroke:#000000;stroke-width:0.99999994px;stroke-linecap:butt;stroke-linejoin:miter;stroke-opacity:1;marker-end:url(#Arrow1Lend)" />
    <path
       style="fill:none;stroke:#000000;stroke-width:0.99999994px;stroke-linecap:butt;stroke-linejoin:miter;stroke-opacity:1;marker-end:url(#Arrow1Lend)"
       d="m 418.54892,552.76718 c 79.97425,0 79.97425,0 79.97425,0"
       id="path4062"
       inkscape:connector-curvature="0" />
    <path
       inkscape:connector-curvature="0"
       id="path4064"
       d="m 573.70452,552.76718 c 136.94484,0 136.94484,0 136.94484,0"
       style="fill:none;stroke:#000000;stroke-width:1px;stroke-linecap:butt;stroke-linejoin:miter;stroke-opacity:1;marker-end:url(#Arrow1Lend)" />
    <path
       style="fill:none;stroke:#000000;stroke-width:1px;stroke-linecap:butt;stroke-linejoin:miter;stroke-opacity:1"
       d="m 644.98941,552.92667 c 0,134.4329 0,134.4329 0,134.4329"
       id="path4066"
       inkscape:connector-curvature="0" />
    <path
       inkscape:connector-curvature="0"
       id="path4068"
       d="m 644.49695,686.76717 c -583.992183,0 -583.992183,0 -583.992183,0"
       style="fill:none;stroke:#000000;stroke-width:0.99999994px;stroke-linecap:butt;stroke-linejoin:miter;stroke-opacity:1" />
    <path
       style="fill:none;stroke:#000000;stroke-width:1px;stroke-linecap:butt;stroke-linejoin:miter;stroke-opacity:1;marker-end:url(#Arrow1Lend)"
       d="m 60.98941,687.21803 c 0,-96.95004 0,-96.95004 0,-96.95004"
       id="path4066-3"
       inkscape:connector-curvature="0" />
    <path
       style="fill:none;stroke:#000000;stroke-width:1px;stroke-linecap:butt;stroke-linejoin:miter;stroke-opacity:1;marker-end:url(#Arrow1Lend)"
       d="m 536.98941,441.95546 c 0,73.15281 0,73.15281 0,73.15281"
       id="path4066-3-6"
       inkscape:connector-curvature="0" />
    <rect
       y="516.28479"
       x="183.61375"
       height="72.73098"
       width="74.751289"
       id="rect5509"
       style="fill:none;stroke:#000000;stroke-width:1;stroke-linecap:butt;stroke-linejoin:round;stroke-miterlimit:4;stroke-opacity:1;stroke-dasharray:none;stroke-dashoffset:0" />
    <path
       style="fill:none;stroke:#000000;stroke-width:0.99999994px;stroke-linecap:butt;stroke-linejoin:miter;stroke-opacity:1;marker-end:url(#Arrow1Lend)"
       d="m 97.38517,552.76718 c 84.77917,0 84.77917,0 84.77917,0"
       id="path5521"
       inkscape:connector-curvature="0" />
    <g
       transform="translate(-111.03087,205.70559)"
       id="g5597">
      <g
         style="font-style:normal;font-variant:normal;font-weight:normal;font-stretch:normal;letter-spacing:normal;word-spacing:normal;text-anchor:start;fill:none;stroke:#000000;stroke-linecap:butt;stroke-linejoin:miter;stroke-miterlimit:10.43299961;stroke-opacity:1;stroke-dasharray:none;stroke-dashoffset:0"
         id="g5599"
         transform="matrix(1.0629921,0,0,-1.0629921,-186.02362,789.27165)"
         xml:space="preserve"
         stroke-miterlimit="10.433"
         font-style="normal"
         font-variant="normal"
         font-weight="normal"
         font-stretch="normal"
         font-size-adjust="none"
         letter-spacing="normal"
         word-spacing="normal"><path
           style="fill:#000000;stroke-width:0"
           inkscape:connector-curvature="0"
           d="m 480.88,426.32 -0.01,0.02 0,0.02 -0.01,0.01 -0.01,0.02 0,0.02 -0.01,0.02 -0.01,0.03 -0.01,0.02 -0.01,0.02 -0.01,0.02 -0.01,0.03 -0.01,0.02 -0.02,0.05 -0.02,0.06 -0.02,0.05 -0.02,0.05 -0.01,0.02 -0.01,0.03 -0.01,0.02 -0.01,0.02 -0.01,0.03 0,0.02 -0.01,0.02 0,0.02 -0.01,0.02 0,0.02 0,0.01 0,0.02 c 0,0.04 0.89,0.75 1.45,1.14 l 8.72,6.73 c 4.67,3.44 6.63,3.63 8.11,3.78 0.41,0.05 0.91,0.1 0.91,1 0,0.19 -0.16,0.55 -0.55,0.55 -1.11,0 -2.34,-0.16 -3.55,-0.16 -1.79,0 -3.73,0.16 -5.53,0.16 -0.34,0 -0.94,0 -0.94,-1 0,-0.34 0.25,-0.5 0.6,-0.55 1.09,-0.09 1.54,-0.34 1.54,-1.04 0,-0.89 -1.5,-2.05 -1.79,-2.3 l -19.44,-14.94 4,15.99 c 0.44,1.79 0.55,2.29 4.17,2.29 1.25,0 1.71,0 1.71,1 0,0.44 -0.41,0.55 -0.71,0.55 -1.39,0 -4.98,-0.16 -6.37,-0.16 -1.44,0 -4.99,0.16 -6.42,0.16 -0.36,0 -1,0 -1,-0.95 0,-0.6 0.45,-0.6 1.43,-0.6 0.66,0 1.55,-0.04 2.14,-0.09 0.8,-0.11 1.11,-0.25 1.11,-0.8 0,-0.2 -0.06,-0.36 -0.2,-0.95 l -6.67,-26.75 c -0.5,-1.95 -0.61,-2.34 -4.55,-2.34 -0.84,0 -1.39,0 -1.39,-0.96 0,-0.59 0.59,-0.59 0.75,-0.59 1.39,0 4.94,0.16 6.33,0.16 1.05,0 2.14,-0.07 3.19,-0.07 1.09,0 2.18,-0.09 3.23,-0.09 0.36,0 1,0 1,1 0,0.55 -0.45,0.55 -1.39,0.55 -1.84,0 -3.23,0 -3.23,0.89 0,0.36 0.29,1.45 0.43,2.2 0.71,2.58 1.35,5.22 2,7.81 l 7.42,5.78 5.79,-13.4 c 0.59,-1.35 0.59,-1.44 0.59,-1.74 0,-1.5 -2.14,-1.54 -2.59,-1.54 -0.55,0 -1.1,0 -1.1,-1 0,-0.55 0.6,-0.55 0.71,-0.55 1.98,0 4.07,0.16 6.07,0.16 1.1,0 3.78,-0.16 4.88,-0.16 0.25,0 0.9,0 0.9,1 0,0.55 -0.56,0.55 -1,0.55 -2.04,0.04 -2.68,0.5 -3.43,2.23 z"
           id="path5601" /><path
           style="fill:#000000;stroke-width:0"
           inkscape:connector-curvature="0"
           d="m 500.49,394.51 -0.02,-0.09 -0.02,-0.08 -0.02,-0.09 -0.03,-0.07 -0.02,-0.08 -0.02,-0.07 -0.02,-0.07 -0.02,-0.06 -0.03,-0.06 -0.02,-0.05 -0.03,-0.06 -0.03,-0.05 -0.03,-0.04 -0.03,-0.05 -0.04,-0.04 -0.04,-0.03 -0.04,-0.04 -0.05,-0.03 -0.05,-0.03 -0.06,-0.02 -0.06,-0.03 -0.06,-0.02 -0.07,-0.01 -0.07,-0.02 -0.09,-0.02 -0.04,0 -0.04,-0.01 -0.05,0 -0.04,-0.01 -0.05,0 -0.05,0 -0.05,-0.01 -0.06,0 -0.05,0 -0.06,0 -0.06,-0.01 -0.06,0 -0.06,0 -0.06,0 c -0.46,0 -0.94,0 -0.94,-0.73 0,-0.39 0.31,-0.53 0.48,-0.53 0.91,0 2.06,0.14 3,0.14 1.19,0 2.5,-0.14 3.66,-0.14 0.31,0 0.7,0.11 0.7,0.76 0,0.5 -0.5,0.5 -0.9,0.5 -0.79,0 -1.72,0 -1.72,0.41 0,0.19 0.25,1.09 0.39,1.61 0.42,1.84 0.9,3.73 1.28,5.18 0.42,-0.68 1.5,-2.04 3.59,-2.04 v 0.97 c -2.47,0 -3.09,2.68 -3.09,3.03 0,0.14 0.06,0.39 0.09,0.53 l 1.75,7 c 2.02,2.69 3.77,3.2 4.88,3.2 1.36,0 2.54,-1.01 2.54,-3.37 0,-1.44 -0.76,-4.99 -1.81,-7.02 -0.87,-1.7 -2.58,-3.37 -4.36,-3.37 v -0.97 c 4.25,0 8.95,4.7 8.95,9.89 0,4.08 -2.82,5.81 -5.21,5.81 -2.18,0 -4.02,-1.45 -4.96,-2.44 -0.59,1.99 -2.54,2.44 -3.59,2.44 -1.36,0 -2.19,-0.91 -2.75,-1.84 -0.7,-1.19 -1.25,-3.27 -1.25,-3.49 0,-0.45 0.48,-0.45 0.59,-0.45 0.49,0 0.52,0.11 0.77,1.05 0.51,2.03 1.19,3.76 2.55,3.76 0.9,0 1.14,-0.76 1.14,-1.7 0,-0.39 -0.07,-0.84 -0.11,-1.05 z"
           id="path5603" /></g>    </g>
    <g
       id="g3101"
       transform="translate(7.576144,-1.0101525)">
      <g
         word-spacing="normal"
         letter-spacing="normal"
         font-size-adjust="none"
         font-stretch="normal"
         font-weight="normal"
         font-variant="normal"
         font-style="normal"
         stroke-miterlimit="10.433"
         xml:space="preserve"
         transform="matrix(0.98303226,0,0,-0.98917751,22.767783,828.04405)"
         id="g3103"
         style="font-style:normal;font-variant:normal;font-weight:normal;font-stretch:normal;letter-spacing:normal;word-spacing:normal;text-anchor:start;fill:none;stroke:#000000;stroke-width:0.43398404;stroke-linecap:butt;stroke-linejoin:miter;stroke-miterlimit:10.43299961;stroke-opacity:1;stroke-dasharray:none;stroke-dashoffset:0"><path
           id="path3105"
           d="m 501.21,434.45 0.23,0.4 0.24,0.4 0.24,0.38 0.24,0.37 0.13,0.18 0.13,0.17 0.14,0.17 0.13,0.16 0.14,0.16 0.15,0.16 0.15,0.15 0.16,0.14 0.16,0.14 0.17,0.13 0.17,0.13 0.18,0.12 0.19,0.11 0.19,0.11 0.2,0.1 0.21,0.09 0.22,0.09 0.23,0.08 0.24,0.07 0.25,0.06 0.25,0.05 0.27,0.05 0.28,0.04 0.29,0.02 c 0.45,0.05 0.95,0.05 0.95,1 0,0.19 -0.2,0.55 -0.61,0.55 -1.19,0 -2.58,-0.16 -3.83,-0.16 -1.7,0 -3.55,0.16 -5.19,0.16 -0.29,0 -0.93,0 -0.93,-0.95 0,-0.55 0.43,-0.6 0.73,-0.6 1.2,-0.04 2.95,-0.45 2.95,-1.93 0,-0.55 -0.25,-0.96 -0.65,-1.66 l -13.46,-23.45 -1.84,24.7 c -0.05,1 -0.14,2.3 3.48,2.34 0.86,0 1.36,0 1.36,1 0,0.5 -0.56,0.55 -0.75,0.55 -2,0 -4.09,-0.16 -6.07,-0.16 -1.16,0 -4.1,0.16 -5.24,0.16 -0.3,0 -0.95,0 -0.95,-1 0,-0.55 0.5,-0.55 1.2,-0.55 2.19,0 2.53,-0.29 2.64,-1.25 l 0.3,-3.82 -12.61,-21.97 -1.89,25.25 c 0,0.59 0,1.75 3.78,1.79 0.5,0 1.05,0 1.05,1 0,0.55 -0.6,0.55 -0.69,0.55 -2,0 -4.09,-0.16 -6.13,-0.16 -1.75,0 -3.54,0.16 -5.23,0.16 -0.25,0 -0.91,0 -0.91,-0.95 0,-0.6 0.46,-0.6 1.25,-0.6 2.5,0 2.55,-0.45 2.64,-1.84 l 2.25,-30.44 c 0.05,-0.9 0.1,-1.29 0.8,-1.29 0.6,0 0.74,0.29 1.19,1.04 l 14.66,25.41 1.84,-25.16 c 0.09,-1.04 0.19,-1.29 0.8,-1.29 0.64,0 0.93,0.5 1.18,0.93 z"
           inkscape:connector-curvature="0"
           style="fill:#000000;stroke-width:0" /><path
           id="path3107"
           d="m 526,394.25 0,0.02 0,0.03 0,0.01 0,0.02 0,0.01 -0.01,0.02 0,0.01 -0.01,0.02 -0.01,0.02 -0.01,0.02 -0.01,0.02 -0.02,0.03 -0.01,0.02 -0.02,0.03 -0.02,0.03 -0.03,0.03 -0.02,0.03 -0.03,0.04 -0.02,0.02 -0.01,0.02 -0.02,0.02 -0.02,0.02 -0.02,0.02 -0.02,0.03 -0.02,0.02 -0.02,0.02 -0.02,0.03 -0.03,0.02 -0.02,0.03 -0.03,0.03 -0.03,0.03 -0.02,0.03 -0.03,0.03 -0.03,0.03 -0.03,0.03 -0.03,0.03 -0.04,0.04 -0.03,0.03 -0.04,0.04 -0.03,0.03 -0.04,0.04 -0.04,0.04 c -6.22,6.28 -7.81,15.69 -7.81,23.31 0,8.67 1.89,17.35 8.01,23.56 0.64,0.61 0.64,0.71 0.64,0.86 0,0.35 -0.18,0.49 -0.48,0.49 -0.5,0 -4.99,-3.38 -7.92,-9.7 -2.55,-5.49 -3.14,-11.02 -3.14,-15.21 0,-3.89 0.54,-9.9 3.28,-15.54 2.98,-6.13 7.28,-9.36 7.78,-9.36 0.3,0 0.48,0.14 0.48,0.5 z"
           inkscape:connector-curvature="0"
           style="fill:#000000;stroke-width:0" /><path
           id="path3109"
           d="m 548.32,424.84 -0.13,-0.01 -0.13,-0.01 -0.12,-0.02 -0.13,-0.03 -0.12,-0.03 -0.11,-0.04 -0.12,-0.04 -0.11,-0.04 -0.1,-0.05 -0.11,-0.06 -0.1,-0.06 -0.09,-0.06 -0.1,-0.07 -0.09,-0.07 -0.08,-0.07 -0.08,-0.08 -0.08,-0.08 -0.07,-0.08 -0.07,-0.09 -0.06,-0.08 -0.06,-0.09 -0.06,-0.1 -0.05,-0.09 -0.04,-0.1 -0.04,-0.09 -0.04,-0.1 -0.03,-0.1 -0.02,-0.1 -0.02,-0.1 -0.02,-0.11 -0.01,-0.1 0,-0.1 c 0,-0.7 0.44,-1.44 1.55,-1.44 1.09,0 2.28,0.85 2.28,2.78 0,2.25 -2.14,4.28 -5.92,4.28 -6.58,0 -8.43,-5.07 -8.43,-7.26 0,-3.89 3.69,-4.64 5.13,-4.94 2.59,-0.5 5.19,-1.05 5.19,-3.78 0,-1.3 -1.14,-5.48 -7.13,-5.48 -0.7,0 -4.53,0 -5.69,2.64 1.91,-0.25 3.14,1.25 3.14,2.64 0,1.14 -0.79,1.75 -1.84,1.75 -1.3,0 -2.78,-1.05 -2.78,-3.3 0,-2.84 2.84,-4.83 7.12,-4.83 8.07,0 10.02,6.03 10.02,8.27 0,1.79 -0.95,3.04 -1.55,3.64 -1.34,1.39 -2.79,1.64 -4.98,2.09 -1.8,0.39 -3.78,0.75 -3.78,2.99 0,1.45 1.19,4.48 5.58,4.48 1.23,0 3.73,-0.34 4.48,-2.28 z"
           inkscape:connector-curvature="0"
           style="fill:#000000;stroke-width:0" /><path
           id="path3111"
           d="m 566.62,418.65 0,0.37 0,0.39 -0.01,0.39 -0.01,0.41 -0.04,0.84 -0.06,0.88 -0.09,0.92 -0.1,0.95 -0.14,0.97 -0.16,1.01 -0.2,1.02 -0.23,1.03 -0.26,1.05 -0.31,1.06 -0.35,1.07 -0.39,1.07 -0.21,0.53 -0.23,0.53 -0.24,0.53 -0.25,0.53 c -2.98,6.12 -7.26,9.36 -7.76,9.36 -0.3,0 -0.5,-0.19 -0.5,-0.49 0,-0.15 0,-0.25 0.94,-1.15 4.89,-4.92 7.73,-12.85 7.73,-23.27 0,-8.51 -1.84,-17.28 -8.03,-23.56 -0.64,-0.59 -0.64,-0.7 -0.64,-0.84 0,-0.3 0.2,-0.5 0.5,-0.5 0.5,0 4.97,3.39 7.92,9.71 2.53,5.47 3.12,11 3.12,15.19 z"
           inkscape:connector-curvature="0"
           style="fill:#000000;stroke-width:0" /></g>    </g>
  </g>
</svg>
