<?xml version="1.0" encoding="UTF-8" standalone="no"?>
<!-- Created with Inkscape (http://www.inkscape.org/) -->

<svg
   xmlns:dc="http://purl.org/dc/elements/1.1/"
   xmlns:cc="http://creativecommons.org/ns#"
   xmlns:rdf="http://www.w3.org/1999/02/22-rdf-syntax-ns#"
   xmlns:svg="http://www.w3.org/2000/svg"
   xmlns="http://www.w3.org/2000/svg"
   xmlns:sodipodi="http://sodipodi.sourceforge.net/DTD/sodipodi-0.dtd"
   xmlns:inkscape="http://www.inkscape.org/namespaces/inkscape"
   width="442.04492"
   height="210.63663"
   id="svg4887"
   version="1.1"
   inkscape:version="0.48.4 r9939"
   sodipodi:docname="stepsGoT.svg">
  <sodipodi:namedview
     id="base"
     pagecolor="#ffffff"
     bordercolor="#666666"
     borderopacity="1.0"
     inkscape:pageopacity="0.0"
     inkscape:pageshadow="2"
     inkscape:zoom="1.4"
     inkscape:cx="295.47892"
     inkscape:cy="136.07181"
     inkscape:document-units="px"
     inkscape:current-layer="layer1"
     showgrid="false"
     inkscape:snap-center="true"
     inkscape:snap-object-midpoints="true"
     inkscape:window-width="1307"
     inkscape:window-height="744"
     inkscape:window-x="59"
     inkscape:window-y="24"
     inkscape:window-maximized="1"
     fit-margin-top="0"
     fit-margin-left="0"
     fit-margin-right="0"
     fit-margin-bottom="0" />
  <defs
     id="defs4889">
    <marker
       style="overflow:visible"
       id="Arrow1Lend"
       refX="0"
       refY="0"
       orient="auto"
       inkscape:stockid="Arrow1Lend">
      <path
         transform="matrix(-0.8,0,0,-0.8,-10,0)"
         style="fill-rule:evenodd;stroke:#000000;stroke-width:1pt"
         d="M 0,0 5,-5 -12.5,0 5,5 0,0 z"
         id="path3816"
         inkscape:connector-curvature="0" />
    </marker>
    <marker
       inkscape:stockid="Arrow1Mend"
       orient="auto"
       refY="0"
       refX="0"
       id="Arrow1Mend"
       style="overflow:visible">
      <path
         inkscape:connector-curvature="0"
         id="path3792"
         d="M 0,0 5,-5 -12.5,0 5,5 0,0 z"
         style="fill-rule:evenodd;stroke:#000000;stroke-width:1pt"
         transform="matrix(-0.4,0,0,-0.4,-4,0)" />
    </marker>
  </defs>
  <metadata
     id="metadata4892">
    <rdf:RDF>
      <cc:Work
         rdf:about="">
        <dc:format>image/svg+xml</dc:format>
        <dc:type
           rdf:resource="http://purl.org/dc/dcmitype/StillImage" />
        <dc:title />
      </cc:Work>
    </rdf:RDF>
  </metadata>
  <g
     id="layer1"
     inkscape:groupmode="layer"
     inkscape:label="Layer 1"
     transform="translate(-114.65739,-562.41331)">
    <path
       inkscape:connector-curvature="0"
       id="path4895"
       d="m 115.15739,762.4484 415.1727,0"
       style="fill:none;stroke:#000000;stroke-width:1px;stroke-linecap:butt;stroke-linejoin:miter;stroke-opacity:1;marker-end:url(#Arrow1Lend)" />
    <path
       inkscape:connector-curvature="0"
       id="path4897"
       d="m 124.24876,772.54993 0,-186.87822"
       style="fill:none;stroke:#000000;stroke-width:1px;stroke-linecap:butt;stroke-linejoin:miter;stroke-opacity:1;marker-end:url(#Arrow1Lend)" />
    <g
       id="g3847"
       transform="matrix(-0.42498577,0.521302,-0.52130189,-0.42498649,874.09903,544.73456)">
      <g
         id="g3825">
        <path
           style="fill:#ffffff;stroke:#000000;stroke-width:1.48680377;stroke-linecap:butt;stroke-linejoin:round;stroke-miterlimit:4;stroke-opacity:1;stroke-dasharray:none;stroke-dashoffset:0"
           d="m 620.14732,510.20536 c -7.88978,0 -14.28125,6.42272 -14.28125,14.3125 0,0.0749 -0.001,0.14413 0,0.21875 l -0.34375,0 0,52.28125 0.375,0 c 0.55722,7.38017 6.72721,13.1875 14.25,13.1875 7.88978,0 14.28125,-6.39147 14.28125,-14.28125 0,-0.6325 -0.0453,-1.23297 -0.125,-1.84375 l 0,-47.71875 c 0.0797,-0.61078 0.125,-1.21125 0.125,-1.84375 0,-7.88978 -6.39147,-14.3125 -14.28125,-14.3125 z"
           id="path6320"
           inkscape:connector-curvature="0" />
        <path
           inkscape:connector-curvature="0"
           id="path6334"
           d="m 674.14732,510.20536 c -7.88978,0 -14.28125,6.42272 -14.28125,14.3125 0,0.0749 -0.001,0.14413 0,0.21875 l -0.34375,0 0,52.28125 0.375,0 c 0.55722,7.38017 6.72721,13.1875 14.25,13.1875 7.88978,0 14.28125,-6.39147 14.28125,-14.28125 0,-0.6325 -0.0453,-1.23297 -0.125,-1.84375 l 0,-47.71875 c 0.0797,-0.61078 0.125,-1.21125 0.125,-1.84375 0,-7.88978 -6.39147,-14.3125 -14.28125,-14.3125 z"
           style="fill:none;stroke:#000000;stroke-width:1.48680377;stroke-linecap:butt;stroke-linejoin:round;stroke-miterlimit:4;stroke-opacity:1;stroke-dasharray:none;stroke-dashoffset:0" />
        <rect
           style="fill:#cccccc;fill-opacity:1;stroke:#000000;stroke-width:1.48680377;stroke-linecap:butt;stroke-linejoin:round;stroke-miterlimit:4;stroke-opacity:1;stroke-dasharray:none;stroke-dashoffset:0"
           id="rect6336"
           width="52.142857"
           height="72.85714"
           x="620"
           y="513.79077" />
        <rect
           style="fill:#ffb380;fill-opacity:1;stroke:#000000;stroke-width:1.48680377;stroke-linecap:butt;stroke-linejoin:round;stroke-miterlimit:4;stroke-opacity:1;stroke-dasharray:none;stroke-dashoffset:0"
           id="rect6346"
           width="12.5"
           height="13.214286"
           x="632.5"
           y="551.64789" />
        <rect
           style="fill:#ffb380;fill-opacity:1;stroke:#000000;stroke-width:1.48680377;stroke-linecap:butt;stroke-linejoin:round;stroke-miterlimit:4;stroke-opacity:1;stroke-dasharray:none;stroke-dashoffset:0"
           id="rect6354"
           width="0.98214287"
           height="0.53571427"
           x="634.10712"
           y="554.41577" />
        <rect
           y="556.41577"
           x="634.10712"
           height="0.53571427"
           width="0.98214287"
           id="rect6360"
           style="fill:#ffb380;fill-opacity:1;stroke:#000000;stroke-width:1.48680377;stroke-linecap:butt;stroke-linejoin:round;stroke-miterlimit:4;stroke-opacity:1;stroke-dasharray:none;stroke-dashoffset:0" />
        <rect
           style="fill:#ffb380;fill-opacity:1;stroke:#000000;stroke-width:1.48680377;stroke-linecap:butt;stroke-linejoin:round;stroke-miterlimit:4;stroke-opacity:1;stroke-dasharray:none;stroke-dashoffset:0"
           id="rect6362"
           width="0.98214287"
           height="0.53571427"
           x="634.10712"
           y="558.41577" />
        <rect
           y="558.41577"
           x="634.10712"
           height="0.53571427"
           width="0.98214287"
           id="rect6364"
           style="fill:#ffb380;fill-opacity:1;stroke:#000000;stroke-width:1.48680377;stroke-linecap:butt;stroke-linejoin:round;stroke-miterlimit:4;stroke-opacity:1;stroke-dasharray:none;stroke-dashoffset:0" />
        <rect
           style="fill:#ffb380;fill-opacity:1;stroke:#000000;stroke-width:1.48680377;stroke-linecap:butt;stroke-linejoin:round;stroke-miterlimit:4;stroke-opacity:1;stroke-dasharray:none;stroke-dashoffset:0"
           id="rect6366"
           width="0.98214287"
           height="0.53571427"
           x="634.10712"
           y="562.41577" />
        <rect
           y="560.41577"
           x="634.10712"
           height="0.53571427"
           width="0.98214287"
           id="rect6368"
           style="fill:#ffb380;fill-opacity:1;stroke:#000000;stroke-width:1.48680377;stroke-linecap:butt;stroke-linejoin:round;stroke-miterlimit:4;stroke-opacity:1;stroke-dasharray:none;stroke-dashoffset:0" />
        <rect
           style="fill:#ffb380;fill-opacity:1;stroke:#000000;stroke-width:1.48680377;stroke-linecap:butt;stroke-linejoin:round;stroke-miterlimit:4;stroke-opacity:1;stroke-dasharray:none;stroke-dashoffset:0"
           id="rect6370"
           width="2.4107141"
           height="0.53571427"
           x="638.10712"
           y="560.41577" />
        <rect
           y="558.41577"
           x="638.10712"
           height="0.53571427"
           width="2.4107141"
           id="rect6372"
           style="fill:#ffb380;fill-opacity:1;stroke:#000000;stroke-width:1.48680377;stroke-linecap:butt;stroke-linejoin:round;stroke-miterlimit:4;stroke-opacity:1;stroke-dasharray:none;stroke-dashoffset:0" />
        <rect
           style="fill:#ffb380;fill-opacity:1;stroke:#000000;stroke-width:1.48680377;stroke-linecap:butt;stroke-linejoin:round;stroke-miterlimit:4;stroke-opacity:1;stroke-dasharray:none;stroke-dashoffset:0"
           id="rect6374"
           width="2.4107141"
           height="0.53571427"
           x="638.10712"
           y="556.41577" />
        <rect
           y="554.41577"
           x="638.10712"
           height="0.53571427"
           width="2.4107141"
           id="rect6376"
           style="fill:#ffb380;fill-opacity:1;stroke:#000000;stroke-width:1.48680377;stroke-linecap:butt;stroke-linejoin:round;stroke-miterlimit:4;stroke-opacity:1;stroke-dasharray:none;stroke-dashoffset:0" />
        <rect
           style="fill:#ffb380;fill-opacity:1;stroke:#000000;stroke-width:1.48680377;stroke-linecap:butt;stroke-linejoin:round;stroke-miterlimit:4;stroke-opacity:1;stroke-dasharray:none;stroke-dashoffset:0"
           id="rect6378"
           width="0.089285575"
           height="0.53571427"
           x="642.10712"
           y="554.41577" />
        <rect
           y="556.41577"
           x="642.10712"
           height="0.53571427"
           width="0.089285575"
           id="rect6380"
           style="fill:#ffb380;fill-opacity:1;stroke:#000000;stroke-width:1.48680377;stroke-linecap:butt;stroke-linejoin:round;stroke-miterlimit:4;stroke-opacity:1;stroke-dasharray:none;stroke-dashoffset:0" />
        <rect
           style="fill:#ffb380;fill-opacity:1;stroke:#000000;stroke-width:1.48680377;stroke-linecap:butt;stroke-linejoin:round;stroke-miterlimit:4;stroke-opacity:1;stroke-dasharray:none;stroke-dashoffset:0"
           id="rect6382"
           width="0.089285575"
           height="0.53571427"
           x="642.10712"
           y="556.41577" />
        <rect
           y="560.41577"
           x="642.10712"
           height="0.53571427"
           width="0.089285575"
           id="rect6384"
           style="fill:#ffb380;fill-opacity:1;stroke:#000000;stroke-width:1.48680377;stroke-linecap:butt;stroke-linejoin:round;stroke-miterlimit:4;stroke-opacity:1;stroke-dasharray:none;stroke-dashoffset:0" />
        <rect
           style="fill:#ffb380;fill-opacity:1;stroke:#000000;stroke-width:1.48680377;stroke-linecap:butt;stroke-linejoin:round;stroke-miterlimit:4;stroke-opacity:1;stroke-dasharray:none;stroke-dashoffset:0"
           id="rect6386"
           width="0.089285575"
           height="0.53571427"
           x="642.10712"
           y="558.41577" />
        <rect
           y="562.41577"
           x="642.10712"
           height="0.53571427"
           width="0.089285575"
           id="rect6388"
           style="fill:#ffb380;fill-opacity:1;stroke:#000000;stroke-width:1.48680377;stroke-linecap:butt;stroke-linejoin:round;stroke-miterlimit:4;stroke-opacity:1;stroke-dasharray:none;stroke-dashoffset:0" />
      </g>
      <path
         inkscape:connector-curvature="0"
         id="path6415"
         d="m 645,533.79075 0,-74.28571"
         style="fill:none;stroke:#000000;stroke-width:5.94721508;stroke-linecap:butt;stroke-linejoin:miter;stroke-miterlimit:4;stroke-opacity:1;stroke-dasharray:none;marker-start:none;marker-end:url(#Arrow1Mend)" />
    </g>
    <path
       sodipodi:type="arc"
       style="fill:#000000;fill-opacity:1;stroke:#000000;stroke-width:5.33500195;stroke-linecap:square;stroke-linejoin:round;stroke-miterlimit:4;stroke-opacity:1;stroke-dasharray:none;stroke-dashoffset:0"
       id="path2985-1"
       sodipodi:cx="177.78685"
       sodipodi:cy="466.47369"
       sodipodi:rx="13.131983"
       sodipodi:ry="13.131983"
       d="m 190.91883,466.47369 c 0,7.2526 -5.87939,13.13199 -13.13198,13.13199 -7.25259,0 -13.13198,-5.87939 -13.13198,-13.13199 0,-7.25259 5.87939,-13.13198 13.13198,-13.13198 7.25259,0 13.13198,5.87939 13.13198,13.13198 z"
       transform="matrix(0.18744136,0,0,0.18744136,131.33026,621.47385)" />
    <path
       sodipodi:type="arc"
       style="fill:#000000;fill-opacity:1;stroke:#000000;stroke-width:5.33500195;stroke-linecap:square;stroke-linejoin:round;stroke-miterlimit:4;stroke-opacity:1;stroke-dasharray:none;stroke-dashoffset:0"
       id="path2985-1-7"
       sodipodi:cx="177.78685"
       sodipodi:cy="466.47369"
       sodipodi:rx="13.131983"
       sodipodi:ry="13.131983"
       d="m 190.91883,466.47369 c 0,7.2526 -5.87939,13.13199 -13.13198,13.13199 -7.25259,0 -13.13198,-5.87939 -13.13198,-13.13199 0,-7.25259 5.87939,-13.13198 13.13198,-13.13198 7.25259,0 13.13198,5.87939 13.13198,13.13198 z"
       transform="matrix(0.18744136,0,0,0.18744136,148.50285,580.0576)" />
    <path
       sodipodi:type="arc"
       style="fill:#000000;fill-opacity:1;stroke:#000000;stroke-width:5.33500195;stroke-linecap:square;stroke-linejoin:round;stroke-miterlimit:4;stroke-opacity:1;stroke-dasharray:none;stroke-dashoffset:0"
       id="path2985-1-6"
       sodipodi:cx="177.78685"
       sodipodi:cy="466.47369"
       sodipodi:rx="13.131983"
       sodipodi:ry="13.131983"
       d="m 190.91883,466.47369 c 0,7.2526 -5.87939,13.13199 -13.13198,13.13199 -7.25259,0 -13.13198,-5.87939 -13.13198,-13.13199 0,-7.25259 5.87939,-13.13198 13.13198,-13.13198 7.25259,0 13.13198,5.87939 13.13198,13.13198 z"
       transform="matrix(0.18744136,0,0,0.18744136,191.93941,543.69211)" />
    <path
       sodipodi:type="arc"
       style="fill:#000000;fill-opacity:1;stroke:#000000;stroke-width:5.33500195;stroke-linecap:square;stroke-linejoin:round;stroke-miterlimit:4;stroke-opacity:1;stroke-dasharray:none;stroke-dashoffset:0"
       id="path2985-1-67"
       sodipodi:cx="177.78685"
       sodipodi:cy="466.47369"
       sodipodi:rx="13.131983"
       sodipodi:ry="13.131983"
       d="m 190.91883,466.47369 c 0,7.2526 -5.87939,13.13199 -13.13198,13.13199 -7.25259,0 -13.13198,-5.87939 -13.13198,-13.13199 0,-7.25259 5.87939,-13.13198 13.13198,-13.13198 7.25259,0 13.13198,5.87939 13.13198,13.13198 z"
       transform="matrix(0.18744136,0,0,0.18744136,243.45719,538.64134)" />
    <path
       sodipodi:type="arc"
       style="fill:#000000;fill-opacity:1;stroke:#000000;stroke-width:5.33500195;stroke-linecap:square;stroke-linejoin:round;stroke-miterlimit:4;stroke-opacity:1;stroke-dasharray:none;stroke-dashoffset:0"
       id="path2985-1-5"
       sodipodi:cx="177.78685"
       sodipodi:cy="466.47369"
       sodipodi:rx="13.131983"
       sodipodi:ry="13.131983"
       d="m 190.91883,466.47369 c 0,7.2526 -5.87939,13.13199 -13.13198,13.13199 -7.25259,0 -13.13198,-5.87939 -13.13198,-13.13199 0,-7.25259 5.87939,-13.13198 13.13198,-13.13198 7.25259,0 13.13198,5.87939 13.13198,13.13198 z"
       transform="matrix(0.18744136,0,0,0.18744136,284.87344,563.89516)" />
    <path
       sodipodi:type="arc"
       style="fill:#000000;fill-opacity:1;stroke:#000000;stroke-width:5.33500195;stroke-linecap:square;stroke-linejoin:round;stroke-miterlimit:4;stroke-opacity:1;stroke-dasharray:none;stroke-dashoffset:0"
       id="path2985-1-70"
       sodipodi:cx="177.78685"
       sodipodi:cy="466.47369"
       sodipodi:rx="13.131983"
       sodipodi:ry="13.131983"
       d="m 190.91883,466.47369 c 0,7.2526 -5.87939,13.13199 -13.13198,13.13199 -7.25259,0 -13.13198,-5.87939 -13.13198,-13.13199 0,-7.25259 5.87939,-13.13198 13.13198,-13.13198 7.25259,0 13.13198,5.87939 13.13198,13.13198 z"
       transform="matrix(0.18744136,0,0,0.18744136,320.22878,593.18958)" />
    <path
       sodipodi:type="arc"
       style="fill:#000000;fill-opacity:1;stroke:#000000;stroke-width:5.33500195;stroke-linecap:square;stroke-linejoin:round;stroke-miterlimit:4;stroke-opacity:1;stroke-dasharray:none;stroke-dashoffset:0"
       id="path2985-1-0"
       sodipodi:cx="177.78685"
       sodipodi:cy="466.47369"
       sodipodi:rx="13.131983"
       sodipodi:ry="13.131983"
       d="m 190.91883,466.47369 c 0,7.2526 -5.87939,13.13199 -13.13198,13.13199 -7.25259,0 -13.13198,-5.87939 -13.13198,-13.13199 0,-7.25259 5.87939,-13.13198 13.13198,-13.13198 7.25259,0 13.13198,5.87939 13.13198,13.13198 z"
       transform="matrix(0.18744136,0,0,0.18744136,360.63488,625.51446)" />
    <path
       sodipodi:type="arc"
       style="fill:#000000;fill-opacity:1;stroke:#000000;stroke-width:5.33500195;stroke-linecap:square;stroke-linejoin:round;stroke-miterlimit:4;stroke-opacity:1;stroke-dasharray:none;stroke-dashoffset:0"
       id="path2985-1-1"
       sodipodi:cx="177.78685"
       sodipodi:cy="466.47369"
       sodipodi:rx="13.131983"
       sodipodi:ry="13.131983"
       d="m 190.91883,466.47369 c 0,7.2526 -5.87939,13.13199 -13.13198,13.13199 -7.25259,0 -13.13198,-5.87939 -13.13198,-13.13199 0,-7.25259 5.87939,-13.13198 13.13198,-13.13198 7.25259,0 13.13198,5.87939 13.13198,13.13198 z"
       transform="matrix(0.18744136,0,0,0.18744136,400.03083,639.6566)" />
    <path
       inkscape:connector-curvature="0"
       id="path5860"
       d="m 164.65487,708.91031 17.17259,-41.41625 43.43656,-36.36549 51.51778,-5.05077 41.41625,25.25382 35.35534,29.29442 40.4061,32.32488 39.39595,14.14214"
       style="fill:none;stroke:#000000;stroke-width:1px;stroke-linecap:butt;stroke-linejoin:miter;stroke-opacity:1" />
    <path
       id="path5908"
       d="m 545.94686,735.9215 4.55141,-6.67718 c 0.72636,-1.05955 1.85255,-2.12577 4.81131,-2.15242 v -1.0329 c -1.29279,0.0333 -2.85213,0.10662 -3.68512,0.10662 -1.3261,0 -2.92543,0 -4.25154,-0.10662 v 1.0329 c 1.32611,0.0267 2.0658,0.75968 2.0658,1.52602 0,0.33319 -0.0733,0.39983 -0.30654,0.75968 l -3.79173,5.61763 -4.2782,-6.40397 c -0.06,-0.10662 -0.22657,-0.37984 -0.22657,-0.49979 0,-0.40649 0.72636,-0.97292 2.15243,-0.99957 v -1.0329 c -1.16618,0.10662 -3.57849,0.10662 -4.85129,0.10662 -1.01957,0 -3.0787,-0.0333 -4.31151,-0.10662 v 1.0329 h 0.63973 c 1.81923,0 2.45229,0.22657 3.0787,1.16617 l 6.11075,9.22278 -5.44437,8.03661 c -0.46647,0.65972 -1.45938,2.18574 -4.8113,2.18574 v 1.0329 c 1.18617,-0.0333 2.58558,-0.10662 3.67845,-0.10662 1.22615,0 3.05871,0 4.2582,0.10662 v -1.0329 c -1.53269,-0.0267 -2.09245,-0.92628 -2.09245,-1.52602 0,-0.29321 0.0933,-0.42649 0.33319,-0.793 l 4.70468,-6.97706 5.25112,7.93665 c 0.0733,0.13328 0.1666,0.26656 0.1666,0.35985 0,0.4065 -0.73302,0.97292 -2.15909,0.99958 v 1.0329 c 1.15951,-0.10662 3.58515,-0.10662 4.84462,-0.10662 1.39275,0 2.92544,0.0466 4.31818,0.10662 v -1.0329 h -0.63307 c -1.71927,0 -2.41897,-0.1666 -3.11202,-1.19283 z"
       inkscape:connector-curvature="0"
       style="font-style:normal;font-variant:normal;font-weight:normal;font-stretch:normal;letter-spacing:normal;word-spacing:normal;text-anchor:start;fill:#000000;stroke:#000000;stroke-width:0;stroke-linecap:butt;stroke-linejoin:miter;stroke-miterlimit:10.43299961;stroke-opacity:1;stroke-dasharray:none;stroke-dashoffset:0" />
    <path
       id="path5910"
       d="m 148.40892,565.5996 0.11329,-0.17992 0.11995,-0.17326 0.12661,-0.1666 0.12661,-0.15327 0.13328,-0.13994 0.13328,-0.13328 0.13994,-0.12661 0.13994,-0.11329 0.13994,-0.10662 0.13994,-0.1 0.14661,-0.0933 0.13994,-0.08 0.1466,-0.08 0.14661,-0.0666 0.1466,-0.0666 0.14661,-0.0533 0.1466,-0.0533 0.13994,-0.0466 0.14661,-0.04 0.13994,-0.0333 0.13994,-0.0333 0.13994,-0.02 0.13328,-0.0267 0.13327,-0.0133 0.13328,-0.02 0.12661,-0.0133 0.12662,-0.007 0.11995,-0.007 0.11328,-0.007 0.11329,0 0.10662,0 0.1,0 v -1.0329 c -1.0329,0.0733 -2.35234,0.10662 -3.2453,0.10662 -1.0329,0 -2.95875,-0.0733 -3.82505,-0.10662 v 1.0329 c 1.36609,0 1.8992,0.63306 1.8992,1.28612 0,0.36651 -0.19992,0.80633 -0.3332,0.99958 l -5.47769,8.90291 -6.01079,-9.79587 c -0.2399,-0.33319 -0.2399,-0.39317 -0.2399,-0.55976 0,-0.69971 0.83298,-0.83298 2.32568,-0.83298 v -1.0329 c -1.19283,0.10662 -3.61847,0.10662 -4.90459,0.10662 -1.39941,0 -2.92544,-0.0333 -4.32485,-0.10662 v 1.0329 h 0.59309 c 2.25904,0 2.53226,0.35984 3.06537,1.22615 l 6.96373,11.36187 v 6.46394 c 0,1.19949 -0.06,1.55934 -2.61223,1.55934 h -0.79967 v 1.0329 c 1.19283,-0.10662 3.54518,-0.10662 4.85129,-0.10662 1.28613,0 3.63847,0 4.83796,0.10662 v -1.0329 h -0.75968 c -2.55892,0 -2.65221,-0.33319 -2.65221,-1.61932 v -6.40396 z"
       inkscape:connector-curvature="0"
       style="font-style:normal;font-variant:normal;font-weight:normal;font-stretch:normal;letter-spacing:normal;word-spacing:normal;text-anchor:start;fill:#000000;stroke:#000000;stroke-width:0;stroke-linecap:butt;stroke-linejoin:miter;stroke-miterlimit:10.43299961;stroke-opacity:1;stroke-dasharray:none;stroke-dashoffset:0" />
    <g
       id="g4780"
       transform="translate(-87.077375,414.69538)">
      <path
         style="font-style:normal;font-variant:normal;font-weight:normal;font-stretch:normal;letter-spacing:normal;word-spacing:normal;text-anchor:start;fill:#000000;stroke:#000000;stroke-width:0;stroke-linecap:butt;stroke-linejoin:miter;stroke-miterlimit:10.43299961;stroke-opacity:1;stroke-dasharray:none;stroke-dashoffset:0"
         inkscape:connector-curvature="0"
         d="m 260.57374,307.39114 -1.90298,-0.46006 c -0.92609,-0.22406 -1.50564,-1.02767 -1.50564,-1.89103 0,-1.0426 0.80361,-1.95077 1.9657,-1.95077 2.48253,0 2.81115,2.44071 2.90077,3.11287 0.012,0.0896 0.012,0.17626 0.17924,0.17626 0.19418,0 0.19418,-0.0747 0.19418,-0.35849 v -2.9874 c 0,-0.25691 0,-0.35849 -0.1643,-0.35849 -0.10456,0 -0.12249,0.0119 -0.22406,0.19419 l -0.51981,0.84543 c -0.44811,-0.43019 -1.05754,-1.03962 -2.38394,-1.03962 -1.65203,0 -2.89778,1.31147 -2.89778,2.88882 0,1.23081 0.78868,2.31822 1.9448,2.72152 0.16431,0.0597 0.92609,0.236 1.96571,0.48993 0.40031,0.10755 0.84842,0.20912 1.26367,0.7588 0.31367,0.38836 0.46304,0.8783 0.46304,1.36823 0,1.06053 -0.74087,2.13002 -1.99259,2.13002 -0.43317,0 -1.56241,-0.0747 -2.35407,-0.80361 -0.86336,-0.80361 -0.90817,-1.75361 -0.92311,-2.29134 -0.0149,-0.14937 -0.13144,-0.14937 -0.17625,-0.14937 -0.1912,0 -0.1912,0.10755 -0.1912,0.37343 v 2.97843 c 0,0.25094 0,0.35252 0.16132,0.35252 0.10456,0 0.11651,-0.0269 0.22107,-0.1912 0,-0.012 0.0448,-0.0598 0.53474,-0.84842 0.46305,0.50487 1.41603,1.03962 2.74244,1.03962 1.73866,0 2.93063,-1.45487 2.93063,-3.09196 0,-1.49071 -0.97986,-2.70957 -2.23158,-3.00831 z"
         id="path4640" />
      <path
         style="font-style:normal;font-variant:normal;font-weight:normal;font-stretch:normal;letter-spacing:normal;word-spacing:normal;text-anchor:start;fill:#000000;stroke:#000000;stroke-width:0;stroke-linecap:butt;stroke-linejoin:miter;stroke-miterlimit:10.43299961;stroke-opacity:1;stroke-dasharray:none;stroke-dashoffset:0"
         inkscape:connector-curvature="0"
         d="m 266.23486,307.21488 h 2.13001 v -0.46305 h -2.13001 v -2.73944 h -0.37343 c -0.0119,1.21886 -0.46006,2.81413 -1.91791,2.87089 v 0.3316 h 1.26666 v 4.10767 c 0,1.82829 1.38018,2.00754 1.91791,2.00754 1.05455,0 1.47577,-1.05456 1.47577,-2.00754 v -0.84842 h -0.37342 v 0.81556 c 0,1.10235 -0.44811,1.66697 -1.00078,1.66697 -0.9948,0 -0.9948,-1.35329 -0.9948,-1.60722 z"
         id="path4642" />
      <path
         style="font-style:normal;font-variant:normal;font-weight:normal;font-stretch:normal;letter-spacing:normal;word-spacing:normal;text-anchor:start;fill:#000000;stroke:#000000;stroke-width:0;stroke-linecap:butt;stroke-linejoin:miter;stroke-miterlimit:10.43299961;stroke-opacity:1;stroke-dasharray:none;stroke-dashoffset:0"
         inkscape:connector-curvature="0"
         d="m 274.38747,312.03654 0.006,0.0568 0.009,0.0538 0.0119,0.0568 0.012,0.0538 0.0149,0.0568 0.0149,0.0538 0.0179,0.0538 0.0209,0.0538 0.0239,0.0538 0.0239,0.0508 0.0269,0.0538 0.0269,0.0478 0.0299,0.0478 0.0329,0.0478 0.0329,0.0478 0.0358,0.0418 0.0388,0.0418 0.0388,0.0418 0.0418,0.0388 0.0418,0.0358 0.0448,0.0358 0.0478,0.0299 0.0478,0.0299 0.0508,0.0269 0.0538,0.0239 0.0538,0.0209 0.0538,0.0179 0.0598,0.0149 0.0598,0.012 0.0598,0.009 0.0627,0.006 0.0657,0.003 c 0.3077,0 1.21886,-0.2121 1.21886,-1.41603 v -0.83049 H 276.395 v 0.83049 c 0,0.86336 -0.37044,0.95298 -0.53773,0.95298 -0.48993,0 -0.54968,-0.66619 -0.54968,-0.74087 v -2.97844 c 0,-0.62735 0,-1.20392 -0.53176,-1.75659 -0.58553,-0.57657 -1.3264,-0.81556 -2.04039,-0.81556 -1.22484,0 -2.24951,0.69607 -2.24951,1.67892 0,0.44512 0.29874,0.70204 0.68411,0.70204 0.41525,0 0.6871,-0.29874 0.6871,-0.6871 0,-0.17626 -0.0747,-0.66619 -0.76178,-0.6871 0.40329,-0.51682 1.12923,-0.68113 1.60722,-0.68113 0.73191,0 1.57734,0.57955 1.57734,1.90596 v 0.54968 0.31368 1.48772 c 0,1.41603 -1.06949,1.91791 -1.74165,1.91791 -0.72893,0 -1.33836,-0.52279 -1.33836,-1.26367 0,-0.81556 0.62437,-2.05533 3.08001,-2.14196 h 0 v -0.31368 c -0.75581,0.0418 -1.79841,0.0896 -2.73646,0.53773 -1.11429,0.50487 -1.48772,1.27861 -1.48772,1.93285 0,1.20392 1.44291,1.57735 2.38096,1.57735 0.98285,0 1.66697,-0.5945 1.95077,-1.29355 z"
         id="path4644" />
      <path
         style="font-style:normal;font-variant:normal;font-weight:normal;font-stretch:normal;letter-spacing:normal;word-spacing:normal;text-anchor:start;fill:#000000;stroke:#000000;stroke-width:0;stroke-linecap:butt;stroke-linejoin:miter;stroke-miterlimit:10.43299961;stroke-opacity:1;stroke-dasharray:none;stroke-dashoffset:0"
         inkscape:connector-curvature="0"
         d="m 279.36746,308.22163 v -1.63112 l -2.06728,0.16132 v 0.46305 c 1.0426,0 1.1621,0.10157 1.1621,0.8305 v 3.99116 c 0,0.66619 -0.16132,0.66619 -1.1621,0.66619 v 0.46305 c 0.58254,-0.0149 1.27861,-0.0478 1.69983,-0.0478 0.59151,0 1.29355,0 1.89103,0.0478 v -0.46305 h -0.31368 c -1.10235,0 -1.13521,-0.16132 -1.13521,-0.69905 v -2.29133 c 0,-1.4698 0.62735,-2.79621 1.76256,-2.79621 0.10157,0 0.12846,0 0.16132,0.0149 -0.0478,0.012 -0.34654,0.19119 -0.34654,0.57657 0,0.42122 0.31368,0.6393 0.64528,0.6393 0.26588,0 0.6393,-0.17626 0.6393,-0.65125 0,-0.47799 -0.46304,-0.90519 -1.09936,-0.90519 -1.0904,0 -1.62514,0.99182 -1.83725,1.63112 z"
         id="path4646" />
      <path
         style="font-style:normal;font-variant:normal;font-weight:normal;font-stretch:normal;letter-spacing:normal;word-spacing:normal;text-anchor:start;fill:#000000;stroke:#000000;stroke-width:0;stroke-linecap:butt;stroke-linejoin:miter;stroke-miterlimit:10.43299961;stroke-opacity:1;stroke-dasharray:none;stroke-dashoffset:0"
         inkscape:connector-curvature="0"
         d="m 285.30641,307.21488 h 2.12703 v -0.46305 h -2.12703 v -2.73944 h -0.37342 c -0.0149,1.21886 -0.46305,2.81413 -1.9209,2.87089 v 0.3316 h 1.26666 v 4.10767 c 0,1.82829 1.38017,2.00754 1.9179,2.00754 1.05456,0 1.47578,-1.05456 1.47578,-2.00754 v -0.84842 h -0.37342 v 0.81556 c 0,1.10235 -0.44811,1.66697 -1.00078,1.66697 -0.99182,0 -0.99182,-1.35329 -0.99182,-1.60722 z"
         id="path4648" />
    </g>
    <g
       id="g4787"
       transform="translate(147.57855,407.98793)">
      <path
         style="font-style:normal;font-variant:normal;font-weight:normal;font-stretch:normal;letter-spacing:normal;word-spacing:normal;text-anchor:start;fill:#000000;stroke:#000000;stroke-width:0;stroke-linecap:butt;stroke-linejoin:miter;stroke-miterlimit:10.43299961;stroke-opacity:1;stroke-dasharray:none;stroke-dashoffset:0"
         inkscape:connector-curvature="0"
         d="m 295.47253,312.00368 0,0.0478 -0.003,0.0478 0,0.0448 -0.003,0.0448 0,0.0388 -0.006,0.0388 -0.006,0.0388 -0.006,0.0329 -0.009,0.0358 -0.0119,0.0299 -0.012,0.0299 -0.0149,0.0269 -0.0179,0.0269 -0.0209,0.0239 -0.0239,0.0239 -0.0269,0.0209 -0.0299,0.0179 -0.0329,0.0179 -0.0179,0.009 -0.0179,0.009 -0.0209,0.006 -0.0209,0.009 -0.0239,0.006 -0.0209,0.006 -0.0269,0.006 -0.0239,0.006 -0.0269,0.006 -0.0269,0.006 -0.0299,0.006 -0.0299,0.003 -0.0329,0.003 -0.0299,0.006 -0.0359,0.003 -0.0358,0.003 -0.0358,0.003 -0.0388,0.003 -0.0388,0.003 -0.0388,0.003 -0.0418,0 -0.0448,0.003 -0.0448,0 -0.0478,0.003 -0.0478,0 -0.0478,0 -0.0508,0 -0.0538,0 H 293.937 v 0.46305 h 8.58878 l 0.62436,-3.8418 h -0.37342 c -0.36745,2.29134 -0.71399,3.37875 -3.2712,3.37875 h -1.98065 c -0.69905,0 -0.73191,-0.10157 -0.73191,-0.5915 V 308.135 h 1.33835 c 1.44889,0 1.61021,0.475 1.61021,1.74165 h 0.37044 v -3.94635 h -0.37044 c 0,1.28458 -0.16132,1.74165 -1.61021,1.74165 h -1.33835 v -3.56994 c 0,-0.48993 0.0329,-0.59449 0.73191,-0.59449 h 1.91791 c 2.27939,0 2.6797,0.81855 2.91869,2.88583 h 0.37342 l -0.42122,-3.34589 H 293.937 v 0.46006 h 0.35849 c 1.14418,0 1.17704,0.16431 1.17704,0.69606 z"
         id="path4650" />
      <path
         style="font-style:normal;font-variant:normal;font-weight:normal;font-stretch:normal;letter-spacing:normal;word-spacing:normal;text-anchor:start;fill:#000000;stroke:#000000;stroke-width:0;stroke-linecap:butt;stroke-linejoin:miter;stroke-miterlimit:10.43299961;stroke-opacity:1;stroke-dasharray:none;stroke-dashoffset:0"
         inkscape:connector-curvature="0"
         d="m 305.22937,308.04538 v 3.99116 c 0,0.66619 -0.16431,0.66619 -1.1621,0.66619 v 0.46305 c 0.5228,-0.0149 1.27861,-0.0478 1.67892,-0.0478 0.38836,0 1.1621,0.0329 1.66697,0.0478 v -0.46305 c -0.9948,0 -1.15911,0 -1.15911,-0.66619 v -2.73944 c 0,-1.55046 1.05455,-2.38096 2.00753,-2.38096 0.93804,0 1.10235,0.80361 1.10235,1.65203 v 3.46837 c 0,0.66619 -0.16431,0.66619 -1.1621,0.66619 v 0.46305 c 0.5228,-0.0149 1.28458,-0.0478 1.6849,-0.0478 0.38836,0 1.15612,0.0329 1.66696,0.0478 v -0.46305 c -0.77373,0 -1.14716,0 -1.16209,-0.44811 v -2.84101 c 0,-1.27861 0,-1.74166 -0.46305,-2.27341 -0.20613,-0.25692 -0.69905,-0.54969 -1.55942,-0.54969 -1.08742,0 -1.78647,0.63931 -2.20172,1.55644 v -1.55644 l -2.10014,0.16132 v 0.46305 c 1.03962,0 1.1621,0.10157 1.1621,0.8305 z"
         id="path4652" />
      <path
         style="font-style:normal;font-variant:normal;font-weight:normal;font-stretch:normal;letter-spacing:normal;word-spacing:normal;text-anchor:start;fill:#000000;stroke:#000000;stroke-width:0;stroke-linecap:butt;stroke-linejoin:miter;stroke-miterlimit:10.43299961;stroke-opacity:1;stroke-dasharray:none;stroke-dashoffset:0"
         inkscape:connector-curvature="0"
         d="m 317.52849,312.35022 v 0.97987 l 2.18379,-0.16431 v -0.46305 c -1.03961,0 -1.15612,-0.10157 -1.15612,-0.83049 v -9.03689 l -2.14496,0.16431 v 0.46305 c 1.04261,0 1.15912,0.10157 1.15912,0.83348 v 3.21146 c -0.43019,-0.53176 -1.06949,-0.91714 -1.87609,-0.91714 l 0.0598,0.32563 c 0.52279,0 1.15015,0.22406 1.6102,0.89025 0.16431,0.25392 0.16431,0.28679 0.16431,0.55266 h 0 v 3.05313 c 0,0.26587 0,0.29874 -0.16431,0.54968 -0.44811,0.71399 -1.12027,1.03961 -1.75957,1.03961 -0.66619,0 -1.20392,-0.38537 -1.55943,-0.94999 -0.38836,-0.61242 -0.43317,-1.46084 -0.43317,-2.07027 0,-0.54968 0.0269,-1.4459 0.46305,-2.11209 0.31069,-0.46305 0.87531,-0.95298 1.67892,-0.95298 l -0.0598,-0.32563 c -1.75659,0 -3.319,1.45487 -3.319,3.37278 0,1.89102 1.46084,3.3668 3.15469,3.3668 0.95298,0 1.62515,-0.50487 1.99857,-0.97987 z"
         id="path4654" />
    </g>
  </g>
</svg>
