<?xml version="1.0" encoding="UTF-8" standalone="no"?>
<!-- Created with Inkscape (http://www.inkscape.org/) -->

<svg
   xmlns:ns0="http://www.iki.fi/pav/software/textext/"
   xmlns:dc="http://purl.org/dc/elements/1.1/"
   xmlns:cc="http://creativecommons.org/ns#"
   xmlns:rdf="http://www.w3.org/1999/02/22-rdf-syntax-ns#"
   xmlns:svg="http://www.w3.org/2000/svg"
   xmlns="http://www.w3.org/2000/svg"
   xmlns:xlink="http://www.w3.org/1999/xlink"
   xmlns:sodipodi="http://sodipodi.sourceforge.net/DTD/sodipodi-0.dtd"
   xmlns:inkscape="http://www.inkscape.org/namespaces/inkscape"
   id="svg2"
   version="1.1"
   inkscape:version="0.91 r13725"
   xml:space="preserve"
   width="2180.0837"
   height="1687.8239"
   viewBox="0 0 2180.0837 1687.8239"
   sodipodi:docname="vehicleDescriptionDriveTrain.svg"><sodipodi:namedview
     pagecolor="#ffffff"
     bordercolor="#666666"
     borderopacity="1"
     objecttolerance="10"
     gridtolerance="10"
     guidetolerance="10"
     inkscape:pageopacity="0"
     inkscape:pageshadow="2"
     inkscape:window-width="1920"
     inkscape:window-height="1016"
     id="namedview4"
     showgrid="false"
     inkscape:zoom="0.41432106"
     inkscape:cx="1013.931"
     inkscape:cy="923.73243"
     inkscape:window-x="0"
     inkscape:window-y="27"
     inkscape:window-maximized="1"
     inkscape:current-layer="g12"
     fit-margin-top="0"
     fit-margin-left="0"
     fit-margin-right="0"
     fit-margin-bottom="0" /><metadata
     id="metadata8"><rdf:RDF><cc:Work
         rdf:about=""><dc:format>image/svg+xml</dc:format><dc:type
           rdf:resource="http://purl.org/dc/dcmitype/StillImage" /><dc:title /></cc:Work></rdf:RDF></metadata><defs
     id="defs6" /><g
     id="g10"
     inkscape:groupmode="layer"
     inkscape:label="vehicleDescriptionDriveTrain"
     transform="matrix(1.25,0,0,-1.25,80.387564,1982.3513)"><g
       id="g12"><g
         id="g4650"
         ns0:preamble=""
         ns0:text="1) Motor\\\\\n2) Motor Gear\\\\\n3) Differential Gears\\\\\n4) Drive Gears\\\\\n5) Drive Wheels"
         transform="matrix(5.0128516,0,0,-5.0128516,-83.43867,2179.1662)"><defs
           id="defs4652"><g
             id="g4654"><symbol
               id="textext-95996020-0"
               overflow="visible"
               style="overflow:visible"><path
                 id="path4657"
                 d=""
                 style="stroke:none"
                 inkscape:connector-curvature="0" /></symbol><symbol
               id="textext-95996020-1"
               overflow="visible"
               style="overflow:visible"><path
                 id="path4660"
                 d="m 2.9375,-6.375 c 0,-0.25 0,-0.265625 -0.234375,-0.265625 C 2.078125,-6 1.203125,-6 0.890625,-6 l 0,0.3125 c 0.203125,0 0.78125,0 1.296875,-0.265625 l 0,5.171875 c 0,0.359375 -0.03125,0.46875 -0.921875,0.46875 l -0.3125,0 0,0.3125 c 0.34375,-0.03125 1.203125,-0.03125 1.609375,-0.03125 0.390625,0 1.265625,0 1.609375,0.03125 l 0,-0.3125 -0.3125,0 c -0.90625,0 -0.921875,-0.109375 -0.921875,-0.46875 z m 0,0"
                 style="stroke:none"
                 inkscape:connector-curvature="0" /></symbol><symbol
               id="textext-95996020-2"
               overflow="visible"
               style="overflow:visible"><path
                 id="path4663"
                 d="m 2.875,-2.5 c 0,-0.765625 -0.109375,-1.96875 -0.65625,-3.109375 -0.59375,-1.21875 -1.453125,-1.875 -1.546875,-1.875 -0.0625,0 -0.109375,0.046875 -0.109375,0.109375 0,0.03125 0,0.046875 0.1875,0.234375 0.984375,0.984375 1.546875,2.5625 1.546875,4.640625 0,1.71875 -0.359375,3.46875 -1.59375,4.71875 C 0.5625,2.34375 0.5625,2.359375 0.5625,2.390625 0.5625,2.453125 0.609375,2.5 0.671875,2.5 0.765625,2.5 1.671875,1.8125 2.25,0.546875 2.765625,-0.546875 2.875,-1.65625 2.875,-2.5 Z m 0,0"
                 style="stroke:none"
                 inkscape:connector-curvature="0" /></symbol><symbol
               id="textext-95996020-3"
               overflow="visible"
               style="overflow:visible"><path
                 id="path4666"
                 d="M 2.40625,-6.59375 C 2.3125,-6.8125 2.28125,-6.8125 2.046875,-6.8125 l -1.671875,0 0,0.3125 0.234375,0 c 0.765625,0 0.78125,0.109375 0.78125,0.46875 l 0,4.984375 c 0,0.265625 0,0.734375 -1.015625,0.734375 L 0.375,0 c 0.34375,-0.015625 0.828125,-0.03125 1.15625,-0.03125 0.328125,0 0.828125,0.015625 1.171875,0.03125 l 0,-0.3125 c -1.03125,0 -1.03125,-0.46875 -1.03125,-0.734375 l 0,-5.375 0.015625,0 2.40625,6.203125 C 4.140625,-0.09375 4.1875,0 4.28125,0 4.390625,0 4.421875,-0.078125 4.46875,-0.1875 L 6.921875,-6.5 l 0,5.71875 c 0,0.359375 -0.015625,0.46875 -0.78125,0.46875 l -0.234375,0 0,0.3125 c 0.359375,-0.03125 1.046875,-0.03125 1.4375,-0.03125 0.375,0 1.046875,0 1.421875,0.03125 l 0,-0.3125 -0.25,0 c -0.765625,0 -0.78125,-0.109375 -0.78125,-0.46875 l 0,-5.25 C 7.734375,-6.390625 7.75,-6.5 8.515625,-6.5 l 0.25,0 0,-0.3125 -1.6875,0 C 6.8125,-6.8125 6.8125,-6.796875 6.75,-6.625 L 4.5625,-1 Z m 0,0"
                 style="stroke:none"
                 inkscape:connector-curvature="0" /></symbol><symbol
               id="textext-95996020-4"
               overflow="visible"
               style="overflow:visible"><path
                 id="path4669"
                 d="M 4.6875,-2.140625 C 4.6875,-3.40625 3.703125,-4.46875 2.5,-4.46875 c -1.25,0 -2.21875,1.09375 -2.21875,2.328125 0,1.296875 1.03125,2.25 2.203125,2.25 1.203125,0 2.203125,-0.984375 2.203125,-2.25 z m -2.1875,2 c -0.4375,0 -0.875,-0.203125 -1.140625,-0.671875 -0.25,-0.4375 -0.25,-1.046875 -0.25,-1.40625 0,-0.390625 0,-0.921875 0.234375,-1.359375 C 1.609375,-4.03125 2.078125,-4.25 2.484375,-4.25 c 0.4375,0 0.859375,0.21875 1.125,0.65625 0.265625,0.421875 0.265625,1 0.265625,1.375 0,0.359375 0,0.90625 -0.21875,1.34375 C 3.421875,-0.421875 2.984375,-0.140625 2.5,-0.140625 Z m 0,0"
                 style="stroke:none"
                 inkscape:connector-curvature="0" /></symbol><symbol
               id="textext-95996020-5"
               overflow="visible"
               style="overflow:visible"><path
                 id="path4672"
                 d="m 1.71875,-3.984375 1.4375,0 0,-0.3125 -1.4375,0 0,-1.828125 -0.25,0 c 0,0.8125 -0.296875,1.875 -1.28125,1.921875 l 0,0.21875 0.84375,0 0,2.75 c 0,1.21875 0.9375,1.34375 1.296875,1.34375 0.703125,0 0.984375,-0.703125 0.984375,-1.34375 l 0,-0.5625 -0.25,0 0,0.546875 c 0,0.734375 -0.296875,1.109375 -0.671875,1.109375 -0.671875,0 -0.671875,-0.90625 -0.671875,-1.078125 z m 0,0"
                 style="stroke:none"
                 inkscape:connector-curvature="0" /></symbol><symbol
               id="textext-95996020-6"
               overflow="visible"
               style="overflow:visible"><path
                 id="path4675"
                 d="m 1.671875,-3.3125 0,-1.09375 -1.390625,0.109375 0,0.3125 c 0.703125,0 0.78125,0.0625 0.78125,0.5625 l 0,2.671875 c 0,0.4375 -0.109375,0.4375 -0.78125,0.4375 l 0,0.3125 c 0.390625,-0.015625 0.859375,-0.03125 1.140625,-0.03125 0.390625,0 0.859375,0 1.265625,0.03125 l 0,-0.3125 -0.21875,0 c -0.734375,0 -0.75,-0.109375 -0.75,-0.46875 l 0,-1.53125 c 0,-0.984375 0.421875,-1.875 1.171875,-1.875 0.0625,0 0.09375,0 0.109375,0.015625 -0.03125,0 -0.234375,0.125 -0.234375,0.390625 0,0.265625 0.21875,0.421875 0.4375,0.421875 0.171875,0 0.421875,-0.125 0.421875,-0.4375 0,-0.3125 -0.3125,-0.609375 -0.734375,-0.609375 -0.734375,0 -1.09375,0.671875 -1.21875,1.09375 z m 0,0"
                 style="stroke:none"
                 inkscape:connector-curvature="0" /></symbol><symbol
               id="textext-95996020-7"
               overflow="visible"
               style="overflow:visible"><path
                 id="path4678"
                 d="m 1.265625,-0.765625 1.0625,-1.03125 c 1.546875,-1.375 2.140625,-1.90625 2.140625,-2.90625 0,-1.140625 -0.890625,-1.9375 -2.109375,-1.9375 -1.125,0 -1.859375,0.921875 -1.859375,1.8125 0,0.546875 0.5,0.546875 0.53125,0.546875 0.171875,0 0.515625,-0.109375 0.515625,-0.53125 0,-0.25 -0.1875,-0.515625 -0.53125,-0.515625 -0.078125,0 -0.09375,0 -0.125,0.015625 0.21875,-0.65625 0.765625,-1.015625 1.34375,-1.015625 0.90625,0 1.328125,0.8125 1.328125,1.625 C 3.5625,-3.90625 3.078125,-3.125 2.515625,-2.5 l -1.90625,2.125 C 0.5,-0.265625 0.5,-0.234375 0.5,0 l 3.703125,0 0.265625,-1.734375 -0.234375,0 C 4.171875,-1.4375 4.109375,-1 4,-0.84375 3.9375,-0.765625 3.28125,-0.765625 3.0625,-0.765625 Z m 0,0"
                 style="stroke:none"
                 inkscape:connector-curvature="0" /></symbol><symbol
               id="textext-95996020-8"
               overflow="visible"
               style="overflow:visible"><path
                 id="path4681"
                 d="m 5.90625,-0.625 c 0.140625,0.21875 0.53125,0.609375 0.640625,0.609375 0.09375,0 0.09375,-0.078125 0.09375,-0.21875 l 0,-1.734375 c 0,-0.390625 0.03125,-0.4375 0.6875,-0.4375 l 0,-0.3125 c -0.375,0 -0.921875,0.03125 -1.21875,0.03125 -0.390625,0 -1.25,0 -1.609375,-0.03125 l 0,0.3125 0.328125,0 C 5.71875,-2.40625 5.75,-2.296875 5.75,-1.9375 l 0,0.640625 c 0,1.125 -1.265625,1.203125 -1.546875,1.203125 -0.640625,0 -2.625,-0.34375 -2.625,-3.3125 0,-2.984375 1.96875,-3.3125 2.5625,-3.3125 1.078125,0 1.984375,0.890625 2.171875,2.359375 0.03125,0.140625 0.03125,0.171875 0.171875,0.171875 0.15625,0 0.15625,-0.03125 0.15625,-0.234375 l 0,-2.359375 c 0,-0.171875 0,-0.25 -0.109375,-0.25 -0.046875,0 -0.078125,0 -0.15625,0.125 l -0.5,0.734375 C 5.546875,-6.484375 5.015625,-7.03125 4.03125,-7.03125 c -1.859375,0 -3.46875,1.578125 -3.46875,3.625 0,2.046875 1.59375,3.625 3.484375,3.625 0.734375,0 1.53125,-0.265625 1.859375,-0.84375 z m 0,0"
                 style="stroke:none"
                 inkscape:connector-curvature="0" /></symbol><symbol
               id="textext-95996020-9"
               overflow="visible"
               style="overflow:visible"><path
                 id="path4684"
                 d="M 1.109375,-2.515625 C 1.171875,-4 2.015625,-4.25 2.359375,-4.25 c 1.015625,0 1.125,1.34375 1.125,1.734375 z m 0,0.21875 2.78125,0 c 0.21875,0 0.25,0 0.25,-0.21875 0,-0.984375 -0.546875,-1.953125 -1.78125,-1.953125 -1.15625,0 -2.078125,1.03125 -2.078125,2.28125 0,1.328125 1.046875,2.296875 2.1875,2.296875 C 3.6875,0.109375 4.140625,-1 4.140625,-1.1875 4.140625,-1.28125 4.0625,-1.3125 4,-1.3125 c -0.078125,0 -0.109375,0.0625 -0.125,0.140625 -0.34375,1.03125 -1.25,1.03125 -1.34375,1.03125 -0.5,0 -0.890625,-0.296875 -1.125,-0.671875 -0.296875,-0.46875 -0.296875,-1.125 -0.296875,-1.484375 z m 0,0"
                 style="stroke:none"
                 inkscape:connector-curvature="0" /></symbol><symbol
               id="textext-95996020-10"
               overflow="visible"
               style="overflow:visible"><path
                 id="path4687"
                 d="m 3.3125,-0.75 c 0.046875,0.390625 0.3125,0.8125 0.78125,0.8125 0.21875,0 0.828125,-0.140625 0.828125,-0.953125 l 0,-0.5625 -0.25,0 0,0.5625 c 0,0.578125 -0.25,0.640625 -0.359375,0.640625 -0.328125,0 -0.375,-0.453125 -0.375,-0.5 l 0,-1.984375 c 0,-0.421875 0,-0.8125 -0.359375,-1.1875 C 3.1875,-4.3125 2.6875,-4.46875 2.21875,-4.46875 c -0.828125,0 -1.515625,0.46875 -1.515625,1.125 0,0.296875 0.203125,0.46875 0.46875,0.46875 0.28125,0 0.453125,-0.203125 0.453125,-0.453125 0,-0.125 -0.046875,-0.453125 -0.515625,-0.453125 C 1.390625,-4.140625 1.875,-4.25 2.1875,-4.25 c 0.5,0 1.0625,0.390625 1.0625,1.28125 l 0,0.359375 c -0.515625,0.03125 -1.203125,0.0625 -1.828125,0.359375 -0.75,0.34375 -1,0.859375 -1,1.296875 0,0.8125 0.96875,1.0625 1.59375,1.0625 0.65625,0 1.109375,-0.40625 1.296875,-0.859375 z M 3.25,-2.390625 l 0,1 c 0,0.9375 -0.71875,1.28125 -1.171875,1.28125 -0.484375,0 -0.890625,-0.34375 -0.890625,-0.84375 0,-0.546875 0.421875,-1.375 2.0625,-1.4375 z m 0,0"
                 style="stroke:none"
                 inkscape:connector-curvature="0" /></symbol><symbol
               id="textext-95996020-11"
               overflow="visible"
               style="overflow:visible"><path
                 id="path4690"
                 d="m 2.890625,-3.515625 c 0.8125,-0.265625 1.390625,-0.953125 1.390625,-1.75 0,-0.8125 -0.875,-1.375 -1.828125,-1.375 -1,0 -1.765625,0.59375 -1.765625,1.359375 0,0.328125 0.21875,0.515625 0.515625,0.515625 0.296875,0 0.5,-0.21875 0.5,-0.515625 0,-0.484375 -0.46875,-0.484375 -0.609375,-0.484375 0.296875,-0.5 0.953125,-0.625 1.3125,-0.625 0.421875,0 0.96875,0.21875 0.96875,1.109375 0,0.125 -0.03125,0.703125 -0.28125,1.140625 C 2.796875,-3.65625 2.453125,-3.625 2.203125,-3.625 2.125,-3.609375 1.890625,-3.59375 1.8125,-3.59375 c -0.078125,0.015625 -0.140625,0.03125 -0.140625,0.125 0,0.109375 0.0625,0.109375 0.234375,0.109375 l 0.4375,0 c 0.8125,0 1.1875,0.671875 1.1875,1.65625 0,1.359375 -0.6875,1.640625 -1.125,1.640625 -0.4375,0 -1.1875,-0.171875 -1.53125,-0.75 0.34375,0.046875 0.65625,-0.171875 0.65625,-0.546875 0,-0.359375 -0.265625,-0.5625 -0.546875,-0.5625 -0.25,0 -0.5625,0.140625 -0.5625,0.578125 0,0.90625 0.921875,1.5625 2.015625,1.5625 1.21875,0 2.125,-0.90625 2.125,-1.921875 0,-0.8125 -0.640625,-1.59375 -1.671875,-1.8125 z m 0,0"
                 style="stroke:none"
                 inkscape:connector-curvature="0" /></symbol><symbol
               id="textext-95996020-12"
               overflow="visible"
               style="overflow:visible"><path
                 id="path4693"
                 d="m 0.34375,-6.8125 0,0.3125 0.25,0 c 0.765625,0 0.78125,0.109375 0.78125,0.46875 l 0,5.25 c 0,0.359375 -0.015625,0.46875 -0.78125,0.46875 l -0.25,0 0,0.3125 L 4,0 C 5.671875,0 7.046875,-1.46875 7.046875,-3.34375 7.046875,-5.25 5.703125,-6.8125 4,-6.8125 Z m 2.375,6.5 C 2.25,-0.3125 2.234375,-0.375 2.234375,-0.703125 l 0,-5.390625 C 2.234375,-6.4375 2.25,-6.5 2.71875,-6.5 l 1,0 c 0.625,0 1.3125,0.21875 1.8125,0.921875 0.4375,0.59375 0.515625,1.453125 0.515625,2.234375 0,1.09375 -0.1875,1.703125 -0.546875,2.1875 -0.203125,0.265625 -0.765625,0.84375 -1.765625,0.84375 z m 0,0"
                 style="stroke:none"
                 inkscape:connector-curvature="0" /></symbol><symbol
               id="textext-95996020-13"
               overflow="visible"
               style="overflow:visible"><path
                 id="path4696"
                 d="M 1.765625,-4.40625 0.375,-4.296875 l 0,0.3125 c 0.640625,0 0.734375,0.0625 0.734375,0.546875 l 0,2.6875 c 0,0.4375 -0.109375,0.4375 -0.78125,0.4375 l 0,0.3125 C 0.640625,-0.015625 1.1875,-0.03125 1.421875,-0.03125 1.78125,-0.03125 2.125,-0.015625 2.46875,0 l 0,-0.3125 c -0.671875,0 -0.703125,-0.046875 -0.703125,-0.4375 z m 0.03125,-1.734375 c 0,-0.3125 -0.234375,-0.53125 -0.515625,-0.53125 -0.3125,0 -0.53125,0.265625 -0.53125,0.53125 0,0.265625 0.21875,0.53125 0.53125,0.53125 0.28125,0 0.515625,-0.21875 0.515625,-0.53125 z m 0,0"
                 style="stroke:none"
                 inkscape:connector-curvature="0" /></symbol><symbol
               id="textext-95996020-14"
               overflow="visible"
               style="overflow:visible"><path
                 id="path4699"
                 d="m 4.46875,-3.984375 1.140625,0 0,-0.3125 -1.171875,0 0,-1.15625 c 0,-0.890625 0.484375,-1.359375 0.921875,-1.359375 0.03125,0 0.1875,0 0.328125,0.078125 -0.109375,0.03125 -0.296875,0.171875 -0.296875,0.421875 0,0.21875 0.15625,0.421875 0.4375,0.421875 0.28125,0 0.4375,-0.203125 0.4375,-0.4375 0,-0.359375 -0.359375,-0.703125 -0.90625,-0.703125 -0.59375,0 -1.03125,0.375 -1.078125,0.421875 -0.296875,-0.375 -0.859375,-0.421875 -1.125,-0.421875 -0.9375,0 -2.09375,0.515625 -2.09375,1.59375 l 0,1.140625 -0.796875,0 0,0.3125 0.796875,0 0,3.234375 c 0,0.4375 -0.109375,0.4375 -0.78125,0.4375 l 0,0.3125 C 0.609375,-0.015625 1.140625,-0.03125 1.390625,-0.03125 1.640625,-0.03125 2.125,-0.015625 2.5,0 l 0,-0.3125 c -0.671875,0 -0.78125,0 -0.78125,-0.4375 l 0,-3.234375 2.09375,0 0,3.234375 c 0,0.4375 -0.109375,0.4375 -0.78125,0.4375 l 0,0.3125 c 0.390625,-0.015625 0.859375,-0.03125 1.140625,-0.03125 0.390625,0 0.859375,0 1.265625,0.03125 l 0,-0.3125 -0.21875,0 c -0.734375,0 -0.75,-0.109375 -0.75,-0.46875 z m -2.78125,-0.3125 0,-1.125 c 0,-0.96875 0.8125,-1.390625 1.46875,-1.390625 0.484375,0 0.765625,0.1875 0.765625,0.1875 l 0,0.015625 C 3.765625,-6.59375 3.5625,-6.453125 3.5625,-6.1875 c 0,0.0625 0,0.3125 0.28125,0.40625 C 3.8125,-5.65625 3.8125,-5.5625 3.8125,-5.4375 l 0,1.140625 z m 0,0"
                 style="stroke:none"
                 inkscape:connector-curvature="0" /></symbol><symbol
               id="textext-95996020-15"
               overflow="visible"
               style="overflow:visible"><path
                 id="path4702"
                 d="m 1.09375,-3.421875 0,2.671875 c 0,0.4375 -0.109375,0.4375 -0.78125,0.4375 l 0,0.3125 c 0.359375,-0.015625 0.859375,-0.03125 1.140625,-0.03125 0.25,0 0.765625,0.015625 1.109375,0.03125 l 0,-0.3125 c -0.671875,0 -0.78125,0 -0.78125,-0.4375 l 0,-1.84375 C 1.78125,-3.625 2.5,-4.1875 3.125,-4.1875 c 0.640625,0 0.75,0.53125 0.75,1.109375 l 0,2.328125 c 0,0.4375 -0.109375,0.4375 -0.78125,0.4375 l 0,0.3125 c 0.34375,-0.015625 0.859375,-0.03125 1.125,-0.03125 0.25,0 0.78125,0.015625 1.109375,0.03125 l 0,-0.3125 c -0.515625,0 -0.765625,0 -0.765625,-0.296875 l 0,-1.90625 c 0,-0.859375 0,-1.15625 -0.3125,-1.515625 -0.140625,-0.171875 -0.46875,-0.375 -1.046875,-0.375 C 2.46875,-4.40625 2,-3.984375 1.71875,-3.359375 l 0,-1.046875 -1.40625,0.109375 0,0.3125 c 0.703125,0 0.78125,0.0625 0.78125,0.5625 z m 0,0"
                 style="stroke:none"
                 inkscape:connector-curvature="0" /></symbol><symbol
               id="textext-95996020-16"
               overflow="visible"
               style="overflow:visible"><path
                 id="path4705"
                 d="m 1.765625,-6.921875 -1.4375,0.109375 0,0.3125 c 0.703125,0 0.78125,0.0625 0.78125,0.5625 l 0,5.1875 c 0,0.4375 -0.109375,0.4375 -0.78125,0.4375 l 0,0.3125 C 0.65625,-0.015625 1.1875,-0.03125 1.4375,-0.03125 c 0.25,0 0.734375,0.015625 1.109375,0.03125 l 0,-0.3125 c -0.671875,0 -0.78125,0 -0.78125,-0.4375 z m 0,0"
                 style="stroke:none"
                 inkscape:connector-curvature="0" /></symbol><symbol
               id="textext-95996020-17"
               overflow="visible"
               style="overflow:visible"><path
                 id="path4708"
                 d="m 2.078125,-1.9375 c 0.21875,0.046875 1.03125,0.203125 1.03125,0.921875 0,0.5 -0.34375,0.90625 -1.125,0.90625 -0.84375,0 -1.203125,-0.5625 -1.390625,-1.421875 C 0.5625,-1.65625 0.5625,-1.6875 0.453125,-1.6875 c -0.125,0 -0.125,0.0625 -0.125,0.234375 l 0,1.328125 c 0,0.171875 0,0.234375 0.109375,0.234375 0.046875,0 0.0625,-0.015625 0.25,-0.203125 0.015625,-0.015625 0.015625,-0.03125 0.203125,-0.21875 0.4375,0.40625 0.890625,0.421875 1.09375,0.421875 1.140625,0 1.609375,-0.671875 1.609375,-1.390625 0,-0.515625 -0.296875,-0.828125 -0.421875,-0.9375 C 2.84375,-2.546875 2.453125,-2.625 2.03125,-2.703125 1.46875,-2.8125 0.8125,-2.9375 0.8125,-3.515625 c 0,-0.359375 0.25,-0.765625 1.109375,-0.765625 1.09375,0 1.15625,0.90625 1.171875,1.203125 0,0.09375 0.09375,0.09375 0.109375,0.09375 0.140625,0 0.140625,-0.046875 0.140625,-0.234375 l 0,-1.015625 c 0,-0.15625 0,-0.234375 -0.109375,-0.234375 -0.046875,0 -0.078125,0 -0.203125,0.125 -0.03125,0.03125 -0.125,0.125 -0.171875,0.15625 -0.375,-0.28125 -0.78125,-0.28125 -0.9375,-0.28125 -1.21875,0 -1.59375,0.671875 -1.59375,1.234375 0,0.34375 0.15625,0.625 0.421875,0.84375 0.328125,0.25 0.609375,0.3125 1.328125,0.453125 z m 0,0"
                 style="stroke:none"
                 inkscape:connector-curvature="0" /></symbol><symbol
               id="textext-95996020-18"
               overflow="visible"
               style="overflow:visible"><path
                 id="path4711"
                 d="m 2.9375,-1.640625 0,0.859375 c 0,0.359375 -0.03125,0.46875 -0.765625,0.46875 l -0.203125,0 0,0.3125 C 2.375,-0.03125 2.890625,-0.03125 3.3125,-0.03125 c 0.421875,0 0.9375,0 1.359375,0.03125 l 0,-0.3125 -0.21875,0 c -0.734375,0 -0.75,-0.109375 -0.75,-0.46875 l 0,-0.859375 0.984375,0 0,-0.3125 -0.984375,0 0,-4.53125 c 0,-0.203125 0,-0.265625 -0.171875,-0.265625 -0.078125,0 -0.109375,0 -0.1875,0.125 l -3.0625,4.671875 0,0.3125 z m 0.046875,-0.3125 -2.421875,0 2.421875,-3.71875 z m 0,0"
                 style="stroke:none"
                 inkscape:connector-curvature="0" /></symbol><symbol
               id="textext-95996020-19"
               overflow="visible"
               style="overflow:visible"><path
                 id="path4714"
                 d="M 4.140625,-3.3125 C 4.234375,-3.546875 4.40625,-3.984375 5.0625,-3.984375 l 0,-0.3125 c -0.234375,0.015625 -0.515625,0.03125 -0.75,0.03125 -0.234375,0 -0.6875,-0.015625 -0.859375,-0.03125 l 0,0.3125 c 0.359375,0 0.46875,0.234375 0.46875,0.421875 0,0.09375 -0.015625,0.140625 -0.046875,0.25 L 2.84375,-0.78125 1.734375,-3.5625 c -0.0625,-0.125 -0.0625,-0.140625 -0.0625,-0.171875 0,-0.25 0.390625,-0.25 0.578125,-0.25 l 0,-0.3125 c -0.3125,0.015625 -0.859375,0.03125 -1.09375,0.03125 -0.265625,0 -0.671875,-0.015625 -0.96875,-0.03125 l 0,0.3125 c 0.625,0 0.671875,0.0625 0.796875,0.359375 l 1.4375,3.546875 C 2.484375,0.0625 2.5,0.109375 2.625,0.109375 c 0.140625,0 0.171875,-0.09375 0.21875,-0.1875 z m 0,0"
                 style="stroke:none"
                 inkscape:connector-curvature="0" /></symbol><symbol
               id="textext-95996020-20"
               overflow="visible"
               style="overflow:visible"><path
                 id="path4717"
                 d="m 4.46875,-2 c 0,-1.1875 -0.8125,-2.1875 -1.890625,-2.1875 -0.46875,0 -0.90625,0.15625 -1.265625,0.515625 l 0,-1.953125 c 0.203125,0.0625 0.53125,0.125 0.84375,0.125 1.234375,0 1.9375,-0.90625 1.9375,-1.03125 0,-0.0625 -0.03125,-0.109375 -0.109375,-0.109375 0,0 -0.03125,0 -0.078125,0.03125 C 3.703125,-6.515625 3.21875,-6.3125 2.546875,-6.3125 2.15625,-6.3125 1.6875,-6.390625 1.21875,-6.59375 1.140625,-6.625 1.125,-6.625 1.109375,-6.625 1,-6.625 1,-6.546875 1,-6.390625 L 1,-3.4375 c 0,0.171875 0,0.25 0.140625,0.25 0.078125,0 0.09375,-0.015625 0.140625,-0.078125 C 1.390625,-3.421875 1.75,-3.96875 2.5625,-3.96875 c 0.515625,0 0.765625,0.453125 0.84375,0.640625 0.15625,0.375 0.1875,0.75 0.1875,1.25 0,0.359375 0,0.953125 -0.25,1.375 C 3.109375,-0.3125 2.734375,-0.0625 2.28125,-0.0625 c -0.71875,0 -1.296875,-0.53125 -1.46875,-1.109375 0.03125,0 0.0625,0.015625 0.171875,0.015625 0.328125,0 0.5,-0.25 0.5,-0.484375 0,-0.25 -0.171875,-0.5 -0.5,-0.5 C 0.84375,-2.140625 0.5,-2.0625 0.5,-1.609375 0.5,-0.75 1.1875,0.21875 2.296875,0.21875 3.453125,0.21875 4.46875,-0.734375 4.46875,-2 Z m 0,0"
                 style="stroke:none"
                 inkscape:connector-curvature="0" /></symbol><symbol
               id="textext-95996020-21"
               overflow="visible"
               style="overflow:visible"><path
                 id="path4720"
                 d="M 9.0625,-5.828125 C 9.234375,-6.40625 9.671875,-6.5 10.0625,-6.5 l 0,-0.3125 c -0.296875,0.03125 -0.609375,0.03125 -0.90625,0.03125 -0.296875,0 -0.9375,-0.015625 -1.1875,-0.03125 l 0,0.3125 c 0.671875,0.015625 0.859375,0.34375 0.859375,0.53125 0,0.0625 -0.03125,0.140625 -0.046875,0.203125 l -1.5,4.59375 -1.59375,-4.875 C 5.6875,-6.09375 5.65625,-6.15625 5.65625,-6.203125 5.65625,-6.5 6.234375,-6.5 6.5,-6.5 l 0,-0.3125 c -0.359375,0.03125 -1.03125,0.03125 -1.421875,0.03125 -0.375,0 -0.796875,-0.015625 -1.203125,-0.03125 l 0,0.3125 c 0.5625,0 0.765625,0 0.890625,0.359375 L 4.984375,-5.4375 3.59375,-1.171875 2,-6.078125 C 1.984375,-6.09375 1.96875,-6.171875 1.96875,-6.203125 1.96875,-6.5 2.546875,-6.5 2.8125,-6.5 l 0,-0.3125 c -0.359375,0.03125 -1.03125,0.03125 -1.421875,0.03125 -0.375,0 -0.796875,-0.015625 -1.21875,-0.03125 l 0,0.3125 c 0.75,0 0.796875,0.046875 0.921875,0.421875 L 3.078125,0.03125 c 0.03125,0.09375 0.0625,0.1875 0.1875,0.1875 0.140625,0 0.15625,-0.0625 0.203125,-0.203125 l 1.640625,-5.0625 1.65625,5.078125 c 0.03125,0.09375 0.0625,0.1875 0.1875,0.1875 0.140625,0 0.171875,-0.0625 0.203125,-0.203125 z m 0,0"
                 style="stroke:none"
                 inkscape:connector-curvature="0" /></symbol><symbol
               id="textext-95996020-22"
               overflow="visible"
               style="overflow:visible"><path
                 id="path4723"
                 d="m 1.09375,-0.75 c 0,0.4375 -0.109375,0.4375 -0.78125,0.4375 l 0,0.3125 c 0.359375,-0.015625 0.859375,-0.03125 1.140625,-0.03125 0.25,0 0.765625,0.015625 1.109375,0.03125 l 0,-0.3125 c -0.671875,0 -0.78125,0 -0.78125,-0.4375 l 0,-1.84375 C 1.78125,-3.625 2.5,-4.1875 3.125,-4.1875 c 0.640625,0 0.75,0.53125 0.75,1.109375 l 0,2.328125 c 0,0.4375 -0.109375,0.4375 -0.78125,0.4375 l 0,0.3125 c 0.34375,-0.015625 0.859375,-0.03125 1.125,-0.03125 0.25,0 0.78125,0.015625 1.109375,0.03125 l 0,-0.3125 c -0.515625,0 -0.765625,0 -0.765625,-0.296875 l 0,-1.90625 c 0,-0.859375 0,-1.15625 -0.3125,-1.515625 -0.140625,-0.171875 -0.46875,-0.375 -1.046875,-0.375 -0.84375,0 -1.28125,0.59375 -1.453125,0.984375 l 0,-3.5 -1.4375,0.109375 0,0.3125 c 0.703125,0 0.78125,0.0625 0.78125,0.5625 z m 0,0"
                 style="stroke:none"
                 inkscape:connector-curvature="0" /></symbol></g></defs><g
           id="textext-95996020-23"><g
             id="g4726"
             style="fill:#000000;fill-opacity:1"><use
               id="use4728"
               y="134.765"
               x="223.43201"
               xlink:href="#textext-95996020-1"
               width="100%"
               height="100%" /><use
               id="use4730"
               y="134.765"
               x="228.4133"
               xlink:href="#textext-95996020-2"
               width="100%"
               height="100%" /></g><g
             id="g4732"
             style="fill:#000000;fill-opacity:1"><use
               id="use4734"
               y="134.765"
               x="235.6053"
               xlink:href="#textext-95996020-3"
               width="100%"
               height="100%" /><use
               id="use4736"
               y="134.765"
               x="244.73802"
               xlink:href="#textext-95996020-4"
               width="100%"
               height="100%" /><use
               id="use4738"
               y="134.765"
               x="249.71931"
               xlink:href="#textext-95996020-5"
               width="100%"
               height="100%" /><use
               id="use4740"
               y="134.765"
               x="253.59377"
               xlink:href="#textext-95996020-4"
               width="100%"
               height="100%" /><use
               id="use4742"
               y="134.765"
               x="258.57507"
               xlink:href="#textext-95996020-6"
               width="100%"
               height="100%" /></g><g
             id="g4744"
             style="fill:#000000;fill-opacity:1"><use
               id="use4746"
               y="146.72"
               x="223.43201"
               xlink:href="#textext-95996020-7"
               width="100%"
               height="100%" /><use
               id="use4748"
               y="146.72"
               x="228.4133"
               xlink:href="#textext-95996020-2"
               width="100%"
               height="100%" /></g><g
             id="g4750"
             style="fill:#000000;fill-opacity:1"><use
               id="use4752"
               y="146.72"
               x="235.6053"
               xlink:href="#textext-95996020-3"
               width="100%"
               height="100%" /><use
               id="use4754"
               y="146.72"
               x="244.73802"
               xlink:href="#textext-95996020-4"
               width="100%"
               height="100%" /><use
               id="use4756"
               y="146.72"
               x="249.71931"
               xlink:href="#textext-95996020-5"
               width="100%"
               height="100%" /><use
               id="use4758"
               y="146.72"
               x="253.59377"
               xlink:href="#textext-95996020-4"
               width="100%"
               height="100%" /><use
               id="use4760"
               y="146.72"
               x="258.57507"
               xlink:href="#textext-95996020-6"
               width="100%"
               height="100%" /></g><g
             id="g4762"
             style="fill:#000000;fill-opacity:1"><use
               id="use4764"
               y="146.72"
               x="265.80493"
               xlink:href="#textext-95996020-8"
               width="100%"
               height="100%" /><use
               id="use4766"
               y="146.72"
               x="273.62259"
               xlink:href="#textext-95996020-9"
               width="100%"
               height="100%" /><use
               id="use4768"
               y="146.72"
               x="278.04996"
               xlink:href="#textext-95996020-10"
               width="100%"
               height="100%" /><use
               id="use4770"
               y="146.72"
               x="283.03125"
               xlink:href="#textext-95996020-6"
               width="100%"
               height="100%" /></g><g
             id="g4772"
             style="fill:#000000;fill-opacity:1"><use
               id="use4774"
               y="158.675"
               x="223.43201"
               xlink:href="#textext-95996020-11"
               width="100%"
               height="100%" /><use
               id="use4776"
               y="158.675"
               x="228.4133"
               xlink:href="#textext-95996020-2"
               width="100%"
               height="100%" /></g><g
             id="g4778"
             style="fill:#000000;fill-opacity:1"><use
               id="use4780"
               y="158.675"
               x="235.6053"
               xlink:href="#textext-95996020-12"
               width="100%"
               height="100%" /><use
               id="use4782"
               y="158.675"
               x="243.21573"
               xlink:href="#textext-95996020-13"
               width="100%"
               height="100%" /><use
               id="use4784"
               y="158.675"
               x="245.98334"
               xlink:href="#textext-95996020-14"
               width="100%"
               height="100%" /><use
               id="use4786"
               y="158.675"
               x="251.79453"
               xlink:href="#textext-95996020-9"
               width="100%"
               height="100%" /><use
               id="use4788"
               y="158.675"
               x="256.22189"
               xlink:href="#textext-95996020-6"
               width="100%"
               height="100%" /><use
               id="use4790"
               y="158.675"
               x="260.12427"
               xlink:href="#textext-95996020-9"
               width="100%"
               height="100%" /><use
               id="use4792"
               y="158.675"
               x="264.55164"
               xlink:href="#textext-95996020-15"
               width="100%"
               height="100%" /></g><g
             id="g4794"
             style="fill:#000000;fill-opacity:1"><use
               id="use4796"
               y="158.675"
               x="269.81787"
               xlink:href="#textext-95996020-5"
               width="100%"
               height="100%" /><use
               id="use4798"
               y="158.675"
               x="273.69232"
               xlink:href="#textext-95996020-13"
               width="100%"
               height="100%" /><use
               id="use4800"
               y="158.675"
               x="276.45993"
               xlink:href="#textext-95996020-10"
               width="100%"
               height="100%" /><use
               id="use4802"
               y="158.675"
               x="281.44122"
               xlink:href="#textext-95996020-16"
               width="100%"
               height="100%" /></g><g
             id="g4804"
             style="fill:#000000;fill-opacity:1"><use
               id="use4806"
               y="158.675"
               x="287.5264"
               xlink:href="#textext-95996020-8"
               width="100%"
               height="100%" /><use
               id="use4808"
               y="158.675"
               x="295.34402"
               xlink:href="#textext-95996020-9"
               width="100%"
               height="100%" /><use
               id="use4810"
               y="158.675"
               x="299.77142"
               xlink:href="#textext-95996020-10"
               width="100%"
               height="100%" /><use
               id="use4812"
               y="158.675"
               x="304.75272"
               xlink:href="#textext-95996020-6"
               width="100%"
               height="100%" /><use
               id="use4814"
               y="158.675"
               x="308.65506"
               xlink:href="#textext-95996020-17"
               width="100%"
               height="100%" /></g><g
             id="g4816"
             style="fill:#000000;fill-opacity:1"><use
               id="use4818"
               y="170.63"
               x="223.43201"
               xlink:href="#textext-95996020-18"
               width="100%"
               height="100%" /><use
               id="use4820"
               y="170.63"
               x="228.4133"
               xlink:href="#textext-95996020-2"
               width="100%"
               height="100%" /></g><g
             id="g4822"
             style="fill:#000000;fill-opacity:1"><use
               id="use4824"
               y="170.63"
               x="235.6053"
               xlink:href="#textext-95996020-12"
               width="100%"
               height="100%" /><use
               id="use4826"
               y="170.63"
               x="243.21573"
               xlink:href="#textext-95996020-6"
               width="100%"
               height="100%" /><use
               id="use4828"
               y="170.63"
               x="247.11809"
               xlink:href="#textext-95996020-13"
               width="100%"
               height="100%" /><use
               id="use4830"
               y="170.63"
               x="249.8857"
               xlink:href="#textext-95996020-19"
               width="100%"
               height="100%" /></g><g
             id="g4832"
             style="fill:#000000;fill-opacity:1"><use
               id="use4834"
               y="170.63"
               x="254.86501"
               xlink:href="#textext-95996020-9"
               width="100%"
               height="100%" /></g><g
             id="g4836"
             style="fill:#000000;fill-opacity:1"><use
               id="use4838"
               y="170.63"
               x="262.61987"
               xlink:href="#textext-95996020-8"
               width="100%"
               height="100%" /><use
               id="use4840"
               y="170.63"
               x="270.43753"
               xlink:href="#textext-95996020-9"
               width="100%"
               height="100%" /><use
               id="use4842"
               y="170.63"
               x="274.86493"
               xlink:href="#textext-95996020-10"
               width="100%"
               height="100%" /><use
               id="use4844"
               y="170.63"
               x="279.84622"
               xlink:href="#textext-95996020-6"
               width="100%"
               height="100%" /><use
               id="use4846"
               y="170.63"
               x="283.74857"
               xlink:href="#textext-95996020-17"
               width="100%"
               height="100%" /></g><g
             id="g4848"
             style="fill:#000000;fill-opacity:1"><use
               id="use4850"
               y="182.586"
               x="223.43201"
               xlink:href="#textext-95996020-20"
               width="100%"
               height="100%" /><use
               id="use4852"
               y="182.586"
               x="228.4133"
               xlink:href="#textext-95996020-2"
               width="100%"
               height="100%" /></g><g
             id="g4854"
             style="fill:#000000;fill-opacity:1"><use
               id="use4856"
               y="182.586"
               x="235.6053"
               xlink:href="#textext-95996020-12"
               width="100%"
               height="100%" /><use
               id="use4858"
               y="182.586"
               x="243.21573"
               xlink:href="#textext-95996020-6"
               width="100%"
               height="100%" /><use
               id="use4860"
               y="182.586"
               x="247.11809"
               xlink:href="#textext-95996020-13"
               width="100%"
               height="100%" /><use
               id="use4862"
               y="182.586"
               x="249.8857"
               xlink:href="#textext-95996020-19"
               width="100%"
               height="100%" /></g><g
             id="g4864"
             style="fill:#000000;fill-opacity:1"><use
               id="use4866"
               y="182.586"
               x="254.86501"
               xlink:href="#textext-95996020-9"
               width="100%"
               height="100%" /></g><g
             id="g4868"
             style="fill:#000000;fill-opacity:1"><use
               id="use4870"
               y="182.586"
               x="262.61987"
               xlink:href="#textext-95996020-21"
               width="100%"
               height="100%" /><use
               id="use4872"
               y="182.586"
               x="272.85944"
               xlink:href="#textext-95996020-22"
               width="100%"
               height="100%" /><use
               id="use4874"
               y="182.586"
               x="278.39465"
               xlink:href="#textext-95996020-9"
               width="100%"
               height="100%" /><use
               id="use4876"
               y="182.586"
               x="282.82205"
               xlink:href="#textext-95996020-9"
               width="100%"
               height="100%" /><use
               id="use4878"
               y="182.586"
               x="287.24942"
               xlink:href="#textext-95996020-16"
               width="100%"
               height="100%" /><use
               id="use4880"
               y="182.586"
               x="290.01703"
               xlink:href="#textext-95996020-17"
               width="100%"
               height="100%" /></g></g></g><path
         d="m 368.57516,308.1958 c 42.543,0 77.031,34.492 77.031,77.039 0,42.543 -34.488,77.036 -77.031,77.036 -42.547,0 -77.035,-34.493 -77.035,-77.036 0,-42.547 34.488,-77.039 77.035,-77.039 z"
         style="fill:#ffffff;fill-opacity:1;stroke:#000000;stroke-width:0.64350998;stroke-linecap:square;stroke-linejoin:round;stroke-miterlimit:1;stroke-dasharray:none;stroke-opacity:1"
         id="path64"
         inkscape:connector-curvature="0" /><path
         d="m 947.76783,1253.0696 7.422,7.211 c 10.907,9.656 15.125,13.433 15.125,20.433 0,8 -6.297,13.606 -14.843,13.606 -7.926,0 -13.114,-6.465 -13.114,-12.688 0,-3.922 3.516,-3.922 3.711,-3.922 1.207,0 3.656,0.84 3.656,3.711 0,1.825 -1.253,3.653 -3.71,3.653 -0.551,0 -0.704,0 -0.903,-0.075 1.602,4.559 5.387,7.145 9.445,7.145 6.372,0 9.391,-5.695 9.391,-11.43 0,-5.593 -3.516,-11.132 -7.351,-15.472 l -13.434,-14.985 c -0.805,-0.758 -0.805,-0.898 -0.805,-2.586 l 25.989,0 1.968,12.188 -1.758,0 c -0.351,-2.11 -0.828,-5.188 -1.531,-6.242 -0.508,-0.551 -5.117,-0.551 -6.648,-0.551 l -12.61,0 0,0 z"
         style="fill:#000000;fill-opacity:1;fill-rule:nonzero;stroke:none"
         id="path128"
         inkscape:connector-curvature="0" /><path
         d="m 482.33347,370.95208 0,-6.085 c 0,-2.532 -0.125,-3.29 -5.312,-3.29 l -1.477,0 0,-2.179 c 2.883,0.222 6.52,0.222 9.473,0.222 2.941,0 6.652,0 9.504,-0.222 l 0,2.179 -1.465,0 c -5.184,0 -5.324,0.758 -5.324,3.29 l 0,6.085 7.011,0 0,2.165 -7.011,0 0,31.875 c 0,1.406 0,1.816 -1.11,1.816 -0.648,0 -0.847,0 -1.41,-0.859 l -21.5,-32.832 1.981,0 17.074,26.113 0,-26.113 -19.055,0 0,-2.165 18.621,0 z"
         style="fill:#000000;fill-opacity:1;fill-rule:nonzero;stroke:none"
         id="path132"
         inkscape:connector-curvature="0" /><path
         d="m 962.5392,1541.5828 -0.477,0 c 0.012,0.293 0.023,0.578 0.023,0.871 0,23.809 -21.914,43.121 -48.949,43.121 -27.035,0 -48.949,-19.312 -48.949,-43.121 0,-0.293 0.019,-0.578 0.023,-0.871 l -0.023,0 0,-147.801 98.352,0 0,147.801 z"
         style="fill:#ffffff;fill-opacity:1;fill-rule:nonzero;stroke:#000000;stroke-width:0.612472;stroke-linecap:butt;stroke-linejoin:miter;stroke-miterlimit:4;stroke-dasharray:none;stroke-opacity:1"
         id="path16"
         inkscape:connector-curvature="0" /><path
         d="m 913.3672,1345.8988 c -26.657,0 -48.266,21.61 -48.266,48.262 0,26.656 21.609,48.266 48.266,48.266 26.652,0 48.261,-21.61 48.261,-48.266 0,-26.652 -21.609,-48.262 -48.261,-48.262 z"
         style="fill:#ffffff;fill-opacity:1;fill-rule:nonzero;stroke:#000000;stroke-width:0.64350998;stroke-linecap:butt;stroke-linejoin:miter;stroke-miterlimit:4;stroke-dasharray:none;stroke-opacity:1"
         id="path18"
         inkscape:connector-curvature="0" /><path
         inkscape:connector-curvature="0"
         id="path22"
         style="fill:none;stroke:#000000;stroke-width:0.28334984;stroke-linecap:butt;stroke-linejoin:miter;stroke-miterlimit:4;stroke-dasharray:none;stroke-opacity:1"
         d="m 913.3672,1262.2895 c -3.899,0 -7.055,3.1487 -7.055,7.032 0,3.8823 3.156,7.031 7.055,7.031 3.894,0 7.05,-3.1487 7.05,-7.031 0,-3.8833 -3.156,-7.032 -7.05,-7.032 z" /><path
         d="m 913.1052,1262.7738 c -8.926,0 -6.785,0.247 -6.785,72.258 0,72.016 -1.309,72.805 7.609,72.805 8.926,0 8.301,-0.789 8.301,-72.805 0,-72.011 -0.207,-72.258 -9.125,-72.258 z"
         style="fill:#ffffff;stroke:#000000;stroke-width:0.52111799;stroke-linecap:square;stroke-linejoin:round;stroke-miterlimit:1;stroke-dasharray:none;stroke-opacity:1;fill-opacity:1"
         id="path24"
         inkscape:connector-curvature="0" /><path
         d="m 913.9562,1251.6568 c -9.609,0 -17.398,7.789 -17.398,17.399 0,9.609 7.789,17.398 17.398,17.398 9.61,0 17.399,-7.789 17.399,-17.398 0,-9.61 -7.789,-17.399 -17.399,-17.399 z"
         style="fill:#ffffff;fill-opacity:1;fill-rule:nonzero;stroke:#000000;stroke-width:0.64350998;stroke-linecap:square;stroke-linejoin:round;stroke-miterlimit:1;stroke-dasharray:none;stroke-opacity:1"
         id="path26"
         inkscape:connector-curvature="0" /><path
         d="m 807.7032,1261.8408 c -4.129,0 -7.481,3.347 -7.481,7.48 0,4.129 3.352,7.481 7.481,7.481 4.128,0 7.48,-3.352 7.48,-7.481 0,-4.133 -3.352,-7.48 -7.48,-7.48 z"
         style="fill:none;stroke:#000000;stroke-width:0.568452;stroke-linecap:square;stroke-linejoin:round;stroke-miterlimit:1;stroke-dasharray:none;stroke-opacity:1"
         id="path28"
         inkscape:connector-curvature="0" /><path
         inkscape:connector-curvature="0"
         id="path32"
         style="fill:#ffffff;fill-opacity:1;stroke:#000000;stroke-width:0.85689819;stroke-linecap:butt;stroke-linejoin:miter;stroke-miterlimit:4;stroke-dasharray:none;stroke-opacity:1"
         d="m 807.7032,1219.2197 c -49.063,0 -88.84,22.4294 -88.84,50.1014 0,27.672 39.777,50.1015 88.84,50.1015 49.062,0 88.839,-22.4295 88.839,-50.1015 0,-27.672 -39.777,-50.1014 -88.839,-50.1014 z" /><path
         inkscape:connector-curvature="0"
         id="path36"
         style="fill:#ffffff;fill-opacity:1;fill-rule:nonzero;stroke:#000000;stroke-width:0.69518328;stroke-linecap:square;stroke-linejoin:round;stroke-miterlimit:1;stroke-dasharray:none;stroke-opacity:1"
         d="m 806.87435,1018.9148 c -8.92157,0 -6.78469,0.438 -6.78469,128.594 0,128.156 -1.30836,129.562 7.61744,129.562 8.91733,0 8.29277,-1.406 8.29277,-129.562 0,-128.156 -0.20311,-128.594 -9.12552,-128.594 z" /><path
         d="m 1246.7222,378.1688 c -3.902,0 -7.066,3.164 -7.066,7.066 0,3.903 3.164,7.063 7.066,7.063 3.902,0 7.063,-3.16 7.063,-7.063 0,-3.902 -3.161,-7.066 -7.063,-7.066 z"
         style="fill:none;stroke:#000000;stroke-width:0.34786901;stroke-linecap:square;stroke-linejoin:round;stroke-miterlimit:1;stroke-dasharray:none;stroke-opacity:1"
         id="path38"
         inkscape:connector-curvature="0" /><path
         d="m 1246.7222,802.1568 c -28.473,0 -51.555,23.078 -51.555,51.555 0,28.469 23.082,51.551 51.555,51.551 28.469,0 51.551,-23.082 51.551,-51.551 0,-28.477 -23.082,-51.555 -51.551,-51.555 z"
         style="fill:#ffffff;fill-opacity:1;stroke:#000000;stroke-width:0.64350998;stroke-linecap:square;stroke-linejoin:round;stroke-miterlimit:1;stroke-dasharray:none;stroke-opacity:1"
         id="path40"
         inkscape:connector-curvature="0" /><path
         d="m 1534.7572,309.9418 c -42.015,0 -76.078,34.059 -76.078,76.079 0,42.019 34.063,76.082 76.078,76.082 42.02,0 76.086,-34.063 76.086,-76.082 0,-42.02 -34.066,-76.079 -76.086,-76.079 z"
         style="fill:none;stroke:#000000;stroke-width:0.64350998;stroke-linecap:square;stroke-linejoin:round;stroke-miterlimit:1;stroke-dasharray:none;stroke-opacity:1"
         id="path42"
         inkscape:connector-curvature="0" /><path
         d="m 1451.5852,536.1138 c -42.015,0 -76.082,34.063 -76.082,76.082 0,42.016 34.067,76.082 76.082,76.082 42.02,0 76.082,-34.066 76.082,-76.082 0,-42.019 -34.062,-76.082 -76.082,-76.082 z"
         style="fill:none;stroke:#000000;stroke-width:0.64350998;stroke-linecap:square;stroke-linejoin:round;stroke-miterlimit:1;stroke-dasharray:none;stroke-opacity:1"
         id="path44"
         inkscape:connector-curvature="0" /><path
         d="m 1441.2922,748.1998 c -42.019,0 -76.086,34.067 -76.086,76.086 0,42.016 34.067,76.078 76.086,76.078 42.016,0 76.079,-34.062 76.079,-76.078 0,-42.019 -34.063,-76.086 -76.079,-76.086 z"
         style="fill:none;stroke:#000000;stroke-width:0.64350998;stroke-linecap:square;stroke-linejoin:round;stroke-miterlimit:1;stroke-dasharray:none;stroke-opacity:1"
         id="path46"
         inkscape:connector-curvature="0" /><path
         d="m 1449.0112,980.1768 c -42.019,0 -76.078,34.058 -76.078,76.078 0,42.019 34.059,76.082 76.078,76.082 42.02,0 76.082,-34.063 76.082,-76.082 0,-42.02 -34.062,-76.078 -76.082,-76.078 z"
         style="fill:none;stroke:#000000;stroke-width:0.64350998;stroke-linecap:square;stroke-linejoin:round;stroke-miterlimit:1;stroke-dasharray:none;stroke-opacity:1"
         id="path48"
         inkscape:connector-curvature="0" /><path
         d="m 1534.7572,1167.4068 c -42.015,0 -76.078,34.067 -76.078,76.082 0,42.02 34.063,76.086 76.078,76.086 42.02,0 76.086,-34.066 76.086,-76.086 0,-42.015 -34.066,-76.082 -76.086,-76.082 z"
         style="fill:none;stroke:#000000;stroke-width:0.64350998;stroke-linecap:square;stroke-linejoin:round;stroke-miterlimit:1;stroke-dasharray:none;stroke-opacity:1"
         id="path50"
         inkscape:connector-curvature="0" /><path
         d="m 1534.7572,1234.2588 c -5.097,0 -9.23,4.133 -9.23,9.23 0,5.102 4.133,9.231 9.23,9.231 5.098,0 9.231,-4.129 9.231,-9.231 0,-5.097 -4.133,-9.23 -9.231,-9.23 z"
         style="fill:none;stroke:#000000;stroke-width:0.64350998;stroke-linecap:square;stroke-linejoin:round;stroke-miterlimit:1;stroke-dasharray:none;stroke-opacity:1"
         id="path52"
         inkscape:connector-curvature="0" /><path
         d="m 1449.0112,1047.0238 c -5.097,0 -9.23,4.133 -9.23,9.231 0,5.101 4.133,9.234 9.23,9.234 5.102,0 9.235,-4.133 9.235,-9.234 0,-5.098 -4.133,-9.231 -9.235,-9.231 z"
         style="fill:none;stroke:#000000;stroke-width:0.64350998;stroke-linecap:square;stroke-linejoin:round;stroke-miterlimit:1;stroke-dasharray:none;stroke-opacity:1"
         id="path54"
         inkscape:connector-curvature="0" /><path
         d="m 1441.2922,815.0518 c -5.101,0 -9.23,4.133 -9.23,9.234 0,5.094 4.129,9.231 9.23,9.231 5.094,0 9.231,-4.137 9.231,-9.231 0,-5.101 -4.137,-9.234 -9.231,-9.234 z"
         style="fill:none;stroke:#000000;stroke-width:0.64350998;stroke-linecap:square;stroke-linejoin:round;stroke-miterlimit:1;stroke-dasharray:none;stroke-opacity:1"
         id="path56"
         inkscape:connector-curvature="0" /><path
         d="m 1451.5852,602.9658 c -5.097,0 -9.23,4.133 -9.23,9.23 0,5.098 4.133,9.231 9.23,9.231 5.098,0 9.231,-4.133 9.231,-9.231 0,-5.097 -4.133,-9.23 -9.231,-9.23 z"
         style="fill:none;stroke:#000000;stroke-width:0.64350998;stroke-linecap:square;stroke-linejoin:round;stroke-miterlimit:1;stroke-dasharray:none;stroke-opacity:1"
         id="path58"
         inkscape:connector-curvature="0" /><rect
         style="opacity:1;fill:none;fill-opacity:1;fill-rule:nonzero;stroke:#000000;stroke-width:0.82959998;stroke-linecap:butt;stroke-linejoin:miter;stroke-miterlimit:1;stroke-dasharray:none;stroke-dashoffset:0;stroke-opacity:1"
         id="rect4246"
         width="244.38011"
         height="13.395409"
         x="123.52296"
         y="-390.57425"
         transform="scale(1,-1)" /><path
         d="m 372.1872,311.2428 c 116.469,0.36 80.93,178.563 69.125,344.461 -12.668,178 -6.766,248.383 -71.469,248.383 -64.711,0 -57.504,-56.895 -71.472,-222.609 -14.758,-175.063 -52.829,-370.633 73.816,-370.235 z"
         style="fill:none;stroke:#000000;stroke-width:0.64350998;stroke-linecap:square;stroke-linejoin:round;stroke-miterlimit:1;stroke-dasharray:none;stroke-opacity:1"
         id="path66"
         inkscape:connector-curvature="0" /><path
         inkscape:connector-curvature="0"
         id="path72"
         style="fill:none;stroke:#000000;stroke-width:0.64365685;stroke-linecap:square;stroke-linejoin:round;stroke-miterlimit:1;stroke-dasharray:none;stroke-opacity:1"
         d="m 583.0232,854.32465 c 0.055,8.92199 -0.332,6.78153 -110.191,7.48848 -109.864,0.70695 -111.055,2.02724 -111.114,-6.89475 -0.054,-8.9211 1.149,-8.3042 111.012,-9.01114 109.859,-0.70695 110.238,-0.50369 110.293,8.41741 z" /><path
         d="m 106.9102,309.9418 c -42.02,0 -76.082,34.059 -76.082,76.079 0,42.019 34.062,76.082 76.082,76.082 42.015,0 76.082,-34.063 76.082,-76.082 0,-42.02 -34.067,-76.079 -76.082,-76.079 z"
         style="fill:#ffffff;fill-opacity:1;fill-rule:nonzero;stroke:#000000;stroke-width:0.64350998;stroke-linecap:square;stroke-linejoin:round;stroke-miterlimit:1;stroke-dasharray:none;stroke-opacity:1"
         id="path74"
         inkscape:connector-curvature="0" /><path
         d="m 23.7382,536.1138 c -42.02,0 -76.082,34.063 -76.082,76.078 0,42.02 34.062,76.086 76.082,76.086 42.015,0 76.082,-34.066 76.082,-76.086 0,-42.015 -34.067,-76.078 -76.082,-76.078 z"
         style="fill:none;stroke:#000000;stroke-width:0.64350998;stroke-linecap:square;stroke-linejoin:round;stroke-miterlimit:1;stroke-dasharray:none;stroke-opacity:1"
         id="path76"
         inkscape:connector-curvature="0" /><path
         d="m 13.4412,748.1998 c -42.02,0 -76.082,34.067 -76.082,76.086 0,42.016 34.062,76.078 76.082,76.078 42.019,0 76.082,-34.062 76.082,-76.078 0,-42.019 -34.063,-76.086 -76.082,-76.086 z"
         style="fill:none;stroke:#000000;stroke-width:0.64350998;stroke-linecap:square;stroke-linejoin:round;stroke-miterlimit:1;stroke-dasharray:none;stroke-opacity:1"
         id="path78"
         inkscape:connector-curvature="0" /><path
         d="m 21.1602,980.1728 c -42.016,0 -76.079,34.062 -76.079,76.082 0,42.019 34.063,76.082 76.079,76.082 42.019,0 76.086,-34.063 76.086,-76.082 0,-42.02 -34.067,-76.082 -76.086,-76.082 z"
         style="fill:none;stroke:#000000;stroke-width:0.64350998;stroke-linecap:square;stroke-linejoin:round;stroke-miterlimit:1;stroke-dasharray:none;stroke-opacity:1"
         id="path80"
         inkscape:connector-curvature="0" /><path
         d="m 106.9102,1167.4068 c -42.02,0 -76.082,34.063 -76.082,76.082 0,42.02 34.062,76.086 76.082,76.086 42.015,0 76.082,-34.066 76.082,-76.086 0,-42.019 -34.067,-76.082 -76.082,-76.082 z"
         style="fill:none;stroke:#000000;stroke-width:0.64350998;stroke-linecap:square;stroke-linejoin:round;stroke-miterlimit:1;stroke-dasharray:none;stroke-opacity:1"
         id="path82"
         inkscape:connector-curvature="0" /><path
         d="m 120.2732,311.2428 c -42.813,-3.055 -175.524,-18.293 -183.945,513.172 -7.032,443.801 104.765,495.391 174.574,494.434 117.73,-1.618 103.492,-214.02 99.59,-496.774 -3.946,-285.566 4.656,-504.066 -90.219,-510.832 z"
         style="fill:none;stroke:#000000;stroke-width:0.64350998;stroke-linecap:square;stroke-linejoin:round;stroke-miterlimit:1;stroke-dasharray:none;stroke-opacity:1"
         id="path84"
         inkscape:connector-curvature="0" /><path
         d="m 106.9102,1234.2588 c -5.098,0 -9.231,4.133 -9.231,9.23 0,5.102 4.133,9.231 9.231,9.231 5.097,0 9.23,-4.129 9.23,-9.231 0,-5.097 -4.133,-9.23 -9.23,-9.23 z"
         style="fill:none;stroke:#000000;stroke-width:0.64350998;stroke-linecap:square;stroke-linejoin:round;stroke-miterlimit:1;stroke-dasharray:none;stroke-opacity:1"
         id="path86"
         inkscape:connector-curvature="0" /><path
         d="m 21.1602,1047.0238 c -5.094,0 -9.231,4.133 -9.231,9.231 0,5.098 4.137,9.234 9.231,9.234 5.101,0 9.234,-4.136 9.234,-9.234 0,-5.098 -4.133,-9.231 -9.234,-9.231 z"
         style="fill:none;stroke:#000000;stroke-width:0.64350998;stroke-linecap:square;stroke-linejoin:round;stroke-miterlimit:1;stroke-dasharray:none;stroke-opacity:1"
         id="path88"
         inkscape:connector-curvature="0" /><path
         d="m 13.4412,815.0518 c -5.102,0 -9.231,4.133 -9.231,9.234 0,5.094 4.129,9.231 9.231,9.231 5.098,0 9.23,-4.137 9.23,-9.231 0,-5.101 -4.132,-9.234 -9.23,-9.234 z"
         style="fill:none;stroke:#000000;stroke-width:0.64350998;stroke-linecap:square;stroke-linejoin:round;stroke-miterlimit:1;stroke-dasharray:none;stroke-opacity:1"
         id="path90"
         inkscape:connector-curvature="0" /><path
         d="m 23.7382,602.9618 c -5.102,0 -9.231,4.137 -9.231,9.23 0,5.102 4.129,9.235 9.231,9.235 5.097,0 9.23,-4.133 9.23,-9.235 0,-5.093 -4.133,-9.23 -9.23,-9.23 z"
         style="fill:none;stroke:#000000;stroke-width:0.64350998;stroke-linecap:square;stroke-linejoin:round;stroke-miterlimit:1;stroke-dasharray:none;stroke-opacity:1"
         id="path92"
         inkscape:connector-curvature="0" /><path
         d="m 106.9102,376.7898 c -5.098,0 -9.231,4.133 -9.231,9.231 0,5.101 4.133,9.234 9.231,9.234 5.097,0 9.23,-4.133 9.23,-9.234 0,-5.098 -4.133,-9.231 -9.23,-9.231 z"
         style="fill:none;stroke:#000000;stroke-width:0.64350998;stroke-linecap:square;stroke-linejoin:round;stroke-miterlimit:1;stroke-dasharray:none;stroke-opacity:1"
         id="path94"
         inkscape:connector-curvature="0" /><path
         d="m 1548.1242,311.2428 c -42.82,-3.055 -175.527,-18.293 -183.949,513.176 -7.031,443.797 104.766,495.387 174.574,494.43 117.731,-1.618 103.497,-214.02 99.59,-496.774 -3.941,-285.566 4.66,-504.066 -90.215,-510.832 z"
         style="fill:none;stroke:#000000;stroke-width:0.514808;stroke-linecap:square;stroke-linejoin:round;stroke-miterlimit:1;stroke-dasharray:2.059232, 4.118464;stroke-dashoffset:0;stroke-opacity:1"
         id="path112"
         inkscape:connector-curvature="0" /><path
         d="m 251.0702,535.5868 0,-299.125 -288.316,0 0,299.125 288.316,0 z"
         style="fill:none;stroke:#000000;stroke-width:1.6796;stroke-linecap:square;stroke-linejoin:round;stroke-miterlimit:1;stroke-dasharray:6.718404, 13.436807;stroke-dashoffset:0;stroke-opacity:1"
         id="path116"
         inkscape:connector-curvature="0" /><path
         d="m 368.9372,802.1568 c 28.469,0 51.547,23.078 51.547,51.551 0,28.473 -23.078,51.555 -51.547,51.555 -28.473,0 -51.555,-23.082 -51.555,-51.555 0,-28.473 23.082,-51.551 51.555,-51.551 z"
         style="fill:#ffffff;fill-opacity:1;fill-rule:nonzero;stroke:#000000;stroke-width:0.64350998;stroke-linecap:square;stroke-linejoin:round;stroke-miterlimit:1;stroke-dasharray:none;stroke-opacity:1"
         id="path120"
         inkscape:connector-curvature="0" /><path
         d="m 368.9372,844.4778 c 5.098,0 9.23,4.132 9.23,9.234 0,5.094 -4.132,9.226 -9.23,9.226 -5.098,0 -9.231,-4.132 -9.231,-9.226 0,-5.102 4.133,-9.234 9.231,-9.234 z"
         style="fill:none;stroke:#000000;stroke-width:0.64350998;stroke-linecap:square;stroke-linejoin:round;stroke-miterlimit:1;stroke-dasharray:none;stroke-opacity:1"
         id="path122"
         inkscape:connector-curvature="0" /><path
         d="m 369.35616,319.92597 c -4.75896,0 -8.6171,3.85719 -8.6171,8.61613 0,4.76268 3.85814,8.61986 8.6171,8.61986 4.75802,0 8.61615,-3.85718 8.61615,-8.61986 0,-4.75894 -3.85813,-8.61613 -8.61615,-8.61613 z"
         style="fill:none;stroke:#000000;stroke-width:0.64350998;stroke-linecap:square;stroke-linejoin:round;stroke-miterlimit:1;stroke-dasharray:none;stroke-opacity:1"
         id="path140"
         inkscape:connector-curvature="0" /><path
         d="m 429.89424,376.02602 c -4.75803,0 -8.61616,3.85812 -8.61616,8.6208 0,4.75801 3.85813,8.61613 8.61616,8.61613 4.75895,0 8.61709,-3.85812 8.61709,-8.61613 0,-4.76268 -3.85814,-8.6208 -8.61709,-8.6208 z"
         style="fill:none;stroke:#000000;stroke-width:0.64350998;stroke-linecap:square;stroke-linejoin:round;stroke-miterlimit:1;stroke-dasharray:none;stroke-opacity:1"
         id="path142"
         inkscape:connector-curvature="0" /><path
         d="m 369.35616,438.1947 c -4.75896,0 -8.6171,3.85812 -8.6171,8.61613 0,4.76267 3.85814,8.62079 8.6171,8.62079 4.75802,0 8.61615,-3.85812 8.61615,-8.62079 0,-4.75801 -3.85813,-8.61613 -8.61615,-8.61613 z"
         style="fill:none;stroke:#000000;stroke-width:0.64350998;stroke-linecap:square;stroke-linejoin:round;stroke-miterlimit:1;stroke-dasharray:none;stroke-opacity:1"
         id="path144"
         inkscape:connector-curvature="0" /><path
         d="m 1678.9172,535.5868 0,-299.125 -288.316,0 0,299.125 288.316,0 z"
         style="fill:none;stroke:#000000;stroke-width:1.6796;stroke-linecap:square;stroke-linejoin:round;stroke-miterlimit:1;stroke-dasharray:6.718404, 13.436807;stroke-dashoffset:0;stroke-opacity:1"
         id="path152"
         inkscape:connector-curvature="0" /><flowRoot
         xml:space="preserve"
         id="flowRoot4445"
         style="font-style:normal;font-variant:normal;font-weight:normal;font-stretch:normal;font-size:15px;line-height:125%;font-family:cmr10;-inkscape-font-specification:'cmr10, Normal';text-align:start;letter-spacing:0px;word-spacing:0px;writing-mode:lr-tb;text-anchor:start;fill:#000000;fill-opacity:1;stroke:none;stroke-width:1px;stroke-linecap:butt;stroke-linejoin:miter;stroke-opacity:1"
         transform="matrix(0,-1,1,0,-103.5538,1592.0828)"><flowRegion
           id="flowRegion4447"><rect
             id="rect4449"
             width="535.81635"
             height="477.89026"
             x="1192.312"
             y="950.95331" /></flowRegion><flowPara
           id="flowPara4451" /></flowRoot><path
         d="m 1243.4722,311.2428 c -116.473,0.36 -80.933,178.563 -69.129,344.461 12.668,178 6.762,248.383 71.473,248.383 64.707,0 57.5,-56.895 71.469,-222.609 14.754,-175.063 52.828,-370.633 -73.813,-370.235 z"
         style="fill:none;stroke:#000000;stroke-width:0.64350998;stroke-linecap:square;stroke-linejoin:round;stroke-miterlimit:1;stroke-dasharray:none;stroke-opacity:1"
         id="path98"
         inkscape:connector-curvature="0" /><path
         inkscape:connector-curvature="0"
         id="path102"
         style="fill:#ffffff;fill-opacity:1;fill-rule:nonzero;stroke:#000000;stroke-width:0.63601899;stroke-linecap:square;stroke-linejoin:round;stroke-miterlimit:1;stroke-dasharray:none;stroke-opacity:1"
         d="m 1037.8552,854.32471 c -0.059,8.92207 0.324,6.78195 107.59,7.48863 107.273,0.70668 108.441,2.02691 108.492,-6.89425 0.059,-8.92207 -1.121,-8.30486 -108.391,-9.01246 -107.269,-0.70668 -107.636,-0.50307 -107.691,8.41808 z" /><path
         d="m 1056.0072,935.2038 -176.441,0 0,122.754 -143.723,0 0,-122.754 -176.441,0 0,-165.539 496.605,0 0,165.539 z"
         style="fill:#ffffff;fill-opacity:1;fill-rule:nonzero;stroke:#000000;stroke-width:0.64350998;stroke-linecap:square;stroke-linejoin:round;stroke-miterlimit:1;stroke-dasharray:none;stroke-opacity:1"
         id="path108"
         inkscape:connector-curvature="0" /><rect
         y="-389.51825"
         x="1293.3325"
         height="13.395409"
         width="244.3801"
         id="rect4248"
         style="opacity:1;fill:none;fill-opacity:1;fill-rule:nonzero;stroke:#000000;stroke-width:0.82959998;stroke-linecap:butt;stroke-linejoin:miter;stroke-miterlimit:1;stroke-dasharray:none;stroke-dashoffset:0;stroke-opacity:1"
         transform="scale(1,-1)" /><path
         d="m 1246.0759,310.5886 c -42.547,0 -77.035,34.492 -77.035,77.039 0,42.543 34.488,77.036 77.035,77.036 42.543,0 77.035,-34.493 77.035,-77.036 0,-42.547 -34.492,-77.039 -77.035,-77.039 z"
         style="fill:#ffffff;fill-opacity:1;fill-rule:nonzero;stroke:#000000;stroke-width:0.64350998;stroke-linecap:square;stroke-linejoin:round;stroke-miterlimit:1;stroke-dasharray:none;stroke-opacity:1"
         id="path104"
         inkscape:connector-curvature="0" /><path
         d="m 1246.7222,376.0008 c -5.098,0 -9.234,4.133 -9.234,9.234 0,5.094 4.136,9.231 9.234,9.231 5.098,0 9.231,-4.137 9.231,-9.231 0,-5.101 -4.133,-9.234 -9.231,-9.234 z"
         style="fill:none;stroke:#000000;stroke-width:0.64350998;stroke-linecap:square;stroke-linejoin:round;stroke-miterlimit:1;stroke-dasharray:none;stroke-opacity:1"
         id="path106"
         inkscape:connector-curvature="0" /><path
         d="m 1127.2308,370.3436 0,-6.082 c 0,-2.531 -0.125,-3.289 -5.312,-3.289 l -1.473,0 0,-2.179 c 2.879,0.226 6.52,0.226 9.473,0.226 2.934,0 6.644,0 9.496,-0.226 l 0,2.179 -1.461,0 c -5.184,0 -5.324,0.758 -5.324,3.289 l 0,6.082 7.012,0 0,2.168 -7.012,0 0,31.875 c 0,1.411 0,1.813 -1.113,1.813 -0.645,0 -0.844,0 -1.403,-0.856 l -21.508,-32.832 1.985,0 17.078,26.114 0,-26.114 -19.063,0 0,-2.168 18.625,0 z"
         style="fill:#000000;fill-opacity:1;fill-rule:nonzero;stroke:none"
         id="path136"
         inkscape:connector-curvature="0" /><path
         d="m 914.69542,1526.6999 0,0.676 -0.016,0.054 0,0.211 -0.016,0.039 -0.015,0.102 0,0.082 -0.028,0.074 -0.011,0.067 -0.028,0.074 -0.031,0.055 -0.027,0.054 -0.028,0.043 -0.086,0.086 -0.054,0.039 -0.059,0.031 -0.051,0.028 -0.046,0.011 -0.028,0.016 -0.039,0 -0.027,0.016 -0.047,0.015 -0.039,0 -0.043,0.012 -0.043,0 -0.055,0.016 -0.097,0 -0.043,0.015 -0.297,0 -0.071,0.016 -0.281,0 c -4.34,-4.484 -10.5,-4.484 -12.734,-4.484 l 0,-2.18 c 1.406,0 5.523,0 9.152,1.828 l 0,-36.277 c 0,-2.528 -0.195,-3.36 -6.492,-3.36 l -2.25,0 0,-2.179 c 2.461,0.226 8.547,0.226 11.344,0.226 2.808,0 8.882,0 11.34,-0.226 l 0,2.179 -2.235,0 c -6.297,0 -6.519,0.758 -6.519,3.36 l 0,39.285 0,0 z"
         style="fill:#000000;fill-opacity:1;fill-rule:nonzero;stroke:none"
         id="path124"
         inkscape:connector-curvature="0" /><path
         d="m 1186.971,373.96838 c -4.6234,0 -8.3707,3.74455 -8.3707,8.3715 0,4.62604 3.7473,8.37058 8.3707,8.37058 4.6233,0 8.3742,-3.74454 8.3742,-8.37058 0,-4.62695 -3.7509,-8.3715 -8.3742,-8.3715 z"
         style="fill:none;stroke:#000000;stroke-width:0.64350998;stroke-linecap:square;stroke-linejoin:round;stroke-miterlimit:1;stroke-dasharray:none;stroke-opacity:1"
         id="path14"
         inkscape:connector-curvature="0" /><path
         d="m 1244.5306,320.19984 c -4.6234,0 -8.3716,3.74818 -8.3716,8.37512 0,4.62242 3.7482,8.37059 8.3716,8.37059 4.6233,0 8.3706,-3.74817 8.3706,-8.37059 0,-4.62694 -3.7473,-8.37512 -8.3706,-8.37512 z"
         style="fill:none;stroke:#000000;stroke-width:0.64350998;stroke-linecap:square;stroke-linejoin:round;stroke-miterlimit:1;stroke-dasharray:none;stroke-opacity:1"
         id="path146"
         inkscape:connector-curvature="0" /><path
         d="m 1303.3435,374.70568 c -4.6224,0 -8.3706,3.74455 -8.3706,8.37059 0,4.62332 3.7482,8.37149 8.3706,8.37149 4.6234,0 8.3716,-3.74817 8.3716,-8.37149 0,-4.62604 -3.7482,-8.37059 -8.3716,-8.37059 z"
         style="fill:none;stroke:#000000;stroke-width:0.64350998;stroke-linecap:square;stroke-linejoin:round;stroke-miterlimit:1;stroke-dasharray:none;stroke-opacity:1"
         id="path148"
         inkscape:connector-curvature="0" /><path
         d="m 1244.5306,435.09905 c -4.6234,0 -8.3716,3.74817 -8.3716,8.37058 0,4.62695 3.7482,8.37512 8.3716,8.37512 4.6233,0 8.3706,-3.74817 8.3706,-8.37512 0,-4.62241 -3.7473,-8.37058 -8.3706,-8.37058 z"
         style="fill:none;stroke:#000000;stroke-width:0.64350998;stroke-linecap:square;stroke-linejoin:round;stroke-miterlimit:1;stroke-dasharray:none;stroke-opacity:1"
         id="path150"
         inkscape:connector-curvature="0" /><path
         inkscape:connector-curvature="0"
         id="path4242"
         style="fill:#ffffff;stroke:#000000;stroke-width:0.64350998;stroke-linecap:square;stroke-linejoin:round;stroke-miterlimit:1;stroke-dasharray:none;stroke-opacity:1"
         d="m 367.57173,377.12697 c 3.63161,0 6.57506,3.0515 6.57506,6.81936 0,3.76196 -2.94345,6.81349 -6.57506,6.81349 -3.63161,0 -6.57579,-3.05153 -6.57579,-6.81349 0,-3.76786 2.94418,-6.81936 6.57579,-6.81936 z" /><rect
         style="opacity:1;fill:#ffffff;fill-opacity:1;fill-rule:nonzero;stroke:#ffffff;stroke-width:0.82959998;stroke-linecap:butt;stroke-linejoin:miter;stroke-miterlimit:1;stroke-dasharray:none;stroke-dashoffset:0;stroke-opacity:1"
         id="rect4244"
         width="21.088934"
         height="11.705897"
         x="345.83374"
         y="-389.7294"
         transform="scale(1,-1)" /><path
         d="m 1537.3813,376.0709 c 3.6316,0 6.5751,3.0515 6.5751,6.8194 0,3.762 -2.9435,6.8135 -6.5751,6.8135 -3.6316,0 -6.5758,-3.0515 -6.5758,-6.8135 0,-3.7679 2.9442,-6.8194 6.5758,-6.8194 z"
         style="fill:#ffffff;stroke:#000000;stroke-width:0.64350998;stroke-linecap:square;stroke-linejoin:round;stroke-miterlimit:1;stroke-dasharray:none;stroke-opacity:1"
         id="path4250"
         inkscape:connector-curvature="0" /><rect
         y="-388.6734"
         x="1515.6433"
         height="11.705897"
         width="21.088934"
         id="rect4252"
         style="opacity:1;fill:#ffffff;fill-opacity:1;fill-rule:nonzero;stroke:#ffffff;stroke-width:0.82959998;stroke-linecap:butt;stroke-linejoin:miter;stroke-miterlimit:1;stroke-dasharray:none;stroke-dashoffset:0;stroke-opacity:1"
         transform="scale(1,-1)" /><path
         d="m 802.55454,863.98077 0.531,0.18 0.52,0.21 0.523,0.211 0.489,0.239 0.492,0.254 0.48,0.269 0.465,0.277 0.449,0.313 0.438,0.309 0.433,0.324 0.407,0.336 0.394,0.351 0.379,0.364 0.363,0.382 0.352,0.379 0.336,0.407 0.312,0.406 0.297,0.426 0.278,0.421 0.269,0.45 0.254,0.449 0.223,0.449 0.199,0.465 0.195,0.476 0.309,0.954 0.125,0.496 0.101,0.504 0.082,0.507 0.055,0.504 0.031,0.508 0.016,0.52 c 0,5.734 -6.172,9.668 -12.891,9.668 -7.07,0 -12.382,-4.215 -12.382,-9.528 0,-2.32 1.535,-3.656 3.57,-3.656 2.164,0 3.57,1.547 3.57,3.586 0,3.484 -3.305,3.484 -4.328,3.484 2.148,3.43 6.789,4.36 9.305,4.36 2.851,0 6.718,-1.547 6.718,-7.844 0,-0.859 -0.156,-4.906 -1.968,-8 -2.094,-3.359 -4.485,-3.555 -6.211,-3.637 -0.578,-0.07 -2.25,-0.199 -2.758,-0.199 -0.547,-0.07 -1.055,-0.137 -1.055,-0.844 0,-0.758 0.508,-0.758 1.703,-0.758 l 3.063,0 c 5.765,0 8.351,-4.765 8.351,-11.652 0,-9.5 -4.836,-11.539 -7.929,-11.539 -3.008,0 -8.262,1.18 -10.696,5.316 2.434,-0.339 4.61,1.204 4.61,3.864 0,2.515 -1.883,3.906 -3.934,3.906 -1.66,0 -3.91,-0.969 -3.91,-4.062 0,-6.368 6.508,-10.977 14.156,-10.977 8.532,0 14.914,6.367 14.914,13.492 0,5.762 -4.429,11.203 -11.695,12.68 z"
         style="fill:#000000;fill-opacity:1;fill-rule:nonzero;stroke:none"
         id="path130"
         inkscape:connector-curvature="0" /><g
         transform="matrix(7.0285858,0,0,-7.0285858,-1387.519,1211.2053)"
         ns0:text="$5$"
         ns0:preamble=""
         id="g4357"><defs
           id="defs4359"><g
             id="g4361"><symbol
               style="overflow:visible"
               overflow="visible"
               id="textext-ddd2e779-0"><path
                 inkscape:connector-curvature="0"
                 style="stroke:none"
                 d=""
                 id="path4364" /></symbol><symbol
               style="overflow:visible"
               overflow="visible"
               id="textext-ddd2e779-1"><path
                 inkscape:connector-curvature="0"
                 style="stroke:none"
                 d="m 4.46875,-2 c 0,-1.1875 -0.8125,-2.1875 -1.890625,-2.1875 -0.46875,0 -0.90625,0.15625 -1.265625,0.515625 l 0,-1.953125 c 0.203125,0.0625 0.53125,0.125 0.84375,0.125 1.234375,0 1.9375,-0.90625 1.9375,-1.03125 0,-0.0625 -0.03125,-0.109375 -0.109375,-0.109375 0,0 -0.03125,0 -0.078125,0.03125 C 3.703125,-6.515625 3.21875,-6.3125 2.546875,-6.3125 2.15625,-6.3125 1.6875,-6.390625 1.21875,-6.59375 1.140625,-6.625 1.125,-6.625 1.109375,-6.625 1,-6.625 1,-6.546875 1,-6.390625 L 1,-3.4375 c 0,0.171875 0,0.25 0.140625,0.25 0.078125,0 0.09375,-0.015625 0.140625,-0.078125 C 1.390625,-3.421875 1.75,-3.96875 2.5625,-3.96875 c 0.515625,0 0.765625,0.453125 0.84375,0.640625 0.15625,0.375 0.1875,0.75 0.1875,1.25 0,0.359375 0,0.953125 -0.25,1.375 C 3.109375,-0.3125 2.734375,-0.0625 2.28125,-0.0625 c -0.71875,0 -1.296875,-0.53125 -1.46875,-1.109375 0.03125,0 0.0625,0.015625 0.171875,0.015625 0.328125,0 0.5,-0.25 0.5,-0.484375 0,-0.25 -0.171875,-0.5 -0.5,-0.5 C 0.84375,-2.140625 0.5,-2.0625 0.5,-1.609375 0.5,-0.75 1.1875,0.21875 2.296875,0.21875 3.453125,0.21875 4.46875,-0.734375 4.46875,-2 Z m 0,0"
                 id="path4367" /></symbol></g></defs><g
           id="textext-ddd2e779-2"><g
             style="fill:#000000;fill-opacity:1"
             id="g4370"><use
               height="100%"
               width="100%"
               xlink:href="#textext-ddd2e779-1"
               x="223.43201"
               y="134.765"
               id="use4372" /></g></g></g><g
         id="g4496"
         ns0:preamble=""
         ns0:text="$5$"
         transform="matrix(7.0285858,0,0,-7.0285858,-147.519,1211.2053)"><defs
           id="defs4498"><g
             id="g4500"><symbol
               id="symbol4502"
               overflow="visible"
               style="overflow:visible"><path
                 id="path4504"
                 d=""
                 style="stroke:none"
                 inkscape:connector-curvature="0" /></symbol><symbol
               id="symbol4506"
               overflow="visible"
               style="overflow:visible"><path
                 id="path4508"
                 d="m 4.46875,-2 c 0,-1.1875 -0.8125,-2.1875 -1.890625,-2.1875 -0.46875,0 -0.90625,0.15625 -1.265625,0.515625 l 0,-1.953125 c 0.203125,0.0625 0.53125,0.125 0.84375,0.125 1.234375,0 1.9375,-0.90625 1.9375,-1.03125 0,-0.0625 -0.03125,-0.109375 -0.109375,-0.109375 0,0 -0.03125,0 -0.078125,0.03125 C 3.703125,-6.515625 3.21875,-6.3125 2.546875,-6.3125 2.15625,-6.3125 1.6875,-6.390625 1.21875,-6.59375 1.140625,-6.625 1.125,-6.625 1.109375,-6.625 1,-6.625 1,-6.546875 1,-6.390625 L 1,-3.4375 c 0,0.171875 0,0.25 0.140625,0.25 0.078125,0 0.09375,-0.015625 0.140625,-0.078125 C 1.390625,-3.421875 1.75,-3.96875 2.5625,-3.96875 c 0.515625,0 0.765625,0.453125 0.84375,0.640625 0.15625,0.375 0.1875,0.75 0.1875,1.25 0,0.359375 0,0.953125 -0.25,1.375 C 3.109375,-0.3125 2.734375,-0.0625 2.28125,-0.0625 c -0.71875,0 -1.296875,-0.53125 -1.46875,-1.109375 0.03125,0 0.0625,0.015625 0.171875,0.015625 0.328125,0 0.5,-0.25 0.5,-0.484375 0,-0.25 -0.171875,-0.5 -0.5,-0.5 C 0.84375,-2.140625 0.5,-2.0625 0.5,-1.609375 0.5,-0.75 1.1875,0.21875 2.296875,0.21875 3.453125,0.21875 4.46875,-0.734375 4.46875,-2 Z m 0,0"
                 style="stroke:none"
                 inkscape:connector-curvature="0" /></symbol></g></defs><g
           id="g4510"><g
             id="g4512"
             style="fill:#000000;fill-opacity:1"><use
               id="use4514"
               y="134.765"
               x="223.43201"
               xlink:href="#textext-ddd2e779-1"
               width="100%"
               height="100%" /></g></g></g></g></g></svg>